<?xml version="1.0" encoding="us-ascii" standalone="no"?><svg xmlns="http://www.w3.org/2000/svg" xmlns:xlink="http://www.w3.org/1999/xlink" contentStyleType="text/css" height="703px" preserveAspectRatio="none" style="width:597px;height:703px;" version="1.1" viewBox="0 0 597 703" width="597px" zoomAndPan="magnify"><defs/><g><!--cluster Foundation--><g id="cluster_Foundation"><path d="M47.5,6 L129.5,6 A3.75,3.75 0 0 1 132,8.5 L139,28.4883 L144.5,28.4883 A2.5,2.5 0 0 1 147,30.9883 L147,86.5 A2.5,2.5 0 0 1 144.5,89 L47.5,89 A2.5,2.5 0 0 1 45,86.5 L45,8.5 A2.5,2.5 0 0 1 47.5,6 " fill="none" style="stroke:#000000;stroke-width:1.5;"/><line style="stroke:#000000;stroke-width:1.5;" x1="45" x2="139" y1="28.4883" y2="28.4883"/><text fill="#000000" font-family="sans-serif" font-size="14" font-weight="bold" lengthAdjust="spacing" textLength="81" x="49" y="21.5352">Foundation</text></g><!--cluster Values--><g id="cluster_Values"><path d="M189.5,6 L238.5,6 A3.75,3.75 0 0 1 241,8.5 L248,28.4883 L286.5,28.4883 A2.5,2.5 0 0 1 289,30.9883 L289,86.5 A2.5,2.5 0 0 1 286.5,89 L189.5,89 A2.5,2.5 0 0 1 187,86.5 L187,8.5 A2.5,2.5 0 0 1 189.5,6 " fill="none" style="stroke:#000000;stroke-width:1.5;"/><line style="stroke:#000000;stroke-width:1.5;" x1="187" x2="248" y1="28.4883" y2="28.4883"/><text fill="#000000" font-family="sans-serif" font-size="14" font-weight="bold" lengthAdjust="spacing" textLength="48" x="191" y="21.5352">Values</text></g><!--cluster Constraints--><g id="cluster_Constraints"><path d="M8.5,138 L93.5,138 A3.75,3.75 0 0 1 96,140.5 L103,160.4883 L587.5,160.4883 A2.5,2.5 0 0 1 590,162.9883 L590,694.45 A2.5,2.5 0 0 1 587.5,696.95 L8.5,696.95 A2.5,2.5 0 0 1 6,694.45 L6,140.5 A2.5,2.5 0 0 1 8.5,138 " fill="none" style="stroke:#000000;stroke-width:1.5;"/><line style="stroke:#000000;stroke-width:1.5;" x1="6" x2="103" y1="160.4883" y2="160.4883"/><text fill="#000000" font-family="sans-serif" font-size="14" font-weight="bold" lengthAdjust="spacing" textLength="84" x="10" y="153.5352">Constraints</text></g><!--cluster Terms--><g id="cluster_Terms"><path d="M40.5,189 L87.5,189 A3.75,3.75 0 0 1 90,191.5 L97,211.4883 L555.5,211.4883 A2.5,2.5 0 0 1 558,213.9883 L558,662.45 A2.5,2.5 0 0 1 555.5,664.95 L40.5,664.95 A2.5,2.5 0 0 1 38,662.45 L38,191.5 A2.5,2.5 0 0 1 40.5,189 " fill="none" style="stroke:#000000;stroke-width:1.5;"/><line style="stroke:#000000;stroke-width:1.5;" x1="38" x2="97" y1="211.4883" y2="211.4883"/><text fill="#000000" font-family="sans-serif" font-size="14" font-weight="bold" lengthAdjust="spacing" textLength="46" x="42" y="204.5352">Terms</text></g><!--class Name--><g id="elem_Name"><rect codeLine="8" fill="#F1F1F1" height="32" id="Name" rx="2.5" ry="2.5" style="stroke:#181818;stroke-width:0.5;" width="71" x="60.5" y="41"/><ellipse cx="75.5" cy="57" fill="#ADD1B2" rx="11" ry="11" style="stroke:#181818;stroke-width:1.0;"/><path d="M77.9731,63.1431 Q77.3921,63.4419 76.7529,63.5913 Q76.1138,63.7407 75.4082,63.7407 Q72.9014,63.7407 71.5815,62.0889 Q70.2617,60.437 70.2617,57.3159 Q70.2617,54.1865 71.5815,52.5347 Q72.9014,50.8828 75.4082,50.8828 Q76.1138,50.8828 76.7612,51.0322 Q77.4087,51.1816 77.9731,51.4805 L77.9731,54.2031 Q77.3423,53.6221 76.7488,53.3523 Q76.1553,53.0825 75.5244,53.0825 Q74.1797,53.0825 73.4949,54.1492 Q72.8101,55.2158 72.8101,57.3159 Q72.8101,59.4077 73.4949,60.4744 Q74.1797,61.541 75.5244,61.541 Q76.1553,61.541 76.7488,61.2712 Q77.3423,61.0015 77.9731,60.4204 Z " fill="#000000"/><text fill="#000000" font-family="sans-serif" font-size="14" lengthAdjust="spacing" textLength="39" x="89.5" y="62.291">Name</text></g><!--class Value--><g id="elem_Value"><rect codeLine="13" fill="#F1F1F1" height="32" id="Value" rx="2.5" ry="2.5" style="stroke:#181818;stroke-width:0.5;" width="70" x="203" y="41"/><ellipse cx="218" cy="57" fill="#A9DCDF" rx="11" ry="11" style="stroke:#181818;stroke-width:1.0;"/><path d="M217.8633,52.3481 L216.7095,57.4199 L219.0254,57.4199 Z M216.3691,50.1069 L219.3657,50.1069 L222.7109,62.5 L220.2622,62.5 L219.4985,59.437 L216.2197,59.437 L215.4727,62.5 L213.0239,62.5 Z " fill="#000000"/><text fill="#000000" font-family="sans-serif" font-size="14" font-style="italic" lengthAdjust="spacing" textLength="38" x="232" y="62.291">Value</text></g><!--class Term--><g id="elem_Term"><rect codeLine="19" fill="#F1F1F1" height="40" id="Term" rx="2.5" ry="2.5" style="stroke:#181818;stroke-width:0.5;" width="68" x="223" y="232"/><ellipse cx="238" cy="248" fill="#A9DCDF" rx="11" ry="11" style="stroke:#181818;stroke-width:1.0;"/><path d="M237.8633,243.3481 L236.7095,248.4199 L239.0254,248.4199 Z M236.3691,241.1069 L239.3657,241.1069 L242.7109,253.5 L240.2622,253.5 L239.4985,250.437 L236.2197,250.437 L235.4727,253.5 L233.0239,253.5 Z " fill="#000000"/><text fill="#000000" font-family="sans-serif" font-size="14" font-style="italic" lengthAdjust="spacing" textLength="36" x="252" y="253.291">Term</text><line style="stroke:#181818;stroke-width:0.5;" x1="224" x2="290" y1="264" y2="264"/></g><!--class FunctionalTerm--><g id="elem_FunctionalTerm"><rect codeLine="24" fill="#F1F1F1" height="72.9766" id="FunctionalTerm" rx="2.5" ry="2.5" style="stroke:#181818;stroke-width:0.5;" width="172" x="81" y="333"/><ellipse cx="110.4" cy="349" fill="#ADD1B2" rx="11" ry="11" style="stroke:#181818;stroke-width:1.0;"/><path d="M112.8731,355.1431 Q112.2921,355.4419 111.6529,355.5913 Q111.0138,355.7407 110.3082,355.7407 Q107.8014,355.7407 106.4815,354.0889 Q105.1617,352.437 105.1617,349.3159 Q105.1617,346.1865 106.4815,344.5347 Q107.8014,342.8828 110.3082,342.8828 Q111.0138,342.8828 111.6612,343.0322 Q112.3087,343.1816 112.8731,343.4805 L112.8731,346.2031 Q112.2423,345.6221 111.6488,345.3523 Q111.0553,345.0825 110.4244,345.0825 Q109.0797,345.0825 108.3949,346.1492 Q107.7101,347.2158 107.7101,349.3159 Q107.7101,351.4077 108.3949,352.4744 Q109.0797,353.541 110.4244,353.541 Q111.0553,353.541 111.6488,353.2712 Q112.2423,353.0015 112.8731,352.4204 Z " fill="#000000"/><text fill="#000000" font-family="sans-serif" font-size="14" lengthAdjust="spacing" textLength="108" x="127.6" y="354.291">FunctionalTerm</text><line style="stroke:#181818;stroke-width:0.5;" x1="82" x2="252" y1="365" y2="365"/><ellipse cx="92" cy="378.7441" fill="none" rx="3" ry="3" style="stroke:#038048;stroke-width:1.0;"/><text fill="#000000" font-family="sans-serif" font-size="14" lengthAdjust="spacing" textLength="101" x="101" y="382.5352">function: Term</text><ellipse cx="92" cy="395.2324" fill="none" rx="3" ry="3" style="stroke:#038048;stroke-width:1.0;"/><text fill="#000000" font-family="sans-serif" font-size="14" lengthAdjust="spacing" textLength="146" x="101" y="399.0234">arguments: 0..* Term</text></g><!--class SequenceBuilder--><g id="elem_SequenceBuilder"><rect codeLine="30" fill="#F1F1F1" height="40" id="SequenceBuilder" rx="2.5" ry="2.5" style="stroke:#181818;stroke-width:0.5;" width="146" x="303" y="349.49"/><ellipse cx="318" cy="365.49" fill="#ADD1B2" rx="11" ry="11" style="stroke:#181818;stroke-width:1.0;"/><path d="M320.4731,371.6331 Q319.8921,371.9319 319.2529,372.0813 Q318.6138,372.2307 317.9082,372.2307 Q315.4014,372.2307 314.0815,370.5789 Q312.7617,368.927 312.7617,365.8059 Q312.7617,362.6765 314.0815,361.0247 Q315.4014,359.3728 317.9082,359.3728 Q318.6138,359.3728 319.2612,359.5222 Q319.9087,359.6716 320.4731,359.9705 L320.4731,362.6931 Q319.8423,362.1121 319.2488,361.8423 Q318.6553,361.5725 318.0244,361.5725 Q316.6797,361.5725 315.9949,362.6392 Q315.3101,363.7058 315.3101,365.8059 Q315.3101,367.8977 315.9949,368.9644 Q316.6797,370.031 318.0244,370.031 Q318.6553,370.031 319.2488,369.7612 Q319.8423,369.4915 320.4731,368.9104 Z " fill="#000000"/><text fill="#000000" font-family="sans-serif" font-size="14" lengthAdjust="spacing" textLength="114" x="332" y="370.781">SequenceBuilder</text><line style="stroke:#181818;stroke-width:0.5;" x1="304" x2="448" y1="381.49" y2="381.49"/></g><!--class SequenceVariables--><g id="elem_SequenceVariables"><rect codeLine="35" fill="#F1F1F1" height="40" id="SequenceVariables" rx="2.5" ry="2.5" style="stroke:#181818;stroke-width:0.5;" width="161" x="121.5" y="466.97"/><ellipse cx="136.5" cy="482.97" fill="#A9DCDF" rx="11" ry="11" style="stroke:#181818;stroke-width:1.0;"/><path d="M136.3633,478.3181 L135.2095,483.3899 L137.5254,483.3899 Z M134.8691,476.0769 L137.8657,476.0769 L141.2109,488.47 L138.7622,488.47 L137.9985,485.407 L134.7197,485.407 L133.9727,488.47 L131.5239,488.47 Z " fill="#000000"/><text fill="#000000" font-family="sans-serif" font-size="14" font-style="italic" lengthAdjust="spacing" textLength="129" x="150.5" y="488.261">SequenceVariables</text><line style="stroke:#181818;stroke-width:0.5;" x1="122.5" x2="281.5" y1="498.97" y2="498.97"/></g><!--class QuantifiedSentence--><g id="elem_QuantifiedSentence"><rect fill="#F1F1F1" height="40" id="QuantifiedSentence" rx="2.5" ry="2.5" style="stroke:#181818;stroke-width:0.5;" width="166" x="333" y="466.97"/><ellipse cx="348" cy="482.97" fill="#ADD1B2" rx="11" ry="11" style="stroke:#181818;stroke-width:1.0;"/><path d="M350.4731,489.1131 Q349.8921,489.4119 349.2529,489.5613 Q348.6138,489.7107 347.9082,489.7107 Q345.4014,489.7107 344.0815,488.0589 Q342.7617,486.407 342.7617,483.2859 Q342.7617,480.1565 344.0815,478.5047 Q345.4014,476.8528 347.9082,476.8528 Q348.6138,476.8528 349.2612,477.0022 Q349.9087,477.1516 350.4731,477.4505 L350.4731,480.1731 Q349.8423,479.5921 349.2488,479.3223 Q348.6553,479.0525 348.0244,479.0525 Q346.6797,479.0525 345.9949,480.1192 Q345.3101,481.1858 345.3101,483.2859 Q345.3101,485.3777 345.9949,486.4444 Q346.6797,487.511 348.0244,487.511 Q348.6553,487.511 349.2488,487.2412 Q349.8423,486.9715 350.4731,486.3904 Z " fill="#000000"/><text fill="#000000" font-family="sans-serif" font-size="14" lengthAdjust="spacing" textLength="134" x="362" y="488.261">QuantifiedSentence</text><line style="stroke:#181818;stroke-width:0.5;" x1="334" x2="498" y1="498.97" y2="498.97"/></g><!--class SequenceVariableSet--><g id="elem_SequenceVariableSet"><rect codeLine="36" fill="#F1F1F1" height="56.4883" id="SequenceVariableSet" rx="2.5" ry="2.5" style="stroke:#181818;stroke-width:0.5;" width="194" x="70" y="576.22"/><ellipse cx="93.55" cy="592.22" fill="#ADD1B2" rx="11" ry="11" style="stroke:#181818;stroke-width:1.0;"/><path d="M96.0231,598.3631 Q95.4421,598.6619 94.8029,598.8113 Q94.1638,598.9607 93.4582,598.9607 Q90.9514,598.9607 89.6315,597.3089 Q88.3117,595.657 88.3117,592.5359 Q88.3117,589.4065 89.6315,587.7547 Q90.9514,586.1028 93.4582,586.1028 Q94.1638,586.1028 94.8112,586.2522 Q95.4587,586.4016 96.0231,586.7005 L96.0231,589.4231 Q95.3923,588.8421 94.7988,588.5723 Q94.2053,588.3025 93.5744,588.3025 Q92.2297,588.3025 91.5449,589.3692 Q90.8601,590.4358 90.8601,592.5359 Q90.8601,594.6277 91.5449,595.6944 Q92.2297,596.761 93.5744,596.761 Q94.2053,596.761 94.7988,596.4912 Q95.3923,596.2215 96.0231,595.6404 Z " fill="#000000"/><text fill="#000000" font-family="sans-serif" font-size="14" lengthAdjust="spacing" textLength="143" x="109.45" y="597.511">SequenceVariableSet</text><line style="stroke:#181818;stroke-width:0.5;" x1="71" x2="263" y1="608.22" y2="608.22"/><text fill="#000000" font-family="sans-serif" font-size="14" lengthAdjust="spacing" textLength="182" x="76" y="625.7552">names: {unique} 1..* Name</text></g><!--class MappingSequenceVariables--><g id="elem_MappingSequenceVariables"><rect codeLine="39" fill="#F1F1F1" height="72.9766" id="MappingSequenceVariables" rx="2.5" ry="2.5" style="stroke:#181818;stroke-width:0.5;" width="221" x="313.5" y="567.97"/><ellipse cx="328.5" cy="583.97" fill="#ADD1B2" rx="11" ry="11" style="stroke:#181818;stroke-width:1.0;"/><path d="M330.9731,590.1131 Q330.3921,590.4119 329.7529,590.5613 Q329.1138,590.7107 328.4082,590.7107 Q325.9014,590.7107 324.5815,589.0589 Q323.2617,587.407 323.2617,584.2859 Q323.2617,581.1565 324.5815,579.5047 Q325.9014,577.8528 328.4082,577.8528 Q329.1138,577.8528 329.7612,578.0022 Q330.4087,578.1516 330.9731,578.4505 L330.9731,581.1731 Q330.3423,580.5921 329.7488,580.3223 Q329.1553,580.0525 328.5244,580.0525 Q327.1797,580.0525 326.4949,581.1192 Q325.8101,582.1858 325.8101,584.2859 Q325.8101,586.3777 326.4949,587.4444 Q327.1797,588.511 328.5244,588.511 Q329.1553,588.511 329.7488,588.2412 Q330.3423,587.9715 330.9731,587.3904 Z " fill="#000000"/><text fill="#000000" font-family="sans-serif" font-size="14" lengthAdjust="spacing" textLength="189" x="342.5" y="589.261">MappingSequenceVariables</text><line style="stroke:#181818;stroke-width:0.5;" x1="314.5" x2="533.5" y1="599.97" y2="599.97"/><text fill="#000000" font-family="sans-serif" font-size="14" lengthAdjust="spacing" textLength="70" x="319.5" y="617.5052">key: Name</text><text fill="#000000" font-family="sans-serif" font-size="14" lengthAdjust="spacing" textLength="83" x="319.5" y="633.9934">value: Name</text></g><!--reverse link Term to Name--><g id="link_Term_Name"><path codeLine="21" d="M245.4985,214.3864 C234.7585,180.1764 219,130 219,130 C219,130 157,122 157,122 C157,122 128.82,92.43 110.77,73.49 " fill="none" id="Term-backto-Name" style="stroke:#181818;stroke-width:1.0;"/><polygon fill="none" points="250.89,231.56,251.223,212.5893,239.774,216.1836,250.89,231.56" style="stroke:#181818;stroke-width:1.0;"/></g><!--reverse link Term to Value--><g id="link_Term_Value"><path codeLine="22" d="M259.8916,213.7339 C262.6816,177.7539 267,122 267,122 C267,122 267,105 267,105 C267,105 255.95,87.09 247.5,73.39 " fill="none" id="Term-backto-Value" style="stroke:#181818;stroke-width:1.0;"/><polygon fill="none" points="258.5,231.68,265.8736,214.1977,253.9096,213.27,258.5,231.68" style="stroke:#181818;stroke-width:1.0;"/></g><!--reverse link Term to FunctionalTerm--><g id="link_Term_FunctionalTerm"><path codeLine="28" d="M230.8765,286.5286 C218.0665,302.9686 210.39,312.8 194.86,332.73 " fill="none" id="Term-backto-FunctionalTerm" style="stroke:#181818;stroke-width:1.0;"/><polygon fill="none" points="241.94,272.33,226.1437,282.8407,235.6094,290.2164,241.94,272.33" style="stroke:#181818;stroke-width:1.0;"/></g><!--reverse link Term to SequenceBuilder--><g id="link_Term_SequenceBuilder"><path codeLine="31" d="M289.8347,284.8683 C311.7947,306.1883 334.02,327.75 356.02,349.09 " fill="none" id="Term-backto-SequenceBuilder" style="stroke:#181818;stroke-width:1.0;"/><polygon fill="none" points="276.92,272.33,285.6553,289.1732,294.0142,280.5634,276.92,272.33" style="stroke:#181818;stroke-width:1.0;"/></g><!--link SequenceBuilder to SequenceVariables--><g id="link_SequenceBuilder_SequenceVariables"><path codeLine="32" d="M336.8806,396.4541 C304.7606,417.7641 268.3795,441.9226 236.2195,463.2626 " fill="none" id="SequenceBuilder-SequenceVariables" style="stroke:#181818;stroke-width:1.0;"/><polygon fill="#181818" points="346.88,389.82,339.6689,389.8039,336.8806,396.4541,344.0917,396.4702,346.88,389.82" style="stroke:#181818;stroke-width:1.0;"/><polygon fill="#181818" points="231.22,466.58,240.9308,464.9368,235.3862,463.8155,236.5076,458.2709,231.22,466.58" style="stroke:#181818;stroke-width:1.0;"/><text fill="#000000" font-family="sans-serif" font-size="13" lengthAdjust="spacing" textLength="66" x="164.1569" y="456.348">+variables</text></g><!--link SequenceBuilder to QuantifiedSentence--><g id="link_SequenceBuilder_QuantifiedSentence"><path codeLine="33" d="M386.627,401.1593 C394.007,422.4693 399.9266,439.5703 407.3166,460.9103 " fill="none" id="SequenceBuilder-QuantifiedSentence" style="stroke:#181818;stroke-width:1.0;"/><polygon fill="#181818" points="382.7,389.82,380.8837,396.7986,386.627,401.1593,388.4432,394.1806,382.7,389.82" style="stroke:#181818;stroke-width:1.0;"/><polygon fill="#181818" points="409.28,466.58,410.1147,456.7666,407.6438,461.8553,402.5551,459.3844,409.28,466.58" style="stroke:#181818;stroke-width:1.0;"/><text fill="#000000" font-family="sans-serif" font-size="13" lengthAdjust="spacing" textLength="41" x="360.6244" y="456.348">+body</text></g><!--reverse link SequenceVariables to SequenceVariableSet--><g id="link_SequenceVariables_SequenceVariableSet"><path codeLine="44" d="M190.9214,524.5269 C185.2414,543.2769 181.78,554.69 175.37,575.84 " fill="none" id="SequenceVariables-backto-SequenceVariableSet" style="stroke:#181818;stroke-width:1.0;"/><polygon fill="none" points="196.14,507.3,185.1791,522.7874,196.6637,526.2664,196.14,507.3" style="stroke:#181818;stroke-width:1.0;"/></g><!--reverse link SequenceVariables to MappingSequenceVariables--><g id="link_SequenceVariables_MappingSequenceVariables"><path codeLine="45" d="M255.3768,515.7403 C286.8868,532.1403 316.83,547.71 354.98,567.56 " fill="none" id="SequenceVariables-backto-MappingSequenceVariables" style="stroke:#181818;stroke-width:1.0;"/><polygon fill="none" points="239.41,507.43,252.6067,521.0625,258.1469,510.418,239.41,507.43" style="stroke:#181818;stroke-width:1.0;"/></g><!--reverse link Name to Terms--><g id="link_Name_Terms"><path codeLine="47" d="M69.8567,76.9041 C50.8967,90.6041 31,105 31,105 C31,105 31,122 31,122 C31,122 34.6325,153.25 38.3225,184.9875 C38.4378,185.9793 38.5532,186.9716 38.6685,187.9634 C38.6973,188.2113 38.7262,188.4593 38.755,188.7071 " fill="none" id="Name-backto-Terms" style="stroke:#181818;stroke-width:1.0;stroke-dasharray:7.0,7.0;"/><polygon fill="#181818" points="74.72,73.39,65.0824,75.4189,70.6673,76.3184,69.7678,81.9033,74.72,73.39" style="stroke:#181818;stroke-width:1.0;"/><text fill="#000000" font-family="sans-serif" font-size="13" lengthAdjust="spacing" textLength="56" x="32" y="118.5684">&#171;import&#187;</text></g><!--reverse link Value to Terms--><g id="link_Value_Terms"><path codeLine="48" d="M199.4038,76.0291 C158.8538,94.9691 101,122 101,122 C101,122 50,130 50,130 C50,130 49.7575,137.3281 49.3919,148.3775 C49.2091,153.9022 48.9955,160.3572 48.766,167.2916 C48.6513,170.7589 48.5326,174.346 48.4118,177.9966 C48.3514,179.8219 48.2905,181.663 48.2293,183.513 C48.1987,184.438 48.168,185.3652 48.1373,186.2938 C48.1219,186.7581 48.1065,187.2227 48.0912,187.6875 C48.0835,187.9199 48.0758,188.1524 48.0681,188.3849 " fill="none" id="Value-backto-Terms" style="stroke:#181818;stroke-width:1.0;stroke-dasharray:7.0,7.0;"/><polygon fill="#181818" points="204.84,73.49,194.9929,73.6746,200.3098,75.606,198.3784,80.9229,204.84,73.49" style="stroke:#181818;stroke-width:1.0;"/><text fill="#000000" font-family="sans-serif" font-size="13" lengthAdjust="spacing" textLength="56" x="135" y="118.5684">&#171;import&#187;</text></g><!--SRC=[XL9DRuCm3BtpAooEhK3TOHTKSLYbtZPfwjHx09T6XIJBHoNKyT-Ny3MWjFC9_9wVd-se2sM2I592Gj9BBhbXsOuNN8AMX2aB8TEU6bW5PQWhWI1uKRcV4SPuXWe5l6wyCyqGIjHddYdF4rQQv0XxfquqvGnk7jZeQ6M2KZM9j21AmGSf4MwrL_-L7abXK3qg8ucoTbFTrJVacS2ECyUXJFSgFVA5idIv9hcWvd0dDk2DlS28u2Tkm05e-uwH0MgbzeQbRdnIjA83x69zwj1egjfWHEQcjATG4Mp2S3LbrCFNhC4JAmVyDiXIV3Eqo522cx1dpB6bMUUSLH34uA-lH5AI5AZyWN7iK__L9ZohVFWqX6bwefWTxBoEzl0oTnt6GonJ3gXdQsVscdQhDyEefTRmujRhJhomtbRpdGX1MRxGVI9ymIgQ2hcukZSIpHlShMRijrl_utq-DFIqiXshVVsX4M7Sc8h0tsvfARZKSUpVKOwj_Gcd_WK0]--></g></svg>