<?xml version="1.0" encoding="us-ascii" standalone="no"?><svg xmlns="http://www.w3.org/2000/svg" xmlns:xlink="http://www.w3.org/1999/xlink" contentStyleType="text/css" height="448px" preserveAspectRatio="none" style="width:1417px;height:448px;" version="1.1" viewBox="0 0 1417 448" width="1417px" zoomAndPan="magnify"><defs/><g><!--cluster iso_639--><g id="cluster_iso_639"><path d="M8.5,342 L65.5,342 A3.75,3.75 0 0 1 68,344.5 L75,364.4883 L777.5,364.4883 A2.5,2.5 0 0 1 780,366.9883 L780,438.5 A2.5,2.5 0 0 1 777.5,441 L8.5,441 A2.5,2.5 0 0 1 6,438.5 L6,344.5 A2.5,2.5 0 0 1 8.5,342 " fill="none" style="stroke:#000000;stroke-width:1.5;"/><line style="stroke:#000000;stroke-width:1.5;" x1="6" x2="75" y1="364.4883" y2="364.4883"/><text fill="#000000" font-family="sans-serif" font-size="14" font-weight="bold" lengthAdjust="spacing" textLength="56" x="10" y="357.5352">iso_639</text></g><!--cluster iso_15924--><g id="cluster_iso_15924"><path d="M611.5,6 L686.5,6 A3.75,3.75 0 0 1 689,8.5 L696,28.4883 L795.5,28.4883 A2.5,2.5 0 0 1 798,30.9883 L798,102.5 A2.5,2.5 0 0 1 795.5,105 L611.5,105 A2.5,2.5 0 0 1 609,102.5 L609,8.5 A2.5,2.5 0 0 1 611.5,6 " fill="none" style="stroke:#000000;stroke-width:1.5;"/><line style="stroke:#000000;stroke-width:1.5;" x1="609" x2="696" y1="28.4883" y2="28.4883"/><text fill="#000000" font-family="sans-serif" font-size="14" font-weight="bold" lengthAdjust="spacing" textLength="74" x="613" y="21.5352">iso_15924</text></g><!--cluster iso_3166--><g id="cluster_iso_3166"><path d="M1118.5,342 L1184.5,342 A3.75,3.75 0 0 1 1187,344.5 L1194,364.4883 L1407.5,364.4883 A2.5,2.5 0 0 1 1410,366.9883 L1410,438.5 A2.5,2.5 0 0 1 1407.5,441 L1118.5,441 A2.5,2.5 0 0 1 1116,438.5 L1116,344.5 A2.5,2.5 0 0 1 1118.5,342 " fill="none" style="stroke:#000000;stroke-width:1.5;"/><line style="stroke:#000000;stroke-width:1.5;" x1="1116" x2="1194" y1="364.4883" y2="364.4883"/><text fill="#000000" font-family="sans-serif" font-size="14" font-weight="bold" lengthAdjust="spacing" textLength="65" x="1120" y="357.5352">iso_3166</text></g><!--cluster un_m49--><g id="cluster_un_m49"><path d="M822.5,342 L880.5,342 A3.75,3.75 0 0 1 883,344.5 L890,364.4883 L1073.5,364.4883 A2.5,2.5 0 0 1 1076,366.9883 L1076,438.5 A2.5,2.5 0 0 1 1073.5,441 L822.5,441 A2.5,2.5 0 0 1 820,438.5 L820,344.5 A2.5,2.5 0 0 1 822.5,342 " fill="none" style="stroke:#000000;stroke-width:1.5;"/><line style="stroke:#000000;stroke-width:1.5;" x1="820" x2="890" y1="364.4883" y2="364.4883"/><text fill="#000000" font-family="sans-serif" font-size="14" font-weight="bold" lengthAdjust="spacing" textLength="57" x="824" y="357.5352">un_m49</text></g><!--cluster Datatypes--><g id="cluster_Datatypes"><path d="M286.5,170 L359.5,170 A3.75,3.75 0 0 1 362,172.5 L369,192.4883 L839.5,192.4883 A2.5,2.5 0 0 1 842,194.9883 L842,274.5 A2.5,2.5 0 0 1 839.5,277 L286.5,277 A2.5,2.5 0 0 1 284,274.5 L284,172.5 A2.5,2.5 0 0 1 286.5,170 " fill="none" style="stroke:#000000;stroke-width:1.5;"/><line style="stroke:#000000;stroke-width:1.5;" x1="284" x2="369" y1="192.4883" y2="192.4883"/><text fill="#000000" font-family="sans-serif" font-size="14" font-weight="bold" lengthAdjust="spacing" textLength="72" x="288" y="185.5352">Datatypes</text></g><!--class LanguageCodeTwoChar--><g id="elem_LanguageCodeTwoChar"><rect codeLine="8" fill="#F1F1F1" height="32" id="LanguageCodeTwoChar" rx="2.5" ry="2.5" style="stroke:#181818;stroke-width:0.5;" width="197" x="29.5" y="385"/><ellipse cx="44.5" cy="401" fill="#EB937F" rx="11" ry="11" style="stroke:#181818;stroke-width:1.0;"/><path d="M48.1143,407.5 L40.3945,407.5 L40.3945,395.1069 L48.1143,395.1069 L48.1143,397.2651 L42.8433,397.2651 L42.8433,399.938 L47.6162,399.938 L47.6162,402.0962 L42.8433,402.0962 L42.8433,405.3418 L48.1143,405.3418 Z " fill="#000000"/><text fill="#000000" font-family="sans-serif" font-size="14" lengthAdjust="spacing" textLength="165" x="58.5" y="406.291">LanguageCodeTwoChar</text></g><!--class LanguageCodeThreeChar--><g id="elem_LanguageCodeThreeChar"><rect codeLine="9" fill="#F1F1F1" height="32" id="LanguageCodeThreeChar" rx="2.5" ry="2.5" style="stroke:#181818;stroke-width:0.5;" width="208" x="277" y="385"/><ellipse cx="292" cy="401" fill="#EB937F" rx="11" ry="11" style="stroke:#181818;stroke-width:1.0;"/><path d="M295.6143,407.5 L287.8945,407.5 L287.8945,395.1069 L295.6143,395.1069 L295.6143,397.2651 L290.3433,397.2651 L290.3433,399.938 L295.1162,399.938 L295.1162,402.0962 L290.3433,402.0962 L290.3433,405.3418 L295.6143,405.3418 Z " fill="#000000"/><text fill="#000000" font-family="sans-serif" font-size="14" lengthAdjust="spacing" textLength="176" x="306" y="406.291">LanguageCodeThreeChar</text></g><!--class LanguageSubTagCode--><g id="elem_LanguageSubTagCode"><rect codeLine="10" fill="#F1F1F1" height="32" id="LanguageSubTagCode" rx="2.5" ry="2.5" style="stroke:#181818;stroke-width:0.5;" width="187" x="534.5" y="385"/><ellipse cx="549.5" cy="401" fill="#EB937F" rx="11" ry="11" style="stroke:#181818;stroke-width:1.0;"/><path d="M553.1143,407.5 L545.3945,407.5 L545.3945,395.1069 L553.1143,395.1069 L553.1143,397.2651 L547.8433,397.2651 L547.8433,399.938 L552.6162,399.938 L552.6162,402.0962 L547.8433,402.0962 L547.8433,405.3418 L553.1143,405.3418 Z " fill="#000000"/><text fill="#000000" font-family="sans-serif" font-size="14" lengthAdjust="spacing" textLength="155" x="563.5" y="406.291">LanguageSubTagCode</text></g><!--class ScriptCode--><g id="elem_ScriptCode"><rect codeLine="15" fill="#F1F1F1" height="32" id="ScriptCode" rx="2.5" ry="2.5" style="stroke:#181818;stroke-width:0.5;" width="107" x="632.5" y="49"/><ellipse cx="647.5" cy="65" fill="#EB937F" rx="11" ry="11" style="stroke:#181818;stroke-width:1.0;"/><path d="M651.1143,71.5 L643.3945,71.5 L643.3945,59.1069 L651.1143,59.1069 L651.1143,61.2651 L645.8433,61.2651 L645.8433,63.938 L650.6162,63.938 L650.6162,66.0962 L645.8433,66.0962 L645.8433,69.3418 L651.1143,69.3418 Z " fill="#000000"/><text fill="#000000" font-family="sans-serif" font-size="14" lengthAdjust="spacing" textLength="75" x="661.5" y="70.291">ScriptCode</text></g><!--class RegionCodeTwoCharacter--><g id="elem_RegionCodeTwoCharacter"><rect codeLine="20" fill="#F1F1F1" height="32" id="RegionCodeTwoCharacter" rx="2.5" ry="2.5" style="stroke:#181818;stroke-width:0.5;" width="212" x="1174" y="385"/><ellipse cx="1189" cy="401" fill="#EB937F" rx="11" ry="11" style="stroke:#181818;stroke-width:1.0;"/><path d="M1192.6143,407.5 L1184.8945,407.5 L1184.8945,395.1069 L1192.6143,395.1069 L1192.6143,397.2651 L1187.3433,397.2651 L1187.3433,399.938 L1192.1162,399.938 L1192.1162,402.0962 L1187.3433,402.0962 L1187.3433,405.3418 L1192.6143,405.3418 Z " fill="#000000"/><text fill="#000000" font-family="sans-serif" font-size="14" lengthAdjust="spacing" textLength="180" x="1203" y="406.291">RegionCodeTwoCharacter</text></g><!--class RegionNumericCode--><g id="elem_RegionNumericCode"><rect codeLine="25" fill="#F1F1F1" height="32" id="RegionNumericCode" rx="2.5" ry="2.5" style="stroke:#181818;stroke-width:0.5;" width="173" x="878.5" y="385"/><ellipse cx="893.5" cy="401" fill="#EB937F" rx="11" ry="11" style="stroke:#181818;stroke-width:1.0;"/><path d="M897.1143,407.5 L889.3945,407.5 L889.3945,395.1069 L897.1143,395.1069 L897.1143,397.2651 L891.8433,397.2651 L891.8433,399.938 L896.6162,399.938 L896.6162,402.0962 L891.8433,402.0962 L891.8433,405.3418 L897.1143,405.3418 Z " fill="#000000"/><text fill="#000000" font-family="sans-serif" font-size="14" lengthAdjust="spacing" textLength="141" x="907.5" y="406.291">RegionNumericCode</text></g><!--class LanguageCode--><g id="elem_LanguageCode"><rect codeLine="30" fill="#F1F1F1" height="40" id="LanguageCode" rx="2.5" ry="2.5" style="stroke:#181818;stroke-width:0.5;" width="135" x="308.5" y="213"/><ellipse cx="323.5" cy="229" fill="#EB937F" rx="11" ry="11" style="stroke:#181818;stroke-width:1.0;"/><path d="M327.1143,235.5 L319.3945,235.5 L319.3945,223.1069 L327.1143,223.1069 L327.1143,225.2651 L321.8433,225.2651 L321.8433,227.938 L326.6162,227.938 L326.6162,230.0962 L321.8433,230.0962 L321.8433,233.3418 L327.1143,233.3418 Z " fill="#000000"/><text fill="#000000" font-family="sans-serif" font-size="14" lengthAdjust="spacing" textLength="103" x="337.5" y="234.291">LanguageCode</text><line style="stroke:#181818;stroke-width:0.5;" x1="309.5" x2="442.5" y1="245" y2="245"/></g><!--class RegionCode--><g id="elem_RegionCode"><rect codeLine="34" fill="#F1F1F1" height="40" id="RegionCode" rx="2.5" ry="2.5" style="stroke:#181818;stroke-width:0.5;" width="116" x="668" y="213"/><ellipse cx="683" cy="229" fill="#EB937F" rx="11" ry="11" style="stroke:#181818;stroke-width:1.0;"/><path d="M686.6143,235.5 L678.8945,235.5 L678.8945,223.1069 L686.6143,223.1069 L686.6143,225.2651 L681.3433,225.2651 L681.3433,227.938 L686.1162,227.938 L686.1162,230.0962 L681.3433,230.0962 L681.3433,233.3418 L686.6143,233.3418 Z " fill="#000000"/><text fill="#000000" font-family="sans-serif" font-size="14" lengthAdjust="spacing" textLength="84" x="697" y="234.291">RegionCode</text><line style="stroke:#181818;stroke-width:0.5;" x1="669" x2="783" y1="245" y2="245"/></g><!--class LanguageTag--><g id="elem_LanguageTag"><rect codeLine="39" fill="#F1F1F1" height="40" id="LanguageTag" rx="2.5" ry="2.5" style="stroke:#181818;stroke-width:0.5;" width="125" x="493.5" y="213"/><ellipse cx="508.5" cy="229" fill="#ADD1B2" rx="11" ry="11" style="stroke:#181818;stroke-width:1.0;"/><path d="M510.9731,235.1431 Q510.3921,235.4419 509.7529,235.5913 Q509.1138,235.7407 508.4082,235.7407 Q505.9014,235.7407 504.5815,234.0889 Q503.2617,232.437 503.2617,229.3159 Q503.2617,226.1865 504.5815,224.5347 Q505.9014,222.8828 508.4082,222.8828 Q509.1138,222.8828 509.7612,223.0322 Q510.4087,223.1816 510.9731,223.4805 L510.9731,226.2031 Q510.3423,225.6221 509.7488,225.3523 Q509.1553,225.0825 508.5244,225.0825 Q507.1797,225.0825 506.4949,226.1492 Q505.8101,227.2158 505.8101,229.3159 Q505.8101,231.4077 506.4949,232.4744 Q507.1797,233.541 508.5244,233.541 Q509.1553,233.541 509.7488,233.2712 Q510.3423,233.0015 510.9731,232.4204 Z " fill="#000000"/><text fill="#000000" font-family="sans-serif" font-size="14" lengthAdjust="spacing" textLength="93" x="522.5" y="234.291">LanguageTag</text><line style="stroke:#181818;stroke-width:0.5;" x1="494.5" x2="617.5" y1="245" y2="245"/></g><!--reverse link LanguageCode to LanguageCodeTwoChar--><g id="link_LanguageCode_LanguageCodeTwoChar"><path codeLine="31" d="M332.1102,263.3802 C282.2702,296.7302 196.21,354.34 150.9,384.67 " fill="none" id="LanguageCode-backto-LanguageCodeTwoChar" style="stroke:#181818;stroke-width:1.0;"/><polygon fill="none" points="347.07,253.37,328.7735,258.3936,335.4469,268.3668,347.07,253.37" style="stroke:#181818;stroke-width:1.0;"/></g><!--reverse link LanguageCode to LanguageCodeThreeChar--><g id="link_LanguageCode_LanguageCodeThreeChar"><path codeLine="32" d="M377.1249,271.3618 C378.1349,304.7118 379.62,354.34 380.54,384.67 " fill="none" id="LanguageCode-backto-LanguageCodeThreeChar" style="stroke:#181818;stroke-width:1.0;"/><polygon fill="none" points="376.58,253.37,371.1276,271.5434,383.1221,271.1801,376.58,253.37" style="stroke:#181818;stroke-width:1.0;"/></g><!--reverse link RegionCode to RegionCodeTwoCharacter--><g id="link_RegionCode_RegionCodeTwoCharacter"><path codeLine="35" d="M752.0936,267.7173 C771.2936,292.5373 791,318 791,318 C791,318 1170,326 1170,326 C1170,326 1224.99,362.99 1257.21,384.67 " fill="none" id="RegionCode-backto-RegionCodeTwoCharacter" style="stroke:#181818;stroke-width:1.0;"/><polygon fill="none" points="741.08,253.48,747.3478,271.3885,756.8393,264.0461,741.08,253.48" style="stroke:#181818;stroke-width:1.0;"/></g><!--reverse link RegionCode to RegionNumericCode--><g id="link_RegionCode_RegionNumericCode"><path codeLine="36" d="M724.3304,271.3622 C723.4504,291.1522 723,301 723,301 C723,301 723,318 723,318 C723,318 874,326 874,326 C874,326 919.49,362.99 946.14,384.67 " fill="none" id="RegionCode-backto-RegionNumericCode" style="stroke:#181818;stroke-width:1.0;"/><polygon fill="none" points="725.13,253.38,718.3363,271.0957,730.3245,271.6288,725.13,253.38" style="stroke:#181818;stroke-width:1.0;"/></g><!--reverse link RegionCode to LanguageSubTagCode--><g id="link_RegionCode_LanguageSubTagCode"><path codeLine="37" d="M694.2797,266.2048 C674.7897,285.9948 660,301 660,301 C660,301 642,356.69 633,384.53 " fill="none" id="RegionCode-backto-LanguageSubTagCode" style="stroke:#181818;stroke-width:1.0;"/><polygon fill="none" points="706.91,253.38,690.0047,261.9946,698.5546,270.4149,706.91,253.38" style="stroke:#181818;stroke-width:1.0;"/></g><!--link LanguageTag to LanguageCode--><g id="link_LanguageTag_LanguageCode"><path codeLine="40" d="M481.1,233 C472.24,233 463.31,233 449.84,233 " fill="none" id="LanguageTag-LanguageCode" style="stroke:#181818;stroke-width:1.0;"/><polygon fill="#181818" points="493.1,233,487.1,229,481.1,233,487.1,237,493.1,233" style="stroke:#181818;stroke-width:1.0;"/><polygon fill="#181818" points="443.84,233,452.84,237,448.84,233,452.84,229,443.84,233" style="stroke:#181818;stroke-width:1.0;"/><text fill="#000000" font-family="sans-serif" font-size="13" lengthAdjust="spacing" textLength="67" x="418.8071" y="207.1297">+language</text><text fill="#000000" font-family="sans-serif" font-size="13" lengthAdjust="spacing" textLength="4" x="450.3071" y="222.4402">&#160;</text></g><!--link LanguageTag to LanguageCodeThreeChar--><g id="link_LanguageTag_LanguageCodeThreeChar"><path codeLine="41" d="M526.8736,261.6282 C491.7136,294.9782 433.4828,350.2105 401.5128,380.5405 " fill="none" id="LanguageTag-LanguageCodeThreeChar" style="stroke:#181818;stroke-width:1.0;"/><polygon fill="#181818" points="535.58,253.37,528.474,254.597,526.8736,261.6282,533.9795,260.4013,535.58,253.37" style="stroke:#181818;stroke-width:1.0;"/><polygon fill="#181818" points="397.16,384.67,406.4422,381.3776,400.7873,381.2287,400.9362,375.5738,397.16,384.67" style="stroke:#181818;stroke-width:1.0;"/><text fill="#000000" font-family="sans-serif" font-size="13" lengthAdjust="spacing" textLength="68" x="408.1325" y="343.8462">+extended</text><text fill="#000000" font-family="sans-serif" font-size="13" lengthAdjust="spacing" textLength="24" x="452.1325" y="359.1567">0..3</text><text fill="#000000" font-family="sans-serif" font-size="13" lengthAdjust="spacing" textLength="4" x="472.1325" y="374.4673">&#160;</text></g><!--link LanguageTag to ScriptCode--><g id="link_LanguageTag_ScriptCode"><path codeLine="42" d="M578.5388,203.2224 C604.6488,169.8824 646.5406,116.3838 670.3006,86.0438 " fill="none" id="LanguageTag-ScriptCode" style="stroke:#181818;stroke-width:1.0;"/><polygon fill="#181818" points="571.14,212.67,577.9886,210.4125,578.5388,203.2224,571.6902,205.4799,571.14,212.67" style="stroke:#181818;stroke-width:1.0;"/><polygon fill="#181818" points="674,81.32,665.3017,85.9395,670.9172,85.2565,671.6002,90.872,674,81.32" style="stroke:#181818;stroke-width:1.0;"/><text fill="#000000" font-family="sans-serif" font-size="13" lengthAdjust="spacing" textLength="4" x="663.1094" y="101.6228">&#160;</text><text fill="#000000" font-family="sans-serif" font-size="13" lengthAdjust="spacing" textLength="46" x="621.1094" y="116.9333">+script</text><text fill="#000000" font-family="sans-serif" font-size="13" lengthAdjust="spacing" textLength="24" x="643.1094" y="132.2438">0..1</text></g><!--link LanguageTag to RegionNumericCode--><g id="link_LanguageTag_RegionNumericCode"><path codeLine="43" d="M594.4207,260.0566 C619.7907,277.2666 643,293 643,293 C643,293 711,318 711,318 C711,318 874,326 874,326 C874,326 914.8356,359.2036 941.4856,380.8836 " fill="none" id="LanguageTag-RegionNumericCode" style="stroke:#181818;stroke-width:1.0;"/><polygon fill="#181818" points="584.49,253.32,587.2098,259.9985,594.4207,260.0566,591.7009,253.3781,584.49,253.32" style="stroke:#181818;stroke-width:1.0;"/><polygon fill="#181818" points="946.14,384.67,941.6827,375.8875,942.2613,381.5147,936.6342,382.0934,946.14,384.67" style="stroke:#181818;stroke-width:1.0;"/><text fill="#000000" font-family="sans-serif" font-size="13" lengthAdjust="spacing" textLength="50" x="886.5456" y="343.8462">+region</text><text fill="#000000" font-family="sans-serif" font-size="13" lengthAdjust="spacing" textLength="24" x="912.5456" y="359.1567">0..1</text><text fill="#000000" font-family="sans-serif" font-size="13" lengthAdjust="spacing" textLength="4" x="932.5456" y="374.4673">&#160;</text></g><!--link Datatypes to iso_639--><g id="link_Datatypes_iso_639"><path codeLine="46" d="M817.9079,277.091 C817.4904,278.2084 817.0683,279.3385 816.6419,280.4801 C815.789,282.7633 814.9189,285.0926 814.035,287.4587 C810.4996,296.9231 806.7441,306.9769 802.9888,317.03 C795.4781,337.1362 787.9684,357.24 782.2227,372.6216 C781.5044,374.5443 780.8138,376.3932 780.1541,378.1591 C780.1129,378.2694 782.1714,372.7588 782.1304,372.8686 " fill="none" id="Datatypes-to-iso_639" style="stroke:#181818;stroke-width:1.0;stroke-dasharray:7.0,7.0;"/><polygon fill="#181818" points="780.0308,378.4892,786.9273,371.458,781.7805,373.8053,779.4331,368.6585,780.0308,378.4892" style="stroke:#181818;stroke-width:1.0;"/><text fill="#000000" font-family="sans-serif" font-size="13" lengthAdjust="spacing" textLength="56" x="809" y="314.5684">&#171;import&#187;</text></g><!--reverse link iso_15924 to Datatypes--><g id="link_iso_15924_Datatypes"><path codeLine="47" d="M799.5836,102.1632 C800.1303,104.2253 799.9634,103.5959 800.5418,105.7778 C801.6986,110.1416 802.914,114.7265 804.1684,119.4587 C806.6773,128.9231 809.3425,138.9769 812.0075,149.03 C813.34,154.0566 814.6725,159.083 815.9853,164.0355 C816.3135,165.2736 816.6405,166.5071 816.966,167.7348 C817.1287,168.3487 817.2911,168.9611 817.453,169.572 " fill="none" id="iso_15924-backto-Datatypes" style="stroke:#181818;stroke-width:1.0;stroke-dasharray:7.0,7.0;"/><polygon fill="#181818" points="798.0462,96.3635,796.4859,106.0879,799.3274,101.1966,804.2188,104.0381,798.0462,96.3635" style="stroke:#181818;stroke-width:1.0;"/><text fill="#000000" font-family="sans-serif" font-size="13" lengthAdjust="spacing" textLength="56" x="811" y="142.5684">&#171;import&#187;</text></g><!--link Datatypes to iso_3166--><g id="link_Datatypes_iso_3166"><path codeLine="48" d="M842.3493,237.2306 C842.5334,237.3018 842.7203,237.374 842.91,237.4473 C843.6686,237.7405 844.471,238.0507 845.3157,238.3771 C852.0726,240.9886 861.5252,244.6421 872.7653,248.9867 C895.2456,257.6759 924.8763,269.1294 954.3925,280.5388 C1013.425,303.3575 1072,326 1072,326 C1072,326 1084.5975,343.9275 1097.3913,362.135 C1103.7881,371.2388 1110.2341,380.4125 1115.1789,387.4503 C1115.3334,387.6702 1115.4865,387.8881 1115.638,388.1038 C1115.7138,388.2116 1112.3399,383.4096 1112.4149,383.5163 " fill="none" id="Datatypes-to-iso_3166" style="stroke:#181818;stroke-width:1.0;stroke-dasharray:7.0,7.0;"/><polygon fill="#181818" points="1115.8642,388.4257,1113.9631,378.7621,1112.9898,384.3346,1107.4173,383.3612,1115.8642,388.4257" style="stroke:#181818;stroke-width:1.0;"/><text fill="#000000" font-family="sans-serif" font-size="13" lengthAdjust="spacing" textLength="56" x="1048" y="314.5684">&#171;import&#187;</text></g><!--link Datatypes to un_m49--><g id="link_Datatypes_un_m49"><path codeLine="49" d="M842.047,243.6279 C842.2035,243.8152 842.3617,244.0045 842.5217,244.1958 C842.8415,244.5784 843.1681,244.9691 843.5009,245.3673 C848.8269,251.7391 855.7688,260.0444 862.6575,268.2863 C876.435,284.77 890,301 890,301 C890,301 890,318 890,318 C890,318 858,326 858,326 C858,326 856.1831,330.4819 853.4436,337.2397 C853.1012,338.0844 852.7443,338.9647 852.3748,339.8762 C852.19,340.332 852.0021,340.7956 851.8112,341.2665 C851.7158,341.5019 853.8737,336.1787 853.7768,336.4177 " fill="none" id="Datatypes-to-un_m49" style="stroke:#181818;stroke-width:1.0;stroke-dasharray:7.0,7.0;"/><polygon fill="#181818" points="851.5227,341.9781,858.6109,335.1402,853.4011,337.3444,851.1969,332.1347,851.5227,341.9781" style="stroke:#181818;stroke-width:1.0;"/><text fill="#000000" font-family="sans-serif" font-size="13" lengthAdjust="spacing" textLength="56" x="891" y="314.5684">&#171;import&#187;</text></g><!--SRC=[ZPDDRy8m38Rl_HLHZqDKC3ua9jGBEqux38wLK6YjDg9D8YSHGup_lgOK292ozH2fyUFNyHj7RHcN56b5DZJTvYWCpnQY54WqKgxg470Tg0jLCWvwBu58KUxjZnFZ8WC5aam6GS4o81NeGcGg26GjJNCWJ8drT3GZXu3KNyjK6q3LR00t5VcWF3SrlAZ5LZknA2YImx4ZNY109x4qcnNDBMV3nzjZ32Upr_7JWonJP59tf8-6q-dJx2_8cU1E4pJLW7TAXg-hyUmVEf-c0cIfvp3lL5Dx7wfMyPjqziPdRD_8_azy4tfaBoRxQ5_7vueT7hGorwW3kutwES_j-i5cIKkgr2MdJhXtmswzz6CIzifs9-5Xjo5N7Bury0oo10THD4emz9lcpqwmfvhnQhA7eJDi7UMmQUw4ss8FTjcXk0v3b8aTZ-BpYtiZypchf40TnovbPCiqpw6BShJitF-1dORQXNu1]--></g></svg>