<?xml version="1.0" encoding="us-ascii" standalone="no"?><svg xmlns="http://www.w3.org/2000/svg" xmlns:xlink="http://www.w3.org/1999/xlink" contentStyleType="text/css" height="230px" preserveAspectRatio="none" style="width:496px;height:230px;" version="1.1" viewBox="0 0 496 230" width="496px" zoomAndPan="magnify"><defs/><g><!--class Sentence--><g id="elem_Sentence"><rect codeLine="6" fill="#F1F1F1" height="32" id="Sentence" rx="2.5" ry="2.5" style="stroke:#181818;stroke-width:0.5;" width="94" x="249" y="7"/><ellipse cx="264" cy="23" fill="#A9DCDF" rx="11" ry="11" style="stroke:#181818;stroke-width:1.0;"/><path d="M263.8633,18.3481 L262.7095,23.4199 L265.0254,23.4199 Z M262.3691,16.1069 L265.3657,16.1069 L268.7109,28.5 L266.2622,28.5 L265.4985,25.437 L262.2197,25.437 L261.4727,28.5 L259.0239,28.5 Z " fill="#000000"/><text fill="#000000" font-family="sans-serif" font-size="14" font-style="italic" lengthAdjust="spacing" textLength="62" x="278" y="28.291">Sentence</text></g><!--class Simple--><g id="elem_Simple"><rect codeLine="8" fill="#F1F1F1" height="32" id="Simple" rx="2.5" ry="2.5" style="stroke:#181818;stroke-width:0.5;" width="78" x="257" y="99"/><ellipse cx="272" cy="115" fill="#A9DCDF" rx="11" ry="11" style="stroke:#181818;stroke-width:1.0;"/><path d="M271.8633,110.3481 L270.7095,115.4199 L273.0254,115.4199 Z M270.3691,108.1069 L273.3657,108.1069 L276.7109,120.5 L274.2622,120.5 L273.4985,117.437 L270.2197,117.437 L269.4727,120.5 L267.0239,120.5 Z " fill="#000000"/><text fill="#000000" font-family="sans-serif" font-size="14" font-style="italic" lengthAdjust="spacing" textLength="46" x="286" y="120.291">Simple</text></g><!--class Atomic--><g id="elem_Atomic"><rect codeLine="10" fill="#F1F1F1" height="32" id="Atomic" rx="2.5" ry="2.5" style="stroke:#181818;stroke-width:0.5;" width="80" x="255" y="191"/><ellipse cx="270" cy="207" fill="#ADD1B2" rx="11" ry="11" style="stroke:#181818;stroke-width:1.0;"/><path d="M272.4731,213.1431 Q271.8921,213.4419 271.2529,213.5913 Q270.6138,213.7407 269.9082,213.7407 Q267.4014,213.7407 266.0815,212.0889 Q264.7617,210.437 264.7617,207.3159 Q264.7617,204.1865 266.0815,202.5347 Q267.4014,200.8828 269.9082,200.8828 Q270.6138,200.8828 271.2612,201.0322 Q271.9087,201.1816 272.4731,201.4805 L272.4731,204.2031 Q271.8423,203.6221 271.2488,203.3523 Q270.6553,203.0825 270.0244,203.0825 Q268.6797,203.0825 267.9949,204.1492 Q267.3101,205.2158 267.3101,207.3159 Q267.3101,209.4077 267.9949,210.4744 Q268.6797,211.541 270.0244,211.541 Q270.6553,211.541 271.2488,211.2712 Q271.8423,211.0015 272.4731,210.4204 Z " fill="#000000"/><text fill="#000000" font-family="sans-serif" font-size="14" lengthAdjust="spacing" textLength="48" x="284" y="212.291">Atomic</text></g><!--class Relational--><g id="elem_Relational"><rect codeLine="12" fill="#F1F1F1" height="32" id="Relational" rx="2.5" ry="2.5" style="stroke:#181818;stroke-width:0.5;" width="100" x="385" y="191"/><ellipse cx="400" cy="207" fill="#A9DCDF" rx="11" ry="11" style="stroke:#181818;stroke-width:1.0;"/><path d="M399.8633,202.3481 L398.7095,207.4199 L401.0254,207.4199 Z M398.3691,200.1069 L401.3657,200.1069 L404.7109,212.5 L402.2622,212.5 L401.4985,209.437 L398.2197,209.437 L397.4727,212.5 L395.0239,212.5 Z " fill="#000000"/><text fill="#000000" font-family="sans-serif" font-size="14" font-style="italic" lengthAdjust="spacing" textLength="68" x="414" y="212.291">Relational</text></g><!--class Boolean--><g id="elem_Boolean"><rect codeLine="15" fill="#F1F1F1" height="32" id="Boolean" rx="2.5" ry="2.5" style="stroke:#181818;stroke-width:0.5;" width="87" x="120.5" y="99"/><ellipse cx="135.5" cy="115" fill="#A9DCDF" rx="11" ry="11" style="stroke:#181818;stroke-width:1.0;"/><path d="M135.3633,110.3481 L134.2095,115.4199 L136.5254,115.4199 Z M133.8691,108.1069 L136.8657,108.1069 L140.2109,120.5 L137.7622,120.5 L136.9985,117.437 L133.7197,117.437 L132.9727,120.5 L130.5239,120.5 Z " fill="#000000"/><text fill="#000000" font-family="sans-serif" font-size="14" font-style="italic" lengthAdjust="spacing" textLength="55" x="149.5" y="120.291">Boolean</text></g><!--class Unary--><g id="elem_Unary"><rect codeLine="17" fill="#F1F1F1" height="32" id="Unary" rx="2.5" ry="2.5" style="stroke:#181818;stroke-width:0.5;" width="72" x="7" y="191"/><ellipse cx="22" cy="207" fill="#A9DCDF" rx="11" ry="11" style="stroke:#181818;stroke-width:1.0;"/><path d="M21.8633,202.3481 L20.7095,207.4199 L23.0254,207.4199 Z M20.3691,200.1069 L23.3657,200.1069 L26.7109,212.5 L24.2622,212.5 L23.4985,209.437 L20.2197,209.437 L19.4727,212.5 L17.0239,212.5 Z " fill="#000000"/><text fill="#000000" font-family="sans-serif" font-size="14" font-style="italic" lengthAdjust="spacing" textLength="40" x="36" y="212.291">Unary</text></g><!--class Binary--><g id="elem_Binary"><rect codeLine="19" fill="#F1F1F1" height="32" id="Binary" rx="2.5" ry="2.5" style="stroke:#181818;stroke-width:0.5;" width="74" x="129" y="191"/><ellipse cx="144" cy="207" fill="#A9DCDF" rx="11" ry="11" style="stroke:#181818;stroke-width:1.0;"/><path d="M143.8633,202.3481 L142.7095,207.4199 L145.0254,207.4199 Z M142.3691,200.1069 L145.3657,200.1069 L148.7109,212.5 L146.2622,212.5 L145.4985,209.437 L142.2197,209.437 L141.4727,212.5 L139.0239,212.5 Z " fill="#000000"/><text fill="#000000" font-family="sans-serif" font-size="14" font-style="italic" lengthAdjust="spacing" textLength="42" x="158" y="212.291">Binary</text></g><!--class Quantified--><g id="elem_Quantified"><rect codeLine="22" fill="#F1F1F1" height="32" id="Quantified" rx="2.5" ry="2.5" style="stroke:#181818;stroke-width:0.5;" width="104" x="385" y="99"/><ellipse cx="400" cy="115" fill="#ADD1B2" rx="11" ry="11" style="stroke:#181818;stroke-width:1.0;"/><path d="M402.4731,121.1431 Q401.8921,121.4419 401.2529,121.5913 Q400.6138,121.7407 399.9082,121.7407 Q397.4014,121.7407 396.0815,120.0889 Q394.7617,118.437 394.7617,115.3159 Q394.7617,112.1865 396.0815,110.5347 Q397.4014,108.8828 399.9082,108.8828 Q400.6138,108.8828 401.2612,109.0322 Q401.9087,109.1816 402.4731,109.4805 L402.4731,112.2031 Q401.8423,111.6221 401.2488,111.3523 Q400.6553,111.0825 400.0244,111.0825 Q398.6797,111.0825 397.9949,112.1492 Q397.3101,113.2158 397.3101,115.3159 Q397.3101,117.4077 397.9949,118.4744 Q398.6797,119.541 400.0244,119.541 Q400.6553,119.541 401.2488,119.2712 Q401.8423,119.0015 402.4731,118.4204 Z " fill="#000000"/><text fill="#000000" font-family="sans-serif" font-size="14" lengthAdjust="spacing" textLength="72" x="414" y="120.291">Quantified</text></g><!--reverse link Sentence to Simple--><g id="link_Sentence_Simple"><path codeLine="9" d="M296,57.27 C296,73.82 296,82.08 296,98.66 " fill="none" id="Sentence-backto-Simple" style="stroke:#181818;stroke-width:1.0;"/><polygon fill="none" points="296,39.27,290,57.27,302,57.27,296,39.27" style="stroke:#181818;stroke-width:1.0;"/></g><!--reverse link Simple to Atomic--><g id="link_Simple_Atomic"><path codeLine="11" d="M295.6342,149.2689 C295.4542,165.8189 295.35,174.08 295.17,190.66 " fill="none" id="Simple-backto-Atomic" style="stroke:#181818;stroke-width:1.0;"/><polygon fill="none" points="295.83,131.27,289.6346,149.2037,301.6339,149.3342,295.83,131.27" style="stroke:#181818;stroke-width:1.0;"/></g><!--reverse link Simple to Relational--><g id="link_Simple_Relational"><path codeLine="13" d="M334.9989,141.2537 C360.6189,157.8437 385.92,174.22 411.42,190.73 " fill="none" id="Simple-backto-Relational" style="stroke:#181818;stroke-width:1.0;"/><polygon fill="none" points="319.89,131.47,331.7377,146.29,338.2602,136.2173,319.89,131.47" style="stroke:#181818;stroke-width:1.0;"/></g><!--reverse link Sentence to Boolean--><g id="link_Sentence_Boolean"><path codeLine="16" d="M258.4383,49.6106 C234.1083,66.2006 210.61,82.22 186.4,98.73 " fill="none" id="Sentence-backto-Boolean" style="stroke:#181818;stroke-width:1.0;"/><polygon fill="none" points="273.31,39.47,255.0581,44.6534,261.8185,54.5679,273.31,39.47" style="stroke:#181818;stroke-width:1.0;"/></g><!--reverse link Boolean to Unary--><g id="link_Boolean_Unary"><path codeLine="18" d="M128.7581,142.214 C106.4581,158.804 85.72,174.22 63.53,190.73 " fill="none" id="Boolean-backto-Unary" style="stroke:#181818;stroke-width:1.0;"/><polygon fill="none" points="143.2,131.47,125.1768,137.4,132.3395,147.0279,143.2,131.47" style="stroke:#181818;stroke-width:1.0;"/></g><!--reverse link Boolean to Binary--><g id="link_Boolean_Binary"><path codeLine="20" d="M164.7423,149.2655 C165.1123,165.8155 165.29,174.08 165.66,190.66 " fill="none" id="Boolean-backto-Binary" style="stroke:#181818;stroke-width:1.0;"/><polygon fill="none" points="164.34,131.27,158.7438,149.3996,170.7408,149.1314,164.34,131.27" style="stroke:#181818;stroke-width:1.0;"/></g><!--reverse link Sentence to Quantified--><g id="link_Sentence_Quantified"><path codeLine="23" d="M335.4107,49.1576 C361.3907,65.7476 387.22,82.22 413.08,98.73 " fill="none" id="Sentence-backto-Quantified" style="stroke:#181818;stroke-width:1.0;"/><polygon fill="none" points="320.24,39.47,332.1816,54.2145,338.6399,44.1006,320.24,39.47" style="stroke:#181818;stroke-width:1.0;"/></g><!--SRC=[POz13i8W44Ntd88BD77ZraGzWHeFCAMZJeGP0dJHg7UtA3MLxlxal_S3yKxi8O3JBPZxDKZFtLwi19q2S1mhvAJYZxB4c0QFseiTyZ7hM3gCwFLwfMxKeNReMWnHAMZZk6QIDXPYrATn4jcWVhoM7JblFqr9JU-Rv-Rdg2-sJUB8PAoa2Vj8zUWHBIGI1fkDsVLlrTfEn29mTgPOlwOopWnXoFmt5Bh8YtcQw98gl7prq0CdkX1s6PrTrLlU]--></g></svg>