<?xml version="1.0" encoding="us-ascii" standalone="no"?><svg xmlns="http://www.w3.org/2000/svg" xmlns:xlink="http://www.w3.org/1999/xlink" contentStyleType="text/css" height="503px" preserveAspectRatio="none" style="width:1057px;height:503px;" version="1.1" viewBox="0 0 1057 503" width="1057px" zoomAndPan="magnify"><defs/><g><!--cluster Constraints--><g id="cluster_Constraints"><path d="M8.5,6 L93.5,6 A3.75,3.75 0 0 1 96,8.5 L103,28.4883 L1047.5,28.4883 A2.5,2.5 0 0 1 1050,30.9883 L1050,494.48 A2.5,2.5 0 0 1 1047.5,496.98 L8.5,496.98 A2.5,2.5 0 0 1 6,494.48 L6,8.5 A2.5,2.5 0 0 1 8.5,6 " fill="none" style="stroke:#000000;stroke-width:1.5;"/><line style="stroke:#000000;stroke-width:1.5;" x1="6" x2="103" y1="28.4883" y2="28.4883"/><text fill="#000000" font-family="sans-serif" font-size="14" font-weight="bold" lengthAdjust="spacing" textLength="84" x="10" y="21.5352">Constraints</text></g><!--cluster Sentences--><g id="cluster_Sentences"><path d="M32.5,49 L104.5,49 A3.75,3.75 0 0 1 107,51.5 L114,71.4883 L1023.5,71.4883 A2.5,2.5 0 0 1 1026,73.9883 L1026,470.48 A2.5,2.5 0 0 1 1023.5,472.98 L32.5,472.98 A2.5,2.5 0 0 1 30,470.48 L30,51.5 A2.5,2.5 0 0 1 32.5,49 " fill="none" style="stroke:#000000;stroke-width:1.5;"/><line style="stroke:#000000;stroke-width:1.5;" x1="30" x2="114" y1="71.4883" y2="71.4883"/><text fill="#000000" font-family="sans-serif" font-size="14" font-weight="bold" lengthAdjust="spacing" textLength="71" x="34" y="64.5352">Sentences</text></g><!--class Sentence--><g id="elem_Sentence"><rect codeLine="8" fill="#F1F1F1" height="40" id="Sentence" rx="2.5" ry="2.5" style="stroke:#181818;stroke-width:0.5;" width="94" x="46" y="84"/><ellipse cx="61" cy="100" fill="#A9DCDF" rx="11" ry="11" style="stroke:#181818;stroke-width:1.0;"/><path d="M60.8633,95.3481 L59.7095,100.4199 L62.0254,100.4199 Z M59.3691,93.1069 L62.3657,93.1069 L65.7109,105.5 L63.2622,105.5 L62.4985,102.437 L59.2197,102.437 L58.4727,105.5 L56.0239,105.5 Z " fill="#000000"/><text fill="#000000" font-family="sans-serif" font-size="14" font-style="italic" lengthAdjust="spacing" textLength="62" x="75" y="105.291">Sentence</text><line style="stroke:#181818;stroke-width:0.5;" x1="47" x2="139" y1="116" y2="116"/></g><!--class Boolean--><g id="elem_Boolean"><rect codeLine="11" fill="#F1F1F1" height="40" id="Boolean" rx="2.5" ry="2.5" style="stroke:#181818;stroke-width:0.5;" width="87" x="45.5" y="184"/><ellipse cx="60.5" cy="200" fill="#A9DCDF" rx="11" ry="11" style="stroke:#181818;stroke-width:1.0;"/><path d="M60.3633,195.3481 L59.2095,200.4199 L61.5254,200.4199 Z M58.8691,193.1069 L61.8657,193.1069 L65.2109,205.5 L62.7622,205.5 L61.9985,202.437 L58.7197,202.437 L57.9727,205.5 L55.5239,205.5 Z " fill="#000000"/><text fill="#000000" font-family="sans-serif" font-size="14" font-style="italic" lengthAdjust="spacing" textLength="55" x="74.5" y="205.291">Boolean</text><line style="stroke:#181818;stroke-width:0.5;" x1="46.5" x2="131.5" y1="216" y2="216"/></g><!--class Unary--><g id="elem_Unary"><rect codeLine="14" fill="#F1F1F1" height="56.4883" id="Unary" rx="2.5" ry="2.5" style="stroke:#181818;stroke-width:0.5;" width="234" x="46" y="292.25"/><ellipse cx="138.75" cy="308.25" fill="#A9DCDF" rx="11" ry="11" style="stroke:#181818;stroke-width:1.0;"/><path d="M138.6133,303.5981 L137.4595,308.6699 L139.7754,308.6699 Z M137.1191,301.3569 L140.1157,301.3569 L143.4609,313.75 L141.0122,313.75 L140.2485,310.687 L136.9697,310.687 L136.2227,313.75 L133.7739,313.75 Z " fill="#000000"/><text fill="#000000" font-family="sans-serif" font-size="14" font-style="italic" lengthAdjust="spacing" textLength="40" x="159.25" y="313.541">Unary</text><line style="stroke:#181818;stroke-width:0.5;" x1="47" x2="279" y1="324.25" y2="324.25"/><ellipse cx="57" cy="337.9941" fill="none" rx="3" ry="3" style="stroke:#038048;stroke-width:1.0;"/><text fill="#000000" font-family="sans-serif" font-size="14" lengthAdjust="spacing" textLength="208" x="66" y="341.7852">rhs: Sentence {subsets nested}</text></g><!--class Binary--><g id="elem_Binary"><rect codeLine="19" fill="#F1F1F1" height="72.9766" id="Binary" rx="2.5" ry="2.5" style="stroke:#181818;stroke-width:0.5;" width="234" x="330" y="284"/><ellipse cx="421.75" cy="300" fill="#A9DCDF" rx="11" ry="11" style="stroke:#181818;stroke-width:1.0;"/><path d="M421.6133,295.3481 L420.4595,300.4199 L422.7754,300.4199 Z M420.1191,293.1069 L423.1157,293.1069 L426.4609,305.5 L424.0122,305.5 L423.2485,302.437 L419.9697,302.437 L419.2227,305.5 L416.7739,305.5 Z " fill="#000000"/><text fill="#000000" font-family="sans-serif" font-size="14" font-style="italic" lengthAdjust="spacing" textLength="42" x="442.25" y="305.291">Binary</text><line style="stroke:#181818;stroke-width:0.5;" x1="331" x2="563" y1="316" y2="316"/><ellipse cx="341" cy="329.7441" fill="none" rx="3" ry="3" style="stroke:#038048;stroke-width:1.0;"/><text fill="#000000" font-family="sans-serif" font-size="14" lengthAdjust="spacing" textLength="206" x="350" y="333.5352">lhs: Sentence {subsets nested}</text><ellipse cx="341" cy="346.2324" fill="none" rx="3" ry="3" style="stroke:#038048;stroke-width:1.0;"/><text fill="#000000" font-family="sans-serif" font-size="14" lengthAdjust="spacing" textLength="208" x="350" y="350.0234">rhs: Sentence {subsets nested}</text></g><!--class Negation--><g id="elem_Negation"><rect codeLine="25" fill="#F1F1F1" height="40" id="Negation" rx="2.5" ry="2.5" style="stroke:#181818;stroke-width:0.5;" width="94" x="116" y="416.98"/><ellipse cx="131" cy="432.98" fill="#ADD1B2" rx="11" ry="11" style="stroke:#181818;stroke-width:1.0;"/><path d="M133.4731,439.1231 Q132.8921,439.4219 132.2529,439.5713 Q131.6138,439.7207 130.9082,439.7207 Q128.4014,439.7207 127.0815,438.0689 Q125.7617,436.417 125.7617,433.2959 Q125.7617,430.1665 127.0815,428.5147 Q128.4014,426.8628 130.9082,426.8628 Q131.6138,426.8628 132.2612,427.0122 Q132.9087,427.1616 133.4731,427.4605 L133.4731,430.1831 Q132.8423,429.6021 132.2488,429.3323 Q131.6553,429.0625 131.0244,429.0625 Q129.6797,429.0625 128.9949,430.1292 Q128.3101,431.1958 128.3101,433.2959 Q128.3101,435.3877 128.9949,436.4544 Q129.6797,437.521 131.0244,437.521 Q131.6553,437.521 132.2488,437.2512 Q132.8423,436.9815 133.4731,436.4004 Z " fill="#000000"/><text fill="#000000" font-family="sans-serif" font-size="14" lengthAdjust="spacing" textLength="62" x="145" y="438.271">Negation</text><line style="stroke:#181818;stroke-width:0.5;" x1="117" x2="209" y1="448.98" y2="448.98"/></g><!--class Conjunction--><g id="elem_Conjunction"><rect codeLine="28" fill="#F1F1F1" height="40" id="Conjunction" rx="2.5" ry="2.5" style="stroke:#181818;stroke-width:0.5;" width="116" x="182" y="184"/><ellipse cx="197" cy="200" fill="#ADD1B2" rx="11" ry="11" style="stroke:#181818;stroke-width:1.0;"/><path d="M199.4731,206.1431 Q198.8921,206.4419 198.2529,206.5913 Q197.6138,206.7407 196.9082,206.7407 Q194.4014,206.7407 193.0815,205.0889 Q191.7617,203.437 191.7617,200.3159 Q191.7617,197.1865 193.0815,195.5347 Q194.4014,193.8828 196.9082,193.8828 Q197.6138,193.8828 198.2612,194.0322 Q198.9087,194.1816 199.4731,194.4805 L199.4731,197.2031 Q198.8423,196.6221 198.2488,196.3523 Q197.6553,196.0825 197.0244,196.0825 Q195.6797,196.0825 194.9949,197.1492 Q194.3101,198.2158 194.3101,200.3159 Q194.3101,202.4077 194.9949,203.4744 Q195.6797,204.541 197.0244,204.541 Q197.6553,204.541 198.2488,204.2712 Q198.8423,204.0015 199.4731,203.4204 Z " fill="#000000"/><text fill="#000000" font-family="sans-serif" font-size="14" lengthAdjust="spacing" textLength="84" x="211" y="205.291">Conjunction</text><line style="stroke:#181818;stroke-width:0.5;" x1="183" x2="297" y1="216" y2="216"/></g><!--class Disjunction--><g id="elem_Disjunction"><rect codeLine="29" fill="#F1F1F1" height="40" id="Disjunction" rx="2.5" ry="2.5" style="stroke:#181818;stroke-width:0.5;" width="109" x="348.5" y="184"/><ellipse cx="363.5" cy="200" fill="#ADD1B2" rx="11" ry="11" style="stroke:#181818;stroke-width:1.0;"/><path d="M365.9731,206.1431 Q365.3921,206.4419 364.7529,206.5913 Q364.1138,206.7407 363.4082,206.7407 Q360.9014,206.7407 359.5815,205.0889 Q358.2617,203.437 358.2617,200.3159 Q358.2617,197.1865 359.5815,195.5347 Q360.9014,193.8828 363.4082,193.8828 Q364.1138,193.8828 364.7612,194.0322 Q365.4087,194.1816 365.9731,194.4805 L365.9731,197.2031 Q365.3423,196.6221 364.7488,196.3523 Q364.1553,196.0825 363.5244,196.0825 Q362.1797,196.0825 361.4949,197.1492 Q360.8101,198.2158 360.8101,200.3159 Q360.8101,202.4077 361.4949,203.4744 Q362.1797,204.541 363.5244,204.541 Q364.1553,204.541 364.7488,204.2712 Q365.3423,204.0015 365.9731,203.4204 Z " fill="#000000"/><text fill="#000000" font-family="sans-serif" font-size="14" lengthAdjust="spacing" textLength="77" x="377.5" y="205.291">Disjunction</text><line style="stroke:#181818;stroke-width:0.5;" x1="349.5" x2="456.5" y1="216" y2="216"/></g><!--class ExclusiveDisjunction--><g id="elem_ExclusiveDisjunction"><rect codeLine="30" fill="#F1F1F1" height="40" id="ExclusiveDisjunction" rx="2.5" ry="2.5" style="stroke:#181818;stroke-width:0.5;" width="172" x="508" y="184"/><ellipse cx="523" cy="200" fill="#ADD1B2" rx="11" ry="11" style="stroke:#181818;stroke-width:1.0;"/><path d="M525.4731,206.1431 Q524.8921,206.4419 524.2529,206.5913 Q523.6138,206.7407 522.9082,206.7407 Q520.4014,206.7407 519.0815,205.0889 Q517.7617,203.437 517.7617,200.3159 Q517.7617,197.1865 519.0815,195.5347 Q520.4014,193.8828 522.9082,193.8828 Q523.6138,193.8828 524.2612,194.0322 Q524.9087,194.1816 525.4731,194.4805 L525.4731,197.2031 Q524.8423,196.6221 524.2488,196.3523 Q523.6553,196.0825 523.0244,196.0825 Q521.6797,196.0825 520.9949,197.1492 Q520.3101,198.2158 520.3101,200.3159 Q520.3101,202.4077 520.9949,203.4744 Q521.6797,204.541 523.0244,204.541 Q523.6553,204.541 524.2488,204.2712 Q524.8423,204.0015 525.4731,203.4204 Z " fill="#000000"/><text fill="#000000" font-family="sans-serif" font-size="14" lengthAdjust="spacing" textLength="140" x="537" y="205.291">ExclusiveDisjunction</text><line style="stroke:#181818;stroke-width:0.5;" x1="509" x2="679" y1="216" y2="216"/></g><!--class Implication--><g id="elem_Implication"><rect codeLine="31" fill="#F1F1F1" height="40" id="Implication" rx="2.5" ry="2.5" style="stroke:#181818;stroke-width:0.5;" width="108" x="730" y="184"/><ellipse cx="745" cy="200" fill="#ADD1B2" rx="11" ry="11" style="stroke:#181818;stroke-width:1.0;"/><path d="M747.4731,206.1431 Q746.8921,206.4419 746.2529,206.5913 Q745.6138,206.7407 744.9082,206.7407 Q742.4014,206.7407 741.0815,205.0889 Q739.7617,203.437 739.7617,200.3159 Q739.7617,197.1865 741.0815,195.5347 Q742.4014,193.8828 744.9082,193.8828 Q745.6138,193.8828 746.2612,194.0322 Q746.9087,194.1816 747.4731,194.4805 L747.4731,197.2031 Q746.8423,196.6221 746.2488,196.3523 Q745.6553,196.0825 745.0244,196.0825 Q743.6797,196.0825 742.9949,197.1492 Q742.3101,198.2158 742.3101,200.3159 Q742.3101,202.4077 742.9949,203.4744 Q743.6797,204.541 745.0244,204.541 Q745.6553,204.541 746.2488,204.2712 Q746.8423,204.0015 747.4731,203.4204 Z " fill="#000000"/><text fill="#000000" font-family="sans-serif" font-size="14" lengthAdjust="spacing" textLength="76" x="759" y="205.291">Implication</text><line style="stroke:#181818;stroke-width:0.5;" x1="731" x2="837" y1="216" y2="216"/></g><!--class Biconditional--><g id="elem_Biconditional"><rect codeLine="32" fill="#F1F1F1" height="40" id="Biconditional" rx="2.5" ry="2.5" style="stroke:#181818;stroke-width:0.5;" width="121" x="888.5" y="184"/><ellipse cx="903.5" cy="200" fill="#ADD1B2" rx="11" ry="11" style="stroke:#181818;stroke-width:1.0;"/><path d="M905.9731,206.1431 Q905.3921,206.4419 904.7529,206.5913 Q904.1138,206.7407 903.4082,206.7407 Q900.9014,206.7407 899.5815,205.0889 Q898.2617,203.437 898.2617,200.3159 Q898.2617,197.1865 899.5815,195.5347 Q900.9014,193.8828 903.4082,193.8828 Q904.1138,193.8828 904.7612,194.0322 Q905.4087,194.1816 905.9731,194.4805 L905.9731,197.2031 Q905.3423,196.6221 904.7488,196.3523 Q904.1553,196.0825 903.5244,196.0825 Q902.1797,196.0825 901.4949,197.1492 Q900.8101,198.2158 900.8101,200.3159 Q900.8101,202.4077 901.4949,203.4744 Q902.1797,204.541 903.5244,204.541 Q904.1553,204.541 904.7488,204.2712 Q905.3423,204.0015 905.9731,203.4204 Z " fill="#000000"/><text fill="#000000" font-family="sans-serif" font-size="14" lengthAdjust="spacing" textLength="89" x="917.5" y="205.291">Biconditional</text><line style="stroke:#181818;stroke-width:0.5;" x1="889.5" x2="1008.5" y1="216" y2="216"/></g><!--class BinaryBoolean--><g id="elem_BinaryBoolean"><rect fill="#F1F1F1" height="40" id="BinaryBoolean" rx="2.5" ry="2.5" style="stroke:#181818;stroke-width:0.5;" width="129" x="529.5" y="84"/><ellipse cx="544.5" cy="100" fill="#ADD1B2" rx="11" ry="11" style="stroke:#181818;stroke-width:1.0;"/><path d="M546.9731,106.1431 Q546.3921,106.4419 545.7529,106.5913 Q545.1138,106.7407 544.4082,106.7407 Q541.9014,106.7407 540.5815,105.0889 Q539.2617,103.437 539.2617,100.3159 Q539.2617,97.1865 540.5815,95.5347 Q541.9014,93.8828 544.4082,93.8828 Q545.1138,93.8828 545.7612,94.0322 Q546.4087,94.1816 546.9731,94.4805 L546.9731,97.2031 Q546.3423,96.6221 545.7488,96.3523 Q545.1553,96.0825 544.5244,96.0825 Q543.1797,96.0825 542.4949,97.1492 Q541.8101,98.2158 541.8101,100.3159 Q541.8101,102.4077 542.4949,103.4744 Q543.1797,104.541 544.5244,104.541 Q545.1553,104.541 545.7488,104.2712 Q546.3423,104.0015 546.9731,103.4204 Z " fill="#000000"/><text fill="#000000" font-family="sans-serif" font-size="14" lengthAdjust="spacing" textLength="97" x="558.5" y="105.291">BinaryBoolean</text><line style="stroke:#181818;stroke-width:0.5;" x1="530.5" x2="657.5" y1="116" y2="116"/></g><!--link Sentence to Sentence--><g id="link_Sentence_Sentence"><path codeLine="9" d="M140.41,86.09 C166.29,82.89 190,88.87 190,104 C190,119.14 172.2449,125.844 146.3649,122.654 " fill="none" id="Sentence-to-Sentence" style="stroke:#181818;stroke-width:1.0;"/><polygon fill="#181818" points="140.41,121.92,148.8531,126.991,145.3724,122.5317,149.8317,119.0511,140.41,121.92" style="stroke:#181818;stroke-width:1.0;"/><text fill="#000000" font-family="sans-serif" font-size="13" lengthAdjust="spacing" textLength="52" x="147.9804" y="65.2965">+nested</text><text fill="#000000" font-family="sans-serif" font-size="13" lengthAdjust="spacing" textLength="22" x="162.9804" y="80.6071">0..*</text><text fill="#000000" font-family="sans-serif" font-size="13" lengthAdjust="spacing" textLength="50" x="147.8773" y="104.8215">+parent</text><text fill="#000000" font-family="sans-serif" font-size="13" lengthAdjust="spacing" textLength="24" x="160.8773" y="120.1321">0..1</text></g><!--reverse link Sentence to Boolean--><g id="link_Sentence_Boolean"><path codeLine="12" d="M91.4772,142.3551 C90.7772,159.5351 90.49,166.51 89.79,183.68 " fill="none" id="Sentence-backto-Boolean" style="stroke:#181818;stroke-width:1.0;"/><polygon fill="none" points="92.21,124.37,85.4822,142.1108,97.4722,142.5993,92.21,124.37" style="stroke:#181818;stroke-width:1.0;"/></g><!--reverse link Boolean to Unary--><g id="link_Boolean_Unary"><path codeLine="17" d="M111.3187,239.5386 C123.2787,258.0486 131.64,270.97 145.11,291.81 " fill="none" id="Boolean-backto-Unary" style="stroke:#181818;stroke-width:1.0;"/><polygon fill="none" points="101.55,224.42,106.2792,242.7948,116.3582,236.2824,101.55,224.42" style="stroke:#181818;stroke-width:1.0;"/></g><!--reverse link Boolean to Binary--><g id="link_Boolean_Binary"><path codeLine="23" d="M150.0447,224.5226 C199.9847,240.4926 266.34,261.72 334.69,283.58 " fill="none" id="Boolean-backto-Binary" style="stroke:#181818;stroke-width:1.0;"/><polygon fill="none" points="132.9,219.04,148.2172,230.2375,151.8722,218.8077,132.9,219.04" style="stroke:#181818;stroke-width:1.0;"/></g><!--reverse link Unary to Negation--><g id="link_Unary_Negation"><path codeLine="26" d="M163,367.21 C163,388.12 163,398.27 163,416.76 " fill="none" id="Unary-backto-Negation" style="stroke:#181818;stroke-width:1.0;"/><polygon fill="none" points="163,349.21,157,367.21,169,367.21,163,349.21" style="stroke:#181818;stroke-width:1.0;"/></g><!--reverse link BinaryBoolean to Conjunction--><g id="link_BinaryBoolean_Conjunction"><path codeLine="34" d="M511.7223,127.7817 C445.7523,146.0417 361.85,169.27 298.35,186.85 " fill="none" id="BinaryBoolean-backto-Conjunction" style="stroke:#181818;stroke-width:1.0;"/><polygon fill="none" points="529.07,122.98,510.1217,121.9991,513.3229,133.5643,529.07,122.98" style="stroke:#181818;stroke-width:1.0;"/></g><!--reverse link BinaryBoolean to Disjunction--><g id="link_BinaryBoolean_Disjunction"><path codeLine="35" d="M540.2447,132.5864 C506.8747,149.7064 474.43,166.35 440.98,183.51 " fill="none" id="BinaryBoolean-backto-Disjunction" style="stroke:#181818;stroke-width:1.0;"/><polygon fill="none" points="556.26,124.37,537.5059,127.248,542.9835,137.9249,556.26,124.37" style="stroke:#181818;stroke-width:1.0;"/></g><!--reverse link BinaryBoolean to ExclusiveDisjunction--><g id="link_BinaryBoolean_ExclusiveDisjunction"><path codeLine="36" d="M594,142.37 C594,159.55 594,166.51 594,183.68 " fill="none" id="BinaryBoolean-backto-ExclusiveDisjunction" style="stroke:#181818;stroke-width:1.0;"/><polygon fill="none" points="594,124.37,588,142.37,600,142.37,594,124.37" style="stroke:#181818;stroke-width:1.0;"/></g><!--reverse link BinaryBoolean to Implication--><g id="link_BinaryBoolean_Implication"><path codeLine="37" d="M647.5382,132.6197 C680.7382,149.7397 712.94,166.35 746.22,183.51 " fill="none" id="BinaryBoolean-backto-Implication" style="stroke:#181818;stroke-width:1.0;"/><polygon fill="none" points="631.54,124.37,644.7883,137.9524,650.2881,127.2869,631.54,124.37" style="stroke:#181818;stroke-width:1.0;"/></g><!--reverse link BinaryBoolean to Biconditional--><g id="link_BinaryBoolean_Biconditional"><path codeLine="38" d="M676.0508,127.6507 C741.3508,145.6807 824.07,168.51 888.01,186.17 " fill="none" id="BinaryBoolean-backto-Biconditional" style="stroke:#181818;stroke-width:1.0;"/><polygon fill="none" points="658.7,122.86,674.4539,133.4343,677.6477,121.8671,658.7,122.86" style="stroke:#181818;stroke-width:1.0;"/></g><!--SRC=[dLAnRi8m4Dtz5HPZKH0TkdHWW39qwL9rwsAS4t5npfRFgHfH_hqEIOn1IOHwatFltRttJg63GYkSAFbEoCFUcGhpZT76SUy4Ke00FQF8qWh1rnQuDRfkFX8CJGu4bZyjMQ5ou2NumkJ4c0shnHxunY25jGezyIFZeNhaFQW0IkZxJObTGvQUIos88eKVJv4IUxCv0dd8Ft6vM3pCU9QjGgzrV-uzpY8vJeyfhOtH830LwbjPPRFVrVshFb2uEidKrDmLz9p4eMf742xI9hXeNbxjbawxiy96tQiXJNsVvl_yTP9Z1bjVRx0NNfchiyPUDteEUZiO_fgl2kNjR0k-A1e7jpzILwI-OPBrMbgjf1W6rqeQp5K32jt04KzjzSdFT-ZpzyHKV98uQ7To8hK-IRoECKeziTCV]--></g></svg>