<?xml version="1.0" encoding="us-ascii" standalone="no"?><svg xmlns="http://www.w3.org/2000/svg" xmlns:xlink="http://www.w3.org/1999/xlink" contentStyleType="text/css" height="418px" preserveAspectRatio="none" style="width:1181px;height:418px;" version="1.1" viewBox="0 0 1181 418" width="1181px" zoomAndPan="magnify"><defs/><g><!--cluster Foundation--><g id="cluster_Foundation"><path d="M8.5,6 L90.5,6 A3.75,3.75 0 0 1 93,8.5 L100,28.4883 L673.5,28.4883 A2.5,2.5 0 0 1 676,30.9883 L676,102.5 A2.5,2.5 0 0 1 673.5,105 L8.5,105 A2.5,2.5 0 0 1 6,102.5 L6,8.5 A2.5,2.5 0 0 1 8.5,6 " fill="none" style="stroke:#000000;stroke-width:1.5;"/><line style="stroke:#000000;stroke-width:1.5;" x1="6" x2="100" y1="28.4883" y2="28.4883"/><text fill="#000000" font-family="sans-serif" font-size="14" font-weight="bold" lengthAdjust="spacing" textLength="81" x="10" y="21.5352">Foundation</text></g><!--cluster Modules--><g id="cluster_Modules"><path d="M718.5,6 L780.5,6 A3.75,3.75 0 0 1 783,8.5 L790,28.4883 L945.5,28.4883 A2.5,2.5 0 0 1 948,30.9883 L948,102.5 A2.5,2.5 0 0 1 945.5,105 L718.5,105 A2.5,2.5 0 0 1 716,102.5 L716,8.5 A2.5,2.5 0 0 1 718.5,6 " fill="none" style="stroke:#000000;stroke-width:1.5;"/><line style="stroke:#000000;stroke-width:1.5;" x1="716" x2="790" y1="28.4883" y2="28.4883"/><text fill="#000000" font-family="sans-serif" font-size="14" font-weight="bold" lengthAdjust="spacing" textLength="61" x="720" y="21.5352">Modules</text></g><!--cluster Values--><g id="cluster_Values"><path d="M1015.5,6 L1064.5,6 A3.75,3.75 0 0 1 1067,8.5 L1074,28.4883 L1171.5,28.4883 A2.5,2.5 0 0 1 1174,30.9883 L1174,102.5 A2.5,2.5 0 0 1 1171.5,105 L1015.5,105 A2.5,2.5 0 0 1 1013,102.5 L1013,8.5 A2.5,2.5 0 0 1 1015.5,6 " fill="none" style="stroke:#000000;stroke-width:1.5;"/><line style="stroke:#000000;stroke-width:1.5;" x1="1013" x2="1074" y1="28.4883" y2="28.4883"/><text fill="#000000" font-family="sans-serif" font-size="14" font-weight="bold" lengthAdjust="spacing" textLength="48" x="1017" y="21.5352">Values</text></g><!--cluster SumTypes--><g id="cluster_SumTypes"><path d="M62.5,170 L137.5,170 A3.75,3.75 0 0 1 140,172.5 L147,192.4883 L965.5,192.4883 A2.5,2.5 0 0 1 968,194.9883 L968,408.74 A2.5,2.5 0 0 1 965.5,411.24 L62.5,411.24 A2.5,2.5 0 0 1 60,408.74 L60,172.5 A2.5,2.5 0 0 1 62.5,170 " fill="none" style="stroke:#000000;stroke-width:1.5;"/><line style="stroke:#000000;stroke-width:1.5;" x1="60" x2="147" y1="192.4883" y2="192.4883"/><text fill="#000000" font-family="sans-serif" font-size="14" font-weight="bold" lengthAdjust="spacing" textLength="74" x="64" y="185.5352">SumTypes</text></g><!--class Named--><g id="elem_Named"><rect codeLine="8" fill="#F1F1F1" height="32" id="Named" rx="2.5" ry="2.5" style="stroke:#181818;stroke-width:0.5;" width="80" x="188" y="49"/><ellipse cx="203" cy="65" fill="#A9DCDF" rx="11" ry="11" style="stroke:#181818;stroke-width:1.0;"/><path d="M202.8633,60.3481 L201.7095,65.4199 L204.0254,65.4199 Z M201.3691,58.1069 L204.3657,58.1069 L207.7109,70.5 L205.2622,70.5 L204.4985,67.437 L201.2197,67.437 L200.4727,70.5 L198.0239,70.5 Z " fill="#000000"/><text fill="#000000" font-family="sans-serif" font-size="14" font-style="italic" lengthAdjust="spacing" textLength="48" x="217" y="70.291">Named</text></g><!--class g_Namespace--><g id="elem_g_Namespace"><rect codeLine="9" fill="#F1F1F1" height="32" id="g_Namespace" rx="2.5" ry="2.5" style="stroke:#181818;stroke-width:0.5;" width="218" x="434" y="49"/><ellipse cx="449" cy="65" fill="#A9DCDF" rx="11" ry="11" style="stroke:#181818;stroke-width:1.0;"/><path d="M448.8633,60.3481 L447.7095,65.4199 L450.0254,65.4199 Z M447.3691,58.1069 L450.3657,58.1069 L453.7109,70.5 L451.2622,70.5 L450.4985,67.437 L447.2197,67.437 L446.4727,70.5 L444.0239,70.5 Z " fill="#000000"/><text fill="#000000" font-family="sans-serif" font-size="14" font-style="italic" lengthAdjust="spacing" textLength="78" x="463" y="70.291">Namespace</text><rect fill="none" height="16.1328" style="stroke:#181818;stroke-width:1.0;stroke-dasharray:2.0,2.0;" width="106" x="549" y="46"/><text fill="#000000" font-family="sans-serif" font-size="12" font-style="italic" lengthAdjust="spacing" textLength="104" x="550" y="58.6016">T extends Named</text></g><!--class Type--><g id="elem_Type"><rect codeLine="10" fill="#F1F1F1" height="32" id="Type" rx="2.5" ry="2.5" style="stroke:#181818;stroke-width:0.5;" width="65" x="318.5" y="49"/><ellipse cx="333.5" cy="65" fill="#A9DCDF" rx="11" ry="11" style="stroke:#181818;stroke-width:1.0;"/><path d="M333.3633,60.3481 L332.2095,65.4199 L334.5254,65.4199 Z M331.8691,58.1069 L334.8657,58.1069 L338.2109,70.5 L335.7622,70.5 L334.9985,67.437 L331.7197,67.437 L330.9727,70.5 L328.5239,70.5 Z " fill="#000000"/><text fill="#000000" font-family="sans-serif" font-size="14" font-style="italic" lengthAdjust="spacing" textLength="33" x="347.5" y="70.291">Type</text></g><!--class Typed--><g id="elem_Typed"><rect codeLine="11" fill="#F1F1F1" height="32" id="Typed" rx="2.5" ry="2.5" style="stroke:#181818;stroke-width:0.5;" width="74" x="64" y="49"/><ellipse cx="79" cy="65" fill="#A9DCDF" rx="11" ry="11" style="stroke:#181818;stroke-width:1.0;"/><path d="M78.8633,60.3481 L77.7095,65.4199 L80.0254,65.4199 Z M77.3691,58.1069 L80.3657,58.1069 L83.7109,70.5 L81.2622,70.5 L80.4985,67.437 L77.2197,67.437 L76.4727,70.5 L74.0239,70.5 Z " fill="#000000"/><text fill="#000000" font-family="sans-serif" font-size="14" font-style="italic" lengthAdjust="spacing" textLength="42" x="93" y="70.291">Typed</text></g><!--class ModuleDefinition--><g id="elem_ModuleDefinition"><rect codeLine="16" fill="#F1F1F1" height="32" id="ModuleDefinition" rx="2.5" ry="2.5" style="stroke:#181818;stroke-width:0.5;" width="150" x="774" y="49"/><ellipse cx="789" cy="65" fill="#A9DCDF" rx="11" ry="11" style="stroke:#181818;stroke-width:1.0;"/><path d="M788.8633,60.3481 L787.7095,65.4199 L790.0254,65.4199 Z M787.3691,58.1069 L790.3657,58.1069 L793.7109,70.5 L791.2622,70.5 L790.4985,67.437 L787.2197,67.437 L786.4727,70.5 L784.0239,70.5 Z " fill="#000000"/><text fill="#000000" font-family="sans-serif" font-size="14" font-style="italic" lengthAdjust="spacing" textLength="118" x="803" y="70.291">ModuleDefinition</text></g><!--class Valued--><g id="elem_Valued"><rect codeLine="21" fill="#F1F1F1" height="32" id="Valued" rx="2.5" ry="2.5" style="stroke:#181818;stroke-width:0.5;" width="79" x="1071.5" y="49"/><ellipse cx="1086.5" cy="65" fill="#A9DCDF" rx="11" ry="11" style="stroke:#181818;stroke-width:1.0;"/><path d="M1086.3633,60.3481 L1085.2095,65.4199 L1087.5254,65.4199 Z M1084.8691,58.1069 L1087.8657,58.1069 L1091.2109,70.5 L1088.7622,70.5 L1087.9985,67.437 L1084.7197,67.437 L1083.9727,70.5 L1081.5239,70.5 Z " fill="#000000"/><text fill="#000000" font-family="sans-serif" font-size="14" font-style="italic" lengthAdjust="spacing" textLength="47" x="1100.5" y="70.291">Valued</text></g><!--class g_Enum--><g id="elem_g_Enum"><rect codeLine="25" fill="#F1F1F1" height="40" id="g_Enum" rx="2.5" ry="2.5" style="stroke:#181818;stroke-width:0.5;" width="166" x="744" y="229.62"/><ellipse cx="759" cy="245.62" fill="#ADD1B2" rx="11" ry="11" style="stroke:#181818;stroke-width:1.0;"/><path d="M761.4731,251.7631 Q760.8921,252.0619 760.2529,252.2113 Q759.6138,252.3607 758.9082,252.3607 Q756.4014,252.3607 755.0815,250.7089 Q753.7617,249.057 753.7617,245.9359 Q753.7617,242.8065 755.0815,241.1547 Q756.4014,239.5028 758.9082,239.5028 Q759.6138,239.5028 760.2612,239.6522 Q760.9087,239.8016 761.4731,240.1005 L761.4731,242.8231 Q760.8423,242.2421 760.2488,241.9723 Q759.6553,241.7025 759.0244,241.7025 Q757.6797,241.7025 756.9949,242.7692 Q756.3101,243.8358 756.3101,245.9359 Q756.3101,248.0277 756.9949,249.0944 Q757.6797,250.161 759.0244,250.161 Q759.6553,250.161 760.2488,249.8912 Q760.8423,249.6215 761.4731,249.0404 Z " fill="#000000"/><text fill="#000000" font-family="sans-serif" font-size="14" lengthAdjust="spacing" textLength="39" x="773" y="250.911">Enum</text><rect fill="none" height="16.1328" style="stroke:#181818;stroke-width:1.0;stroke-dasharray:2.0,2.0;" width="93" x="820" y="226.62"/><text fill="#000000" font-family="sans-serif" font-size="12" font-style="italic" lengthAdjust="spacing" textLength="91" x="821" y="239.2216">T=ValueVariant</text><line style="stroke:#181818;stroke-width:0.5;" x1="745" x2="909" y1="261.62" y2="261.62"/></g><!--class g_Union--><g id="elem_g_Union"><rect codeLine="26" fill="#F1F1F1" height="40" id="g_Union" rx="2.5" ry="2.5" style="stroke:#181818;stroke-width:0.5;" width="165" x="528.5" y="229.62"/><ellipse cx="543.5" cy="245.62" fill="#ADD1B2" rx="11" ry="11" style="stroke:#181818;stroke-width:1.0;"/><path d="M545.9731,251.7631 Q545.3921,252.0619 544.7529,252.2113 Q544.1138,252.3607 543.4082,252.3607 Q540.9014,252.3607 539.5815,250.7089 Q538.2617,249.057 538.2617,245.9359 Q538.2617,242.8065 539.5815,241.1547 Q540.9014,239.5028 543.4082,239.5028 Q544.1138,239.5028 544.7612,239.6522 Q545.4087,239.8016 545.9731,240.1005 L545.9731,242.8231 Q545.3423,242.2421 544.7488,241.9723 Q544.1553,241.7025 543.5244,241.7025 Q542.1797,241.7025 541.4949,242.7692 Q540.8101,243.8358 540.8101,245.9359 Q540.8101,248.0277 541.4949,249.0944 Q542.1797,250.161 543.5244,250.161 Q544.1553,250.161 544.7488,249.8912 Q545.3423,249.6215 545.9731,249.0404 Z " fill="#000000"/><text fill="#000000" font-family="sans-serif" font-size="14" lengthAdjust="spacing" textLength="41" x="557.5" y="250.911">Union</text><rect fill="none" height="16.1328" style="stroke:#181818;stroke-width:1.0;stroke-dasharray:2.0,2.0;" width="90" x="606.5" y="226.62"/><text fill="#000000" font-family="sans-serif" font-size="12" font-style="italic" lengthAdjust="spacing" textLength="88" x="607.5" y="239.2216">T=TypeVariant</text><line style="stroke:#181818;stroke-width:0.5;" x1="529.5" x2="692.5" y1="261.62" y2="261.62"/></g><!--class Variant--><g id="elem_Variant"><rect codeLine="36" fill="#F1F1F1" height="40" id="Variant" rx="2.5" ry="2.5" style="stroke:#181818;stroke-width:0.5;" width="81" x="84.5" y="229.62"/><ellipse cx="99.5" cy="245.62" fill="#A9DCDF" rx="11" ry="11" style="stroke:#181818;stroke-width:1.0;"/><path d="M99.3633,240.9681 L98.2095,246.0399 L100.5254,246.0399 Z M97.8691,238.7269 L100.8657,238.7269 L104.2109,251.12 L101.7622,251.12 L100.9985,248.057 L97.7197,248.057 L96.9727,251.12 L94.5239,251.12 Z " fill="#000000"/><text fill="#000000" font-family="sans-serif" font-size="14" font-style="italic" lengthAdjust="spacing" textLength="49" x="113.5" y="250.911">Variant</text><line style="stroke:#181818;stroke-width:0.5;" x1="85.5" x2="164.5" y1="261.62" y2="261.62"/></g><!--class TypeVariant--><g id="elem_TypeVariant"><rect codeLine="37" fill="#F1F1F1" height="40" id="TypeVariant" rx="2.5" ry="2.5" style="stroke:#181818;stroke-width:0.5;" width="114" x="84" y="347.24"/><ellipse cx="99" cy="363.24" fill="#ADD1B2" rx="11" ry="11" style="stroke:#181818;stroke-width:1.0;"/><path d="M101.4731,369.3831 Q100.8921,369.6819 100.2529,369.8313 Q99.6138,369.9807 98.9082,369.9807 Q96.4014,369.9807 95.0815,368.3289 Q93.7617,366.677 93.7617,363.5559 Q93.7617,360.4265 95.0815,358.7747 Q96.4014,357.1228 98.9082,357.1228 Q99.6138,357.1228 100.2612,357.2722 Q100.9087,357.4216 101.4731,357.7205 L101.4731,360.4431 Q100.8423,359.8621 100.2488,359.5923 Q99.6553,359.3225 99.0244,359.3225 Q97.6797,359.3225 96.9949,360.3892 Q96.3101,361.4558 96.3101,363.5559 Q96.3101,365.6477 96.9949,366.7144 Q97.6797,367.781 99.0244,367.781 Q99.6553,367.781 100.2488,367.5112 Q100.8423,367.2415 101.4731,366.6604 Z " fill="#000000"/><text fill="#000000" font-family="sans-serif" font-size="14" lengthAdjust="spacing" textLength="82" x="113" y="368.531">TypeVariant</text><line style="stroke:#181818;stroke-width:0.5;" x1="85" x2="197" y1="379.24" y2="379.24"/></g><!--class ValueVariant--><g id="elem_ValueVariant"><rect codeLine="38" fill="#F1F1F1" height="40" id="ValueVariant" rx="2.5" ry="2.5" style="stroke:#181818;stroke-width:0.5;" width="119" x="519.5" y="347.24"/><ellipse cx="534.5" cy="363.24" fill="#ADD1B2" rx="11" ry="11" style="stroke:#181818;stroke-width:1.0;"/><path d="M536.9731,369.3831 Q536.3921,369.6819 535.7529,369.8313 Q535.1138,369.9807 534.4082,369.9807 Q531.9014,369.9807 530.5815,368.3289 Q529.2617,366.677 529.2617,363.5559 Q529.2617,360.4265 530.5815,358.7747 Q531.9014,357.1228 534.4082,357.1228 Q535.1138,357.1228 535.7612,357.2722 Q536.4087,357.4216 536.9731,357.7205 L536.9731,360.4431 Q536.3423,359.8621 535.7488,359.5923 Q535.1553,359.3225 534.5244,359.3225 Q533.1797,359.3225 532.4949,360.3892 Q531.8101,361.4558 531.8101,363.5559 Q531.8101,365.6477 532.4949,366.7144 Q533.1797,367.781 534.5244,367.781 Q535.1553,367.781 535.7488,367.5112 Q536.3423,367.2415 536.9731,366.6604 Z " fill="#000000"/><text fill="#000000" font-family="sans-serif" font-size="14" lengthAdjust="spacing" textLength="87" x="548.5" y="368.531">ValueVariant</text><line style="stroke:#181818;stroke-width:0.5;" x1="520.5" x2="637.5" y1="379.24" y2="379.24"/></g><!--class g_MappingType--><g id="elem_g_MappingType"><rect codeLine="46" fill="#F1F1F1" height="73.2422" id="g_MappingType" rx="2.5" ry="2.5" style="stroke:#181818;stroke-width:0.5;" width="262" x="216" y="213"/><ellipse cx="231" cy="229.1328" fill="#ADD1B2" rx="11" ry="11" style="stroke:#181818;stroke-width:1.0;"/><path d="M233.4731,235.2759 Q232.8921,235.5747 232.2529,235.7241 Q231.6138,235.8735 230.9082,235.8735 Q228.4014,235.8735 227.0815,234.2217 Q225.7617,232.5698 225.7617,229.4487 Q225.7617,226.3193 227.0815,224.6675 Q228.4014,223.0156 230.9082,223.0156 Q231.6138,223.0156 232.2612,223.165 Q232.9087,223.3145 233.4731,223.6133 L233.4731,226.3359 Q232.8423,225.7549 232.2488,225.4851 Q231.6553,225.2153 231.0244,225.2153 Q229.6797,225.2153 228.9949,226.282 Q228.3101,227.3486 228.3101,229.4487 Q228.3101,231.5405 228.9949,232.6072 Q229.6797,233.6738 231.0244,233.6738 Q231.6553,233.6738 232.2488,233.4041 Q232.8423,233.1343 233.4731,232.5532 Z " fill="#000000"/><text fill="#000000" font-family="sans-serif" font-size="14" lengthAdjust="spacing" textLength="93" x="245" y="234.4238">MappingType</text><rect fill="none" height="30.2656" style="stroke:#181818;stroke-width:1.0;stroke-dasharray:2.0,2.0;" width="135" x="346" y="210"/><text fill="#000000" font-family="sans-serif" font-size="12" font-style="italic" lengthAdjust="spacing" textLength="133" x="347" y="222.6016">K extends SimpleType,</text><text fill="#000000" font-family="sans-serif" font-size="12" font-style="italic" lengthAdjust="spacing" textLength="91" x="368" y="236.7344">V extends Type</text><line style="stroke:#181818;stroke-width:0.5;" x1="217" x2="477" y1="245.2656" y2="245.2656"/><text fill="#000000" font-family="sans-serif" font-size="14" lengthAdjust="spacing" textLength="40" x="222" y="262.8008">key: K</text><text fill="#000000" font-family="sans-serif" font-size="14" lengthAdjust="spacing" textLength="53" x="222" y="279.2891">value: V</text></g><!--reverse link Type to g_Enum--><g id="link_Type_g_Enum"><path codeLine="28" d="M380.2221,93.7047 C397.3821,109.9747 409,121 409,121 C409,121 601,146 601,146 C601,146 719,154 719,154 C719,154 773.29,201.56 804.88,229.24 " fill="none" id="Type-backto-g_Enum" style="stroke:#181818;stroke-width:1.0;"/><polygon fill="none" points="367.16,81.32,376.0939,98.0587,384.3504,89.3506,367.16,81.32" style="stroke:#181818;stroke-width:1.0;"/></g><!--reverse link ModuleDefinition to g_Enum--><g id="link_ModuleDefinition_g_Enum"><path codeLine="29" d="M845.0105,99.1212 C841.0305,132.2112 833.74,192.67 829.34,229.21 " fill="none" id="ModuleDefinition-backto-g_Enum" style="stroke:#181818;stroke-width:1.0;"/><polygon fill="none" points="847.16,81.25,839.0534,98.4047,850.9676,99.8377,847.16,81.25" style="stroke:#181818;stroke-width:1.0;"/></g><!--reverse link g_Namespace to g_Enum--><g id="link_g_Namespace_g_Enum"><path codeLine="30" d="M573.0211,93.6022 C598.3111,116.8522 630,146 630,146 C630,146 719,154 719,154 C719,154 773.29,201.56 804.88,229.24 " fill="none" id="g_Namespace-backto-g_Enum" style="stroke:#181818;stroke-width:1.0;"/><polygon fill="none" points="559.77,81.42,568.9604,98.0193,577.0819,89.1852,559.77,81.42" style="stroke:#181818;stroke-width:1.0;"/></g><!--reverse link Type to g_Union--><g id="link_Type_g_Union"><path codeLine="32" d="M380.2221,93.7047 C397.3821,109.9747 409,121 409,121 C409,121 442,146 442,146 C442,146 503,154 503,154 C503,154 557.29,201.56 588.88,229.24 " fill="none" id="Type-backto-g_Union" style="stroke:#181818;stroke-width:1.0;"/><polygon fill="none" points="367.16,81.32,376.0939,98.0587,384.3504,89.3506,367.16,81.32" style="stroke:#181818;stroke-width:1.0;"/></g><!--reverse link ModuleDefinition to g_Union--><g id="link_ModuleDefinition_g_Union"><path codeLine="33" d="M813.4702,92.0721 C781.8002,115.3221 740,146 740,146 C740,146 719,154 719,154 C719,154 664.71,201.56 633.12,229.24 " fill="none" id="ModuleDefinition-backto-g_Union" style="stroke:#181818;stroke-width:1.0;"/><polygon fill="none" points="827.98,81.42,809.9195,87.2355,817.0209,96.9087,827.98,81.42" style="stroke:#181818;stroke-width:1.0;"/></g><!--reverse link g_Namespace to g_Union--><g id="link_g_Namespace_g_Union"><path codeLine="34" d="M554.9605,98.1188 C567.2805,131.2088 590.17,192.67 603.77,229.21 " fill="none" id="g_Namespace-backto-g_Union" style="stroke:#181818;stroke-width:1.0;"/><polygon fill="none" points="548.68,81.25,549.3376,100.2123,560.5835,96.0252,548.68,81.25" style="stroke:#181818;stroke-width:1.0;"/></g><!--reverse link Named to Variant--><g id="link_Named_Variant"><path codeLine="40" d="M210.5548,96.9268 C191.8848,130.0168 156.56,192.67 135.95,229.21 " fill="none" id="Named-backto-Variant" style="stroke:#181818;stroke-width:1.0;"/><polygon fill="none" points="219.4,81.25,205.3292,93.9784,215.7804,99.8752,219.4,81.25" style="stroke:#181818;stroke-width:1.0;"/></g><!--reverse link Variant to TypeVariant--><g id="link_Variant_TypeVariant"><path codeLine="41" d="M130.1448,287.8004 C133.0948,309.1404 135.36,325.46 138.31,346.82 " fill="none" id="Variant-backto-TypeVariant" style="stroke:#181818;stroke-width:1.0;"/><polygon fill="none" points="127.68,269.97,124.2014,288.6221,136.0883,286.9788,127.68,269.97" style="stroke:#181818;stroke-width:1.0;"/></g><!--reverse link Typed to TypeVariant--><g id="link_Typed_TypeVariant"><path codeLine="42" d="M86.2559,97.6449 C74.5059,122.8549 60,154 60,154 C60,154 60,286.24 60,286.24 C60,286.24 97.42,323.2 121.39,346.87 " fill="none" id="Typed-backto-TypeVariant" style="stroke:#181818;stroke-width:1.0;"/><polygon fill="none" points="93.86,81.33,80.8175,95.1102,91.6942,100.1796,93.86,81.33" style="stroke:#181818;stroke-width:1.0;"/></g><!--reverse link Variant to ValueVariant--><g id="link_Variant_ValueVariant"><path codeLine="43" d="M176.9332,278.6436 C192.3432,286.9536 191,286.24 191,286.24 C191,286.24 410.39,331.47 519.23,353.92 " fill="none" id="Variant-backto-ValueVariant" style="stroke:#181818;stroke-width:1.0;"/><polygon fill="none" points="161.09,270.1,174.0853,283.9247,179.7811,273.3625,161.09,270.1" style="stroke:#181818;stroke-width:1.0;"/></g><!--reverse link Valued to ValueVariant--><g id="link_Valued_ValueVariant"><path codeLine="44" d="M1094.5363,97.3589 C1082.3363,120.6089 1069,146 1069,146 C1069,146 980,286.24 980,286.24 C980,286.24 750.31,332.06 638.6,354.35 " fill="none" id="Valued-backto-ValueVariant" style="stroke:#181818;stroke-width:1.0;"/><polygon fill="none" points="1102.9,81.42,1089.2234,94.571,1099.8493,100.1468,1102.9,81.42" style="stroke:#181818;stroke-width:1.0;"/></g><!--reverse link Type to g_MappingType--><g id="link_Type_g_MappingType"><path codeLine="50" d="M350.2752,99.2457 C349.6452,127.9657 348.66,172.76 347.79,212.74 " fill="none" id="Type-backto-g_MappingType" style="stroke:#181818;stroke-width:1.0;"/><polygon fill="none" points="350.67,81.25,344.2767,99.1141,356.2738,99.3773,350.67,81.25" style="stroke:#181818;stroke-width:1.0;"/></g><!--reverse link Foundation to SumTypes--><g id="link_Foundation_SumTypes"><path codeLine="53" d="M38.1867,110.34 C38.3928,110.7179 36.0347,106.394 36.2364,106.7638 C36.6398,107.5035 37.034,108.2264 37.4174,108.9293 C38.1841,110.3353 38.9074,111.6616 39.5741,112.8841 C42.2406,117.7738 44,121 44,121 C44,121 930,154 930,154 C930,154 931.8169,159.7306 934.5564,168.3713 C934.642,168.6413 934.7285,168.9141 934.8159,169.1897 C934.8596,169.3276 934.9035,169.4661 934.9476,169.6052 " fill="none" id="Foundation-backto-SumTypes" style="stroke:#181818;stroke-width:1.0;stroke-dasharray:7.0,7.0;"/><polygon fill="#181818" points="35.314,105.0724,36.1113,114.8889,37.7079,109.4621,43.1348,111.0587,35.314,105.0724" style="stroke:#181818;stroke-width:1.0;"/><text fill="#000000" font-family="sans-serif" font-size="13" lengthAdjust="spacing" textLength="56" x="693" y="142.5684">&#171;import&#187;</text></g><!--reverse link Values to SumTypes--><g id="link_Values_SumTypes"><path codeLine="54" d="M1011.0606,95.7596 C1010.4111,97.7038 1011.6322,94.0484 1010.9252,96.165 C1005.2684,113.0975 997.8781,135.22 990.4888,157.34 C983.0994,179.46 975.7109,201.5775 970.058,218.5 C969.3513,220.6153 968.6718,222.6495 968.0228,224.5923 " fill="none" id="Values-backto-SumTypes" style="stroke:#181818;stroke-width:1.0;stroke-dasharray:7.0,7.0;"/><polygon fill="#181818" points="1012.9618,90.0687,1006.3161,97.3375,1011.3775,94.8111,1013.9039,99.8724,1012.9618,90.0687" style="stroke:#181818;stroke-width:1.0;"/><text fill="#000000" font-family="sans-serif" font-size="13" lengthAdjust="spacing" textLength="56" x="1000" y="142.5684">&#171;import&#187;</text></g><!--link SumTypes to Modules--><g id="link_SumTypes_Modules"><path codeLine="55" d="M934.9476,169.6052 C934.9035,169.4661 934.8596,169.3276 934.8159,169.1897 C934.7285,168.9141 934.642,168.6413 934.5564,168.3713 C931.8169,159.7306 930,154 930,154 C930,154 754,121 754,121 C754,121 752.2406,117.7738 749.5741,112.8841 C748.9074,111.6616 748.1841,110.3353 747.4174,108.9293 C747.034,108.2264 746.6398,107.5035 746.2364,106.7638 C746.0347,106.394 745.8307,106.0199 745.6246,105.642 C745.5216,105.4531 748.2907,110.5308 748.1867,110.34 " fill="none" id="SumTypes-to-Modules" style="stroke:#181818;stroke-width:1.0;stroke-dasharray:7.0,7.0;"/><polygon fill="#181818" points="745.314,105.0724,746.1113,114.8889,747.7079,109.4621,753.1348,111.0587,745.314,105.0724" style="stroke:#181818;stroke-width:1.0;"/><text fill="#000000" font-family="sans-serif" font-size="13" lengthAdjust="spacing" textLength="56" x="883" y="142.5684">&#171;import&#187;</text></g><!--SRC=[ZLEnJiCm4Dtp5QVEj69XgK8Me4jLbfPCICYDZzHgObkn0rIb_uxjEC594wdUVE_TkxldipeoBab5IjYJx9XNekRqIHIY0bqHhWo4N4UgOnMCepv912cAaxq461SK5Kfuk8yEZ2AKg0-2gYYIHfha22khJZGJ7CuHcEDfvHuhvG9ahqpTJ4DM4ANWbPH8uNmPmsOMD0rc6Ey0VpHowXEI6H05-KT7c53OsJcc8LVuyj_zHj2wG7LZwmtx6JyPPyt4FR6K5FNDMeuyR6TRbxRBLiERyiBhCjuzkeoKL8nmtTfXeNPSptxZfZD3jq83jeCitV5zzhoMyz_4kJCI7euyGWaUfHLk2bqhz-8JqZtEbVQLYsx0lWN1v7qWTB2peRtxYcxR713AUD1Vfs2tOLuqg3IIF8xRZOZ2jzmGAHdFhMwyxZx4bfMoG1kyU-Tf5xQ1zgM3HBzBzXpnj8HrT_so1PUGki35snzcXWzetEgsSr7BHHBy_2N4iUb9L3f9XgpcKqmmgFZcYtOJUgG_]--></g></svg>