<?xml version="1.0" encoding="us-ascii" standalone="no"?><svg xmlns="http://www.w3.org/2000/svg" xmlns:xlink="http://www.w3.org/1999/xlink" contentStyleType="text/css" height="486px" preserveAspectRatio="none" style="width:1211px;height:486px;" version="1.1" viewBox="0 0 1211 486" width="1211px" zoomAndPan="magnify"><defs/><g><!--cluster Foundation--><g id="cluster_Foundation"><path d="M8.5,6 L90.5,6 A3.75,3.75 0 0 1 93,8.5 L100,28.4883 L272.5,28.4883 A2.5,2.5 0 0 1 275,30.9883 L275,102.5 A2.5,2.5 0 0 1 272.5,105 L8.5,105 A2.5,2.5 0 0 1 6,102.5 L6,8.5 A2.5,2.5 0 0 1 8.5,6 " fill="none" style="stroke:#000000;stroke-width:1.5;"/><line style="stroke:#000000;stroke-width:1.5;" x1="6" x2="100" y1="28.4883" y2="28.4883"/><text fill="#000000" font-family="sans-serif" font-size="14" font-weight="bold" lengthAdjust="spacing" textLength="81" x="10" y="21.5352">Foundation</text></g><!--cluster Modules--><g id="cluster_Modules"><path d="M412.5,6 L474.5,6 A3.75,3.75 0 0 1 477,8.5 L484,28.4883 L639.5,28.4883 A2.5,2.5 0 0 1 642,30.9883 L642,102.5 A2.5,2.5 0 0 1 639.5,105 L412.5,105 A2.5,2.5 0 0 1 410,102.5 L410,8.5 A2.5,2.5 0 0 1 412.5,6 " fill="none" style="stroke:#000000;stroke-width:1.5;"/><line style="stroke:#000000;stroke-width:1.5;" x1="410" x2="484" y1="28.4883" y2="28.4883"/><text fill="#000000" font-family="sans-serif" font-size="14" font-weight="bold" lengthAdjust="spacing" textLength="61" x="414" y="21.5352">Modules</text></g><!--cluster Datatypes--><g id="cluster_Datatypes"><path d="M170.5,170 L243.5,170 A3.75,3.75 0 0 1 246,172.5 L253,192.4883 L1201.5,192.4883 A2.5,2.5 0 0 1 1204,194.9883 L1204,476.5 A2.5,2.5 0 0 1 1201.5,479 L170.5,479 A2.5,2.5 0 0 1 168,476.5 L168,172.5 A2.5,2.5 0 0 1 170.5,170 " fill="none" style="stroke:#000000;stroke-width:1.5;"/><line style="stroke:#000000;stroke-width:1.5;" x1="168" x2="253" y1="192.4883" y2="192.4883"/><text fill="#000000" font-family="sans-serif" font-size="14" font-weight="bold" lengthAdjust="spacing" textLength="72" x="172" y="185.5352">Datatypes</text></g><!--class Name--><g id="elem_Name"><rect codeLine="8" fill="#F1F1F1" height="32" id="Name" rx="2.5" ry="2.5" style="stroke:#181818;stroke-width:0.5;" width="71" x="64.5" y="49"/><ellipse cx="79.5" cy="65" fill="#ADD1B2" rx="11" ry="11" style="stroke:#181818;stroke-width:1.0;"/><path d="M81.9731,71.1431 Q81.3921,71.4419 80.7529,71.5913 Q80.1138,71.7407 79.4082,71.7407 Q76.9014,71.7407 75.5815,70.0889 Q74.2617,68.437 74.2617,65.3159 Q74.2617,62.1865 75.5815,60.5347 Q76.9014,58.8828 79.4082,58.8828 Q80.1138,58.8828 80.7612,59.0322 Q81.4087,59.1816 81.9731,59.4805 L81.9731,62.2031 Q81.3423,61.6221 80.7488,61.3523 Q80.1553,61.0825 79.5244,61.0825 Q78.1797,61.0825 77.4949,62.1492 Q76.8101,63.2158 76.8101,65.3159 Q76.8101,67.4077 77.4949,68.4744 Q78.1797,69.541 79.5244,69.541 Q80.1553,69.541 80.7488,69.2712 Q81.3423,69.0015 81.9731,68.4204 Z " fill="#000000"/><text fill="#000000" font-family="sans-serif" font-size="14" lengthAdjust="spacing" textLength="39" x="93.5" y="70.291">Name</text></g><!--class Type--><g id="elem_Type"><rect codeLine="9" fill="#F1F1F1" height="32" id="Type" rx="2.5" ry="2.5" style="stroke:#181818;stroke-width:0.5;" width="65" x="185.5" y="49"/><ellipse cx="200.5" cy="65" fill="#A9DCDF" rx="11" ry="11" style="stroke:#181818;stroke-width:1.0;"/><path d="M200.3633,60.3481 L199.2095,65.4199 L201.5254,65.4199 Z M198.8691,58.1069 L201.8657,58.1069 L205.2109,70.5 L202.7622,70.5 L201.9985,67.437 L198.7197,67.437 L197.9727,70.5 L195.5239,70.5 Z " fill="#000000"/><text fill="#000000" font-family="sans-serif" font-size="14" font-style="italic" lengthAdjust="spacing" textLength="33" x="214.5" y="70.291">Type</text></g><!--class ModuleDefinition--><g id="elem_ModuleDefinition"><rect codeLine="14" fill="#F1F1F1" height="32" id="ModuleDefinition" rx="2.5" ry="2.5" style="stroke:#181818;stroke-width:0.5;" width="150" x="434" y="49"/><ellipse cx="449" cy="65" fill="#A9DCDF" rx="11" ry="11" style="stroke:#181818;stroke-width:1.0;"/><path d="M448.8633,60.3481 L447.7095,65.4199 L450.0254,65.4199 Z M447.3691,58.1069 L450.3657,58.1069 L453.7109,70.5 L451.2622,70.5 L450.4985,67.437 L447.2197,67.437 L446.4727,70.5 L444.0239,70.5 Z " fill="#000000"/><text fill="#000000" font-family="sans-serif" font-size="14" font-style="italic" lengthAdjust="spacing" textLength="118" x="463" y="70.291">ModuleDefinition</text></g><!--class Datatype--><g id="elem_Datatype"><rect codeLine="18" fill="#F1F1F1" height="40" id="Datatype" rx="2.5" ry="2.5" style="stroke:#181818;stroke-width:0.5;" width="92" x="512" y="213"/><ellipse cx="527" cy="229" fill="#A9DCDF" rx="11" ry="11" style="stroke:#181818;stroke-width:1.0;"/><path d="M526.8633,224.3481 L525.7095,229.4199 L528.0254,229.4199 Z M525.3691,222.1069 L528.3657,222.1069 L531.7109,234.5 L529.2622,234.5 L528.4985,231.437 L525.2197,231.437 L524.4727,234.5 L522.0239,234.5 Z " fill="#000000"/><text fill="#000000" font-family="sans-serif" font-size="14" font-style="italic" lengthAdjust="spacing" textLength="60" x="541" y="234.291">Datatype</text><line style="stroke:#181818;stroke-width:0.5;" x1="513" x2="603" y1="245" y2="245"/></g><!--class Binary--><g id="elem_Binary"><rect codeLine="24" fill="#F1F1F1" height="40" id="Binary" rx="2.5" ry="2.5" style="stroke:#181818;stroke-width:0.5;" width="74" x="324" y="314"/><ellipse cx="339" cy="330" fill="#ADD1B2" rx="11" ry="11" style="stroke:#181818;stroke-width:1.0;"/><path d="M341.4731,336.1431 Q340.8921,336.4419 340.2529,336.5913 Q339.6138,336.7407 338.9082,336.7407 Q336.4014,336.7407 335.0815,335.0889 Q333.7617,333.437 333.7617,330.3159 Q333.7617,327.1865 335.0815,325.5347 Q336.4014,323.8828 338.9082,323.8828 Q339.6138,323.8828 340.2612,324.0322 Q340.9087,324.1816 341.4731,324.4805 L341.4731,327.2031 Q340.8423,326.6221 340.2488,326.3523 Q339.6553,326.0825 339.0244,326.0825 Q337.6797,326.0825 336.9949,327.1492 Q336.3101,328.2158 336.3101,330.3159 Q336.3101,332.4077 336.9949,333.4744 Q337.6797,334.541 339.0244,334.541 Q339.6553,334.541 340.2488,334.2712 Q340.8423,334.0015 341.4731,333.4204 Z " fill="#000000"/><text fill="#000000" font-family="sans-serif" font-size="14" lengthAdjust="spacing" textLength="42" x="353" y="335.291">Binary</text><line style="stroke:#181818;stroke-width:0.5;" x1="325" x2="397" y1="346" y2="346"/></g><!--class Boolean--><g id="elem_Boolean"><rect codeLine="26" fill="#F1F1F1" height="40" id="Boolean" rx="2.5" ry="2.5" style="stroke:#181818;stroke-width:0.5;" width="87" x="447.5" y="314"/><ellipse cx="462.5" cy="330" fill="#ADD1B2" rx="11" ry="11" style="stroke:#181818;stroke-width:1.0;"/><path d="M464.9731,336.1431 Q464.3921,336.4419 463.7529,336.5913 Q463.1138,336.7407 462.4082,336.7407 Q459.9014,336.7407 458.5815,335.0889 Q457.2617,333.437 457.2617,330.3159 Q457.2617,327.1865 458.5815,325.5347 Q459.9014,323.8828 462.4082,323.8828 Q463.1138,323.8828 463.7612,324.0322 Q464.4087,324.1816 464.9731,324.4805 L464.9731,327.2031 Q464.3423,326.6221 463.7488,326.3523 Q463.1553,326.0825 462.5244,326.0825 Q461.1797,326.0825 460.4949,327.1492 Q459.8101,328.2158 459.8101,330.3159 Q459.8101,332.4077 460.4949,333.4744 Q461.1797,334.541 462.5244,334.541 Q463.1553,334.541 463.7488,334.2712 Q464.3423,334.0015 464.9731,333.4204 Z " fill="#000000"/><text fill="#000000" font-family="sans-serif" font-size="14" lengthAdjust="spacing" textLength="55" x="476.5" y="335.291">Boolean</text><line style="stroke:#181818;stroke-width:0.5;" x1="448.5" x2="533.5" y1="346" y2="346"/></g><!--class Decimal--><g id="elem_Decimal"><rect codeLine="28" fill="#F1F1F1" height="40" id="Decimal" rx="2.5" ry="2.5" style="stroke:#181818;stroke-width:0.5;" width="86" x="584" y="314"/><ellipse cx="599" cy="330" fill="#ADD1B2" rx="11" ry="11" style="stroke:#181818;stroke-width:1.0;"/><path d="M601.4731,336.1431 Q600.8921,336.4419 600.2529,336.5913 Q599.6138,336.7407 598.9082,336.7407 Q596.4014,336.7407 595.0815,335.0889 Q593.7617,333.437 593.7617,330.3159 Q593.7617,327.1865 595.0815,325.5347 Q596.4014,323.8828 598.9082,323.8828 Q599.6138,323.8828 600.2612,324.0322 Q600.9087,324.1816 601.4731,324.4805 L601.4731,327.2031 Q600.8423,326.6221 600.2488,326.3523 Q599.6553,326.0825 599.0244,326.0825 Q597.6797,326.0825 596.9949,327.1492 Q596.3101,328.2158 596.3101,330.3159 Q596.3101,332.4077 596.9949,333.4744 Q597.6797,334.541 599.0244,334.541 Q599.6553,334.541 600.2488,334.2712 Q600.8423,334.0015 601.4731,333.4204 Z " fill="#000000"/><text fill="#000000" font-family="sans-serif" font-size="14" lengthAdjust="spacing" textLength="54" x="613" y="335.291">Decimal</text><line style="stroke:#181818;stroke-width:0.5;" x1="585" x2="669" y1="346" y2="346"/></g><!--class Double--><g id="elem_Double"><rect codeLine="30" fill="#F1F1F1" height="40" id="Double" rx="2.5" ry="2.5" style="stroke:#181818;stroke-width:0.5;" width="81" x="719.5" y="314"/><ellipse cx="734.5" cy="330" fill="#ADD1B2" rx="11" ry="11" style="stroke:#181818;stroke-width:1.0;"/><path d="M736.9731,336.1431 Q736.3921,336.4419 735.7529,336.5913 Q735.1138,336.7407 734.4082,336.7407 Q731.9014,336.7407 730.5815,335.0889 Q729.2617,333.437 729.2617,330.3159 Q729.2617,327.1865 730.5815,325.5347 Q731.9014,323.8828 734.4082,323.8828 Q735.1138,323.8828 735.7612,324.0322 Q736.4087,324.1816 736.9731,324.4805 L736.9731,327.2031 Q736.3423,326.6221 735.7488,326.3523 Q735.1553,326.0825 734.5244,326.0825 Q733.1797,326.0825 732.4949,327.1492 Q731.8101,328.2158 731.8101,330.3159 Q731.8101,332.4077 732.4949,333.4744 Q733.1797,334.541 734.5244,334.541 Q735.1553,334.541 735.7488,334.2712 Q736.3423,334.0015 736.9731,333.4204 Z " fill="#000000"/><text fill="#000000" font-family="sans-serif" font-size="14" lengthAdjust="spacing" textLength="49" x="748.5" y="335.291">Double</text><line style="stroke:#181818;stroke-width:0.5;" x1="720.5" x2="799.5" y1="346" y2="346"/></g><!--class Integer--><g id="elem_Integer"><rect codeLine="32" fill="#F1F1F1" height="40" id="Integer" rx="2.5" ry="2.5" style="stroke:#181818;stroke-width:0.5;" width="81" x="850.5" y="314"/><ellipse cx="865.5" cy="330" fill="#ADD1B2" rx="11" ry="11" style="stroke:#181818;stroke-width:1.0;"/><path d="M867.9731,336.1431 Q867.3921,336.4419 866.7529,336.5913 Q866.1138,336.7407 865.4082,336.7407 Q862.9014,336.7407 861.5815,335.0889 Q860.2617,333.437 860.2617,330.3159 Q860.2617,327.1865 861.5815,325.5347 Q862.9014,323.8828 865.4082,323.8828 Q866.1138,323.8828 866.7612,324.0322 Q867.4087,324.1816 867.9731,324.4805 L867.9731,327.2031 Q867.3423,326.6221 866.7488,326.3523 Q866.1553,326.0825 865.5244,326.0825 Q864.1797,326.0825 863.4949,327.1492 Q862.8101,328.2158 862.8101,330.3159 Q862.8101,332.4077 863.4949,333.4744 Q864.1797,334.541 865.5244,334.541 Q866.1553,334.541 866.7488,334.2712 Q867.3423,334.0015 867.9731,333.4204 Z " fill="#000000"/><text fill="#000000" font-family="sans-serif" font-size="14" lengthAdjust="spacing" textLength="49" x="879.5" y="335.291">Integer</text><line style="stroke:#181818;stroke-width:0.5;" x1="851.5" x2="930.5" y1="346" y2="346"/></g><!--class String--><g id="elem_String"><rect codeLine="34" fill="#F1F1F1" height="40" id="String" rx="2.5" ry="2.5" style="stroke:#181818;stroke-width:0.5;" width="73" x="200.5" y="314"/><ellipse cx="215.5" cy="330" fill="#ADD1B2" rx="11" ry="11" style="stroke:#181818;stroke-width:1.0;"/><path d="M217.9731,336.1431 Q217.3921,336.4419 216.7529,336.5913 Q216.1138,336.7407 215.4082,336.7407 Q212.9014,336.7407 211.5815,335.0889 Q210.2617,333.437 210.2617,330.3159 Q210.2617,327.1865 211.5815,325.5347 Q212.9014,323.8828 215.4082,323.8828 Q216.1138,323.8828 216.7612,324.0322 Q217.4087,324.1816 217.9731,324.4805 L217.9731,327.2031 Q217.3423,326.6221 216.7488,326.3523 Q216.1553,326.0825 215.5244,326.0825 Q214.1797,326.0825 213.4949,327.1492 Q212.8101,328.2158 212.8101,330.3159 Q212.8101,332.4077 213.4949,333.4744 Q214.1797,334.541 215.5244,334.541 Q216.1553,334.541 216.7488,334.2712 Q217.3423,334.0015 217.9731,333.4204 Z " fill="#000000"/><text fill="#000000" font-family="sans-serif" font-size="14" lengthAdjust="spacing" textLength="41" x="229.5" y="335.291">String</text><line style="stroke:#181818;stroke-width:0.5;" x1="201.5" x2="272.5" y1="346" y2="346"/></g><!--class Unsigned--><g id="elem_Unsigned"><rect codeLine="36" fill="#F1F1F1" height="40" id="Unsigned" rx="2.5" ry="2.5" style="stroke:#181818;stroke-width:0.5;" width="97" x="981.5" y="314"/><ellipse cx="996.5" cy="330" fill="#ADD1B2" rx="11" ry="11" style="stroke:#181818;stroke-width:1.0;"/><path d="M998.9731,336.1431 Q998.3921,336.4419 997.7529,336.5913 Q997.1138,336.7407 996.4082,336.7407 Q993.9014,336.7407 992.5815,335.0889 Q991.2617,333.437 991.2617,330.3159 Q991.2617,327.1865 992.5815,325.5347 Q993.9014,323.8828 996.4082,323.8828 Q997.1138,323.8828 997.7612,324.0322 Q998.4087,324.1816 998.9731,324.4805 L998.9731,327.2031 Q998.3423,326.6221 997.7488,326.3523 Q997.1553,326.0825 996.5244,326.0825 Q995.1797,326.0825 994.4949,327.1492 Q993.8101,328.2158 993.8101,330.3159 Q993.8101,332.4077 994.4949,333.4744 Q995.1797,334.541 996.5244,334.541 Q997.1553,334.541 997.7488,334.2712 Q998.3423,334.0015 998.9731,333.4204 Z " fill="#000000"/><text fill="#000000" font-family="sans-serif" font-size="14" lengthAdjust="spacing" textLength="65" x="1010.5" y="335.291">Unsigned</text><line style="stroke:#181818;stroke-width:0.5;" x1="982.5" x2="1077.5" y1="346" y2="346"/></g><!--class Uri--><g id="elem_Uri"><rect codeLine="38" fill="#F1F1F1" height="40" id="Uri" rx="2.5" ry="2.5" style="stroke:#181818;stroke-width:0.5;" width="52" x="1128" y="314"/><ellipse cx="1143" cy="330" fill="#ADD1B2" rx="11" ry="11" style="stroke:#181818;stroke-width:1.0;"/><path d="M1145.4731,336.1431 Q1144.8921,336.4419 1144.2529,336.5913 Q1143.6138,336.7407 1142.9082,336.7407 Q1140.4014,336.7407 1139.0815,335.0889 Q1137.7617,333.437 1137.7617,330.3159 Q1137.7617,327.1865 1139.0815,325.5347 Q1140.4014,323.8828 1142.9082,323.8828 Q1143.6138,323.8828 1144.2612,324.0322 Q1144.9087,324.1816 1145.4731,324.4805 L1145.4731,327.2031 Q1144.8423,326.6221 1144.2488,326.3523 Q1143.6553,326.0825 1143.0244,326.0825 Q1141.6797,326.0825 1140.9949,327.1492 Q1140.3101,328.2158 1140.3101,330.3159 Q1140.3101,332.4077 1140.9949,333.4744 Q1141.6797,334.541 1143.0244,334.541 Q1143.6553,334.541 1144.2488,334.2712 Q1144.8423,334.0015 1145.4731,333.4204 Z " fill="#000000"/><text fill="#000000" font-family="sans-serif" font-size="14" lengthAdjust="spacing" textLength="20" x="1157" y="335.291">Uri</text><line style="stroke:#181818;stroke-width:0.5;" x1="1129" x2="1179" y1="346" y2="346"/></g><!--class LanguageTag--><g id="elem_LanguageTag"><rect codeLine="41" fill="#F1F1F1" height="40" id="LanguageTag" rx="2.5" ry="2.5" style="stroke:#181818;stroke-width:0.5;" width="125" x="442.5" y="415"/><ellipse cx="457.5" cy="431" fill="#ADD1B2" rx="11" ry="11" style="stroke:#181818;stroke-width:1.0;"/><path d="M459.9731,437.1431 Q459.3921,437.4419 458.7529,437.5913 Q458.1138,437.7407 457.4082,437.7407 Q454.9014,437.7407 453.5815,436.0889 Q452.2617,434.437 452.2617,431.3159 Q452.2617,428.1865 453.5815,426.5347 Q454.9014,424.8828 457.4082,424.8828 Q458.1138,424.8828 458.7612,425.0322 Q459.4087,425.1816 459.9731,425.4805 L459.9731,428.2031 Q459.3423,427.6221 458.7488,427.3523 Q458.1553,427.0825 457.5244,427.0825 Q456.1797,427.0825 455.4949,428.1492 Q454.8101,429.2158 454.8101,431.3159 Q454.8101,433.4077 455.4949,434.4744 Q456.1797,435.541 457.5244,435.541 Q458.1553,435.541 458.7488,435.2712 Q459.3423,435.0015 459.9731,434.4204 Z " fill="#000000"/><text fill="#000000" font-family="sans-serif" font-size="14" lengthAdjust="spacing" textLength="93" x="471.5" y="436.291">LanguageTag</text><line style="stroke:#181818;stroke-width:0.5;" x1="443.5" x2="566.5" y1="447" y2="447"/></g><!--class LanguageTaggedString--><g id="elem_LanguageTaggedString"><rect codeLine="42" fill="#F1F1F1" height="40" id="LanguageTaggedString" rx="2.5" ry="2.5" style="stroke:#181818;stroke-width:0.5;" width="192" x="200" y="415"/><ellipse cx="215" cy="431" fill="#ADD1B2" rx="11" ry="11" style="stroke:#181818;stroke-width:1.0;"/><path d="M217.4731,437.1431 Q216.8921,437.4419 216.2529,437.5913 Q215.6138,437.7407 214.9082,437.7407 Q212.4014,437.7407 211.0815,436.0889 Q209.7617,434.437 209.7617,431.3159 Q209.7617,428.1865 211.0815,426.5347 Q212.4014,424.8828 214.9082,424.8828 Q215.6138,424.8828 216.2612,425.0322 Q216.9087,425.1816 217.4731,425.4805 L217.4731,428.2031 Q216.8423,427.6221 216.2488,427.3523 Q215.6553,427.0825 215.0244,427.0825 Q213.6797,427.0825 212.9949,428.1492 Q212.3101,429.2158 212.3101,431.3159 Q212.3101,433.4077 212.9949,434.4744 Q213.6797,435.541 215.0244,435.541 Q215.6553,435.541 216.2488,435.2712 Q216.8423,435.0015 217.4731,434.4204 Z " fill="#000000"/><text fill="#000000" font-family="sans-serif" font-size="14" lengthAdjust="spacing" textLength="160" x="229" y="436.291">LanguageTaggedString</text><line style="stroke:#181818;stroke-width:0.5;" x1="201" x2="391" y1="447" y2="447"/></g><!--reverse link Type to Datatype--><g id="link_Type_Datatype"><path codeLine="19" d="M268.2048,81.2357 C344.2148,104.2957 508,154 508,154 C508,154 530.83,189.62 545.64,212.72 " fill="none" id="Type-backto-Datatype" style="stroke:#181818;stroke-width:1.0;"/><polygon fill="none" points="250.98,76.01,266.4629,86.9773,269.9467,75.4941,250.98,76.01" style="stroke:#181818;stroke-width:1.0;"/></g><!--reverse link ModuleDefinition to Datatype--><g id="link_ModuleDefinition_Datatype"><path codeLine="20" d="M518.6181,98.583 C527.5781,128.923 542.45,179.33 552.3,212.67 " fill="none" id="ModuleDefinition-backto-Datatype" style="stroke:#181818;stroke-width:1.0;"/><polygon fill="none" points="513.52,81.32,512.8638,100.2823,524.3724,96.8836,513.52,81.32" style="stroke:#181818;stroke-width:1.0;"/></g><!--link Datatype to Datatype--><g id="link_Datatype_Datatype"><path codeLine="22" d="M604.43,223.98 C630.23,222.3 654,225.31 654,233 C654,240.69 636.2173,244.0899 610.4173,242.4099 " fill="none" id="Datatype-to-Datatype" style="stroke:#181818;stroke-width:1.0;"/><polygon fill="#181818" points="604.43,242.02,613.1511,246.5964,609.4194,242.3449,613.6709,238.6133,604.43,242.02" style="stroke:#181818;stroke-width:1.0;"/><text fill="#000000" font-family="sans-serif" font-size="13" lengthAdjust="spacing" textLength="52" x="611.8993" y="224.0037">restricts</text><text fill="#000000" font-family="sans-serif" font-size="13" lengthAdjust="spacing" textLength="24" x="639.8993" y="239.3142">0..1</text></g><!--reverse link Datatype to Binary--><g id="link_Datatype_Binary"><path codeLine="25" d="M503.4678,261.4047 C468.4178,279.0247 433.05,296.79 398.35,314.23 " fill="none" id="Datatype-backto-Binary" style="stroke:#181818;stroke-width:1.0;"/><polygon fill="none" points="519.55,253.32,500.7729,256.044,506.1627,266.7654,519.55,253.32" style="stroke:#181818;stroke-width:1.0;"/></g><!--reverse link Datatype to Boolean--><g id="link_Datatype_Boolean"><path codeLine="27" d="M534.991,267.9968 C523.201,285.4168 515.95,296.13 504.11,313.63 " fill="none" id="Datatype-backto-Boolean" style="stroke:#181818;stroke-width:1.0;"/><polygon fill="none" points="545.08,253.09,530.0221,264.6338,539.9599,271.3598,545.08,253.09" style="stroke:#181818;stroke-width:1.0;"/></g><!--reverse link Datatype to Decimal--><g id="link_Datatype_Decimal"><path codeLine="29" d="M581.5916,267.8576 C593.7316,285.2776 601.3,296.13 613.5,313.63 " fill="none" id="Datatype-backto-Decimal" style="stroke:#181818;stroke-width:1.0;"/><polygon fill="none" points="571.3,253.09,576.669,271.2882,586.5141,264.4271,571.3,253.09" style="stroke:#181818;stroke-width:1.0;"/></g><!--reverse link Datatype to Double--><g id="link_Datatype_Double"><path codeLine="31" d="M613.593,261.242 C649.073,278.632 684.77,296.13 720.33,313.56 " fill="none" id="Datatype-backto-Double" style="stroke:#181818;stroke-width:1.0;"/><polygon fill="none" points="597.43,253.32,610.9523,266.6297,616.2336,255.8544,597.43,253.32" style="stroke:#181818;stroke-width:1.0;"/></g><!--reverse link Datatype to Integer--><g id="link_Datatype_Integer"><path codeLine="33" d="M621.5543,252.8972 C686.8743,272.3072 787.78,302.31 850.06,320.83 " fill="none" id="Datatype-backto-Integer" style="stroke:#181818;stroke-width:1.0;"/><polygon fill="none" points="604.3,247.77,619.8453,258.6486,623.2634,247.1457,604.3,247.77" style="stroke:#181818;stroke-width:1.0;"/></g><!--reverse link Datatype to String--><g id="link_Datatype_String"><path codeLine="35" d="M494.7863,258.0566 C494.7863,258.0566 299,314 299,314 C299,314 287.13,317.64 273.78,321.73 " fill="none" id="Datatype-backto-String" style="stroke:#181818;stroke-width:1.0;"/><polygon fill="none" points="511.6,251.63,492.6441,252.452,496.9285,263.6611,511.6,251.63" style="stroke:#181818;stroke-width:1.0;"/></g><!--reverse link Datatype to Unsigned--><g id="link_Datatype_Unsigned"><path codeLine="37" d="M621.809,246.7972 C726.839,267.8472 957,314 957,314 C957,314 967.92,316.84 981.31,320.33 " fill="none" id="Datatype-backto-Unsigned" style="stroke:#181818;stroke-width:1.0;"/><polygon fill="none" points="604.16,243.26,620.63,252.6802,622.9881,240.9142,604.16,243.26" style="stroke:#181818;stroke-width:1.0;"/></g><!--reverse link Datatype to Uri--><g id="link_Datatype_Uri"><path codeLine="39" d="M622.2791,243.4348 C754.0691,262.7848 1103,314 1103,314 C1103,314 1115.16,318.53 1127.6,323.17 " fill="none" id="Datatype-backto-Uri" style="stroke:#181818;stroke-width:1.0;"/><polygon fill="none" points="604.47,240.82,621.4075,249.3712,623.1507,237.4985,604.47,240.82" style="stroke:#181818;stroke-width:1.0;"/></g><!--reverse link String to LanguageTaggedString--><g id="link_String_LanguageTaggedString"><path codeLine="43" d="M257.5939,369.553 C267.9739,386.973 274.03,397.13 284.46,414.63 " fill="none" id="String-backto-LanguageTaggedString" style="stroke:#181818;stroke-width:1.0;"/><polygon fill="none" points="248.38,354.09,252.4396,372.6243,262.7482,366.4817,248.38,354.09" style="stroke:#181818;stroke-width:1.0;"/></g><!--link LanguageTaggedString to LanguageTag--><g id="link_LanguageTaggedString_LanguageTag"><path codeLine="44" d="M404.4,435 C424.05,435 435.33,435 435.33,435 C435.33,435 431.89,435 436.01,435 " fill="none" id="LanguageTaggedString-LanguageTag" style="stroke:#181818;stroke-width:1.0;"/><polygon fill="#181818" points="392.4,435,398.4,439,404.4,435,398.4,431,392.4,435" style="stroke:#181818;stroke-width:1.0;"/><polygon fill="#181818" points="442.01,435,433.01,431,437.01,435,433.01,439,442.01,435" style="stroke:#181818;stroke-width:1.0;"/><text fill="#000000" font-family="sans-serif" font-size="13" lengthAdjust="spacing" textLength="30" x="404.5766" y="416.1683">+tag</text><text fill="#000000" font-family="sans-serif" font-size="13" lengthAdjust="spacing" textLength="8" x="426.5766" y="431.4788">1</text></g><!--reverse link String to Name--><g id="link_String_Name"><path codeLine="46" d="M204.5822,300.9825 C180.6122,277.3125 156,253 156,253 C156,253 117.96,125.96 104.58,81.3 " fill="none" id="String-backto-Name" style="stroke:#181818;stroke-width:1.0;"/><polygon fill="none" points="217.39,313.63,208.798,296.7132,200.3663,305.2518,217.39,313.63" style="stroke:#181818;stroke-width:1.0;"/></g><!--reverse link Foundation to Datatypes--><g id="link_Foundation_Datatypes"><path codeLine="49" d="M38.9697,110.2995 C39.1827,110.6773 36.7687,106.394 36.9771,106.7638 C37.394,107.5035 37.8013,108.2264 38.1975,108.9293 C38.9898,110.3353 39.7373,111.6616 40.4262,112.8841 C43.1819,117.7738 45,121 45,121 C45,121 76.735,147.89 108.9663,175.2 C125.0819,188.855 141.3216,202.615 153.7805,213.1713 C156.8952,215.8103 159.7736,218.2491 162.3547,220.436 C163.6453,221.5295 164.8615,222.5599 165.9958,223.521 C166.5629,224.0015 167.1096,224.4646 167.6348,224.9096 " fill="none" id="Foundation-backto-Datatypes" style="stroke:#181818;stroke-width:1.0;stroke-dasharray:7.0,7.0;"/><polygon fill="#181818" points="36.0239,105.0724,36.9579,114.8769,38.4787,109.4283,43.9273,110.9491,36.0239,105.0724" style="stroke:#181818;stroke-width:1.0;"/><text fill="#000000" font-family="sans-serif" font-size="13" lengthAdjust="spacing" textLength="56" x="75" y="142.5684">&#171;import&#187;</text></g><!--reverse link Modules to Datatypes--><g id="link_Modules_Datatypes"><path codeLine="50" d="M609.8133,110.34 C609.6072,110.7179 611.9653,106.394 611.7636,106.7638 C611.3602,107.5035 610.966,108.2264 610.5826,108.9293 C609.8159,110.3353 609.0926,111.6616 608.4259,112.8841 C605.7594,117.7738 604,121 604,121 C604,121 180,154 180,154 C180,154 179.7575,158.7238 179.3919,165.8463 C179.3462,166.7366 179.2985,167.6644 179.2492,168.6251 C179.2369,168.8653 179.2245,169.1075 179.2119,169.3517 C179.2057,169.4739 179.1994,169.5965 179.193,169.7196 " fill="none" id="Modules-backto-Datatypes" style="stroke:#181818;stroke-width:1.0;stroke-dasharray:7.0,7.0;"/><polygon fill="#181818" points="612.686,105.0724,604.8652,111.0587,610.2921,109.4621,611.8887,114.8889,612.686,105.0724" style="stroke:#181818;stroke-width:1.0;"/><text fill="#000000" font-family="sans-serif" font-size="13" lengthAdjust="spacing" textLength="56" x="491" y="142.5684">&#171;import&#187;</text></g><!--SRC=[VPCnRuCm48LtVeMLiHKe7RfK4KCRHQhKTccwPJdWwbWnPyisGvJclzU08OG4s1xlktTdwsmFWZGOA5a6-O4RLL7nfgGop1aWwoqa5zcUaeBG7JKohUIn5WEFL84MDNjUHdjH82lHxLLXeqZxQE38DdKwEA68dIBclu2L6HhR_CWbMCk-e4HsEZT_8BD-ajm5QrltzjRvalgfYagYdOeS1RJq6dy5YNQIgx0rEAZFryMDgZkxcwxNSQNZlxGPxwunRXkDg3XEsSAWRoPoPtTccIHFYzvluC45lGe2S-o622fqkge9k58IWNe-oEc2DUQY1DcVCiYP0bLbyd8hhPh6tyaXHnFme6RuRtyjn0FUYXdwXwpWX4NWEpbNOKG76t733S0F85xvFTa2xmvxOt0imeY1kEk59gsQnXxyPXZ1zwxTa4S7V6VyPWpWThxcpLo7-hM-h7DIwIGTlC0Njbg9KYlZqlG62qzgoFm3]--></g></svg>