<?xml version="1.0" encoding="us-ascii" standalone="no"?><svg xmlns="http://www.w3.org/2000/svg" xmlns:xlink="http://www.w3.org/1999/xlink" contentStyleType="text/css" height="499px" preserveAspectRatio="none" style="width:852px;height:499px;" version="1.1" viewBox="0 0 852 499" width="852px" zoomAndPan="magnify"><defs/><g><!--cluster Foundation--><g id="cluster_Foundation"><path d="M366.5,6 L448.5,6 A3.75,3.75 0 0 1 451,8.5 L458,28.4883 L509.5,28.4883 A2.5,2.5 0 0 1 512,30.9883 L512,102.5 A2.5,2.5 0 0 1 509.5,105 L366.5,105 A2.5,2.5 0 0 1 364,102.5 L364,8.5 A2.5,2.5 0 0 1 366.5,6 " fill="none" style="stroke:#000000;stroke-width:1.5;"/><line style="stroke:#000000;stroke-width:1.5;" x1="364" x2="458" y1="28.4883" y2="28.4883"/><text fill="#000000" font-family="sans-serif" font-size="14" font-weight="bold" lengthAdjust="spacing" textLength="81" x="368" y="21.5352">Foundation</text></g><!--cluster Modules--><g id="cluster_Modules"><path d="M583.5,6 L645.5,6 A3.75,3.75 0 0 1 648,8.5 L655,28.4883 L810.5,28.4883 A2.5,2.5 0 0 1 813,30.9883 L813,102.5 A2.5,2.5 0 0 1 810.5,105 L583.5,105 A2.5,2.5 0 0 1 581,102.5 L581,8.5 A2.5,2.5 0 0 1 583.5,6 " fill="none" style="stroke:#000000;stroke-width:1.5;"/><line style="stroke:#000000;stroke-width:1.5;" x1="581" x2="655" y1="28.4883" y2="28.4883"/><text fill="#000000" font-family="sans-serif" font-size="14" font-weight="bold" lengthAdjust="spacing" textLength="61" x="585" y="21.5352">Modules</text></g><!--cluster Values--><g id="cluster_Values"><path d="M668.5,356.97 L717.5,356.97 A3.75,3.75 0 0 1 720,359.47 L727,379.4583 L842.5,379.4583 A2.5,2.5 0 0 1 845,381.9583 L845,453.47 A2.5,2.5 0 0 1 842.5,455.97 L668.5,455.97 A2.5,2.5 0 0 1 666,453.47 L666,359.47 A2.5,2.5 0 0 1 668.5,356.97 " fill="none" style="stroke:#000000;stroke-width:1.5;"/><line style="stroke:#000000;stroke-width:1.5;" x1="666" x2="727" y1="379.4583" y2="379.4583"/><text fill="#000000" font-family="sans-serif" font-size="14" font-weight="bold" lengthAdjust="spacing" textLength="48" x="670" y="372.5052">Values</text></g><!--cluster SequenceTypes--><g id="cluster_SequenceTypes"><path d="M8.5,170 L118.5,170 A3.75,3.75 0 0 1 121,172.5 L128,192.4883 L623.5,192.4883 A2.5,2.5 0 0 1 626,194.9883 L626,490.45 A2.5,2.5 0 0 1 623.5,492.95 L8.5,492.95 A2.5,2.5 0 0 1 6,490.45 L6,172.5 A2.5,2.5 0 0 1 8.5,170 " fill="none" style="stroke:#000000;stroke-width:1.5;"/><line style="stroke:#000000;stroke-width:1.5;" x1="6" x2="128" y1="192.4883" y2="192.4883"/><text fill="#000000" font-family="sans-serif" font-size="14" font-weight="bold" lengthAdjust="spacing" textLength="109" x="10" y="185.5352">SequenceTypes</text></g><!--class Type--><g id="elem_Type"><rect codeLine="8" fill="#F1F1F1" height="32" id="Type" rx="2.5" ry="2.5" style="stroke:#181818;stroke-width:0.5;" width="65" x="422.5" y="49"/><ellipse cx="437.5" cy="65" fill="#A9DCDF" rx="11" ry="11" style="stroke:#181818;stroke-width:1.0;"/><path d="M437.3633,60.3481 L436.2095,65.4199 L438.5254,65.4199 Z M435.8691,58.1069 L438.8657,58.1069 L442.2109,70.5 L439.7622,70.5 L438.9985,67.437 L435.7197,67.437 L434.9727,70.5 L432.5239,70.5 Z " fill="#000000"/><text fill="#000000" font-family="sans-serif" font-size="14" font-style="italic" lengthAdjust="spacing" textLength="33" x="451.5" y="70.291">Type</text></g><!--class ModuleDefinition--><g id="elem_ModuleDefinition"><rect codeLine="13" fill="#F1F1F1" height="32" id="ModuleDefinition" rx="2.5" ry="2.5" style="stroke:#181818;stroke-width:0.5;" width="150" x="639" y="49"/><ellipse cx="654" cy="65" fill="#A9DCDF" rx="11" ry="11" style="stroke:#181818;stroke-width:1.0;"/><path d="M653.8633,60.3481 L652.7095,65.4199 L655.0254,65.4199 Z M652.3691,58.1069 L655.3657,58.1069 L658.7109,70.5 L656.2622,70.5 L655.4985,67.437 L652.2197,67.437 L651.4727,70.5 L649.0239,70.5 Z " fill="#000000"/><text fill="#000000" font-family="sans-serif" font-size="14" font-style="italic" lengthAdjust="spacing" textLength="118" x="668" y="70.291">ModuleDefinition</text></g><!--class Unsigned--><g id="elem_Unsigned"><rect codeLine="18" fill="#F1F1F1" height="32" id="Unsigned" rx="2.5" ry="2.5" style="stroke:#181818;stroke-width:0.5;" width="97" x="724.5" y="399.97"/><ellipse cx="739.5" cy="415.97" fill="#ADD1B2" rx="11" ry="11" style="stroke:#181818;stroke-width:1.0;"/><path d="M741.9731,422.1131 Q741.3921,422.4119 740.7529,422.5613 Q740.1138,422.7107 739.4082,422.7107 Q736.9014,422.7107 735.5815,421.0589 Q734.2617,419.407 734.2617,416.2859 Q734.2617,413.1565 735.5815,411.5047 Q736.9014,409.8528 739.4082,409.8528 Q740.1138,409.8528 740.7612,410.0022 Q741.4087,410.1516 741.9731,410.4505 L741.9731,413.1731 Q741.3423,412.5921 740.7488,412.3223 Q740.1553,412.0525 739.5244,412.0525 Q738.1797,412.0525 737.4949,413.1192 Q736.8101,414.1858 736.8101,416.2859 Q736.8101,418.3777 737.4949,419.4444 Q738.1797,420.511 739.5244,420.511 Q740.1553,420.511 740.7488,420.2412 Q741.3423,419.9715 741.9731,419.3904 Z " fill="#000000"/><text fill="#000000" font-family="sans-serif" font-size="14" lengthAdjust="spacing" textLength="65" x="753.5" y="421.261">Unsigned</text></g><!--class Cardinality--><g id="elem_Cardinality"><rect codeLine="22" fill="#F1F1F1" height="105.9531" id="Cardinality" rx="2.5" ry="2.5" style="stroke:#181818;stroke-width:0.5;" width="288" x="280" y="363"/><ellipse cx="382.75" cy="379" fill="#ADD1B2" rx="11" ry="11" style="stroke:#181818;stroke-width:1.0;"/><path d="M385.2231,385.1431 Q384.6421,385.4419 384.0029,385.5913 Q383.3638,385.7407 382.6582,385.7407 Q380.1514,385.7407 378.8315,384.0889 Q377.5117,382.437 377.5117,379.3159 Q377.5117,376.1865 378.8315,374.5347 Q380.1514,372.8828 382.6582,372.8828 Q383.3638,372.8828 384.0112,373.0322 Q384.6587,373.1816 385.2231,373.4805 L385.2231,376.2031 Q384.5923,375.6221 383.9988,375.3523 Q383.4053,375.0825 382.7744,375.0825 Q381.4297,375.0825 380.7449,376.1492 Q380.0601,377.2158 380.0601,379.3159 Q380.0601,381.4077 380.7449,382.4744 Q381.4297,383.541 382.7744,383.541 Q383.4053,383.541 383.9988,383.2712 Q384.5923,383.0015 385.2231,382.4204 Z " fill="#000000"/><text fill="#000000" font-family="sans-serif" font-size="14" lengthAdjust="spacing" textLength="74" x="403.25" y="384.291">Cardinality</text><line style="stroke:#181818;stroke-width:0.5;" x1="281" x2="567" y1="395" y2="395"/><ellipse cx="291" cy="408.7441" fill="none" rx="3" ry="3" style="stroke:#038048;stroke-width:1.0;"/><text fill="#000000" font-family="sans-serif" font-size="14" lengthAdjust="spacing" textLength="223" x="300" y="412.5352">ordering: Ordering = Unordered</text><ellipse cx="291" cy="425.2324" fill="none" rx="3" ry="3" style="stroke:#038048;stroke-width:1.0;"/><text fill="#000000" font-family="sans-serif" font-size="14" lengthAdjust="spacing" textLength="262" x="300" y="429.0234">uniqueness: Uniqueness = Nonunique</text><ellipse cx="291" cy="441.7207" fill="none" rx="3" ry="3" style="stroke:#038048;stroke-width:1.0;"/><text fill="#000000" font-family="sans-serif" font-size="14" lengthAdjust="spacing" textLength="150" x="300" y="445.5117">min_length: Unsigned</text><ellipse cx="291" cy="458.209" fill="none" rx="3" ry="3" style="stroke:#038048;stroke-width:1.0;"/><text fill="#000000" font-family="sans-serif" font-size="14" lengthAdjust="spacing" textLength="184" x="300" y="462">max_length: 0..1 Unsigned</text></g><!--class g_Sequence--><g id="elem_g_Sequence"><rect codeLine="29" fill="#F1F1F1" height="56.4883" id="g_Sequence" rx="2.5" ry="2.5" style="stroke:#181818;stroke-width:0.5;" width="226" x="342" y="221.24"/><ellipse cx="357" cy="237.24" fill="#ADD1B2" rx="11" ry="11" style="stroke:#181818;stroke-width:1.0;"/><path d="M359.4731,243.3831 Q358.8921,243.6819 358.2529,243.8313 Q357.6138,243.9807 356.9082,243.9807 Q354.4014,243.9807 353.0815,242.3289 Q351.7617,240.677 351.7617,237.5559 Q351.7617,234.4265 353.0815,232.7747 Q354.4014,231.1228 356.9082,231.1228 Q357.6138,231.1228 358.2612,231.2722 Q358.9087,231.4216 359.4731,231.7205 L359.4731,234.4431 Q358.8423,233.8621 358.2488,233.5923 Q357.6553,233.3225 357.0244,233.3225 Q355.6797,233.3225 354.9949,234.3892 Q354.3101,235.4558 354.3101,237.5559 Q354.3101,239.6477 354.9949,240.7144 Q355.6797,241.781 357.0244,241.781 Q357.6553,241.781 358.2488,241.5112 Q358.8423,241.2415 359.4731,240.6604 Z " fill="#000000"/><text fill="#000000" font-family="sans-serif" font-size="14" lengthAdjust="spacing" textLength="99" x="371" y="242.531">SequenceType</text><rect fill="none" height="16.1328" style="stroke:#181818;stroke-width:1.0;stroke-dasharray:2.0,2.0;" width="93" x="478" y="218.24"/><text fill="#000000" font-family="sans-serif" font-size="12" font-style="italic" lengthAdjust="spacing" textLength="91" x="479" y="230.8416">T extends Type</text><line style="stroke:#181818;stroke-width:0.5;" x1="343" x2="567" y1="253.24" y2="253.24"/><ellipse cx="353" cy="266.9841" fill="none" rx="3" ry="3" style="stroke:#038048;stroke-width:1.0;"/><text fill="#000000" font-family="sans-serif" font-size="14" lengthAdjust="spacing" textLength="88" x="362" y="270.7752">values: 0..* T</text></g><!--class Ordering--><g id="elem_Ordering"><rect codeLine="33" fill="#F1F1F1" height="72.9766" id="Ordering" rx="2.5" ry="2.5" style="stroke:#181818;stroke-width:0.5;" width="100" x="192" y="213"/><ellipse cx="209.7" cy="229" fill="#EB937F" rx="11" ry="11" style="stroke:#181818;stroke-width:1.0;"/><path d="M213.3143,235.5 L205.5945,235.5 L205.5945,223.1069 L213.3143,223.1069 L213.3143,225.2651 L208.0433,225.2651 L208.0433,227.938 L212.8162,227.938 L212.8162,230.0962 L208.0433,230.0962 L208.0433,233.3418 L213.3143,233.3418 Z " fill="#000000"/><text fill="#000000" font-family="sans-serif" font-size="14" lengthAdjust="spacing" textLength="62" x="224.3" y="234.291">Ordering</text><line style="stroke:#181818;stroke-width:0.5;" x1="193" x2="291" y1="245" y2="245"/><ellipse cx="203" cy="258.7441" fill="none" rx="3" ry="3" style="stroke:#038048;stroke-width:1.0;"/><text fill="#000000" font-family="sans-serif" font-size="14" lengthAdjust="spacing" textLength="74" x="212" y="262.5352">Unordered</text><ellipse cx="203" cy="275.2324" fill="none" rx="3" ry="3" style="stroke:#038048;stroke-width:1.0;"/><text fill="#000000" font-family="sans-serif" font-size="14" lengthAdjust="spacing" textLength="57" x="212" y="279.0234">Ordered</text></g><!--class Uniqueness--><g id="elem_Uniqueness"><rect codeLine="38" fill="#F1F1F1" height="72.9766" id="Uniqueness" rx="2.5" ry="2.5" style="stroke:#181818;stroke-width:0.5;" width="112" x="30" y="213"/><ellipse cx="45" cy="229" fill="#EB937F" rx="11" ry="11" style="stroke:#181818;stroke-width:1.0;"/><path d="M48.6143,235.5 L40.8945,235.5 L40.8945,223.1069 L48.6143,223.1069 L48.6143,225.2651 L43.3433,225.2651 L43.3433,227.938 L48.1162,227.938 L48.1162,230.0962 L43.3433,230.0962 L43.3433,233.3418 L48.6143,233.3418 Z " fill="#000000"/><text fill="#000000" font-family="sans-serif" font-size="14" lengthAdjust="spacing" textLength="80" x="59" y="234.291">Uniqueness</text><line style="stroke:#181818;stroke-width:0.5;" x1="31" x2="141" y1="245" y2="245"/><ellipse cx="41" cy="258.7441" fill="none" rx="3" ry="3" style="stroke:#038048;stroke-width:1.0;"/><text fill="#000000" font-family="sans-serif" font-size="14" lengthAdjust="spacing" textLength="49" x="50" y="262.5352">Unique</text><ellipse cx="41" cy="275.2324" fill="none" rx="3" ry="3" style="stroke:#038048;stroke-width:1.0;"/><text fill="#000000" font-family="sans-serif" font-size="14" lengthAdjust="spacing" textLength="76" x="50" y="279.0234">Nonunique</text></g><!--reverse link Type to g_Sequence--><g id="link_Type_g_Sequence"><path codeLine="43" d="M438.8343,98.4708 C429.5443,129.2208 433.77,181.85 441.1,220.85 " fill="none" id="Type-backto-g_Sequence" style="stroke:#181818;stroke-width:1.0;"/><polygon fill="none" points="444.04,81.24,433.0907,96.7356,444.5779,100.206,444.04,81.24" style="stroke:#181818;stroke-width:1.0;"/></g><!--reverse link Type to g_Sequence--><g id="link_Type_g_Sequence"><path codeLine="44" d="M467.6952,86.9836 C476.9852,117.7336 476.23,181.85 468.9,220.85 " fill="none" id="Type-backto-g_Sequence-1" style="stroke:#181818;stroke-width:1.0;stroke-dasharray:7.0,7.0;"/><polygon fill="#181818" points="465.96,81.24,464.7338,91.0122,467.406,86.0263,472.3919,88.6986,465.96,81.24" style="stroke:#181818;stroke-width:1.0;"/></g><!--reverse link ModuleDefinition to g_Sequence--><g id="link_ModuleDefinition_g_Sequence"><path codeLine="45" d="M677.2174,91.6045 C653.8474,107.8745 635,121 635,121 C635,121 587,129 587,129 C587,129 524.61,185.47 485.62,220.77 " fill="none" id="ModuleDefinition-backto-g_Sequence" style="stroke:#181818;stroke-width:1.0;"/><polygon fill="none" points="691.99,81.32,673.7893,86.6803,680.6456,96.5287,691.99,81.32" style="stroke:#181818;stroke-width:1.0;"/></g><!--link g_Sequence to Cardinality--><g id="link_g_Sequence_Cardinality"><path codeLine="46" d="M447.5886,289.8126 C443.2486,312.8526 440.2613,328.7038 434.9613,356.8238 " fill="none" id="g_Sequence-Cardinality" style="stroke:#181818;stroke-width:1.0;"/><polygon fill="#181818" points="449.81,278.02,444.7685,283.1759,447.5886,289.8126,452.6302,284.6568,449.81,278.02" style="stroke:#181818;stroke-width:1.0;"/><polygon fill="#181818" points="433.85,362.72,439.4477,354.6166,434.7761,357.8065,431.5862,353.1349,433.85,362.72" style="stroke:#181818;stroke-width:1.0;"/><text fill="#000000" font-family="sans-serif" font-size="13" lengthAdjust="spacing" textLength="76" x="354.4192" y="337.0074">+cardinality</text><text fill="#000000" font-family="sans-serif" font-size="13" lengthAdjust="spacing" textLength="8" x="422.4192" y="352.318">1</text></g><!--reverse link Foundation to SequenceTypes--><g id="link_Foundation_SequenceTypes"><path codeLine="49" d="M396.1866,110.3396 C396.3926,110.7175 394.0347,106.3935 394.2364,106.7634 C394.6398,107.5031 395.034,108.226 395.4174,108.929 C396.1841,110.335 396.9074,111.6614 397.5741,112.8839 C400.2406,117.7738 402,121 402,121 C402,121 529,146 529,146 C529,146 588,154 588,154 C588,154 589.8169,159.7225 592.5564,168.3509 C592.642,168.6206 592.7285,168.8931 592.8159,169.1683 C592.8596,169.3059 592.9035,169.4442 592.9476,169.5832 " fill="none" id="Foundation-backto-SequenceTypes" style="stroke:#181818;stroke-width:1.0;stroke-dasharray:7.0,7.0;"/><polygon fill="#181818" points="393.314,105.0719,394.1111,114.8885,395.7078,109.4616,401.1346,111.0583,393.314,105.0719" style="stroke:#181818;stroke-width:1.0;"/><text fill="#000000" font-family="sans-serif" font-size="13" lengthAdjust="spacing" textLength="56" x="530" y="142.5684">&#171;import&#187;</text></g><!--reverse link Modules to SequenceTypes--><g id="link_Modules_SequenceTypes"><path codeLine="50" d="M596.1898,111.2281 C596.3754,112.3958 595.7605,108.5269 595.9511,109.7262 C596.7135,114.5235 597.5146,119.5638 598.3413,124.7661 C599.9948,135.1706 601.7512,146.2231 603.5075,157.275 C603.9466,160.038 604.3856,162.8009 604.823,165.5537 C605.0418,166.93 605.2601,168.3039 605.4778,169.6739 " fill="none" id="Modules-backto-SequenceTypes" style="stroke:#181818;stroke-width:1.0;stroke-dasharray:7.0,7.0;"/><polygon fill="#181818" points="595.248,105.3025,592.7103,114.8188,596.0328,110.2405,600.6111,113.5631,595.248,105.3025" style="stroke:#181818;stroke-width:1.0;"/><text fill="#000000" font-family="sans-serif" font-size="13" lengthAdjust="spacing" textLength="56" x="601" y="142.5684">&#171;import&#187;</text></g><!--link SequenceTypes to Values--><g id="link_SequenceTypes_Values"><path codeLine="51" d="M626.0643,274.1709 C626.1414,274.3974 626.2189,274.625 626.2968,274.8539 C626.6085,275.7695 626.9269,276.7046 627.2514,277.6578 C632.4441,292.91 639.2281,312.8363 646.0113,332.76 C652.7944,352.6838 659.5766,372.605 664.7655,387.8472 C665.0898,388.7998 665.4079,389.7342 665.7193,390.6491 C665.7972,390.8779 663.9411,385.4255 664.0181,385.6518 " fill="none" id="SequenceTypes-to-Values" style="stroke:#181818;stroke-width:1.0;stroke-dasharray:7.0,7.0;"/><polygon fill="#181818" points="665.9517,391.3317,666.8379,381.5228,664.3404,386.5984,659.2647,384.1009,665.9517,391.3317" style="stroke:#181818;stroke-width:1.0;"/><text fill="#000000" font-family="sans-serif" font-size="13" lengthAdjust="spacing" textLength="56" x="647" y="329.5384">&#171;import&#187;</text></g><!--SRC=[ZLCzRy8m4DtpAquPGKGmT8be5gfkBKCfKoLauckmICwfxRGWod-ldGJYHBIgXyI-z-xTXyzwBwXaYXMmPUa-Kx8Ylf2vL60K8sqX91FeAoiNXEPO8fGoFxg3Xv7agB64kscm4noXGBEJN0T1QQLPXl3er9aHak0KW5qjhTYYqhM1RRMDcnf8SwOrh5oaqpauTnfFabSvwdyADEm7V1SachWziJNBgz-r6ebNqY8Zv0FN5_oea59qALuK6eS5KrmGouKvjdQtnb9nL8Ao69Rj3kwjU6r6tl4g4auPjOujVDbRxhEa1kkuXQ1DZfIPNNpDqqFPuOfEesZMfvphhvTtw9SqNm4U319lBY49WMd8DXUANzXdtSGwn0XMGssagkWgzjnkbBxq34C9hnKzaNv3-Zsor-L-NjgJgfny9tL9GoYgokWsqZeDPsb86qsu_A990k4uxKRWJSr2VoJS3FLdfmdSlOqOvdDHb5AP9Bb9RP_0NpoNYMMkswlfY3y0]--></g></svg>