<?xml version="1.0" encoding="us-ascii" standalone="no"?><svg xmlns="http://www.w3.org/2000/svg" xmlns:xlink="http://www.w3.org/1999/xlink" contentStyleType="text/css" height="818px" preserveAspectRatio="none" style="width:1140px;height:818px;" version="1.1" viewBox="0 0 1140 818" width="1140px" zoomAndPan="magnify"><defs/><g><!--cluster Foundation--><g id="cluster_Foundation"><path d="M24.5,6 L106.5,6 A3.75,3.75 0 0 1 109,8.5 L116,28.4883 L722.5,28.4883 A2.5,2.5 0 0 1 725,30.9883 L725,102.5 A2.5,2.5 0 0 1 722.5,105 L24.5,105 A2.5,2.5 0 0 1 22,102.5 L22,8.5 A2.5,2.5 0 0 1 24.5,6 " fill="none" style="stroke:#000000;stroke-width:1.5;"/><line style="stroke:#000000;stroke-width:1.5;" x1="22" x2="116" y1="28.4883" y2="28.4883"/><text fill="#000000" font-family="sans-serif" font-size="14" font-weight="bold" lengthAdjust="spacing" textLength="81" x="26" y="21.5352">Foundation</text></g><!--cluster Modules--><g id="cluster_Modules"><path d="M845.5,6 L907.5,6 A3.75,3.75 0 0 1 910,8.5 L917,28.4883 L1072.5,28.4883 A2.5,2.5 0 0 1 1075,30.9883 L1075,102.5 A2.5,2.5 0 0 1 1072.5,105 L845.5,105 A2.5,2.5 0 0 1 843,102.5 L843,8.5 A2.5,2.5 0 0 1 845.5,6 " fill="none" style="stroke:#000000;stroke-width:1.5;"/><line style="stroke:#000000;stroke-width:1.5;" x1="843" x2="917" y1="28.4883" y2="28.4883"/><text fill="#000000" font-family="sans-serif" font-size="14" font-weight="bold" lengthAdjust="spacing" textLength="61" x="847" y="21.5352">Modules</text></g><!--cluster Constraints--><g id="cluster_Constraints"><path d="M895.5,518 L980.5,518 A3.75,3.75 0 0 1 983,520.5 L990,540.4883 L1130.5,540.4883 A2.5,2.5 0 0 1 1133,542.9883 L1133,697.5 A2.5,2.5 0 0 1 1130.5,700 L895.5,700 A2.5,2.5 0 0 1 893,697.5 L893,520.5 A2.5,2.5 0 0 1 895.5,518 " fill="none" style="stroke:#000000;stroke-width:1.5;"/><line style="stroke:#000000;stroke-width:1.5;" x1="893" x2="990" y1="540.4883" y2="540.4883"/><text fill="#000000" font-family="sans-serif" font-size="14" font-weight="bold" lengthAdjust="spacing" textLength="84" x="897" y="533.5352">Constraints</text></g><!--cluster Sentences--><g id="cluster_Sentences"><path d="M927.5,569 L999.5,569 A3.75,3.75 0 0 1 1002,571.5 L1009,591.4883 L1098.5,591.4883 A2.5,2.5 0 0 1 1101,593.9883 L1101,665.5 A2.5,2.5 0 0 1 1098.5,668 L927.5,668 A2.5,2.5 0 0 1 925,665.5 L925,571.5 A2.5,2.5 0 0 1 927.5,569 " fill="none" style="stroke:#000000;stroke-width:1.5;"/><line style="stroke:#000000;stroke-width:1.5;" x1="925" x2="1009" y1="591.4883" y2="591.4883"/><text fill="#000000" font-family="sans-serif" font-size="14" font-weight="bold" lengthAdjust="spacing" textLength="71" x="929" y="584.5352">Sentences</text></g><!--cluster TypeClasses--><g id="cluster_TypeClasses"><path d="M337.5,170 L428.5,170 A3.75,3.75 0 0 1 431,172.5 L438,192.4883 L854.5,192.4883 A2.5,2.5 0 0 1 857,194.9883 L857,808.5 A2.5,2.5 0 0 1 854.5,811 L337.5,811 A2.5,2.5 0 0 1 335,808.5 L335,172.5 A2.5,2.5 0 0 1 337.5,170 " fill="none" style="stroke:#000000;stroke-width:1.5;"/><line style="stroke:#000000;stroke-width:1.5;" x1="335" x2="438" y1="192.4883" y2="192.4883"/><text fill="#000000" font-family="sans-serif" font-size="14" font-weight="bold" lengthAdjust="spacing" textLength="90" x="339" y="185.5352">TypeClasses</text></g><!--class Definition--><g id="elem_Definition"><rect codeLine="8" fill="#F1F1F1" height="32" id="Definition" rx="2.5" ry="2.5" style="stroke:#181818;stroke-width:0.5;" width="99" x="299.5" y="49"/><ellipse cx="314.5" cy="65" fill="#A9DCDF" rx="11" ry="11" style="stroke:#181818;stroke-width:1.0;"/><path d="M314.3633,60.3481 L313.2095,65.4199 L315.5254,65.4199 Z M312.8691,58.1069 L315.8657,58.1069 L319.2109,70.5 L316.7622,70.5 L315.9985,67.437 L312.7197,67.437 L311.9727,70.5 L309.5239,70.5 Z " fill="#000000"/><text fill="#000000" font-family="sans-serif" font-size="14" font-style="italic" lengthAdjust="spacing" textLength="67" x="328.5" y="70.291">Definition</text></g><!--class Named--><g id="elem_Named"><rect codeLine="9" fill="#F1F1F1" height="32" id="Named" rx="2.5" ry="2.5" style="stroke:#181818;stroke-width:0.5;" width="80" x="170" y="49"/><ellipse cx="185" cy="65" fill="#A9DCDF" rx="11" ry="11" style="stroke:#181818;stroke-width:1.0;"/><path d="M184.8633,60.3481 L183.7095,65.4199 L186.0254,65.4199 Z M183.3691,58.1069 L186.3657,58.1069 L189.7109,70.5 L187.2622,70.5 L186.4985,67.437 L183.2197,67.437 L182.4727,70.5 L180.0239,70.5 Z " fill="#000000"/><text fill="#000000" font-family="sans-serif" font-size="14" font-style="italic" lengthAdjust="spacing" textLength="48" x="199" y="70.291">Named</text></g><!--class g_Namespace--><g id="elem_g_Namespace"><rect codeLine="10" fill="#F1F1F1" height="32" id="g_Namespace" rx="2.5" ry="2.5" style="stroke:#181818;stroke-width:0.5;" width="218" x="449" y="49"/><ellipse cx="464" cy="65" fill="#A9DCDF" rx="11" ry="11" style="stroke:#181818;stroke-width:1.0;"/><path d="M463.8633,60.3481 L462.7095,65.4199 L465.0254,65.4199 Z M462.3691,58.1069 L465.3657,58.1069 L468.7109,70.5 L466.2622,70.5 L465.4985,67.437 L462.2197,67.437 L461.4727,70.5 L459.0239,70.5 Z " fill="#000000"/><text fill="#000000" font-family="sans-serif" font-size="14" font-style="italic" lengthAdjust="spacing" textLength="78" x="478" y="70.291">Namespace</text><rect fill="none" height="16.1328" style="stroke:#181818;stroke-width:1.0;stroke-dasharray:2.0,2.0;" width="106" x="564" y="46"/><text fill="#000000" font-family="sans-serif" font-size="12" font-style="italic" lengthAdjust="spacing" textLength="104" x="565" y="58.6016">T extends Named</text></g><!--class Typed--><g id="elem_Typed"><rect codeLine="11" fill="#F1F1F1" height="32" id="Typed" rx="2.5" ry="2.5" style="stroke:#181818;stroke-width:0.5;" width="74" x="46" y="49"/><ellipse cx="61" cy="65" fill="#A9DCDF" rx="11" ry="11" style="stroke:#181818;stroke-width:1.0;"/><path d="M60.8633,60.3481 L59.7095,65.4199 L62.0254,65.4199 Z M59.3691,58.1069 L62.3657,58.1069 L65.7109,70.5 L63.2622,70.5 L62.4985,67.437 L59.2197,67.437 L58.4727,70.5 L56.0239,70.5 Z " fill="#000000"/><text fill="#000000" font-family="sans-serif" font-size="14" font-style="italic" lengthAdjust="spacing" textLength="42" x="75" y="70.291">Typed</text></g><!--class ModuleDefinition--><g id="elem_ModuleDefinition"><rect codeLine="16" fill="#F1F1F1" height="32" id="ModuleDefinition" rx="2.5" ry="2.5" style="stroke:#181818;stroke-width:0.5;" width="150" x="901" y="49"/><ellipse cx="916" cy="65" fill="#A9DCDF" rx="11" ry="11" style="stroke:#181818;stroke-width:1.0;"/><path d="M915.8633,60.3481 L914.7095,65.4199 L917.0254,65.4199 Z M914.3691,58.1069 L917.3657,58.1069 L920.7109,70.5 L918.2622,70.5 L917.4985,67.437 L914.2197,67.437 L913.4727,70.5 L911.0239,70.5 Z " fill="#000000"/><text fill="#000000" font-family="sans-serif" font-size="14" font-style="italic" lengthAdjust="spacing" textLength="118" x="930" y="70.291">ModuleDefinition</text></g><!--class Sentence--><g id="elem_Sentence"><rect codeLine="22" fill="#F1F1F1" height="32" id="Sentence" rx="2.5" ry="2.5" style="stroke:#181818;stroke-width:0.5;" width="94" x="983" y="612"/><ellipse cx="998" cy="628" fill="#A9DCDF" rx="11" ry="11" style="stroke:#181818;stroke-width:1.0;"/><path d="M997.8633,623.3481 L996.7095,628.4199 L999.0254,628.4199 Z M996.3691,621.1069 L999.3657,621.1069 L1002.7109,633.5 L1000.2622,633.5 L999.4985,630.437 L996.2197,630.437 L995.4727,633.5 L993.0239,633.5 Z " fill="#000000"/><text fill="#000000" font-family="sans-serif" font-size="14" font-style="italic" lengthAdjust="spacing" textLength="62" x="1012" y="633.291">Sentence</text></g><!--class TypeClass--><g id="elem_TypeClass"><rect codeLine="27" fill="#F1F1F1" height="40" id="TypeClass" rx="2.5" ry="2.5" style="stroke:#181818;stroke-width:0.5;" width="166" x="388" y="431"/><ellipse cx="403" cy="447" fill="#ADD1B2" rx="11" ry="11" style="stroke:#181818;stroke-width:1.0;"/><path d="M405.4731,453.1431 Q404.8921,453.4419 404.2529,453.5913 Q403.6138,453.7407 402.9082,453.7407 Q400.4014,453.7407 399.0815,452.0889 Q397.7617,450.437 397.7617,447.3159 Q397.7617,444.1865 399.0815,442.5347 Q400.4014,440.8828 402.9082,440.8828 Q403.6138,440.8828 404.2612,441.0322 Q404.9087,441.1816 405.4731,441.4805 L405.4731,444.2031 Q404.8423,443.6221 404.2488,443.3523 Q403.6553,443.0825 403.0244,443.0825 Q401.6797,443.0825 400.9949,444.1492 Q400.3101,445.2158 400.3101,447.3159 Q400.3101,449.4077 400.9949,450.4744 Q401.6797,451.541 403.0244,451.541 Q403.6553,451.541 404.2488,451.2712 Q404.8423,451.0015 405.4731,450.4204 Z " fill="#000000"/><text fill="#000000" font-family="sans-serif" font-size="14" lengthAdjust="spacing" textLength="69" x="417" y="452.291">TypeClass</text><rect fill="none" height="16.1328" style="stroke:#181818;stroke-width:1.0;stroke-dasharray:2.0,2.0;" width="63" x="494" y="428"/><text fill="#000000" font-family="sans-serif" font-size="12" font-style="italic" lengthAdjust="spacing" textLength="61" x="495" y="440.6016">T=Method</text><line style="stroke:#181818;stroke-width:0.5;" x1="389" x2="553" y1="463" y2="463"/></g><!--class TypeVariable--><g id="elem_TypeVariable"><rect codeLine="28" fill="#F1F1F1" height="40" id="TypeVariable" rx="2.5" ry="2.5" style="stroke:#181818;stroke-width:0.5;" width="121" x="547.5" y="213"/><ellipse cx="562.5" cy="229" fill="#ADD1B2" rx="11" ry="11" style="stroke:#181818;stroke-width:1.0;"/><path d="M564.9731,235.1431 Q564.3921,235.4419 563.7529,235.5913 Q563.1138,235.7407 562.4082,235.7407 Q559.9014,235.7407 558.5815,234.0889 Q557.2617,232.437 557.2617,229.3159 Q557.2617,226.1865 558.5815,224.5347 Q559.9014,222.8828 562.4082,222.8828 Q563.1138,222.8828 563.7612,223.0322 Q564.4087,223.1816 564.9731,223.4805 L564.9731,226.2031 Q564.3423,225.6221 563.7488,225.3523 Q563.1553,225.0825 562.5244,225.0825 Q561.1797,225.0825 560.4949,226.1492 Q559.8101,227.2158 559.8101,229.3159 Q559.8101,231.4077 560.4949,232.4744 Q561.1797,233.541 562.5244,233.541 Q563.1553,233.541 563.7488,233.2712 Q564.3423,233.0015 564.9731,232.4204 Z " fill="#000000"/><text fill="#000000" font-family="sans-serif" font-size="14" lengthAdjust="spacing" textLength="89" x="576.5" y="234.291">TypeVariable</text><line style="stroke:#181818;stroke-width:0.5;" x1="548.5" x2="667.5" y1="245" y2="245"/></g><!--class TypeClassReference--><g id="elem_TypeClassReference"><rect codeLine="29" fill="#F1F1F1" height="40" id="TypeClassReference" rx="2.5" ry="2.5" style="stroke:#181818;stroke-width:0.5;" width="169" x="602.5" y="314"/><ellipse cx="617.5" cy="330" fill="#ADD1B2" rx="11" ry="11" style="stroke:#181818;stroke-width:1.0;"/><path d="M619.9731,336.1431 Q619.3921,336.4419 618.7529,336.5913 Q618.1138,336.7407 617.4082,336.7407 Q614.9014,336.7407 613.5815,335.0889 Q612.2617,333.437 612.2617,330.3159 Q612.2617,327.1865 613.5815,325.5347 Q614.9014,323.8828 617.4082,323.8828 Q618.1138,323.8828 618.7612,324.0322 Q619.4087,324.1816 619.9731,324.4805 L619.9731,327.2031 Q619.3423,326.6221 618.7488,326.3523 Q618.1553,326.0825 617.5244,326.0825 Q616.1797,326.0825 615.4949,327.1492 Q614.8101,328.2158 614.8101,330.3159 Q614.8101,332.4077 615.4949,333.4744 Q616.1797,334.541 617.5244,334.541 Q618.1553,334.541 618.7488,334.2712 Q619.3423,334.0015 619.9731,333.4204 Z " fill="#000000"/><text fill="#000000" font-family="sans-serif" font-size="14" lengthAdjust="spacing" textLength="137" x="631.5" y="335.291">TypeClassReference</text><line style="stroke:#181818;stroke-width:0.5;" x1="603.5" x2="770.5" y1="346" y2="346"/></g><!--class ReferenceArgument--><g id="elem_ReferenceArgument"><rect codeLine="30" fill="#F1F1F1" height="40" id="ReferenceArgument" rx="2.5" ry="2.5" style="stroke:#181818;stroke-width:0.5;" width="169" x="604.5" y="431"/><ellipse cx="619.5" cy="447" fill="#ADD1B2" rx="11" ry="11" style="stroke:#181818;stroke-width:1.0;"/><path d="M621.9731,453.1431 Q621.3921,453.4419 620.7529,453.5913 Q620.1138,453.7407 619.4082,453.7407 Q616.9014,453.7407 615.5815,452.0889 Q614.2617,450.437 614.2617,447.3159 Q614.2617,444.1865 615.5815,442.5347 Q616.9014,440.8828 619.4082,440.8828 Q620.1138,440.8828 620.7612,441.0322 Q621.4087,441.1816 621.9731,441.4805 L621.9731,444.2031 Q621.3423,443.6221 620.7488,443.3523 Q620.1553,443.0825 619.5244,443.0825 Q618.1797,443.0825 617.4949,444.1492 Q616.8101,445.2158 616.8101,447.3159 Q616.8101,449.4077 617.4949,450.4744 Q618.1797,451.541 619.5244,451.541 Q620.1553,451.541 620.7488,451.2712 Q621.3423,451.0015 621.9731,450.4204 Z " fill="#000000"/><text fill="#000000" font-family="sans-serif" font-size="14" lengthAdjust="spacing" textLength="137" x="633.5" y="452.291">ReferenceArgument</text><line style="stroke:#181818;stroke-width:0.5;" x1="605.5" x2="772.5" y1="463" y2="463"/></g><!--class ReferenceWildcard--><g id="elem_ReferenceWildcard"><rect codeLine="31" fill="#F1F1F1" height="40" id="ReferenceWildcard" rx="2.5" ry="2.5" style="stroke:#181818;stroke-width:0.5;" width="159" x="493.5" y="608"/><ellipse cx="508.5" cy="624" fill="#ADD1B2" rx="11" ry="11" style="stroke:#181818;stroke-width:1.0;"/><path d="M510.9731,630.1431 Q510.3921,630.4419 509.7529,630.5913 Q509.1138,630.7407 508.4082,630.7407 Q505.9014,630.7407 504.5815,629.0889 Q503.2617,627.437 503.2617,624.3159 Q503.2617,621.1865 504.5815,619.5347 Q505.9014,617.8828 508.4082,617.8828 Q509.1138,617.8828 509.7612,618.0322 Q510.4087,618.1816 510.9731,618.4805 L510.9731,621.2031 Q510.3423,620.6221 509.7488,620.3523 Q509.1553,620.0825 508.5244,620.0825 Q507.1797,620.0825 506.4949,621.1492 Q505.8101,622.2158 505.8101,624.3159 Q505.8101,626.4077 506.4949,627.4744 Q507.1797,628.541 508.5244,628.541 Q509.1553,628.541 509.7488,628.2712 Q510.3423,628.0015 510.9731,627.4204 Z " fill="#000000"/><text fill="#000000" font-family="sans-serif" font-size="14" lengthAdjust="spacing" textLength="127" x="522.5" y="629.291">ReferenceWildcard</text><line style="stroke:#181818;stroke-width:0.5;" x1="494.5" x2="651.5" y1="640" y2="640"/></g><!--class ReferenceList--><g id="elem_ReferenceList"><rect codeLine="32" fill="#F1F1F1" height="40" id="ReferenceList" rx="2.5" ry="2.5" style="stroke:#181818;stroke-width:0.5;" width="123" x="702.5" y="608"/><ellipse cx="717.5" cy="624" fill="#ADD1B2" rx="11" ry="11" style="stroke:#181818;stroke-width:1.0;"/><path d="M719.9731,630.1431 Q719.3921,630.4419 718.7529,630.5913 Q718.1138,630.7407 717.4082,630.7407 Q714.9014,630.7407 713.5815,629.0889 Q712.2617,627.437 712.2617,624.3159 Q712.2617,621.1865 713.5815,619.5347 Q714.9014,617.8828 717.4082,617.8828 Q718.1138,617.8828 718.7612,618.0322 Q719.4087,618.1816 719.9731,618.4805 L719.9731,621.2031 Q719.3423,620.6221 718.7488,620.3523 Q718.1553,620.0825 717.5244,620.0825 Q716.1797,620.0825 715.4949,621.1492 Q714.8101,622.2158 714.8101,624.3159 Q714.8101,626.4077 715.4949,627.4744 Q716.1797,628.541 717.5244,628.541 Q718.1553,628.541 718.7488,628.2712 Q719.3423,628.0015 719.9731,627.4204 Z " fill="#000000"/><text fill="#000000" font-family="sans-serif" font-size="14" lengthAdjust="spacing" textLength="91" x="731.5" y="629.291">ReferenceList</text><line style="stroke:#181818;stroke-width:0.5;" x1="703.5" x2="824.5" y1="640" y2="640"/></g><!--class Method--><g id="elem_Method"><rect codeLine="33" fill="#F1F1F1" height="40" id="Method" rx="2.5" ry="2.5" style="stroke:#181818;stroke-width:0.5;" width="84" x="359" y="608"/><ellipse cx="374" cy="624" fill="#ADD1B2" rx="11" ry="11" style="stroke:#181818;stroke-width:1.0;"/><path d="M376.4731,630.1431 Q375.8921,630.4419 375.2529,630.5913 Q374.6138,630.7407 373.9082,630.7407 Q371.4014,630.7407 370.0815,629.0889 Q368.7617,627.437 368.7617,624.3159 Q368.7617,621.1865 370.0815,619.5347 Q371.4014,617.8828 373.9082,617.8828 Q374.6138,617.8828 375.2612,618.0322 Q375.9087,618.1816 376.4731,618.4805 L376.4731,621.2031 Q375.8423,620.6221 375.2488,620.3523 Q374.6553,620.0825 374.0244,620.0825 Q372.6797,620.0825 371.9949,621.1492 Q371.3101,622.2158 371.3101,624.3159 Q371.3101,626.4077 371.9949,627.4744 Q372.6797,628.541 374.0244,628.541 Q374.6553,628.541 375.2488,628.2712 Q375.8423,628.0015 376.4731,627.4204 Z " fill="#000000"/><text fill="#000000" font-family="sans-serif" font-size="14" lengthAdjust="spacing" textLength="52" x="388" y="629.291">Method</text><line style="stroke:#181818;stroke-width:0.5;" x1="360" x2="442" y1="640" y2="640"/></g><!--class Parameter--><g id="elem_Parameter"><rect codeLine="34" fill="#F1F1F1" height="40" id="Parameter" rx="2.5" ry="2.5" style="stroke:#181818;stroke-width:0.5;" width="102" x="359" y="747"/><ellipse cx="374" cy="763" fill="#ADD1B2" rx="11" ry="11" style="stroke:#181818;stroke-width:1.0;"/><path d="M376.4731,769.1431 Q375.8921,769.4419 375.2529,769.5913 Q374.6138,769.7407 373.9082,769.7407 Q371.4014,769.7407 370.0815,768.0889 Q368.7617,766.437 368.7617,763.3159 Q368.7617,760.1865 370.0815,758.5347 Q371.4014,756.8828 373.9082,756.8828 Q374.6138,756.8828 375.2612,757.0322 Q375.9087,757.1816 376.4731,757.4805 L376.4731,760.2031 Q375.8423,759.6221 375.2488,759.3523 Q374.6553,759.0825 374.0244,759.0825 Q372.6797,759.0825 371.9949,760.1492 Q371.3101,761.2158 371.3101,763.3159 Q371.3101,765.4077 371.9949,766.4744 Q372.6797,767.541 374.0244,767.541 Q374.6553,767.541 375.2488,767.2712 Q375.8423,767.0015 376.4731,766.4204 Z " fill="#000000"/><text fill="#000000" font-family="sans-serif" font-size="14" lengthAdjust="spacing" textLength="70" x="388" y="768.291">Parameter</text><line style="stroke:#181818;stroke-width:0.5;" x1="360" x2="460" y1="779" y2="779"/></g><!--reverse link g_Namespace to TypeClass--><g id="link_g_Namespace_TypeClass"><path codeLine="36" d="M544.9164,97.9906 C534.6064,123.2006 522,154 522,154 C522,154 485.69,364.73 474.35,430.58 " fill="none" id="g_Namespace-backto-TypeClass" style="stroke:#181818;stroke-width:1.0;"/><polygon fill="none" points="551.73,81.33,539.3629,95.7194,550.4699,100.2618,551.73,81.33" style="stroke:#181818;stroke-width:1.0;"/></g><!--link TypeClass to Method--><g id="link_TypeClass_Method"><path codeLine="37" d="M450.93,471.4 C428.9,505.04 402.2468,567.8829 397.3268,601.5829 " fill="none" id="TypeClass-to-Method" style="stroke:#181818;stroke-width:1.0;stroke-dasharray:7.0,7.0;"/><polygon fill="#181818" points="396.46,607.52,401.7182,599.1923,397.1823,602.5724,393.8021,598.0366,396.46,607.52" style="stroke:#181818;stroke-width:1.0;"/></g><!--link TypeClass to Method--><g id="link_TypeClass_Method"><path codeLine="40" d="M473.8272,483.2757 C468.9472,516.9157 446.4541,568.7985 424.4141,602.4985 " fill="none" id="TypeClass-Method" style="stroke:#181818;stroke-width:1.0;"/><polygon fill="#181818" points="475.55,471.4,470.7301,476.7636,473.8272,483.2757,478.6472,477.9121,475.55,471.4" style="stroke:#181818;stroke-width:1.0;"/><polygon fill="#181818" points="421.13,607.52,429.4037,602.1772,423.8667,603.3355,422.7085,597.7985,421.13,607.52" style="stroke:#181818;stroke-width:1.0;"/><text fill="#000000" font-family="sans-serif" font-size="13" lengthAdjust="spacing" textLength="65" x="353.2694" y="581.9554">+methods</text><text fill="#000000" font-family="sans-serif" font-size="13" lengthAdjust="spacing" textLength="22" x="396.2694" y="597.266">0..*</text></g><!--reverse link ModuleDefinition to TypeClass--><g id="link_ModuleDefinition_TypeClass"><path codeLine="38" d="M958.3016,96.9239 C932.7516,141.5839 869,253 869,253 C869,253 796,354 796,354 C796,354 631.73,402.52 536.77,430.57 " fill="none" id="ModuleDefinition-backto-TypeClass" style="stroke:#181818;stroke-width:1.0;"/><polygon fill="none" points="967.24,81.3,953.0936,93.9444,963.5095,99.9033,967.24,81.3" style="stroke:#181818;stroke-width:1.0;"/></g><!--link TypeVariable to TypeClass--><g id="link_TypeVariable_TypeClass"><path codeLine="39" d="M593.3903,258.6412 C567.2703,302.7012 509,401 509,401 C509,401 503.9953,407.4585 493.3753,421.1485 " fill="none" id="TypeVariable-TypeClass" style="stroke:#181818;stroke-width:1.0;"/><polygon fill="#181818" points="596.45,253.48,588.4196,259.182,593.9002,257.781,595.3012,263.2616,596.45,253.48" style="stroke:#181818;stroke-width:1.0;"/><polygon fill="#181818" points="486.02,430.63,492.8582,428.341,493.3753,421.1485,486.5371,423.4375,486.02,430.63" style="stroke:#181818;stroke-width:1.0;"/><text fill="#000000" font-family="sans-serif" font-size="13" lengthAdjust="spacing" textLength="66" x="521.2616" y="273.4302">+variables</text><text fill="#000000" font-family="sans-serif" font-size="13" lengthAdjust="spacing" textLength="22" x="521.2616" y="288.7407">0..*</text></g><!--reverse link Named to TypeVariable--><g id="link_Named_TypeVariable"><path codeLine="41" d="M241.8515,92.9463 C261.0815,109.2163 275,121 275,121 C275,121 454.11,180.7 549.61,212.54 " fill="none" id="Named-backto-TypeVariable" style="stroke:#181818;stroke-width:1.0;"/><polygon fill="none" points="228.11,81.32,237.9761,97.5268,245.7269,88.3658,228.11,81.32" style="stroke:#181818;stroke-width:1.0;"/></g><!--link TypeVariable to TypeClassReference--><g id="link_TypeVariable_TypeClassReference"><path codeLine="42" d="M630.7145,262.4699 C644.6145,279.8899 653.8367,291.4409 667.8067,308.9409 " fill="none" id="TypeVariable-TypeClassReference" style="stroke:#181818;stroke-width:1.0;"/><polygon fill="#181818" points="623.23,253.09,623.8456,260.2748,630.7145,262.4699,630.0989,255.2851,623.23,253.09" style="stroke:#181818;stroke-width:1.0;"/><polygon fill="#181818" points="671.55,313.63,669.0612,304.1008,668.4306,309.7224,662.809,309.0918,671.55,313.63" style="stroke:#181818;stroke-width:1.0;"/><text fill="#000000" font-family="sans-serif" font-size="13" lengthAdjust="spacing" textLength="82" x="576.4959" y="288.0909">+restrictions</text><text fill="#000000" font-family="sans-serif" font-size="13" lengthAdjust="spacing" textLength="22" x="636.4959" y="303.4014">0..*</text></g><!--link TypeClassReference to TypeClass--><g id="link_TypeClassReference_TypeClass"><path codeLine="44" d="M650.85,354.25 C610.97,375.48 552.4864,406.6207 512.5664,427.8707 " fill="none" id="TypeClassReference-to-TypeClass" style="stroke:#181818;stroke-width:1.0;"/><polygon fill="#181818" points="507.27,430.69,517.0941,429.9919,511.6836,428.3406,513.335,422.9301,507.27,430.69" style="stroke:#181818;stroke-width:1.0;"/><text fill="#000000" font-family="sans-serif" font-size="13" lengthAdjust="spacing" textLength="42" x="469.7556" y="420.1348">+class</text></g><!--link TypeClassReference to ReferenceArgument--><g id="link_TypeClassReference_ReferenceArgument"><path codeLine="45" d="M687.33,354.25 C687.7,375.48 688.1855,403.4409 688.5555,424.6909 " fill="none" id="TypeClassReference-to-ReferenceArgument" style="stroke:#181818;stroke-width:1.0;"/><polygon fill="#181818" points="688.66,430.69,692.5027,421.6217,688.573,425.6908,684.5039,421.761,688.66,430.69" style="stroke:#181818;stroke-width:1.0;"/><text fill="#000000" font-family="sans-serif" font-size="13" lengthAdjust="spacing" textLength="77" x="600.2507" y="420.1348">+arguments</text></g><!--reverse link ReferenceArgument to ReferenceWildcard--><g id="link_ReferenceArgument_ReferenceWildcard"><path codeLine="47" d="M666.1976,486.405 C643.9076,520.045 608.25,573.82 585.91,607.52 " fill="none" id="ReferenceArgument-backto-ReferenceWildcard" style="stroke:#181818;stroke-width:1.0;"/><polygon fill="none" points="676.14,471.4,661.196,483.0909,671.1993,489.7191,676.14,471.4" style="stroke:#181818;stroke-width:1.0;"/></g><!--reverse link ReferenceArgument to ReferenceList--><g id="link_ReferenceArgument_ReferenceList"><path codeLine="48" d="M704.4017,487.9441 C718.8217,521.5841 741.21,573.82 755.65,607.52 " fill="none" id="ReferenceArgument-backto-ReferenceList" style="stroke:#181818;stroke-width:1.0;"/><polygon fill="none" points="697.31,471.4,698.887,490.308,709.9164,485.5802,697.31,471.4" style="stroke:#181818;stroke-width:1.0;"/></g><!--link ReferenceList to TypeClassReference--><g id="link_ReferenceList_TypeClassReference"><path codeLine="49" d="M768.24,607.56 C777.35,565.74 798,471 798,471 C798,471 798,431 798,431 C798,431 746.4386,386.4044 713.9986,358.3544 " fill="none" id="ReferenceList-to-TypeClassReference" style="stroke:#181818;stroke-width:1.0;"/><polygon fill="#181818" points="709.46,354.43,713.6516,363.3424,713.2422,357.7003,718.8842,357.2909,709.46,354.43" style="stroke:#181818;stroke-width:1.0;"/><text fill="#000000" font-family="sans-serif" font-size="13" lengthAdjust="spacing" textLength="56" x="652.3174" y="374.3698">+classes</text><text fill="#000000" font-family="sans-serif" font-size="13" lengthAdjust="spacing" textLength="22" x="686.3174" y="389.6804">1..*</text></g><!--reverse link Definition to Method--><g id="link_Definition_Method"><path codeLine="51" d="M341.6735,98.8887 C332.5135,139.9787 312,232 312,232 C312,232 312,232 312,452 C312,452 367.96,562.04 391.14,607.6 " fill="none" id="Definition-backto-Method" style="stroke:#181818;stroke-width:1.0;"/><polygon fill="none" points="345.59,81.32,335.8172,97.5832,347.5297,100.1943,345.59,81.32" style="stroke:#181818;stroke-width:1.0;"/></g><!--reverse link Typed to Method--><g id="link_Typed_Method"><path codeLine="52" d="M87.9914,99.1192 C94.1814,140.2092 108,232 108,232 C108,232 108,232 108,393.5 C108,393.5 307.05,552.13 377.02,607.89 " fill="none" id="Typed-backto-Method" style="stroke:#181818;stroke-width:1.0;"/><polygon fill="none" points="85.31,81.32,82.0583,100.013,93.9244,98.2254,85.31,81.32" style="stroke:#181818;stroke-width:1.0;"/></g><!--link Method to Sentence--><g id="link_Method_Sentence"><path codeLine="53" d="M418.6808,597.3224 C438.1208,563.5824 469,510 469,510 C469,510 494,490.5 494,490.5 C494,490.5 954,490.5 954,490.5 C954,490.5 979,510 979,510 C979,510 1006.5199,573.6623 1020.5299,606.0823 " fill="none" id="Method-Sentence" style="stroke:#181818;stroke-width:1.0;"/><polygon fill="#181818" points="412.69,607.72,419.1513,604.5181,418.6808,597.3224,412.2195,600.5243,412.69,607.72" style="stroke:#181818;stroke-width:1.0;"/><polygon fill="#181818" points="1022.91,611.59,1023.0116,601.7417,1020.9266,607.0002,1015.668,604.9152,1022.91,611.59" style="stroke:#181818;stroke-width:1.0;"/><text fill="#000000" font-family="sans-serif" font-size="13" lengthAdjust="spacing" textLength="41" x="1025.131" y="555.4089">+body</text><text fill="#000000" font-family="sans-serif" font-size="13" lengthAdjust="spacing" textLength="24" x="1042.131" y="570.7195">0..1</text><text fill="#000000" font-family="sans-serif" font-size="13" lengthAdjust="spacing" textLength="4" x="1062.131" y="586.03">&#160;</text><text fill="#000000" font-family="sans-serif" font-size="13" lengthAdjust="spacing" textLength="4" x="1062.131" y="601.3406">&#160;</text></g><!--reverse link Named to Parameter--><g id="link_Named_Parameter"><path codeLine="55" d="M210,99.32 C210,140.41 210,232 210,232 C210,232 210,232 210,393.5 C210,393.5 334,708 334,708 C334,708 362.58,729.81 384.69,746.69 " fill="none" id="Named-backto-Parameter" style="stroke:#181818;stroke-width:1.0;"/><polygon fill="none" points="210,81.32,204,99.32,216,99.32,210,81.32" style="stroke:#181818;stroke-width:1.0;"/></g><!--reverse link Typed to Parameter--><g id="link_Typed_Parameter"><path codeLine="56" d="M68.3157,97.6488 C49.2557,138.7388 6,232 6,232 C6,232 6,232 6,629 C6,629 250.12,711.78 358.83,748.65 " fill="none" id="Typed-backto-Parameter" style="stroke:#181818;stroke-width:1.0;"/><polygon fill="none" points="75.89,81.32,62.8728,95.1241,73.7587,100.1736,75.89,81.32" style="stroke:#181818;stroke-width:1.0;"/></g><!--link Method to Parameter--><g id="link_Method_Parameter"><path codeLine="57" d="M403.0588,660.314 C404.7788,686.424 406.6249,714.713 408.3449,740.773 " fill="none" id="Method-Parameter" style="stroke:#181818;stroke-width:1.0;"/><polygon fill="#181818" points="402.27,648.34,398.673,654.59,403.0588,660.314,406.6557,654.0641,402.27,648.34" style="stroke:#181818;stroke-width:1.0;"/><polygon fill="#181818" points="408.74,746.76,412.1386,737.5161,408.4107,741.7709,404.156,738.043,408.74,746.76" style="stroke:#181818;stroke-width:1.0;"/><text fill="#000000" font-family="sans-serif" font-size="13" lengthAdjust="spacing" textLength="80" x="318.6829" y="720.8143">+parameters</text><text fill="#000000" font-family="sans-serif" font-size="13" lengthAdjust="spacing" textLength="22" x="376.6829" y="736.1249">0..*</text></g><!--reverse link Foundation to TypeClasses--><g id="link_Foundation_TypeClasses"><path codeLine="60" d="M728.7316,80.8977 C729.4199,81.7718 726.9387,78.6206 727.6875,79.5716 C733.6781,87.1794 741.4875,97.0963 749.2375,106.9375 C764.7375,126.62 780,146 780,146 C780,146 845,154 845,154 C845,154 845.2425,158.7238 845.6081,165.8463 C845.6538,166.7366 845.7015,167.6644 845.7508,168.6251 C845.7631,168.8653 845.7755,169.1075 845.7881,169.3517 C845.7943,169.4739 845.8006,169.5965 845.807,169.7196 " fill="none" id="Foundation-backto-TypeClasses" style="stroke:#181818;stroke-width:1.0;stroke-dasharray:7.0,7.0;"/><polygon fill="#181818" points="725.0198,76.1836,727.4449,85.7292,728.113,80.112,733.7302,80.7801,725.0198,76.1836" style="stroke:#181818;stroke-width:1.0;"/><text fill="#000000" font-family="sans-serif" font-size="13" lengthAdjust="spacing" textLength="56" x="781" y="142.5684">&#171;import&#187;</text></g><!--reverse link Modules to TypeClasses--><g id="link_Modules_TypeClasses"><path codeLine="61" d="M850.4493,111.7774 C850.3966,116.1412 850.4137,114.7265 850.3566,119.4587 C850.2425,128.9231 850.1213,138.9769 850,149.03 C849.9394,154.0566 849.8788,159.083 849.819,164.0355 C849.8041,165.2736 849.7892,166.5071 849.7744,167.7348 C849.767,168.3487 849.7596,168.9611 849.7522,169.572 " fill="none" id="Modules-backto-TypeClasses" style="stroke:#181818;stroke-width:1.0;stroke-dasharray:7.0,7.0;"/><polygon fill="#181818" points="850.5216,105.7778,846.4134,114.7289,850.4613,110.7775,854.4128,114.8254,850.5216,105.7778" style="stroke:#181818;stroke-width:1.0;"/><text fill="#000000" font-family="sans-serif" font-size="13" lengthAdjust="spacing" textLength="56" x="851" y="142.5684">&#171;import&#187;</text></g><!--link TypeClasses to Sentences--><g id="link_TypeClasses_Sentences"><path codeLine="62" d="M857.1347,272.0433 C858.7406,279.5576 860.5421,287.9871 862.5002,297.1489 C870.3322,333.7959 880.6681,382.1581 891.0038,430.5188 C901.3394,478.8794 911.6747,527.2384 919.5055,563.8792 C921.4632,573.0394 922.0104,575.5997 923.6159,583.1121 " fill="none" id="TypeClasses-to-Sentences" style="stroke:#181818;stroke-width:1.0;stroke-dasharray:7.0,7.0;"/><polygon fill="#181818" points="924.8698,588.9796,926.9005,579.3423,923.8248,584.09,919.0772,581.0143,924.8698,588.9796" style="stroke:#181818;stroke-width:1.0;"/><text fill="#000000" font-family="sans-serif" font-size="13" lengthAdjust="spacing" textLength="56" x="885" y="397.5684">&#171;import&#187;</text></g><!--SRC=[bLJBRjim4BphAmWT7KX83hq4he32GKzD4QH6Up5GKE9Q9YAH0acrDThyU_aIzQ0KjBvvPtRsCKl95yewB72BIbozr8BtZ1nummLI0ZEf8M0gaO7LK0RgsW7gU7CrVoOOumGaTEZTRNAX150BwiA9J99EI-CQq4UZZXNb3FrEaFvvMbk2a3Q0IwdhLWfL3POIFS2PCkeINjS8dt4BP0DB3QWdg61_HF1B0IC-eKWHbgZ-7WWR2aSzg5L_7MTuvAHlGFxZ08uz7sCYTk3Cq2bJW-20VD5h1rQ5Ggl5LWeEUSD4it9cdeEX1Lc_gG3iZ-yVhMjkHI4-o8rx-Oe5nMK3CM8Jdk4COjg8mqFuWwZxLlUw0N-Z3Qcm81lm9oeNcQxhUUp9N2Ke42Piu-CyMTzbVuhf3Im8ULvuqVNCfRCBrYxB6ZYhB2jGUlF3xqgUcjiytwMp1KQ9XFzaDis_dvDmIOjkWW6-8NlPCRfpBGZGPq8hqsaGZCrQR6aqqOdOjKxotcPZRx7EY6ntXMAx_ImnVqQtzlyFTUnUUo3ktfpUNvANNnWy1-ttOHhVPOBM5sNBbPnSxQRlJk8aql0oNPNnDYFx8cYbJBYHRY07LqEwUVdJ5v_tdRxfyHjyZ_PxsdPSgA9O8VeFtJRBZgg9uLCrfVu5]--></g></svg>