<?xml version="1.0" encoding="us-ascii" standalone="no"?><svg xmlns="http://www.w3.org/2000/svg" xmlns:xlink="http://www.w3.org/1999/xlink" contentStyleType="text/css" height="570px" preserveAspectRatio="none" style="width:847px;height:570px;" version="1.1" viewBox="0 0 847 570" width="847px" zoomAndPan="magnify"><defs/><g><!--cluster Foundation--><g id="cluster_Foundation"><path d="M8.5,6 L90.5,6 A3.75,3.75 0 0 1 93,8.5 L100,28.4883 L469.5,28.4883 A2.5,2.5 0 0 1 472,30.9883 L472,102.5 A2.5,2.5 0 0 1 469.5,105 L8.5,105 A2.5,2.5 0 0 1 6,102.5 L6,8.5 A2.5,2.5 0 0 1 8.5,6 " fill="none" style="stroke:#000000;stroke-width:1.5;"/><line style="stroke:#000000;stroke-width:1.5;" x1="6" x2="100" y1="28.4883" y2="28.4883"/><text fill="#000000" font-family="sans-serif" font-size="14" font-weight="bold" lengthAdjust="spacing" textLength="81" x="10" y="21.5352">Foundation</text></g><!--cluster Values--><g id="cluster_Values"><path d="M671.5,6 L720.5,6 A3.75,3.75 0 0 1 723,8.5 L730,28.4883 L837.5,28.4883 A2.5,2.5 0 0 1 840,30.9883 L840,102.5 A2.5,2.5 0 0 1 837.5,105 L671.5,105 A2.5,2.5 0 0 1 669,102.5 L669,8.5 A2.5,2.5 0 0 1 671.5,6 " fill="none" style="stroke:#000000;stroke-width:1.5;"/><line style="stroke:#000000;stroke-width:1.5;" x1="669" x2="730" y1="28.4883" y2="28.4883"/><text fill="#000000" font-family="sans-serif" font-size="14" font-weight="bold" lengthAdjust="spacing" textLength="48" x="673" y="21.5352">Values</text></g><!--cluster Constraints--><g id="cluster_Constraints"><path d="M192.5,170 L277.5,170 A3.75,3.75 0 0 1 280,172.5 L287,192.4883 L687.5,192.4883 A2.5,2.5 0 0 1 690,194.9883 L690,560.5 A2.5,2.5 0 0 1 687.5,563 L192.5,563 A2.5,2.5 0 0 1 190,560.5 L190,172.5 A2.5,2.5 0 0 1 192.5,170 " fill="none" style="stroke:#000000;stroke-width:1.5;"/><line style="stroke:#000000;stroke-width:1.5;" x1="190" x2="287" y1="192.4883" y2="192.4883"/><text fill="#000000" font-family="sans-serif" font-size="14" font-weight="bold" lengthAdjust="spacing" textLength="84" x="194" y="185.5352">Constraints</text></g><!--cluster Sentences--><g id="cluster_Sentences"><path d="M526.5,444 L598.5,444 A3.75,3.75 0 0 1 601,446.5 L608,466.4883 L647.5,466.4883 A2.5,2.5 0 0 1 650,468.9883 L650,524.5 A2.5,2.5 0 0 1 647.5,527 L526.5,527 A2.5,2.5 0 0 1 524,524.5 L524,446.5 A2.5,2.5 0 0 1 526.5,444 " fill="none" style="stroke:#000000;stroke-width:1.5;"/><line style="stroke:#000000;stroke-width:1.5;" x1="524" x2="608" y1="466.4883" y2="466.4883"/><text fill="#000000" font-family="sans-serif" font-size="14" font-weight="bold" lengthAdjust="spacing" textLength="71" x="528" y="459.5352">Sentences</text></g><!--cluster Environments--><g id="cluster_Environments"><path d="M224.5,221 L324.5,221 A3.75,3.75 0 0 1 327,223.5 L334,243.4883 L497.5,243.4883 A2.5,2.5 0 0 1 500,245.9883 L500,528.5 A2.5,2.5 0 0 1 497.5,531 L224.5,531 A2.5,2.5 0 0 1 222,528.5 L222,223.5 A2.5,2.5 0 0 1 224.5,221 " fill="none" style="stroke:#000000;stroke-width:1.5;"/><line style="stroke:#000000;stroke-width:1.5;" x1="222" x2="334" y1="243.4883" y2="243.4883"/><text fill="#000000" font-family="sans-serif" font-size="14" font-weight="bold" lengthAdjust="spacing" textLength="99" x="226" y="236.5352">Environments</text></g><!--class Definition--><g id="elem_Definition"><rect codeLine="9" fill="#F1F1F1" height="32" id="Definition" rx="2.5" ry="2.5" style="stroke:#181818;stroke-width:0.5;" width="99" x="304.5" y="49"/><ellipse cx="319.5" cy="65" fill="#A9DCDF" rx="11" ry="11" style="stroke:#181818;stroke-width:1.0;"/><path d="M319.3633,60.3481 L318.2095,65.4199 L320.5254,65.4199 Z M317.8691,58.1069 L320.8657,58.1069 L324.2109,70.5 L321.7622,70.5 L320.9985,67.437 L317.7197,67.437 L316.9727,70.5 L314.5239,70.5 Z " fill="#000000"/><text fill="#000000" font-family="sans-serif" font-size="14" font-style="italic" lengthAdjust="spacing" textLength="67" x="333.5" y="70.291">Definition</text></g><!--class Named--><g id="elem_Named"><rect codeLine="10" fill="#F1F1F1" height="32" id="Named" rx="2.5" ry="2.5" style="stroke:#181818;stroke-width:0.5;" width="80" x="30" y="49"/><ellipse cx="45" cy="65" fill="#A9DCDF" rx="11" ry="11" style="stroke:#181818;stroke-width:1.0;"/><path d="M44.8633,60.3481 L43.7095,65.4199 L46.0254,65.4199 Z M43.3691,58.1069 L46.3657,58.1069 L49.7109,70.5 L47.2622,70.5 L46.4985,67.437 L43.2197,67.437 L42.4727,70.5 L40.0239,70.5 Z " fill="#000000"/><text fill="#000000" font-family="sans-serif" font-size="14" font-style="italic" lengthAdjust="spacing" textLength="48" x="59" y="70.291">Named</text></g><!--class Typed--><g id="elem_Typed"><rect codeLine="11" fill="#F1F1F1" height="32" id="Typed" rx="2.5" ry="2.5" style="stroke:#181818;stroke-width:0.5;" width="74" x="170" y="49"/><ellipse cx="185" cy="65" fill="#A9DCDF" rx="11" ry="11" style="stroke:#181818;stroke-width:1.0;"/><path d="M184.8633,60.3481 L183.7095,65.4199 L186.0254,65.4199 Z M183.3691,58.1069 L186.3657,58.1069 L189.7109,70.5 L187.2622,70.5 L186.4985,67.437 L183.2197,67.437 L182.4727,70.5 L180.0239,70.5 Z " fill="#000000"/><text fill="#000000" font-family="sans-serif" font-size="14" font-style="italic" lengthAdjust="spacing" textLength="42" x="199" y="70.291">Typed</text></g><!--class Valued--><g id="elem_Valued"><rect codeLine="16" fill="#F1F1F1" height="32" id="Valued" rx="2.5" ry="2.5" style="stroke:#181818;stroke-width:0.5;" width="79" x="737.5" y="49"/><ellipse cx="752.5" cy="65" fill="#A9DCDF" rx="11" ry="11" style="stroke:#181818;stroke-width:1.0;"/><path d="M752.3633,60.3481 L751.2095,65.4199 L753.5254,65.4199 Z M750.8691,58.1069 L753.8657,58.1069 L757.2109,70.5 L754.7622,70.5 L753.9985,67.437 L750.7197,67.437 L749.9727,70.5 L747.5239,70.5 Z " fill="#000000"/><text fill="#000000" font-family="sans-serif" font-size="14" font-style="italic" lengthAdjust="spacing" textLength="47" x="766.5" y="70.291">Valued</text></g><!--class Sentence--><g id="elem_Sentence"><rect codeLine="22" fill="#F1F1F1" height="32" id="Sentence" rx="2.5" ry="2.5" style="stroke:#181818;stroke-width:0.5;" width="94" x="540" y="479"/><ellipse cx="555" cy="495" fill="#A9DCDF" rx="11" ry="11" style="stroke:#181818;stroke-width:1.0;"/><path d="M554.8633,490.3481 L553.7095,495.4199 L556.0254,495.4199 Z M553.3691,488.1069 L556.3657,488.1069 L559.7109,500.5 L557.2622,500.5 L556.4985,497.437 L553.2197,497.437 L552.4727,500.5 L550.0239,500.5 Z " fill="#000000"/><text fill="#000000" font-family="sans-serif" font-size="14" font-style="italic" lengthAdjust="spacing" textLength="62" x="569" y="500.291">Sentence</text></g><!--class EnvironmentDefinition--><g id="elem_EnvironmentDefinition"><rect codeLine="25" fill="#F1F1F1" height="40" id="EnvironmentDefinition" rx="2.5" ry="2.5" style="stroke:#181818;stroke-width:0.5;" width="186" x="298" y="256"/><ellipse cx="313" cy="272" fill="#A9DCDF" rx="11" ry="11" style="stroke:#181818;stroke-width:1.0;"/><path d="M312.8633,267.3481 L311.7095,272.4199 L314.0254,272.4199 Z M311.3691,265.1069 L314.3657,265.1069 L317.7109,277.5 L315.2622,277.5 L314.4985,274.437 L311.2197,274.437 L310.4727,277.5 L308.0239,277.5 Z " fill="#000000"/><text fill="#000000" font-family="sans-serif" font-size="14" font-style="italic" lengthAdjust="spacing" textLength="154" x="327" y="277.291">EnvironmentDefinition</text><line style="stroke:#181818;stroke-width:0.5;" x1="299" x2="483" y1="288" y2="288"/></g><!--class Function--><g id="elem_Function"><rect codeLine="28" fill="#F1F1F1" height="40" id="Function" rx="2.5" ry="2.5" style="stroke:#181818;stroke-width:0.5;" width="92" x="238" y="357"/><ellipse cx="253" cy="373" fill="#ADD1B2" rx="11" ry="11" style="stroke:#181818;stroke-width:1.0;"/><path d="M255.4731,379.1431 Q254.8921,379.4419 254.2529,379.5913 Q253.6138,379.7407 252.9082,379.7407 Q250.4014,379.7407 249.0815,378.0889 Q247.7617,376.437 247.7617,373.3159 Q247.7617,370.1865 249.0815,368.5347 Q250.4014,366.8828 252.9082,366.8828 Q253.6138,366.8828 254.2612,367.0322 Q254.9087,367.1816 255.4731,367.4805 L255.4731,370.2031 Q254.8423,369.6221 254.2488,369.3523 Q253.6553,369.0825 253.0244,369.0825 Q251.6797,369.0825 250.9949,370.1492 Q250.3101,371.2158 250.3101,373.3159 Q250.3101,375.4077 250.9949,376.4744 Q251.6797,377.541 253.0244,377.541 Q253.6553,377.541 254.2488,377.2712 Q254.8423,377.0015 255.4731,376.4204 Z " fill="#000000"/><text fill="#000000" font-family="sans-serif" font-size="14" lengthAdjust="spacing" textLength="60" x="267" y="378.291">Function</text><line style="stroke:#181818;stroke-width:0.5;" x1="239" x2="329" y1="389" y2="389"/></g><!--class Parameter--><g id="elem_Parameter"><rect codeLine="33" fill="#F1F1F1" height="40" id="Parameter" rx="2.5" ry="2.5" style="stroke:#181818;stroke-width:0.5;" width="102" x="238" y="475"/><ellipse cx="253" cy="491" fill="#ADD1B2" rx="11" ry="11" style="stroke:#181818;stroke-width:1.0;"/><path d="M255.4731,497.1431 Q254.8921,497.4419 254.2529,497.5913 Q253.6138,497.7407 252.9082,497.7407 Q250.4014,497.7407 249.0815,496.0889 Q247.7617,494.437 247.7617,491.3159 Q247.7617,488.1865 249.0815,486.5347 Q250.4014,484.8828 252.9082,484.8828 Q253.6138,484.8828 254.2612,485.0322 Q254.9087,485.1816 255.4731,485.4805 L255.4731,488.2031 Q254.8423,487.6221 254.2488,487.3523 Q253.6553,487.0825 253.0244,487.0825 Q251.6797,487.0825 250.9949,488.1492 Q250.3101,489.2158 250.3101,491.3159 Q250.3101,493.4077 250.9949,494.4744 Q251.6797,495.541 253.0244,495.541 Q253.6553,495.541 254.2488,495.2712 Q254.8423,495.0015 255.4731,494.4204 Z " fill="#000000"/><text fill="#000000" font-family="sans-serif" font-size="14" lengthAdjust="spacing" textLength="70" x="267" y="496.291">Parameter</text><line style="stroke:#181818;stroke-width:0.5;" x1="239" x2="339" y1="507" y2="507"/></g><!--class Constant--><g id="elem_Constant"><rect codeLine="38" fill="#F1F1F1" height="40" id="Constant" rx="2.5" ry="2.5" style="stroke:#181818;stroke-width:0.5;" width="94" x="390" y="357"/><ellipse cx="405" cy="373" fill="#ADD1B2" rx="11" ry="11" style="stroke:#181818;stroke-width:1.0;"/><path d="M407.4731,379.1431 Q406.8921,379.4419 406.2529,379.5913 Q405.6138,379.7407 404.9082,379.7407 Q402.4014,379.7407 401.0815,378.0889 Q399.7617,376.437 399.7617,373.3159 Q399.7617,370.1865 401.0815,368.5347 Q402.4014,366.8828 404.9082,366.8828 Q405.6138,366.8828 406.2612,367.0322 Q406.9087,367.1816 407.4731,367.4805 L407.4731,370.2031 Q406.8423,369.6221 406.2488,369.3523 Q405.6553,369.0825 405.0244,369.0825 Q403.6797,369.0825 402.9949,370.1492 Q402.3101,371.2158 402.3101,373.3159 Q402.3101,375.4077 402.9949,376.4744 Q403.6797,377.541 405.0244,377.541 Q405.6553,377.541 406.2488,377.2712 Q406.8423,377.0015 407.4731,376.4204 Z " fill="#000000"/><text fill="#000000" font-family="sans-serif" font-size="14" lengthAdjust="spacing" textLength="62" x="419" y="378.291">Constant</text><line style="stroke:#181818;stroke-width:0.5;" x1="391" x2="483" y1="389" y2="389"/></g><!--reverse link Definition to EnvironmentDefinition--><g id="link_Definition_EnvironmentDefinition"><path codeLine="26" d="M359.8603,99.094 C366.4903,136.514 380.31,214.6 387.59,255.75 " fill="none" id="Definition-backto-EnvironmentDefinition" style="stroke:#181818;stroke-width:1.0;"/><polygon fill="none" points="356.72,81.37,353.9523,100.1407,365.7683,98.0472,356.72,81.37" style="stroke:#181818;stroke-width:1.0;"/></g><!--reverse link EnvironmentDefinition to Function--><g id="link_EnvironmentDefinition_Function"><path codeLine="29" d="M356.9078,308.5445 C338.0478,325.9945 323.67,339.3 304.83,356.73 " fill="none" id="EnvironmentDefinition-backto-Function" style="stroke:#181818;stroke-width:1.0;"/><polygon fill="none" points="370.12,296.32,352.833,304.1404,360.9826,312.9485,370.12,296.32" style="stroke:#181818;stroke-width:1.0;"/></g><!--reverse link Typed to Function--><g id="link_Typed_Function"><path codeLine="30" d="M215.1569,98.8397 C227.9569,150.3997 265.04,299.65 279.2,356.67 " fill="none" id="Typed-backto-Function" style="stroke:#181818;stroke-width:1.0;"/><polygon fill="none" points="210.82,81.37,209.3337,100.2854,220.9802,97.3941,210.82,81.37" style="stroke:#181818;stroke-width:1.0;"/></g><!--link Function to Sentence--><g id="link_Function_Sentence"><path codeLine="31" d="M342.0935,393.1111 C407.4435,410.1111 507,436 507,436 C507,436 537.4221,458.0585 561.1221,475.2385 " fill="none" id="Function-Sentence" style="stroke:#181818;stroke-width:1.0;"/><polygon fill="#181818" points="330.48,390.09,335.2797,395.4717,342.0935,393.1111,337.2938,387.7294,330.48,390.09" style="stroke:#181818;stroke-width:1.0;"/><polygon fill="#181818" points="565.98,478.76,561.0408,470.2392,561.9317,475.8254,556.3455,476.7164,565.98,478.76" style="stroke:#181818;stroke-width:1.0;"/><text fill="#000000" font-family="sans-serif" font-size="13" lengthAdjust="spacing" textLength="41" x="515.3785" y="437.4775">+body</text><text fill="#000000" font-family="sans-serif" font-size="13" lengthAdjust="spacing" textLength="4" x="533.8785" y="452.788">&#160;</text><text fill="#000000" font-family="sans-serif" font-size="13" lengthAdjust="spacing" textLength="4" x="533.8785" y="468.0985">&#160;</text></g><!--reverse link Named to Parameter--><g id="link_Named_Parameter"><path codeLine="34" d="M81.7852,97.9692 C105.6552,162.7292 192,397 192,397 C192,397 218,428 218,428 C218,428 247.14,455.09 268.08,474.55 " fill="none" id="Named-backto-Parameter" style="stroke:#181818;stroke-width:1.0;"/><polygon fill="none" points="75.56,81.08,76.1555,100.0443,87.415,95.8942,75.56,81.08" style="stroke:#181818;stroke-width:1.0;"/></g><!--reverse link Typed to Parameter--><g id="link_Typed_Parameter"><path codeLine="35" d="M207,99.42 C207,122.67 207,146 207,146 C207,146 208,397 208,397 C208,397 249.39,446.57 273,474.84 " fill="none" id="Typed-backto-Parameter" style="stroke:#181818;stroke-width:1.0;"/><polygon fill="none" points="207,81.42,201,99.42,213,99.42,207,81.42" style="stroke:#181818;stroke-width:1.0;"/></g><!--link Function to Parameter--><g id="link_Function_Parameter"><path codeLine="36" d="M285.3552,409.4089 C286.2752,430.8189 286.9828,447.0855 287.9028,468.5255 " fill="none" id="Function-Parameter" style="stroke:#181818;stroke-width:1.0;"/><polygon fill="#181818" points="284.84,397.42,281.1013,403.5862,285.3552,409.4089,289.0939,403.2427,284.84,397.42" style="stroke:#181818;stroke-width:1.0;"/><polygon fill="#181818" points="288.16,474.52,291.7705,465.3568,287.9456,469.5246,283.7778,465.6998,288.16,474.52" style="stroke:#181818;stroke-width:1.0;"/><text fill="#000000" font-family="sans-serif" font-size="13" lengthAdjust="spacing" textLength="80" x="198.7157" y="448.9554">+parameters</text><text fill="#000000" font-family="sans-serif" font-size="13" lengthAdjust="spacing" textLength="6" x="272.7157" y="464.266">*</text></g><!--reverse link EnvironmentDefinition to Constant--><g id="link_EnvironmentDefinition_Constant"><path codeLine="39" d="M407.4517,312.4154 C415.5417,329.8354 419.87,339.13 428,356.63 " fill="none" id="EnvironmentDefinition-backto-Constant" style="stroke:#181818;stroke-width:1.0;"/><polygon fill="none" points="399.87,296.09,402.0099,314.9426,412.8935,309.8882,399.87,296.09" style="stroke:#181818;stroke-width:1.0;"/></g><!--reverse link Valued to Constant--><g id="link_Valued_Constant"><path codeLine="40" d="M766.7837,98.6283 C750.6437,150.1983 705,296 705,296 C705,296 561.23,338.92 484.3,361.88 " fill="none" id="Valued-backto-Constant" style="stroke:#181818;stroke-width:1.0;"/><polygon fill="none" points="772.16,81.45,761.0575,96.8362,772.5098,100.4204,772.16,81.45" style="stroke:#181818;stroke-width:1.0;"/></g><!--reverse link Foundation to Constraints--><g id="link_Foundation_Constraints"><path codeLine="43" d="M476.6995,78.1714 C477.4047,78.8475 474.3383,75.9077 475.1176,76.6548 C481.3519,82.6317 489.9097,90.8363 500.0163,100.5256 C510.1228,110.215 521.7781,121.3892 534.2074,133.3055 C540.4221,139.2636 546.8302,145.4072 553.335,151.6435 C556.5874,154.7617 559.864,157.903 563.1526,161.0558 C564.7969,162.6323 566.4442,164.2116 568.093,165.7924 C568.9175,166.5827 569.7422,167.3735 570.5672,168.1644 C570.9797,168.5599 571.3922,168.9554 571.8048,169.3509 C572.0111,169.5486 572.2173,169.7464 572.4236,169.9442 " fill="none" id="Foundation-backto-Constraints" style="stroke:#181818;stroke-width:1.0;stroke-dasharray:7.0,7.0;"/><polygon fill="#181818" points="472.3684,74.0192,476.0969,83.135,475.9777,77.4794,481.6333,77.3602,472.3684,74.0192" style="stroke:#181818;stroke-width:1.0;"/><text fill="#000000" font-family="sans-serif" font-size="13" lengthAdjust="spacing" textLength="56" x="548" y="142.5684">&#171;import&#187;</text></g><!--reverse link Values to Constraints--><g id="link_Values_Constraints"><path codeLine="44" d="M673.423,111.0562 C673.3856,111.5268 673.795,106.3671 673.7581,106.8322 C673.6843,107.7623 673.6114,108.6806 673.5398,109.5832 C673.2534,113.1938 672.9869,116.5547 672.7588,119.4313 C672.3025,125.1844 672,129 672,129 C672,129 672,146 672,146 C672,146 672.6056,153.8125 673.5188,165.5923 C673.5758,166.3286 673.6341,167.0803 673.6935,167.8466 C673.7232,168.2298 673.7532,168.6166 673.7834,169.0069 C673.7986,169.202 673.8138,169.3981 673.829,169.595 " fill="none" id="Values-backto-Constraints" style="stroke:#181818;stroke-width:1.0;stroke-dasharray:7.0,7.0;"/><polygon fill="#181818" points="673.8975,105.075,669.1982,113.7305,673.502,110.0593,677.1732,114.3632,673.8975,105.075" style="stroke:#181818;stroke-width:1.0;"/><text fill="#000000" font-family="sans-serif" font-size="13" lengthAdjust="spacing" textLength="56" x="673" y="142.5684">&#171;import&#187;</text></g><!--SRC=[ZLCzJyCm4DtzAwoCHQcO652LfT0H8O6OiZZnqLfDpfRj84Kb_nqxdsumg3SbT-_UUxgycBD0nJIhQS7Ayr7B1lbULb9JgnaQDmAqnCoeIY3OLW5LichzIp13oS60eW_tGTEndCVcIN2WDTYJv8OGvVJO4UZ1Ip8h9D8BeQv6M5s0Dds35SQPAIqjAsOCVO9FWS8lnAOlh0OU6xmxrvnqY_07gnemDuhsuAlrlKIF46WdZcdovau6MCxSKVw8nhH7BrqFwQvOd_5BQ8arB88HZW2rt6aYz1K7f8rAlxFrQNtD3mF_eS5oJJdtHfQen9_euRlyccxIDAF9NI5vcsEEoNmTidBqwcC65dHeQMcEAaiiekF_JQW9RdAzIPRjjPK-4Wnjw6JktNISDNgCtP26ZeIPspPgcmL_poDDTZjHAwbjbYKHw93tQzWF]--></g></svg>