<?xml version="1.0" encoding="us-ascii" standalone="no"?><svg xmlns="http://www.w3.org/2000/svg" xmlns:xlink="http://www.w3.org/1999/xlink" contentStyleType="text/css" height="565px" preserveAspectRatio="none" style="width:1044px;height:565px;" version="1.1" viewBox="0 0 1044 565" width="1044px" zoomAndPan="magnify"><defs/><g><!--cluster Annotations--><g id="cluster_Annotations"><path d="M349.5,6 L438.5,6 A3.75,3.75 0 0 1 441,8.5 L448,28.4883 L530.5,28.4883 A2.5,2.5 0 0 1 533,30.9883 L533,102.5 A2.5,2.5 0 0 1 530.5,105 L349.5,105 A2.5,2.5 0 0 1 347,102.5 L347,8.5 A2.5,2.5 0 0 1 349.5,6 " fill="none" style="stroke:#000000;stroke-width:1.5;"/><line style="stroke:#000000;stroke-width:1.5;" x1="347" x2="448" y1="28.4883" y2="28.4883"/><text fill="#000000" font-family="sans-serif" font-size="14" font-weight="bold" lengthAdjust="spacing" textLength="88" x="351" y="21.5352">Annotations</text></g><!--cluster Datatypes--><g id="cluster_Datatypes"><path d="M575.5,6 L648.5,6 A3.75,3.75 0 0 1 651,8.5 L658,28.4883 L844.5,28.4883 A2.5,2.5 0 0 1 847,30.9883 L847,102.5 A2.5,2.5 0 0 1 844.5,105 L575.5,105 A2.5,2.5 0 0 1 573,102.5 L573,8.5 A2.5,2.5 0 0 1 575.5,6 " fill="none" style="stroke:#000000;stroke-width:1.5;"/><line style="stroke:#000000;stroke-width:1.5;" x1="573" x2="658" y1="28.4883" y2="28.4883"/><text fill="#000000" font-family="sans-serif" font-size="14" font-weight="bold" lengthAdjust="spacing" textLength="72" x="577" y="21.5352">Datatypes</text></g><!--cluster Constraints--><g id="cluster_Constraints"><path d="M8.5,170 L93.5,170 A3.75,3.75 0 0 1 96,172.5 L103,192.4883 L1034.5,192.4883 A2.5,2.5 0 0 1 1037,194.9883 L1037,555.96 A2.5,2.5 0 0 1 1034.5,558.46 L8.5,558.46 A2.5,2.5 0 0 1 6,555.96 L6,172.5 A2.5,2.5 0 0 1 8.5,170 " fill="none" style="stroke:#000000;stroke-width:1.5;"/><line style="stroke:#000000;stroke-width:1.5;" x1="6" x2="103" y1="192.4883" y2="192.4883"/><text fill="#000000" font-family="sans-serif" font-size="14" font-weight="bold" lengthAdjust="spacing" textLength="84" x="10" y="185.5352">Constraints</text></g><!--cluster Environments--><g id="cluster_Environments"><path d="M599.5,435.46 L699.5,435.46 A3.75,3.75 0 0 1 702,437.96 L709,457.9483 L812.5,457.9483 A2.5,2.5 0 0 1 815,460.4483 L815,523.96 A2.5,2.5 0 0 1 812.5,526.46 L599.5,526.46 A2.5,2.5 0 0 1 597,523.96 L597,437.96 A2.5,2.5 0 0 1 599.5,435.46 " fill="none" style="stroke:#000000;stroke-width:1.5;"/><line style="stroke:#000000;stroke-width:1.5;" x1="597" x2="709" y1="457.9483" y2="457.9483"/><text fill="#000000" font-family="sans-serif" font-size="14" font-weight="bold" lengthAdjust="spacing" textLength="99" x="601" y="450.9952">Environments</text></g><!--cluster Sentences--><g id="cluster_Sentences"><path d="M449.5,439.46 L521.5,439.46 A3.75,3.75 0 0 1 524,441.96 L531,461.9483 L570.5,461.9483 A2.5,2.5 0 0 1 573,464.4483 L573,519.96 A2.5,2.5 0 0 1 570.5,522.46 L449.5,522.46 A2.5,2.5 0 0 1 447,519.96 L447,441.96 A2.5,2.5 0 0 1 449.5,439.46 " fill="none" style="stroke:#000000;stroke-width:1.5;"/><line style="stroke:#000000;stroke-width:1.5;" x1="447" x2="531" y1="461.9483" y2="461.9483"/><text fill="#000000" font-family="sans-serif" font-size="14" font-weight="bold" lengthAdjust="spacing" textLength="71" x="451" y="454.9952">Sentences</text></g><!--class Constraint--><g id="elem_Constraint"><rect codeLine="9" fill="#F1F1F1" height="32" id="Constraint" rx="2.5" ry="2.5" style="stroke:#181818;stroke-width:0.5;" width="104" x="405" y="49"/><ellipse cx="420" cy="65" fill="#A9DCDF" rx="11" ry="11" style="stroke:#181818;stroke-width:1.0;"/><path d="M419.8633,60.3481 L418.7095,65.4199 L421.0254,65.4199 Z M418.3691,58.1069 L421.3657,58.1069 L424.7109,70.5 L422.2622,70.5 L421.4985,67.437 L418.2197,67.437 L417.4727,70.5 L415.0239,70.5 Z " fill="#000000"/><text fill="#000000" font-family="sans-serif" font-size="14" font-style="italic" lengthAdjust="spacing" textLength="72" x="434" y="70.291">Constraint</text></g><!--class LanguageTaggedString--><g id="elem_LanguageTaggedString"><rect codeLine="14" fill="#F1F1F1" height="32" id="LanguageTaggedString" rx="2.5" ry="2.5" style="stroke:#181818;stroke-width:0.5;" width="192" x="631" y="49"/><ellipse cx="646" cy="65" fill="#ADD1B2" rx="11" ry="11" style="stroke:#181818;stroke-width:1.0;"/><path d="M648.4731,71.1431 Q647.8921,71.4419 647.2529,71.5913 Q646.6138,71.7407 645.9082,71.7407 Q643.4014,71.7407 642.0815,70.0889 Q640.7617,68.437 640.7617,65.3159 Q640.7617,62.1865 642.0815,60.5347 Q643.4014,58.8828 645.9082,58.8828 Q646.6138,58.8828 647.2612,59.0322 Q647.9087,59.1816 648.4731,59.4805 L648.4731,62.2031 Q647.8423,61.6221 647.2488,61.3523 Q646.6553,61.0825 646.0244,61.0825 Q644.6797,61.0825 643.9949,62.1492 Q643.3101,63.2158 643.3101,65.3159 Q643.3101,67.4077 643.9949,68.4744 Q644.6797,69.541 646.0244,69.541 Q646.6553,69.541 647.2488,69.2712 Q647.8423,69.0015 648.4731,68.4204 Z " fill="#000000"/><text fill="#000000" font-family="sans-serif" font-size="14" lengthAdjust="spacing" textLength="160" x="660" y="70.291">LanguageTaggedString</text></g><!--class InformalNaturalLanguageConstraint--><g id="elem_InformalNaturalLanguageConstraint"><rect codeLine="29" fill="#F1F1F1" height="40" id="InformalNaturalLanguageConstraint" rx="2.5" ry="2.5" style="stroke:#181818;stroke-width:0.5;" width="279" x="733.5" y="221.24"/><ellipse cx="748.5" cy="237.24" fill="#ADD1B2" rx="11" ry="11" style="stroke:#181818;stroke-width:1.0;"/><path d="M750.9731,243.3831 Q750.3921,243.6819 749.7529,243.8313 Q749.1138,243.9807 748.4082,243.9807 Q745.9014,243.9807 744.5815,242.3289 Q743.2617,240.677 743.2617,237.5559 Q743.2617,234.4265 744.5815,232.7747 Q745.9014,231.1228 748.4082,231.1228 Q749.1138,231.1228 749.7612,231.2722 Q750.4087,231.4216 750.9731,231.7205 L750.9731,234.4431 Q750.3423,233.8621 749.7488,233.5923 Q749.1553,233.3225 748.5244,233.3225 Q747.1797,233.3225 746.4949,234.3892 Q745.8101,235.4558 745.8101,237.5559 Q745.8101,239.6477 746.4949,240.7144 Q747.1797,241.781 748.5244,241.781 Q749.1553,241.781 749.7488,241.5112 Q750.3423,241.2415 750.9731,240.6604 Z " fill="#000000"/><text fill="#000000" font-family="sans-serif" font-size="14" lengthAdjust="spacing" textLength="247" x="762.5" y="242.531">InformalNaturalLanguageConstraint</text><line style="stroke:#181818;stroke-width:0.5;" x1="734.5" x2="1011.5" y1="253.24" y2="253.24"/></g><!--class ConstraintLanguageTag--><g id="elem_ConstraintLanguageTag"><rect codeLine="33" fill="#F1F1F1" height="72.9766" id="ConstraintLanguageTag" rx="2.5" ry="2.5" style="stroke:#181818;stroke-width:0.5;" width="246" x="208" y="320.48"/><ellipse cx="245.05" cy="336.48" fill="#ADD1B2" rx="11" ry="11" style="stroke:#181818;stroke-width:1.0;"/><path d="M247.5231,342.6231 Q246.9421,342.9219 246.3029,343.0713 Q245.6638,343.2207 244.9582,343.2207 Q242.4514,343.2207 241.1315,341.5689 Q239.8117,339.917 239.8117,336.7959 Q239.8117,333.6665 241.1315,332.0147 Q242.4514,330.3628 244.9582,330.3628 Q245.6638,330.3628 246.3112,330.5122 Q246.9587,330.6616 247.5231,330.9605 L247.5231,333.6831 Q246.8923,333.1021 246.2988,332.8323 Q245.7053,332.5625 245.0744,332.5625 Q243.7297,332.5625 243.0449,333.6292 Q242.3601,334.6958 242.3601,336.7959 Q242.3601,338.8877 243.0449,339.9544 Q243.7297,341.021 245.0744,341.021 Q245.7053,341.021 246.2988,340.7512 Q246.8923,340.4815 247.5231,339.9004 Z " fill="#000000"/><text fill="#000000" font-family="sans-serif" font-size="14" lengthAdjust="spacing" textLength="165" x="263.95" y="341.771">ConstraintLanguageTag</text><line style="stroke:#181818;stroke-width:0.5;" x1="209" x2="453" y1="352.48" y2="352.48"/><ellipse cx="219" cy="366.2241" fill="none" rx="3" ry="3" style="stroke:#038048;stroke-width:1.0;"/><text fill="#000000" font-family="sans-serif" font-size="14" lengthAdjust="spacing" textLength="199" x="228" y="370.0152">natural_language: 0..1 String</text><ellipse cx="219" cy="382.7124" fill="none" rx="3" ry="3" style="stroke:#038048;stroke-width:1.0;"/><text fill="#000000" font-family="sans-serif" font-size="14" lengthAdjust="spacing" textLength="220" x="228" y="386.5034">controlled_language: 0..1 String</text></g><!--class InformalControlledLanguageConstraint--><g id="elem_InformalControlledLanguageConstraint"><rect codeLine="37" fill="#F1F1F1" height="56.4883" id="InformalControlledLanguageConstraint" rx="2.5" ry="2.5" style="stroke:#181818;stroke-width:0.5;" width="302" x="180" y="213"/><ellipse cx="195" cy="229" fill="#ADD1B2" rx="11" ry="11" style="stroke:#181818;stroke-width:1.0;"/><path d="M197.4731,235.1431 Q196.8921,235.4419 196.2529,235.5913 Q195.6138,235.7407 194.9082,235.7407 Q192.4014,235.7407 191.0815,234.0889 Q189.7617,232.437 189.7617,229.3159 Q189.7617,226.1865 191.0815,224.5347 Q192.4014,222.8828 194.9082,222.8828 Q195.6138,222.8828 196.2612,223.0322 Q196.9087,223.1816 197.4731,223.4805 L197.4731,226.2031 Q196.8423,225.6221 196.2488,225.3523 Q195.6553,225.0825 195.0244,225.0825 Q193.6797,225.0825 192.9949,226.1492 Q192.3101,227.2158 192.3101,229.3159 Q192.3101,231.4077 192.9949,232.4744 Q193.6797,233.541 195.0244,233.541 Q195.6553,233.541 196.2488,233.2712 Q196.8423,233.0015 197.4731,232.4204 Z " fill="#000000"/><text fill="#000000" font-family="sans-serif" font-size="14" lengthAdjust="spacing" textLength="270" x="209" y="234.291">InformalControlledLanguageConstraint</text><line style="stroke:#181818;stroke-width:0.5;" x1="181" x2="481" y1="245" y2="245"/><ellipse cx="191" cy="258.7441" fill="none" rx="3" ry="3" style="stroke:#038048;stroke-width:1.0;"/><text fill="#000000" font-family="sans-serif" font-size="14" lengthAdjust="spacing" textLength="76" x="200" y="262.5352">text: String</text></g><!--class FormalConstraint--><g id="elem_FormalConstraint"><rect codeLine="43" fill="#F1F1F1" height="40" id="FormalConstraint" rx="2.5" ry="2.5" style="stroke:#181818;stroke-width:0.5;" width="152" x="532" y="221.24"/><ellipse cx="547" cy="237.24" fill="#ADD1B2" rx="11" ry="11" style="stroke:#181818;stroke-width:1.0;"/><path d="M549.4731,243.3831 Q548.8921,243.6819 548.2529,243.8313 Q547.6138,243.9807 546.9082,243.9807 Q544.4014,243.9807 543.0815,242.3289 Q541.7617,240.677 541.7617,237.5559 Q541.7617,234.4265 543.0815,232.7747 Q544.4014,231.1228 546.9082,231.1228 Q547.6138,231.1228 548.2612,231.2722 Q548.9087,231.4216 549.4731,231.7205 L549.4731,234.4431 Q548.8423,233.8621 548.2488,233.5923 Q547.6553,233.3225 547.0244,233.3225 Q545.6797,233.3225 544.9949,234.3892 Q544.3101,235.4558 544.3101,237.5559 Q544.3101,239.6477 544.9949,240.7144 Q545.6797,241.781 547.0244,241.781 Q547.6553,241.781 548.2488,241.5112 Q548.8423,241.2415 549.4731,240.6604 Z " fill="#000000"/><text fill="#000000" font-family="sans-serif" font-size="14" lengthAdjust="spacing" textLength="120" x="561" y="242.531">FormalConstraint</text><line style="stroke:#181818;stroke-width:0.5;" x1="533" x2="683" y1="253.24" y2="253.24"/></g><!--class EnvironmentDefinition--><g id="elem_EnvironmentDefinition"><rect codeLine="19" fill="#F1F1F1" height="40" id="EnvironmentDefinition" rx="2.5" ry="2.5" style="stroke:#181818;stroke-width:0.5;" width="186" x="613" y="470.46"/><ellipse cx="628" cy="486.46" fill="#A9DCDF" rx="11" ry="11" style="stroke:#181818;stroke-width:1.0;"/><path d="M627.8633,481.8081 L626.7095,486.8799 L629.0254,486.8799 Z M626.3691,479.5669 L629.3657,479.5669 L632.7109,491.96 L630.2622,491.96 L629.4985,488.897 L626.2197,488.897 L625.4727,491.96 L623.0239,491.96 Z " fill="#000000"/><text fill="#000000" font-family="sans-serif" font-size="14" font-style="italic" lengthAdjust="spacing" textLength="154" x="642" y="491.751">EnvironmentDefinition</text><line style="stroke:#181818;stroke-width:0.5;" x1="614" x2="798" y1="502.46" y2="502.46"/></g><!--class Sentence--><g id="elem_Sentence"><rect codeLine="23" fill="#F1F1F1" height="32" id="Sentence" rx="2.5" ry="2.5" style="stroke:#181818;stroke-width:0.5;" width="94" x="463" y="474.46"/><ellipse cx="478" cy="490.46" fill="#A9DCDF" rx="11" ry="11" style="stroke:#181818;stroke-width:1.0;"/><path d="M477.8633,485.8081 L476.7095,490.8799 L479.0254,490.8799 Z M476.3691,483.5669 L479.3657,483.5669 L482.7109,495.96 L480.2622,495.96 L479.4985,492.897 L476.2197,492.897 L475.4727,495.96 L473.0239,495.96 Z " fill="#000000"/><text fill="#000000" font-family="sans-serif" font-size="14" font-style="italic" lengthAdjust="spacing" textLength="62" x="492" y="495.751">Sentence</text></g><path d="M66.5,214.75 L113.5,214.75 A3.75,3.75 0 0 1 116,217.25 L123,237.2383 L127.5,237.2383 A2.5,2.5 0 0 1 130,239.7383 L130,265.2266 A2.5,2.5 0 0 1 127.5,267.7266 L66.5,267.7266 A2.5,2.5 0 0 1 64,265.2266 L64,217.25 A2.5,2.5 0 0 1 66.5,214.75 " fill="none" style="stroke:#181818;stroke-width:0.5;"/><line style="stroke:#181818;stroke-width:0.5;" x1="64" x2="123" y1="237.2383" y2="237.2383"/><text fill="#000000" font-family="sans-serif" font-size="14" font-weight="bold" lengthAdjust="spacing" textLength="46" x="68" y="230.2852">Terms</text><!--reverse link Constraint to InformalNaturalLanguageConstraint--><g id="link_Constraint_InformalNaturalLanguageConstraint"><path codeLine="30" d="M502.1613,89.876 C532.9213,106.146 561,121 561,121 C561,121 640,129 640,129 C640,129 709,154 709,154 C709,154 787.84,195.46 836.2,220.88 " fill="none" id="Constraint-backto-InformalNaturalLanguageConstraint" style="stroke:#181818;stroke-width:1.0;"/><polygon fill="none" points="486.25,81.46,499.356,95.1798,504.9667,84.5723,486.25,81.46" style="stroke:#181818;stroke-width:1.0;"/></g><!--link LanguageTaggedString to InformalNaturalLanguageConstraint--><g id="link_LanguageTaggedString_InformalNaturalLanguageConstraint"><path codeLine="31" d="M743.814,86.0585 C770.474,117.8685 819.8424,176.8026 849.0724,211.6826 " fill="none" id="LanguageTaggedString-InformalNaturalLanguageConstraint" style="stroke:#181818;stroke-width:1.0;"/><polygon fill="#181818" points="739.96,81.46,742.6754,90.9271,743.1717,85.2921,748.8067,85.7884,739.96,81.46" style="stroke:#181818;stroke-width:1.0;"/><polygon fill="#181818" points="856.78,220.88,855.992,213.7121,849.0724,211.6826,849.8604,218.8505,856.78,220.88" style="stroke:#181818;stroke-width:1.0;"/><text fill="#000000" font-family="sans-serif" font-size="13" lengthAdjust="spacing" textLength="4" x="734.9101" y="101.3753">&#160;</text><text fill="#000000" font-family="sans-serif" font-size="13" lengthAdjust="spacing" textLength="35" x="703.9101" y="116.6858">+text</text></g><!--reverse link Constraint to InformalControlledLanguageConstraint--><g id="link_Constraint_InformalControlledLanguageConstraint"><path codeLine="40" d="M435.2718,96.0454 C413.9518,125.5254 377.77,175.56 350.96,212.63 " fill="none" id="Constraint-backto-InformalControlledLanguageConstraint" style="stroke:#181818;stroke-width:1.0;"/><polygon fill="none" points="445.82,81.46,430.41,92.5294,440.1336,99.5615,445.82,81.46" style="stroke:#181818;stroke-width:1.0;"/></g><!--link InformalControlledLanguageConstraint to ConstraintLanguageTag--><g id="link_InformalControlledLanguageConstraint_ConstraintLanguageTag"><path codeLine="41" d="M331,281.77 C331,296.89 331,297.82 331,314.09 " fill="none" id="InformalControlledLanguageConstraint-ConstraintLanguageTag" style="stroke:#181818;stroke-width:1.0;"/><polygon fill="#181818" points="331,269.77,327,275.77,331,281.77,335,275.77,331,269.77" style="stroke:#181818;stroke-width:1.0;"/><polygon fill="#181818" points="331,320.09,335,311.09,331,315.09,327,311.09,331,320.09" style="stroke:#181818;stroke-width:1.0;"/><text fill="#000000" font-family="sans-serif" font-size="13" lengthAdjust="spacing" textLength="67" x="258.0328" y="309.7811">+language</text></g><!--reverse link Constraint to FormalConstraint--><g id="link_Constraint_FormalConstraint"><path codeLine="44" d="M476.5052,96.5986 C491.3252,119.8486 508,146 508,146 C508,146 558.54,193.63 587.76,221.17 " fill="none" id="Constraint-backto-FormalConstraint" style="stroke:#181818;stroke-width:1.0;"/><polygon fill="none" points="466.83,81.42,471.4456,99.8237,481.5647,93.3736,466.83,81.42" style="stroke:#181818;stroke-width:1.0;"/></g><!--link FormalConstraint to Sentence--><g id="link_FormalConstraint_Sentence"><path codeLine="45" d="M595.8881,272.7956 C577.0281,320.3756 535.4009,425.3822 518.3209,468.4722 " fill="none" id="FormalConstraint-Sentence" style="stroke:#181818;stroke-width:1.0;"/><polygon fill="#181818" points="600.31,261.64,594.3805,265.7438,595.8881,272.7956,601.8176,268.6918,600.31,261.64" style="stroke:#181818;stroke-width:1.0;"/><polygon fill="#181818" points="516.11,474.05,523.1449,467.1573,517.9524,469.4018,515.7079,464.2094,516.11,474.05" style="stroke:#181818;stroke-width:1.0;"/><text fill="#000000" font-family="sans-serif" font-size="13" lengthAdjust="spacing" textLength="93" x="610.7402" y="281.7482">+in_constraint</text><text fill="#000000" font-family="sans-serif" font-size="13" lengthAdjust="spacing" textLength="66" x="524.6653" y="433.2087">+sentence</text><text fill="#000000" font-family="sans-serif" font-size="13" lengthAdjust="spacing" textLength="4" x="555.6653" y="448.5192">&#160;</text><text fill="#000000" font-family="sans-serif" font-size="13" lengthAdjust="spacing" textLength="4" x="555.6653" y="463.8298">&#160;</text></g><!--link FormalConstraint to EnvironmentDefinition--><g id="link_FormalConstraint_EnvironmentDefinition"><path codeLine="46" d="M620.1125,272.7953 C638.4325,319.0053 677.8481,418.4526 696.1381,464.5726 " fill="none" id="FormalConstraint-EnvironmentDefinition" style="stroke:#181818;stroke-width:1.0;"/><polygon fill="#181818" points="615.69,261.64,614.1828,268.6918,620.1125,272.7953,621.6197,265.7435,615.69,261.64" style="stroke:#181818;stroke-width:1.0;"/><polygon fill="#181818" points="698.35,470.15,698.7505,460.3093,696.5068,465.5021,691.3139,463.2584,698.35,470.15" style="stroke:#181818;stroke-width:1.0;"/><text fill="#000000" font-family="sans-serif" font-size="13" lengthAdjust="spacing" textLength="93" x="512.2598" y="281.7482">+in_constraint</text><text fill="#000000" font-family="sans-serif" font-size="13" lengthAdjust="spacing" textLength="89" x="601.0386" y="413.6398">+environment</text><text fill="#000000" font-family="sans-serif" font-size="13" lengthAdjust="spacing" textLength="6" x="684.0386" y="428.9504">*</text><text fill="#000000" font-family="sans-serif" font-size="13" lengthAdjust="spacing" textLength="4" x="686.0386" y="444.2609">&#160;</text><text fill="#000000" font-family="sans-serif" font-size="13" lengthAdjust="spacing" textLength="4" x="686.0386" y="459.5715">&#160;</text></g><!--reverse link Annotations to Constraints--><g id="link_Annotations_Constraints"><path codeLine="48" d="M341.0208,69.9481 C339.2724,70.4428 342.4142,69.5539 340.2069,70.1784 C331.3779,72.6767 319.0264,76.1718 304.3391,80.328 C274.9644,88.6403 236.2463,99.5969 197.6775,110.5113 C120.54,132.34 44,154 44,154 C44,154 42.1831,159.2231 39.4436,167.0986 C39.2724,167.5908 39.0975,168.0934 38.9193,168.6057 C38.8302,168.8619 38.7403,169.1204 38.6495,169.3814 C38.6041,169.5119 38.5585,169.6429 38.5127,169.7746 " fill="none" id="Annotations-backto-Constraints" style="stroke:#181818;stroke-width:1.0;stroke-dasharray:7.0,7.0;"/><polygon fill="#181818" points="346.7941,68.3145,337.0451,66.916,341.983,69.6758,339.2231,74.6138,346.7941,68.3145" style="stroke:#181818;stroke-width:1.0;"/><text fill="#000000" font-family="sans-serif" font-size="13" lengthAdjust="spacing" textLength="56" x="129" y="142.5684">&#171;import&#187;</text></g><!--reverse link Datatypes to Constraints--><g id="link_Datatypes_Constraints"><path codeLine="49" d="M568.7098,78.9943 C568.4082,79.3133 571.7745,75.7521 571.4617,76.083 C566.4578,81.3766 560.0719,88.1319 553.7813,94.7863 C541.2,108.095 529,121 529,121 C529,121 198,146 198,146 C198,146 44,154 44,154 C44,154 42.1831,159.2231 39.4436,167.0986 C39.2724,167.5908 39.0975,168.0934 38.9193,168.6057 C38.8302,168.8619 38.7403,169.1204 38.6495,169.3814 C38.6041,169.5119 38.5585,169.6429 38.5127,169.7746 " fill="none" id="Datatypes-backto-Constraints" style="stroke:#181818;stroke-width:1.0;stroke-dasharray:7.0,7.0;"/><polygon fill="#181818" points="572.8314,74.634,563.7421,78.4267,569.3967,78.2676,569.5558,83.9222,572.8314,74.634" style="stroke:#181818;stroke-width:1.0;"/><text fill="#000000" font-family="sans-serif" font-size="13" lengthAdjust="spacing" textLength="56" x="422" y="142.5684">&#171;import&#187;</text></g><!--SRC=[bPHDRy8m38Rl_HLHZbH5xB0BGfKssAH9qovmh8H2Qqf4wbH9kWsn_lUbh1zXb8xr5llr4-TrKhtdc3F5Ch9XyJvLii1aBeLKn2Y6sgO0ZQTRbU08vf03oQKuL0idXp813JcvdpX1IzdNmHrFW6HWTZBHdfVR_LWAv05H6cQuH4sE7h5VhSiseFGfm3RQTXCR4WkcDPbRgLrpDEHOUcM7MZ0BiirT1VtKlp9C2wjViJI5P6aKnzJ5TFm6r6IUy9qhYHbqgPx-7DK2jXnvTRYJk3oZBQq0C0ONTT5o3x-fiwUliZta5QZCfNRZg1MF0yFkS8vdBxYLAcFYZPb2CT5OU3wAIlwtC2Zou2jqNBwnRbGLXeH6oZVmQMZ_79sUkrf7wRZYuyzUQr6dfsGo7j-HcjJAOeb6II4W6L2MFMRDsy8-lxeDgkDCBs4tOORT72mT1OdymCfIlpaNxJVDTVMv0Rlx_GvUQUj2HdsEwxXTKzjJS6f8rtSymWXfU-F_2O7k8KPg5Ab8qIkFi_JSHpykyd7e_fYcXCvcFCkbCc58UxJjd-TS-Gq0]--></g></svg>