<?xml version="1.0" encoding="us-ascii" standalone="no"?><svg xmlns="http://www.w3.org/2000/svg" xmlns:xlink="http://www.w3.org/1999/xlink" contentStyleType="text/css" height="1055px" preserveAspectRatio="none" style="width:1436px;height:1055px;" version="1.1" viewBox="0 0 1436 1055" width="1436px" zoomAndPan="magnify"><defs/><g><!--cluster Foundation--><g id="cluster_Foundation"><path d="M186.5,154.27 L268.5,154.27 A3.75,3.75 0 0 1 271,156.77 L278,176.7583 L453.5,176.7583 A2.5,2.5 0 0 1 456,179.2583 L456,250.77 A2.5,2.5 0 0 1 453.5,253.27 L186.5,253.27 A2.5,2.5 0 0 1 184,250.77 L184,156.77 A2.5,2.5 0 0 1 186.5,154.27 " fill="none" style="stroke:#000000;stroke-width:1.5;"/><line style="stroke:#000000;stroke-width:1.5;" x1="184" x2="278" y1="176.7583" y2="176.7583"/><text fill="#000000" font-family="sans-serif" font-size="14" font-weight="bold" lengthAdjust="spacing" textLength="81" x="188" y="169.8052">Foundation</text></g><!--cluster Datatypes--><g id="cluster_Datatypes"><path d="M126.5,949.51 L199.5,949.51 A3.75,3.75 0 0 1 202,952.01 L209,971.9983 L1426.5,971.9983 A2.5,2.5 0 0 1 1429,974.4983 L1429,1046.01 A2.5,2.5 0 0 1 1426.5,1048.51 L126.5,1048.51 A2.5,2.5 0 0 1 124,1046.01 L124,952.01 A2.5,2.5 0 0 1 126.5,949.51 " fill="none" style="stroke:#000000;stroke-width:1.5;"/><line style="stroke:#000000;stroke-width:1.5;" x1="124" x2="209" y1="971.9983" y2="971.9983"/><text fill="#000000" font-family="sans-serif" font-size="14" font-weight="bold" lengthAdjust="spacing" textLength="72" x="128" y="965.0452">Datatypes</text></g><!--cluster SequenceTypes--><g id="cluster_SequenceTypes"><path d="M845.5,6.13 L955.5,6.13 A3.75,3.75 0 0 1 958,8.63 L965,28.6183 L1148.5,28.6183 A2.5,2.5 0 0 1 1151,31.1183 L1151,102.63 A2.5,2.5 0 0 1 1148.5,105.13 L845.5,105.13 A2.5,2.5 0 0 1 843,102.63 L843,8.63 A2.5,2.5 0 0 1 845.5,6.13 " fill="none" style="stroke:#000000;stroke-width:1.5;"/><line style="stroke:#000000;stroke-width:1.5;" x1="843" x2="965" y1="28.6183" y2="28.6183"/><text fill="#000000" font-family="sans-serif" font-size="14" font-weight="bold" lengthAdjust="spacing" textLength="109" x="847" y="21.6652">SequenceTypes</text></g><!--cluster SumTypes--><g id="cluster_SumTypes"><path d="M181.5,6 L256.5,6 A3.75,3.75 0 0 1 259,8.5 L266,28.4883 L482.5,28.4883 A2.5,2.5 0 0 1 485,30.9883 L485,102.77 A2.5,2.5 0 0 1 482.5,105.27 L181.5,105.27 A2.5,2.5 0 0 1 179,102.77 L179,8.5 A2.5,2.5 0 0 1 181.5,6 " fill="none" style="stroke:#000000;stroke-width:1.5;"/><line style="stroke:#000000;stroke-width:1.5;" x1="179" x2="266" y1="28.4883" y2="28.4883"/><text fill="#000000" font-family="sans-serif" font-size="14" font-weight="bold" lengthAdjust="spacing" textLength="74" x="183" y="21.5352">SumTypes</text></g><!--cluster Values--><g id="cluster_Values"><path d="M133.5,333.27 L182.5,333.27 A3.75,3.75 0 0 1 185,335.77 L192,355.7583 L1236.5,355.7583 A2.5,2.5 0 0 1 1239,358.2583 L1239,774.01 A2.5,2.5 0 0 1 1236.5,776.51 L133.5,776.51 A2.5,2.5 0 0 1 131,774.01 L131,335.77 A2.5,2.5 0 0 1 133.5,333.27 " fill="none" style="stroke:#000000;stroke-width:1.5;"/><line style="stroke:#000000;stroke-width:1.5;" x1="131" x2="192" y1="355.7583" y2="355.7583"/><text fill="#000000" font-family="sans-serif" font-size="14" font-weight="bold" lengthAdjust="spacing" textLength="48" x="135" y="348.8052">Values</text></g><!--class Type--><g id="elem_Type"><rect codeLine="8" fill="#F1F1F1" height="32" id="Type" rx="2.5" ry="2.5" style="stroke:#181818;stroke-width:0.5;" width="65" x="366.5" y="197.27"/><ellipse cx="381.5" cy="213.27" fill="#A9DCDF" rx="11" ry="11" style="stroke:#181818;stroke-width:1.0;"/><path d="M381.3633,208.6181 L380.2095,213.6899 L382.5254,213.6899 Z M379.8691,206.3769 L382.8657,206.3769 L386.2109,218.77 L383.7622,218.77 L382.9985,215.707 L379.7197,215.707 L378.9727,218.77 L376.5239,218.77 Z " fill="#000000"/><text fill="#000000" font-family="sans-serif" font-size="14" font-style="italic" lengthAdjust="spacing" textLength="33" x="395.5" y="218.561">Type</text></g><!--class Typed--><g id="elem_Typed"><rect codeLine="9" fill="#F1F1F1" height="32" id="Typed" rx="2.5" ry="2.5" style="stroke:#181818;stroke-width:0.5;" width="74" x="242" y="197.27"/><ellipse cx="257" cy="213.27" fill="#A9DCDF" rx="11" ry="11" style="stroke:#181818;stroke-width:1.0;"/><path d="M256.8633,208.6181 L255.7095,213.6899 L258.0254,213.6899 Z M255.3691,206.3769 L258.3657,206.3769 L261.7109,218.77 L259.2622,218.77 L258.4985,215.707 L255.2197,215.707 L254.4727,218.77 L252.0239,218.77 Z " fill="#000000"/><text fill="#000000" font-family="sans-serif" font-size="14" font-style="italic" lengthAdjust="spacing" textLength="42" x="271" y="218.561">Typed</text></g><!--class Binary--><g id="elem_Binary"><rect codeLine="14" fill="#F1F1F1" height="32" id="Binary" rx="2.5" ry="2.5" style="stroke:#181818;stroke-width:0.5;" width="74" x="1082" y="992.51"/><ellipse cx="1097" cy="1008.51" fill="#ADD1B2" rx="11" ry="11" style="stroke:#181818;stroke-width:1.0;"/><path d="M1099.4731,1014.6531 Q1098.8921,1014.9519 1098.2529,1015.1013 Q1097.6138,1015.2507 1096.9082,1015.2507 Q1094.4014,1015.2507 1093.0815,1013.5989 Q1091.7617,1011.947 1091.7617,1008.8259 Q1091.7617,1005.6965 1093.0815,1004.0447 Q1094.4014,1002.3928 1096.9082,1002.3928 Q1097.6138,1002.3928 1098.2612,1002.5422 Q1098.9087,1002.6916 1099.4731,1002.9905 L1099.4731,1005.7131 Q1098.8423,1005.1321 1098.2488,1004.8623 Q1097.6553,1004.5925 1097.0244,1004.5925 Q1095.6797,1004.5925 1094.9949,1005.6592 Q1094.3101,1006.7258 1094.3101,1008.8259 Q1094.3101,1010.9177 1094.9949,1011.9844 Q1095.6797,1013.051 1097.0244,1013.051 Q1097.6553,1013.051 1098.2488,1012.7812 Q1098.8423,1012.5115 1099.4731,1011.9304 Z " fill="#000000"/><text fill="#000000" font-family="sans-serif" font-size="14" lengthAdjust="spacing" textLength="42" x="1111" y="1013.801">Binary</text></g><!--class Boolean--><g id="elem_Boolean"><rect codeLine="15" fill="#F1F1F1" height="32" id="Boolean" rx="2.5" ry="2.5" style="stroke:#181818;stroke-width:0.5;" width="87" x="424.5" y="992.51"/><ellipse cx="439.5" cy="1008.51" fill="#ADD1B2" rx="11" ry="11" style="stroke:#181818;stroke-width:1.0;"/><path d="M441.9731,1014.6531 Q441.3921,1014.9519 440.7529,1015.1013 Q440.1138,1015.2507 439.4082,1015.2507 Q436.9014,1015.2507 435.5815,1013.5989 Q434.2617,1011.947 434.2617,1008.8259 Q434.2617,1005.6965 435.5815,1004.0447 Q436.9014,1002.3928 439.4082,1002.3928 Q440.1138,1002.3928 440.7612,1002.5422 Q441.4087,1002.6916 441.9731,1002.9905 L441.9731,1005.7131 Q441.3423,1005.1321 440.7488,1004.8623 Q440.1553,1004.5925 439.5244,1004.5925 Q438.1797,1004.5925 437.4949,1005.6592 Q436.8101,1006.7258 436.8101,1008.8259 Q436.8101,1010.9177 437.4949,1011.9844 Q438.1797,1013.051 439.5244,1013.051 Q440.1553,1013.051 440.7488,1012.7812 Q441.3423,1012.5115 441.9731,1011.9304 Z " fill="#000000"/><text fill="#000000" font-family="sans-serif" font-size="14" lengthAdjust="spacing" textLength="55" x="453.5" y="1013.801">Boolean</text></g><!--class Decimal--><g id="elem_Decimal"><rect codeLine="16" fill="#F1F1F1" height="32" id="Decimal" rx="2.5" ry="2.5" style="stroke:#181818;stroke-width:0.5;" width="86" x="684" y="992.51"/><ellipse cx="699" cy="1008.51" fill="#ADD1B2" rx="11" ry="11" style="stroke:#181818;stroke-width:1.0;"/><path d="M701.4731,1014.6531 Q700.8921,1014.9519 700.2529,1015.1013 Q699.6138,1015.2507 698.9082,1015.2507 Q696.4014,1015.2507 695.0815,1013.5989 Q693.7617,1011.947 693.7617,1008.8259 Q693.7617,1005.6965 695.0815,1004.0447 Q696.4014,1002.3928 698.9082,1002.3928 Q699.6138,1002.3928 700.2612,1002.5422 Q700.9087,1002.6916 701.4731,1002.9905 L701.4731,1005.7131 Q700.8423,1005.1321 700.2488,1004.8623 Q699.6553,1004.5925 699.0244,1004.5925 Q697.6797,1004.5925 696.9949,1005.6592 Q696.3101,1006.7258 696.3101,1008.8259 Q696.3101,1010.9177 696.9949,1011.9844 Q697.6797,1013.051 699.0244,1013.051 Q699.6553,1013.051 700.2488,1012.7812 Q700.8423,1012.5115 701.4731,1011.9304 Z " fill="#000000"/><text fill="#000000" font-family="sans-serif" font-size="14" lengthAdjust="spacing" textLength="54" x="713" y="1013.801">Decimal</text></g><!--class Double--><g id="elem_Double"><rect codeLine="17" fill="#F1F1F1" height="32" id="Double" rx="2.5" ry="2.5" style="stroke:#181818;stroke-width:0.5;" width="81" x="819.5" y="992.51"/><ellipse cx="834.5" cy="1008.51" fill="#ADD1B2" rx="11" ry="11" style="stroke:#181818;stroke-width:1.0;"/><path d="M836.9731,1014.6531 Q836.3921,1014.9519 835.7529,1015.1013 Q835.1138,1015.2507 834.4082,1015.2507 Q831.9014,1015.2507 830.5815,1013.5989 Q829.2617,1011.947 829.2617,1008.8259 Q829.2617,1005.6965 830.5815,1004.0447 Q831.9014,1002.3928 834.4082,1002.3928 Q835.1138,1002.3928 835.7612,1002.5422 Q836.4087,1002.6916 836.9731,1002.9905 L836.9731,1005.7131 Q836.3423,1005.1321 835.7488,1004.8623 Q835.1553,1004.5925 834.5244,1004.5925 Q833.1797,1004.5925 832.4949,1005.6592 Q831.8101,1006.7258 831.8101,1008.8259 Q831.8101,1010.9177 832.4949,1011.9844 Q833.1797,1013.051 834.5244,1013.051 Q835.1553,1013.051 835.7488,1012.7812 Q836.3423,1012.5115 836.9731,1011.9304 Z " fill="#000000"/><text fill="#000000" font-family="sans-serif" font-size="14" lengthAdjust="spacing" textLength="49" x="848.5" y="1013.801">Double</text></g><!--class Integer--><g id="elem_Integer"><rect codeLine="18" fill="#F1F1F1" height="32" id="Integer" rx="2.5" ry="2.5" style="stroke:#181818;stroke-width:0.5;" width="81" x="950.5" y="992.51"/><ellipse cx="965.5" cy="1008.51" fill="#ADD1B2" rx="11" ry="11" style="stroke:#181818;stroke-width:1.0;"/><path d="M967.9731,1014.6531 Q967.3921,1014.9519 966.7529,1015.1013 Q966.1138,1015.2507 965.4082,1015.2507 Q962.9014,1015.2507 961.5815,1013.5989 Q960.2617,1011.947 960.2617,1008.8259 Q960.2617,1005.6965 961.5815,1004.0447 Q962.9014,1002.3928 965.4082,1002.3928 Q966.1138,1002.3928 966.7612,1002.5422 Q967.4087,1002.6916 967.9731,1002.9905 L967.9731,1005.7131 Q967.3423,1005.1321 966.7488,1004.8623 Q966.1553,1004.5925 965.5244,1004.5925 Q964.1797,1004.5925 963.4949,1005.6592 Q962.8101,1006.7258 962.8101,1008.8259 Q962.8101,1010.9177 963.4949,1011.9844 Q964.1797,1013.051 965.5244,1013.051 Q966.1553,1013.051 966.7488,1012.7812 Q967.3423,1012.5115 967.9731,1011.9304 Z " fill="#000000"/><text fill="#000000" font-family="sans-serif" font-size="14" lengthAdjust="spacing" textLength="49" x="979.5" y="1013.801">Integer</text></g><!--class String--><g id="elem_String"><rect codeLine="19" fill="#F1F1F1" height="32" id="String" rx="2.5" ry="2.5" style="stroke:#181818;stroke-width:0.5;" width="73" x="561.5" y="992.51"/><ellipse cx="576.5" cy="1008.51" fill="#ADD1B2" rx="11" ry="11" style="stroke:#181818;stroke-width:1.0;"/><path d="M578.9731,1014.6531 Q578.3921,1014.9519 577.7529,1015.1013 Q577.1138,1015.2507 576.4082,1015.2507 Q573.9014,1015.2507 572.5815,1013.5989 Q571.2617,1011.947 571.2617,1008.8259 Q571.2617,1005.6965 572.5815,1004.0447 Q573.9014,1002.3928 576.4082,1002.3928 Q577.1138,1002.3928 577.7612,1002.5422 Q578.4087,1002.6916 578.9731,1002.9905 L578.9731,1005.7131 Q578.3423,1005.1321 577.7488,1004.8623 Q577.1553,1004.5925 576.5244,1004.5925 Q575.1797,1004.5925 574.4949,1005.6592 Q573.8101,1006.7258 573.8101,1008.8259 Q573.8101,1010.9177 574.4949,1011.9844 Q575.1797,1013.051 576.5244,1013.051 Q577.1553,1013.051 577.7488,1012.7812 Q578.3423,1012.5115 578.9731,1011.9304 Z " fill="#000000"/><text fill="#000000" font-family="sans-serif" font-size="14" lengthAdjust="spacing" textLength="41" x="590.5" y="1013.801">String</text></g><!--class LanguageTaggedString--><g id="elem_LanguageTaggedString"><rect codeLine="20" fill="#F1F1F1" height="32" id="LanguageTaggedString" rx="2.5" ry="2.5" style="stroke:#181818;stroke-width:0.5;" width="192" x="182" y="992.51"/><ellipse cx="197" cy="1008.51" fill="#ADD1B2" rx="11" ry="11" style="stroke:#181818;stroke-width:1.0;"/><path d="M199.4731,1014.6531 Q198.8921,1014.9519 198.2529,1015.1013 Q197.6138,1015.2507 196.9082,1015.2507 Q194.4014,1015.2507 193.0815,1013.5989 Q191.7617,1011.947 191.7617,1008.8259 Q191.7617,1005.6965 193.0815,1004.0447 Q194.4014,1002.3928 196.9082,1002.3928 Q197.6138,1002.3928 198.2612,1002.5422 Q198.9087,1002.6916 199.4731,1002.9905 L199.4731,1005.7131 Q198.8423,1005.1321 198.2488,1004.8623 Q197.6553,1004.5925 197.0244,1004.5925 Q195.6797,1004.5925 194.9949,1005.6592 Q194.3101,1006.7258 194.3101,1008.8259 Q194.3101,1010.9177 194.9949,1011.9844 Q195.6797,1013.051 197.0244,1013.051 Q197.6553,1013.051 198.2488,1012.7812 Q198.8423,1012.5115 199.4731,1011.9304 Z " fill="#000000"/><text fill="#000000" font-family="sans-serif" font-size="14" lengthAdjust="spacing" textLength="160" x="211" y="1013.801">LanguageTaggedString</text></g><!--class Unsigned--><g id="elem_Unsigned"><rect codeLine="21" fill="#F1F1F1" height="32" id="Unsigned" rx="2.5" ry="2.5" style="stroke:#181818;stroke-width:0.5;" width="97" x="1206.5" y="992.51"/><ellipse cx="1221.5" cy="1008.51" fill="#ADD1B2" rx="11" ry="11" style="stroke:#181818;stroke-width:1.0;"/><path d="M1223.9731,1014.6531 Q1223.3921,1014.9519 1222.7529,1015.1013 Q1222.1138,1015.2507 1221.4082,1015.2507 Q1218.9014,1015.2507 1217.5815,1013.5989 Q1216.2617,1011.947 1216.2617,1008.8259 Q1216.2617,1005.6965 1217.5815,1004.0447 Q1218.9014,1002.3928 1221.4082,1002.3928 Q1222.1138,1002.3928 1222.7612,1002.5422 Q1223.4087,1002.6916 1223.9731,1002.9905 L1223.9731,1005.7131 Q1223.3423,1005.1321 1222.7488,1004.8623 Q1222.1553,1004.5925 1221.5244,1004.5925 Q1220.1797,1004.5925 1219.4949,1005.6592 Q1218.8101,1006.7258 1218.8101,1008.8259 Q1218.8101,1010.9177 1219.4949,1011.9844 Q1220.1797,1013.051 1221.5244,1013.051 Q1222.1553,1013.051 1222.7488,1012.7812 Q1223.3423,1012.5115 1223.9731,1011.9304 Z " fill="#000000"/><text fill="#000000" font-family="sans-serif" font-size="14" lengthAdjust="spacing" textLength="65" x="1235.5" y="1013.801">Unsigned</text></g><!--class Uri--><g id="elem_Uri"><rect codeLine="22" fill="#F1F1F1" height="32" id="Uri" rx="2.5" ry="2.5" style="stroke:#181818;stroke-width:0.5;" width="52" x="1353" y="992.51"/><ellipse cx="1368" cy="1008.51" fill="#ADD1B2" rx="11" ry="11" style="stroke:#181818;stroke-width:1.0;"/><path d="M1370.4731,1014.6531 Q1369.8921,1014.9519 1369.2529,1015.1013 Q1368.6138,1015.2507 1367.9082,1015.2507 Q1365.4014,1015.2507 1364.0815,1013.5989 Q1362.7617,1011.947 1362.7617,1008.8259 Q1362.7617,1005.6965 1364.0815,1004.0447 Q1365.4014,1002.3928 1367.9082,1002.3928 Q1368.6138,1002.3928 1369.2612,1002.5422 Q1369.9087,1002.6916 1370.4731,1002.9905 L1370.4731,1005.7131 Q1369.8423,1005.1321 1369.2488,1004.8623 Q1368.6553,1004.5925 1368.0244,1004.5925 Q1366.6797,1004.5925 1365.9949,1005.6592 Q1365.3101,1006.7258 1365.3101,1008.8259 Q1365.3101,1010.9177 1365.9949,1011.9844 Q1366.6797,1013.051 1368.0244,1013.051 Q1368.6553,1013.051 1369.2488,1012.7812 Q1369.8423,1012.5115 1370.4731,1011.9304 Z " fill="#000000"/><text fill="#000000" font-family="sans-serif" font-size="14" lengthAdjust="spacing" textLength="20" x="1382" y="1013.801">Uri</text></g><!--class g_Sequence--><g id="elem_g_Sequence"><rect codeLine="27" fill="#F1F1F1" height="32" id="g_Sequence" rx="2.5" ry="2.5" style="stroke:#181818;stroke-width:0.5;" width="226" x="901" y="49.13"/><ellipse cx="916" cy="65.13" fill="#ADD1B2" rx="11" ry="11" style="stroke:#181818;stroke-width:1.0;"/><path d="M918.4731,71.2731 Q917.8921,71.5719 917.2529,71.7213 Q916.6138,71.8707 915.9082,71.8707 Q913.4014,71.8707 912.0815,70.2189 Q910.7617,68.567 910.7617,65.4459 Q910.7617,62.3165 912.0815,60.6647 Q913.4014,59.0128 915.9082,59.0128 Q916.6138,59.0128 917.2612,59.1622 Q917.9087,59.3116 918.4731,59.6105 L918.4731,62.3331 Q917.8423,61.7521 917.2488,61.4823 Q916.6553,61.2125 916.0244,61.2125 Q914.6797,61.2125 913.9949,62.2792 Q913.3101,63.3458 913.3101,65.4459 Q913.3101,67.5377 913.9949,68.6044 Q914.6797,69.671 916.0244,69.671 Q916.6553,69.671 917.2488,69.4012 Q917.8423,69.1315 918.4731,68.5504 Z " fill="#000000"/><text fill="#000000" font-family="sans-serif" font-size="14" lengthAdjust="spacing" textLength="99" x="930" y="70.421">SequenceType</text><rect fill="none" height="16.1328" style="stroke:#181818;stroke-width:1.0;stroke-dasharray:2.0,2.0;" width="93" x="1037" y="46.13"/><text fill="#000000" font-family="sans-serif" font-size="12" font-style="italic" lengthAdjust="spacing" textLength="91" x="1038" y="58.7316">T extends Type</text></g><!--class g_MappingType--><g id="elem_g_MappingType"><rect codeLine="32" fill="#F1F1F1" height="32.2656" id="g_MappingType" rx="2.5" ry="2.5" style="stroke:#181818;stroke-width:0.5;" width="224" x="203" y="49"/><ellipse cx="218" cy="65.1328" fill="#ADD1B2" rx="11" ry="11" style="stroke:#181818;stroke-width:1.0;"/><path d="M220.4731,71.2759 Q219.8921,71.5747 219.2529,71.7241 Q218.6138,71.8735 217.9082,71.8735 Q215.4014,71.8735 214.0815,70.2217 Q212.7617,68.5698 212.7617,65.4487 Q212.7617,62.3193 214.0815,60.6675 Q215.4014,59.0156 217.9082,59.0156 Q218.6138,59.0156 219.2612,59.165 Q219.9087,59.3145 220.4731,59.6133 L220.4731,62.3359 Q219.8423,61.7549 219.2488,61.4851 Q218.6553,61.2153 218.0244,61.2153 Q216.6797,61.2153 215.9949,62.282 Q215.3101,63.3486 215.3101,65.4487 Q215.3101,67.5405 215.9949,68.6072 Q216.6797,69.6738 218.0244,69.6738 Q218.6553,69.6738 219.2488,69.4041 Q219.8423,69.1343 220.4731,68.5532 Z " fill="#000000"/><text fill="#000000" font-family="sans-serif" font-size="14" lengthAdjust="spacing" textLength="93" x="232" y="70.4238">MappingType</text><rect fill="none" height="30.2656" style="stroke:#181818;stroke-width:1.0;stroke-dasharray:2.0,2.0;" width="97" x="333" y="46"/><text fill="#000000" font-family="sans-serif" font-size="12" font-style="italic" lengthAdjust="spacing" textLength="95" x="334" y="58.6016">K extends Type,</text><text fill="#000000" font-family="sans-serif" font-size="12" font-style="italic" lengthAdjust="spacing" textLength="91" x="336" y="72.7344">V extends Type</text></g><!--class Value--><g id="elem_Value"><rect codeLine="36" fill="#F1F1F1" height="40" id="Value" rx="2.5" ry="2.5" style="stroke:#181818;stroke-width:0.5;" width="70" x="576" y="376.27"/><ellipse cx="591" cy="392.27" fill="#A9DCDF" rx="11" ry="11" style="stroke:#181818;stroke-width:1.0;"/><path d="M590.8633,387.6181 L589.7095,392.6899 L592.0254,392.6899 Z M589.3691,385.3769 L592.3657,385.3769 L595.7109,397.77 L593.2622,397.77 L592.4985,394.707 L589.2197,394.707 L588.4727,397.77 L586.0239,397.77 Z " fill="#000000"/><text fill="#000000" font-family="sans-serif" font-size="14" font-style="italic" lengthAdjust="spacing" textLength="38" x="605" y="397.561">Value</text><line style="stroke:#181818;stroke-width:0.5;" x1="577" x2="645" y1="408.27" y2="408.27"/></g><!--class Valued--><g id="elem_Valued"><rect codeLine="39" fill="#F1F1F1" height="40" id="Valued" rx="2.5" ry="2.5" style="stroke:#181818;stroke-width:0.5;" width="79" x="695.5" y="376.27"/><ellipse cx="710.5" cy="392.27" fill="#A9DCDF" rx="11" ry="11" style="stroke:#181818;stroke-width:1.0;"/><path d="M710.3633,387.6181 L709.2095,392.6899 L711.5254,392.6899 Z M708.8691,385.3769 L711.8657,385.3769 L715.2109,397.77 L712.7622,397.77 L711.9985,394.707 L708.7197,394.707 L707.9727,397.77 L705.5239,397.77 Z " fill="#000000"/><text fill="#000000" font-family="sans-serif" font-size="14" font-style="italic" lengthAdjust="spacing" textLength="47" x="724.5" y="397.561">Valued</text><line style="stroke:#181818;stroke-width:0.5;" x1="696.5" x2="773.5" y1="408.27" y2="408.27"/></g><!--class SimpleValue--><g id="elem_SimpleValue"><rect codeLine="42" fill="#F1F1F1" height="40" id="SimpleValue" rx="2.5" ry="2.5" style="stroke:#181818;stroke-width:0.5;" width="116" x="815" y="493.89"/><ellipse cx="830" cy="509.89" fill="#A9DCDF" rx="11" ry="11" style="stroke:#181818;stroke-width:1.0;"/><path d="M829.8633,505.2381 L828.7095,510.3099 L831.0254,510.3099 Z M828.3691,502.9969 L831.3657,502.9969 L834.7109,515.39 L832.2622,515.39 L831.4985,512.327 L828.2197,512.327 L827.4727,515.39 L825.0239,515.39 Z " fill="#000000"/><text fill="#000000" font-family="sans-serif" font-size="14" font-style="italic" lengthAdjust="spacing" textLength="84" x="844" y="515.181">SimpleValue</text><line style="stroke:#181818;stroke-width:0.5;" x1="816" x2="930" y1="525.89" y2="525.89"/></g><!--class BinaryValue--><g id="elem_BinaryValue"><rect codeLine="45" fill="#F1F1F1" height="40" id="BinaryValue" rx="2.5" ry="2.5" style="stroke:#181818;stroke-width:0.5;" width="112" x="1101" y="611.51"/><ellipse cx="1116" cy="627.51" fill="#ADD1B2" rx="11" ry="11" style="stroke:#181818;stroke-width:1.0;"/><path d="M1118.4731,633.6531 Q1117.8921,633.9519 1117.2529,634.1013 Q1116.6138,634.2507 1115.9082,634.2507 Q1113.4014,634.2507 1112.0815,632.5989 Q1110.7617,630.947 1110.7617,627.8259 Q1110.7617,624.6965 1112.0815,623.0447 Q1113.4014,621.3928 1115.9082,621.3928 Q1116.6138,621.3928 1117.2612,621.5422 Q1117.9087,621.6916 1118.4731,621.9905 L1118.4731,624.7131 Q1117.8423,624.1321 1117.2488,623.8623 Q1116.6553,623.5925 1116.0244,623.5925 Q1114.6797,623.5925 1113.9949,624.6592 Q1113.3101,625.7258 1113.3101,627.8259 Q1113.3101,629.9177 1113.9949,630.9844 Q1114.6797,632.051 1116.0244,632.051 Q1116.6553,632.051 1117.2488,631.7812 Q1117.8423,631.5115 1118.4731,630.9304 Z " fill="#000000"/><text fill="#000000" font-family="sans-serif" font-size="14" lengthAdjust="spacing" textLength="80" x="1130" y="632.801">BinaryValue</text><line style="stroke:#181818;stroke-width:0.5;" x1="1102" x2="1212" y1="643.51" y2="643.51"/></g><!--class BooleanValue--><g id="elem_BooleanValue"><rect codeLine="49" fill="#F1F1F1" height="40" id="BooleanValue" rx="2.5" ry="2.5" style="stroke:#181818;stroke-width:0.5;" width="125" x="251.5" y="611.51"/><ellipse cx="266.5" cy="627.51" fill="#ADD1B2" rx="11" ry="11" style="stroke:#181818;stroke-width:1.0;"/><path d="M268.9731,633.6531 Q268.3921,633.9519 267.7529,634.1013 Q267.1138,634.2507 266.4082,634.2507 Q263.9014,634.2507 262.5815,632.5989 Q261.2617,630.947 261.2617,627.8259 Q261.2617,624.6965 262.5815,623.0447 Q263.9014,621.3928 266.4082,621.3928 Q267.1138,621.3928 267.7612,621.5422 Q268.4087,621.6916 268.9731,621.9905 L268.9731,624.7131 Q268.3423,624.1321 267.7488,623.8623 Q267.1553,623.5925 266.5244,623.5925 Q265.1797,623.5925 264.4949,624.6592 Q263.8101,625.7258 263.8101,627.8259 Q263.8101,629.9177 264.4949,630.9844 Q265.1797,632.051 266.5244,632.051 Q267.1553,632.051 267.7488,631.7812 Q268.3423,631.5115 268.9731,630.9304 Z " fill="#000000"/><text fill="#000000" font-family="sans-serif" font-size="14" lengthAdjust="spacing" textLength="93" x="280.5" y="632.801">BooleanValue</text><line style="stroke:#181818;stroke-width:0.5;" x1="252.5" x2="375.5" y1="643.51" y2="643.51"/></g><!--class DecimalValue--><g id="elem_DecimalValue"><rect codeLine="53" fill="#F1F1F1" height="40" id="DecimalValue" rx="2.5" ry="2.5" style="stroke:#181818;stroke-width:0.5;" width="124" x="588" y="611.51"/><ellipse cx="603" cy="627.51" fill="#ADD1B2" rx="11" ry="11" style="stroke:#181818;stroke-width:1.0;"/><path d="M605.4731,633.6531 Q604.8921,633.9519 604.2529,634.1013 Q603.6138,634.2507 602.9082,634.2507 Q600.4014,634.2507 599.0815,632.5989 Q597.7617,630.947 597.7617,627.8259 Q597.7617,624.6965 599.0815,623.0447 Q600.4014,621.3928 602.9082,621.3928 Q603.6138,621.3928 604.2612,621.5422 Q604.9087,621.6916 605.4731,621.9905 L605.4731,624.7131 Q604.8423,624.1321 604.2488,623.8623 Q603.6553,623.5925 603.0244,623.5925 Q601.6797,623.5925 600.9949,624.6592 Q600.3101,625.7258 600.3101,627.8259 Q600.3101,629.9177 600.9949,630.9844 Q601.6797,632.051 603.0244,632.051 Q603.6553,632.051 604.2488,631.7812 Q604.8423,631.5115 605.4731,630.9304 Z " fill="#000000"/><text fill="#000000" font-family="sans-serif" font-size="14" lengthAdjust="spacing" textLength="92" x="617" y="632.801">DecimalValue</text><line style="stroke:#181818;stroke-width:0.5;" x1="589" x2="711" y1="643.51" y2="643.51"/></g><!--class DoubleValue--><g id="elem_DoubleValue"><rect codeLine="57" fill="#F1F1F1" height="40" id="DoubleValue" rx="2.5" ry="2.5" style="stroke:#181818;stroke-width:0.5;" width="119" x="762.5" y="611.51"/><ellipse cx="777.5" cy="627.51" fill="#ADD1B2" rx="11" ry="11" style="stroke:#181818;stroke-width:1.0;"/><path d="M779.9731,633.6531 Q779.3921,633.9519 778.7529,634.1013 Q778.1138,634.2507 777.4082,634.2507 Q774.9014,634.2507 773.5815,632.5989 Q772.2617,630.947 772.2617,627.8259 Q772.2617,624.6965 773.5815,623.0447 Q774.9014,621.3928 777.4082,621.3928 Q778.1138,621.3928 778.7612,621.5422 Q779.4087,621.6916 779.9731,621.9905 L779.9731,624.7131 Q779.3423,624.1321 778.7488,623.8623 Q778.1553,623.5925 777.5244,623.5925 Q776.1797,623.5925 775.4949,624.6592 Q774.8101,625.7258 774.8101,627.8259 Q774.8101,629.9177 775.4949,630.9844 Q776.1797,632.051 777.5244,632.051 Q778.1553,632.051 778.7488,631.7812 Q779.3423,631.5115 779.9731,630.9304 Z " fill="#000000"/><text fill="#000000" font-family="sans-serif" font-size="14" lengthAdjust="spacing" textLength="87" x="791.5" y="632.801">DoubleValue</text><line style="stroke:#181818;stroke-width:0.5;" x1="763.5" x2="880.5" y1="643.51" y2="643.51"/></g><!--class IntegerValue--><g id="elem_IntegerValue"><rect codeLine="61" fill="#F1F1F1" height="40" id="IntegerValue" rx="2.5" ry="2.5" style="stroke:#181818;stroke-width:0.5;" width="119" x="931.5" y="611.51"/><ellipse cx="946.5" cy="627.51" fill="#ADD1B2" rx="11" ry="11" style="stroke:#181818;stroke-width:1.0;"/><path d="M948.9731,633.6531 Q948.3921,633.9519 947.7529,634.1013 Q947.1138,634.2507 946.4082,634.2507 Q943.9014,634.2507 942.5815,632.5989 Q941.2617,630.947 941.2617,627.8259 Q941.2617,624.6965 942.5815,623.0447 Q943.9014,621.3928 946.4082,621.3928 Q947.1138,621.3928 947.7612,621.5422 Q948.4087,621.6916 948.9731,621.9905 L948.9731,624.7131 Q948.3423,624.1321 947.7488,623.8623 Q947.1553,623.5925 946.5244,623.5925 Q945.1797,623.5925 944.4949,624.6592 Q943.8101,625.7258 943.8101,627.8259 Q943.8101,629.9177 944.4949,630.9844 Q945.1797,632.051 946.5244,632.051 Q947.1553,632.051 947.7488,631.7812 Q948.3423,631.5115 948.9731,630.9304 Z " fill="#000000"/><text fill="#000000" font-family="sans-serif" font-size="14" lengthAdjust="spacing" textLength="87" x="960.5" y="632.801">IntegerValue</text><line style="stroke:#181818;stroke-width:0.5;" x1="932.5" x2="1049.5" y1="643.51" y2="643.51"/></g><!--class StringValue--><g id="elem_StringValue"><rect codeLine="65" fill="#F1F1F1" height="40" id="StringValue" rx="2.5" ry="2.5" style="stroke:#181818;stroke-width:0.5;" width="111" x="426.5" y="611.51"/><ellipse cx="441.5" cy="627.51" fill="#ADD1B2" rx="11" ry="11" style="stroke:#181818;stroke-width:1.0;"/><path d="M443.9731,633.6531 Q443.3921,633.9519 442.7529,634.1013 Q442.1138,634.2507 441.4082,634.2507 Q438.9014,634.2507 437.5815,632.5989 Q436.2617,630.947 436.2617,627.8259 Q436.2617,624.6965 437.5815,623.0447 Q438.9014,621.3928 441.4082,621.3928 Q442.1138,621.3928 442.7612,621.5422 Q443.4087,621.6916 443.9731,621.9905 L443.9731,624.7131 Q443.3423,624.1321 442.7488,623.8623 Q442.1553,623.5925 441.5244,623.5925 Q440.1797,623.5925 439.4949,624.6592 Q438.8101,625.7258 438.8101,627.8259 Q438.8101,629.9177 439.4949,630.9844 Q440.1797,632.051 441.5244,632.051 Q442.1553,632.051 442.7488,631.7812 Q443.3423,631.5115 443.9731,630.9304 Z " fill="#000000"/><text fill="#000000" font-family="sans-serif" font-size="14" lengthAdjust="spacing" textLength="79" x="455.5" y="632.801">StringValue</text><line style="stroke:#181818;stroke-width:0.5;" x1="427.5" x2="536.5" y1="643.51" y2="643.51"/></g><!--class LanguageTaggedStringValue--><g id="elem_LanguageTaggedStringValue"><rect codeLine="69" fill="#F1F1F1" height="40" id="LanguageTaggedStringValue" rx="2.5" ry="2.5" style="stroke:#181818;stroke-width:0.5;" width="230" x="163" y="712.51"/><ellipse cx="178" cy="728.51" fill="#ADD1B2" rx="11" ry="11" style="stroke:#181818;stroke-width:1.0;"/><path d="M180.4731,734.6531 Q179.8921,734.9519 179.2529,735.1013 Q178.6138,735.2507 177.9082,735.2507 Q175.4014,735.2507 174.0815,733.5989 Q172.7617,731.947 172.7617,728.8259 Q172.7617,725.6965 174.0815,724.0447 Q175.4014,722.3928 177.9082,722.3928 Q178.6138,722.3928 179.2612,722.5422 Q179.9087,722.6916 180.4731,722.9905 L180.4731,725.7131 Q179.8423,725.1321 179.2488,724.8623 Q178.6553,724.5925 178.0244,724.5925 Q176.6797,724.5925 175.9949,725.6592 Q175.3101,726.7258 175.3101,728.8259 Q175.3101,730.9177 175.9949,731.9844 Q176.6797,733.051 178.0244,733.051 Q178.6553,733.051 179.2488,732.7812 Q179.8423,732.5115 180.4731,731.9304 Z " fill="#000000"/><text fill="#000000" font-family="sans-serif" font-size="14" lengthAdjust="spacing" textLength="198" x="192" y="733.801">LanguageTaggedStringValue</text><line style="stroke:#181818;stroke-width:0.5;" x1="164" x2="392" y1="744.51" y2="744.51"/></g><!--class UnsignedValue--><g id="elem_UnsignedValue"><rect codeLine="73" fill="#F1F1F1" height="40" id="UnsignedValue" rx="2.5" ry="2.5" style="stroke:#181818;stroke-width:0.5;" width="135" x="163.5" y="493.89"/><ellipse cx="178.5" cy="509.89" fill="#ADD1B2" rx="11" ry="11" style="stroke:#181818;stroke-width:1.0;"/><path d="M180.9731,516.0331 Q180.3921,516.3319 179.7529,516.4813 Q179.1138,516.6307 178.4082,516.6307 Q175.9014,516.6307 174.5815,514.9789 Q173.2617,513.327 173.2617,510.2059 Q173.2617,507.0765 174.5815,505.4247 Q175.9014,503.7728 178.4082,503.7728 Q179.1138,503.7728 179.7612,503.9222 Q180.4087,504.0716 180.9731,504.3705 L180.9731,507.0931 Q180.3423,506.5121 179.7488,506.2423 Q179.1553,505.9725 178.5244,505.9725 Q177.1797,505.9725 176.4949,507.0392 Q175.8101,508.1058 175.8101,510.2059 Q175.8101,512.2977 176.4949,513.3644 Q177.1797,514.431 178.5244,514.431 Q179.1553,514.431 179.7488,514.1612 Q180.3423,513.8915 180.9731,513.3104 Z " fill="#000000"/><text fill="#000000" font-family="sans-serif" font-size="14" lengthAdjust="spacing" textLength="103" x="192.5" y="515.181">UnsignedValue</text><line style="stroke:#181818;stroke-width:0.5;" x1="164.5" x2="297.5" y1="525.89" y2="525.89"/></g><!--class UriValue--><g id="elem_UriValue"><rect codeLine="77" fill="#F1F1F1" height="40" id="UriValue" rx="2.5" ry="2.5" style="stroke:#181818;stroke-width:0.5;" width="90" x="349" y="493.89"/><ellipse cx="364" cy="509.89" fill="#ADD1B2" rx="11" ry="11" style="stroke:#181818;stroke-width:1.0;"/><path d="M366.4731,516.0331 Q365.8921,516.3319 365.2529,516.4813 Q364.6138,516.6307 363.9082,516.6307 Q361.4014,516.6307 360.0815,514.9789 Q358.7617,513.327 358.7617,510.2059 Q358.7617,507.0765 360.0815,505.4247 Q361.4014,503.7728 363.9082,503.7728 Q364.6138,503.7728 365.2612,503.9222 Q365.9087,504.0716 366.4731,504.3705 L366.4731,507.0931 Q365.8423,506.5121 365.2488,506.2423 Q364.6553,505.9725 364.0244,505.9725 Q362.6797,505.9725 361.9949,507.0392 Q361.3101,508.1058 361.3101,510.2059 Q361.3101,512.2977 361.9949,513.3644 Q362.6797,514.431 364.0244,514.431 Q364.6553,514.431 365.2488,514.1612 Q365.8423,513.8915 366.4731,513.3104 Z " fill="#000000"/><text fill="#000000" font-family="sans-serif" font-size="14" lengthAdjust="spacing" textLength="58" x="378" y="515.181">UriValue</text><line style="stroke:#181818;stroke-width:0.5;" x1="350" x2="438" y1="525.89" y2="525.89"/></g><!--class g_Mapping--><g id="elem_g_Mapping"><rect codeLine="81" fill="#F1F1F1" height="73.2422" id="g_Mapping" rx="2.5" ry="2.5" style="stroke:#181818;stroke-width:0.5;" width="276" x="489" y="477.27"/><ellipse cx="504" cy="493.4028" fill="#ADD1B2" rx="11" ry="11" style="stroke:#181818;stroke-width:1.0;"/><path d="M506.4731,499.5459 Q505.8921,499.8447 505.2529,499.9941 Q504.6138,500.1435 503.9082,500.1435 Q501.4014,500.1435 500.0815,498.4917 Q498.7617,496.8398 498.7617,493.7187 Q498.7617,490.5893 500.0815,488.9375 Q501.4014,487.2856 503.9082,487.2856 Q504.6138,487.2856 505.2612,487.435 Q505.9087,487.5845 506.4731,487.8833 L506.4731,490.6059 Q505.8423,490.0249 505.2488,489.7551 Q504.6553,489.4853 504.0244,489.4853 Q502.6797,489.4853 501.9949,490.552 Q501.3101,491.6186 501.3101,493.7187 Q501.3101,495.8105 501.9949,496.8772 Q502.6797,497.9438 504.0244,497.9438 Q504.6553,497.9438 505.2488,497.6741 Q505.8423,497.4043 506.4731,496.8232 Z " fill="#000000"/><text fill="#000000" font-family="sans-serif" font-size="14" lengthAdjust="spacing" textLength="98" x="518" y="498.6938">MappingValue</text><rect fill="none" height="30.2656" style="stroke:#181818;stroke-width:1.0;stroke-dasharray:2.0,2.0;" width="144" x="624" y="474.27"/><text fill="#000000" font-family="sans-serif" font-size="12" font-style="italic" lengthAdjust="spacing" textLength="142" x="625" y="486.8716">Kv extends SimpleValue,</text><text fill="#000000" font-family="sans-serif" font-size="12" font-style="italic" lengthAdjust="spacing" textLength="100" x="646" y="501.0044">Vv extends Value</text><line style="stroke:#181818;stroke-width:0.5;" x1="490" x2="764" y1="509.5356" y2="509.5356"/><ellipse cx="500" cy="523.2798" fill="none" rx="3" ry="3" style="stroke:#038048;stroke-width:1.0;"/><text fill="#000000" font-family="sans-serif" font-size="14" lengthAdjust="spacing" textLength="47" x="509" y="527.0708">key: Kv</text><ellipse cx="500" cy="539.768" fill="none" rx="3" ry="3" style="stroke:#038048;stroke-width:1.0;"/><text fill="#000000" font-family="sans-serif" font-size="14" lengthAdjust="spacing" textLength="60" x="509" y="543.5591">value: Vv</text></g><!--class g_SequenceValue--><g id="elem_g_SequenceValue"><rect codeLine="88" fill="#F1F1F1" height="56.4883" id="g_SequenceValue" rx="2.5" ry="2.5" style="stroke:#181818;stroke-width:0.5;" width="234" x="981" y="485.64"/><ellipse cx="996" cy="501.64" fill="#ADD1B2" rx="11" ry="11" style="stroke:#181818;stroke-width:1.0;"/><path d="M998.4731,507.7831 Q997.8921,508.0819 997.2529,508.2313 Q996.6138,508.3807 995.9082,508.3807 Q993.4014,508.3807 992.0815,506.7289 Q990.7617,505.077 990.7617,501.9559 Q990.7617,498.8265 992.0815,497.1747 Q993.4014,495.5228 995.9082,495.5228 Q996.6138,495.5228 997.2612,495.6722 Q997.9087,495.8216 998.4731,496.1205 L998.4731,498.8431 Q997.8423,498.2621 997.2488,497.9923 Q996.6553,497.7225 996.0244,497.7225 Q994.6797,497.7225 993.9949,498.7892 Q993.3101,499.8558 993.3101,501.9559 Q993.3101,504.0477 993.9949,505.1144 Q994.6797,506.181 996.0244,506.181 Q996.6553,506.181 997.2488,505.9112 Q997.8423,505.6415 998.4731,505.0604 Z " fill="#000000"/><text fill="#000000" font-family="sans-serif" font-size="14" lengthAdjust="spacing" textLength="104" x="1010" y="506.931">SequenceValue</text><rect fill="none" height="16.1328" style="stroke:#181818;stroke-width:1.0;stroke-dasharray:2.0,2.0;" width="96" x="1122" y="482.64"/><text fill="#000000" font-family="sans-serif" font-size="12" font-style="italic" lengthAdjust="spacing" textLength="94" x="1123" y="495.2416">V extends Value</text><line style="stroke:#181818;stroke-width:0.5;" x1="982" x2="1214" y1="517.64" y2="517.64"/><ellipse cx="992" cy="531.3841" fill="none" rx="3" ry="3" style="stroke:#038048;stroke-width:1.0;"/><text fill="#000000" font-family="sans-serif" font-size="14" lengthAdjust="spacing" textLength="98" x="1001" y="535.1752">values: {0..*} V</text></g><!--class ValueConstructor--><g id="elem_ValueConstructor"><rect codeLine="94" fill="#F1F1F1" height="40" id="ValueConstructor" rx="2.5" ry="2.5" style="stroke:#181818;stroke-width:0.5;" width="152" x="824" y="376.27"/><ellipse cx="839" cy="392.27" fill="#ADD1B2" rx="11" ry="11" style="stroke:#181818;stroke-width:1.0;"/><path d="M841.4731,398.4131 Q840.8921,398.7119 840.2529,398.8613 Q839.6138,399.0107 838.9082,399.0107 Q836.4014,399.0107 835.0815,397.3589 Q833.7617,395.707 833.7617,392.5859 Q833.7617,389.4565 835.0815,387.8047 Q836.4014,386.1528 838.9082,386.1528 Q839.6138,386.1528 840.2612,386.3022 Q840.9087,386.4516 841.4731,386.7505 L841.4731,389.4731 Q840.8423,388.8921 840.2488,388.6223 Q839.6553,388.3525 839.0244,388.3525 Q837.6797,388.3525 836.9949,389.4192 Q836.3101,390.4858 836.3101,392.5859 Q836.3101,394.6777 836.9949,395.7444 Q837.6797,396.811 839.0244,396.811 Q839.6553,396.811 840.2488,396.5412 Q840.8423,396.2715 841.4731,395.6904 Z " fill="#000000"/><text fill="#000000" font-family="sans-serif" font-size="14" lengthAdjust="spacing" textLength="120" x="853" y="397.561">ValueConstructor</text><line style="stroke:#181818;stroke-width:0.5;" x1="825" x2="975" y1="408.27" y2="408.27"/></g><!--reverse link Typed to Value--><g id="link_Typed_Value"><path codeLine="37" d="M309.7383,241.5317 C328.0883,257.8017 341,269.27 341,269.27 C341,269.27 399,309.27 399,309.27 C399,309.27 572,317.27 572,317.27 C572,317.27 589.81,352.89 601.36,375.99 " fill="none" id="Typed-backto-Value" style="stroke:#181818;stroke-width:1.0;"/><polygon fill="none" points="296.27,229.59,305.7578,246.0211,313.7189,237.0422,296.27,229.59" style="stroke:#181818;stroke-width:1.0;"/></g><!--reverse link Value to Valued--><g id="link_Value_Valued"><path codeLine="40" d="M652.23,396.27 C655.91,396.27 652.33,396.27 652.33,396.27 C652.33,396.27 693.67,396.27 693.67,396.27 C693.67,396.27 694.16,396.27 695.04,396.27 " fill="none" id="Value-backto-Valued" style="stroke:#181818;stroke-width:1.0;"/><polygon fill="#181818" points="646.23,396.27,655.23,400.27,651.23,396.27,655.23,392.27,646.23,396.27" style="stroke:#181818;stroke-width:1.0;"/><text fill="#000000" font-family="sans-serif" font-size="13" lengthAdjust="spacing" textLength="43" x="644.3469" y="374.2087">+value</text><text fill="#000000" font-family="sans-serif" font-size="13" lengthAdjust="spacing" textLength="8" x="644.3469" y="389.5193">1</text></g><!--reverse link Value to SimpleValue--><g id="link_Value_SimpleValue"><path codeLine="43" d="M662.7978,420.1272 C710.1578,441.0272 777.7,470.83 829.07,493.5 " fill="none" id="Value-backto-SimpleValue" style="stroke:#181818;stroke-width:1.0;"/><polygon fill="none" points="646.33,412.86,660.3754,425.6165,665.2202,414.638,646.33,412.86" style="stroke:#181818;stroke-width:1.0;"/></g><!--reverse link SimpleValue to BinaryValue--><g id="link_SimpleValue_BinaryValue"><path codeLine="46" d="M934.932,541.4667 C954.302,549.7767 956,550.51 956,550.51 C956,550.51 1048.59,587.36 1108.09,611.04 " fill="none" id="SimpleValue-backto-BinaryValue" style="stroke:#181818;stroke-width:1.0;"/><polygon fill="none" points="918.39,534.37,932.5664,546.9807,937.2975,535.9527,918.39,534.37" style="stroke:#181818;stroke-width:1.0;"/></g><!--link BinaryValue to Binary--><g id="link_BinaryValue_Binary"><path codeLine="47" d="M1153.34,651.6 C1147.82,680.37 1138,731.51 1138,731.51 C1138,731.51 1138,731.51 1138,894.51 C1138,894.51 1127.7457,955.5132 1122.5557,986.3532 " fill="none" id="BinaryValue-to-Binary" style="stroke:#181818;stroke-width:1.0;"/><polygon fill="#181818" points="1121.56,992.27,1126.9981,984.0586,1122.3898,987.3393,1119.1091,982.731,1121.56,992.27" style="stroke:#181818;stroke-width:1.0;"/><text fill="#000000" font-family="sans-serif" font-size="13" lengthAdjust="spacing" textLength="88" x="1019.315" y="981.7311">{subsets type}</text></g><!--reverse link SimpleValue to BooleanValue--><g id="link_SimpleValue_BooleanValue"><path codeLine="50" d="M811.068,541.4667 C791.698,549.7767 790,550.51 790,550.51 C790,550.51 401,611.51 401,611.51 C401,611.51 390.48,613.81 376.77,616.8 " fill="none" id="SimpleValue-backto-BooleanValue" style="stroke:#181818;stroke-width:1.0;"/><polygon fill="none" points="827.61,534.37,808.7025,535.9527,813.4336,546.9807,827.61,534.37" style="stroke:#181818;stroke-width:1.0;"/></g><!--link BooleanValue to Boolean--><g id="link_BooleanValue_Boolean"><path codeLine="51" d="M344.25,651.83 C389.36,680.64 469,731.51 469,731.51 C469,731.51 469,731.51 469,894.51 C469,894.51 468.4645,955.4302 468.1845,986.2702 " fill="none" id="BooleanValue-to-Boolean" style="stroke:#181818;stroke-width:1.0;"/><polygon fill="#181818" points="468.13,992.27,472.2115,983.3067,468.1754,987.2702,464.2119,983.2341,468.13,992.27" style="stroke:#181818;stroke-width:1.0;"/><text fill="#000000" font-family="sans-serif" font-size="13" lengthAdjust="spacing" textLength="88" x="365.0497" y="981.7311">{subsets type}</text></g><!--reverse link SimpleValue to DecimalValue--><g id="link_SimpleValue_DecimalValue"><path codeLine="54" d="M819.4407,542.6563 C778.2307,564.0263 728.48,589.82 687.36,611.14 " fill="none" id="SimpleValue-backto-DecimalValue" style="stroke:#181818;stroke-width:1.0;"/><polygon fill="none" points="835.42,534.37,816.6786,537.3298,822.2028,547.9827,835.42,534.37" style="stroke:#181818;stroke-width:1.0;"/></g><!--link DecimalValue to Decimal--><g id="link_DecimalValue_Decimal"><path codeLine="55" d="M659.64,651.6 C674.17,680.37 700,731.51 700,731.51 C700,731.51 700,731.51 700,894.51 C700,894.51 714.5954,955.5943 721.9654,986.4343 " fill="none" id="DecimalValue-to-Decimal" style="stroke:#181818;stroke-width:1.0;"/><polygon fill="#181818" points="723.36,992.27,725.1586,982.5868,722.1978,987.4069,717.3777,984.4462,723.36,992.27" style="stroke:#181818;stroke-width:1.0;"/><text fill="#000000" font-family="sans-serif" font-size="13" lengthAdjust="spacing" textLength="88" x="618.9838" y="981.7311">{subsets type}</text></g><!--reverse link SimpleValue to DoubleValue--><g id="link_SimpleValue_DoubleValue"><path codeLine="58" d="M857.1975,550.7099 C847.7875,572.0499 839.99,589.73 830.56,611.09 " fill="none" id="SimpleValue-backto-DoubleValue" style="stroke:#181818;stroke-width:1.0;"/><polygon fill="none" points="864.46,534.24,851.7076,548.289,862.6875,553.1307,864.46,534.24" style="stroke:#181818;stroke-width:1.0;"/></g><!--link DoubleValue to Double--><g id="link_DoubleValue_Double"><path codeLine="59" d="M825.66,651.6 C831.18,680.37 841,731.51 841,731.51 C841,731.51 841,731.51 841,894.51 C841,894.51 851.2543,955.5132 856.4443,986.3532 " fill="none" id="DoubleValue-to-Double" style="stroke:#181818;stroke-width:1.0;"/><polygon fill="#181818" points="857.44,992.27,859.8909,982.731,856.6102,987.3393,852.0019,984.0586,857.44,992.27" style="stroke:#181818;stroke-width:1.0;"/><text fill="#000000" font-family="sans-serif" font-size="13" lengthAdjust="spacing" textLength="88" x="769.6253" y="981.8497">{subsets type}</text></g><!--reverse link SimpleValue to IntegerValue--><g id="link_SimpleValue_IntegerValue"><path codeLine="62" d="M905.6071,546.8374 C927.3871,568.1774 949.38,589.73 971.19,611.09 " fill="none" id="SimpleValue-backto-IntegerValue" style="stroke:#181818;stroke-width:1.0;"/><polygon fill="none" points="892.75,534.24,901.408,551.1231,909.8063,542.5517,892.75,534.24" style="stroke:#181818;stroke-width:1.0;"/></g><!--link IntegerValue to Integer--><g id="link_IntegerValue_Integer"><path codeLine="63" d="M991,651.6 C991,680.37 991,731.51 991,731.51 C991,731.51 991,731.51 991,894.51 C991,894.51 991,955.43 991,986.27 " fill="none" id="IntegerValue-to-Integer" style="stroke:#181818;stroke-width:1.0;"/><polygon fill="#181818" points="991,992.27,995,983.27,991,987.27,987,983.27,991,992.27" style="stroke:#181818;stroke-width:1.0;"/><text fill="#000000" font-family="sans-serif" font-size="13" lengthAdjust="spacing" textLength="88" x="898.7266" y="981.8967">{subsets type}</text></g><!--reverse link SimpleValue to StringValue--><g id="link_SimpleValue_StringValue"><path codeLine="66" d="M811.068,541.4667 C791.698,549.7767 790,550.51 790,550.51 C790,550.51 626.53,592.97 537.78,616.02 " fill="none" id="SimpleValue-backto-StringValue" style="stroke:#181818;stroke-width:1.0;"/><polygon fill="none" points="827.61,534.37,808.7025,535.9527,813.4336,546.9807,827.61,534.37" style="stroke:#181818;stroke-width:1.0;"/></g><!--link StringValue to String--><g id="link_StringValue_String"><path codeLine="67" d="M501.67,651.6 C531.31,680.37 584,731.51 584,731.51 C584,731.51 584,731.51 584,894.51 C584,894.51 591.5524,955.4755 595.3724,986.3155 " fill="none" id="StringValue-to-String" style="stroke:#181818;stroke-width:1.0;"/><polygon fill="#181818" points="596.11,992.27,598.9733,982.8466,595.4954,987.3079,591.034,983.83,596.11,992.27" style="stroke:#181818;stroke-width:1.0;"/><text fill="#000000" font-family="sans-serif" font-size="13" lengthAdjust="spacing" textLength="88" x="513.0352" y="981.7364">{subsets type}</text></g><!--reverse link StringValue to LanguageTaggedStringValue--><g id="link_StringValue_LanguageTaggedStringValue"><path codeLine="70" d="M425.9865,659.6895 C390.1565,677.0795 353.97,694.64 318.07,712.07 " fill="none" id="StringValue-backto-LanguageTaggedStringValue" style="stroke:#181818;stroke-width:1.0;"/><polygon fill="none" points="442.18,651.83,423.3667,654.2916,428.6063,665.0873,442.18,651.83" style="stroke:#181818;stroke-width:1.0;"/></g><!--link LanguageTaggedStringValue to LanguageTaggedString--><g id="link_LanguageTaggedStringValue_LanguageTaggedString"><path codeLine="71" d="M278,752.78 C278,804.43 278,939.22 278,986.1 " fill="none" id="LanguageTaggedStringValue-to-LanguageTaggedString" style="stroke:#181818;stroke-width:1.0;"/><polygon fill="#181818" points="278,992.1,282,983.1,278,987.1,274,983.1,278,992.1" style="stroke:#181818;stroke-width:1.0;"/><text fill="#000000" font-family="sans-serif" font-size="13" lengthAdjust="spacing" textLength="88" x="175.425" y="981.7996">{subsets type}</text></g><!--link UnsignedValue to SimpleValue--><g id="link_UnsignedValue_SimpleValue"><path codeLine="74" d="M266.72,493.57 C301.45,473.81 349,446.77 349,446.77 C349,446.77 765,446.77 765,446.77 C765,446.77 793.2339,464.3055 825.0139,484.0655 " fill="none" id="UnsignedValue-to-SimpleValue" style="stroke:#181818;stroke-width:1.0;"/><polygon fill="none" points="840.3,493.57,828.1821,478.9701,821.8457,489.1609,840.3,493.57" style="stroke:#181818;stroke-width:1.0;"/></g><!--link UnsignedValue to Unsigned--><g id="link_UnsignedValue_Unsigned"><path codeLine="75" d="M281.85,534.37 C303.57,542.68 324,550.51 324,550.51 C324,550.51 1238,611.51 1238,611.51 C1238,611.51 1289,630.51 1289,630.51 C1289,630.51 1289,630.51 1289,894.51 C1289,894.51 1270.5989,955.6845 1261.3189,986.5245 " fill="none" id="UnsignedValue-to-Unsigned" style="stroke:#181818;stroke-width:1.0;"/><polygon fill="#181818" points="1259.59,992.27,1266.0137,984.8043,1261.0307,987.4821,1258.353,982.4991,1259.59,992.27" style="stroke:#181818;stroke-width:1.0;"/><text fill="#000000" font-family="sans-serif" font-size="13" lengthAdjust="spacing" textLength="88" x="1158.0428" y="981.7311">{subsets type}</text></g><!--link UriValue to SimpleValue--><g id="link_UriValue_SimpleValue"><path codeLine="78" d="M422.76,493.57 C450.72,473.81 489,446.77 489,446.77 C489,446.77 765,446.77 765,446.77 C765,446.77 793.2339,464.3055 825.0139,484.0655 " fill="none" id="UriValue-to-SimpleValue" style="stroke:#181818;stroke-width:1.0;"/><polygon fill="none" points="840.3,493.57,828.1821,478.9701,821.8457,489.1609,840.3,493.57" style="stroke:#181818;stroke-width:1.0;"/></g><!--link UriValue to Uri--><g id="link_UriValue_Uri"><path codeLine="79" d="M432.28,534.37 C448.62,542.68 464,550.51 464,550.51 C464,550.51 1327,580.51 1327,580.51 C1327,580.51 1391,630.51 1391,630.51 C1391,630.51 1391,630.51 1391,894.51 C1391,894.51 1384.5226,955.4634 1381.2526,986.3034 " fill="none" id="UriValue-to-Uri" style="stroke:#181818;stroke-width:1.0;"/><polygon fill="#181818" points="1380.62,992.27,1385.5467,983.7419,1381.1472,987.2979,1377.5913,982.8984,1380.62,992.27" style="stroke:#181818;stroke-width:1.0;"/><text fill="#000000" font-family="sans-serif" font-size="13" lengthAdjust="spacing" textLength="88" x="1309.4012" y="981.7981">{subsets type}</text></g><!--reverse link Value to g_Mapping--><g id="link_Value_g_Mapping"><path codeLine="85" d="M616.1497,434.4498 C618.4297,450.9098 619.29,457.14 622.05,477.1 " fill="none" id="Value-backto-g_Mapping" style="stroke:#181818;stroke-width:1.0;"/><polygon fill="none" points="613.68,416.62,610.2065,435.273,622.093,433.6265,613.68,416.62" style="stroke:#181818;stroke-width:1.0;"/></g><!--reverse link g_MappingType to g_Mapping--><g id="link_g_MappingType_g_Mapping"><path codeLine="86" d="M278.9626,84.3116 C236.9426,105.5016 172,138.27 172,138.27 C172,138.27 61,277.27 61,277.27 C61,277.27 61,309.27 61,309.27 C61,309.27 119,416.27 119,416.27 C119,416.27 464,477.27 464,477.27 C464,477.27 473.87,479.43 488.76,482.68 " fill="none" id="g_MappingType-backto-g_Mapping" style="stroke:#181818;stroke-width:1.0;"/><polygon fill="#181818" points="284.32,81.61,274.4829,82.0909,279.8555,83.8614,278.0851,89.234,284.32,81.61" style="stroke:#181818;stroke-width:1.0;"/><text fill="#000000" font-family="sans-serif" font-size="13" lengthAdjust="spacing" textLength="72" x="62" y="290.8384">K=type(Kv),</text><text fill="#000000" font-family="sans-serif" font-size="13" lengthAdjust="spacing" textLength="68" x="64" y="306.1489">V=type(Vv)</text><text fill="#000000" font-family="sans-serif" font-size="13" lengthAdjust="spacing" textLength="88" x="172.5157" y="101.8706">{subsets type}</text></g><!--reverse link Value to g_SequenceValue--><g id="link_Value_g_SequenceValue"><path codeLine="91" d="M663.4085,413.8692 C676.4685,418.0092 671,416.27 671,416.27 C671,416.27 956,477.27 956,477.27 C956,477.27 969.18,480.57 987.51,485.17 " fill="none" id="Value-backto-g_SequenceValue" style="stroke:#181818;stroke-width:1.0;"/><polygon fill="none" points="646.25,408.43,661.5954,419.5887,665.2216,408.1497,646.25,408.43" style="stroke:#181818;stroke-width:1.0;"/></g><!--reverse link g_Sequence to g_SequenceValue--><g id="link_g_Sequence_g_SequenceValue"><path codeLine="92" d="M1017.9986,87.4067 C1030.2586,152.6167 1076.94,400.9 1092.83,485.4 " fill="none" id="g_Sequence-backto-g_SequenceValue" style="stroke:#181818;stroke-width:1.0;"/><polygon fill="#181818" points="1016.89,81.51,1014.6218,91.0941,1017.8139,86.4239,1022.4841,89.616,1016.89,81.51" style="stroke:#181818;stroke-width:1.0;"/><text fill="#000000" font-family="sans-serif" font-size="13" lengthAdjust="spacing" textLength="61" x="1060" y="298.3384">T=type(V)</text><text fill="#000000" font-family="sans-serif" font-size="13" lengthAdjust="spacing" textLength="88" x="915.7862" y="101.7396">{subsets type}</text></g><!--link ValueConstructor to Value--><g id="link_ValueConstructor_Value"><path codeLine="95" d="M875.11,375.92 C838.39,345.9 774,293.27 774,293.27 C774,293.27 696,293.27 696,293.27 C696,293.27 671,317.27 671,317.27 C671,317.27 655.1199,338.1879 637.3399,361.5879 " fill="none" id="ValueConstructor-to-Value" style="stroke:#181818;stroke-width:1.0;"/><polygon fill="none" points="626.45,375.92,642.1173,365.2179,632.5626,357.9579,626.45,375.92" style="stroke:#181818;stroke-width:1.0;"/></g><!--link ValueConstructor to Type--><g id="link_ValueConstructor_Type"><path codeLine="96" d="M874.77,375.79 C844.86,352.68 799,317.27 799,317.27 C799,317.27 470,269.27 470,269.27 C470,269.27 444.5339,249.5336 423.5239,233.2636 " fill="none" id="ValueConstructor-to-Type" style="stroke:#181818;stroke-width:1.0;"/><polygon fill="#181818" points="418.78,229.59,423.4467,238.263,422.7332,232.6514,428.3449,231.9379,418.78,229.59" style="stroke:#181818;stroke-width:1.0;"/><text fill="#000000" font-family="sans-serif" font-size="13" lengthAdjust="spacing" textLength="81" x="332.7295" y="249.8683">+target_type</text><text fill="#000000" font-family="sans-serif" font-size="13" lengthAdjust="spacing" textLength="8" x="405.7295" y="265.1789">1</text></g><!--link ValueConstructor to SimpleValue--><g id="link_ValueConstructor_SimpleValue"><path codeLine="97" d="M895.48,416.62 C890.5,437.96 883.8849,466.2673 878.8949,487.6273 " fill="none" id="ValueConstructor-to-SimpleValue" style="stroke:#181818;stroke-width:1.0;"/><polygon fill="#181818" points="877.53,493.47,883.4725,485.6159,878.6674,488.6011,875.6823,483.796,877.53,493.47" style="stroke:#181818;stroke-width:1.0;"/><text fill="#000000" font-family="sans-serif" font-size="13" lengthAdjust="spacing" textLength="92" x="775.9401" y="467.9193">+source_value</text><text fill="#000000" font-family="sans-serif" font-size="13" lengthAdjust="spacing" textLength="8" x="859.9401" y="483.2298">1</text></g><!--reverse link Foundation to Values--><g id="link_Foundation_Values"><path codeLine="100" d="M181.3258,236.7004 C176.6664,246.4963 172.9525,254.3038 166.925,266.975 C154.87,292.3175 143,317.27 143,317.27 C143,317.27 142.7575,321.9938 142.3919,329.1163 C142.3462,330.0066 142.2985,330.9344 142.2492,331.8951 C142.2369,332.1353 142.2245,332.3775 142.2119,332.6217 C142.2057,332.7439 142.1994,332.8665 142.193,332.9896 " fill="none" id="Foundation-backto-Values" style="stroke:#181818;stroke-width:1.0;stroke-dasharray:7.0,7.0;"/><polygon fill="#181818" points="183.903,231.2821,176.425,237.6914,181.7553,235.7973,183.6494,241.1277,183.903,231.2821" style="stroke:#181818;stroke-width:1.0;"/><text fill="#000000" font-family="sans-serif" font-size="13" lengthAdjust="spacing" textLength="56" x="162" y="298.3384">&#171;import&#187;</text></g><!--link Values to Datatypes--><g id="link_Values_Datatypes"><path codeLine="101" d="M130.898,404.3083 C130.7674,404.4218 130.6355,404.5365 130.5022,404.6524 C129.9691,405.1159 129.4142,405.5984 128.8385,406.0989 C127.6872,407.0999 126.4526,408.1733 125.1425,409.3123 C122.5224,411.5903 119.6004,414.1307 116.4384,416.8797 C103.7906,427.8756 87.3038,442.2088 70.9425,456.4325 C38.22,484.88 6,512.89 6,512.89 C6,512.89 6,512.89 6,894.51 C6,894.51 36.5225,921.885 67.5225,949.6875 C83.0225,963.5888 98.6419,977.5969 110.625,988.3434 C113.6208,991.0301 116.3893,993.5129 118.8719,995.7392 C120.1131,996.8523 121.2829,997.9014 122.3739,998.8797 C122.9194,999.3689 118.9782,995.8346 119.4834,996.2876 " fill="none" id="Values-to-Datatypes" style="stroke:#181818;stroke-width:1.0;stroke-dasharray:7.0,7.0;"/><polygon fill="#181818" points="123.9504,1000.2934,119.9203,991.3068,120.2279,996.9553,114.5794,997.2628,123.9504,1000.2934" style="stroke:#181818;stroke-width:1.0;"/><text fill="#000000" font-family="sans-serif" font-size="13" lengthAdjust="spacing" textLength="56" x="7" y="737.5784">&#171;import&#187;</text></g><!--link Values to SequenceTypes--><g id="link_Values_SequenceTypes"><path codeLine="102" d="M142.193,332.9896 C142.1994,332.8665 142.2057,332.7439 142.2119,332.6217 C142.2245,332.3775 142.2369,332.1353 142.2492,331.8951 C142.2985,330.9344 142.3462,330.0066 142.3919,329.1163 C142.7575,321.9938 143,317.27 143,317.27 C143,317.27 357,309.27 357,309.27 C357,309.27 537,269.27 537,269.27 C537,269.27 614.2775,219.2775 692.1588,168.8937 C731.0994,143.7019 770.1909,118.4122 799.8492,99.2248 C814.6784,89.6312 827.1492,81.5631 836.0637,75.7956 C838.2923,74.3537 840.2986,73.0557 842.064,71.9135 C842.2846,71.7707 837.464,74.8897 837.6771,74.7518 " fill="none" id="Values-to-SequenceTypes" style="stroke:#181818;stroke-width:1.0;stroke-dasharray:7.0,7.0;"/><polygon fill="#181818" points="842.7146,71.4925,832.9855,73.0231,838.5167,74.2086,837.3312,79.7398,842.7146,71.4925" style="stroke:#181818;stroke-width:1.0;"/><text fill="#000000" font-family="sans-serif" font-size="13" lengthAdjust="spacing" textLength="56" x="738" y="218.3384">&#171;import&#187;</text></g><!--link Values to SumTypes--><g id="link_Values_SumTypes"><path codeLine="103" d="M142.193,332.9896 C142.1994,332.8665 142.2057,332.7439 142.2119,332.6217 C142.2245,332.3775 142.2369,332.1353 142.2492,331.8951 C142.2985,330.9344 142.3462,330.0066 142.3919,329.1163 C142.7575,321.9938 143,317.27 143,317.27 C143,317.27 231,309.27 231,309.27 C231,309.27 452,269.27 452,269.27 C452,269.27 458.055,220.06 464.205,170.0812 C465.7425,157.5866 467.2859,145.0438 468.7422,133.2099 C469.4703,127.293 470.1766,121.5533 470.8495,116.0854 C471.186,113.3514 471.5141,110.6854 471.8323,108.0992 C471.9119,107.4526 471.258,112.7661 471.3363,112.1297 " fill="none" id="Values-to-SumTypes" style="stroke:#181818;stroke-width:1.0;stroke-dasharray:7.0,7.0;"/><polygon fill="#181818" points="472.0692,106.1747,466.9998,114.6187,471.4585,111.1372,474.9399,115.5959,472.0692,106.1747" style="stroke:#181818;stroke-width:1.0;"/><text fill="#000000" font-family="sans-serif" font-size="13" lengthAdjust="spacing" textLength="56" x="468" y="218.3384">&#171;import&#187;</text></g><!--SRC=[ZPPDZzem48Rl-HLMJjrkGTj3BuZbq5rLgcXFK4v8AvDCin71Jcs75b7-U_qLy9YORIuexxpZPoOuuyXjpLegw8viQB6j1EzO-SGRBeWIb4aT0gOoUNOrDGDrQ86ql3cOco36U0aIMlBf8NkjIo0xKA-yb5dMwgLf1UIBMPsgcZDop8Y-l6st0I6jG3TISmj5YePAIPQ6T3obGgM9dIxhFrD5JN4ojRnB_LmpAWxzkbxZl07AiFWCHRsZJIJoRjC0rhuo1HK8B2wKg5c5jM-KLPqkTKch2ieXnmycwugvrW9Lr56l2_ZL0IjW-NQ_UUYTBWdyKS1AzmXdEQ6IL2-zHLDC8Y9rk_-1VATjgxknZ3bYV5YprI0qI8cOAzfqPsBqpzjO_tZSpQXhHtzdRazaoPmI9PLaD1ery5Ffdnd9x_T6N3SVSnUsng6b5lMkRG0L4Kg-b6YDSEEXr53ogS5grvPHoNypM_1HTXi9IXApuq-vjrqXtRx6p51BGP7d1jNvOgn_Sn0MQGaizgIntdU5jUycfWPI2XfQRZ2jBKRwLnynaPQ0Oa-QwdqnreqEl0i3AG55bZJJsMBaqEn21QGDVJaNwQs4T753IN6f_H15vM5nwF54ZdGDlV6AAsgCxEy7QUVW3P2eiu4XQ_Ecy_rvgWPhcsbx2LWfchT-h9hhVWk72PdlBu8TWnEoSf9huv9vDTs2a8aDzO3c_8JayqSJU3VVtvbItSrgVvTdGqUMwtGrt0yoXLtP9kI471_6u_SdiaAzuAo1ZY93kg_Ug9jQ-Zvm6tQ59yxq0T8LYelBwHE81FElm_PuKbHKe5uCPItq8MKUvYs_v9qeuCMTQYOXt7xwfFKdxBXhnxFWmsn2fbDjv4BDPcUFsPxQTVwykcL2toKtZVwp8lJy0m00]--></g></svg>