<?xml version="1.0" encoding="us-ascii" standalone="no"?><svg xmlns="http://www.w3.org/2000/svg" xmlns:xlink="http://www.w3.org/1999/xlink" contentStyleType="text/css" height="580px" preserveAspectRatio="none" style="width:658px;height:580px;" version="1.1" viewBox="0 0 658 580" width="658px" zoomAndPan="magnify"><defs/><g><!--cluster Foundation--><g id="cluster_Foundation"><path d="M40.175,6 L122.175,6 A3.75,3.75 0 0 1 124.675,8.5 L131.675,28.4883 L470.175,28.4883 A2.5,2.5 0 0 1 472.675,30.9883 L472.675,121.5 A2.5,2.5 0 0 1 470.175,124 L40.175,124 A2.5,2.5 0 0 1 37.675,121.5 L37.675,8.5 A2.5,2.5 0 0 1 40.175,6 " fill="none" style="stroke:#000000;stroke-width:1.5;"/><line style="stroke:#000000;stroke-width:1.5;" x1="37.675" x2="131.675" y1="28.4883" y2="28.4883"/><text fill="#000000" font-family="sans-serif" font-size="14" font-weight="bold" lengthAdjust="spacing" textLength="81" x="41.675" y="21.5352">Foundation</text></g><!--cluster Datatypes--><g id="cluster_Datatypes"><path d="M53.175,471 L126.175,471 A3.75,3.75 0 0 1 128.675,473.5 L135.675,493.4883 L166.175,493.4883 A2.5,2.5 0 0 1 168.675,495.9883 L168.675,570.5 A2.5,2.5 0 0 1 166.175,573 L53.175,573 A2.5,2.5 0 0 1 50.675,570.5 L50.675,473.5 A2.5,2.5 0 0 1 53.175,471 " fill="none" style="stroke:#000000;stroke-width:1.5;"/><line style="stroke:#000000;stroke-width:1.5;" x1="50.675" x2="135.675" y1="493.4883" y2="493.4883"/><text fill="#000000" font-family="sans-serif" font-size="14" font-weight="bold" lengthAdjust="spacing" textLength="72" x="54.675" y="486.5352">Datatypes</text></g><!--cluster Values--><g id="cluster_Values"><path d="M493.175,193 L542.175,193 A3.75,3.75 0 0 1 544.675,195.5 L551.675,215.4883 L649.175,215.4883 A2.5,2.5 0 0 1 651.675,217.9883 L651.675,308.5 A2.5,2.5 0 0 1 649.175,311 L493.175,311 A2.5,2.5 0 0 1 490.675,308.5 L490.675,195.5 A2.5,2.5 0 0 1 493.175,193 " fill="none" style="stroke:#000000;stroke-width:1.5;"/><line style="stroke:#000000;stroke-width:1.5;" x1="490.675" x2="551.675" y1="215.4883" y2="215.4883"/><text fill="#000000" font-family="sans-serif" font-size="14" font-weight="bold" lengthAdjust="spacing" textLength="48" x="494.675" y="208.5352">Values</text></g><!--cluster Annotations--><g id="cluster_Annotations"><path d="M28.175,189 L117.175,189 A3.75,3.75 0 0 1 119.675,191.5 L126.675,211.4883 L399.175,211.4883 A2.5,2.5 0 0 1 401.675,213.9883 L401.675,427.5 A2.5,2.5 0 0 1 399.175,430 L28.175,430 A2.5,2.5 0 0 1 25.675,427.5 L25.675,191.5 A2.5,2.5 0 0 1 28.175,189 " fill="none" style="stroke:#000000;stroke-width:1.5;"/><line style="stroke:#000000;stroke-width:1.5;" x1="25.675" x2="126.675" y1="211.4883" y2="211.4883"/><text fill="#000000" font-family="sans-serif" font-size="14" font-weight="bold" lengthAdjust="spacing" textLength="88" x="29.675" y="204.5352">Annotations</text></g><!--class Definition--><g id="elem_Definition"><rect codeLine="8" fill="#F1F1F1" height="32" id="Definition" rx="2.5" ry="2.5" style="stroke:#181818;stroke-width:0.5;" width="99" x="96.175" y="68"/><ellipse cx="111.175" cy="84" fill="#A9DCDF" rx="11" ry="11" style="stroke:#181818;stroke-width:1.0;"/><path d="M111.0383,79.3481 L109.8845,84.4199 L112.2004,84.4199 Z M109.5441,77.1069 L112.5407,77.1069 L115.8859,89.5 L113.4372,89.5 L112.6735,86.437 L109.3947,86.437 L108.6477,89.5 L106.1989,89.5 Z " fill="#000000"/><text fill="#000000" font-family="sans-serif" font-size="14" font-style="italic" lengthAdjust="spacing" textLength="67" x="125.175" y="89.291">Definition</text></g><!--class Named--><g id="elem_Named"><rect codeLine="9" fill="#F1F1F1" height="32" id="Named" rx="2.5" ry="2.5" style="stroke:#181818;stroke-width:0.5;" width="80" x="244.675" y="68"/><ellipse cx="259.675" cy="84" fill="#A9DCDF" rx="11" ry="11" style="stroke:#181818;stroke-width:1.0;"/><path d="M259.5383,79.3481 L258.3845,84.4199 L260.7004,84.4199 Z M258.0441,77.1069 L261.0407,77.1069 L264.3859,89.5 L261.9372,89.5 L261.1735,86.437 L257.8947,86.437 L257.1477,89.5 L254.6989,89.5 Z " fill="#000000"/><text fill="#000000" font-family="sans-serif" font-size="14" font-style="italic" lengthAdjust="spacing" textLength="48" x="273.675" y="89.291">Named</text></g><!--class Typed--><g id="elem_Typed"><rect codeLine="10" fill="#F1F1F1" height="32" id="Typed" rx="2.5" ry="2.5" style="stroke:#181818;stroke-width:0.5;" width="74" x="374.675" y="68"/><ellipse cx="389.675" cy="84" fill="#A9DCDF" rx="11" ry="11" style="stroke:#181818;stroke-width:1.0;"/><path d="M389.5383,79.3481 L388.3845,84.4199 L390.7004,84.4199 Z M388.0441,77.1069 L391.0407,77.1069 L394.3859,89.5 L391.9372,89.5 L391.1735,86.437 L387.8947,86.437 L387.1477,89.5 L384.6989,89.5 Z " fill="#000000"/><text fill="#000000" font-family="sans-serif" font-size="14" font-style="italic" lengthAdjust="spacing" textLength="42" x="403.675" y="89.291">Typed</text></g><!--class Boolean--><g id="elem_Boolean"><rect codeLine="15" fill="#F1F1F1" height="32" id="Boolean" rx="2.5" ry="2.5" style="stroke:#181818;stroke-width:0.5;" width="87" x="66.175" y="525"/><ellipse cx="81.175" cy="541" fill="#ADD1B2" rx="11" ry="11" style="stroke:#181818;stroke-width:1.0;"/><path d="M83.6481,547.1431 Q83.0671,547.4419 82.4279,547.5913 Q81.7888,547.7407 81.0832,547.7407 Q78.5764,547.7407 77.2565,546.0889 Q75.9367,544.437 75.9367,541.3159 Q75.9367,538.1865 77.2565,536.5347 Q78.5764,534.8828 81.0832,534.8828 Q81.7888,534.8828 82.4362,535.0322 Q83.0837,535.1816 83.6481,535.4805 L83.6481,538.2031 Q83.0173,537.6221 82.4238,537.3523 Q81.8303,537.0825 81.1994,537.0825 Q79.8547,537.0825 79.1699,538.1492 Q78.4851,539.2158 78.4851,541.3159 Q78.4851,543.4077 79.1699,544.4744 Q79.8547,545.541 81.1994,545.541 Q81.8303,545.541 82.4238,545.2712 Q83.0173,545.0015 83.6481,544.4204 Z " fill="#000000"/><text fill="#000000" font-family="sans-serif" font-size="14" lengthAdjust="spacing" textLength="55" x="95.175" y="546.291">Boolean</text></g><!--class Valued--><g id="elem_Valued"><rect codeLine="20" fill="#F1F1F1" height="32" id="Valued" rx="2.5" ry="2.5" style="stroke:#181818;stroke-width:0.5;" width="79" x="549.175" y="255"/><ellipse cx="564.175" cy="271" fill="#ADD1B2" rx="11" ry="11" style="stroke:#181818;stroke-width:1.0;"/><path d="M566.6481,277.1431 Q566.0671,277.4419 565.4279,277.5913 Q564.7888,277.7407 564.0832,277.7407 Q561.5764,277.7407 560.2565,276.0889 Q558.9367,274.437 558.9367,271.3159 Q558.9367,268.1865 560.2565,266.5347 Q561.5764,264.8828 564.0832,264.8828 Q564.7888,264.8828 565.4362,265.0322 Q566.0837,265.1816 566.6481,265.4805 L566.6481,268.2031 Q566.0173,267.6221 565.4238,267.3523 Q564.8303,267.0825 564.1994,267.0825 Q562.8547,267.0825 562.1699,268.1492 Q561.4851,269.2158 561.4851,271.3159 Q561.4851,273.4077 562.1699,274.4744 Q562.8547,275.541 564.1994,275.541 Q564.8303,275.541 565.4238,275.2712 Q566.0173,275.0015 566.6481,274.4204 Z " fill="#000000"/><text fill="#000000" font-family="sans-serif" font-size="14" lengthAdjust="spacing" textLength="47" x="578.175" y="276.291">Valued</text></g><!--class Annotation--><g id="elem_Annotation"><rect codeLine="24" fill="#F1F1F1" height="40" id="Annotation" rx="2.5" ry="2.5" style="stroke:#181818;stroke-width:0.5;" width="109" x="237.175" y="251"/><ellipse cx="252.175" cy="267" fill="#A9DCDF" rx="11" ry="11" style="stroke:#181818;stroke-width:1.0;"/><path d="M252.0383,262.3481 L250.8845,267.4199 L253.2004,267.4199 Z M250.5441,260.1069 L253.5407,260.1069 L256.8859,272.5 L254.4372,272.5 L253.6735,269.437 L250.3947,269.437 L249.6477,272.5 L247.1989,272.5 Z " fill="#000000"/><text fill="#000000" font-family="sans-serif" font-size="14" font-style="italic" lengthAdjust="spacing" textLength="77" x="266.175" y="272.291">Annotation</text><line style="stroke:#181818;stroke-width:0.5;" x1="238.175" x2="345.175" y1="283" y2="283"/></g><!--class AnnotationProperty--><g id="elem_AnnotationProperty"><rect codeLine="27" fill="#F1F1F1" height="40" id="AnnotationProperty" rx="2.5" ry="2.5" style="stroke:#181818;stroke-width:0.5;" width="167" x="211.175" y="366"/><ellipse cx="226.175" cy="382" fill="#ADD1B2" rx="11" ry="11" style="stroke:#181818;stroke-width:1.0;"/><path d="M228.6481,388.1431 Q228.0671,388.4419 227.4279,388.5913 Q226.7888,388.7407 226.0832,388.7407 Q223.5764,388.7407 222.2565,387.0889 Q220.9367,385.437 220.9367,382.3159 Q220.9367,379.1865 222.2565,377.5347 Q223.5764,375.8828 226.0832,375.8828 Q226.7888,375.8828 227.4362,376.0322 Q228.0837,376.1816 228.6481,376.4805 L228.6481,379.2031 Q228.0173,378.6221 227.4238,378.3523 Q226.8303,378.0825 226.1994,378.0825 Q224.8547,378.0825 224.1699,379.1492 Q223.4851,380.2158 223.4851,382.3159 Q223.4851,384.4077 224.1699,385.4744 Q224.8547,386.541 226.1994,386.541 Q226.8303,386.541 227.4238,386.2712 Q228.0173,386.0015 228.6481,385.4204 Z " fill="#000000"/><text fill="#000000" font-family="sans-serif" font-size="14" lengthAdjust="spacing" textLength="135" x="240.175" y="387.291">AnnotationProperty</text><line style="stroke:#181818;stroke-width:0.5;" x1="212.175" x2="377.175" y1="398" y2="398"/></g><!--class Constraint--><g id="elem_Constraint"><rect codeLine="31" fill="#F1F1F1" height="40" id="Constraint" rx="2.5" ry="2.5" style="stroke:#181818;stroke-width:0.5;" width="104" x="57.675" y="366"/><ellipse cx="72.675" cy="382" fill="#A9DCDF" rx="11" ry="11" style="stroke:#181818;stroke-width:1.0;"/><path d="M72.5383,377.3481 L71.3845,382.4199 L73.7004,382.4199 Z M71.0441,375.1069 L74.0407,375.1069 L77.3859,387.5 L74.9372,387.5 L74.1735,384.437 L70.8947,384.437 L70.1477,387.5 L67.6989,387.5 Z " fill="#000000"/><text fill="#000000" font-family="sans-serif" font-size="14" font-style="italic" lengthAdjust="spacing" textLength="72" x="86.675" y="387.291">Constraint</text><line style="stroke:#181818;stroke-width:0.5;" x1="58.675" x2="160.675" y1="398" y2="398"/></g><!--class Annotated--><g id="elem_Annotated"><rect codeLine="36" fill="#F1F1F1" height="40" id="Annotated" rx="2.5" ry="2.5" style="stroke:#181818;stroke-width:0.5;" width="104" x="83.675" y="251"/><ellipse cx="98.675" cy="267" fill="#A9DCDF" rx="11" ry="11" style="stroke:#181818;stroke-width:1.0;"/><path d="M98.5383,262.3481 L97.3845,267.4199 L99.7004,267.4199 Z M97.0441,260.1069 L100.0407,260.1069 L103.3859,272.5 L100.9372,272.5 L100.1735,269.437 L96.8947,269.437 L96.1477,272.5 L93.6989,272.5 Z " fill="#000000"/><text fill="#000000" font-family="sans-serif" font-size="14" font-style="italic" lengthAdjust="spacing" textLength="72" x="112.675" y="272.291">Annotated</text><line style="stroke:#181818;stroke-width:0.5;" x1="84.675" x2="186.675" y1="283" y2="283"/></g><!--reverse link Named to Annotation--><g id="link_Named_Annotation"><path codeLine="25" d="M285.94,118.437 C287.22,152.047 289.545,213.73 290.945,250.63 " fill="none" id="Named-backto-Annotation" style="stroke:#181818;stroke-width:1.0;"/><polygon fill="none" points="285.255,100.45,279.9444,118.6653,291.9357,118.2086,285.255,100.45" style="stroke:#181818;stroke-width:1.0;"/></g><!--reverse link Annotation to AnnotationProperty--><g id="link_Annotation_AnnotationProperty"><path codeLine="28" d="M292.6703,309.4237 C293.2203,330.2437 293.615,345.1 294.165,365.83 " fill="none" id="Annotation-backto-AnnotationProperty" style="stroke:#181818;stroke-width:1.0;"/><polygon fill="none" points="292.195,291.43,286.6724,309.5822,298.6682,309.2653,292.195,291.43" style="stroke:#181818;stroke-width:1.0;"/></g><!--reverse link Valued to AnnotationProperty--><g id="link_Valued_AnnotationProperty"><path codeLine="29" d="M565.6085,301.5006 C552.8885,317.7706 545.675,327 545.675,327 C545.675,327 451.575,348.75 378.605,365.61 " fill="none" id="Valued-backto-AnnotationProperty" style="stroke:#181818;stroke-width:1.0;"/><polygon fill="none" points="576.695,287.32,560.8816,297.8051,570.3354,305.1961,576.695,287.32" style="stroke:#181818;stroke-width:1.0;"/></g><!--reverse link Annotation to Constraint--><g id="link_Annotation_Constraint"><path codeLine="32" d="M249.2727,301.5249 C226.4927,317.3849 212.675,327 212.675,327 C212.675,327 174.185,348.68 144.255,365.53 " fill="none" id="Annotation-backto-Constraint" style="stroke:#181818;stroke-width:1.0;"/><polygon fill="none" points="264.045,291.24,245.8444,296.6008,252.701,306.449,264.045,291.24" style="stroke:#181818;stroke-width:1.0;"/></g><!--reverse link Typed to Constraint--><g id="link_Typed_Constraint"><path codeLine="33" d="M406.2387,117.8989 C397.4787,170.8789 371.675,327 371.675,327 C371.675,327 186.675,366 186.675,366 C186.675,366 175.625,368.73 161.885,372.12 " fill="none" id="Typed-backto-Constraint" style="stroke:#181818;stroke-width:1.0;"/><polygon fill="none" points="409.175,100.14,400.319,116.9201,412.1583,118.8777,409.175,100.14" style="stroke:#181818;stroke-width:1.0;"/></g><!--link Constraint to Boolean--><g id="link_Constraint_Boolean"><path codeLine="34" d="M109.675,406.38 C109.675,437.26 109.675,490.98 109.675,518.91 " fill="none" id="Constraint-to-Boolean" style="stroke:#181818;stroke-width:1.0;"/><polygon fill="#181818" points="109.675,524.91,113.675,515.91,109.675,519.91,105.675,515.91,109.675,524.91" style="stroke:#181818;stroke-width:1.0;"/><text fill="#000000" font-family="sans-serif" font-size="13" lengthAdjust="spacing" textLength="88" x="6" y="514.1297">{subsets type}</text></g><!--link Annotated to Annotation--><g id="link_Annotated_Annotation"><path codeLine="37" d="M199.825,271 C202.425,271 220.195,271 230.755,271 " fill="none" id="Annotated-Annotation" style="stroke:#181818;stroke-width:1.0;"/><polygon fill="#181818" points="187.825,271,193.825,275,199.825,271,193.825,267,187.825,271" style="stroke:#181818;stroke-width:1.0;"/><polygon fill="#181818" points="236.755,271,227.755,267,231.755,271,227.755,275,236.755,271" style="stroke:#181818;stroke-width:1.0;"/><text fill="#000000" font-family="sans-serif" font-size="13" lengthAdjust="spacing" textLength="46" x="195.7044" y="249.9513">subject</text><text fill="#000000" font-family="sans-serif" font-size="13" lengthAdjust="spacing" textLength="8" x="195.7044" y="265.2618">1</text><text fill="#000000" font-family="sans-serif" font-size="13" lengthAdjust="spacing" textLength="4" x="266.3472" y="303.8101">&#160;</text><text fill="#000000" font-family="sans-serif" font-size="13" lengthAdjust="spacing" textLength="75" x="195.3472" y="319.1207">annotations</text><text fill="#000000" font-family="sans-serif" font-size="13" lengthAdjust="spacing" textLength="22" x="248.3472" y="334.4312">0..*</text></g><!--reverse link Annotated to Definition--><g id="link_Annotated_Definition"><path codeLine="38" d="M137.6943,232.6561 C139.6843,195.7561 143.025,134.06 144.835,100.45 " fill="none" id="Annotated-backto-Definition" style="stroke:#181818;stroke-width:1.0;"/><polygon fill="none" points="136.725,250.63,143.6856,232.9792,131.703,232.333,136.725,250.63" style="stroke:#181818;stroke-width:1.0;"/></g><!--reverse link Foundation to Annotations--><g id="link_Foundation_Annotations"><path codeLine="41" d="M41.5437,130.4306 C41.5131,130.7677 41.9795,125.6352 41.9488,125.9729 C41.8261,127.3235 41.703,128.678 41.58,130.0313 C39.6125,151.6825 37.675,173 37.675,173 C37.675,173 37.4325,178.8744 37.0669,187.7319 C37.0554,188.0087 37.0439,188.2884 37.0322,188.5709 C37.0264,188.7122 37.0205,188.8542 37.0147,188.9968 " fill="none" id="Foundation-backto-Annotations" style="stroke:#181818;stroke-width:1.0;stroke-dasharray:7.0,7.0;"/><polygon fill="#181818" points="42.0867,124.4552,37.2886,133.0563,41.6342,129.4347,45.2558,133.7803,42.0867,124.4552" style="stroke:#181818;stroke-width:1.0;"/><text fill="#000000" font-family="sans-serif" font-size="13" lengthAdjust="spacing" textLength="56" x="41.675" y="161.5684">&#171;import&#187;</text></g><!--reverse link Values to Annotations--><g id="link_Values_Annotations"><path codeLine="42" d="M488.4526,244.9275 C488.2148,244.3212 489.9865,248.8392 489.7422,248.2164 C489.2538,246.9707 488.7529,245.6933 488.2415,244.3891 C487.2187,241.7808 486.1541,239.0656 485.0637,236.2846 C482.8828,230.7226 480.5988,224.8972 478.34,219.1363 C469.305,196.0925 460.675,174.08 460.675,174.08 C460.675,174.08 37.675,174.08 37.675,174.08 C37.675,174.08 37.4481,179.5831 37.1025,187.9667 C37.0917,188.2287 37.0808,188.4935 37.0698,188.761 " fill="none" id="Values-backto-Annotations" style="stroke:#181818;stroke-width:1.0;stroke-dasharray:7.0,7.0;"/><polygon fill="#181818" points="490.643,250.5134,491.0813,240.6743,488.8176,245.8585,483.6334,243.5948,490.643,250.5134" style="stroke:#181818;stroke-width:1.0;"/><text fill="#000000" font-family="sans-serif" font-size="13" lengthAdjust="spacing" textLength="56" x="327.675" y="161.5684">&#171;import&#187;</text></g><!--SRC=[XLB1Ri8m3BttAwmUaLfjXrqcL6a3xJZjCEt49MqCPAH95Bi7nFZtfQLhGu6Hc_sU_VnYqquP9xoeeHJLRkDjO-J2Qkk1lJ0K83ISqC3IoY3l7OApUjy64MQiH487Jm_9Lac46dbh9IM92wt51k6jxIvOMGE71CBhQNM9dhg4A2deLWoL5aImnBKogYsuXhwB6kKru3CCA9FZABmKBDgfwPRkgUxLMet2n9LVGZVtoZhEcTwBCPOxet-bamb70XoE7I7AP8tBVeh8NgGrqZwyTUXvVzbWGFf68tA7s1iP92T3BuAT4Ajm42qwXZU4BWcdnKonh83qG4r9o0Jjcexfi8f_FW_bn7f8fA7DDrQyqeyfpBBCgysMEu5LEETXAIl_aEUpT3hmU6uJHwVjnblD6vSNqK4_mtokQcSz5yKvKUEQy_vlAQRz0W00]--></g></svg>