<?xml version="1.0" encoding="UTF-8"?>
<svg xmlns="http://www.w3.org/2000/svg" width="205" height="345">
   <defs>
      <style type="text/css">
    @namespace "http://www.w3.org/2000/svg";
    .line                 {fill: none; stroke: #332900; stroke-width: 1;}
    .bold-line            {stroke: #141000; shape-rendering: crispEdges; stroke-width: 2;}
    .thin-line            {stroke: #1F1800; shape-rendering: crispEdges}
    .filled               {fill: #332900; stroke: none;}
    text.terminal         {font-family: Verdana, Sans-serif;
                            font-size: 12px;
                            fill: #141000;
                            font-weight: bold;
                          }
    text.nonterminal      {font-family: Verdana, Sans-serif;
                            font-size: 12px;
                            fill: #1A1400;
                            font-weight: normal;
                          }
    text.regexp           {font-family: Verdana, Sans-serif;
                            font-size: 12px;
                            fill: #1F1800;
                            font-weight: normal;
                          }
    rect, circle, polygon {fill: #332900; stroke: #332900;}
    rect.terminal         {fill: #FFDB4D; stroke: #332900; stroke-width: 1;}
    rect.nonterminal      {fill: #FFEC9E; stroke: #332900; stroke-width: 1;}
    rect.text             {fill: none; stroke: none;}
    polygon.regexp        {fill: #FFF4C7; stroke: #332900; stroke-width: 1;}
  </style>
   </defs>
   <polygon points="9 17 1 13 1 21"/>
   <polygon points="17 17 9 13 9 21"/>
   <a xmlns:xlink="http://www.w3.org/1999/xlink"
       xlink:href="#DataTypeDef"
       xlink:title="DataTypeDef">
      <rect x="51" y="3" width="102" height="32"/>
      <rect x="49" y="1" width="102" height="32" class="nonterminal"/>
      <text class="nonterminal" x="59" y="21">DataTypeDef</text>
   </a>
   <a xmlns:xlink="http://www.w3.org/1999/xlink"
       xlink:href="#EntityDef"
       xlink:title="EntityDef">
      <rect x="51" y="47" width="78" height="32"/>
      <rect x="49" y="45" width="78" height="32" class="nonterminal"/>
      <text class="nonterminal" x="59" y="65">EntityDef</text>
   </a>
   <a xmlns:xlink="http://www.w3.org/1999/xlink"
       xlink:href="#EnumDef"
       xlink:title="EnumDef">
      <rect x="51" y="91" width="76" height="32"/>
      <rect x="49" y="89" width="76" height="32" class="nonterminal"/>
      <text class="nonterminal" x="59" y="109">EnumDef</text>
   </a>
   <a xmlns:xlink="http://www.w3.org/1999/xlink"
       xlink:href="#EventDef"
       xlink:title="EventDef">
      <rect x="51" y="135" width="78" height="32"/>
      <rect x="49" y="133" width="78" height="32" class="nonterminal"/>
      <text class="nonterminal" x="59" y="153">EventDef</text>
   </a>
   <a xmlns:xlink="http://www.w3.org/1999/xlink"
       xlink:href="#PropertyDef"
       xlink:title="PropertyDef">
      <rect x="51" y="179" width="96" height="32"/>
      <rect x="49" y="177" width="96" height="32" class="nonterminal"/>
      <text class="nonterminal" x="59" y="197">PropertyDef</text>
   </a>
   <a xmlns:xlink="http://www.w3.org/1999/xlink"
       xlink:href="#StructureDef"
       xlink:title="StructureDef">
      <rect x="51" y="223" width="100" height="32"/>
      <rect x="49" y="221" width="100" height="32" class="nonterminal"/>
      <text class="nonterminal" x="59" y="241">StructureDef</text>
   </a>
   <a xmlns:xlink="http://www.w3.org/1999/xlink"
       xlink:href="#TypeClassDef"
       xlink:title="TypeClassDef">
      <rect x="51" y="267" width="106" height="32"/>
      <rect x="49" y="265" width="106" height="32" class="nonterminal"/>
      <text class="nonterminal" x="59" y="285">TypeClassDef</text>
   </a>
   <a xmlns:xlink="http://www.w3.org/1999/xlink"
       xlink:href="#UnionDef"
       xlink:title="UnionDef">
      <rect x="51" y="311" width="78" height="32"/>
      <rect x="49" y="309" width="78" height="32" class="nonterminal"/>
      <text class="nonterminal" x="59" y="329">UnionDef</text>
   </a>
   <path class="line"
          d="m17 17 h2 m20 0 h10 m102 0 h10 m0 0 h4 m-146 0 h20 m126 0 h20 m-166 0 q10 0 10 10 m146 0 q0 -10 10 -10 m-156 10 v24 m146 0 v-24 m-146 24 q0 10 10 10 m126 0 q10 0 10 -10 m-136 10 h10 m78 0 h10 m0 0 h28 m-136 -10 v20 m146 0 v-20 m-146 20 v24 m146 0 v-24 m-146 24 q0 10 10 10 m126 0 q10 0 10 -10 m-136 10 h10 m76 0 h10 m0 0 h30 m-136 -10 v20 m146 0 v-20 m-146 20 v24 m146 0 v-24 m-146 24 q0 10 10 10 m126 0 q10 0 10 -10 m-136 10 h10 m78 0 h10 m0 0 h28 m-136 -10 v20 m146 0 v-20 m-146 20 v24 m146 0 v-24 m-146 24 q0 10 10 10 m126 0 q10 0 10 -10 m-136 10 h10 m96 0 h10 m0 0 h10 m-136 -10 v20 m146 0 v-20 m-146 20 v24 m146 0 v-24 m-146 24 q0 10 10 10 m126 0 q10 0 10 -10 m-136 10 h10 m100 0 h10 m0 0 h6 m-136 -10 v20 m146 0 v-20 m-146 20 v24 m146 0 v-24 m-146 24 q0 10 10 10 m126 0 q10 0 10 -10 m-136 10 h10 m106 0 h10 m-136 -10 v20 m146 0 v-20 m-146 20 v24 m146 0 v-24 m-146 24 q0 10 10 10 m126 0 q10 0 10 -10 m-136 10 h10 m78 0 h10 m0 0 h28 m23 -308 h-3"/>
   <polygon points="195 17 203 13 203 21"/>
   <polygon points="195 17 187 13 187 21"/>
</svg>
