<?xml version="1.0" encoding="UTF-8"?>
<svg xmlns="http://www.w3.org/2000/svg" width="495" height="69">
   <defs>
      <style type="text/css">
    @namespace "http://www.w3.org/2000/svg";
    .line                 {fill: none; stroke: #332900; stroke-width: 1;}
    .bold-line            {stroke: #141000; shape-rendering: crispEdges; stroke-width: 2;}
    .thin-line            {stroke: #1F1800; shape-rendering: crispEdges}
    .filled               {fill: #332900; stroke: none;}
    text.terminal         {font-family: Verdana, Sans-serif;
                            font-size: 12px;
                            fill: #141000;
                            font-weight: bold;
                          }
    text.nonterminal      {font-family: Verdana, Sans-serif;
                            font-size: 12px;
                            fill: #1A1400;
                            font-weight: normal;
                          }
    text.regexp           {font-family: Verdana, Sans-serif;
                            font-size: 12px;
                            fill: #1F1800;
                            font-weight: normal;
                          }
    rect, circle, polygon {fill: #332900; stroke: #332900;}
    rect.terminal         {fill: #FFDB4D; stroke: #332900; stroke-width: 1;}
    rect.nonterminal      {fill: #FFEC9E; stroke: #332900; stroke-width: 1;}
    rect.text             {fill: none; stroke: none;}
    polygon.regexp        {fill: #FFF4C7; stroke: #332900; stroke-width: 1;}
  </style>
   </defs>
   <polygon points="9 33 1 29 1 37"/>
   <polygon points="17 33 9 29 9 37"/>
   <rect x="51" y="19" width="26" height="32" rx="10"/>
   <rect x="49"
          y="17"
          width="26"
          height="32"
          class="terminal"
          rx="10"/>
   <text class="terminal" x="59" y="37">(</text>
   <a xmlns:xlink="http://www.w3.org/1999/xlink"
       xlink:href="#FunctionParameter"
       xlink:title="FunctionParameter">
      <rect x="117" y="19" width="140" height="32"/>
      <rect x="115" y="17" width="140" height="32" class="nonterminal"/>
      <text class="nonterminal" x="125" y="37">FunctionParameter</text>
   </a>
   <rect x="297" y="19" width="26" height="32" rx="10"/>
   <rect x="295"
          y="17"
          width="26"
          height="32"
          class="terminal"
          rx="10"/>
   <text class="terminal" x="305" y="37">)</text>
   <a xmlns:xlink="http://www.w3.org/1999/xlink"
       xlink:href="#FunctionType"
       xlink:title="FunctionType">
      <rect x="363" y="19" width="104" height="32"/>
      <rect x="361" y="17" width="104" height="32" class="nonterminal"/>
      <text class="nonterminal" x="371" y="37">FunctionType</text>
   </a>
   <path class="line"
          d="m17 33 h2 m20 0 h10 m26 0 h10 m20 0 h10 m140 0 h10 m-180 0 l20 0 m-1 0 q-9 0 -9 -10 l0 -12 q0 -10 10 -10 m160 32 l20 0 m-20 0 q10 0 10 -10 l0 -12 q0 -10 -10 -10 m-160 0 h10 m0 0 h150 m20 32 h10 m26 0 h10 m-312 0 h20 m292 0 h20 m-332 0 q10 0 10 10 m312 0 q0 -10 10 -10 m-322 10 v14 m312 0 v-14 m-312 14 q0 10 10 10 m292 0 q10 0 10 -10 m-302 10 h10 m0 0 h282 m20 -34 h10 m104 0 h10 m3 0 h-3"/>
   <polygon points="485 33 493 29 493 37"/>
   <polygon points="485 33 477 29 477 37"/>
</svg>
