<?xml version="1.0" encoding="UTF-8"?>
<svg xmlns="http://www.w3.org/2000/svg" width="335" height="81">
   <defs>
      <style type="text/css">
    @namespace "http://www.w3.org/2000/svg";
    .line                 {fill: none; stroke: #332900; stroke-width: 1;}
    .bold-line            {stroke: #141000; shape-rendering: crispEdges; stroke-width: 2;}
    .thin-line            {stroke: #1F1800; shape-rendering: crispEdges}
    .filled               {fill: #332900; stroke: none;}
    text.terminal         {font-family: Verdana, Sans-serif;
                            font-size: 12px;
                            fill: #141000;
                            font-weight: bold;
                          }
    text.nonterminal      {font-family: Verdana, Sans-serif;
                            font-size: 12px;
                            fill: #1A1400;
                            font-weight: normal;
                          }
    text.regexp           {font-family: Verdana, Sans-serif;
                            font-size: 12px;
                            fill: #1F1800;
                            font-weight: normal;
                          }
    rect, circle, polygon {fill: #332900; stroke: #332900;}
    rect.terminal         {fill: #FFDB4D; stroke: #332900; stroke-width: 1;}
    rect.nonterminal      {fill: #FFEC9E; stroke: #332900; stroke-width: 1;}
    rect.text             {fill: none; stroke: none;}
    polygon.regexp        {fill: #FFF4C7; stroke: #332900; stroke-width: 1;}
  </style>
   </defs>
   <polygon points="9 17 1 13 1 21"/>
   <polygon points="17 17 9 13 9 21"/>
   <a xmlns:xlink="http://www.w3.org/1999/xlink"
       xlink:href="#QuantifiedSentence"
       xlink:title="QuantifiedSentence">
      <rect x="51" y="3" width="144" height="32"/>
      <rect x="49" y="1" width="144" height="32" class="nonterminal"/>
      <text class="nonterminal" x="59" y="21">QuantifiedSentence</text>
   </a>
   <rect x="51" y="47" width="26" height="32" rx="10"/>
   <rect x="49"
          y="45"
          width="26"
          height="32"
          class="terminal"
          rx="10"/>
   <text class="terminal" x="59" y="65">(</text>
   <a xmlns:xlink="http://www.w3.org/1999/xlink"
       xlink:href="#QuantifiedSentence"
       xlink:title="QuantifiedSentence">
      <rect x="97" y="47" width="144" height="32"/>
      <rect x="95" y="45" width="144" height="32" class="nonterminal"/>
      <text class="nonterminal" x="105" y="65">QuantifiedSentence</text>
   </a>
   <rect x="261" y="47" width="26" height="32" rx="10"/>
   <rect x="259"
          y="45"
          width="26"
          height="32"
          class="terminal"
          rx="10"/>
   <text class="terminal" x="269" y="65">)</text>
   <path class="line"
          d="m17 17 h2 m20 0 h10 m144 0 h10 m0 0 h92 m-276 0 h20 m256 0 h20 m-296 0 q10 0 10 10 m276 0 q0 -10 10 -10 m-286 10 v24 m276 0 v-24 m-276 24 q0 10 10 10 m256 0 q10 0 10 -10 m-266 10 h10 m26 0 h10 m0 0 h10 m144 0 h10 m0 0 h10 m26 0 h10 m23 -44 h-3"/>
   <polygon points="325 17 333 13 333 21"/>
   <polygon points="325 17 317 13 317 21"/>
</svg>
