<?xml version="1.0" encoding="UTF-8" standalone="no"?>
<!DOCTYPE svg PUBLIC "-//W3C//DTD SVG 1.1//EN"
 "http://www.w3.org/Graphics/SVG/1.1/DTD/svg11.dtd">
<!-- Generated by graphviz version 9.0.0 (20230911.1827)
 -->
<!-- Title: G Pages: 1 -->
<svg width="710pt" height="111pt"
 viewBox="0.00 0.00 709.80 111.35" xmlns="http://www.w3.org/2000/svg" xmlns:xlink="http://www.w3.org/1999/xlink">
<g id="graph0" class="graph" transform="scale(1 1) rotate(0) translate(4 107.35)">
<title>G</title>
<!-- host_1 -->
<g id="node1" class="node">
<title>host_1</title>
<polygon fill="lightgrey" stroke="black" points="69.8,-103.35 12.2,-103.35 12.2,-74.55 69.8,-74.55 69.8,-103.35"/>
<text text-anchor="middle" x="41" y="-85.07" font-family="Helvetica,Arial,sans-serif" font-size="10.00">host</text>
</g>
<!-- set_1 -->
<g id="node2" class="node">
<title>set_1</title>
<polygon fill="none" stroke="black" points="82,-28.8 0,-28.8 0,0 82,0 82,-28.8"/>
<text text-anchor="start" x="23.75" y="-15.9" font-family="Helvetica,Arial,sans-serif" font-style="italic" font-size="10.00">required</text>
<text text-anchor="start" x="8" y="-5.9" font-family="Helvetica,Arial,sans-serif" font-style="italic" font-size="10.00">extension point</text>
</g>
<!-- host_1&#45;&gt;set_1 -->
<g id="edge1" class="edge">
<title>host_1&#45;&gt;set_1</title>
<path fill="none" stroke="black" d="M41,-74.3C41,-64.07 41,-49.83 41,-37.92"/>
<ellipse fill="black" stroke="black" cx="41" cy="-33.48" rx="4" ry="4"/>
</g>
<!-- host_2 -->
<g id="node3" class="node">
<title>host_2</title>
<polygon fill="lightgrey" stroke="black" points="169.8,-103.35 112.2,-103.35 112.2,-74.55 169.8,-74.55 169.8,-103.35"/>
<text text-anchor="middle" x="141" y="-85.07" font-family="Helvetica,Arial,sans-serif" font-size="10.00">host</text>
</g>
<!-- set_2 -->
<g id="node4" class="node">
<title>set_2</title>
<polygon fill="none" stroke="black" points="182,-28.8 100,-28.8 100,0 182,0 182,-28.8"/>
<text text-anchor="start" x="124.12" y="-15.9" font-family="Helvetica,Arial,sans-serif" font-style="italic" font-size="10.00">optional</text>
<text text-anchor="start" x="108" y="-5.9" font-family="Helvetica,Arial,sans-serif" font-style="italic" font-size="10.00">extension point</text>
</g>
<!-- host_2&#45;&gt;set_2 -->
<g id="edge2" class="edge">
<title>host_2&#45;&gt;set_2</title>
<path fill="none" stroke="black" d="M141,-74.3C141,-64.07 141,-49.83 141,-37.92"/>
<ellipse fill="none" stroke="black" cx="141" cy="-33.48" rx="4" ry="4"/>
</g>
<!-- set_3 -->
<g id="node5" class="node">
<title>set_3</title>
<polygon fill="none" stroke="black" points="246,-103.35 188,-103.35 188,-74.55 246,-74.55 246,-103.35"/>
<text text-anchor="start" x="196" y="-90.45" font-family="Helvetica,Arial,sans-serif" font-style="italic" font-size="10.00">extension</text>
<text text-anchor="start" x="206.5" y="-80.45" font-family="Helvetica,Arial,sans-serif" font-style="italic" font-size="10.00">point</text>
</g>
<!-- set_3_or -->
<g id="node6" class="node">
<title>set_3_or</title>
<polygon fill="none" stroke="black" points="217,-25.2 209.8,-9 224.2,-9 217,-25.2"/>
</g>
<!-- set_3&#45;&gt;set_3_or -->
<g id="edge3" class="edge">
<title>set_3&#45;&gt;set_3_or</title>
<path fill="none" stroke="black" d="M217,-74.3C217,-60.35 217,-38.95 217,-26.15"/>
<text text-anchor="middle" x="224.5" y="-48" font-family="Helvetica,Arial,sans-serif" font-size="9.00" fill="darkgrey"> &#160;&#160;or</text>
</g>
<!-- set_4 -->
<g id="node7" class="node">
<title>set_4</title>
<polygon fill="none" stroke="black" points="322,-103.35 264,-103.35 264,-74.55 322,-74.55 322,-103.35"/>
<text text-anchor="start" x="272" y="-90.45" font-family="Helvetica,Arial,sans-serif" font-style="italic" font-size="10.00">extension</text>
<text text-anchor="start" x="282.5" y="-80.45" font-family="Helvetica,Arial,sans-serif" font-style="italic" font-size="10.00">point</text>
</g>
<!-- set_4_or -->
<g id="node8" class="node">
<title>set_4_or</title>
<polygon fill="lightgrey" stroke="black" points="293,-25.2 285.8,-9 300.2,-9 293,-25.2"/>
</g>
<!-- set_4&#45;&gt;set_4_or -->
<g id="edge4" class="edge">
<title>set_4&#45;&gt;set_4_or</title>
<path fill="none" stroke="black" d="M293,-74.3C293,-60.35 293,-38.95 293,-26.15"/>
<text text-anchor="middle" x="304.25" y="-48" font-family="Helvetica,Arial,sans-serif" font-size="9.00" fill="darkgrey"> &#160;&#160;and</text>
</g>
<!-- set_5 -->
<g id="node9" class="node">
<title>set_5</title>
<polygon fill="none" stroke="black" points="398,-103.35 340,-103.35 340,-74.55 398,-74.55 398,-103.35"/>
<text text-anchor="start" x="348" y="-90.45" font-family="Helvetica,Arial,sans-serif" font-style="italic" font-size="10.00">extension</text>
<text text-anchor="start" x="358.5" y="-80.45" font-family="Helvetica,Arial,sans-serif" font-style="italic" font-size="10.00">point</text>
</g>
<!-- set_5_or -->
<g id="node10" class="node">
<title>set_5_or</title>
<polygon fill="none" stroke="black" points="369,-25.2 361.8,-9 376.2,-9 369,-25.2"/>
<text text-anchor="middle" x="369" y="-10.52" font-family="Helvetica,Arial,sans-serif" font-size="10.00">x</text>
</g>
<!-- set_5&#45;&gt;set_5_or -->
<g id="edge5" class="edge">
<title>set_5&#45;&gt;set_5_or</title>
<path fill="none" stroke="black" d="M369,-74.3C369,-60.35 369,-38.95 369,-26.15"/>
<text text-anchor="middle" x="378.75" y="-48" font-family="Helvetica,Arial,sans-serif" font-size="9.00" fill="darkgrey"> &#160;&#160;xor</text>
</g>
<!-- set_6 -->
<g id="node11" class="node">
<title>set_6</title>
<polygon fill="none" stroke="black" points="474,-103.35 416,-103.35 416,-74.55 474,-74.55 474,-103.35"/>
<text text-anchor="start" x="424" y="-90.45" font-family="Helvetica,Arial,sans-serif" font-style="italic" font-size="10.00">extension</text>
<text text-anchor="start" x="434.5" y="-80.45" font-family="Helvetica,Arial,sans-serif" font-style="italic" font-size="10.00">point</text>
</g>
<!-- set_7 -->
<g id="node12" class="node">
<title>set_7</title>
<polygon fill="none" stroke="black" points="474,-28.8 416,-28.8 416,0 474,0 474,-28.8"/>
<text text-anchor="start" x="424" y="-15.9" font-family="Helvetica,Arial,sans-serif" font-style="italic" font-size="10.00">extension</text>
<text text-anchor="start" x="434.5" y="-5.9" font-family="Helvetica,Arial,sans-serif" font-style="italic" font-size="10.00">point</text>
</g>
<!-- set_6&#45;&gt;set_7 -->
<g id="edge6" class="edge">
<title>set_6&#45;&gt;set_7</title>
<path fill="none" stroke="black" stroke-dasharray="5,2" d="M445,-74.3C445,-64.68 445,-51.51 445,-40.07"/>
<polygon fill="black" stroke="black" points="445,-30.2 449.5,-40.2 445,-33.98 445,-40.2 445,-40.2 445,-40.2 445,-33.98 440.5,-40.2 445,-30.2"/>
<text text-anchor="middle" x="472.75" y="-48" font-family="Helvetica,Arial,sans-serif" font-size="9.00" fill="darkgrey"> &#160;dependency</text>
</g>
<!-- set_8_or -->
<g id="node13" class="node">
<title>set_8_or</title>
<polygon fill="none" stroke="black" points="597,-99.75 589.8,-83.55 604.2,-83.55 597,-99.75"/>
</g>
<!-- feat_1 -->
<g id="node14" class="node">
<title>feat_1</title>
<polygon fill="none" stroke="black" points="549.8,-28.8 492.2,-28.8 492.2,0 549.8,0 549.8,-28.8"/>
<text text-anchor="middle" x="521" y="-10.52" font-family="Helvetica,Arial,sans-serif" font-size="10.00">feature</text>
</g>
<!-- set_8_or&#45;&gt;feat_1 -->
<g id="edge7" class="edge">
<title>set_8_or&#45;&gt;feat_1</title>
<path fill="none" stroke="black" d="M592.01,-83.19C580.72,-72.41 552.83,-45.78 535.55,-29.29"/>
</g>
<!-- feat_2 -->
<g id="node15" class="node">
<title>feat_2</title>
<polygon fill="none" stroke="black" points="625.8,-28.8 568.2,-28.8 568.2,0 625.8,0 625.8,-28.8"/>
<text text-anchor="middle" x="597" y="-10.52" font-family="Helvetica,Arial,sans-serif" font-size="10.00">feature</text>
</g>
<!-- set_8_or&#45;&gt;feat_2 -->
<g id="edge8" class="edge">
<title>set_8_or&#45;&gt;feat_2</title>
<path fill="none" stroke="black" d="M597,-83.19C597,-72.41 597,-45.78 597,-29.29"/>
</g>
<!-- feat_3 -->
<g id="node16" class="node">
<title>feat_3</title>
<polygon fill="none" stroke="black" points="701.8,-28.8 644.2,-28.8 644.2,0 701.8,0 701.8,-28.8"/>
<text text-anchor="middle" x="673" y="-10.52" font-family="Helvetica,Arial,sans-serif" font-size="10.00">feature</text>
</g>
<!-- set_8_or&#45;&gt;feat_3 -->
<g id="edge9" class="edge">
<title>set_8_or&#45;&gt;feat_3</title>
<path fill="none" stroke="black" d="M601.99,-83.19C613.28,-72.41 641.17,-45.78 658.45,-29.29"/>
<text text-anchor="middle" x="606.6" y="-59.58" font-family="Helvetica,Arial,sans-serif" font-size="9.00" fill="darkgrey">feature set</text>
</g>
</g>
</svg>
