<?xml version="1.0" encoding="UTF-8" standalone="no"?>
<!DOCTYPE svg PUBLIC "-//W3C//DTD SVG 1.1//EN"
 "http://www.w3.org/Graphics/SVG/1.1/DTD/svg11.dtd">
<!-- Generated by graphviz version 9.0.0 (20230911.1827)
 -->
<!-- Title: G Pages: 1 -->
<svg width="620pt" height="267pt"
 viewBox="0.00 0.00 620.00 267.20" xmlns="http://www.w3.org/2000/svg" xmlns:xlink="http://www.w3.org/1999/xlink">
<g id="graph0" class="graph" transform="scale(1 1) rotate(0) translate(4 263.2)">
<title>G</title>
<!-- top -->
<g id="node1" class="node">
<title>top</title>
<polygon fill="lightgrey" stroke="black" points="387,-259.2 315,-259.2 315,-216 387,-216 387,-259.2"/>
<text text-anchor="middle" x="351" y="-233.72" font-family="Helvetica,Arial,sans-serif" font-size="10.00">Vehicle</text>
</g>
<!-- options -->
<g id="node2" class="node">
<title>options</title>
<polygon fill="none" stroke="black" points="342,-180 270,-180 270,-136.8 342,-136.8 342,-180"/>
<text text-anchor="start" x="289.12" y="-155.53" font-family="Helvetica,Arial,sans-serif" font-style="italic" font-size="10.00">Options</text>
</g>
<!-- top&#45;&gt;options -->
<g id="edge1" class="edge">
<title>top&#45;&gt;options</title>
<path fill="none" stroke="black" d="M328.5,-215.54C328.5,-215.54 328.5,-189.34 328.5,-189.34"/>
<ellipse fill="none" stroke="black" cx="328.5" cy="-184.84" rx="4" ry="4"/>
</g>
<!-- coverage -->
<g id="node11" class="node">
<title>coverage</title>
<polygon fill="none" stroke="black" points="432,-180 360,-180 360,-136.8 432,-136.8 432,-180"/>
<text text-anchor="start" x="375" y="-155.53" font-family="Helvetica,Arial,sans-serif" font-style="italic" font-size="10.00">Coverage</text>
</g>
<!-- top&#45;&gt;coverage -->
<g id="edge10" class="edge">
<title>top&#45;&gt;coverage</title>
<path fill="none" stroke="black" d="M373.5,-215.54C373.5,-215.54 373.5,-189.34 373.5,-189.34"/>
<ellipse fill="none" stroke="black" cx="373.5" cy="-184.84" rx="4" ry="4"/>
</g>
<!-- options_or -->
<g id="node3" class="node">
<title>options_or</title>
<polygon fill="none" stroke="black" points="306,-100.8 298.8,-84.6 313.2,-84.6 306,-100.8"/>
</g>
<!-- options&#45;&gt;options_or -->
<g id="edge2" class="edge">
<title>options&#45;&gt;options_or</title>
<path fill="none" stroke="black" d="M306,-136.38C306,-124.98 306,-111.5 306,-102.01"/>
</g>
<!-- roadside -->
<g id="node4" class="node">
<title>roadside</title>
<polygon fill="none" stroke="black" points="72,-43.2 0,-43.2 0,0 72,0 72,-43.2"/>
<text text-anchor="middle" x="36" y="-23.35" font-family="Helvetica,Arial,sans-serif" font-size="10.00">Roadside</text>
<text text-anchor="middle" x="36" y="-12.1" font-family="Helvetica,Arial,sans-serif" font-size="10.00">Assistance</text>
</g>
<!-- options_or&#45;&gt;roadside -->
<g id="edge3" class="edge">
<title>options_or&#45;&gt;roadside</title>
<path fill="none" stroke="black" d="M302.97,-95C273.3,-95 36,-95 36,-95 36,-95 36,-65.24 36,-43.62"/>
</g>
<!-- add_driver -->
<g id="node5" class="node">
<title>add_driver</title>
<polygon fill="none" stroke="black" points="162,-43.2 90,-43.2 90,0 162,0 162,-43.2"/>
<text text-anchor="middle" x="126" y="-23.35" font-family="Helvetica,Arial,sans-serif" font-size="10.00">Additional</text>
<text text-anchor="middle" x="126" y="-12.1" font-family="Helvetica,Arial,sans-serif" font-size="10.00">Driver</text>
</g>
<!-- options_or&#45;&gt;add_driver -->
<g id="edge4" class="edge">
<title>options_or&#45;&gt;add_driver</title>
<path fill="none" stroke="black" d="M300.81,-90C271.29,-90 126,-90 126,-90 126,-90 126,-63.61 126,-43.62"/>
</g>
<!-- satellite -->
<g id="node6" class="node">
<title>satellite</title>
<polygon fill="none" stroke="black" points="252,-43.2 180,-43.2 180,0 252,0 252,-43.2"/>
<text text-anchor="middle" x="216" y="-23.35" font-family="Helvetica,Arial,sans-serif" font-size="10.00">Satellite</text>
<text text-anchor="middle" x="216" y="-12.1" font-family="Helvetica,Arial,sans-serif" font-size="10.00">Radio</text>
</g>
<!-- options_or&#45;&gt;satellite -->
<g id="edge5" class="edge">
<title>options_or&#45;&gt;satellite</title>
<path fill="none" stroke="black" d="M305.93,-84C303.21,-84 216,-84 216,-84 216,-84 216,-61.42 216,-43.42"/>
</g>
<!-- child_seat -->
<g id="node7" class="node">
<title>child_seat</title>
<polygon fill="none" stroke="black" points="342,-43.2 270,-43.2 270,0 342,0 342,-43.2"/>
<text text-anchor="middle" x="306" y="-23.35" font-family="Helvetica,Arial,sans-serif" font-size="10.00">Child</text>
<text text-anchor="middle" x="306" y="-12.1" font-family="Helvetica,Arial,sans-serif" font-size="10.00">Seat(s)</text>
</g>
<!-- options_or&#45;&gt;child_seat -->
<g id="edge6" class="edge">
<title>options_or&#45;&gt;child_seat</title>
<path fill="none" stroke="black" d="M306,-84.17C306,-75.25 306,-57.77 306,-43.54"/>
</g>
<!-- navigate -->
<g id="node8" class="node">
<title>navigate</title>
<polygon fill="none" stroke="black" points="432,-43.2 360,-43.2 360,0 432,0 432,-43.2"/>
<text text-anchor="middle" x="396" y="-23.35" font-family="Helvetica,Arial,sans-serif" font-size="10.00">Hands&#45;Free</text>
<text text-anchor="middle" x="396" y="-12.1" font-family="Helvetica,Arial,sans-serif" font-size="10.00">Navigation</text>
</g>
<!-- options_or&#45;&gt;navigate -->
<g id="edge7" class="edge">
<title>options_or&#45;&gt;navigate</title>
<path fill="none" stroke="black" d="M306.07,-84C308.79,-84 396,-84 396,-84 396,-84 396,-61.42 396,-43.42"/>
</g>
<!-- concierge -->
<g id="node9" class="node">
<title>concierge</title>
<polygon fill="none" stroke="black" points="522,-43.2 450,-43.2 450,0 522,0 522,-43.2"/>
<text text-anchor="middle" x="486" y="-23.35" font-family="Helvetica,Arial,sans-serif" font-size="10.00">Travel</text>
<text text-anchor="middle" x="486" y="-12.1" font-family="Helvetica,Arial,sans-serif" font-size="10.00">Concierge</text>
</g>
<!-- options_or&#45;&gt;concierge -->
<g id="edge8" class="edge">
<title>options_or&#45;&gt;concierge</title>
<path fill="none" stroke="black" d="M311.19,-90C340.71,-90 486,-90 486,-90 486,-90 486,-63.61 486,-43.62"/>
</g>
<!-- unlimited_tolls -->
<g id="node10" class="node">
<title>unlimited_tolls</title>
<polygon fill="none" stroke="black" points="612,-43.2 540,-43.2 540,0 612,0 612,-43.2"/>
<text text-anchor="middle" x="576" y="-23.35" font-family="Helvetica,Arial,sans-serif" font-size="10.00">Unlimited</text>
<text text-anchor="middle" x="576" y="-12.1" font-family="Helvetica,Arial,sans-serif" font-size="10.00">Tolls</text>
</g>
<!-- options_or&#45;&gt;unlimited_tolls -->
<g id="edge9" class="edge">
<title>options_or&#45;&gt;unlimited_tolls</title>
<path fill="none" stroke="black" d="M309.03,-95C338.7,-95 576,-95 576,-95 576,-95 576,-65.24 576,-43.62"/>
</g>
</g>
</svg>
