<?xml version="1.0" encoding="UTF-8" standalone="no"?>
<!DOCTYPE svg PUBLIC "-//W3C//DTD SVG 1.1//EN"
 "http://www.w3.org/Graphics/SVG/1.1/DTD/svg11.dtd">
<!-- Generated by graphviz version 9.0.0 (20230911.1827)
 -->
<!-- Title: G Pages: 1 -->
<svg width="607pt" height="455pt"
 viewBox="0.00 0.00 607.00 455.40" xmlns="http://www.w3.org/2000/svg" xmlns:xlink="http://www.w3.org/1999/xlink">
<g id="graph0" class="graph" transform="scale(1 1) rotate(0) translate(4 451.4)">
<title>G</title>
<g id="clust1" class="cluster">
<title>cluster_0</title>
<polygon fill="none" stroke="black" points="83,-163 83,-403.4 363,-403.4 363,-163 83,-163"/>
<text text-anchor="middle" x="223" y="-386.1" font-family="Helvetica,Arial,sans-serif" font-size="14.00">Tree&#45;Sitter Parser</text>
</g>
<g id="clust2" class="cluster">
<title>cluster_1</title>
<polygon fill="none" stroke="black" points="399,-80 399,-241.57 591,-241.57 591,-80 399,-80"/>
<text text-anchor="middle" x="495" y="-224.27" font-family="Helvetica,Arial,sans-serif" font-size="14.00">Emacs Mode</text>
</g>
<g id="clust3" class="cluster">
<title>cluster_2</title>
<polygon fill="none" stroke="black" points="8,-8 8,-155 264,-155 264,-8 8,-8"/>
<text text-anchor="middle" x="136" y="-137.7" font-family="Helvetica,Arial,sans-serif" font-size="14.00">Rust Command&#45;Line Tool</text>
</g>
<!-- grammar -->
<g id="node1" class="node">
<title>grammar</title>
<ellipse fill="none" stroke="black" cx="315" cy="-350.83" rx="40.48" ry="21.57"/>
<text text-anchor="middle" x="315" y="-352.58" font-family="Helvetica,Arial,sans-serif" font-size="10.00">Grammar</text>
<text text-anchor="middle" x="315" y="-341.33" font-family="Helvetica,Arial,sans-serif" font-size="10.00">Definition</text>
</g>
<!-- parser -->
<g id="node2" class="node">
<title>parser</title>
<ellipse fill="none" stroke="black" cx="315" cy="-271.7" rx="31.47" ry="21.57"/>
<text text-anchor="middle" x="315" y="-273.45" font-family="Helvetica,Arial,sans-serif" font-size="10.00">Parser</text>
<text text-anchor="middle" x="315" y="-262.2" font-family="Helvetica,Arial,sans-serif" font-size="10.00">Dylib</text>
</g>
<!-- grammar&#45;&gt;parser -->
<g id="edge1" class="edge">
<title>grammar&#45;&gt;parser</title>
<path fill="none" stroke="black" d="M315,-329.16C315,-321.79 315,-313.29 315,-305.16"/>
<polygon fill="black" stroke="black" points="318.5,-305.21 315,-295.21 311.5,-305.21 318.5,-305.21"/>
</g>
<!-- rust -->
<g id="node3" class="node">
<title>rust</title>
<ellipse fill="none" stroke="black" cx="129" cy="-192.57" rx="37.83" ry="21.57"/>
<text text-anchor="middle" x="129" y="-194.32" font-family="Helvetica,Arial,sans-serif" font-size="10.00">Rust</text>
<text text-anchor="middle" x="129" y="-183.07" font-family="Helvetica,Arial,sans-serif" font-size="10.00">Bindings</text>
</g>
<!-- parser&#45;&gt;rust -->
<g id="edge2" class="edge">
<title>parser&#45;&gt;rust</title>
<path fill="none" stroke="black" d="M283.38,-269.3C253.97,-266.83 209.73,-260.05 176,-241.57 166.54,-236.38 157.77,-228.67 150.44,-220.94"/>
<polygon fill="black" stroke="black" points="153.35,-218.94 144.09,-213.8 148.12,-223.6 153.35,-218.94"/>
</g>
<!-- npm -->
<g id="node4" class="node">
<title>npm</title>
<ellipse fill="none" stroke="black" cx="223" cy="-192.57" rx="37.83" ry="21.57"/>
<text text-anchor="middle" x="223" y="-194.32" font-family="Helvetica,Arial,sans-serif" font-size="10.00">Node</text>
<text text-anchor="middle" x="223" y="-183.07" font-family="Helvetica,Arial,sans-serif" font-size="10.00">Bindings</text>
</g>
<!-- parser&#45;&gt;npm -->
<g id="edge3" class="edge">
<title>parser&#45;&gt;npm</title>
<path fill="none" stroke="black" d="M291.42,-256.82C284.31,-252.27 276.63,-246.99 270,-241.57 262.21,-235.2 254.34,-227.68 247.32,-220.5"/>
<polygon fill="black" stroke="black" points="250,-218.24 240.57,-213.41 244.93,-223.07 250,-218.24"/>
</g>
<!-- wasm -->
<g id="node5" class="node">
<title>wasm</title>
<ellipse fill="none" stroke="black" cx="317" cy="-192.57" rx="37.83" ry="21.57"/>
<text text-anchor="middle" x="317" y="-194.32" font-family="Helvetica,Arial,sans-serif" font-size="10.00">WASM</text>
<text text-anchor="middle" x="317" y="-183.07" font-family="Helvetica,Arial,sans-serif" font-size="10.00">Bindings</text>
</g>
<!-- parser&#45;&gt;wasm -->
<g id="edge4" class="edge">
<title>parser&#45;&gt;wasm</title>
<path fill="none" stroke="black" d="M315.54,-250.03C315.73,-242.65 315.95,-234.16 316.16,-226.03"/>
<polygon fill="black" stroke="black" points="319.66,-226.16 316.42,-216.08 312.66,-225.98 319.66,-226.16"/>
</g>
<!-- emode -->
<g id="node7" class="node">
<title>emode</title>
<ellipse fill="none" stroke="black" cx="467" cy="-192.57" rx="43.19" ry="18"/>
<text text-anchor="middle" x="467" y="-188.69" font-family="Helvetica,Arial,sans-serif" font-size="10.00">Editing Mode</text>
</g>
<!-- parser&#45;&gt;emode -->
<g id="edge8" class="edge">
<title>parser&#45;&gt;emode</title>
<path fill="none" stroke="black" d="M339.76,-258.14C364.23,-245.72 401.95,-226.57 429.98,-212.35"/>
<polygon fill="black" stroke="black" points="431.52,-215.5 438.85,-207.85 428.35,-209.25 431.52,-215.5"/>
</g>
<!-- api -->
<g id="node14" class="node">
<title>api</title>
<ellipse fill="none" stroke="black" cx="129" cy="-106" rx="27" ry="18"/>
<text text-anchor="middle" x="129" y="-102.12" font-family="Helvetica,Arial,sans-serif" font-size="10.00">API</text>
</g>
<!-- rust&#45;&gt;api -->
<g id="edge16" class="edge">
<title>rust&#45;&gt;api</title>
<path fill="none" stroke="black" d="M129,-170.66C129,-160.06 129,-147.03 129,-135.52"/>
<polygon fill="black" stroke="black" points="132.5,-135.76 129,-125.76 125.5,-135.76 132.5,-135.76"/>
</g>
<!-- treesit -->
<g id="node6" class="node">
<title>treesit</title>
<polygon fill="none" stroke="dimgrey" points="389.88,-447.4 328.12,-447.4 328.12,-443.4 324.12,-443.4 324.12,-439.4 328.12,-439.4 328.12,-419.4 324.12,-419.4 324.12,-415.4 328.12,-415.4 328.12,-411.4 389.88,-411.4 389.88,-447.4"/>
<polyline fill="none" stroke="dimgrey" points="328.12,-443.4 332.12,-443.4 332.12,-439.4 328.12,-439.4"/>
<polyline fill="none" stroke="dimgrey" points="328.12,-419.4 332.12,-419.4 332.12,-415.4 328.12,-415.4"/>
<text text-anchor="middle" x="359" y="-431.15" font-family="Helvetica,Arial,sans-serif" font-size="10.00" fill="dimgrey">Tree&#45;Sitter</text>
<text text-anchor="middle" x="359" y="-419.9" font-family="Helvetica,Arial,sans-serif" font-size="10.00" fill="dimgrey">C Library</text>
</g>
<!-- treesit&#45;&gt;grammar -->
<g id="edge5" class="edge">
<title>treesit&#45;&gt;grammar</title>
<path fill="none" stroke="black" d="M349.02,-411.03C344.05,-402.38 337.9,-391.68 332.2,-381.77"/>
<polygon fill="black" stroke="black" points="335.27,-380.08 327.25,-373.16 329.2,-383.57 335.27,-380.08"/>
</g>
<!-- ets -->
<g id="node10" class="node">
<title>ets</title>
<polygon fill="none" stroke="dimgrey" points="473.88,-368.83 412.12,-368.83 412.12,-364.83 408.12,-364.83 408.12,-360.83 412.12,-360.83 412.12,-340.83 408.12,-340.83 408.12,-336.83 412.12,-336.83 412.12,-332.83 473.88,-332.83 473.88,-368.83"/>
<polyline fill="none" stroke="dimgrey" points="412.12,-364.83 416.12,-364.83 416.12,-360.83 412.12,-360.83"/>
<polyline fill="none" stroke="dimgrey" points="412.12,-340.83 416.12,-340.83 416.12,-336.83 412.12,-336.83"/>
<text text-anchor="middle" x="443" y="-352.58" font-family="Helvetica,Arial,sans-serif" font-size="10.00" fill="dimgrey">Emacs</text>
<text text-anchor="middle" x="443" y="-341.33" font-family="Helvetica,Arial,sans-serif" font-size="10.00" fill="dimgrey">Tree&#45;Sitter</text>
</g>
<!-- treesit&#45;&gt;ets -->
<g id="edge9" class="edge">
<title>treesit&#45;&gt;ets</title>
<path fill="none" stroke="black" d="M378.06,-411.03C389.23,-400.85 403.52,-387.82 415.85,-376.58"/>
<polygon fill="black" stroke="black" points="417.86,-379.48 422.9,-370.16 413.15,-374.31 417.86,-379.48"/>
</g>
<!-- spell -->
<g id="node8" class="node">
<title>spell</title>
<ellipse fill="none" stroke="black" cx="453" cy="-106" rx="45.86" ry="18"/>
<text text-anchor="middle" x="453" y="-102.12" font-family="Helvetica,Arial,sans-serif" font-size="10.00">Spell Checker</text>
</g>
<!-- emode&#45;&gt;spell -->
<g id="edge6" class="edge">
<title>emode&#45;&gt;spell</title>
<path fill="none" stroke="black" d="M464.17,-174.45C462.32,-163.29 459.86,-148.46 457.72,-135.54"/>
<polygon fill="black" stroke="black" points="461.21,-135.17 456.12,-125.87 454.3,-136.31 461.21,-135.17"/>
</g>
<!-- flycheck -->
<g id="node9" class="node">
<title>flycheck</title>
<ellipse fill="none" stroke="black" cx="550" cy="-106" rx="32.99" ry="18"/>
<text text-anchor="middle" x="550" y="-102.12" font-family="Helvetica,Arial,sans-serif" font-size="10.00">Flycheck</text>
</g>
<!-- emode&#45;&gt;flycheck -->
<g id="edge7" class="edge">
<title>emode&#45;&gt;flycheck</title>
<path fill="none" stroke="black" d="M485.4,-176.01C492.63,-169.69 500.89,-162.18 508,-155 515.28,-147.65 522.84,-139.27 529.51,-131.59"/>
<polygon fill="black" stroke="black" points="532.03,-134.03 535.87,-124.16 526.71,-129.48 532.03,-134.03"/>
</g>
<!-- ets_hl -->
<g id="node11" class="node">
<title>ets_hl</title>
<polygon fill="none" stroke="dimgrey" points="433.25,-289.7 370.75,-289.7 370.75,-285.7 366.75,-285.7 366.75,-281.7 370.75,-281.7 370.75,-261.7 366.75,-261.7 366.75,-257.7 370.75,-257.7 370.75,-253.7 433.25,-253.7 433.25,-289.7"/>
<polyline fill="none" stroke="dimgrey" points="370.75,-285.7 374.75,-285.7 374.75,-281.7 370.75,-281.7"/>
<polyline fill="none" stroke="dimgrey" points="370.75,-261.7 374.75,-261.7 374.75,-257.7 370.75,-257.7"/>
<text text-anchor="middle" x="402" y="-273.45" font-family="Helvetica,Arial,sans-serif" font-size="10.00" fill="dimgrey">Tree&#45;Sitter</text>
<text text-anchor="middle" x="402" y="-262.2" font-family="Helvetica,Arial,sans-serif" font-size="10.00" fill="dimgrey">Highlighter</text>
</g>
<!-- ets&#45;&gt;ets_hl -->
<g id="edge10" class="edge">
<title>ets&#45;&gt;ets_hl</title>
<path fill="none" stroke="black" d="M433.9,-332.72C428.79,-323.1 422.29,-310.87 416.49,-299.96"/>
<polygon fill="black" stroke="black" points="419.71,-298.56 411.93,-291.37 413.53,-301.85 419.71,-298.56"/>
</g>
<!-- ets_indent -->
<g id="node12" class="node">
<title>ets_indent</title>
<polygon fill="none" stroke="dimgrey" points="512.88,-289.7 451.12,-289.7 451.12,-285.7 447.12,-285.7 447.12,-281.7 451.12,-281.7 451.12,-261.7 447.12,-261.7 447.12,-257.7 451.12,-257.7 451.12,-253.7 512.88,-253.7 512.88,-289.7"/>
<polyline fill="none" stroke="dimgrey" points="451.12,-285.7 455.12,-285.7 455.12,-281.7 451.12,-281.7"/>
<polyline fill="none" stroke="dimgrey" points="451.12,-261.7 455.12,-261.7 455.12,-257.7 451.12,-257.7"/>
<text text-anchor="middle" x="482" y="-273.45" font-family="Helvetica,Arial,sans-serif" font-size="10.00" fill="dimgrey">Tree&#45;Sitter</text>
<text text-anchor="middle" x="482" y="-262.2" font-family="Helvetica,Arial,sans-serif" font-size="10.00" fill="dimgrey">Indenter</text>
</g>
<!-- ets&#45;&gt;ets_indent -->
<g id="edge11" class="edge">
<title>ets&#45;&gt;ets_indent</title>
<path fill="none" stroke="black" d="M451.66,-332.72C456.47,-323.2 462.58,-311.12 468.05,-300.3"/>
<polygon fill="black" stroke="black" points="471.16,-301.89 472.55,-291.39 464.92,-298.73 471.16,-301.89"/>
</g>
<!-- ets_fold -->
<g id="node13" class="node">
<title>ets_fold</title>
<polygon fill="none" stroke="dimgrey" points="592.88,-289.7 531.12,-289.7 531.12,-285.7 527.12,-285.7 527.12,-281.7 531.12,-281.7 531.12,-261.7 527.12,-261.7 527.12,-257.7 531.12,-257.7 531.12,-253.7 592.88,-253.7 592.88,-289.7"/>
<polyline fill="none" stroke="dimgrey" points="531.12,-285.7 535.12,-285.7 535.12,-281.7 531.12,-281.7"/>
<polyline fill="none" stroke="dimgrey" points="531.12,-261.7 535.12,-261.7 535.12,-257.7 531.12,-257.7"/>
<text text-anchor="middle" x="562" y="-273.45" font-family="Helvetica,Arial,sans-serif" font-size="10.00" fill="dimgrey">Tree&#45;Sitter</text>
<text text-anchor="middle" x="562" y="-262.2" font-family="Helvetica,Arial,sans-serif" font-size="10.00" fill="dimgrey">Folder</text>
</g>
<!-- ets&#45;&gt;ets_fold -->
<g id="edge12" class="edge">
<title>ets&#45;&gt;ets_fold</title>
<path fill="none" stroke="black" d="M469.71,-332.52C486.24,-321.81 507.69,-307.9 525.75,-296.2"/>
<polygon fill="black" stroke="black" points="527.63,-299.15 534.11,-290.78 523.82,-293.28 527.63,-299.15"/>
</g>
<!-- ets_hl&#45;&gt;emode -->
<g id="edge13" class="edge">
<title>ets_hl&#45;&gt;emode</title>
<path fill="none" stroke="black" d="M416.43,-253.58C425.1,-243.29 436.3,-230 445.95,-218.55"/>
<polygon fill="black" stroke="black" points="448.54,-220.9 452.31,-211 443.19,-216.39 448.54,-220.9"/>
</g>
<!-- ets_indent&#45;&gt;emode -->
<g id="edge14" class="edge">
<title>ets_indent&#45;&gt;emode</title>
<path fill="none" stroke="black" d="M478.67,-253.58C476.88,-244.36 474.62,-232.74 472.56,-222.18"/>
<polygon fill="black" stroke="black" points="476.01,-221.54 470.66,-212.39 469.13,-222.87 476.01,-221.54"/>
</g>
<!-- ets_fold&#45;&gt;emode -->
<g id="edge15" class="edge">
<title>ets_fold&#45;&gt;emode</title>
<path fill="none" stroke="black" d="M540.92,-253.58C527.34,-242.56 509.53,-228.1 494.8,-216.14"/>
<polygon fill="black" stroke="black" points="497.23,-213.61 487.26,-210.02 492.82,-219.04 497.23,-213.61"/>
</g>
<!-- fmt -->
<g id="node15" class="node">
<title>fmt</title>
<ellipse fill="none" stroke="black" cx="50" cy="-34" rx="34.32" ry="18"/>
<text text-anchor="middle" x="50" y="-30.12" font-family="Helvetica,Arial,sans-serif" font-size="10.00">Formatter</text>
</g>
<!-- api&#45;&gt;fmt -->
<g id="edge17" class="edge">
<title>api&#45;&gt;fmt</title>
<path fill="none" stroke="black" d="M113.39,-91.17C102.61,-81.62 88.02,-68.69 75.56,-57.65"/>
<polygon fill="black" stroke="black" points="77.88,-55.03 68.08,-51.02 73.24,-60.27 77.88,-55.03"/>
</g>
<!-- linter -->
<g id="node16" class="node">
<title>linter</title>
<ellipse fill="none" stroke="black" cx="129" cy="-34" rx="27" ry="18"/>
<text text-anchor="middle" x="129" y="-30.12" font-family="Helvetica,Arial,sans-serif" font-size="10.00">Linter</text>
</g>
<!-- api&#45;&gt;linter -->
<g id="edge18" class="edge">
<title>api&#45;&gt;linter</title>
<path fill="none" stroke="black" d="M129,-87.7C129,-80.41 129,-71.73 129,-63.54"/>
<polygon fill="black" stroke="black" points="132.5,-63.62 129,-53.62 125.5,-63.62 132.5,-63.62"/>
</g>
<!-- diagrams -->
<g id="node17" class="node">
<title>diagrams</title>
<ellipse fill="none" stroke="black" cx="215" cy="-34" rx="40.97" ry="18"/>
<text text-anchor="middle" x="215" y="-30.12" font-family="Helvetica,Arial,sans-serif" font-size="10.00">Diagrammer</text>
</g>
<!-- api&#45;&gt;diagrams -->
<g id="edge19" class="edge">
<title>api&#45;&gt;diagrams</title>
<path fill="none" stroke="black" d="M145.58,-91.5C157.43,-81.86 173.66,-68.65 187.44,-57.43"/>
<polygon fill="black" stroke="black" points="189.35,-60.39 194.9,-51.36 184.93,-54.96 189.35,-60.39"/>
</g>
</g>
</svg>
