<?xml version="1.0" encoding="UTF-8" standalone="no"?>
<!DOCTYPE svg PUBLIC "-//W3C//DTD SVG 1.1//EN"
 "http://www.w3.org/Graphics/SVG/1.1/DTD/svg11.dtd">
<!-- Generated by graphviz version 9.0.0 (20230911.1827)
 -->
<!-- Title: G Pages: 1 -->
<svg width="426pt" height="112pt"
 viewBox="0.00 0.00 425.90 112.20" xmlns="http://www.w3.org/2000/svg" xmlns:xlink="http://www.w3.org/1999/xlink">
<g id="graph0" class="graph" transform="scale(1 1) rotate(0) translate(4 108.2)">
<title>G</title>
<!-- semantics -->
<g id="node1" class="node">
<title>semantics</title>
<ellipse fill="none" stroke="black" cx="41.19" cy="-82.6" rx="37.24" ry="21.6"/>
<text text-anchor="middle" x="41.19" y="-84.35" font-family="Helvetica,Arial,sans-serif" font-size="10.00">Abstract</text>
<text text-anchor="middle" x="41.19" y="-73.1" font-family="Helvetica,Arial,sans-serif" font-size="10.00">Model</text>
</g>
<!-- transform -->
<g id="node2" class="node">
<title>transform</title>
<polygon fill="none" stroke="black" points="254.43,-40.2 172.38,-40.2 172.38,-9 254.43,-9 266.43,-24.6 254.43,-40.2"/>
<text text-anchor="middle" x="219.41" y="-20.72" font-family="Helvetica,Arial,sans-serif" font-size="10.00">Transformation</text>
</g>
<!-- semantics&#45;&gt;transform -->
<g id="edge1" class="edge">
<title>semantics&#45;&gt;transform</title>
<path fill="none" stroke="black" d="M71.86,-69.79C80.94,-66.06 91,-62.11 100.38,-58.85 120.01,-52.02 141.79,-45.42 161.25,-39.88"/>
<polygon fill="black" stroke="black" points="161.96,-43.32 170.63,-37.24 160.06,-36.58 161.96,-43.32"/>
<text text-anchor="middle" x="127.38" y="-60.8" font-family="Helvetica,Arial,sans-serif" font-size="9.00" fill="darkgrey">source</text>
</g>
<!-- other -->
<g id="node4" class="node">
<title>other</title>
<ellipse fill="none" stroke="black" stroke-dasharray="5,2" cx="378.54" cy="-53.6" rx="39.36" ry="21.6"/>
<text text-anchor="middle" x="378.54" y="-55.35" font-family="Helvetica,Arial,sans-serif" font-size="10.00">Concrete</text>
<text text-anchor="middle" x="378.54" y="-44.1" font-family="Helvetica,Arial,sans-serif" font-size="10.00">Model(s)</text>
</g>
<!-- transform&#45;&gt;other -->
<g id="edge3" class="edge">
<title>transform&#45;&gt;other</title>
<path fill="none" stroke="black" d="M266.7,-33.14C286.55,-36.81 309.71,-41.08 329.72,-44.77"/>
<polygon fill="black" stroke="black" points="328.82,-48.17 339.29,-46.54 330.09,-41.28 328.82,-48.17"/>
<text text-anchor="middle" x="302.81" y="-43.8" font-family="Helvetica,Arial,sans-serif" font-size="9.00" fill="darkgrey">generate</text>
</g>
<!-- config -->
<g id="node3" class="node">
<title>config</title>
<ellipse fill="none" stroke="black" cx="41.19" cy="-21.6" rx="41.19" ry="21.6"/>
<text text-anchor="middle" x="41.19" y="-17.72" font-family="Helvetica,Arial,sans-serif" font-size="10.00">Configuration</text>
</g>
<!-- config&#45;&gt;transform -->
<g id="edge2" class="edge">
<title>config&#45;&gt;transform</title>
<path fill="none" stroke="black" d="M82.62,-22.29C105.7,-22.68 135.04,-23.18 160.53,-23.61"/>
<polygon fill="black" stroke="black" points="160.37,-27.11 170.43,-23.78 160.49,-20.11 160.37,-27.11"/>
<text text-anchor="middle" x="127.38" y="-24.8" font-family="Helvetica,Arial,sans-serif" font-size="9.00" fill="darkgrey">parameterize</text>
</g>
<!-- other&#45;&gt;semantics -->
<g id="edge4" class="edge">
<title>other&#45;&gt;semantics</title>
<path fill="none" stroke="black" d="M339.17,-56.92C277.6,-62.24 156.87,-72.68 89.86,-78.48"/>
<polygon fill="black" stroke="black" points="89.57,-74.99 79.91,-79.34 90.17,-81.96 89.57,-74.99"/>
<text text-anchor="middle" x="219.41" y="-72.8" font-family="Helvetica,Arial,sans-serif" font-size="9.00" fill="darkgrey">abstraction</text>
</g>
</g>
</svg>
