<?xml version="1.0" encoding="UTF-8" standalone="no"?>
<!DOCTYPE svg PUBLIC "-//W3C//DTD SVG 1.1//EN"
 "http://www.w3.org/Graphics/SVG/1.1/DTD/svg11.dtd">
<!-- Generated by graphviz version 9.0.0 (20230911.1827)
 -->
<!-- Pages: 1 -->
<svg width="530pt" height="235pt"
 viewBox="0.00 0.00 530.00 234.60" xmlns="http://www.w3.org/2000/svg" xmlns:xlink="http://www.w3.org/1999/xlink">
<g id="graph0" class="graph" transform="scale(1 1) rotate(0) translate(4 230.6)">
<!-- Type -->
<g id="node1" class="node">
<title>Type</title>
<polygon fill="none" stroke="grey" points="297,-226.6 225,-226.6 225,-196.1 297,-196.1 297,-226.6"/>
<text text-anchor="middle" x="261" y="-213.1" font-family="Helvetica,Arial,sans-serif" font-size="10.00" fill="grey">Any</text>
<text text-anchor="middle" x="261" y="-201.85" font-family="Helvetica,Arial,sans-serif" font-size="10.00" fill="grey">(⊤)</text>
</g>
<!-- Scalar -->
<g id="node2" class="node">
<title>Scalar</title>
<polygon fill="none" stroke="grey" points="162,-160.1 90,-160.1 90,-131.3 162,-131.3 162,-160.1"/>
<text text-anchor="middle" x="126" y="-141.82" font-family="Helvetica,Arial,sans-serif" font-size="10.00" fill="grey">Scalar</text>
</g>
<!-- Scalar&#45;&gt;Type -->
<g id="edge1" class="edge">
<title>Scalar&#45;&gt;Type</title>
<path fill="none" stroke="black" d="M155.29,-160.51C174.13,-169.39 198.9,-181.07 219.72,-190.89"/>
<polygon fill="none" stroke="black" points="217.98,-193.94 228.52,-195.03 220.96,-187.6 217.98,-193.94"/>
</g>
<!-- Datatype -->
<g id="node3" class="node">
<title>Datatype</title>
<polygon fill="none" stroke="black" points="72,-95.3 0,-95.3 0,-66.5 72,-66.5 72,-95.3"/>
<text text-anchor="middle" x="36" y="-77.03" font-family="Helvetica,Arial,sans-serif" font-size="10.00">Datatype</text>
</g>
<!-- Datatype&#45;&gt;Scalar -->
<g id="edge2" class="edge">
<title>Datatype&#45;&gt;Scalar</title>
<path fill="none" stroke="black" d="M55.53,-95.53C67.59,-103.94 83.3,-114.9 96.82,-124.34"/>
<polygon fill="none" stroke="black" points="94.75,-127.16 104.96,-130.02 98.76,-121.42 94.75,-127.16"/>
</g>
<!-- Sum -->
<g id="node4" class="node">
<title>Sum</title>
<polygon fill="none" stroke="grey" points="252,-160.1 180,-160.1 180,-131.3 252,-131.3 252,-160.1"/>
<text text-anchor="middle" x="216" y="-141.82" font-family="Helvetica,Arial,sans-serif" font-size="10.00" fill="grey">Sum</text>
</g>
<!-- Sum&#45;&gt;Type -->
<g id="edge3" class="edge">
<title>Sum&#45;&gt;Type</title>
<path fill="none" stroke="black" d="M225.76,-160.51C231.1,-168.06 237.86,-177.61 244.02,-186.34"/>
<polygon fill="none" stroke="black" points="241.12,-188.3 249.75,-194.44 246.84,-184.26 241.12,-188.3"/>
</g>
<!-- Enumeration -->
<g id="node5" class="node">
<title>Enumeration</title>
<polygon fill="none" stroke="black" points="162,-95.3 90,-95.3 90,-66.5 162,-66.5 162,-95.3"/>
<text text-anchor="middle" x="126" y="-77.03" font-family="Helvetica,Arial,sans-serif" font-size="10.00">Enumeration</text>
</g>
<!-- Enumeration&#45;&gt;Scalar -->
<g id="edge4" class="edge">
<title>Enumeration&#45;&gt;Scalar</title>
<path fill="none" stroke="black" d="M126,-95.53C126,-102.6 126,-111.48 126,-119.73"/>
<polygon fill="none" stroke="black" points="122.5,-119.59 126,-129.59 129.5,-119.59 122.5,-119.59"/>
</g>
<!-- Union -->
<g id="node6" class="node">
<title>Union</title>
<polygon fill="none" stroke="black" points="252,-95.3 180,-95.3 180,-66.5 252,-66.5 252,-95.3"/>
<text text-anchor="middle" x="216" y="-77.03" font-family="Helvetica,Arial,sans-serif" font-size="10.00">Union</text>
</g>
<!-- Union&#45;&gt;Sum -->
<g id="edge5" class="edge">
<title>Union&#45;&gt;Sum</title>
<path fill="none" stroke="black" d="M216,-95.53C216,-102.6 216,-111.48 216,-119.73"/>
<polygon fill="none" stroke="black" points="212.5,-119.59 216,-129.59 219.5,-119.59 212.5,-119.59"/>
</g>
<!-- Product -->
<g id="node7" class="node">
<title>Product</title>
<polygon fill="none" stroke="grey" points="342,-160.1 270,-160.1 270,-131.3 342,-131.3 342,-160.1"/>
<text text-anchor="middle" x="306" y="-141.82" font-family="Helvetica,Arial,sans-serif" font-size="10.00" fill="grey">Product</text>
</g>
<!-- Product&#45;&gt;Type -->
<g id="edge6" class="edge">
<title>Product&#45;&gt;Type</title>
<path fill="none" stroke="black" d="M296.24,-160.51C290.9,-168.06 284.14,-177.61 277.98,-186.34"/>
<polygon fill="none" stroke="black" points="275.16,-184.26 272.25,-194.44 280.88,-188.3 275.16,-184.26"/>
</g>
<!-- Entity -->
<g id="node8" class="node">
<title>Entity</title>
<polygon fill="none" stroke="black" points="342,-95.3 270,-95.3 270,-66.5 342,-66.5 342,-95.3"/>
<text text-anchor="middle" x="306" y="-77.03" font-family="Helvetica,Arial,sans-serif" font-size="10.00">Entity</text>
</g>
<!-- Entity&#45;&gt;Product -->
<g id="edge7" class="edge">
<title>Entity&#45;&gt;Product</title>
<path fill="none" stroke="black" d="M306,-95.53C306,-102.6 306,-111.48 306,-119.73"/>
<polygon fill="none" stroke="black" points="302.5,-119.59 306,-129.59 309.5,-119.59 302.5,-119.59"/>
</g>
<!-- Event -->
<g id="node9" class="node">
<title>Event</title>
<polygon fill="none" stroke="black" points="432,-95.3 360,-95.3 360,-66.5 432,-66.5 432,-95.3"/>
<text text-anchor="middle" x="396" y="-77.03" font-family="Helvetica,Arial,sans-serif" font-size="10.00">Event</text>
</g>
<!-- Event&#45;&gt;Product -->
<g id="edge8" class="edge">
<title>Event&#45;&gt;Product</title>
<path fill="none" stroke="black" d="M376.47,-95.53C364.41,-103.94 348.7,-114.9 335.18,-124.34"/>
<polygon fill="none" stroke="black" points="333.24,-121.42 327.04,-130.02 337.25,-127.16 333.24,-121.42"/>
</g>
<!-- Structure -->
<g id="node10" class="node">
<title>Structure</title>
<polygon fill="none" stroke="black" points="522,-95.3 450,-95.3 450,-66.5 522,-66.5 522,-95.3"/>
<text text-anchor="middle" x="486" y="-77.03" font-family="Helvetica,Arial,sans-serif" font-size="10.00">Structure</text>
</g>
<!-- Structure&#45;&gt;Product -->
<g id="edge9" class="edge">
<title>Structure&#45;&gt;Product</title>
<path fill="none" stroke="black" d="M449.57,-94.61C421.76,-104.31 383.21,-117.76 353.06,-128.28"/>
<polygon fill="none" stroke="black" points="352.09,-124.91 343.8,-131.51 354.4,-131.52 352.09,-124.91"/>
</g>
<!-- Unknown -->
<g id="node11" class="node">
<title>Unknown</title>
<polygon fill="none" stroke="black" points="432,-160.1 360,-160.1 360,-131.3 432,-131.3 432,-160.1"/>
<text text-anchor="middle" x="396" y="-141.82" font-family="Helvetica,Arial,sans-serif" font-size="10.00">Unknown</text>
</g>
<!-- Unknown&#45;&gt;Type -->
<g id="edge10" class="edge">
<title>Unknown&#45;&gt;Type</title>
<path fill="none" stroke="black" d="M366.71,-160.51C347.87,-169.39 323.1,-181.07 302.28,-190.89"/>
<polygon fill="none" stroke="black" points="301.04,-187.6 293.48,-195.03 304.02,-193.94 301.04,-187.6"/>
</g>
<!-- None -->
<g id="node12" class="node">
<title>None</title>
<polygon fill="none" stroke="grey" points="297,-30.5 225,-30.5 225,0 297,0 297,-30.5"/>
<text text-anchor="middle" x="261" y="-17" font-family="Helvetica,Arial,sans-serif" font-size="10.00" fill="grey">None</text>
<text text-anchor="middle" x="261" y="-5.75" font-family="Helvetica,Arial,sans-serif" font-size="10.00" fill="grey">(⊥)</text>
</g>
<!-- None&#45;&gt;Datatype -->
<g id="edge11" class="edge">
<title>None&#45;&gt;Datatype</title>
<path fill="none" stroke="black" d="M224.75,-26.17C190.63,-35.56 137.84,-50.18 83.27,-65.87"/>
<polygon fill="none" stroke="black" points="82.43,-62.47 73.79,-68.6 84.37,-69.2 82.43,-62.47"/>
</g>
<!-- None&#45;&gt;Enumeration -->
<g id="edge12" class="edge">
<title>None&#45;&gt;Enumeration</title>
<path fill="none" stroke="black" d="M230.03,-30.85C210.94,-39.85 186.27,-51.49 165.74,-61.16"/>
<polygon fill="none" stroke="black" points="164.36,-57.94 156.81,-65.37 167.35,-64.28 164.36,-57.94"/>
</g>
<!-- None&#45;&gt;Union -->
<g id="edge13" class="edge">
<title>None&#45;&gt;Union</title>
<path fill="none" stroke="black" d="M250.79,-30.69C245.29,-38.47 238.37,-48.26 232.16,-57.04"/>
<polygon fill="none" stroke="black" points="229.34,-54.96 226.43,-65.15 235.06,-59 229.34,-54.96"/>
</g>
<!-- None&#45;&gt;Entity -->
<g id="edge14" class="edge">
<title>None&#45;&gt;Entity</title>
<path fill="none" stroke="black" d="M271.21,-30.69C276.71,-38.47 283.63,-48.26 289.84,-57.04"/>
<polygon fill="none" stroke="black" points="286.94,-59 295.57,-65.15 292.66,-54.96 286.94,-59"/>
</g>
<!-- None&#45;&gt;Event -->
<g id="edge15" class="edge">
<title>None&#45;&gt;Event</title>
<path fill="none" stroke="black" d="M291.97,-30.85C311.06,-39.85 335.73,-51.49 356.26,-61.16"/>
<polygon fill="none" stroke="black" points="354.65,-64.28 365.19,-65.37 357.64,-57.94 354.65,-64.28"/>
</g>
<!-- None&#45;&gt;Structure -->
<g id="edge16" class="edge">
<title>None&#45;&gt;Structure</title>
<path fill="none" stroke="black" d="M297.25,-26.17C331.37,-35.56 384.16,-50.18 438.73,-65.87"/>
<polygon fill="none" stroke="black" points="437.63,-69.2 448.21,-68.6 439.57,-62.47 437.63,-69.2"/>
</g>
</g>
</svg>
