<?xml version="1.0" encoding="UTF-8"?><svg id="Layer_2" xmlns="http://www.w3.org/2000/svg" viewBox="0 0 645.87 284.88"><defs><style>.cls-1{fill:#94d7e3;}.cls-1,.cls-2,.cls-3,.cls-4,.cls-5{stroke:#231f20;stroke-linecap:round;stroke-linejoin:round;stroke-width:3px;}.cls-2{fill:#f37d7d;}.cls-3{fill:#faf17e;}.cls-4{fill:#e68ebc;}.cls-6{fill:#fff;stroke-width:0px;}.cls-5{fill:none;}</style></defs><g id="Lines2"><polygon class="cls-6" points="108.57 30.76 96.56 1.67 61.4 1.67 1.5 146.75 35.72 229.63 57.75 229.63 46.65 256.53 57.91 283.38 93.07 283.38 152.97 138.29 119.68 57.65 97.25 57.65 108.57 30.76"/><path class="cls-6" d="m272.04,1.67h-60.68l-47.14,114.19,57.36,138.94h35.16l52.88-128.08v-34.01L272.04,1.67Zm-32.08,154.91l-16.68-40.41,16.49-39.94,16.68,40.41-16.49,39.94Z"/><polygon class="cls-6" points="432.25 254.6 420.37 283.38 385.21 283.38 327.85 144.44 339.73 115.66 373.82 115.66 373.82 30.28 385.7 1.5 420.86 1.5 478.8 141.84 466.92 170.62 431.76 170.62 422.93 149.23 388.75 149.23 432.25 254.6"/><polygon class="cls-6" points="503.73 87.31 491.95 115.85 549.31 254.79 584.47 254.79 644.37 109.7 633.28 82.85 598.12 82.85 567.68 156.57 539.09 87.31 503.73 87.31"/><polyline class="cls-5" points="70.88 229.63 35.72 229.63 1.5 146.75 61.4 1.67 96.56 1.67"/><line class="cls-5" x1="1.5" y1="146.75" x2="36.66" y2="146.75"/><line class="cls-5" x1="97.85" y1="57.65" x2="119.68" y2="57.65"/><polyline class="cls-5" points="93.07 283.38 57.91 283.38 46.65 256.53 57.75 229.63"/><line class="cls-5" x1="46.65" y1="256.53" x2="81.98" y2="256.53"/><polygon class="cls-1" points="108.57 30.76 96.56 1.67 36.66 146.75 70.88 229.63 116.83 118.32 127.94 145.22 81.98 256.53 93.07 283.38 152.97 138.29 119.68 57.65 71.66 173.96 60.56 147.07 108.57 30.76"/><path class="cls-2" d="m272.04,1.67h-25.51l-47.14,114.19,57.36,138.94,52.88-128.08v-34.01L272.04,1.67Zm-14.5,197.49l-34.26-82.99,34.07-82.53,34.26,82.99-34.07,82.53Z"/><polyline class="cls-5" points="246.53 1.67 211.36 1.67 164.22 115.85 221.58 254.79 256.74 254.79"/><line class="cls-5" x1="164.22" y1="115.85" x2="199.38" y2="115.85"/><line class="cls-5" x1="291.61" y1="116.63" x2="256.45" y2="116.63"/><line class="cls-5" x1="256.45" y1="116.63" x2="240.41" y2="155.48"/><line class="cls-5" x1="256.45" y1="116.63" x2="240.31" y2="77.54"/><polygon class="cls-3" points="466.92 170.62 478.8 141.84 420.86 1.5 408.98 30.28 408.98 115.66 374.89 115.66 363.01 144.44 420.37 283.38 432.25 254.6 388.75 149.23 429.36 149.23 429.36 79.65 466.92 170.62"/><polyline class="cls-5" points="466.92 170.62 431.76 170.62 422.93 149.23"/><polyline class="cls-5" points="420.86 1.5 385.7 1.5 373.82 30.28 373.82 115.66"/><polyline class="cls-5" points="374.89 115.66 339.73 115.66 327.85 144.44 385.21 283.38 420.37 283.38"/><line class="cls-5" x1="327.85" y1="144.44" x2="363.01" y2="144.44"/><line class="cls-5" x1="373.82" y1="30.28" x2="408.98" y2="30.28"/><polygon class="cls-4" points="633.28 82.85 644.37 109.7 584.47 254.79 527.11 115.85 539.09 87.31 585.27 199.16 633.28 82.85"/><polyline class="cls-5" points="539.09 87.31 503.73 87.31 491.95 115.85 549.31 254.79 584.47 254.79"/><polyline class="cls-5" points="633.28 82.85 598.12 82.85 567.68 156.57"/><line class="cls-5" x1="527.11" y1="115.85" x2="491.95" y2="115.85"/></g></svg>