<?xml version="1.0" encoding="UTF-8"?>
<svg id="Layer_2" xmlns="http://www.w3.org/2000/svg" viewBox="0 0 794.4 794.4">
  <defs/>
  <g id="Canvas_1" fill="none" stroke-opacity="1" stroke-dasharray="none" fill-opacity="1" stroke="none">
    <title>Canvas 1</title>
    <rect opacity="0.0" x="0" y="0" width="794.4" height="794.4"/>
    <g id="Canvas_1_Layer_1">
      <title>Layer 1</title>
      <g id="Group_2">
        <title>Lines2</title>
        <g id="Graphic_29">
          <path d="M 531.09 379.07 L 431.83 620.05 L 402.99 624.89 L 416.56 657.11 L 360.02 794.38 L 201.30001 414.3 L 375.96 0 Z" fill="#565757"/>
        </g>
        <g id="Graphic_28">
          <path d="M 370.61 296.61 L 358.6 267.52 L 323.43 267.52 L 263.53 412.61 L 297.75 495.49 L 319.79 495.49 L 308.68 522.39 L 319.94 549.24 L 355.1 549.24 L 415 404.15 L 381.71 323.51 L 359.29 323.51 Z" fill="white"/>
        </g>
        <g id="Graphic_27">
          <path d="M 462.16 87.14 L 401.48 87.14 L 354.34 201.33 L 411.7 340.27 L 446.86 340.27 L 499.74 212.19 L 499.74 178.18 L 462.16 87.15 Z M 430.08 242.05 L 413.4 201.64 L 429.89 161.7 L 446.57 202.11 Z" fill="white"/>
        </g>
        <g id="Graphic_26">
          <path d="M 461.77 737.05 L 449.88 765.83 L 414.72 765.83 L 357.36 626.9 L 369.24 598.12 L 403.33 598.12 L 403.33 512.73 L 415.21 483.95 L 450.38 483.95 L 508.32 624.3 L 496.44 653.07 L 461.27 653.07 L 452.44 631.68 L 418.26 631.68 Z" fill="white"/>
        </g>
        <g id="Graphic_25">
          <path d="M 452.46 385.22 L 440.68 413.77 L 498.04 552.7 L 533.2 552.7 L 593.1 407.61 L 582.01 380.76 L 546.85 380.76 L 516.41 454.48 L 487.82 385.22 Z" fill="white"/>
        </g>
        <g id="Line_24">
          <path d="M 332.91 495.49 L 297.75 495.49 L 263.53 412.61 L 323.43 267.52 L 358.6 267.52" stroke="#231f20" stroke-linecap="round" stroke-linejoin="round" stroke-width="3"/>
        </g>
        <g id="Line_23">
          <line x1="263.53" y1="412.61" x2="298.7" y2="412.61" stroke="#231f20" stroke-linecap="round" stroke-linejoin="round" stroke-width="3"/>
        </g>
        <g id="Line_22">
          <line x1="359.88" y1="323.51" x2="381.71" y2="323.51" stroke="#231f20" stroke-linecap="round" stroke-linejoin="round" stroke-width="3"/>
        </g>
        <g id="Line_21">
          <path d="M 355.1 549.24 L 319.94 549.24 L 308.68 522.39 L 319.79 495.49" stroke="#231f20" stroke-linecap="round" stroke-linejoin="round" stroke-width="3"/>
        </g>
        <g id="Line_20">
          <line x1="308.68" y1="522.39" x2="344.02" y2="522.39" stroke="#231f20" stroke-linecap="round" stroke-linejoin="round" stroke-width="3"/>
        </g>
        <g id="Graphic_19">
          <path d="M 370.61 296.61 L 358.6 267.52 L 298.7 412.61 L 332.91 495.49 L 378.87 384.18 L 389.97 411.08 L 344.02 522.39 L 355.1 549.24 L 415 404.15 L 381.71 323.51 L 333.69 439.82 L 322.59 412.92 Z" fill="#94d7e3"/>
          <path d="M 370.61 296.61 L 358.6 267.52 L 298.7 412.61 L 332.91 495.49 L 378.87 384.18 L 389.97 411.08 L 344.02 522.39 L 355.1 549.24 L 415 404.15 L 381.71 323.51 L 333.69 439.82 L 322.59 412.92 Z" stroke="#231f20" stroke-linecap="round" stroke-linejoin="round" stroke-width="3"/>
        </g>
        <g id="Graphic_18">
          <path d="M 462.16 87.14 L 436.65 87.14 L 389.51 201.33 L 446.87 340.27 L 499.75 212.19 L 499.75 178.18 L 462.17 87.15 Z M 447.66 284.63 L 413.4 201.64 L 447.47 119.11 L 481.73 202.1 Z" fill="#f37d7d"/>
          <path d="M 462.16 87.14 L 436.65 87.14 L 389.51 201.33 L 446.87 340.27 L 499.75 212.19 L 499.75 178.18 L 462.17 87.15 Z M 447.66 284.63 L 413.4 201.64 L 447.47 119.11 L 481.73 202.1 Z" stroke="#231f20" stroke-linecap="round" stroke-linejoin="round" stroke-width="3"/>
        </g>
        <g id="Line_17">
          <path d="M 436.65 87.14 L 401.48 87.14 L 354.34 201.33 L 411.7 340.27 L 446.86 340.27" stroke="#231f20" stroke-linecap="round" stroke-linejoin="round" stroke-width="3"/>
        </g>
        <g id="Line_16">
          <line x1="354.34" y1="201.33" x2="389.5" y2="201.33" stroke="#231f20" stroke-linecap="round" stroke-linejoin="round" stroke-width="3"/>
        </g>
        <g id="Line_15">
          <line x1="481.73" y1="202.11" x2="446.57" y2="202.11" stroke="#231f20" stroke-linecap="round" stroke-linejoin="round" stroke-width="3"/>
        </g>
        <g id="Line_14">
          <line x1="446.57" y1="202.11" x2="430.53" y2="240.96" stroke="#231f20" stroke-linecap="round" stroke-linejoin="round" stroke-width="3"/>
        </g>
        <g id="Line_13">
          <line x1="446.57" y1="202.11" x2="430.43" y2="163.02" stroke="#231f20" stroke-linecap="round" stroke-linejoin="round" stroke-width="3"/>
        </g>
        <g id="Graphic_12">
          <path d="M 496.44 653.07 L 508.32 624.3 L 450.38 483.95 L 438.5 512.73 L 438.5 598.12 L 404.41 598.12 L 392.52 626.9 L 449.88 765.83 L 461.77 737.05 L 418.26 631.68 L 458.88 631.68 L 458.88 562.1 Z" fill="#faf17e"/>
          <path d="M 496.44 653.07 L 508.32 624.3 L 450.38 483.95 L 438.5 512.73 L 438.5 598.12 L 404.41 598.12 L 392.52 626.9 L 449.88 765.83 L 461.77 737.05 L 418.26 631.68 L 458.88 631.68 L 458.88 562.1 Z" stroke="#231f20" stroke-linecap="round" stroke-linejoin="round" stroke-width="3"/>
        </g>
        <g id="Line_11">
          <path d="M 496.44 653.07 L 461.27 653.07 L 452.44 631.68" stroke="#231f20" stroke-linecap="round" stroke-linejoin="round" stroke-width="3"/>
        </g>
        <g id="Line_10">
          <path d="M 450.38 483.95 L 415.21 483.95 L 403.33 512.73 L 403.33 598.12" stroke="#231f20" stroke-linecap="round" stroke-linejoin="round" stroke-width="3"/>
        </g>
        <g id="Line_9">
          <path d="M 404.41 598.12 L 369.24 598.12 L 357.36 626.9 L 414.72 765.83 L 449.88 765.83" stroke="#231f20" stroke-linecap="round" stroke-linejoin="round" stroke-width="3"/>
        </g>
        <g id="Line_8">
          <line x1="357.36" y1="626.9" x2="392.52" y2="626.9" stroke="#231f20" stroke-linecap="round" stroke-linejoin="round" stroke-width="3"/>
        </g>
        <g id="Line_7">
          <line x1="403.33" y1="512.73" x2="438.5" y2="512.73" stroke="#231f20" stroke-linecap="round" stroke-linejoin="round" stroke-width="3"/>
        </g>
        <g id="Graphic_6">
          <path d="M 582.01 380.76 L 593.1 407.61 L 533.2 552.7 L 475.84 413.77 L 487.82 385.22 L 534 497.07 Z" fill="#e68ebc"/>
          <path d="M 582.01 380.76 L 593.1 407.61 L 533.2 552.7 L 475.84 413.77 L 487.82 385.22 L 534 497.07 Z" stroke="#231f20" stroke-linecap="round" stroke-linejoin="round" stroke-width="3"/>
        </g>
        <g id="Line_5">
          <path d="M 487.82 385.22 L 452.46 385.22 L 440.68 413.77 L 498.04 552.7 L 533.2 552.7" stroke="#231f20" stroke-linecap="round" stroke-linejoin="round" stroke-width="3"/>
        </g>
        <g id="Line_4">
          <path d="M 582.01 380.76 L 546.85 380.76 L 516.41 454.48" stroke="#231f20" stroke-linecap="round" stroke-linejoin="round" stroke-width="3"/>
        </g>
        <g id="Line_3">
          <line x1="475.84" y1="413.77" x2="440.68" y2="413.77" stroke="#231f20" stroke-linecap="round" stroke-linejoin="round" stroke-width="3"/>
        </g>
      </g>
    </g>
  </g>
</svg>
