<?xml version="1.0" encoding="UTF-8"?><svg id="Layer_2" xmlns="http://www.w3.org/2000/svg" viewBox="0 0 448.95 800.38"><defs><style>.cls-1{fill:#94d7e3;}.cls-1,.cls-2,.cls-3,.cls-4,.cls-5{stroke-width:3px;}.cls-1,.cls-2,.cls-3,.cls-4,.cls-5,.cls-6{stroke:#231f20;stroke-linecap:round;stroke-linejoin:round;}.cls-2{fill:#f37d7d;}.cls-3{fill:#faf17e;}.cls-4{fill:#e68ebc;}.cls-7{fill:#fff;stroke-width:0px;}.cls-5,.cls-6{fill:none;}.cls-6{stroke-width:6px;}</style></defs><g id="Lines2"><polygon class="cls-7" points="172.31 299.61 160.3 270.52 125.13 270.52 65.23 415.61 99.45 498.49 121.49 498.49 110.38 525.39 121.64 552.24 156.8 552.24 216.7 407.15 183.41 326.51 160.99 326.51 172.31 299.61"/><path class="cls-7" d="m263.86,90.14h-60.68l-47.14,114.19,57.36,138.94h35.16l52.88-128.08v-34.01l-37.58-91.03Zm-32.08,154.91l-16.68-40.41,16.49-39.94,16.68,40.41-16.49,39.94Z"/><polygon class="cls-7" points="263.47 740.05 251.58 768.83 216.42 768.83 159.06 629.9 170.94 601.12 205.03 601.12 205.03 515.73 216.91 486.95 252.08 486.95 310.02 627.3 298.14 656.07 262.97 656.07 254.14 634.68 219.96 634.68 263.47 740.05"/><polygon class="cls-7" points="254.16 388.22 242.38 416.77 299.74 555.7 334.9 555.7 394.8 410.61 383.71 383.76 348.55 383.76 318.11 457.48 289.52 388.22 254.16 388.22"/><polyline class="cls-5" points="134.61 498.49 99.45 498.49 65.23 415.61 125.13 270.52 160.3 270.52"/><line class="cls-5" x1="65.23" y1="415.61" x2="100.4" y2="415.61"/><line class="cls-5" x1="161.58" y1="326.51" x2="183.41" y2="326.51"/><polyline class="cls-5" points="156.8 552.24 121.64 552.24 110.38 525.39 121.49 498.49"/><line class="cls-5" x1="110.38" y1="525.39" x2="145.72" y2="525.39"/><polygon class="cls-1" points="172.31 299.61 160.3 270.52 100.4 415.61 134.61 498.49 180.57 387.18 191.67 414.08 145.72 525.39 156.8 552.24 216.7 407.15 183.41 326.51 135.39 442.82 124.29 415.92 172.31 299.61"/><path class="cls-2" d="m263.86,90.14h-25.51l-47.14,114.19,57.36,138.94,52.88-128.08v-34.01l-37.58-91.03Zm-14.5,197.49l-34.26-82.99,34.07-82.53,34.26,82.99-34.07,82.53Z"/><polyline class="cls-5" points="238.35 90.14 203.18 90.14 156.04 204.33 213.4 343.27 248.56 343.27"/><line class="cls-5" x1="156.04" y1="204.33" x2="191.2" y2="204.33"/><line class="cls-5" x1="283.43" y1="205.11" x2="248.27" y2="205.11"/><line class="cls-5" x1="248.27" y1="205.11" x2="232.23" y2="243.96"/><line class="cls-5" x1="248.27" y1="205.11" x2="232.13" y2="166.02"/><polygon class="cls-3" points="298.14 656.07 310.02 627.3 252.08 486.95 240.2 515.73 240.2 601.12 206.11 601.12 194.22 629.9 251.58 768.83 263.47 740.05 219.96 634.68 260.58 634.68 260.58 565.1 298.14 656.07"/><polyline class="cls-5" points="298.14 656.07 262.97 656.07 254.14 634.68"/><polyline class="cls-5" points="252.08 486.95 216.91 486.95 205.03 515.73 205.03 601.12"/><polyline class="cls-5" points="206.11 601.12 170.94 601.12 159.06 629.9 216.42 768.83 251.58 768.83"/><line class="cls-5" x1="159.06" y1="629.9" x2="194.22" y2="629.9"/><line class="cls-5" x1="205.03" y1="515.73" x2="240.2" y2="515.73"/><polygon class="cls-4" points="383.71 383.76 394.8 410.61 334.9 555.7 277.54 416.77 289.52 388.22 335.7 500.07 383.71 383.76"/><polyline class="cls-5" points="289.52 388.22 254.16 388.22 242.38 416.77 299.74 555.7 334.9 555.7"/><polyline class="cls-5" points="383.71 383.76 348.55 383.76 318.11 457.48"/><line class="cls-5" x1="277.54" y1="416.77" x2="242.38" y2="416.77"/><polygon class="cls-6" points="291.16 3.85 445.95 382.07 275.21 797.38 161.72 797.38 3 417.3 177.66 3 291.16 3.85"/></g></svg>