<?xml version="1.0" encoding="UTF-8"?>
<svg xmlns="http://www.w3.org/2000/svg" width="549" height="113">
   <defs>
      <style type="text/css">
    @namespace "http://www.w3.org/2000/svg";
    .line                 {fill: none; stroke: #332900; stroke-width: 1;}
    .bold-line            {stroke: #141000; shape-rendering: crispEdges; stroke-width: 2;}
    .thin-line            {stroke: #1F1800; shape-rendering: crispEdges}
    .filled               {fill: #332900; stroke: none;}
    text.terminal         {font-family: Verdana, Sans-serif;
                            font-size: 12px;
                            fill: #141000;
                            font-weight: bold;
                          }
    text.nonterminal      {font-family: Verdana, Sans-serif;
                            font-size: 12px;
                            fill: #1A1400;
                            font-weight: normal;
                          }
    text.regexp           {font-family: Verdana, Sans-serif;
                            font-size: 12px;
                            fill: #1F1800;
                            font-weight: normal;
                          }
    rect, circle, polygon {fill: #332900; stroke: #332900;}
    rect.terminal         {fill: #FFDB4D; stroke: #332900; stroke-width: 1;}
    rect.nonterminal      {fill: #FFEC9E; stroke: #332900; stroke-width: 1;}
    rect.text             {fill: none; stroke: none;}
    polygon.regexp        {fill: #FFF4C7; stroke: #332900; stroke-width: 1;}
  </style>
   </defs>
   <polygon points="9 17 1 13 1 21"/>
   <polygon points="17 17 9 13 9 21"/>
   <a xmlns:xlink="http://www.w3.org/1999/xlink"
       xlink:href="#HasType"
       xlink:title="HasType">
      <rect x="31" y="3" width="74" height="32"/>
      <rect x="29" y="1" width="74" height="32" class="nonterminal"/>
      <text class="nonterminal" x="39" y="21">HasType</text>
   </a>
   <rect x="145" y="3" width="28" height="32" rx="10"/>
   <rect x="143"
          y="1"
          width="28"
          height="32"
          class="terminal"
          rx="10"/>
   <text class="terminal" x="153" y="21">_</text>
   <a xmlns:xlink="http://www.w3.org/1999/xlink"
       xlink:href="#IdentiferReference"
       xlink:title="IdentiferReference">
      <rect x="145" y="47" width="138" height="32"/>
      <rect x="143" y="45" width="138" height="32" class="nonterminal"/>
      <text class="nonterminal" x="153" y="65">IdentiferReference</text>
   </a>
   <a xmlns:xlink="http://www.w3.org/1999/xlink"
       xlink:href="#TypeClassParameters"
       xlink:title="TypeClassParameters">
      <rect x="323" y="79" width="158" height="32"/>
      <rect x="321" y="77" width="158" height="32" class="nonterminal"/>
      <text class="nonterminal" x="331" y="97">TypeClassParameters</text>
   </a>
   <path class="line"
          d="m17 17 h2 m0 0 h10 m74 0 h10 m20 0 h10 m28 0 h10 m0 0 h328 m-396 0 h20 m376 0 h20 m-416 0 q10 0 10 10 m396 0 q0 -10 10 -10 m-406 10 v24 m396 0 v-24 m-396 24 q0 10 10 10 m376 0 q10 0 10 -10 m-386 10 h10 m138 0 h10 m20 0 h10 m0 0 h168 m-198 0 h20 m178 0 h20 m-218 0 q10 0 10 10 m198 0 q0 -10 10 -10 m-208 10 v12 m198 0 v-12 m-198 12 q0 10 10 10 m178 0 q10 0 10 -10 m-188 10 h10 m158 0 h10 m43 -76 h-3"/>
   <polygon points="539 17 547 13 547 21"/>
   <polygon points="539 17 531 13 531 21"/>
</svg>
