<?xml version="1.0" encoding="UTF-8"?>
<svg xmlns="http://www.w3.org/2000/svg" width="379" height="103">
   <defs>
      <style type="text/css">
    @namespace "http://www.w3.org/2000/svg";
    .line                 {fill: none; stroke: #332900; stroke-width: 1;}
    .bold-line            {stroke: #141000; shape-rendering: crispEdges; stroke-width: 2;}
    .thin-line            {stroke: #1F1800; shape-rendering: crispEdges}
    .filled               {fill: #332900; stroke: none;}
    text.terminal         {font-family: Verdana, Sans-serif;
                            font-size: 12px;
                            fill: #141000;
                            font-weight: bold;
                          }
    text.nonterminal      {font-family: Verdana, Sans-serif;
                            font-size: 12px;
                            fill: #1A1400;
                            font-weight: normal;
                          }
    text.regexp           {font-family: Verdana, Sans-serif;
                            font-size: 12px;
                            fill: #1F1800;
                            font-weight: normal;
                          }
    rect, circle, polygon {fill: #332900; stroke: #332900;}
    rect.terminal         {fill: #FFDB4D; stroke: #332900; stroke-width: 1;}
    rect.nonterminal      {fill: #FFEC9E; stroke: #332900; stroke-width: 1;}
    rect.text             {fill: none; stroke: none;}
    polygon.regexp        {fill: #FFF4C7; stroke: #332900; stroke-width: 1;}
  </style>
   </defs>
   <polygon points="9 17 1 13 1 21"/>
   <polygon points="17 17 9 13 9 21"/>
   <rect x="31" y="3" width="26" height="32" rx="10"/>
   <rect x="29"
          y="1"
          width="26"
          height="32"
          class="terminal"
          rx="10"/>
   <text class="terminal" x="39" y="21">(</text>
   <rect x="97" y="3" width="28" height="32" rx="10"/>
   <rect x="95"
          y="1"
          width="28"
          height="32"
          class="terminal"
          rx="10"/>
   <text class="terminal" x="105" y="21">_</text>
   <a xmlns:xlink="http://www.w3.org/1999/xlink"
       xlink:href="#TypeClassReference"
       xlink:title="TypeClassReference">
      <rect x="117" y="69" width="148" height="32"/>
      <rect x="115" y="67" width="148" height="32" class="nonterminal"/>
      <text class="nonterminal" x="125" y="87">TypeClassReference</text>
   </a>
   <rect x="325" y="3" width="26" height="32" rx="10"/>
   <rect x="323"
          y="1"
          width="26"
          height="32"
          class="terminal"
          rx="10"/>
   <text class="terminal" x="333" y="21">)</text>
   <path class="line"
          d="m17 17 h2 m0 0 h10 m26 0 h10 m20 0 h10 m28 0 h10 m0 0 h160 m-228 0 h20 m208 0 h20 m-248 0 q10 0 10 10 m228 0 q0 -10 10 -10 m-238 10 v46 m228 0 v-46 m-228 46 q0 10 10 10 m208 0 q10 0 10 -10 m-198 10 h10 m148 0 h10 m-188 0 l20 0 m-1 0 q-9 0 -9 -10 l0 -12 q0 -10 10 -10 m168 32 l20 0 m-20 0 q10 0 10 -10 l0 -12 q0 -10 -10 -10 m-168 0 h10 m0 0 h158 m40 -34 h10 m26 0 h10 m3 0 h-3"/>
   <polygon points="369 17 377 13 377 21"/>
   <polygon points="369 17 361 13 361 21"/>
</svg>
