<?xml version="1.0" encoding="UTF-8" standalone="no"?>
<!DOCTYPE svg PUBLIC "-//W3C//DTD SVG 1.1//EN"
 "http://www.w3.org/Graphics/SVG/1.1/DTD/svg11.dtd">
<!-- Generated by graphviz version 9.0.0 (20230911.1827)
 -->
<!-- Title: G Pages: 1 -->
<svg width="300pt" height="335pt"
 viewBox="0.00 0.00 300.00 334.50" xmlns="http://www.w3.org/2000/svg" xmlns:xlink="http://www.w3.org/1999/xlink">
<g id="graph0" class="graph" transform="scale(1 1) rotate(0) translate(4 330.5)">
<title>G</title>
<g id="clust1" class="cluster">
<title>cluster_0</title>
<polygon fill="none" stroke="grey" stroke-dasharray="5,2" points="10,-167.25 10,-318.5 142,-318.5 142,-167.25 10,-167.25"/>
<text text-anchor="middle" x="76" y="-305" font-family="Helvetica,Arial,sans-serif" font-size="10.00" fill="grey">Abstract Models</text>
</g>
<g id="clust2" class="cluster">
<title>cluster_1</title>
<polygon fill="none" stroke="grey" stroke-dasharray="5,2" points="8,-8 8,-159.25 144,-159.25 144,-8 8,-8"/>
<text text-anchor="middle" x="76" y="-145.75" font-family="Helvetica,Arial,sans-serif" font-size="10.00" fill="grey">Concrete Models</text>
</g>
<g id="clust3" class="cluster">
<title>cluster_2</title>
<polygon fill="none" stroke="grey" stroke-dasharray="5,2" points="152,-80 152,-159.25 284,-159.25 284,-80 152,-80"/>
<text text-anchor="middle" x="218" y="-145.75" font-family="Helvetica,Arial,sans-serif" font-size="10.00" fill="grey">Artifacts</text>
</g>
<!-- concept -->
<g id="node1" class="node">
<title>concept</title>
<polygon fill="none" stroke="black" points="130,-287.25 22,-287.25 22,-251.25 130,-251.25 130,-287.25"/>
<text text-anchor="middle" x="76" y="-271" font-family="Helvetica,Arial,sans-serif" font-size="10.00">Conceptual Models</text>
<text text-anchor="middle" x="76" y="-259.75" font-family="Helvetica,Arial,sans-serif" font-size="10.00">(e.g. concept maps)</text>
</g>
<!-- logical -->
<g id="node2" class="node">
<title>logical</title>
<polygon fill="none" stroke="black" points="130,-215.25 22,-215.25 22,-179.25 130,-179.25 130,-215.25"/>
<text text-anchor="middle" x="76" y="-199" font-family="Helvetica,Arial,sans-serif" font-size="10.00">Logical Models</text>
<text text-anchor="middle" x="76" y="-187.75" font-family="Helvetica,Arial,sans-serif" font-size="10.00">(e.g. UML)</text>
</g>
<!-- concept&#45;&gt;logical -->
<g id="edge1" class="edge">
<title>concept&#45;&gt;logical</title>
<path fill="none" stroke="black" d="M70.08,-250.95C69.32,-243.57 69.08,-234.77 69.36,-226.5"/>
<polygon fill="black" stroke="black" points="70.02,-216.57 73.85,-226.85 69.77,-220.34 69.36,-226.55 69.36,-226.55 69.36,-226.55 69.77,-220.34 64.87,-226.25 70.02,-216.57"/>
<text text-anchor="middle" x="45.63" y="-234.37" font-family="Helvetica,Arial,sans-serif" font-size="9.00" fill="darkgrey"> &#160;transform &#160;</text>
</g>
<!-- logical&#45;&gt;concept -->
<g id="edge2" class="edge">
<title>logical&#45;&gt;concept</title>
<path fill="none" stroke="black" d="M81.9,-215.35C82.67,-222.7 82.91,-231.49 82.64,-239.78"/>
<polygon fill="black" stroke="black" points="82,-249.73 78.16,-239.46 82.24,-245.96 82.65,-239.75 82.65,-239.75 82.65,-239.75 82.24,-245.96 87.14,-240.05 82,-249.73"/>
<text text-anchor="middle" x="62.12" y="-224.55" font-family="Helvetica,Arial,sans-serif" font-size="9.00" fill="darkgrey"> &#160;abstract &#160;</text>
</g>
<!-- physical -->
<g id="node3" class="node">
<title>physical</title>
<polygon fill="none" stroke="black" points="130,-128 22,-128 22,-92 130,-92 130,-128"/>
<text text-anchor="middle" x="76" y="-111.75" font-family="Helvetica,Arial,sans-serif" font-size="10.00">Physical Models</text>
<text text-anchor="middle" x="76" y="-100.5" font-family="Helvetica,Arial,sans-serif" font-size="10.00">(e.g. profiled UML)</text>
</g>
<!-- logical&#45;&gt;physical -->
<g id="edge3" class="edge">
<title>logical&#45;&gt;physical</title>
<path fill="none" stroke="black" d="M81.55,-179C82.79,-167.56 83.07,-152.29 82.39,-139.11"/>
<polygon fill="black" stroke="black" points="81.64,-129.44 86.9,-139.06 81.93,-133.21 82.41,-139.41 82.41,-139.41 82.41,-139.41 81.93,-133.21 77.93,-139.76 81.64,-129.44"/>
</g>
<!-- physical&#45;&gt;logical -->
<g id="edge4" class="edge">
<title>physical&#45;&gt;logical</title>
<path fill="none" stroke="black" d="M70.45,-128.23C69.21,-139.66 68.93,-154.93 69.61,-168.11"/>
<polygon fill="black" stroke="black" points="70.36,-177.78 65.1,-168.16 70.07,-174.01 69.59,-167.81 69.59,-167.81 69.59,-167.81 70.07,-174.01 74.07,-167.47 70.36,-177.78"/>
</g>
<!-- develop -->
<g id="node4" class="node">
<title>develop</title>
<polygon fill="none" stroke="black" points="132.38,-56 19.62,-56 19.62,-20 132.38,-20 132.38,-56"/>
<text text-anchor="middle" x="76" y="-39.75" font-family="Helvetica,Arial,sans-serif" font-size="10.00">Development Artifacts</text>
<text text-anchor="middle" x="76" y="-28.5" font-family="Helvetica,Arial,sans-serif" font-size="10.00">(e.g. source, config)</text>
</g>
<!-- physical&#45;&gt;develop -->
<g id="edge5" class="edge">
<title>physical&#45;&gt;develop</title>
<path fill="none" stroke="black" d="M70.08,-91.7C69.32,-84.32 69.08,-75.52 69.36,-67.25"/>
<polygon fill="black" stroke="black" points="70.02,-57.32 73.85,-67.6 69.77,-61.09 69.36,-67.3 69.36,-67.3 69.36,-67.3 69.77,-61.09 64.87,-67 70.02,-57.32"/>
<text text-anchor="middle" x="45.63" y="-75.12" font-family="Helvetica,Arial,sans-serif" font-size="9.00" fill="darkgrey"> &#160;transform &#160;</text>
</g>
<!-- develop&#45;&gt;physical -->
<g id="edge6" class="edge">
<title>develop&#45;&gt;physical</title>
<path fill="none" stroke="black" d="M81.9,-56.1C82.67,-63.45 82.91,-72.24 82.64,-80.53"/>
<polygon fill="black" stroke="black" points="82,-90.48 78.16,-80.21 82.24,-86.71 82.65,-80.5 82.65,-80.5 82.65,-80.5 82.24,-86.71 87.14,-80.8 82,-90.48"/>
<text text-anchor="middle" x="62.12" y="-65.3" font-family="Helvetica,Arial,sans-serif" font-size="9.00" fill="darkgrey"> &#160;abstract &#160;</text>
</g>
<!-- deploy -->
<g id="node5" class="node">
<title>deploy</title>
<polygon fill="none" stroke="black" points="272,-128 164,-128 164,-124 160,-124 160,-120 164,-120 164,-100 160,-100 160,-96 164,-96 164,-92 272,-92 272,-128"/>
<polyline fill="none" stroke="black" points="164,-124 168,-124 168,-120 164,-120"/>
<polyline fill="none" stroke="black" points="164,-100 168,-100 168,-96 164,-96"/>
<text text-anchor="middle" x="218" y="-111.75" font-family="Helvetica,Arial,sans-serif" font-size="10.00">Deployment Artifacts</text>
<text text-anchor="middle" x="218" y="-100.5" font-family="Helvetica,Arial,sans-serif" font-size="10.00">(e.g. executables)</text>
</g>
<!-- develop&#45;&gt;deploy -->
<g id="edge7" class="edge">
<title>develop&#45;&gt;deploy</title>
<path fill="none" stroke="black" d="M117.18,-56.38C136.54,-65.46 159.44,-76.68 178.57,-86.43"/>
<polygon fill="black" stroke="black" points="187.38,-90.96 176.43,-90.39 184.02,-89.23 178.49,-86.39 178.49,-86.39 178.49,-86.39 184.02,-89.23 180.55,-82.39 187.38,-90.96"/>
</g>
<!-- deploy&#45;&gt;develop -->
<g id="edge8" class="edge">
<title>deploy&#45;&gt;develop</title>
<path fill="none" stroke="black" d="M176.6,-91.52C157.15,-82.39 134.14,-71.11 115,-61.35"/>
<polygon fill="black" stroke="black" points="106.19,-56.82 117.14,-57.39 109.55,-58.55 115.08,-61.39 115.08,-61.39 115.08,-61.39 109.55,-58.55 113.02,-65.39 106.19,-56.82"/>
</g>
</g>
</svg>
