<?xml version="1.0" encoding="UTF-8" standalone="no"?>
<!DOCTYPE svg PUBLIC "-//W3C//DTD SVG 1.1//EN"
 "http://www.w3.org/Graphics/SVG/1.1/DTD/svg11.dtd">
<!-- Generated by graphviz version 8.0.5 (20230430.1635)
 -->
<!-- Title: G Pages: 1 -->
<svg width="288pt" height="159pt"
 viewBox="0.00 0.00 288.00 159.20" xmlns="http://www.w3.org/2000/svg" xmlns:xlink="http://www.w3.org/1999/xlink">
<g id="graph0" class="graph" transform="scale(1 1) rotate(0) translate(4 155.2)">
<title>G</title>
<!-- host_1 -->
<g id="node1" class="node">
<title>host_1</title>
<polygon fill="lightgrey" stroke="black" points="57.8,-151.2 0.2,-151.2 0.2,-122.4 57.8,-122.4 57.8,-151.2"/>
<text text-anchor="middle" x="29" y="-132.93" font-family="Helvetica,Arial,sans-serif" font-size="10.00">host</text>
</g>
<!-- set_1 -->
<g id="node2" class="node">
<title>set_1</title>
<polygon fill="none" stroke="black" points="58,-86.4 0,-86.4 0,-57.6 58,-57.6 58,-86.4"/>
<text text-anchor="start" x="8" y="-73.5" font-family="Helvetica,Arial,sans-serif" font-style="italic" font-size="10.00">extension</text>
<text text-anchor="start" x="18.5" y="-63.5" font-family="Helvetica,Arial,sans-serif" font-style="italic" font-size="10.00">point</text>
</g>
<!-- host_1&#45;&gt;set_1 -->
<g id="edge1" class="edge">
<title>host_1&#45;&gt;set_1</title>
<path fill="none" stroke="black" d="M29,-122.17C29,-111.64 29,-97.13 29,-86.6"/>
<text text-anchor="middle" x="22.25" y="-87.8" font-family="Helvetica,Arial,sans-serif" font-size="9.00" fill="darkgrey">0..*</text>
</g>
<!-- set_2_or -->
<g id="node3" class="node">
<title>set_2_or</title>
<polygon fill="none" stroke="black" points="105,-147.6 97.8,-131.4 112.2,-131.4 105,-147.6"/>
</g>
<!-- feat_1 -->
<g id="node4" class="node">
<title>feat_1</title>
<polygon fill="none" stroke="black" points="133.8,-86.4 76.2,-86.4 76.2,-57.6 133.8,-57.6 133.8,-86.4"/>
<text text-anchor="middle" x="105" y="-68.12" font-family="Helvetica,Arial,sans-serif" font-size="10.00">feature</text>
</g>
<!-- set_2_or&#45;&gt;feat_1 -->
<g id="edge2" class="edge">
<title>set_2_or&#45;&gt;feat_1</title>
<path fill="none" stroke="black" d="M105,-131.28C105,-122.12 105,-100.99 105,-86.86"/>
<text text-anchor="middle" x="98.25" y="-88.06" font-family="Helvetica,Arial,sans-serif" font-size="9.00" fill="darkgrey">1..*</text>
</g>
<!-- set_3 -->
<g id="node5" class="node">
<title>set_3</title>
<polygon fill="none" stroke="black" points="204,-151.2 146,-151.2 146,-122.4 204,-122.4 204,-151.2"/>
<text text-anchor="start" x="154" y="-138.3" font-family="Helvetica,Arial,sans-serif" font-style="italic" font-size="10.00">extension</text>
<text text-anchor="start" x="164.5" y="-128.3" font-family="Helvetica,Arial,sans-serif" font-style="italic" font-size="10.00">point</text>
</g>
<!-- set_3_or -->
<g id="node6" class="node">
<title>set_3_or</title>
<polygon fill="none" stroke="black" points="159,-82.8 151.8,-66.6 166.2,-66.6 159,-82.8"/>
</g>
<!-- set_3&#45;&gt;set_3_or -->
<g id="edge3" class="edge">
<title>set_3&#45;&gt;set_3_or</title>
<path fill="none" stroke="black" d="M171.53,-122.17C168.22,-109.19 163.37,-90.15 160.78,-79.99"/>
</g>
<!-- set_3_and -->
<g id="node7" class="node">
<title>set_3_and</title>
<polygon fill="lightgrey" stroke="black" points="191,-82.8 183.8,-66.6 198.2,-66.6 191,-82.8"/>
</g>
<!-- set_3&#45;&gt;set_3_and -->
<g id="edge4" class="edge">
<title>set_3&#45;&gt;set_3_and</title>
<path fill="none" stroke="black" d="M178.47,-122.17C181.78,-109.19 186.63,-90.15 189.22,-79.99"/>
</g>
<!-- set_5 -->
<g id="node8" class="node">
<title>set_5</title>
<polygon fill="none" stroke="black" points="280,-151.2 222,-151.2 222,-122.4 280,-122.4 280,-151.2"/>
<text text-anchor="start" x="230" y="-138.3" font-family="Helvetica,Arial,sans-serif" font-style="italic" font-size="10.00">extension</text>
<text text-anchor="start" x="240.5" y="-128.3" font-family="Helvetica,Arial,sans-serif" font-style="italic" font-size="10.00">point</text>
</g>
<!-- set_5_and -->
<g id="node9" class="node">
<title>set_5_and</title>
<polygon fill="lightgrey" stroke="black" points="251,-82.8 243.8,-66.6 258.2,-66.6 251,-82.8"/>
</g>
<!-- set_5&#45;&gt;set_5_and -->
<g id="edge5" class="edge">
<title>set_5&#45;&gt;set_5_and</title>
<path fill="none" stroke="black" d="M251,-122.17C251,-110.63 251,-94.31 251,-83.69"/>
</g>
<!-- set_6_or -->
<g id="node10" class="node">
<title>set_6_or</title>
<polygon fill="none" stroke="black" points="235,-21.6 227.8,-5.4 242.2,-5.4 235,-21.6"/>
</g>
<!-- set_5_and&#45;&gt;set_6_or -->
<g id="edge6" class="edge">
<title>set_5_and&#45;&gt;set_6_or</title>
<path fill="none" stroke="black" d="M249.74,-66.35C246.92,-55.89 240.04,-30.43 236.77,-18.36"/>
</g>
<!-- set_7_or -->
<g id="node11" class="node">
<title>set_7_or</title>
<polygon fill="none" stroke="black" points="267,-21.6 259.8,-5.4 274.2,-5.4 267,-21.6"/>
</g>
<!-- set_5_and&#45;&gt;set_7_or -->
<g id="edge7" class="edge">
<title>set_5_and&#45;&gt;set_7_or</title>
<path fill="none" stroke="black" d="M252.26,-66.35C255.08,-55.89 261.96,-30.43 265.23,-18.36"/>
</g>
</g>
</svg>
