<?xml version="1.0" encoding="UTF-8" standalone="no"?>
<!DOCTYPE svg PUBLIC "-//W3C//DTD SVG 1.1//EN"
 "http://www.w3.org/Graphics/SVG/1.1/DTD/svg11.dtd">
<!-- Generated by graphviz version 9.0.0 (20230911.1827)
 -->
<!-- Title: G Pages: 1 -->
<svg width="1170pt" height="474pt"
 viewBox="0.00 0.00 1169.72 473.84" xmlns="http://www.w3.org/2000/svg" xmlns:xlink="http://www.w3.org/1999/xlink">
<g id="graph0" class="graph" transform="scale(1 1) rotate(0) translate(4 469.84)">
<title>G</title>
<!-- ModelElement -->
<g id="node1" class="node">
<title>ModelElement</title>
<ellipse fill="none" stroke="grey" cx="1101.97" cy="-94.24" rx="43.7" ry="21.6"/>
<text text-anchor="middle" x="1101.97" y="-90.36" font-family="Helvetica,Arial,sans-serif" font-size="10.00" fill="grey">ModelElement</text>
</g>
<!-- Module -->
<g id="node2" class="node">
<title>Module</title>
<ellipse fill="none" stroke="blue" stroke-width="2" cx="702.51" cy="-55.24" rx="36" ry="21.6"/>
<text text-anchor="middle" x="702.51" y="-51.36" font-family="Helvetica,Arial,sans-serif" font-size="10.00" fill="blue">Module</text>
</g>
<!-- Module&#45;&gt;ModelElement -->
<g id="edge1" class="edge">
<title>Module&#45;&gt;ModelElement</title>
<path fill="none" stroke="black" d="M739.27,-57.74C765.07,-59.61 800.72,-62.33 832.03,-65.24 906.96,-72.19 993.46,-81.8 1047.69,-88.02"/>
<polygon fill="none" stroke="black" points="1047.25,-91.49 1057.58,-89.16 1048.05,-84.54 1047.25,-91.49"/>
<text text-anchor="middle" x="889.13" y="-76.44" font-family="Helvetica,Arial,sans-serif" font-size="9.00" fill="darkgrey">rdfs:subClassOf</text>
</g>
<!-- Classifier -->
<g id="node4" class="node">
<title>Classifier</title>
<ellipse fill="none" stroke="grey" cx="889.13" cy="-188.24" rx="36" ry="21.6"/>
<text text-anchor="middle" x="889.13" y="-184.36" font-family="Helvetica,Arial,sans-serif" font-size="10.00" fill="grey">Classifier</text>
</g>
<!-- Module&#45;&gt;Classifier -->
<g id="edge2" class="edge">
<title>Module&#45;&gt;Classifier</title>
<path fill="none" stroke="black" d="M751.19,-62.3C782.26,-67.68 819.31,-75.8 832.03,-85.49 855.2,-103.14 870,-133.23 878.55,-156.3"/>
<polygon fill="black" stroke="black" points="751.06,-62.28 744.49,-65.25 739.22,-60.32 745.8,-57.35 751.06,-62.28"/>
<polygon fill="black" stroke="black" points="881.75,-165.5 874.22,-157.53 880.51,-161.93 878.47,-156.06 878.47,-156.06 878.47,-156.06 880.51,-161.93 882.72,-154.58 881.75,-165.5"/>
<text text-anchor="middle" x="796.03" y="-87.44" font-family="Helvetica,Arial,sans-serif" font-size="9.00" fill="darkgrey">hasDefinition</text>
<text text-anchor="middle" x="880.28" y="-158.1" font-family="Helvetica,Arial,sans-serif" font-size="9.00" fill="darkgrey">*</text>
</g>
<!-- Cardinality -->
<g id="node3" class="node">
<title>Cardinality</title>
<ellipse fill="none" stroke="black" cx="889.13" cy="-381.24" rx="36" ry="21.6"/>
<text text-anchor="middle" x="889.13" y="-377.36" font-family="Helvetica,Arial,sans-serif" font-size="10.00">Cardinality</text>
</g>
<!-- integer -->
<g id="node15" class="node">
<title>integer</title>
<polygon fill="lightgrey" stroke="lightgrey" points="1161.72,-432.84 1042.22,-432.84 1042.22,-389.64 1161.72,-389.64 1161.72,-432.84"/>
<text text-anchor="middle" x="1101.97" y="-407.36" font-family="Helvetica,Arial,sans-serif" font-size="10.00">xsd:nonNegativeInteger</text>
</g>
<!-- Cardinality&#45;&gt;integer -->
<g id="edge25" class="edge">
<title>Cardinality&#45;&gt;integer</title>
<path fill="none" stroke="black" d="M937.53,-375.85C963.39,-374.1 995.83,-373.85 1024.22,-379.49 1031.35,-380.91 1038.64,-382.99 1045.76,-385.44"/>
<polygon fill="black" stroke="black" points="937.52,-375.85 931.86,-380.32 925.56,-376.81 931.22,-372.34 937.52,-375.85"/>
<polygon fill="black" stroke="black" points="1054.89,-388.81 1043.95,-389.56 1051.34,-387.5 1045.51,-385.34 1045.51,-385.34 1045.51,-385.34 1051.34,-387.5 1047.07,-381.12 1054.89,-388.81"/>
<text text-anchor="middle" x="985.22" y="-380.44" font-family="Helvetica,Arial,sans-serif" font-size="9.00" fill="darkgrey">owl:maxCardinality</text>
<text text-anchor="middle" x="1053.41" y="-380.68" font-family="Helvetica,Arial,sans-serif" font-size="9.00" fill="darkgrey">?</text>
</g>
<!-- Cardinality&#45;&gt;integer -->
<g id="edge26" class="edge">
<title>Cardinality&#45;&gt;integer</title>
<path fill="none" stroke="black" d="M937.15,-387.95C940.22,-388.38 943.26,-388.82 946.22,-389.24 973.84,-393.17 1004.24,-397.49 1030.72,-401.26"/>
<polygon fill="black" stroke="black" points="937.31,-387.97 930.81,-391.08 925.43,-386.28 931.94,-383.16 937.31,-387.97"/>
<polygon fill="black" stroke="black" points="1040.61,-402.66 1030.08,-405.71 1036.87,-402.13 1030.71,-401.26 1030.71,-401.26 1030.71,-401.26 1036.87,-402.13 1031.34,-396.8 1040.61,-402.66"/>
<text text-anchor="middle" x="985.22" y="-400.44" font-family="Helvetica,Arial,sans-serif" font-size="9.00" fill="darkgrey">owl:minCardinality</text>
</g>
<!-- Classifier&#45;&gt;ModelElement -->
<g id="edge3" class="edge">
<title>Classifier&#45;&gt;ModelElement</title>
<path fill="none" stroke="black" d="M918.56,-175.56C954.55,-159.52 1016.84,-131.75 1058.48,-113.18"/>
<polygon fill="none" stroke="black" points="1059.77,-116.44 1067.47,-109.17 1056.91,-110.05 1059.77,-116.44"/>
<text text-anchor="middle" x="985.22" y="-163.44" font-family="Helvetica,Arial,sans-serif" font-size="9.00" fill="darkgrey">rdfs:subClassOf</text>
</g>
<!-- Entity -->
<g id="node5" class="node">
<title>Entity</title>
<ellipse fill="none" stroke="black" cx="195.75" cy="-249.24" rx="36" ry="21.6"/>
<text text-anchor="middle" x="195.75" y="-245.36" font-family="Helvetica,Arial,sans-serif" font-size="10.00">Entity</text>
</g>
<!-- Member -->
<g id="node9" class="node">
<title>Member</title>
<ellipse fill="none" stroke="grey" cx="702.51" cy="-350.24" rx="36" ry="21.6"/>
<text text-anchor="middle" x="702.51" y="-346.36" font-family="Helvetica,Arial,sans-serif" font-size="10.00" fill="grey">Member</text>
</g>
<!-- Entity&#45;&gt;Member -->
<g id="edge12" class="edge">
<title>Entity&#45;&gt;Member</title>
<path fill="none" stroke="black" d="M241.18,-261.67C312.23,-281.02 456.1,-318 580.5,-336.24 605.2,-339.86 632.86,-343.12 655.49,-345.58"/>
<polygon fill="black" stroke="black" points="241.22,-261.69 234.38,-263.96 229.65,-258.51 236.49,-256.24 241.22,-261.69"/>
<polygon fill="black" stroke="black" points="665.28,-346.63 654.86,-350.04 661.52,-346.22 655.34,-345.56 655.34,-345.56 655.34,-345.56 661.52,-346.22 655.81,-341.09 665.28,-346.63"/>
<text text-anchor="middle" x="447.38" y="-317.44" font-family="Helvetica,Arial,sans-serif" font-size="9.00" fill="darkgrey">hasIdentifier</text>
<text text-anchor="middle" x="663.87" y="-338.21" font-family="Helvetica,Arial,sans-serif" font-size="9.00" fill="darkgrey">1</text>
</g>
<!-- Structure -->
<g id="node10" class="node">
<title>Structure</title>
<ellipse fill="none" stroke="black" cx="368.25" cy="-249.24" rx="36" ry="21.6"/>
<text text-anchor="middle" x="368.25" y="-245.36" font-family="Helvetica,Arial,sans-serif" font-size="10.00">Structure</text>
</g>
<!-- Entity&#45;&gt;Structure -->
<g id="edge11" class="edge">
<title>Entity&#45;&gt;Structure</title>
<path fill="none" stroke="black" d="M232.08,-249.24C257.68,-249.24 292.56,-249.24 320.48,-249.24"/>
<polygon fill="none" stroke="black" points="320.45,-252.74 330.45,-249.24 320.45,-245.74 320.45,-252.74"/>
<text text-anchor="middle" x="282" y="-250.44" font-family="Helvetica,Arial,sans-serif" font-size="9.00" fill="darkgrey">rdfs:subClassOf</text>
</g>
<!-- Enumeration -->
<g id="node6" class="node">
<title>Enumeration</title>
<ellipse fill="none" stroke="black" cx="702.51" cy="-425.24" rx="39.51" ry="21.6"/>
<text text-anchor="middle" x="702.51" y="-421.36" font-family="Helvetica,Arial,sans-serif" font-size="10.00">Enumeration</text>
</g>
<!-- Enumeration&#45;&gt;Classifier -->
<g id="edge6" class="edge">
<title>Enumeration&#45;&gt;Classifier</title>
<path fill="none" stroke="black" d="M722.52,-406.29C732.89,-396.84 746.36,-385.87 760.03,-378.49 789.5,-362.57 808.75,-380.32 832.03,-356.24 853.17,-334.38 840.7,-319.18 850.03,-290.24 857.68,-266.52 867.55,-240.17 875.33,-220.2"/>
<polygon fill="none" stroke="black" points="878.57,-221.53 878.97,-210.94 872.06,-218.97 878.57,-221.53"/>
<text text-anchor="middle" x="796.03" y="-379.44" font-family="Helvetica,Arial,sans-serif" font-size="9.00" fill="darkgrey">rdfs:subClassOf</text>
</g>
<!-- ValueVariant -->
<g id="node13" class="node">
<title>ValueVariant</title>
<ellipse fill="none" stroke="black" cx="889.13" cy="-444.24" rx="39.1" ry="21.6"/>
<text text-anchor="middle" x="889.13" y="-440.36" font-family="Helvetica,Arial,sans-serif" font-size="10.00">ValueVariant</text>
</g>
<!-- Enumeration&#45;&gt;ValueVariant -->
<g id="edge7" class="edge">
<title>Enumeration&#45;&gt;ValueVariant</title>
<path fill="none" stroke="black" d="M754.66,-430.5C781.03,-433.22 813.04,-436.51 839.1,-439.19"/>
<polygon fill="black" stroke="black" points="754.6,-430.5 748.22,-433.86 742.66,-429.27 749.04,-425.9 754.6,-430.5"/>
<polygon fill="black" stroke="black" points="849.03,-440.22 838.62,-443.67 845.27,-439.83 839.08,-439.19 839.08,-439.19 839.08,-439.19 845.27,-439.83 839.54,-434.72 849.03,-440.22"/>
<text text-anchor="middle" x="796.03" y="-438.44" font-family="Helvetica,Arial,sans-serif" font-size="9.00" fill="darkgrey">hasVariant</text>
<text text-anchor="middle" x="848.36" y="-431.79" font-family="Helvetica,Arial,sans-serif" font-size="9.00" fill="darkgrey">*</text>
</g>
<!-- Event -->
<g id="node7" class="node">
<title>Event</title>
<ellipse fill="none" stroke="black" cx="36" cy="-278.24" rx="36" ry="21.6"/>
<text text-anchor="middle" x="36" y="-274.36" font-family="Helvetica,Arial,sans-serif" font-size="10.00">Event</text>
</g>
<!-- Event&#45;&gt;Entity -->
<g id="edge14" class="edge">
<title>Event&#45;&gt;Entity</title>
<path fill="none" stroke="black" d="M83.65,-269.66C104.68,-265.8 129.41,-261.25 150.19,-257.43"/>
<polygon fill="none" stroke="black" points="83.53,-269.69 78.35,-274.7 71.73,-271.86 76.91,-266.84 83.53,-269.69"/>
<polygon fill="black" stroke="black" points="159.77,-255.67 150.74,-261.9 156.05,-256.35 149.93,-257.48 149.93,-257.48 149.93,-257.48 156.05,-256.35 149.12,-253.05 159.77,-255.67"/>
<text text-anchor="middle" x="115.88" y="-268.44" font-family="Helvetica,Arial,sans-serif" font-size="9.00" fill="darkgrey">eventSource</text>
</g>
<!-- Event&#45;&gt;Structure -->
<g id="edge13" class="edge">
<title>Event&#45;&gt;Structure</title>
<path fill="none" stroke="black" d="M72.05,-280.5C78.04,-280.81 84.2,-281.08 90,-281.24 112.99,-281.89 118.75,-281.37 141.75,-281.24 181.75,-281.02 191.98,-284.52 231.75,-280.24 268.97,-276.24 277.81,-271.8 314.25,-263.24 317.42,-262.49 320.69,-261.7 323.98,-260.88"/>
<polygon fill="none" stroke="black" points="324.8,-264.28 333.62,-258.41 323.07,-257.5 324.8,-264.28"/>
<text text-anchor="middle" x="195.75" y="-283.44" font-family="Helvetica,Arial,sans-serif" font-size="9.00" fill="darkgrey">rdfs:subClassOf</text>
</g>
<!-- Group -->
<g id="node8" class="node">
<title>Group</title>
<ellipse fill="none" stroke="grey" cx="526.5" cy="-193.24" rx="36" ry="21.6"/>
<text text-anchor="middle" x="526.5" y="-189.36" font-family="Helvetica,Arial,sans-serif" font-size="10.00" fill="grey">Group</text>
</g>
<!-- Group&#45;&gt;ModelElement -->
<g id="edge19" class="edge">
<title>Group&#45;&gt;ModelElement</title>
<path fill="none" stroke="black" d="M536.46,-172.09C554.08,-133.69 597.32,-53.77 663,-24.24 799.77,37.26 981.92,-35.33 1061.25,-73.58"/>
<polygon fill="none" stroke="black" points="1059.42,-76.58 1069.94,-77.84 1062.5,-70.29 1059.42,-76.58"/>
<text text-anchor="middle" x="796.03" y="-4.44" font-family="Helvetica,Arial,sans-serif" font-size="9.00" fill="darkgrey">rdfs:subClassOf</text>
</g>
<!-- Group&#45;&gt;Member -->
<g id="edge20" class="edge">
<title>Group&#45;&gt;Member</title>
<path fill="none" stroke="black" d="M573.42,-203.6C598.03,-211.43 626.92,-224.69 645,-246.49 666.54,-272.46 644.67,-291.91 663,-320.24 664.68,-322.84 666.67,-325.31 668.84,-327.64"/>
<polygon fill="black" stroke="black" points="573.41,-203.59 566.53,-205.75 561.89,-200.23 568.77,-198.07 573.41,-203.59"/>
<polygon fill="black" stroke="black" points="675.86,-334.12 665.46,-330.64 673.08,-331.55 668.52,-327.33 668.52,-327.33 668.52,-327.33 673.08,-331.55 671.57,-324.03 675.86,-334.12"/>
<text text-anchor="middle" x="612.75" y="-247.44" font-family="Helvetica,Arial,sans-serif" font-size="9.00" fill="darkgrey">hasMember</text>
<text text-anchor="middle" x="678.63" y="-326.4" font-family="Helvetica,Arial,sans-serif" font-size="9.00" fill="darkgrey">*</text>
</g>
<!-- Member&#45;&gt;ModelElement -->
<g id="edge21" class="edge">
<title>Member&#45;&gt;ModelElement</title>
<path fill="none" stroke="black" d="M734.33,-339.56C760.81,-329.97 799.71,-314.86 832.03,-298.24 922,-251.96 946.32,-240.8 1024.22,-176.24 1043.48,-160.28 1062.7,-139.73 1077.09,-123.2"/>
<polygon fill="none" stroke="black" points="1079.73,-125.5 1083.58,-115.63 1074.41,-120.95 1079.73,-125.5"/>
<text text-anchor="middle" x="889.13" y="-288.44" font-family="Helvetica,Arial,sans-serif" font-size="9.00" fill="darkgrey">rdfs:subClassOf</text>
</g>
<!-- Member&#45;&gt;Cardinality -->
<g id="edge22" class="edge">
<title>Member&#45;&gt;Cardinality</title>
<path fill="none" stroke="black" d="M733.68,-375.95C741.74,-381.39 750.8,-386.36 760.03,-389.24 787.36,-397.76 819.53,-395.71 844.79,-391.56"/>
<polygon fill="black" stroke="black" points="733.77,-376.01 726.56,-375.68 724.1,-368.91 731.3,-369.24 733.77,-376.01"/>
<polygon fill="black" stroke="black" points="854.31,-389.82 845.28,-396.04 850.59,-390.5 844.47,-391.61 844.47,-391.61 844.47,-391.61 850.59,-390.5 843.67,-387.19 854.31,-389.82"/>
<text text-anchor="middle" x="796.03" y="-395.44" font-family="Helvetica,Arial,sans-serif" font-size="9.00" fill="darkgrey">sourceCardinality</text>
<text text-anchor="middle" x="852.89" y="-381.05" font-family="Helvetica,Arial,sans-serif" font-size="9.00" fill="darkgrey">?</text>
</g>
<!-- Member&#45;&gt;Cardinality -->
<g id="edge24" class="edge">
<title>Member&#45;&gt;Cardinality</title>
<path fill="none" stroke="black" d="M749.95,-342.19C774.76,-339.55 805.55,-338.95 832.03,-346.49 840.71,-348.96 849.35,-353.2 857.17,-357.88"/>
<polygon fill="black" stroke="black" points="750.02,-342.18 744.56,-346.89 738.11,-343.67 743.57,-338.95 750.02,-342.18"/>
<polygon fill="black" stroke="black" points="865.54,-363.3 854.7,-361.64 862.36,-361.24 857.14,-357.87 857.14,-357.87 857.14,-357.87 862.36,-361.24 859.58,-354.09 865.54,-363.3"/>
<text text-anchor="middle" x="796.03" y="-347.44" font-family="Helvetica,Arial,sans-serif" font-size="9.00" fill="darkgrey">targetCardinality</text>
<text text-anchor="middle" x="863.94" y="-355.41" font-family="Helvetica,Arial,sans-serif" font-size="9.00" fill="darkgrey">?</text>
</g>
<!-- Member&#45;&gt;Classifier -->
<g id="edge23" class="edge">
<title>Member&#45;&gt;Classifier</title>
<path fill="none" stroke="black" d="M736.82,-325.74C738.66,-323.95 740.41,-322.12 742.03,-320.24 752.63,-307.96 747.45,-298.74 760.03,-288.49 786.1,-267.25 804.79,-284.96 832.03,-265.24 848.78,-253.11 862.55,-234.46 872.26,-218.55"/>
<polygon fill="none" stroke="black" points="736.92,-325.65 735.04,-332.62 727.89,-333.56 729.77,-326.6 736.92,-325.65"/>
<polygon fill="black" stroke="black" points="877.15,-210.13 876.01,-221.04 875.25,-213.4 872.12,-218.78 872.12,-218.78 872.12,-218.78 875.25,-213.4 868.23,-216.52 877.15,-210.13"/>
<text text-anchor="middle" x="796.03" y="-289.44" font-family="Helvetica,Arial,sans-serif" font-size="9.00" fill="darkgrey">targetClassifier</text>
</g>
<!-- Structure&#45;&gt;Classifier -->
<g id="edge8" class="edge">
<title>Structure&#45;&gt;Classifier</title>
<path fill="none" stroke="black" d="M387.95,-230.92C410.29,-210.29 449.79,-177.63 490.5,-162.24 632.56,-108.54 687.06,-105.97 832.03,-151.24 841.13,-154.08 850.15,-158.88 858.19,-164.1"/>
<polygon fill="none" stroke="black" points="856.03,-166.86 866.23,-169.7 860.03,-161.12 856.03,-166.86"/>
<text text-anchor="middle" x="612.75" y="-133.44" font-family="Helvetica,Arial,sans-serif" font-size="9.00" fill="darkgrey">rdfs:subClassOf</text>
</g>
<!-- Structure&#45;&gt;Group -->
<g id="edge9" class="edge">
<title>Structure&#45;&gt;Group</title>
<path fill="none" stroke="black" d="M411.69,-234.03C434.35,-225.91 462.11,-215.96 484.54,-207.92"/>
<polygon fill="black" stroke="black" points="411.89,-233.96 407.59,-239.75 400.6,-238.01 404.89,-232.22 411.89,-233.96"/>
<polygon fill="black" stroke="black" points="493.93,-204.55 486.04,-212.16 490.37,-205.83 484.52,-207.93 484.52,-207.93 484.52,-207.93 490.37,-205.83 483,-203.69 493.93,-204.55"/>
<text text-anchor="middle" x="447.38" y="-230.44" font-family="Helvetica,Arial,sans-serif" font-size="9.00" fill="darkgrey">hasGroup</text>
<text text-anchor="middle" x="493.2" y="-195.59" font-family="Helvetica,Arial,sans-serif" font-size="9.00" fill="darkgrey">*</text>
</g>
<!-- Structure&#45;&gt;Member -->
<g id="edge10" class="edge">
<title>Structure&#45;&gt;Member</title>
<path fill="none" stroke="black" d="M413.18,-262.59C477.55,-282.16 596.71,-318.38 659.8,-337.56"/>
<polygon fill="black" stroke="black" points="413.15,-262.58 406.25,-264.67 401.67,-259.09 408.57,-257.01 413.15,-262.58"/>
<polygon fill="black" stroke="black" points="669,-340.36 658.13,-341.75 665.38,-339.26 659.43,-337.45 659.43,-337.45 659.43,-337.45 665.38,-339.26 660.74,-333.14 669,-340.36"/>
<text text-anchor="middle" x="526.5" y="-307.44" font-family="Helvetica,Arial,sans-serif" font-size="9.00" fill="darkgrey">hasMember</text>
<text text-anchor="middle" x="672.04" y="-339.47" font-family="Helvetica,Arial,sans-serif" font-size="9.00" fill="darkgrey">*</text>
</g>
<!-- Union -->
<g id="node11" class="node">
<title>Union</title>
<ellipse fill="none" stroke="black" cx="702.51" cy="-289.24" rx="36" ry="21.6"/>
<text text-anchor="middle" x="702.51" y="-285.36" font-family="Helvetica,Arial,sans-serif" font-size="10.00">Union</text>
</g>
<!-- Union&#45;&gt;Classifier -->
<g id="edge15" class="edge">
<title>Union&#45;&gt;Classifier</title>
<path fill="none" stroke="black" d="M727.62,-273.21C737.41,-267.13 749,-260.49 760.03,-255.49 790.66,-241.61 802.34,-248.03 832.03,-232.24 841.66,-227.12 851.31,-220.31 859.82,-213.58"/>
<polygon fill="none" stroke="black" points="861.89,-216.41 867.39,-207.36 857.44,-211.01 861.89,-216.41"/>
<text text-anchor="middle" x="796.03" y="-256.44" font-family="Helvetica,Arial,sans-serif" font-size="9.00" fill="darkgrey">rdfs:subClassOf</text>
</g>
<!-- Union&#45;&gt;Classifier -->
<g id="edge16" class="edge">
<title>Union&#45;&gt;Classifier</title>
<path fill="none" stroke="black" d="M736.34,-264.59C738.37,-262.54 740.29,-260.42 742.03,-258.24 753.38,-244.03 745.94,-232.99 760.03,-221.49 766.71,-216.03 809.67,-205.53 844.03,-197.78"/>
<polygon fill="none" stroke="black" points="736.58,-264.38 734.82,-271.37 727.69,-272.43 729.45,-265.44 736.58,-264.38"/>
<polygon fill="black" stroke="black" points="853.63,-195.64 844.85,-202.21 849.94,-196.46 843.87,-197.82 843.87,-197.82 843.87,-197.82 849.94,-196.46 842.89,-193.42 853.63,-195.64"/>
<text text-anchor="middle" x="796.03" y="-222.44" font-family="Helvetica,Arial,sans-serif" font-size="9.00" fill="darkgrey">variantType</text>
<text text-anchor="middle" x="852.19" y="-196.57" font-family="Helvetica,Arial,sans-serif" font-size="9.00" fill="darkgrey">+</text>
</g>
<!-- Property -->
<g id="node12" class="node">
<title>Property</title>
<ellipse fill="none" stroke="black" cx="526.5" cy="-254.24" rx="36" ry="21.6"/>
<text text-anchor="middle" x="526.5" y="-250.36" font-family="Helvetica,Arial,sans-serif" font-size="10.00">Property</text>
</g>
<!-- Property&#45;&gt;Classifier -->
<g id="edge17" class="edge">
<title>Property&#45;&gt;Classifier</title>
<path fill="none" stroke="black" d="M548.77,-237.05C553.44,-233 558.25,-228.59 562.5,-224.24 571.33,-215.2 570.69,-210.2 580.5,-202.24 612.57,-176.22 622.88,-169.27 663,-159.49 725.99,-144.14 801.02,-160.4 846.58,-173.98"/>
<polygon fill="none" stroke="black" points="845.47,-177.3 856.06,-176.91 847.54,-170.61 845.47,-177.3"/>
<text text-anchor="middle" x="702.51" y="-160.44" font-family="Helvetica,Arial,sans-serif" font-size="9.00" fill="darkgrey">rdfs:subClassOf</text>
</g>
<!-- Property&#45;&gt;Member -->
<g id="edge18" class="edge">
<title>Property&#45;&gt;Member</title>
<path fill="none" stroke="black" d="M562.57,-257.43C587.77,-261.28 621.34,-269.77 645,-288.49 657.72,-298.55 652.4,-307.96 663,-320.24 664.89,-322.43 666.96,-324.57 669.13,-326.63"/>
<polygon fill="none" stroke="black" points="666.82,-329.26 676.67,-333.16 671.41,-323.97 666.82,-329.26"/>
<text text-anchor="middle" x="612.75" y="-289.44" font-family="Helvetica,Arial,sans-serif" font-size="9.00" fill="darkgrey">role</text>
</g>
<!-- ValueVariant&#45;&gt;integer -->
<g id="edge27" class="edge">
<title>ValueVariant&#45;&gt;integer</title>
<path fill="none" stroke="black" d="M939.4,-436.53C966.7,-432.25 1001.1,-426.87 1031.14,-422.17"/>
<polygon fill="black" stroke="black" points="939.6,-436.5 934.29,-441.38 927.74,-438.35 933.05,-433.47 939.6,-436.5"/>
<polygon fill="black" stroke="black" points="1040.78,-420.66 1031.6,-426.65 1037.05,-421.24 1030.9,-422.21 1030.9,-422.21 1030.9,-422.21 1037.05,-421.24 1030.21,-417.76 1040.78,-420.66"/>
<text text-anchor="middle" x="985.22" y="-436.44" font-family="Helvetica,Arial,sans-serif" font-size="9.00" fill="darkgrey">hasValue</text>
</g>
<!-- Datatype -->
<g id="node14" class="node">
<title>Datatype</title>
<ellipse fill="none" stroke="black" cx="702.51" cy="-200.24" rx="36" ry="21.6"/>
<text text-anchor="middle" x="702.51" y="-196.36" font-family="Helvetica,Arial,sans-serif" font-size="10.00">Datatype</text>
</g>
<!-- Datatype&#45;&gt;Classifier -->
<g id="edge4" class="edge">
<title>Datatype&#45;&gt;Classifier</title>
<path fill="none" stroke="black" d="M736.84,-192.88C744.43,-191.49 752.48,-190.24 760.03,-189.49 786.94,-186.82 817.19,-186.4 841.53,-186.7"/>
<polygon fill="none" stroke="black" points="841.39,-190.2 851.45,-186.88 841.52,-183.2 841.39,-190.2"/>
<text text-anchor="middle" x="796.03" y="-190.44" font-family="Helvetica,Arial,sans-serif" font-size="9.00" fill="darkgrey">rdfs:subClassOf</text>
</g>
<!-- Datatype&#45;&gt;Datatype -->
<g id="edge5" class="edge">
<title>Datatype&#45;&gt;Datatype</title>
<path fill="none" stroke="black" stroke-dasharray="5,2" d="M686.38,-219.8C683.64,-230.29 689.02,-239.84 702.51,-239.84 710.74,-239.84 715.95,-236.29 718.15,-231.15"/>
<polygon fill="none" stroke="black" points="721.64,-231.46 718.58,-221.31 714.64,-231.15 721.64,-231.46"/>
<text text-anchor="middle" x="702.51" y="-241.04" font-family="Helvetica,Arial,sans-serif" font-size="9.00" fill="darkgrey">baseDatatype</text>
</g>
</g>
</svg>
