<?xml version="1.0" encoding="UTF-8" standalone="no"?>
<!DOCTYPE svg PUBLIC "-//W3C//DTD SVG 1.1//EN"
 "http://www.w3.org/Graphics/SVG/1.1/DTD/svg11.dtd">
<!-- Generated by graphviz version 9.0.0 (20230911.1827)
 -->
<!-- Title: G Pages: 1 -->
<svg width="465pt" height="126pt"
 viewBox="0.00 0.00 465.19 125.75" xmlns="http://www.w3.org/2000/svg" xmlns:xlink="http://www.w3.org/1999/xlink">
<g id="graph0" class="graph" transform="scale(1 1) rotate(0) translate(4 121.75)">
<title>G</title>
<!-- Booking -->
<g id="node1" class="node">
<title>Booking</title>
<ellipse fill="none" stroke="black" cx="74.43" cy="-99.75" rx="30.32" ry="18"/>
<text text-anchor="middle" x="74.43" y="-95.88" font-family="Helvetica,Arial,sans-serif" font-size="10.00">Booking</text>
</g>
<!-- customer -->
<g id="node6" class="node">
<title>customer</title>
<ellipse fill="none" stroke="black" cx="33.43" cy="-18" rx="33.43" ry="18"/>
<text text-anchor="middle" x="33.43" y="-14.12" font-family="Helvetica,Arial,sans-serif" font-size="10.00">customer</text>
</g>
<!-- Booking&#45;&gt;customer -->
<g id="edge1" class="edge">
<title>Booking&#45;&gt;customer</title>
<path fill="none" stroke="black" d="M65.52,-82.05C62.45,-76.27 59.02,-69.74 55.93,-63.75 52.94,-57.95 49.77,-51.71 46.79,-45.78"/>
<polygon fill="black" stroke="black" points="49.98,-44.34 42.36,-36.97 43.72,-47.48 49.98,-44.34"/>
<text text-anchor="middle" x="75.18" y="-55.2" font-family="Helvetica,Arial,sans-serif" font-size="9.00" fill="dimgrey">customer</text>
<text text-anchor="middle" x="57.37" y="-44.35" font-family="Helvetica,Arial,sans-serif" font-size="9.00" fill="blue">0..1</text>
</g>
<!-- property -->
<g id="node7" class="node">
<title>property</title>
<ellipse fill="none" stroke="black" cx="115.43" cy="-18" rx="30.32" ry="18"/>
<text text-anchor="middle" x="115.43" y="-14.12" font-family="Helvetica,Arial,sans-serif" font-size="10.00">property</text>
</g>
<!-- Booking&#45;&gt;property -->
<g id="edge2" class="edge">
<title>Booking&#45;&gt;property</title>
<path fill="none" stroke="black" d="M83.46,-82.44C86.66,-76.58 90.26,-69.89 93.43,-63.75 96.41,-57.98 99.54,-51.75 102.46,-45.83"/>
<polygon fill="black" stroke="black" points="105.52,-47.54 106.77,-37.02 99.23,-44.46 105.52,-47.54"/>
<text text-anchor="middle" x="115.31" y="-55.2" font-family="Helvetica,Arial,sans-serif" font-size="9.00" fill="dimgrey">property</text>
<text text-anchor="middle" x="107.06" y="-51.98" font-family="Helvetica,Arial,sans-serif" font-size="9.00" fill="blue">0..1</text>
</g>
<!-- Bill -->
<g id="node2" class="node">
<title>Bill</title>
<ellipse fill="none" stroke="black" cx="190.43" cy="-99.75" rx="27" ry="18"/>
<text text-anchor="middle" x="190.43" y="-95.88" font-family="Helvetica,Arial,sans-serif" font-size="10.00">Bill</text>
</g>
<!-- stay -->
<g id="node8" class="node">
<title>stay</title>
<ellipse fill="none" stroke="black" cx="190.43" cy="-18" rx="27" ry="18"/>
<text text-anchor="middle" x="190.43" y="-14.12" font-family="Helvetica,Arial,sans-serif" font-size="10.00">stay</text>
</g>
<!-- Bill&#45;&gt;stay -->
<g id="edge3" class="edge">
<title>Bill&#45;&gt;stay</title>
<path fill="none" stroke="black" d="M190.43,-81.45C190.43,-71.52 190.43,-58.81 190.43,-47.45"/>
<polygon fill="black" stroke="black" points="193.93,-47.78 190.43,-37.78 186.93,-47.78 193.93,-47.78"/>
<text text-anchor="middle" x="206.56" y="-55.2" font-family="Helvetica,Arial,sans-serif" font-size="9.00" fill="dimgrey">for_stay</text>
<text text-anchor="middle" x="198.88" y="-50.72" font-family="Helvetica,Arial,sans-serif" font-size="9.00" fill="blue">0..1</text>
</g>
<!-- Property -->
<g id="node3" class="node">
<title>Property</title>
<ellipse fill="none" stroke="black" cx="266.43" cy="-99.75" rx="31.21" ry="18"/>
<text text-anchor="middle" x="266.43" y="-95.88" font-family="Helvetica,Arial,sans-serif" font-size="10.00">Property</text>
</g>
<!-- Stay -->
<g id="node4" class="node">
<title>Stay</title>
<ellipse fill="none" stroke="black" cx="342.43" cy="-99.75" rx="27" ry="18"/>
<text text-anchor="middle" x="342.43" y="-95.88" font-family="Helvetica,Arial,sans-serif" font-size="10.00">Stay</text>
</g>
<!-- booking -->
<g id="node9" class="node">
<title>booking</title>
<ellipse fill="none" stroke="black" cx="342.43" cy="-18" rx="29.44" ry="18"/>
<text text-anchor="middle" x="342.43" y="-14.12" font-family="Helvetica,Arial,sans-serif" font-size="10.00">booking</text>
</g>
<!-- Stay&#45;&gt;booking -->
<g id="edge4" class="edge">
<title>Stay&#45;&gt;booking</title>
<path fill="none" stroke="black" d="M342.43,-81.45C342.43,-71.52 342.43,-58.81 342.43,-47.45"/>
<polygon fill="black" stroke="black" points="345.93,-47.78 342.43,-37.78 338.93,-47.78 345.93,-47.78"/>
<text text-anchor="middle" x="358.93" y="-55.2" font-family="Helvetica,Arial,sans-serif" font-size="9.00" fill="dimgrey">booking</text>
<text text-anchor="middle" x="350.88" y="-50.72" font-family="Helvetica,Arial,sans-serif" font-size="9.00" fill="blue">0..1</text>
</g>
<!-- Customer -->
<g id="node5" class="node">
<title>Customer</title>
<ellipse fill="none" stroke="black" cx="422.43" cy="-99.75" rx="34.76" ry="18"/>
<text text-anchor="middle" x="422.43" y="-95.88" font-family="Helvetica,Arial,sans-serif" font-size="10.00">Customer</text>
</g>
</g>
</svg>
