<?xml version="1.0" encoding="UTF-8" standalone="no"?>
<!DOCTYPE svg PUBLIC "-//W3C//DTD SVG 1.1//EN"
 "http://www.w3.org/Graphics/SVG/1.1/DTD/svg11.dtd">
<!-- Generated by graphviz version 9.0.0 (20230911.1827)
 -->
<!-- Title: G Pages: 1 -->
<svg width="393pt" height="126pt"
 viewBox="0.00 0.00 392.51 125.75" xmlns="http://www.w3.org/2000/svg" xmlns:xlink="http://www.w3.org/1999/xlink">
<g id="graph0" class="graph" transform="scale(1 1) rotate(0) translate(4 121.75)">
<title>G</title>
<!-- Customer -->
<g id="node1" class="node">
<title>Customer</title>
<ellipse fill="none" stroke="black" cx="34.76" cy="-99.75" rx="34.76" ry="18"/>
<text text-anchor="middle" x="34.76" y="-95.88" font-family="Helvetica,Arial,sans-serif" font-size="10.00">Customer</text>
</g>
<!-- Bill -->
<g id="node2" class="node">
<title>Bill</title>
<ellipse fill="none" stroke="black" cx="114.76" cy="-99.75" rx="27" ry="18"/>
<text text-anchor="middle" x="114.76" y="-95.88" font-family="Helvetica,Arial,sans-serif" font-size="10.00">Bill</text>
</g>
<!-- stay -->
<g id="node8" class="node">
<title>stay</title>
<ellipse fill="none" stroke="black" cx="114.76" cy="-18" rx="27" ry="18"/>
<text text-anchor="middle" x="114.76" y="-14.12" font-family="Helvetica,Arial,sans-serif" font-size="10.00">stay</text>
</g>
<!-- Bill&#45;&gt;stay -->
<g id="edge3" class="edge">
<title>Bill&#45;&gt;stay</title>
<path fill="none" stroke="black" d="M114.76,-81.45C114.76,-71.52 114.76,-58.81 114.76,-47.45"/>
<polygon fill="black" stroke="black" points="118.26,-47.78 114.76,-37.78 111.26,-47.78 118.26,-47.78"/>
<text text-anchor="middle" x="130.89" y="-55.2" font-family="Helvetica,Arial,sans-serif" font-size="9.00" fill="dimgrey">for_stay</text>
<text text-anchor="middle" x="123.21" y="-50.72" font-family="Helvetica,Arial,sans-serif" font-size="9.00" fill="blue">0..1</text>
</g>
<!-- Stay -->
<g id="node3" class="node">
<title>Stay</title>
<ellipse fill="none" stroke="black" cx="188.76" cy="-99.75" rx="27" ry="18"/>
<text text-anchor="middle" x="188.76" y="-95.88" font-family="Helvetica,Arial,sans-serif" font-size="10.00">Stay</text>
</g>
<!-- booking -->
<g id="node9" class="node">
<title>booking</title>
<ellipse fill="none" stroke="black" cx="188.76" cy="-18" rx="29.44" ry="18"/>
<text text-anchor="middle" x="188.76" y="-14.12" font-family="Helvetica,Arial,sans-serif" font-size="10.00">booking</text>
</g>
<!-- Stay&#45;&gt;booking -->
<g id="edge4" class="edge">
<title>Stay&#45;&gt;booking</title>
<path fill="none" stroke="black" d="M188.76,-81.45C188.76,-71.52 188.76,-58.81 188.76,-47.45"/>
<polygon fill="black" stroke="black" points="192.26,-47.78 188.76,-37.78 185.26,-47.78 192.26,-47.78"/>
<text text-anchor="middle" x="205.26" y="-55.2" font-family="Helvetica,Arial,sans-serif" font-size="9.00" fill="dimgrey">booking</text>
<text text-anchor="middle" x="197.21" y="-50.72" font-family="Helvetica,Arial,sans-serif" font-size="9.00" fill="blue">0..1</text>
</g>
<!-- Property -->
<g id="node4" class="node">
<title>Property</title>
<ellipse fill="none" stroke="black" cx="266.76" cy="-99.75" rx="31.21" ry="18"/>
<text text-anchor="middle" x="266.76" y="-95.88" font-family="Helvetica,Arial,sans-serif" font-size="10.00">Property</text>
</g>
<!-- Booking -->
<g id="node5" class="node">
<title>Booking</title>
<ellipse fill="none" stroke="black" cx="349.76" cy="-99.75" rx="30.32" ry="18"/>
<text text-anchor="middle" x="349.76" y="-95.88" font-family="Helvetica,Arial,sans-serif" font-size="10.00">Booking</text>
</g>
<!-- customer -->
<g id="node6" class="node">
<title>customer</title>
<ellipse fill="none" stroke="black" cx="269.76" cy="-18" rx="33.43" ry="18"/>
<text text-anchor="middle" x="269.76" y="-14.12" font-family="Helvetica,Arial,sans-serif" font-size="10.00">customer</text>
</g>
<!-- Booking&#45;&gt;customer -->
<g id="edge1" class="edge">
<title>Booking&#45;&gt;customer</title>
<path fill="none" stroke="black" d="M331.85,-84.7C324.33,-78.53 315.63,-71.04 308.26,-63.75 301.95,-57.5 295.51,-50.36 289.74,-43.64"/>
<polygon fill="black" stroke="black" points="292.45,-41.43 283.34,-36.03 287.09,-45.94 292.45,-41.43"/>
<text text-anchor="middle" x="326.51" y="-55.2" font-family="Helvetica,Arial,sans-serif" font-size="9.00" fill="dimgrey">customer</text>
<text text-anchor="middle" x="300.5" y="-39.63" font-family="Helvetica,Arial,sans-serif" font-size="9.00" fill="blue">0..1</text>
</g>
<!-- property -->
<g id="node7" class="node">
<title>property</title>
<ellipse fill="none" stroke="black" cx="351.76" cy="-18" rx="30.32" ry="18"/>
<text text-anchor="middle" x="351.76" y="-14.12" font-family="Helvetica,Arial,sans-serif" font-size="10.00">property</text>
</g>
<!-- Booking&#45;&gt;property -->
<g id="edge2" class="edge">
<title>Booking&#45;&gt;property</title>
<path fill="none" stroke="black" d="M350.2,-81.45C350.45,-71.52 350.76,-58.81 351.05,-47.45"/>
<polygon fill="black" stroke="black" points="354.54,-47.87 351.29,-37.78 347.54,-47.69 354.54,-47.87"/>
<text text-anchor="middle" x="367.64" y="-55.2" font-family="Helvetica,Arial,sans-serif" font-size="9.00" fill="dimgrey">property</text>
<text text-anchor="middle" x="359.32" y="-50.93" font-family="Helvetica,Arial,sans-serif" font-size="9.00" fill="blue">0..1</text>
</g>
</g>
</svg>
