<?xml version="1.0" encoding="UTF-8" standalone="no"?>
<!DOCTYPE svg PUBLIC "-//W3C//DTD SVG 1.1//EN"
 "http://www.w3.org/Graphics/SVG/1.1/DTD/svg11.dtd">
<!-- Generated by graphviz version 9.0.0 (20230911.1827)
 -->
<!-- Title: G Pages: 1 -->
<svg width="567pt" height="51pt"
 viewBox="0.00 0.00 567.34 51.20" xmlns="http://www.w3.org/2000/svg" xmlns:xlink="http://www.w3.org/1999/xlink">
<g id="graph0" class="graph" transform="scale(1 1) rotate(0) translate(4 47.2)">
<title>G</title>
<!-- instance -->
<g id="node1" class="node">
<title>instance</title>
<polygon fill="none" stroke="black" points="66,-43.2 0,-43.2 0,0 72,0 72,-37.2 66,-43.2"/>
<polyline fill="none" stroke="black" points="66,-43.2 66,-37.2"/>
<polyline fill="none" stroke="black" points="72,-37.2 66,-37.2"/>
<text text-anchor="middle" x="36" y="-23.35" font-family="Helvetica,Arial,sans-serif" font-size="10.00">My Domain</text>
<text text-anchor="middle" x="36" y="-12.1" font-family="Helvetica,Arial,sans-serif" font-size="10.00">Model</text>
</g>
<!-- sdml -->
<g id="node2" class="node">
<title>sdml</title>
<ellipse fill="none" stroke="black" cx="197.25" cy="-21.6" rx="36" ry="21.6"/>
<text text-anchor="middle" x="197.25" y="-23.35" font-family="Helvetica,Arial,sans-serif" font-size="10.00">Surface</text>
<text text-anchor="middle" x="197.25" y="-12.1" font-family="Helvetica,Arial,sans-serif" font-size="10.00">Syntax</text>
</g>
<!-- instance&#45;&gt;sdml -->
<g id="edge1" class="edge">
<title>instance&#45;&gt;sdml</title>
<path fill="none" stroke="black" d="M72.34,-21.6C95.23,-21.6 125.27,-21.6 150.04,-21.6"/>
<polygon fill="black" stroke="black" points="159.79,-21.6 149.79,-26.1 156.01,-21.6 149.79,-21.6 149.79,-21.6 149.79,-21.6 156.01,-21.6 149.79,-17.1 159.79,-21.6"/>
<text text-anchor="middle" x="116.62" y="-22.8" font-family="Helvetica,Arial,sans-serif" font-size="9.00" fill="darkgrey">expressed&#45;in</text>
</g>
<!-- semantics -->
<g id="node3" class="node">
<title>semantics</title>
<ellipse fill="none" stroke="black" cx="357.67" cy="-21.6" rx="40.42" ry="21.6"/>
<text text-anchor="middle" x="357.67" y="-23.35" font-family="Helvetica,Arial,sans-serif" font-size="10.00">Semantic</text>
<text text-anchor="middle" x="357.67" y="-12.1" font-family="Helvetica,Arial,sans-serif" font-size="10.00">Model</text>
</g>
<!-- sdml&#45;&gt;semantics -->
<g id="edge2" class="edge">
<title>sdml&#45;&gt;semantics</title>
<path fill="none" stroke="black" d="M233.41,-21.6C254.73,-21.6 282.31,-21.6 305.96,-21.6"/>
<polygon fill="black" stroke="black" points="315.65,-21.6 305.65,-26.1 311.87,-21.6 305.65,-21.6 305.65,-21.6 305.65,-21.6 311.87,-21.6 305.65,-17.1 315.65,-21.6"/>
<text text-anchor="middle" x="275.25" y="-22.8" font-family="Helvetica,Arial,sans-serif" font-size="9.00" fill="darkgrey">conforms&#45;to</text>
</g>
<!-- rdf -->
<g id="node4" class="node">
<title>rdf</title>
<ellipse fill="none" stroke="black" cx="523.34" cy="-21.6" rx="36" ry="21.6"/>
<text text-anchor="middle" x="523.34" y="-17.72" font-family="Helvetica,Arial,sans-serif" font-size="10.00">RDF/OWL</text>
</g>
<!-- semantics&#45;&gt;rdf -->
<g id="edge3" class="edge">
<title>semantics&#45;&gt;rdf</title>
<path fill="none" stroke="black" d="M398.29,-21.6C421.65,-21.6 451.32,-21.6 475.79,-21.6"/>
<polygon fill="black" stroke="black" points="485.76,-21.6 475.76,-26.1 481.98,-21.6 475.76,-21.6 475.76,-21.6 475.76,-21.6 481.98,-21.6 475.76,-17.1 485.76,-21.6"/>
<text text-anchor="middle" x="442.71" y="-22.8" font-family="Helvetica,Arial,sans-serif" font-size="9.00" fill="darkgrey">expressed&#45;in</text>
</g>
</g>
</svg>
