<?xml version="1.0" encoding="us-ascii" standalone="no"?><svg xmlns="http://www.w3.org/2000/svg" xmlns:xlink="http://www.w3.org/1999/xlink" contentStyleType="text/css" height="715px" preserveAspectRatio="none" style="width:751px;height:715px;" version="1.1" viewBox="0 0 751 715" width="751px" zoomAndPan="magnify"><defs/><g><path d="M210,655.88 L292,655.88 A3.75,3.75 0 0 1 294.5,658.38 L301.5,678.3683 L306,678.3683 A2.5,2.5 0 0 1 308.5,680.8683 L308.5,706.3566 A2.5,2.5 0 0 1 306,708.8566 L210,708.8566 A2.5,2.5 0 0 1 207.5,706.3566 L207.5,658.38 A2.5,2.5 0 0 1 210,655.88 " fill="#F1F1F1" style="stroke:#181818;stroke-width:0.5;"/><line style="stroke:#181818;stroke-width:0.5;" x1="207.5" x2="301.5" y1="678.3683" y2="678.3683"/><text fill="#000000" font-family="sans-serif" font-size="14" font-weight="bold" lengthAdjust="spacing" textLength="81" x="211.5" y="671.4152">Foundation</text><path d="M230,135.98 L292,135.98 A3.75,3.75 0 0 1 294.5,138.48 L301.5,158.4683 L306,158.4683 A2.5,2.5 0 0 1 308.5,160.9683 L308.5,186.4566 A2.5,2.5 0 0 1 306,188.9566 L230,188.9566 A2.5,2.5 0 0 1 227.5,186.4566 L227.5,138.48 A2.5,2.5 0 0 1 230,135.98 " fill="#F1F1F1" style="stroke:#181818;stroke-width:0.5;"/><line style="stroke:#181818;stroke-width:0.5;" x1="227.5" x2="301.5" y1="158.4683" y2="158.4683"/><text fill="#000000" font-family="sans-serif" font-size="14" font-weight="bold" lengthAdjust="spacing" textLength="61" x="231.5" y="151.5152">Modules</text><path d="M366.5,265.95 L455.5,265.95 A3.75,3.75 0 0 1 458,268.45 L465,288.4383 L469.5,288.4383 A2.5,2.5 0 0 1 472,290.9383 L472,316.4266 A2.5,2.5 0 0 1 469.5,318.9266 L366.5,318.9266 A2.5,2.5 0 0 1 364,316.4266 L364,268.45 A2.5,2.5 0 0 1 366.5,265.95 " fill="#F1F1F1" style="stroke:#181818;stroke-width:0.5;"/><line style="stroke:#181818;stroke-width:0.5;" x1="364" x2="465" y1="288.4383" y2="288.4383"/><text fill="#000000" font-family="sans-serif" font-size="14" font-weight="bold" lengthAdjust="spacing" textLength="88" x="368" y="281.4852">Annotations</text><path d="M388.5,525.91 L461.5,525.91 A3.75,3.75 0 0 1 464,528.41 L471,548.3983 L475.5,548.3983 A2.5,2.5 0 0 1 478,550.8983 L478,576.3866 A2.5,2.5 0 0 1 475.5,578.8866 L388.5,578.8866 A2.5,2.5 0 0 1 386,576.3866 L386,528.41 A2.5,2.5 0 0 1 388.5,525.91 " fill="#F1F1F1" style="stroke:#181818;stroke-width:0.5;"/><line style="stroke:#181818;stroke-width:0.5;" x1="386" x2="471" y1="548.3983" y2="548.3983"/><text fill="#000000" font-family="sans-serif" font-size="14" font-weight="bold" lengthAdjust="spacing" textLength="72" x="390" y="541.4452">Datatypes</text><path d="M386.5,395.93 L435.5,395.93 A3.75,3.75 0 0 1 438,398.43 L445,418.4183 L449.5,418.4183 A2.5,2.5 0 0 1 452,420.9183 L452,446.4066 A2.5,2.5 0 0 1 449.5,448.9066 L386.5,448.9066 A2.5,2.5 0 0 1 384,446.4066 L384,398.43 A2.5,2.5 0 0 1 386.5,395.93 " fill="#F1F1F1" style="stroke:#181818;stroke-width:0.5;"/><line style="stroke:#181818;stroke-width:0.5;" x1="384" x2="445" y1="418.4183" y2="418.4183"/><text fill="#000000" font-family="sans-serif" font-size="14" font-weight="bold" lengthAdjust="spacing" textLength="48" x="388" y="411.4652">Values</text><path d="M242.5,395.93 L317.5,395.93 A3.75,3.75 0 0 1 320,398.43 L327,418.4183 L331.5,418.4183 A2.5,2.5 0 0 1 334,420.9183 L334,446.4066 A2.5,2.5 0 0 1 331.5,448.9066 L242.5,448.9066 A2.5,2.5 0 0 1 240,446.4066 L240,398.43 A2.5,2.5 0 0 1 242.5,395.93 " fill="#F1F1F1" style="stroke:#181818;stroke-width:0.5;"/><line style="stroke:#181818;stroke-width:0.5;" x1="240" x2="327" y1="418.4183" y2="418.4183"/><text fill="#000000" font-family="sans-serif" font-size="14" font-weight="bold" lengthAdjust="spacing" textLength="74" x="244" y="411.4652">Sequences</text><path d="M123.5,6 L222.5,6 A3.75,3.75 0 0 1 225,8.5 L232,28.4883 L236.5,28.4883 A2.5,2.5 0 0 1 239,30.9883 L239,56.4766 A2.5,2.5 0 0 1 236.5,58.9766 L123.5,58.9766 A2.5,2.5 0 0 1 121,56.4766 L121,8.5 A2.5,2.5 0 0 1 123.5,6 " fill="#F1F1F1" style="stroke:#181818;stroke-width:0.5;"/><line style="stroke:#181818;stroke-width:0.5;" x1="121" x2="232" y1="28.4883" y2="28.4883"/><text fill="#000000" font-family="sans-serif" font-size="14" font-weight="bold" lengthAdjust="spacing" textLength="98" x="125" y="21.5352">ProductTypes</text><path d="M310.5,6 L385.5,6 A3.75,3.75 0 0 1 388,8.5 L395,28.4883 L399.5,28.4883 A2.5,2.5 0 0 1 402,30.9883 L402,56.4766 A2.5,2.5 0 0 1 399.5,58.9766 L310.5,58.9766 A2.5,2.5 0 0 1 308,56.4766 L308,8.5 A2.5,2.5 0 0 1 310.5,6 " fill="#F1F1F1" style="stroke:#181818;stroke-width:0.5;"/><line style="stroke:#181818;stroke-width:0.5;" x1="308" x2="395" y1="28.4883" y2="28.4883"/><text fill="#000000" font-family="sans-serif" font-size="14" font-weight="bold" lengthAdjust="spacing" textLength="74" x="312" y="21.5352">SumTypes</text><!--link Modules to Foundation--><g id="link_Modules_Foundation"><path codeLine="8" d="M240.48,189.36 C200.74,226.76 132,291.44 132,291.44 C132,291.44 132,291.44 132,553.4 C132,553.4 191.4701,613.8049 228.2901,651.1949 " fill="none" id="Modules-to-Foundation" style="stroke:#181818;stroke-width:1.0;stroke-dasharray:7.0,7.0;"/><polygon fill="#181818" points="232.5,655.47,229.0352,646.2507,228.9917,651.9074,223.335,651.864,232.5,655.47" style="stroke:#181818;stroke-width:1.0;"/><text fill="#000000" font-family="sans-serif" font-size="13" lengthAdjust="spacing" textLength="56" x="133" y="427.4884">&#171;import&#187;</text></g><!--link Modules to Annotations--><g id="link_Modules_Annotations"><path codeLine="9" d="M298.35,189.36 C324.38,211.57 357.1154,239.4958 383.1254,261.6858 " fill="none" id="Modules-to-Annotations" style="stroke:#181818;stroke-width:1.0;stroke-dasharray:7.0,7.0;"/><polygon fill="#181818" points="387.69,265.58,383.4393,256.6957,383.8862,262.3348,378.247,262.7818,387.69,265.58" style="stroke:#181818;stroke-width:1.0;"/><text fill="#000000" font-family="sans-serif" font-size="13" lengthAdjust="spacing" textLength="56" x="353" y="232.5184">&#171;import&#187;</text></g><!--link Annotations to Datatypes--><g id="link_Annotations_Datatypes"><path codeLine="12" d="M450.54,319.24 C468.82,333.73 488,348.93 488,348.93 C488,348.93 496,478.91 496,478.91 C496,478.91 496,495.91 496,495.91 C496,495.91 482.9931,507.1792 466.2831,521.6692 " fill="none" id="Annotations-to-Datatypes" style="stroke:#181818;stroke-width:1.0;stroke-dasharray:7.0,7.0;"/><polygon fill="#181818" points="461.75,525.6,471.1701,522.7258,465.5276,522.3243,465.929,516.6817,461.75,525.6" style="stroke:#181818;stroke-width:1.0;"/><text fill="#000000" font-family="sans-serif" font-size="13" lengthAdjust="spacing" textLength="56" x="496" y="427.4884">&#171;import&#187;</text></g><!--link Annotations to Values--><g id="link_Annotations_Values"><path codeLine="13" d="M418,319.34 C418,341.54 418,367.37 418,389.56 " fill="none" id="Annotations-to-Values" style="stroke:#181818;stroke-width:1.0;stroke-dasharray:7.0,7.0;"/><polygon fill="#181818" points="418,395.56,422,386.56,418,390.56,414,386.56,418,395.56" style="stroke:#181818;stroke-width:1.0;"/><text fill="#000000" font-family="sans-serif" font-size="13" lengthAdjust="spacing" textLength="56" x="419" y="362.4984">&#171;import&#187;</text></g><!--link Datatypes to Foundation--><g id="link_Datatypes_Foundation"><path codeLine="16" d="M396.79,579.29 C366.6,601.5 328.1634,629.765 297.9934,651.955 " fill="none" id="Datatypes-to-Foundation" style="stroke:#181818;stroke-width:1.0;stroke-dasharray:7.0,7.0;"/><polygon fill="#181818" points="293.16,655.51,302.7801,653.3998,297.1879,652.5475,298.0402,646.9552,293.16,655.51" style="stroke:#181818;stroke-width:1.0;"/><text fill="#000000" font-family="sans-serif" font-size="13" lengthAdjust="spacing" textLength="56" x="357" y="622.4484">&#171;import&#187;</text></g><!--link Sequences to Foundation--><g id="link_Sequences_Foundation"><path codeLine="19" d="M284.11,449.1 C278.57,498.41 267.1604,599.9176 261.5904,649.4576 " fill="none" id="Sequences-to-Foundation" style="stroke:#181818;stroke-width:1.0;stroke-dasharray:7.0,7.0;"/><polygon fill="#181818" points="260.92,655.42,265.9005,646.9233,261.4787,650.4513,257.9506,646.0294,260.92,655.42" style="stroke:#181818;stroke-width:1.0;"/><text fill="#000000" font-family="sans-serif" font-size="13" lengthAdjust="spacing" textLength="56" x="277" y="557.4684">&#171;import&#187;</text></g><!--link Sequences to Datatypes--><g id="link_Sequences_Datatypes"><path codeLine="20" d="M311.17,449.18 C330.71,470.01 355,495.91 355,495.91 C355,495.91 371.232,507.6025 391.342,522.0925 " fill="none" id="Sequences-to-Datatypes" style="stroke:#181818;stroke-width:1.0;stroke-dasharray:7.0,7.0;"/><polygon fill="#181818" points="396.21,525.6,391.2464,517.0934,392.1534,522.677,386.5697,523.584,396.21,525.6" style="stroke:#181818;stroke-width:1.0;"/><text fill="#000000" font-family="sans-serif" font-size="13" lengthAdjust="spacing" textLength="56" x="356" y="492.4784">&#171;import&#187;</text></g><!--link ProductTypes to Foundation--><g id="link_ProductTypes_Foundation"><path codeLine="23" d="M144.79,59.39 C93.95,96.78 6,161.47 6,161.47 C6,161.47 6,161.47 6,553.4 C6,553.4 128.0203,615.3633 201.6503,652.7533 " fill="none" id="ProductTypes-to-Foundation" style="stroke:#181818;stroke-width:1.0;stroke-dasharray:7.0,7.0;"/><polygon fill="#181818" points="207,655.47,200.7865,647.8285,202.5419,653.2061,197.1643,654.9615,207,655.47" style="stroke:#181818;stroke-width:1.0;"/><text fill="#000000" font-family="sans-serif" font-size="13" lengthAdjust="spacing" textLength="56" x="7" y="362.4984">&#171;import&#187;</text></g><!--link ProductTypes to Modules--><g id="link_ProductTypes_Modules"><path codeLine="24" d="M197.81,59.39 C213.08,81.59 231.5612,108.4655 246.8212,130.6655 " fill="none" id="ProductTypes-to-Modules" style="stroke:#181818;stroke-width:1.0;stroke-dasharray:7.0,7.0;"/><polygon fill="#181818" points="250.22,135.61,248.4181,125.9274,247.3877,131.4896,241.8255,130.4591,250.22,135.61" style="stroke:#181818;stroke-width:1.0;"/><text fill="#000000" font-family="sans-serif" font-size="13" lengthAdjust="spacing" textLength="56" x="231" y="102.5484">&#171;import&#187;</text></g><!--link SumTypes to Foundation--><g id="link_SumTypes_Foundation"><path codeLine="27" d="M402.42,51.82 C493.95,87.21 686,161.47 686,161.47 C686,161.47 686,161.47 686,553.4 C686,553.4 427.8985,630.5711 314.5285,664.4711 " fill="none" id="SumTypes-to-Foundation" style="stroke:#181818;stroke-width:1.0;stroke-dasharray:7.0,7.0;"/><polygon fill="#181818" points="308.78,666.19,318.5487,667.444,313.5704,664.7576,316.2568,659.7793,308.78,666.19" style="stroke:#181818;stroke-width:1.0;"/><text fill="#000000" font-family="sans-serif" font-size="13" lengthAdjust="spacing" textLength="56" x="687" y="362.4984">&#171;import&#187;</text></g><!--link SumTypes to Modules--><g id="link_SumTypes_Modules"><path codeLine="28" d="M337.39,59.39 C322.3,81.59 304.0429,108.4478 288.9529,130.6478 " fill="none" id="SumTypes-to-Modules" style="stroke:#181818;stroke-width:1.0;stroke-dasharray:7.0,7.0;"/><polygon fill="#181818" points="285.58,135.61,293.9475,130.4154,288.3908,131.4748,287.3313,125.9181,285.58,135.61" style="stroke:#181818;stroke-width:1.0;"/><text fill="#000000" font-family="sans-serif" font-size="13" lengthAdjust="spacing" textLength="56" x="318" y="102.5484">&#171;import&#187;</text></g><!--link Values to Datatypes--><g id="link_Values_Datatypes"><path codeLine="31" d="M420.83,449.32 C423.26,471.52 426.0871,497.3756 428.5171,519.5756 " fill="none" id="Values-to-Datatypes" style="stroke:#181818;stroke-width:1.0;stroke-dasharray:7.0,7.0;"/><polygon fill="#181818" points="429.17,525.54,432.167,516.1582,428.626,520.5697,424.2145,517.0287,429.17,525.54" style="stroke:#181818;stroke-width:1.0;"/><text fill="#000000" font-family="sans-serif" font-size="13" lengthAdjust="spacing" textLength="56" x="427" y="492.4784">&#171;import&#187;</text></g><!--SRC=[VP3B2i8m44Nt_OfyWRXn8r8GnPqWAEvZEqWndObvB8huxoQsfedQxEOcvzvvw5k3aYlUiWklRbT55kiD2LBCA8xQVG6QGWTAD0Ycay0aYSwBw0-f1WsIBUP58LqQlmBR-K1k6aBsU8xFUwgj0EtVFkLiLaRqagrMJIj9cR9Ca3KYcJUY4oP4Hu2FZwNtRxbJRe7K_KsTkR0mqI0a-FXHPEOFrYFSBM3LMqUHiQRG_-53_46vGrNcz1akqPacFznmy8abR1iwX3gtGinaa_kh-zoXcjxv1G00]--></g></svg>