<?xml version="1.0" encoding="us-ascii" standalone="no"?><svg xmlns="http://www.w3.org/2000/svg" xmlns:xlink="http://www.w3.org/1999/xlink" contentStyleType="text/css" height="327px" preserveAspectRatio="none" style="width:263px;height:327px;" version="1.1" viewBox="0 0 263 327" width="263px" zoomAndPan="magnify"><defs/><g><!--cluster Foundation--><g id="cluster_Foundation"><path d="M8.5,6 L90.5,6 A3.75,3.75 0 0 1 93,8.5 L100,28.4883 L253.5,28.4883 A2.5,2.5 0 0 1 256,30.9883 L256,310.99 A2.5,2.5 0 0 1 253.5,313.49 L8.5,313.49 A2.5,2.5 0 0 1 6,310.99 L6,8.5 A2.5,2.5 0 0 1 8.5,6 " fill="none" style="stroke:#000000;stroke-width:1.5;"/><line style="stroke:#000000;stroke-width:1.5;" x1="6" x2="100" y1="28.4883" y2="28.4883"/><text fill="#000000" font-family="sans-serif" font-size="14" font-weight="bold" lengthAdjust="spacing" textLength="81" x="10" y="21.5352">Foundation</text></g><!--class g_Namespace--><g id="elem_g_Namespace"><rect codeLine="7" fill="#F1F1F1" height="56.4883" id="g_Namespace" rx="2.5" ry="2.5" style="stroke:#181818;stroke-width:0.5;" width="218" x="22" y="41"/><ellipse cx="37" cy="57" fill="#A9DCDF" rx="11" ry="11" style="stroke:#181818;stroke-width:1.0;"/><path d="M36.8633,52.3481 L35.7095,57.4199 L38.0254,57.4199 Z M35.3691,50.1069 L38.3657,50.1069 L41.7109,62.5 L39.2622,62.5 L38.4985,59.437 L35.2197,59.437 L34.4727,62.5 L32.0239,62.5 Z " fill="#000000"/><text fill="#000000" font-family="sans-serif" font-size="14" font-style="italic" lengthAdjust="spacing" textLength="78" x="51" y="62.291">Namespace</text><rect fill="none" height="16.1328" style="stroke:#181818;stroke-width:1.0;stroke-dasharray:2.0,2.0;" width="106" x="137" y="38"/><text fill="#000000" font-family="sans-serif" font-size="12" font-style="italic" lengthAdjust="spacing" textLength="104" x="138" y="50.6016">T extends Named</text><line style="stroke:#181818;stroke-width:0.5;" x1="23" x2="239" y1="73" y2="73"/><ellipse cx="33" cy="86.7441" fill="none" rx="3" ry="3" style="stroke:#038048;stroke-width:1.0;"/><text fill="#000000" font-family="sans-serif" font-size="14" lengthAdjust="spacing" textLength="171" x="42" y="90.5352">members: {unique} 0..* T</text></g><!--class Named--><g id="elem_Named"><rect codeLine="10" fill="#F1F1F1" height="40" id="Named" rx="2.5" ry="2.5" style="stroke:#181818;stroke-width:0.5;" width="80" x="40" y="157.49"/><ellipse cx="55" cy="173.49" fill="#A9DCDF" rx="11" ry="11" style="stroke:#181818;stroke-width:1.0;"/><path d="M54.8633,168.8381 L53.7095,173.9099 L56.0254,173.9099 Z M53.3691,166.5969 L56.3657,166.5969 L59.7109,178.99 L57.2622,178.99 L56.4985,175.927 L53.2197,175.927 L52.4727,178.99 L50.0239,178.99 Z " fill="#000000"/><text fill="#000000" font-family="sans-serif" font-size="14" font-style="italic" lengthAdjust="spacing" textLength="48" x="69" y="178.781">Named</text><line style="stroke:#181818;stroke-width:0.5;" x1="41" x2="119" y1="189.49" y2="189.49"/></g><!--class Name--><g id="elem_Name"><rect codeLine="11" fill="#F1F1F1" height="40" id="Name" rx="2.5" ry="2.5" style="stroke:#181818;stroke-width:0.5;" width="71" x="169.5" y="157.49"/><ellipse cx="184.5" cy="173.49" fill="#ADD1B2" rx="11" ry="11" style="stroke:#181818;stroke-width:1.0;"/><path d="M186.9731,179.6331 Q186.3921,179.9319 185.7529,180.0813 Q185.1138,180.2307 184.4082,180.2307 Q181.9014,180.2307 180.5815,178.5789 Q179.2617,176.927 179.2617,173.8059 Q179.2617,170.6765 180.5815,169.0247 Q181.9014,167.3728 184.4082,167.3728 Q185.1138,167.3728 185.7612,167.5222 Q186.4087,167.6716 186.9731,167.9705 L186.9731,170.6931 Q186.3423,170.1121 185.7488,169.8423 Q185.1553,169.5725 184.5244,169.5725 Q183.1797,169.5725 182.4949,170.6392 Q181.8101,171.7058 181.8101,173.8059 Q181.8101,175.8977 182.4949,176.9644 Q183.1797,178.031 184.5244,178.031 Q185.1553,178.031 185.7488,177.7612 Q186.3423,177.4915 186.9731,176.9104 Z " fill="#000000"/><text fill="#000000" font-family="sans-serif" font-size="14" lengthAdjust="spacing" textLength="39" x="198.5" y="178.781">Name</text><line style="stroke:#181818;stroke-width:0.5;" x1="170.5" x2="239.5" y1="189.49" y2="189.49"/></g><!--class Type--><g id="elem_Type"><rect codeLine="16" fill="#F1F1F1" height="40" id="Type" rx="2.5" ry="2.5" style="stroke:#181818;stroke-width:0.5;" width="65" x="47.5" y="257.49"/><ellipse cx="62.5" cy="273.49" fill="#A9DCDF" rx="11" ry="11" style="stroke:#181818;stroke-width:1.0;"/><path d="M62.3633,268.8381 L61.2095,273.9099 L63.5254,273.9099 Z M60.8691,266.5969 L63.8657,266.5969 L67.2109,278.99 L64.7622,278.99 L63.9985,275.927 L60.7197,275.927 L59.9727,278.99 L57.5239,278.99 Z " fill="#000000"/><text fill="#000000" font-family="sans-serif" font-size="14" font-style="italic" lengthAdjust="spacing" textLength="33" x="76.5" y="278.781">Type</text><line style="stroke:#181818;stroke-width:0.5;" x1="48.5" x2="111.5" y1="289.49" y2="289.49"/></g><!--class Typed--><g id="elem_Typed"><rect codeLine="17" fill="#F1F1F1" height="40" id="Typed" rx="2.5" ry="2.5" style="stroke:#181818;stroke-width:0.5;" width="74" x="163" y="257.49"/><ellipse cx="178" cy="273.49" fill="#A9DCDF" rx="11" ry="11" style="stroke:#181818;stroke-width:1.0;"/><path d="M177.8633,268.8381 L176.7095,273.9099 L179.0254,273.9099 Z M176.3691,266.5969 L179.3657,266.5969 L182.7109,278.99 L180.2622,278.99 L179.4985,275.927 L176.2197,275.927 L175.4727,278.99 L173.0239,278.99 Z " fill="#000000"/><text fill="#000000" font-family="sans-serif" font-size="14" font-style="italic" lengthAdjust="spacing" textLength="42" x="192" y="278.781">Typed</text><line style="stroke:#181818;stroke-width:0.5;" x1="164" x2="236" y1="289.49" y2="289.49"/></g><!--link g_Namespace to Named--><g id="link_g_Namespace_Named"><path codeLine="13" d="M117.73,97.88 C108.82,116.45 99.8842,135.0498 91.9342,151.6298 " fill="none" id="g_Namespace-to-Named" style="stroke:#181818;stroke-width:1.0;stroke-dasharray:7.0,7.0;"/><polygon fill="#181818" points="89.34,157.04,96.838,150.6541,91.5018,152.5315,89.6244,147.1953,89.34,157.04" style="stroke:#181818;stroke-width:1.0;"/></g><!--link Named to Name--><g id="link_Named_Name"><path codeLine="14" d="M132.28,177.49 C132.28,177.49 163.33,177.49 163.33,177.49 C163.33,177.49 159.62,177.49 163.13,177.49 " fill="none" id="Named-Name" style="stroke:#181818;stroke-width:1.0;"/><polygon fill="#181818" points="120.28,177.49,126.28,181.49,132.28,177.49,126.28,173.49,120.28,177.49" style="stroke:#181818;stroke-width:1.0;"/><polygon fill="#181818" points="169.13,177.49,160.13,173.49,164.13,177.49,160.13,181.49,169.13,177.49" style="stroke:#181818;stroke-width:1.0;"/><text fill="#000000" font-family="sans-serif" font-size="13" lengthAdjust="spacing" textLength="48" x="113.5615" y="154.1886">identity</text><text fill="#000000" font-family="sans-serif" font-size="13" lengthAdjust="spacing" textLength="8" x="113.5615" y="169.4991">1</text></g><!--reverse link Named to Type--><g id="link_Named_Type"><path codeLine="19" d="M80,215.85 C80,233.03 80,240 80,257.17 " fill="none" id="Named-backto-Type" style="stroke:#181818;stroke-width:1.0;"/><polygon fill="none" points="80,197.85,74,215.85,86,215.85,80,197.85" style="stroke:#181818;stroke-width:1.0;"/></g><!--reverse link Type to Typed--><g id="link_Type_Typed"><path codeLine="20" d="M118.66,277.49 C123.01,277.49 120,277.49 120,277.49 C120,277.49 160,277.49 160,277.49 C160,277.49 160.98,277.49 162.62,277.49 " fill="none" id="Type-backto-Typed" style="stroke:#181818;stroke-width:1.0;"/><polygon fill="#181818" points="112.66,277.49,121.66,281.49,117.66,277.49,121.66,273.49,112.66,277.49" style="stroke:#181818;stroke-width:1.0;"/><text fill="#000000" font-family="sans-serif" font-size="13" lengthAdjust="spacing" textLength="27" x="120.5938" y="257.5336">type</text><text fill="#000000" font-family="sans-serif" font-size="13" lengthAdjust="spacing" textLength="22" x="120.5938" y="272.8442">1..*</text><text fill="#000000" font-family="sans-serif" font-size="13" lengthAdjust="spacing" textLength="58" x="96.9549" y="303.717">members</text><text fill="#000000" font-family="sans-serif" font-size="13" lengthAdjust="spacing" textLength="22" x="132.9549" y="319.0276">0..*</text></g><!--SRC=[TL6nRiCW4DtvYXDZAbl9qAMgl5JgcCbZf0gRgus2WN9OYkNwtmlOJJsa323klNll7T1L6IUy6A0HxRNpTZJopMhh8NXXA49e0gCxIok3ON88pkefNNQOiH897JmVMQyame2Xjv8OSr5QT0ZlILq4PGtC3E8I3KMRDa2h1H7minWmUhRuMWFU0Xf9a6gouY08keyxOHD8wsd0eK5FBp2FHdsDkC2nB0zGPyRoo2XhmhnYVwNVIjxsPcLPhJqPMRiFHL5urVKXdXNmEB09AamNVUAPmHuPr-dfvkK_A6VAO2OMeok-zyuhXsy3NtoQaqCCeF5pov4-9sR8GAApvGS0]--></g></svg>