<?xml version="1.0" encoding="us-ascii" standalone="no"?><svg xmlns="http://www.w3.org/2000/svg" xmlns:xlink="http://www.w3.org/1999/xlink" contentStyleType="text/css" height="385px" preserveAspectRatio="none" style="width:645px;height:385px;" version="1.1" viewBox="0 0 645 385" width="645px" zoomAndPan="magnify"><defs/><g><!--cluster Foundation--><g id="cluster_Foundation"><path d="M124.5,6 L206.5,6 A3.75,3.75 0 0 1 209,8.5 L216,28.4883 L569.5,28.4883 A2.5,2.5 0 0 1 572,30.9883 L572,102.5 A2.5,2.5 0 0 1 569.5,105 L124.5,105 A2.5,2.5 0 0 1 122,102.5 L122,8.5 A2.5,2.5 0 0 1 124.5,6 " fill="none" style="stroke:#000000;stroke-width:1.5;"/><line style="stroke:#000000;stroke-width:1.5;" x1="122" x2="216" y1="28.4883" y2="28.4883"/><text fill="#000000" font-family="sans-serif" font-size="14" font-weight="bold" lengthAdjust="spacing" textLength="81" x="126" y="21.5352">Foundation</text></g><!--cluster Modules--><g id="cluster_Modules"><path d="M8.5,170 L70.5,170 A3.75,3.75 0 0 1 73,172.5 L80,192.4883 L635.5,192.4883 A2.5,2.5 0 0 1 638,194.9883 L638,375.5 A2.5,2.5 0 0 1 635.5,378 L8.5,378 A2.5,2.5 0 0 1 6,375.5 L6,172.5 A2.5,2.5 0 0 1 8.5,170 " fill="none" style="stroke:#000000;stroke-width:1.5;"/><line style="stroke:#000000;stroke-width:1.5;" x1="6" x2="80" y1="192.4883" y2="192.4883"/><text fill="#000000" font-family="sans-serif" font-size="14" font-weight="bold" lengthAdjust="spacing" textLength="61" x="10" y="185.5352">Modules</text></g><!--class Definition--><g id="elem_Definition"><rect codeLine="8" fill="#F1F1F1" height="32" id="Definition" rx="2.5" ry="2.5" style="stroke:#181818;stroke-width:0.5;" width="99" x="448.5" y="49"/><ellipse cx="463.5" cy="65" fill="#A9DCDF" rx="11" ry="11" style="stroke:#181818;stroke-width:1.0;"/><path d="M463.3633,60.3481 L462.2095,65.4199 L464.5254,65.4199 Z M461.8691,58.1069 L464.8657,58.1069 L468.2109,70.5 L465.7622,70.5 L464.9985,67.437 L461.7197,67.437 L460.9727,70.5 L458.5239,70.5 Z " fill="#000000"/><text fill="#000000" font-family="sans-serif" font-size="14" font-style="italic" lengthAdjust="spacing" textLength="67" x="477.5" y="70.291">Definition</text></g><!--class g_Namespace--><g id="elem_g_Namespace"><rect codeLine="9" fill="#F1F1F1" height="32" id="g_Namespace" rx="2.5" ry="2.5" style="stroke:#181818;stroke-width:0.5;" width="218" x="180" y="49"/><ellipse cx="195" cy="65" fill="#A9DCDF" rx="11" ry="11" style="stroke:#181818;stroke-width:1.0;"/><path d="M194.8633,60.3481 L193.7095,65.4199 L196.0254,65.4199 Z M193.3691,58.1069 L196.3657,58.1069 L199.7109,70.5 L197.2622,70.5 L196.4985,67.437 L193.2197,67.437 L192.4727,70.5 L190.0239,70.5 Z " fill="#000000"/><text fill="#000000" font-family="sans-serif" font-size="14" font-style="italic" lengthAdjust="spacing" textLength="78" x="209" y="70.291">Namespace</text><rect fill="none" height="16.1328" style="stroke:#181818;stroke-width:1.0;stroke-dasharray:2.0,2.0;" width="106" x="295" y="46"/><text fill="#000000" font-family="sans-serif" font-size="12" font-style="italic" lengthAdjust="spacing" textLength="104" x="296" y="58.6016">T extends Named</text></g><!--class g_Module--><g id="elem_g_Module"><rect codeLine="13" fill="#F1F1F1" height="40" id="g_Module" rx="2.5" ry="2.5" style="stroke:#181818;stroke-width:0.5;" width="201" x="253.5" y="213"/><ellipse cx="268.5" cy="229" fill="#ADD1B2" rx="11" ry="11" style="stroke:#181818;stroke-width:1.0;"/><path d="M270.9731,235.1431 Q270.3921,235.4419 269.7529,235.5913 Q269.1138,235.7407 268.4082,235.7407 Q265.9014,235.7407 264.5815,234.0889 Q263.2617,232.437 263.2617,229.3159 Q263.2617,226.1865 264.5815,224.5347 Q265.9014,222.8828 268.4082,222.8828 Q269.1138,222.8828 269.7612,223.0322 Q270.4087,223.1816 270.9731,223.4805 L270.9731,226.2031 Q270.3423,225.6221 269.7488,225.3523 Q269.1553,225.0825 268.5244,225.0825 Q267.1797,225.0825 266.4949,226.1492 Q265.8101,227.2158 265.8101,229.3159 Q265.8101,231.4077 266.4949,232.4744 Q267.1797,233.541 268.5244,233.541 Q269.1553,233.541 269.7488,233.2712 Q270.3423,233.0015 270.9731,232.4204 Z " fill="#000000"/><text fill="#000000" font-family="sans-serif" font-size="14" lengthAdjust="spacing" textLength="51" x="282.5" y="234.291">Module</text><rect fill="none" height="16.1328" style="stroke:#181818;stroke-width:1.0;stroke-dasharray:2.0,2.0;" width="116" x="341.5" y="210"/><text fill="#000000" font-family="sans-serif" font-size="12" font-style="italic" lengthAdjust="spacing" textLength="114" x="342.5" y="222.6016">T=ModuleDefinition</text><line style="stroke:#181818;stroke-width:0.5;" x1="254.5" x2="453.5" y1="245" y2="245"/></g><!--class ModuleDefinition--><g id="elem_ModuleDefinition"><rect codeLine="14" fill="#F1F1F1" height="40" id="ModuleDefinition" rx="2.5" ry="2.5" style="stroke:#181818;stroke-width:0.5;" width="150" x="464" y="314"/><ellipse cx="479" cy="330" fill="#A9DCDF" rx="11" ry="11" style="stroke:#181818;stroke-width:1.0;"/><path d="M478.8633,325.3481 L477.7095,330.4199 L480.0254,330.4199 Z M477.3691,323.1069 L480.3657,323.1069 L483.7109,335.5 L481.2622,335.5 L480.4985,332.437 L477.2197,332.437 L476.4727,335.5 L474.0239,335.5 Z " fill="#000000"/><text fill="#000000" font-family="sans-serif" font-size="14" font-style="italic" lengthAdjust="spacing" textLength="118" x="493" y="335.291">ModuleDefinition</text><line style="stroke:#181818;stroke-width:0.5;" x1="465" x2="613" y1="346" y2="346"/></g><!--class Import--><g id="elem_Import"><rect codeLine="22" fill="#F1F1F1" height="40" id="Import" rx="2.5" ry="2.5" style="stroke:#181818;stroke-width:0.5;" width="78" x="125" y="213"/><ellipse cx="140" cy="229" fill="#A9DCDF" rx="11" ry="11" style="stroke:#181818;stroke-width:1.0;"/><path d="M139.8633,224.3481 L138.7095,229.4199 L141.0254,229.4199 Z M138.3691,222.1069 L141.3657,222.1069 L144.7109,234.5 L142.2622,234.5 L141.4985,231.437 L138.2197,231.437 L137.4727,234.5 L135.0239,234.5 Z " fill="#000000"/><text fill="#000000" font-family="sans-serif" font-size="14" font-style="italic" lengthAdjust="spacing" textLength="46" x="154" y="234.291">Import</text><line style="stroke:#181818;stroke-width:0.5;" x1="126" x2="202" y1="245" y2="245"/></g><!--class ModuleImport--><g id="elem_ModuleImport"><rect codeLine="23" fill="#F1F1F1" height="40" id="ModuleImport" rx="2.5" ry="2.5" style="stroke:#181818;stroke-width:0.5;" width="129" x="284.5" y="314"/><ellipse cx="299.5" cy="330" fill="#ADD1B2" rx="11" ry="11" style="stroke:#181818;stroke-width:1.0;"/><path d="M301.9731,336.1431 Q301.3921,336.4419 300.7529,336.5913 Q300.1138,336.7407 299.4082,336.7407 Q296.9014,336.7407 295.5815,335.0889 Q294.2617,333.437 294.2617,330.3159 Q294.2617,327.1865 295.5815,325.5347 Q296.9014,323.8828 299.4082,323.8828 Q300.1138,323.8828 300.7612,324.0322 Q301.4087,324.1816 301.9731,324.4805 L301.9731,327.2031 Q301.3423,326.6221 300.7488,326.3523 Q300.1553,326.0825 299.5244,326.0825 Q298.1797,326.0825 297.4949,327.1492 Q296.8101,328.2158 296.8101,330.3159 Q296.8101,332.4077 297.4949,333.4744 Q298.1797,334.541 299.5244,334.541 Q300.1553,334.541 300.7488,334.2712 Q301.3423,334.0015 301.9731,333.4204 Z " fill="#000000"/><text fill="#000000" font-family="sans-serif" font-size="14" lengthAdjust="spacing" textLength="97" x="313.5" y="335.291">ModuleImport</text><line style="stroke:#181818;stroke-width:0.5;" x1="285.5" x2="412.5" y1="346" y2="346"/></g><!--class ModuleDefinitionImport--><g id="elem_ModuleDefinitionImport"><rect codeLine="24" fill="#F1F1F1" height="40" id="ModuleDefinitionImport" rx="2.5" ry="2.5" style="stroke:#181818;stroke-width:0.5;" width="196" x="38" y="314"/><ellipse cx="53" cy="330" fill="#ADD1B2" rx="11" ry="11" style="stroke:#181818;stroke-width:1.0;"/><path d="M55.4731,336.1431 Q54.8921,336.4419 54.2529,336.5913 Q53.6138,336.7407 52.9082,336.7407 Q50.4014,336.7407 49.0815,335.0889 Q47.7617,333.437 47.7617,330.3159 Q47.7617,327.1865 49.0815,325.5347 Q50.4014,323.8828 52.9082,323.8828 Q53.6138,323.8828 54.2612,324.0322 Q54.9087,324.1816 55.4731,324.4805 L55.4731,327.2031 Q54.8423,326.6221 54.2488,326.3523 Q53.6553,326.0825 53.0244,326.0825 Q51.6797,326.0825 50.9949,327.1492 Q50.3101,328.2158 50.3101,330.3159 Q50.3101,332.4077 50.9949,333.4744 Q51.6797,334.541 53.0244,334.541 Q53.6553,334.541 54.2488,334.2712 Q54.8423,334.0015 55.4731,333.4204 Z " fill="#000000"/><text fill="#000000" font-family="sans-serif" font-size="14" lengthAdjust="spacing" textLength="164" x="67" y="335.291">ModuleDefinitionImport</text><line style="stroke:#181818;stroke-width:0.5;" x1="39" x2="233" y1="346" y2="346"/></g><!--reverse link Definition to g_Module--><g id="link_Definition_g_Module"><path codeLine="16" d="M472.9148,94.9168 C446.5948,125.2568 399.69,179.33 370.77,212.67 " fill="none" id="Definition-backto-g_Module" style="stroke:#181818;stroke-width:1.0;"/><polygon fill="none" points="484.71,81.32,468.3825,90.985,477.447,98.8485,484.71,81.32" style="stroke:#181818;stroke-width:1.0;"/></g><!--link g_Module to g_Namespace--><g id="link_g_Module_g_Namespace"><path codeLine="17" d="M346.43,212.67 C333.38,179.33 313.4429,128.4209 301.5629,98.0809 " fill="none" id="g_Module-to-g_Namespace" style="stroke:#181818;stroke-width:1.0;"/><polygon fill="none" points="295,81.32,295.976,100.2685,307.1499,95.8933,295,81.32" style="stroke:#181818;stroke-width:1.0;"/></g><!--link g_Module to ModuleDefinition--><g id="link_g_Module_ModuleDefinition"><path codeLine="18" d="M390.11,253.32 C422.6,270.71 464.8203,293.2983 497.3803,310.7283 " fill="none" id="g_Module-to-ModuleDefinition" style="stroke:#181818;stroke-width:1.0;stroke-dasharray:7.0,7.0;"/><polygon fill="#181818" points="502.67,313.56,496.6232,305.7859,498.2619,311.2002,492.8476,312.8389,502.67,313.56" style="stroke:#181818;stroke-width:1.0;"/></g><!--reverse link Definition to ModuleDefinition--><g id="link_Definition_ModuleDefinition"><path codeLine="20" d="M503.0535,98.9112 C510.0535,144.4712 528.19,262.63 536.01,313.5 " fill="none" id="Definition-backto-ModuleDefinition" style="stroke:#181818;stroke-width:1.0;"/><polygon fill="none" points="500.32,81.12,497.1231,99.8224,508.9839,98.0001,500.32,81.12" style="stroke:#181818;stroke-width:1.0;"/></g><!--link g_Module to Import--><g id="link_g_Module_Import"><path codeLine="26" d="M253.09,233 C239.46,233 227.33,233 227.33,233 C227.33,233 222.27,233 209.39,233 " fill="none" id="g_Module-to-Import" style="stroke:#181818;stroke-width:1.0;"/><polygon fill="#181818" points="203.39,233,212.39,237,208.39,233,212.39,229,203.39,233" style="stroke:#181818;stroke-width:1.0;"/><text fill="#000000" font-family="sans-serif" font-size="13" lengthAdjust="spacing" textLength="59" x="211.6401" y="205.3345">+imports</text><text fill="#000000" font-family="sans-serif" font-size="13" lengthAdjust="spacing" textLength="22" x="230.1401" y="220.6451">0..*</text></g><!--reverse link Import to ModuleImport--><g id="link_Import_ModuleImport"><path codeLine="27" d="M215.9798,261.8142 C248.4698,279.2042 280.11,296.13 312.67,313.56 " fill="none" id="Import-backto-ModuleImport" style="stroke:#181818;stroke-width:1.0;"/><polygon fill="none" points="200.11,253.32,213.1484,267.1041,218.8111,256.5242,200.11,253.32" style="stroke:#181818;stroke-width:1.0;"/></g><!--link ModuleImport to g_Module--><g id="link_ModuleImport_g_Module"><path codeLine="28" d="M349.98,313.63 C350.86,296.13 351.8573,276.5024 352.7373,259.0824 " fill="none" id="ModuleImport-to-g_Module" style="stroke:#181818;stroke-width:1.0;"/><polygon fill="#181818" points="353.04,253.09,348.591,261.8767,352.7877,258.0836,356.5808,262.2803,353.04,253.09" style="stroke:#181818;stroke-width:1.0;"/><text fill="#000000" font-family="sans-serif" font-size="13" lengthAdjust="spacing" textLength="52" x="293.4575" y="273.4617">+import</text></g><!--reverse link Import to ModuleDefinitionImport--><g id="link_Import_ModuleDefinitionImport"><path codeLine="29" d="M153.6984,270.4098 C148.7684,287.8298 146.43,296.13 141.48,313.63 " fill="none" id="Import-backto-ModuleDefinitionImport" style="stroke:#181818;stroke-width:1.0;"/><polygon fill="none" points="158.6,253.09,147.9251,268.7759,159.4716,272.0436,158.6,253.09" style="stroke:#181818;stroke-width:1.0;"/></g><!--link ModuleDefinitionImport to ModuleDefinition--><g id="link_ModuleDefinitionImport_ModuleDefinition"><path codeLine="30" d="M195.77,313.61 C236.85,299.59 284,283.5 284,283.5 C284,283.5 414,283.5 414,283.5 C414,283.5 448.2671,297.3418 482.9571,311.3618 " fill="none" id="ModuleDefinitionImport-to-ModuleDefinition" style="stroke:#181818;stroke-width:1.0;"/><polygon fill="#181818" points="488.52,313.61,481.6745,306.5291,483.8843,311.7365,478.6769,313.9462,488.52,313.61" style="stroke:#181818;stroke-width:1.0;"/><text fill="#000000" font-family="sans-serif" font-size="13" lengthAdjust="spacing" textLength="52" x="415.4413" y="303.2114">+import</text></g><!--reverse link Foundation to Modules--><g id="link_Foundation_Modules"><path codeLine="33" d="M117.088,76.1451 C116.1184,76.9071 119.4359,74.3001 118.3326,75.167 C116.126,76.901 113.6652,78.8346 111.0023,80.927 C100.3509,89.2966 86.4669,100.2056 72.6888,111.0313 C45.1325,132.6825 18,154 18,154 C18,154 17.7575,158.7238 17.3919,165.8463 C17.3462,166.7366 17.2985,167.6644 17.2492,168.6251 C17.2369,168.8653 17.2245,169.1075 17.2119,169.3517 C17.2057,169.4739 17.1994,169.5965 17.193,169.7196 " fill="none" id="Foundation-backto-Modules" style="stroke:#181818;stroke-width:1.0;stroke-dasharray:7.0,7.0;"/><polygon fill="#181818" points="121.8057,72.4378,112.2577,74.8537,117.8743,75.5272,117.2007,81.1438,121.8057,72.4378" style="stroke:#181818;stroke-width:1.0;"/><text fill="#000000" font-family="sans-serif" font-size="13" lengthAdjust="spacing" textLength="56" x="50" y="142.5684">&#171;import&#187;</text></g><!--SRC=[XL8zJyCm4DtzAquPGOswiA3W1OJ405D79EJ4HseriQsS8wXA_pjsFasJ2a_slNVllJkP3afRqOWQSb4SoiQqMZwQoZJW6g79GwWTeubLAOtkQ16igOxX4M7QI2IqSBTbUoKHQdHx8uanwwL5YV0Sr8LJHiE9WJy3hSwneQuWSlA-XOEY4aJmX9zAgz2mXYPleaOViS1i1_ZjK4k2K9Cy0K5GVam4TfvJl1hPLaX3X46gBsQxX_uo6uzIVHrEvxKabqqZBPpkClLlMhlvuPU3pR0qNpeGukn_66bWf7nXoJhQ8iZIRot_IsrDuw9zz3fNohFOGBYOWKDogpg4tlKsJM-Is22M7kDTXMUfP39O7VGVlIKnLbxiql-MyPUahVNRdd_kFMHPtyVvBm00]--></g></svg>