<?xml version="1.0" encoding="us-ascii" standalone="no"?><svg xmlns="http://www.w3.org/2000/svg" xmlns:xlink="http://www.w3.org/1999/xlink" contentStyleType="text/css" height="731px" preserveAspectRatio="none" style="width:1945px;height:731px;" version="1.1" viewBox="0 0 1945 731" width="1945px" zoomAndPan="magnify"><defs/><g><!--cluster Foundation--><g id="cluster_Foundation"><path d="M1180.5,6 L1262.5,6 A3.75,3.75 0 0 1 1265,8.5 L1272,28.4883 L1331.5,28.4883 A2.5,2.5 0 0 1 1334,30.9883 L1334,102.5 A2.5,2.5 0 0 1 1331.5,105 L1180.5,105 A2.5,2.5 0 0 1 1178,102.5 L1178,8.5 A2.5,2.5 0 0 1 1180.5,6 " fill="none" style="stroke:#000000;stroke-width:1.5;"/><line style="stroke:#000000;stroke-width:1.5;" x1="1178" x2="1272" y1="28.4883" y2="28.4883"/><text fill="#000000" font-family="sans-serif" font-size="14" font-weight="bold" lengthAdjust="spacing" textLength="81" x="1182" y="21.5352">Foundation</text></g><!--cluster Datatypes--><g id="cluster_Datatypes"><path d="M529.5,625.38 L602.5,625.38 A3.75,3.75 0 0 1 605,627.88 L612,647.8683 L1585.5,647.8683 A2.5,2.5 0 0 1 1588,650.3683 L1588,721.88 A2.5,2.5 0 0 1 1585.5,724.38 L529.5,724.38 A2.5,2.5 0 0 1 527,721.88 L527,627.88 A2.5,2.5 0 0 1 529.5,625.38 " fill="none" style="stroke:#000000;stroke-width:1.5;"/><line style="stroke:#000000;stroke-width:1.5;" x1="527" x2="612" y1="647.8683" y2="647.8683"/><text fill="#000000" font-family="sans-serif" font-size="14" font-weight="bold" lengthAdjust="spacing" textLength="72" x="531" y="640.9152">Datatypes</text></g><!--cluster SequenceTypes--><g id="cluster_SequenceTypes"><path d="M8.5,473.38 L118.5,473.38 A3.75,3.75 0 0 1 121,475.88 L128,495.8683 L311.5,495.8683 A2.5,2.5 0 0 1 314,498.3683 L314,569.88 A2.5,2.5 0 0 1 311.5,572.38 L8.5,572.38 A2.5,2.5 0 0 1 6,569.88 L6,475.88 A2.5,2.5 0 0 1 8.5,473.38 " fill="none" style="stroke:#000000;stroke-width:1.5;"/><line style="stroke:#000000;stroke-width:1.5;" x1="6" x2="128" y1="495.8683" y2="495.8683"/><text fill="#000000" font-family="sans-serif" font-size="14" font-weight="bold" lengthAdjust="spacing" textLength="109" x="10" y="488.9152">SequenceTypes</text></g><!--cluster SumTypes--><g id="cluster_SumTypes"><path d="M1571.5,473.25 L1646.5,473.25 A3.75,3.75 0 0 1 1649,475.75 L1656,495.7383 L1872.5,495.7383 A2.5,2.5 0 0 1 1875,498.2383 L1875,570.01 A2.5,2.5 0 0 1 1872.5,572.51 L1571.5,572.51 A2.5,2.5 0 0 1 1569,570.01 L1569,475.75 A2.5,2.5 0 0 1 1571.5,473.25 " fill="none" style="stroke:#000000;stroke-width:1.5;"/><line style="stroke:#000000;stroke-width:1.5;" x1="1569" x2="1656" y1="495.7383" y2="495.7383"/><text fill="#000000" font-family="sans-serif" font-size="14" font-weight="bold" lengthAdjust="spacing" textLength="74" x="1573" y="488.7852">SumTypes</text></g><!--cluster Values--><g id="cluster_Values"><path d="M356.5,170 L405.5,170 A3.75,3.75 0 0 1 408,172.5 L415,192.4883 L1458.5,192.4883 A2.5,2.5 0 0 1 1461,194.9883 L1461,573.88 A2.5,2.5 0 0 1 1458.5,576.38 L356.5,576.38 A2.5,2.5 0 0 1 354,573.88 L354,172.5 A2.5,2.5 0 0 1 356.5,170 " fill="none" style="stroke:#000000;stroke-width:1.5;"/><line style="stroke:#000000;stroke-width:1.5;" x1="354" x2="415" y1="192.4883" y2="192.4883"/><text fill="#000000" font-family="sans-serif" font-size="14" font-weight="bold" lengthAdjust="spacing" textLength="48" x="358" y="185.5352">Values</text></g><!--class Typed--><g id="elem_Typed"><rect codeLine="8" fill="#F1F1F1" height="32" id="Typed" rx="2.5" ry="2.5" style="stroke:#181818;stroke-width:0.5;" width="74" x="1236" y="49"/><ellipse cx="1251" cy="65" fill="#A9DCDF" rx="11" ry="11" style="stroke:#181818;stroke-width:1.0;"/><path d="M1250.8633,60.3481 L1249.7095,65.4199 L1252.0254,65.4199 Z M1249.3691,58.1069 L1252.3657,58.1069 L1255.7109,70.5 L1253.2622,70.5 L1252.4985,67.437 L1249.2197,67.437 L1248.4727,70.5 L1246.0239,70.5 Z " fill="#000000"/><text fill="#000000" font-family="sans-serif" font-size="14" font-style="italic" lengthAdjust="spacing" textLength="42" x="1265" y="70.291">Typed</text></g><!--class Binary--><g id="elem_Binary"><rect codeLine="13" fill="#F1F1F1" height="32" id="Binary" rx="2.5" ry="2.5" style="stroke:#181818;stroke-width:0.5;" width="74" x="551" y="668.38"/><ellipse cx="566" cy="684.38" fill="#ADD1B2" rx="11" ry="11" style="stroke:#181818;stroke-width:1.0;"/><path d="M568.4731,690.5231 Q567.8921,690.8219 567.2529,690.9713 Q566.6138,691.1207 565.9082,691.1207 Q563.4014,691.1207 562.0815,689.4689 Q560.7617,687.817 560.7617,684.6959 Q560.7617,681.5665 562.0815,679.9147 Q563.4014,678.2628 565.9082,678.2628 Q566.6138,678.2628 567.2612,678.4122 Q567.9087,678.5616 568.4731,678.8605 L568.4731,681.5831 Q567.8423,681.0021 567.2488,680.7323 Q566.6553,680.4625 566.0244,680.4625 Q564.6797,680.4625 563.9949,681.5292 Q563.3101,682.5958 563.3101,684.6959 Q563.3101,686.7877 563.9949,687.8544 Q564.6797,688.921 566.0244,688.921 Q566.6553,688.921 567.2488,688.6512 Q567.8423,688.3815 568.4731,687.8004 Z " fill="#000000"/><text fill="#000000" font-family="sans-serif" font-size="14" lengthAdjust="spacing" textLength="42" x="580" y="689.671">Binary</text></g><!--class Boolean--><g id="elem_Boolean"><rect codeLine="14" fill="#F1F1F1" height="32" id="Boolean" rx="2.5" ry="2.5" style="stroke:#181818;stroke-width:0.5;" width="87" x="674.5" y="668.38"/><ellipse cx="689.5" cy="684.38" fill="#ADD1B2" rx="11" ry="11" style="stroke:#181818;stroke-width:1.0;"/><path d="M691.9731,690.5231 Q691.3921,690.8219 690.7529,690.9713 Q690.1138,691.1207 689.4082,691.1207 Q686.9014,691.1207 685.5815,689.4689 Q684.2617,687.817 684.2617,684.6959 Q684.2617,681.5665 685.5815,679.9147 Q686.9014,678.2628 689.4082,678.2628 Q690.1138,678.2628 690.7612,678.4122 Q691.4087,678.5616 691.9731,678.8605 L691.9731,681.5831 Q691.3423,681.0021 690.7488,680.7323 Q690.1553,680.4625 689.5244,680.4625 Q688.1797,680.4625 687.4949,681.5292 Q686.8101,682.5958 686.8101,684.6959 Q686.8101,686.7877 687.4949,687.8544 Q688.1797,688.921 689.5244,688.921 Q690.1553,688.921 690.7488,688.6512 Q691.3423,688.3815 691.9731,687.8004 Z " fill="#000000"/><text fill="#000000" font-family="sans-serif" font-size="14" lengthAdjust="spacing" textLength="55" x="703.5" y="689.671">Boolean</text></g><!--class Decimal--><g id="elem_Decimal"><rect codeLine="15" fill="#F1F1F1" height="32" id="Decimal" rx="2.5" ry="2.5" style="stroke:#181818;stroke-width:0.5;" width="86" x="811" y="668.38"/><ellipse cx="826" cy="684.38" fill="#ADD1B2" rx="11" ry="11" style="stroke:#181818;stroke-width:1.0;"/><path d="M828.4731,690.5231 Q827.8921,690.8219 827.2529,690.9713 Q826.6138,691.1207 825.9082,691.1207 Q823.4014,691.1207 822.0815,689.4689 Q820.7617,687.817 820.7617,684.6959 Q820.7617,681.5665 822.0815,679.9147 Q823.4014,678.2628 825.9082,678.2628 Q826.6138,678.2628 827.2612,678.4122 Q827.9087,678.5616 828.4731,678.8605 L828.4731,681.5831 Q827.8423,681.0021 827.2488,680.7323 Q826.6553,680.4625 826.0244,680.4625 Q824.6797,680.4625 823.9949,681.5292 Q823.3101,682.5958 823.3101,684.6959 Q823.3101,686.7877 823.9949,687.8544 Q824.6797,688.921 826.0244,688.921 Q826.6553,688.921 827.2488,688.6512 Q827.8423,688.3815 828.4731,687.8004 Z " fill="#000000"/><text fill="#000000" font-family="sans-serif" font-size="14" lengthAdjust="spacing" textLength="54" x="840" y="689.671">Decimal</text></g><!--class Double--><g id="elem_Double"><rect codeLine="16" fill="#F1F1F1" height="32" id="Double" rx="2.5" ry="2.5" style="stroke:#181818;stroke-width:0.5;" width="81" x="946.5" y="668.38"/><ellipse cx="961.5" cy="684.38" fill="#ADD1B2" rx="11" ry="11" style="stroke:#181818;stroke-width:1.0;"/><path d="M963.9731,690.5231 Q963.3921,690.8219 962.7529,690.9713 Q962.1138,691.1207 961.4082,691.1207 Q958.9014,691.1207 957.5815,689.4689 Q956.2617,687.817 956.2617,684.6959 Q956.2617,681.5665 957.5815,679.9147 Q958.9014,678.2628 961.4082,678.2628 Q962.1138,678.2628 962.7612,678.4122 Q963.4087,678.5616 963.9731,678.8605 L963.9731,681.5831 Q963.3423,681.0021 962.7488,680.7323 Q962.1553,680.4625 961.5244,680.4625 Q960.1797,680.4625 959.4949,681.5292 Q958.8101,682.5958 958.8101,684.6959 Q958.8101,686.7877 959.4949,687.8544 Q960.1797,688.921 961.5244,688.921 Q962.1553,688.921 962.7488,688.6512 Q963.3423,688.3815 963.9731,687.8004 Z " fill="#000000"/><text fill="#000000" font-family="sans-serif" font-size="14" lengthAdjust="spacing" textLength="49" x="975.5" y="689.671">Double</text></g><!--class Integer--><g id="elem_Integer"><rect codeLine="17" fill="#F1F1F1" height="32" id="Integer" rx="2.5" ry="2.5" style="stroke:#181818;stroke-width:0.5;" width="81" x="1077.5" y="668.38"/><ellipse cx="1092.5" cy="684.38" fill="#ADD1B2" rx="11" ry="11" style="stroke:#181818;stroke-width:1.0;"/><path d="M1094.9731,690.5231 Q1094.3921,690.8219 1093.7529,690.9713 Q1093.1138,691.1207 1092.4082,691.1207 Q1089.9014,691.1207 1088.5815,689.4689 Q1087.2617,687.817 1087.2617,684.6959 Q1087.2617,681.5665 1088.5815,679.9147 Q1089.9014,678.2628 1092.4082,678.2628 Q1093.1138,678.2628 1093.7612,678.4122 Q1094.4087,678.5616 1094.9731,678.8605 L1094.9731,681.5831 Q1094.3423,681.0021 1093.7488,680.7323 Q1093.1553,680.4625 1092.5244,680.4625 Q1091.1797,680.4625 1090.4949,681.5292 Q1089.8101,682.5958 1089.8101,684.6959 Q1089.8101,686.7877 1090.4949,687.8544 Q1091.1797,688.921 1092.5244,688.921 Q1093.1553,688.921 1093.7488,688.6512 Q1094.3423,688.3815 1094.9731,687.8004 Z " fill="#000000"/><text fill="#000000" font-family="sans-serif" font-size="14" lengthAdjust="spacing" textLength="49" x="1106.5" y="689.671">Integer</text></g><!--class String--><g id="elem_String"><rect codeLine="18" fill="#F1F1F1" height="32" id="String" rx="2.5" ry="2.5" style="stroke:#181818;stroke-width:0.5;" width="73" x="1208.5" y="668.38"/><ellipse cx="1223.5" cy="684.38" fill="#ADD1B2" rx="11" ry="11" style="stroke:#181818;stroke-width:1.0;"/><path d="M1225.9731,690.5231 Q1225.3921,690.8219 1224.7529,690.9713 Q1224.1138,691.1207 1223.4082,691.1207 Q1220.9014,691.1207 1219.5815,689.4689 Q1218.2617,687.817 1218.2617,684.6959 Q1218.2617,681.5665 1219.5815,679.9147 Q1220.9014,678.2628 1223.4082,678.2628 Q1224.1138,678.2628 1224.7612,678.4122 Q1225.4087,678.5616 1225.9731,678.8605 L1225.9731,681.5831 Q1225.3423,681.0021 1224.7488,680.7323 Q1224.1553,680.4625 1223.5244,680.4625 Q1222.1797,680.4625 1221.4949,681.5292 Q1220.8101,682.5958 1220.8101,684.6959 Q1220.8101,686.7877 1221.4949,687.8544 Q1222.1797,688.921 1223.5244,688.921 Q1224.1553,688.921 1224.7488,688.6512 Q1225.3423,688.3815 1225.9731,687.8004 Z " fill="#000000"/><text fill="#000000" font-family="sans-serif" font-size="14" lengthAdjust="spacing" textLength="41" x="1237.5" y="689.671">String</text></g><!--class Unsigned--><g id="elem_Unsigned"><rect codeLine="19" fill="#F1F1F1" height="32" id="Unsigned" rx="2.5" ry="2.5" style="stroke:#181818;stroke-width:0.5;" width="97" x="1331.5" y="668.38"/><ellipse cx="1346.5" cy="684.38" fill="#ADD1B2" rx="11" ry="11" style="stroke:#181818;stroke-width:1.0;"/><path d="M1348.9731,690.5231 Q1348.3921,690.8219 1347.7529,690.9713 Q1347.1138,691.1207 1346.4082,691.1207 Q1343.9014,691.1207 1342.5815,689.4689 Q1341.2617,687.817 1341.2617,684.6959 Q1341.2617,681.5665 1342.5815,679.9147 Q1343.9014,678.2628 1346.4082,678.2628 Q1347.1138,678.2628 1347.7612,678.4122 Q1348.4087,678.5616 1348.9731,678.8605 L1348.9731,681.5831 Q1348.3423,681.0021 1347.7488,680.7323 Q1347.1553,680.4625 1346.5244,680.4625 Q1345.1797,680.4625 1344.4949,681.5292 Q1343.8101,682.5958 1343.8101,684.6959 Q1343.8101,686.7877 1344.4949,687.8544 Q1345.1797,688.921 1346.5244,688.921 Q1347.1553,688.921 1347.7488,688.6512 Q1348.3423,688.3815 1348.9731,687.8004 Z " fill="#000000"/><text fill="#000000" font-family="sans-serif" font-size="14" lengthAdjust="spacing" textLength="65" x="1360.5" y="689.671">Unsigned</text></g><!--class Uri--><g id="elem_Uri"><rect codeLine="20" fill="#F1F1F1" height="32" id="Uri" rx="2.5" ry="2.5" style="stroke:#181818;stroke-width:0.5;" width="52" x="1478" y="668.38"/><ellipse cx="1493" cy="684.38" fill="#ADD1B2" rx="11" ry="11" style="stroke:#181818;stroke-width:1.0;"/><path d="M1495.4731,690.5231 Q1494.8921,690.8219 1494.2529,690.9713 Q1493.6138,691.1207 1492.9082,691.1207 Q1490.4014,691.1207 1489.0815,689.4689 Q1487.7617,687.817 1487.7617,684.6959 Q1487.7617,681.5665 1489.0815,679.9147 Q1490.4014,678.2628 1492.9082,678.2628 Q1493.6138,678.2628 1494.2612,678.4122 Q1494.9087,678.5616 1495.4731,678.8605 L1495.4731,681.5831 Q1494.8423,681.0021 1494.2488,680.7323 Q1493.6553,680.4625 1493.0244,680.4625 Q1491.6797,680.4625 1490.9949,681.5292 Q1490.3101,682.5958 1490.3101,684.6959 Q1490.3101,686.7877 1490.9949,687.8544 Q1491.6797,688.921 1493.0244,688.921 Q1493.6553,688.921 1494.2488,688.6512 Q1494.8423,688.3815 1495.4731,687.8004 Z " fill="#000000"/><text fill="#000000" font-family="sans-serif" font-size="14" lengthAdjust="spacing" textLength="20" x="1507" y="689.671">Uri</text></g><!--class g_Sequence--><g id="elem_g_Sequence"><rect codeLine="25" fill="#F1F1F1" height="32" id="g_Sequence" rx="2.5" ry="2.5" style="stroke:#181818;stroke-width:0.5;" width="226" x="64" y="516.38"/><ellipse cx="79" cy="532.38" fill="#ADD1B2" rx="11" ry="11" style="stroke:#181818;stroke-width:1.0;"/><path d="M81.4731,538.5231 Q80.8921,538.8219 80.2529,538.9713 Q79.6138,539.1207 78.9082,539.1207 Q76.4014,539.1207 75.0815,537.4689 Q73.7617,535.817 73.7617,532.6959 Q73.7617,529.5665 75.0815,527.9147 Q76.4014,526.2628 78.9082,526.2628 Q79.6138,526.2628 80.2612,526.4122 Q80.9087,526.5616 81.4731,526.8605 L81.4731,529.5831 Q80.8423,529.0021 80.2488,528.7323 Q79.6553,528.4625 79.0244,528.4625 Q77.6797,528.4625 76.9949,529.5292 Q76.3101,530.5958 76.3101,532.6959 Q76.3101,534.7877 76.9949,535.8544 Q77.6797,536.921 79.0244,536.921 Q79.6553,536.921 80.2488,536.6512 Q80.8423,536.3815 81.4731,535.8004 Z " fill="#000000"/><text fill="#000000" font-family="sans-serif" font-size="14" lengthAdjust="spacing" textLength="99" x="93" y="537.671">SequenceType</text><rect fill="none" height="16.1328" style="stroke:#181818;stroke-width:1.0;stroke-dasharray:2.0,2.0;" width="93" x="200" y="513.38"/><text fill="#000000" font-family="sans-serif" font-size="12" font-style="italic" lengthAdjust="spacing" textLength="91" x="201" y="525.9816">T extends Type</text></g><!--class g_MappingType--><g id="elem_g_MappingType"><rect codeLine="30" fill="#F1F1F1" height="32.2656" id="g_MappingType" rx="2.5" ry="2.5" style="stroke:#181818;stroke-width:0.5;" width="224" x="1593" y="516.25"/><ellipse cx="1608" cy="532.3828" fill="#ADD1B2" rx="11" ry="11" style="stroke:#181818;stroke-width:1.0;"/><path d="M1610.4731,538.5259 Q1609.8921,538.8247 1609.2529,538.9741 Q1608.6138,539.1235 1607.9082,539.1235 Q1605.4014,539.1235 1604.0815,537.4717 Q1602.7617,535.8198 1602.7617,532.6987 Q1602.7617,529.5693 1604.0815,527.9175 Q1605.4014,526.2656 1607.9082,526.2656 Q1608.6138,526.2656 1609.2612,526.415 Q1609.9087,526.5645 1610.4731,526.8633 L1610.4731,529.5859 Q1609.8423,529.0049 1609.2488,528.7351 Q1608.6553,528.4653 1608.0244,528.4653 Q1606.6797,528.4653 1605.9949,529.532 Q1605.3101,530.5986 1605.3101,532.6987 Q1605.3101,534.7905 1605.9949,535.8572 Q1606.6797,536.9238 1608.0244,536.9238 Q1608.6553,536.9238 1609.2488,536.6541 Q1609.8423,536.3843 1610.4731,535.8032 Z " fill="#000000"/><text fill="#000000" font-family="sans-serif" font-size="14" lengthAdjust="spacing" textLength="93" x="1622" y="537.6738">MappingType</text><rect fill="none" height="30.2656" style="stroke:#181818;stroke-width:1.0;stroke-dasharray:2.0,2.0;" width="97" x="1723" y="513.25"/><text fill="#000000" font-family="sans-serif" font-size="12" font-style="italic" lengthAdjust="spacing" textLength="95" x="1724" y="525.8516">K extends Type,</text><text fill="#000000" font-family="sans-serif" font-size="12" font-style="italic" lengthAdjust="spacing" textLength="91" x="1726" y="539.9844">V extends Type</text></g><!--class Value--><g id="elem_Value"><rect codeLine="34" fill="#F1F1F1" height="40" id="Value" rx="2.5" ry="2.5" style="stroke:#181818;stroke-width:0.5;" width="70" x="971" y="213"/><ellipse cx="986" cy="229" fill="#A9DCDF" rx="11" ry="11" style="stroke:#181818;stroke-width:1.0;"/><path d="M985.8633,224.3481 L984.7095,229.4199 L987.0254,229.4199 Z M984.3691,222.1069 L987.3657,222.1069 L990.7109,234.5 L988.2622,234.5 L987.4985,231.437 L984.2197,231.437 L983.4727,234.5 L981.0239,234.5 Z " fill="#000000"/><text fill="#000000" font-family="sans-serif" font-size="14" font-style="italic" lengthAdjust="spacing" textLength="38" x="1000" y="234.291">Value</text><line style="stroke:#181818;stroke-width:0.5;" x1="972" x2="1040" y1="245" y2="245"/></g><!--class Valued--><g id="elem_Valued"><rect codeLine="37" fill="#F1F1F1" height="40" id="Valued" rx="2.5" ry="2.5" style="stroke:#181818;stroke-width:0.5;" width="79" x="842.5" y="213"/><ellipse cx="857.5" cy="229" fill="#A9DCDF" rx="11" ry="11" style="stroke:#181818;stroke-width:1.0;"/><path d="M857.3633,224.3481 L856.2095,229.4199 L858.5254,229.4199 Z M855.8691,222.1069 L858.8657,222.1069 L862.2109,234.5 L859.7622,234.5 L858.9985,231.437 L855.7197,231.437 L854.9727,234.5 L852.5239,234.5 Z " fill="#000000"/><text fill="#000000" font-family="sans-serif" font-size="14" font-style="italic" lengthAdjust="spacing" textLength="47" x="871.5" y="234.291">Valued</text><line style="stroke:#181818;stroke-width:0.5;" x1="843.5" x2="920.5" y1="245" y2="245"/></g><!--class SimpleValue--><g id="elem_SimpleValue"><rect codeLine="40" fill="#F1F1F1" height="40" id="SimpleValue" rx="2.5" ry="2.5" style="stroke:#181818;stroke-width:0.5;" width="116" x="662" y="330.63"/><ellipse cx="677" cy="346.63" fill="#A9DCDF" rx="11" ry="11" style="stroke:#181818;stroke-width:1.0;"/><path d="M676.8633,341.9781 L675.7095,347.0499 L678.0254,347.0499 Z M675.3691,339.7369 L678.3657,339.7369 L681.7109,352.13 L679.2622,352.13 L678.4985,349.067 L675.2197,349.067 L674.4727,352.13 L672.0239,352.13 Z " fill="#000000"/><text fill="#000000" font-family="sans-serif" font-size="14" font-style="italic" lengthAdjust="spacing" textLength="84" x="691" y="351.921">SimpleValue</text><line style="stroke:#181818;stroke-width:0.5;" x1="663" x2="777" y1="362.63" y2="362.63"/></g><!--class BinaryValue--><g id="elem_BinaryValue"><rect codeLine="43" fill="#F1F1F1" height="40" id="BinaryValue" rx="2.5" ry="2.5" style="stroke:#181818;stroke-width:0.5;" width="112" x="378" y="512.38"/><ellipse cx="393" cy="528.38" fill="#ADD1B2" rx="11" ry="11" style="stroke:#181818;stroke-width:1.0;"/><path d="M395.4731,534.5231 Q394.8921,534.8219 394.2529,534.9713 Q393.6138,535.1207 392.9082,535.1207 Q390.4014,535.1207 389.0815,533.4689 Q387.7617,531.817 387.7617,528.6959 Q387.7617,525.5665 389.0815,523.9147 Q390.4014,522.2628 392.9082,522.2628 Q393.6138,522.2628 394.2612,522.4122 Q394.9087,522.5616 395.4731,522.8605 L395.4731,525.5831 Q394.8423,525.0021 394.2488,524.7323 Q393.6553,524.4625 393.0244,524.4625 Q391.6797,524.4625 390.9949,525.5292 Q390.3101,526.5958 390.3101,528.6959 Q390.3101,530.7877 390.9949,531.8544 Q391.6797,532.921 393.0244,532.921 Q393.6553,532.921 394.2488,532.6512 Q394.8423,532.3815 395.4731,531.8004 Z " fill="#000000"/><text fill="#000000" font-family="sans-serif" font-size="14" lengthAdjust="spacing" textLength="80" x="407" y="533.671">BinaryValue</text><line style="stroke:#181818;stroke-width:0.5;" x1="379" x2="489" y1="544.38" y2="544.38"/></g><!--class BooleanValue--><g id="elem_BooleanValue"><rect codeLine="47" fill="#F1F1F1" height="40" id="BooleanValue" rx="2.5" ry="2.5" style="stroke:#181818;stroke-width:0.5;" width="125" x="540.5" y="512.38"/><ellipse cx="555.5" cy="528.38" fill="#ADD1B2" rx="11" ry="11" style="stroke:#181818;stroke-width:1.0;"/><path d="M557.9731,534.5231 Q557.3921,534.8219 556.7529,534.9713 Q556.1138,535.1207 555.4082,535.1207 Q552.9014,535.1207 551.5815,533.4689 Q550.2617,531.817 550.2617,528.6959 Q550.2617,525.5665 551.5815,523.9147 Q552.9014,522.2628 555.4082,522.2628 Q556.1138,522.2628 556.7612,522.4122 Q557.4087,522.5616 557.9731,522.8605 L557.9731,525.5831 Q557.3423,525.0021 556.7488,524.7323 Q556.1553,524.4625 555.5244,524.4625 Q554.1797,524.4625 553.4949,525.5292 Q552.8101,526.5958 552.8101,528.6959 Q552.8101,530.7877 553.4949,531.8544 Q554.1797,532.921 555.5244,532.921 Q556.1553,532.921 556.7488,532.6512 Q557.3423,532.3815 557.9731,531.8004 Z " fill="#000000"/><text fill="#000000" font-family="sans-serif" font-size="14" lengthAdjust="spacing" textLength="93" x="569.5" y="533.671">BooleanValue</text><line style="stroke:#181818;stroke-width:0.5;" x1="541.5" x2="664.5" y1="544.38" y2="544.38"/></g><!--class DecimalValue--><g id="elem_DecimalValue"><rect codeLine="51" fill="#F1F1F1" height="40" id="DecimalValue" rx="2.5" ry="2.5" style="stroke:#181818;stroke-width:0.5;" width="124" x="715" y="512.38"/><ellipse cx="730" cy="528.38" fill="#ADD1B2" rx="11" ry="11" style="stroke:#181818;stroke-width:1.0;"/><path d="M732.4731,534.5231 Q731.8921,534.8219 731.2529,534.9713 Q730.6138,535.1207 729.9082,535.1207 Q727.4014,535.1207 726.0815,533.4689 Q724.7617,531.817 724.7617,528.6959 Q724.7617,525.5665 726.0815,523.9147 Q727.4014,522.2628 729.9082,522.2628 Q730.6138,522.2628 731.2612,522.4122 Q731.9087,522.5616 732.4731,522.8605 L732.4731,525.5831 Q731.8423,525.0021 731.2488,524.7323 Q730.6553,524.4625 730.0244,524.4625 Q728.6797,524.4625 727.9949,525.5292 Q727.3101,526.5958 727.3101,528.6959 Q727.3101,530.7877 727.9949,531.8544 Q728.6797,532.921 730.0244,532.921 Q730.6553,532.921 731.2488,532.6512 Q731.8423,532.3815 732.4731,531.8004 Z " fill="#000000"/><text fill="#000000" font-family="sans-serif" font-size="14" lengthAdjust="spacing" textLength="92" x="744" y="533.671">DecimalValue</text><line style="stroke:#181818;stroke-width:0.5;" x1="716" x2="838" y1="544.38" y2="544.38"/></g><!--class DoubleValue--><g id="elem_DoubleValue"><rect codeLine="55" fill="#F1F1F1" height="40" id="DoubleValue" rx="2.5" ry="2.5" style="stroke:#181818;stroke-width:0.5;" width="119" x="889.5" y="512.38"/><ellipse cx="904.5" cy="528.38" fill="#ADD1B2" rx="11" ry="11" style="stroke:#181818;stroke-width:1.0;"/><path d="M906.9731,534.5231 Q906.3921,534.8219 905.7529,534.9713 Q905.1138,535.1207 904.4082,535.1207 Q901.9014,535.1207 900.5815,533.4689 Q899.2617,531.817 899.2617,528.6959 Q899.2617,525.5665 900.5815,523.9147 Q901.9014,522.2628 904.4082,522.2628 Q905.1138,522.2628 905.7612,522.4122 Q906.4087,522.5616 906.9731,522.8605 L906.9731,525.5831 Q906.3423,525.0021 905.7488,524.7323 Q905.1553,524.4625 904.5244,524.4625 Q903.1797,524.4625 902.4949,525.5292 Q901.8101,526.5958 901.8101,528.6959 Q901.8101,530.7877 902.4949,531.8544 Q903.1797,532.921 904.5244,532.921 Q905.1553,532.921 905.7488,532.6512 Q906.3423,532.3815 906.9731,531.8004 Z " fill="#000000"/><text fill="#000000" font-family="sans-serif" font-size="14" lengthAdjust="spacing" textLength="87" x="918.5" y="533.671">DoubleValue</text><line style="stroke:#181818;stroke-width:0.5;" x1="890.5" x2="1007.5" y1="544.38" y2="544.38"/></g><!--class IntegerValue--><g id="elem_IntegerValue"><rect codeLine="59" fill="#F1F1F1" height="40" id="IntegerValue" rx="2.5" ry="2.5" style="stroke:#181818;stroke-width:0.5;" width="119" x="1058.5" y="512.38"/><ellipse cx="1073.5" cy="528.38" fill="#ADD1B2" rx="11" ry="11" style="stroke:#181818;stroke-width:1.0;"/><path d="M1075.9731,534.5231 Q1075.3921,534.8219 1074.7529,534.9713 Q1074.1138,535.1207 1073.4082,535.1207 Q1070.9014,535.1207 1069.5815,533.4689 Q1068.2617,531.817 1068.2617,528.6959 Q1068.2617,525.5665 1069.5815,523.9147 Q1070.9014,522.2628 1073.4082,522.2628 Q1074.1138,522.2628 1074.7612,522.4122 Q1075.4087,522.5616 1075.9731,522.8605 L1075.9731,525.5831 Q1075.3423,525.0021 1074.7488,524.7323 Q1074.1553,524.4625 1073.5244,524.4625 Q1072.1797,524.4625 1071.4949,525.5292 Q1070.8101,526.5958 1070.8101,528.6959 Q1070.8101,530.7877 1071.4949,531.8544 Q1072.1797,532.921 1073.5244,532.921 Q1074.1553,532.921 1074.7488,532.6512 Q1075.3423,532.3815 1075.9731,531.8004 Z " fill="#000000"/><text fill="#000000" font-family="sans-serif" font-size="14" lengthAdjust="spacing" textLength="87" x="1087.5" y="533.671">IntegerValue</text><line style="stroke:#181818;stroke-width:0.5;" x1="1059.5" x2="1176.5" y1="544.38" y2="544.38"/></g><!--class StringValue--><g id="elem_StringValue"><rect codeLine="63" fill="#F1F1F1" height="40" id="StringValue" rx="2.5" ry="2.5" style="stroke:#181818;stroke-width:0.5;" width="111" x="1227.5" y="512.38"/><ellipse cx="1242.5" cy="528.38" fill="#ADD1B2" rx="11" ry="11" style="stroke:#181818;stroke-width:1.0;"/><path d="M1244.9731,534.5231 Q1244.3921,534.8219 1243.7529,534.9713 Q1243.1138,535.1207 1242.4082,535.1207 Q1239.9014,535.1207 1238.5815,533.4689 Q1237.2617,531.817 1237.2617,528.6959 Q1237.2617,525.5665 1238.5815,523.9147 Q1239.9014,522.2628 1242.4082,522.2628 Q1243.1138,522.2628 1243.7612,522.4122 Q1244.4087,522.5616 1244.9731,522.8605 L1244.9731,525.5831 Q1244.3423,525.0021 1243.7488,524.7323 Q1243.1553,524.4625 1242.5244,524.4625 Q1241.1797,524.4625 1240.4949,525.5292 Q1239.8101,526.5958 1239.8101,528.6959 Q1239.8101,530.7877 1240.4949,531.8544 Q1241.1797,532.921 1242.5244,532.921 Q1243.1553,532.921 1243.7488,532.6512 Q1244.3423,532.3815 1244.9731,531.8004 Z " fill="#000000"/><text fill="#000000" font-family="sans-serif" font-size="14" lengthAdjust="spacing" textLength="79" x="1256.5" y="533.671">StringValue</text><line style="stroke:#181818;stroke-width:0.5;" x1="1228.5" x2="1337.5" y1="544.38" y2="544.38"/></g><!--class UnsignedValue--><g id="elem_UnsignedValue"><rect codeLine="67" fill="#F1F1F1" height="40" id="UnsignedValue" rx="2.5" ry="2.5" style="stroke:#181818;stroke-width:0.5;" width="135" x="827.5" y="330.63"/><ellipse cx="842.5" cy="346.63" fill="#ADD1B2" rx="11" ry="11" style="stroke:#181818;stroke-width:1.0;"/><path d="M844.9731,352.7731 Q844.3921,353.0719 843.7529,353.2213 Q843.1138,353.3707 842.4082,353.3707 Q839.9014,353.3707 838.5815,351.7189 Q837.2617,350.067 837.2617,346.9459 Q837.2617,343.8165 838.5815,342.1647 Q839.9014,340.5128 842.4082,340.5128 Q843.1138,340.5128 843.7612,340.6622 Q844.4087,340.8116 844.9731,341.1105 L844.9731,343.8331 Q844.3423,343.2521 843.7488,342.9823 Q843.1553,342.7125 842.5244,342.7125 Q841.1797,342.7125 840.4949,343.7792 Q839.8101,344.8458 839.8101,346.9459 Q839.8101,349.0377 840.4949,350.1044 Q841.1797,351.171 842.5244,351.171 Q843.1553,351.171 843.7488,350.9012 Q844.3423,350.6315 844.9731,350.0504 Z " fill="#000000"/><text fill="#000000" font-family="sans-serif" font-size="14" lengthAdjust="spacing" textLength="103" x="856.5" y="351.921">UnsignedValue</text><line style="stroke:#181818;stroke-width:0.5;" x1="828.5" x2="961.5" y1="362.63" y2="362.63"/></g><!--class UriValue--><g id="elem_UriValue"><rect codeLine="71" fill="#F1F1F1" height="40" id="UriValue" rx="2.5" ry="2.5" style="stroke:#181818;stroke-width:0.5;" width="90" x="1013" y="330.63"/><ellipse cx="1028" cy="346.63" fill="#ADD1B2" rx="11" ry="11" style="stroke:#181818;stroke-width:1.0;"/><path d="M1030.4731,352.7731 Q1029.8921,353.0719 1029.2529,353.2213 Q1028.6138,353.3707 1027.9082,353.3707 Q1025.4014,353.3707 1024.0815,351.7189 Q1022.7617,350.067 1022.7617,346.9459 Q1022.7617,343.8165 1024.0815,342.1647 Q1025.4014,340.5128 1027.9082,340.5128 Q1028.6138,340.5128 1029.2612,340.6622 Q1029.9087,340.8116 1030.4731,341.1105 L1030.4731,343.8331 Q1029.8423,343.2521 1029.2488,342.9823 Q1028.6553,342.7125 1028.0244,342.7125 Q1026.6797,342.7125 1025.9949,343.7792 Q1025.3101,344.8458 1025.3101,346.9459 Q1025.3101,349.0377 1025.9949,350.1044 Q1026.6797,351.171 1028.0244,351.171 Q1028.6553,351.171 1029.2488,350.9012 Q1029.8423,350.6315 1030.4731,350.0504 Z " fill="#000000"/><text fill="#000000" font-family="sans-serif" font-size="14" lengthAdjust="spacing" textLength="58" x="1042" y="351.921">UriValue</text><line style="stroke:#181818;stroke-width:0.5;" x1="1014" x2="1102" y1="362.63" y2="362.63"/></g><!--class g_Mapping--><g id="elem_g_Mapping"><rect codeLine="75" fill="#F1F1F1" height="73.2422" id="g_Mapping" rx="2.5" ry="2.5" style="stroke:#181818;stroke-width:0.5;" width="276" x="1153" y="314"/><ellipse cx="1168" cy="330.1328" fill="#ADD1B2" rx="11" ry="11" style="stroke:#181818;stroke-width:1.0;"/><path d="M1170.4731,336.2759 Q1169.8921,336.5747 1169.2529,336.7241 Q1168.6138,336.8735 1167.9082,336.8735 Q1165.4014,336.8735 1164.0815,335.2217 Q1162.7617,333.5698 1162.7617,330.4487 Q1162.7617,327.3193 1164.0815,325.6675 Q1165.4014,324.0156 1167.9082,324.0156 Q1168.6138,324.0156 1169.2612,324.165 Q1169.9087,324.3145 1170.4731,324.6133 L1170.4731,327.3359 Q1169.8423,326.7549 1169.2488,326.4851 Q1168.6553,326.2153 1168.0244,326.2153 Q1166.6797,326.2153 1165.9949,327.282 Q1165.3101,328.3486 1165.3101,330.4487 Q1165.3101,332.5405 1165.9949,333.6072 Q1166.6797,334.6738 1168.0244,334.6738 Q1168.6553,334.6738 1169.2488,334.4041 Q1169.8423,334.1343 1170.4731,333.5532 Z " fill="#000000"/><text fill="#000000" font-family="sans-serif" font-size="14" lengthAdjust="spacing" textLength="98" x="1182" y="335.4238">MappingValue</text><rect fill="none" height="30.2656" style="stroke:#181818;stroke-width:1.0;stroke-dasharray:2.0,2.0;" width="144" x="1288" y="311"/><text fill="#000000" font-family="sans-serif" font-size="12" font-style="italic" lengthAdjust="spacing" textLength="142" x="1289" y="323.6016">Kv extends SimpleValue,</text><text fill="#000000" font-family="sans-serif" font-size="12" font-style="italic" lengthAdjust="spacing" textLength="100" x="1310" y="337.7344">Vv extends Value</text><line style="stroke:#181818;stroke-width:0.5;" x1="1154" x2="1428" y1="346.2656" y2="346.2656"/><ellipse cx="1164" cy="360.0098" fill="none" rx="3" ry="3" style="stroke:#038048;stroke-width:1.0;"/><text fill="#000000" font-family="sans-serif" font-size="14" lengthAdjust="spacing" textLength="47" x="1173" y="363.8008">key: Kv</text><ellipse cx="1164" cy="376.498" fill="none" rx="3" ry="3" style="stroke:#038048;stroke-width:1.0;"/><text fill="#000000" font-family="sans-serif" font-size="14" lengthAdjust="spacing" textLength="60" x="1173" y="380.2891">value: Vv</text></g><!--class g_SequenceValue--><g id="elem_g_SequenceValue"><rect codeLine="82" fill="#F1F1F1" height="56.4883" id="g_SequenceValue" rx="2.5" ry="2.5" style="stroke:#181818;stroke-width:0.5;" width="234" x="378" y="322.38"/><ellipse cx="393" cy="338.38" fill="#ADD1B2" rx="11" ry="11" style="stroke:#181818;stroke-width:1.0;"/><path d="M395.4731,344.5231 Q394.8921,344.8219 394.2529,344.9713 Q393.6138,345.1207 392.9082,345.1207 Q390.4014,345.1207 389.0815,343.4689 Q387.7617,341.817 387.7617,338.6959 Q387.7617,335.5665 389.0815,333.9147 Q390.4014,332.2628 392.9082,332.2628 Q393.6138,332.2628 394.2612,332.4122 Q394.9087,332.5616 395.4731,332.8605 L395.4731,335.5831 Q394.8423,335.0021 394.2488,334.7323 Q393.6553,334.4625 393.0244,334.4625 Q391.6797,334.4625 390.9949,335.5292 Q390.3101,336.5958 390.3101,338.6959 Q390.3101,340.7877 390.9949,341.8544 Q391.6797,342.921 393.0244,342.921 Q393.6553,342.921 394.2488,342.6512 Q394.8423,342.3815 395.4731,341.8004 Z " fill="#000000"/><text fill="#000000" font-family="sans-serif" font-size="14" lengthAdjust="spacing" textLength="104" x="407" y="343.671">SequenceValue</text><rect fill="none" height="16.1328" style="stroke:#181818;stroke-width:1.0;stroke-dasharray:2.0,2.0;" width="96" x="519" y="319.38"/><text fill="#000000" font-family="sans-serif" font-size="12" font-style="italic" lengthAdjust="spacing" textLength="94" x="520" y="331.9816">V extends Value</text><line style="stroke:#181818;stroke-width:0.5;" x1="379" x2="611" y1="354.38" y2="354.38"/><ellipse cx="389" cy="368.1241" fill="none" rx="3" ry="3" style="stroke:#038048;stroke-width:1.0;"/><text fill="#000000" font-family="sans-serif" font-size="14" lengthAdjust="spacing" textLength="98" x="398" y="371.9152">values: {0..*} V</text></g><!--reverse link Typed to Value--><g id="link_Typed_Value"><path codeLine="35" d="M1261.2744,98.352 C1252.8444,121.602 1244,146 1244,146 C1244,146 1045,154 1045,154 C1045,154 1027.19,189.63 1015.64,212.72 " fill="none" id="Typed-backto-Value" style="stroke:#181818;stroke-width:1.0;"/><polygon fill="none" points="1267.41,81.43,1255.6337,96.3068,1266.9151,100.3972,1267.41,81.43" style="stroke:#181818;stroke-width:1.0;"/></g><!--link Valued to Value--><g id="link_Valued_Value"><path codeLine="38" d="M921.96,233 C922.84,233 923.33,233 923.33,233 C923.33,233 964.67,233 964.67,233 C964.67,233 961.09,233 964.77,233 " fill="none" id="Valued-to-Value" style="stroke:#181818;stroke-width:1.0;"/><polygon fill="#181818" points="970.77,233,961.77,229,965.77,233,961.77,237,970.77,233" style="stroke:#181818;stroke-width:1.0;"/><text fill="#000000" font-family="sans-serif" font-size="13" lengthAdjust="spacing" textLength="43" x="929.6531" y="210.9387">+value</text><text fill="#000000" font-family="sans-serif" font-size="13" lengthAdjust="spacing" textLength="8" x="964.6531" y="226.2493">1</text></g><!--reverse link Value to SimpleValue--><g id="link_Value_SimpleValue"><path codeLine="41" d="M953.8935,254.5396 C895.7335,277.4596 803,314 803,314 C803,314 784.76,321.83 765.39,330.15 " fill="none" id="Value-backto-SimpleValue" style="stroke:#181818;stroke-width:1.0;"/><polygon fill="none" points="970.64,247.94,951.6936,248.9574,956.0933,260.1217,970.64,247.94" style="stroke:#181818;stroke-width:1.0;"/></g><!--reverse link SimpleValue to BinaryValue--><g id="link_SimpleValue_BinaryValue"><path codeLine="44" d="M666.5954,379.276 C607.7054,409.766 516,457.25 516,457.25 C516,457.25 479.84,489.94 455.54,511.9 " fill="none" id="SimpleValue-backto-BinaryValue" style="stroke:#181818;stroke-width:1.0;"/><polygon fill="none" points="682.58,371,663.8367,373.9478,669.354,384.6042,682.58,371" style="stroke:#181818;stroke-width:1.0;"/></g><!--link BinaryValue to Binary--><g id="link_BinaryValue_Binary"><path codeLine="45" d="M453.82,552.68 C484.85,582.91 539.972,636.6034 568.142,664.0434 " fill="none" id="BinaryValue-to-Binary" style="stroke:#181818;stroke-width:1.0;"/><polygon fill="#181818" points="572.44,668.23,568.7841,659.0848,568.8584,664.7412,563.202,664.8154,572.44,668.23" style="stroke:#181818;stroke-width:1.0;"/><text fill="#000000" font-family="sans-serif" font-size="13" lengthAdjust="spacing" textLength="88" x="463.9663" y="657.722">{subsets type}</text></g><!--reverse link SimpleValue to BooleanValue--><g id="link_SimpleValue_BooleanValue"><path codeLine="48" d="M697.6615,385.9463 C675.2015,420.4563 638.13,477.41 615.61,512.01 " fill="none" id="SimpleValue-backto-BooleanValue" style="stroke:#181818;stroke-width:1.0;"/><polygon fill="none" points="707.48,370.86,692.6327,382.6734,702.6902,389.2191,707.48,370.86" style="stroke:#181818;stroke-width:1.0;"/></g><!--link BooleanValue to Boolean--><g id="link_BooleanValue_Boolean"><path codeLine="49" d="M617.8,552.68 C640.97,582.91 681.6891,636.0286 702.7291,663.4686 " fill="none" id="BooleanValue-to-Boolean" style="stroke:#181818;stroke-width:1.0;"/><polygon fill="#181818" points="706.38,668.23,704.078,658.654,703.3376,664.2622,697.7294,663.5218,706.38,668.23" style="stroke:#181818;stroke-width:1.0;"/><text fill="#000000" font-family="sans-serif" font-size="13" lengthAdjust="spacing" textLength="88" x="627.7735" y="657.5699">{subsets type}</text></g><!--reverse link SimpleValue to DecimalValue--><g id="link_SimpleValue_DecimalValue"><path codeLine="52" d="M731.5394,388.0185 C742.4794,422.5285 759.88,477.41 770.86,512.01 " fill="none" id="SimpleValue-backto-DecimalValue" style="stroke:#181818;stroke-width:1.0;"/><polygon fill="none" points="726.1,370.86,725.8199,389.8316,737.2589,386.2053,726.1,370.86" style="stroke:#181818;stroke-width:1.0;"/></g><!--link DecimalValue to Decimal--><g id="link_DecimalValue_Decimal"><path codeLine="53" d="M786.91,552.68 C802.42,582.91 829.3893,635.4525 843.4793,662.8925 " fill="none" id="DecimalValue-to-Decimal" style="stroke:#181818;stroke-width:1.0;"/><polygon fill="#181818" points="846.22,668.23,845.6673,658.3967,843.9361,663.7821,838.5506,662.0509,846.22,668.23" style="stroke:#181818;stroke-width:1.0;"/><text fill="#000000" font-family="sans-serif" font-size="13" lengthAdjust="spacing" textLength="88" x="761.8238" y="657.5608">{subsets type}</text></g><!--reverse link SimpleValue to DoubleValue--><g id="link_SimpleValue_DoubleValue"><path codeLine="56" d="M760.9244,381.6458 C802.4944,412.1358 864,457.25 864,457.25 C864,457.25 901.48,489.94 926.67,511.9 " fill="none" id="SimpleValue-backto-DoubleValue" style="stroke:#181818;stroke-width:1.0;"/><polygon fill="none" points="746.41,371,757.3758,386.4839,764.473,376.8076,746.41,371" style="stroke:#181818;stroke-width:1.0;"/></g><!--link DoubleValue to Double--><g id="link_DoubleValue_Double"><path codeLine="57" d="M953.89,552.68 C961.55,582.91 974.7368,634.9737 981.6868,662.4137 " fill="none" id="DoubleValue-to-Double" style="stroke:#181818;stroke-width:1.0;"/><polygon fill="#181818" points="983.16,668.23,984.8278,658.5234,981.9324,663.3831,977.0727,660.4876,983.16,668.23" style="stroke:#181818;stroke-width:1.0;"/><text fill="#000000" font-family="sans-serif" font-size="13" lengthAdjust="spacing" textLength="88" x="897.1705" y="657.6757">{subsets type}</text></g><!--reverse link SimpleValue to IntegerValue--><g id="link_SimpleValue_IntegerValue"><path codeLine="60" d="M781.9289,378.2039 C801.2989,386.5239 803,387.25 803,387.25 C803,387.25 1034,457.25 1034,457.25 C1034,457.25 1071.04,489.94 1095.93,511.9 " fill="none" id="SimpleValue-backto-IntegerValue" style="stroke:#181818;stroke-width:1.0;"/><polygon fill="none" points="765.39,371.1,779.5609,383.7169,784.2968,372.691,765.39,371.1" style="stroke:#181818;stroke-width:1.0;"/></g><!--link IntegerValue to Integer--><g id="link_IntegerValue_Integer"><path codeLine="61" d="M1118,552.68 C1118,582.91 1118,634.79 1118,662.23 " fill="none" id="IntegerValue-to-Integer" style="stroke:#181818;stroke-width:1.0;"/><polygon fill="#181818" points="1118,668.23,1122,659.23,1118,663.23,1114,659.23,1118,668.23" style="stroke:#181818;stroke-width:1.0;"/><text fill="#000000" font-family="sans-serif" font-size="13" lengthAdjust="spacing" textLength="88" x="1025.2463" y="657.5745">{subsets type}</text></g><!--reverse link SimpleValue to StringValue--><g id="link_SimpleValue_StringValue"><path codeLine="64" d="M781.9289,378.2039 C801.2989,386.5239 803,387.25 803,387.25 C803,387.25 1203,457.25 1203,457.25 C1203,457.25 1238.28,489.94 1261.98,511.9 " fill="none" id="SimpleValue-backto-StringValue" style="stroke:#181818;stroke-width:1.0;"/><polygon fill="none" points="765.39,371.1,779.5609,383.7169,784.2968,372.691,765.39,371.1" style="stroke:#181818;stroke-width:1.0;"/></g><!--link StringValue to String--><g id="link_StringValue_String"><path codeLine="65" d="M1278.11,552.68 C1270.45,582.91 1257.2632,634.9737 1250.3132,662.4137 " fill="none" id="StringValue-to-String" style="stroke:#181818;stroke-width:1.0;"/><polygon fill="#181818" points="1248.84,668.23,1254.9273,660.4876,1250.0676,663.3831,1247.1722,658.5234,1248.84,668.23" style="stroke:#181818;stroke-width:1.0;"/><text fill="#000000" font-family="sans-serif" font-size="13" lengthAdjust="spacing" textLength="88" x="1157.1053" y="657.5745">{subsets type}</text></g><!--link UnsignedValue to SimpleValue--><g id="link_UnsignedValue_SimpleValue"><path codeLine="68" d="M827.07,350.63 C811.2,350.63 799.01,350.63 796.5,350.63 " fill="none" id="UnsignedValue-to-SimpleValue" style="stroke:#181818;stroke-width:1.0;"/><polygon fill="none" points="778.5,350.63,796.5,356.63,796.5,344.63,778.5,350.63" style="stroke:#181818;stroke-width:1.0;"/></g><!--link UnsignedValue to Unsigned--><g id="link_UnsignedValue_Unsigned"><path codeLine="69" d="M945.85,371.1 C967.57,379.42 988,387.25 988,387.25 C988,387.25 1364,457.25 1364,457.25 C1364,457.25 1374.9162,611.505 1378.5062,662.205 " fill="none" id="UnsignedValue-to-Unsigned" style="stroke:#181818;stroke-width:1.0;"/><polygon fill="#181818" points="1378.93,668.19,1382.2843,658.93,1378.5768,663.2025,1374.3043,659.495,1378.93,668.19" style="stroke:#181818;stroke-width:1.0;"/><text fill="#000000" font-family="sans-serif" font-size="13" lengthAdjust="spacing" textLength="88" x="1275.4372" y="657.6683">{subsets type}</text></g><!--link UriValue to SimpleValue--><g id="link_UriValue_SimpleValue"><path codeLine="72" d="M1029.24,330.31 C1001.28,310.55 963,283.5 963,283.5 C963,283.5 828,283.5 828,283.5 C828,283.5 799.7661,301.0455 767.9861,320.8055 " fill="none" id="UriValue-to-SimpleValue" style="stroke:#181818;stroke-width:1.0;"/><polygon fill="none" points="752.7,330.31,771.1543,325.9009,764.8179,315.7101,752.7,330.31" style="stroke:#181818;stroke-width:1.0;"/></g><!--link UriValue to Uri--><g id="link_UriValue_Uri"><path codeLine="73" d="M1096.28,371.1 C1112.62,379.42 1128,387.25 1128,387.25 C1128,387.25 1453,417.25 1453,417.25 C1453,417.25 1489.0202,605.2273 1499.9102,662.0273 " fill="none" id="UriValue-to-Uri" style="stroke:#181818;stroke-width:1.0;"/><polygon fill="#181818" points="1501.04,667.92,1503.2738,658.3278,1500.0985,663.0094,1495.4169,659.8342,1501.04,667.92" style="stroke:#181818;stroke-width:1.0;"/><text fill="#000000" font-family="sans-serif" font-size="13" lengthAdjust="spacing" textLength="88" x="1436.2319" y="657.6637">{subsets type}</text></g><!--reverse link Value to g_Mapping--><g id="link_Value_g_Mapping"><path codeLine="79" d="M1057.5716,259.1545 C1057.5716,259.1545 1129.18,286.07 1199.05,313.51 " fill="none" id="Value-backto-g_Mapping" style="stroke:#181818;stroke-width:1.0;"/><polygon fill="none" points="1041.4,251.25,1054.9367,264.545,1060.2064,253.764,1041.4,251.25" style="stroke:#181818;stroke-width:1.0;"/></g><!--link g_Mapping to g_MappingType--><g id="link_g_Mapping_g_MappingType"><path codeLine="80" d="M1429.19,385.97 C1493.06,401.85 1555,417.25 1555,417.25 C1555,417.25 1638.6052,480.8566 1679.6852,512.1166 " fill="none" id="g_Mapping-to-g_MappingType" style="stroke:#181818;stroke-width:1.0;"/><polygon fill="#181818" points="1684.46,515.75,1679.7201,507.1167,1680.481,512.7222,1674.8756,513.4831,1684.46,515.75" style="stroke:#181818;stroke-width:1.0;"/><text fill="#000000" font-family="sans-serif" font-size="13" lengthAdjust="spacing" textLength="72" x="1596" y="430.8184">K=type(Kv),</text><text fill="#000000" font-family="sans-serif" font-size="13" lengthAdjust="spacing" textLength="68" x="1598" y="446.1289">V=type(Vv)</text><text fill="#000000" font-family="sans-serif" font-size="13" lengthAdjust="spacing" textLength="88" x="1575.0811" y="505.3758">{subsets type}</text></g><!--reverse link Value to g_SequenceValue--><g id="link_Value_g_SequenceValue"><path codeLine="85" d="M953.5877,250.5973 C940.5277,254.7273 946,253 946,253 C946,253 637,314 637,314 C637,314 623.82,317.31 605.49,321.91 " fill="none" id="Value-backto-g_SequenceValue" style="stroke:#181818;stroke-width:1.0;"/><polygon fill="none" points="970.75,245.17,951.7786,244.8765,955.3968,256.318,970.75,245.17" style="stroke:#181818;stroke-width:1.0;"/></g><!--link g_SequenceValue to g_Sequence--><g id="link_g_SequenceValue_g_Sequence"><path codeLine="86" d="M446.01,379.32 C378.24,417.63 263.3833,482.5475 209.6033,512.9475 " fill="none" id="g_SequenceValue-to-g_Sequence" style="stroke:#181818;stroke-width:1.0;"/><polygon fill="#181818" points="204.38,515.9,214.1833,514.9534,208.7327,513.4396,210.2465,507.989,204.38,515.9" style="stroke:#181818;stroke-width:1.0;"/><text fill="#000000" font-family="sans-serif" font-size="13" lengthAdjust="spacing" textLength="61" x="374" y="438.3184">T=type(V)</text><text fill="#000000" font-family="sans-serif" font-size="13" lengthAdjust="spacing" textLength="88" x="110.8746" y="505.5764">{subsets type}</text></g><!--reverse link Foundation to Values--><g id="link_Foundation_Values"><path codeLine="89" d="M1210.187,110.3424 C1210.3931,110.7202 1208.0347,106.3964 1208.2364,106.7661 C1208.6398,107.5057 1209.034,108.2285 1209.4174,108.9313 C1210.1841,110.3371 1210.9074,111.6632 1211.5741,112.8855 C1214.2406,117.7744 1216,121 1216,121 C1216,121 1449,154 1449,154 C1449,154 1449.2425,158.7244 1449.6081,165.8478 C1449.6538,166.7382 1449.7015,167.6662 1449.7508,168.627 C1449.7631,168.8672 1449.7755,169.1095 1449.7881,169.3538 C1449.7943,169.4759 1449.8006,169.5985 1449.807,169.7216 " fill="none" id="Foundation-backto-Values" style="stroke:#181818;stroke-width:1.0;stroke-dasharray:7.0,7.0;"/><polygon fill="#181818" points="1207.314,105.075,1208.1119,114.8914,1209.7082,109.4645,1215.1351,111.0608,1207.314,105.075" style="stroke:#181818;stroke-width:1.0;"/><text fill="#000000" font-family="sans-serif" font-size="13" lengthAdjust="spacing" textLength="56" x="1387" y="142.5684">&#171;import&#187;</text></g><!--link Values to Datatypes--><g id="link_Values_Datatypes"><path codeLine="90" d="M1461.0455,235.9554 C1461.4774,236.0601 1461.9254,236.1687 1462.3893,236.2812 C1464.2447,236.7309 1466.3534,237.242 1468.6956,237.8098 C1478.0647,240.0808 1491.1712,243.2579 1506.7563,247.0358 C1537.9263,254.5916 1579.01,264.5506 1619.935,274.4713 C1701.785,294.3125 1783,314 1783,314 C1783,314 1887,457.25 1887,457.25 C1887,457.25 1887,592.38 1887,592.38 C1887,592.38 1811.445,614.775 1735.3,637.345 C1697.2275,648.63 1659.0075,659.9588 1630.0106,668.5537 C1615.5122,672.8512 1603.3195,676.4653 1594.604,679.0487 C1592.4251,679.6946 1590.4635,680.2761 1588.7376,680.7877 C1588.5218,680.8516 1594.0624,679.2093 1593.854,679.271 " fill="none" id="Values-to-Datatypes" style="stroke:#181818;stroke-width:1.0;stroke-dasharray:7.0,7.0;"/><polygon fill="#181818" points="1588.1014,680.9762,1597.8671,682.2535,1592.8953,679.5552,1595.5935,674.5834,1588.1014,680.9762" style="stroke:#181818;stroke-width:1.0;"/><text fill="#000000" font-family="sans-serif" font-size="13" lengthAdjust="spacing" textLength="56" x="1881" y="438.3184">&#171;import&#187;</text></g><!--link Values to SequenceTypes--><g id="link_Values_SequenceTypes"><path codeLine="91" d="M352.3558,311.2204 C351.3479,311.274 350.3529,311.3268 349.3711,311.3789 C317.9531,313.0469 300,314 300,314 C300,314 44,457.25 44,457.25 C44,457.25 42.1831,461.7394 39.4436,468.5086 C39.1012,469.3547 38.7443,470.2365 38.3748,471.1496 C38.19,471.6061 38.0021,472.0705 37.8112,472.5422 C37.7158,472.778 39.8705,467.4539 39.7736,467.6933 " fill="none" id="Values-to-SequenceTypes" style="stroke:#181818;stroke-width:1.0;stroke-dasharray:7.0,7.0;"/><polygon fill="#181818" points="37.5227,473.255,44.6069,466.4129,39.3984,468.6202,37.1911,463.4118,37.5227,473.255" style="stroke:#181818;stroke-width:1.0;"/><text fill="#000000" font-family="sans-serif" font-size="13" lengthAdjust="spacing" textLength="56" x="301" y="355.6984">&#171;import&#187;</text></g><!--link Values to SumTypes--><g id="link_Values_SumTypes"><path codeLine="92" d="M1461.6223,239.0207 C1461.8641,239.1613 1462.1107,239.3046 1462.362,239.4507 C1462.8645,239.7428 1463.3858,240.0459 1463.9256,240.3596 C1466.0846,241.6146 1468.5383,243.041 1471.2638,244.6254 C1482.1659,250.963 1497.4171,259.8291 1515.5523,270.372 C1551.8228,291.4578 1599.6294,319.2506 1647.2513,346.9363 C1742.495,402.3075 1837,457.25 1837,457.25 C1837,457.25 1838.8169,461.7394 1841.5564,468.5086 C1841.8988,469.3547 1842.2557,470.2365 1842.6252,471.1496 C1842.81,471.6061 1842.9979,472.0705 1843.1888,472.5422 C1843.2365,472.6601 1841.0336,467.2167 1841.0816,467.3355 " fill="none" id="Values-to-SumTypes" style="stroke:#181818;stroke-width:1.0;stroke-dasharray:7.0,7.0;"/><polygon fill="#181818" points="1843.3325,472.8973,1843.6641,463.054,1841.4568,468.2624,1836.2483,466.0552,1843.3325,472.8973" style="stroke:#181818;stroke-width:1.0;"/><text fill="#000000" font-family="sans-serif" font-size="13" lengthAdjust="spacing" textLength="56" x="1714" y="355.6984">&#171;import&#187;</text></g><!--SRC=[ZPN1Zjem48RlUOfHJjrkGTj3BuZcqAugLQWdQ4uhLOPOmIAnKzkXHPHthnqxu37EjhaW__FFV1xYZDM1yOv8qiAMx0wr53slFej6ID2IS6L2bEjCNLqDurIVEWgTQ4vs4SIugAYY7NnuolQiej1IlHULohBEb2OrXI-sEj5CS3XdO1vlQxTKga4WMsMuEmsxXYW56qEgu7p9BhSYpqGJkmCrLSEbVcASo9FD3JGX6aeu5f_fZhMaYKJHRnkAjQzSqvfABAwrPBp6sdUkMCtTnWDLigYJDVtPKxwZctztauVUvGReRqrvvVwW8WUYeFunMWp59Y9It_uFv1lfEjFDm5WXnhiNNYQXGKh4B4dJNudHUnrYuz_Z5hE-c_qft1lF9dCgb5J1R3QJhDvhyrj0_dYqwejydxluu4pLMhEsQoZQHIZvlKGrmdE5KaF9fmRLxYrsgsVLRnNL2knHlkJUS0Tp1nRJGcqAXpn9ddF4GFyn823I9e3Oam9wnnrm-D0mBv2cSA4bIHiCCSn_mOY6j0aSzgHutX43tNJ0vooG9d38ag8vGmmRnmx2OJ55YnmftcYv8qg6OUCwoRa6amZ9iiGe6ZAMg-DrzWHLxKow1GOfcaf- -DZdyK1F2rWTRy8mAnPGEiarSCky6m51ABL_D0aNaAy-si2RrV71RjCjokD3dgM6kkkoJFU2J657GmDg0UUd-Vpj1KhK1yvAT1CPqZsD9jFGnlTWMZ13tW_tUT_DY-1QNy1oQLwGaBeehfvA_EB6TRstNpEXA_5Lex_HGizV]--></g></svg>