<?xml version="1.0" encoding="us-ascii" standalone="no"?><svg xmlns="http://www.w3.org/2000/svg" xmlns:xlink="http://www.w3.org/1999/xlink" contentStyleType="text/css" height="619px" preserveAspectRatio="none" style="width:1268px;height:619px;" version="1.1" viewBox="0 0 1268 619" width="1268px" zoomAndPan="magnify"><defs/><g><!--cluster Foundation--><g id="cluster_Foundation"><path d="M8.5,6 L90.5,6 A3.75,3.75 0 0 1 93,8.5 L100,28.4883 L673.5,28.4883 A2.5,2.5 0 0 1 676,30.9883 L676,102.5 A2.5,2.5 0 0 1 673.5,105 L8.5,105 A2.5,2.5 0 0 1 6,102.5 L6,8.5 A2.5,2.5 0 0 1 8.5,6 " fill="none" style="stroke:#000000;stroke-width:1.5;"/><line style="stroke:#000000;stroke-width:1.5;" x1="6" x2="100" y1="28.4883" y2="28.4883"/><text fill="#000000" font-family="sans-serif" font-size="14" font-weight="bold" lengthAdjust="spacing" textLength="81" x="10" y="21.5352">Foundation</text></g><!--cluster Modules--><g id="cluster_Modules"><path d="M773.5,6 L835.5,6 A3.75,3.75 0 0 1 838,8.5 L845,28.4883 L1000.5,28.4883 A2.5,2.5 0 0 1 1003,30.9883 L1003,102.5 A2.5,2.5 0 0 1 1000.5,105 L773.5,105 A2.5,2.5 0 0 1 771,102.5 L771,8.5 A2.5,2.5 0 0 1 773.5,6 " fill="none" style="stroke:#000000;stroke-width:1.5;"/><line style="stroke:#000000;stroke-width:1.5;" x1="771" x2="845" y1="28.4883" y2="28.4883"/><text fill="#000000" font-family="sans-serif" font-size="14" font-weight="bold" lengthAdjust="spacing" textLength="61" x="775" y="21.5352">Modules</text></g><!--cluster ProductTypes--><g id="cluster_ProductTypes"><path d="M458.5,170 L557.5,170 A3.75,3.75 0 0 1 560,172.5 L567,192.4883 L1258.5,192.4883 A2.5,2.5 0 0 1 1261,194.9883 L1261,610.48 A2.5,2.5 0 0 1 1258.5,612.98 L458.5,612.98 A2.5,2.5 0 0 1 456,610.48 L456,172.5 A2.5,2.5 0 0 1 458.5,170 " fill="none" style="stroke:#000000;stroke-width:1.5;"/><line style="stroke:#000000;stroke-width:1.5;" x1="456" x2="567" y1="192.4883" y2="192.4883"/><text fill="#000000" font-family="sans-serif" font-size="14" font-weight="bold" lengthAdjust="spacing" textLength="98" x="460" y="185.5352">ProductTypes</text></g><!--class Named--><g id="elem_Named"><rect codeLine="8" fill="#F1F1F1" height="32" id="Named" rx="2.5" ry="2.5" style="stroke:#181818;stroke-width:0.5;" width="80" x="30" y="49"/><ellipse cx="45" cy="65" fill="#A9DCDF" rx="11" ry="11" style="stroke:#181818;stroke-width:1.0;"/><path d="M44.8633,60.3481 L43.7095,65.4199 L46.0254,65.4199 Z M43.3691,58.1069 L46.3657,58.1069 L49.7109,70.5 L47.2622,70.5 L46.4985,67.437 L43.2197,67.437 L42.4727,70.5 L40.0239,70.5 Z " fill="#000000"/><text fill="#000000" font-family="sans-serif" font-size="14" font-style="italic" lengthAdjust="spacing" textLength="48" x="59" y="70.291">Named</text></g><!--class g_Namespace--><g id="elem_g_Namespace"><rect codeLine="9" fill="#F1F1F1" height="32" id="g_Namespace" rx="2.5" ry="2.5" style="stroke:#181818;stroke-width:0.5;" width="218" x="284" y="49"/><ellipse cx="299" cy="65" fill="#A9DCDF" rx="11" ry="11" style="stroke:#181818;stroke-width:1.0;"/><path d="M298.8633,60.3481 L297.7095,65.4199 L300.0254,65.4199 Z M297.3691,58.1069 L300.3657,58.1069 L303.7109,70.5 L301.2622,70.5 L300.4985,67.437 L297.2197,67.437 L296.4727,70.5 L294.0239,70.5 Z " fill="#000000"/><text fill="#000000" font-family="sans-serif" font-size="14" font-style="italic" lengthAdjust="spacing" textLength="78" x="313" y="70.291">Namespace</text><rect fill="none" height="16.1328" style="stroke:#181818;stroke-width:1.0;stroke-dasharray:2.0,2.0;" width="106" x="399" y="46"/><text fill="#000000" font-family="sans-serif" font-size="12" font-style="italic" lengthAdjust="spacing" textLength="104" x="400" y="58.6016">T extends Named</text></g><!--class Type--><g id="elem_Type"><rect codeLine="10" fill="#F1F1F1" height="32" id="Type" rx="2.5" ry="2.5" style="stroke:#181818;stroke-width:0.5;" width="65" x="552.5" y="49"/><ellipse cx="567.5" cy="65" fill="#A9DCDF" rx="11" ry="11" style="stroke:#181818;stroke-width:1.0;"/><path d="M567.3633,60.3481 L566.2095,65.4199 L568.5254,65.4199 Z M565.8691,58.1069 L568.8657,58.1069 L572.2109,70.5 L569.7622,70.5 L568.9985,67.437 L565.7197,67.437 L564.9727,70.5 L562.5239,70.5 Z " fill="#000000"/><text fill="#000000" font-family="sans-serif" font-size="14" font-style="italic" lengthAdjust="spacing" textLength="33" x="581.5" y="70.291">Type</text></g><!--class Typed--><g id="elem_Typed"><rect codeLine="11" fill="#F1F1F1" height="32" id="Typed" rx="2.5" ry="2.5" style="stroke:#181818;stroke-width:0.5;" width="74" x="160" y="49"/><ellipse cx="175" cy="65" fill="#A9DCDF" rx="11" ry="11" style="stroke:#181818;stroke-width:1.0;"/><path d="M174.8633,60.3481 L173.7095,65.4199 L176.0254,65.4199 Z M173.3691,58.1069 L176.3657,58.1069 L179.7109,70.5 L177.2622,70.5 L176.4985,67.437 L173.2197,67.437 L172.4727,70.5 L170.0239,70.5 Z " fill="#000000"/><text fill="#000000" font-family="sans-serif" font-size="14" font-style="italic" lengthAdjust="spacing" textLength="42" x="189" y="70.291">Typed</text></g><!--class ModuleDefinition--><g id="elem_ModuleDefinition"><rect codeLine="16" fill="#F1F1F1" height="32" id="ModuleDefinition" rx="2.5" ry="2.5" style="stroke:#181818;stroke-width:0.5;" width="150" x="829" y="49"/><ellipse cx="844" cy="65" fill="#A9DCDF" rx="11" ry="11" style="stroke:#181818;stroke-width:1.0;"/><path d="M843.8633,60.3481 L842.7095,65.4199 L845.0254,65.4199 Z M842.3691,58.1069 L845.3657,58.1069 L848.7109,70.5 L846.2622,70.5 L845.4985,67.437 L842.2197,67.437 L841.4727,70.5 L839.0239,70.5 Z " fill="#000000"/><text fill="#000000" font-family="sans-serif" font-size="14" font-style="italic" lengthAdjust="spacing" textLength="118" x="858" y="70.291">ModuleDefinition</text></g><!--class Entity--><g id="elem_Entity"><rect codeLine="20" fill="#F1F1F1" height="40" id="Entity" rx="2.5" ry="2.5" style="stroke:#181818;stroke-width:0.5;" width="70" x="696" y="431.49"/><ellipse cx="711" cy="447.49" fill="#ADD1B2" rx="11" ry="11" style="stroke:#181818;stroke-width:1.0;"/><path d="M713.4731,453.6331 Q712.8921,453.9319 712.2529,454.0813 Q711.6138,454.2307 710.9082,454.2307 Q708.4014,454.2307 707.0815,452.5789 Q705.7617,450.927 705.7617,447.8059 Q705.7617,444.6765 707.0815,443.0247 Q708.4014,441.3728 710.9082,441.3728 Q711.6138,441.3728 712.2612,441.5222 Q712.9087,441.6716 713.4731,441.9705 L713.4731,444.6931 Q712.8423,444.1121 712.2488,443.8423 Q711.6553,443.5725 711.0244,443.5725 Q709.6797,443.5725 708.9949,444.6392 Q708.3101,445.7058 708.3101,447.8059 Q708.3101,449.8977 708.9949,450.9644 Q709.6797,452.031 711.0244,452.031 Q711.6553,452.031 712.2488,451.7612 Q712.8423,451.4915 713.4731,450.9104 Z " fill="#000000"/><text fill="#000000" font-family="sans-serif" font-size="14" lengthAdjust="spacing" textLength="38" x="725" y="452.781">Entity</text><line style="stroke:#181818;stroke-width:0.5;" x1="697" x2="765" y1="463.49" y2="463.49"/></g><!--class Event--><g id="elem_Event"><rect codeLine="21" fill="#F1F1F1" height="40" id="Event" rx="2.5" ry="2.5" style="stroke:#181818;stroke-width:0.5;" width="69" x="748.5" y="322.25"/><ellipse cx="763.5" cy="338.25" fill="#ADD1B2" rx="11" ry="11" style="stroke:#181818;stroke-width:1.0;"/><path d="M765.9731,344.3931 Q765.3921,344.6919 764.7529,344.8413 Q764.1138,344.9907 763.4082,344.9907 Q760.9014,344.9907 759.5815,343.3389 Q758.2617,341.687 758.2617,338.5659 Q758.2617,335.4365 759.5815,333.7847 Q760.9014,332.1328 763.4082,332.1328 Q764.1138,332.1328 764.7612,332.2822 Q765.4087,332.4316 765.9731,332.7305 L765.9731,335.4531 Q765.3423,334.8721 764.7488,334.6023 Q764.1553,334.3325 763.5244,334.3325 Q762.1797,334.3325 761.4949,335.3992 Q760.8101,336.4658 760.8101,338.5659 Q760.8101,340.6577 761.4949,341.7244 Q762.1797,342.791 763.5244,342.791 Q764.1553,342.791 764.7488,342.5212 Q765.3423,342.2515 765.9731,341.6704 Z " fill="#000000"/><text fill="#000000" font-family="sans-serif" font-size="14" lengthAdjust="spacing" textLength="37" x="777.5" y="343.541">Event</text><line style="stroke:#181818;stroke-width:0.5;" x1="749.5" x2="816.5" y1="354.25" y2="354.25"/></g><!--class g_Structure--><g id="elem_g_Structure"><rect codeLine="22" fill="#F1F1F1" height="40" id="g_Structure" rx="2.5" ry="2.5" style="stroke:#181818;stroke-width:0.5;" width="165" x="561.5" y="213"/><ellipse cx="576.5" cy="229" fill="#ADD1B2" rx="11" ry="11" style="stroke:#181818;stroke-width:1.0;"/><path d="M578.9731,235.1431 Q578.3921,235.4419 577.7529,235.5913 Q577.1138,235.7407 576.4082,235.7407 Q573.9014,235.7407 572.5815,234.0889 Q571.2617,232.437 571.2617,229.3159 Q571.2617,226.1865 572.5815,224.5347 Q573.9014,222.8828 576.4082,222.8828 Q577.1138,222.8828 577.7612,223.0322 Q578.4087,223.1816 578.9731,223.4805 L578.9731,226.2031 Q578.3423,225.6221 577.7488,225.3523 Q577.1553,225.0825 576.5244,225.0825 Q575.1797,225.0825 574.4949,226.1492 Q573.8101,227.2158 573.8101,229.3159 Q573.8101,231.4077 574.4949,232.4744 Q575.1797,233.541 576.5244,233.541 Q577.1553,233.541 577.7488,233.2712 Q578.3423,233.0015 578.9731,232.4204 Z " fill="#000000"/><text fill="#000000" font-family="sans-serif" font-size="14" lengthAdjust="spacing" textLength="63" x="590.5" y="234.291">Structure</text><rect fill="none" height="16.1328" style="stroke:#181818;stroke-width:1.0;stroke-dasharray:2.0,2.0;" width="68" x="661.5" y="210"/><text fill="#000000" font-family="sans-serif" font-size="12" font-style="italic" lengthAdjust="spacing" textLength="66" x="662.5" y="222.6016">T=Member</text><line style="stroke:#181818;stroke-width:0.5;" x1="562.5" x2="725.5" y1="245" y2="245"/></g><!--class MemberGroup--><g id="elem_MemberGroup"><rect codeLine="23" fill="#F1F1F1" height="40" id="MemberGroup" rx="2.5" ry="2.5" style="stroke:#181818;stroke-width:0.5;" width="131" x="1054.5" y="322.25"/><ellipse cx="1069.5" cy="338.25" fill="#ADD1B2" rx="11" ry="11" style="stroke:#181818;stroke-width:1.0;"/><path d="M1071.9731,344.3931 Q1071.3921,344.6919 1070.7529,344.8413 Q1070.1138,344.9907 1069.4082,344.9907 Q1066.9014,344.9907 1065.5815,343.3389 Q1064.2617,341.687 1064.2617,338.5659 Q1064.2617,335.4365 1065.5815,333.7847 Q1066.9014,332.1328 1069.4082,332.1328 Q1070.1138,332.1328 1070.7612,332.2822 Q1071.4087,332.4316 1071.9731,332.7305 L1071.9731,335.4531 Q1071.3423,334.8721 1070.7488,334.6023 Q1070.1553,334.3325 1069.5244,334.3325 Q1068.1797,334.3325 1067.4949,335.3992 Q1066.8101,336.4658 1066.8101,338.5659 Q1066.8101,340.6577 1067.4949,341.7244 Q1068.1797,342.791 1069.5244,342.791 Q1070.1553,342.791 1070.7488,342.5212 Q1071.3423,342.2515 1071.9731,341.6704 Z " fill="#000000"/><text fill="#000000" font-family="sans-serif" font-size="14" lengthAdjust="spacing" textLength="99" x="1083.5" y="343.541">MemberGroup</text><line style="stroke:#181818;stroke-width:0.5;" x1="1055.5" x2="1184.5" y1="354.25" y2="354.25"/></g><!--class Member--><g id="elem_Member"><rect codeLine="24" fill="#F1F1F1" height="40" id="Member" rx="2.5" ry="2.5" style="stroke:#181818;stroke-width:0.5;" width="88" x="558" y="431.49"/><ellipse cx="573" cy="447.49" fill="#A9DCDF" rx="11" ry="11" style="stroke:#181818;stroke-width:1.0;"/><path d="M572.8633,442.8381 L571.7095,447.9099 L574.0254,447.9099 Z M571.3691,440.5969 L574.3657,440.5969 L577.7109,452.99 L575.2622,452.99 L574.4985,449.927 L571.2197,449.927 L570.4727,452.99 L568.0239,452.99 Z " fill="#000000"/><text fill="#000000" font-family="sans-serif" font-size="14" font-style="italic" lengthAdjust="spacing" textLength="56" x="587" y="452.781">Member</text><line style="stroke:#181818;stroke-width:0.5;" x1="559" x2="645" y1="463.49" y2="463.49"/></g><!--class Annotated--><g id="elem_Annotated"><rect fill="#F1F1F1" height="40" id="Annotated" rx="2.5" ry="2.5" style="stroke:#181818;stroke-width:0.5;" width="104" x="1068" y="213"/><ellipse cx="1083" cy="229" fill="#ADD1B2" rx="11" ry="11" style="stroke:#181818;stroke-width:1.0;"/><path d="M1085.4731,235.1431 Q1084.8921,235.4419 1084.2529,235.5913 Q1083.6138,235.7407 1082.9082,235.7407 Q1080.4014,235.7407 1079.0815,234.0889 Q1077.7617,232.437 1077.7617,229.3159 Q1077.7617,226.1865 1079.0815,224.5347 Q1080.4014,222.8828 1082.9082,222.8828 Q1083.6138,222.8828 1084.2612,223.0322 Q1084.9087,223.1816 1085.4731,223.4805 L1085.4731,226.2031 Q1084.8423,225.6221 1084.2488,225.3523 Q1083.6553,225.0825 1083.0244,225.0825 Q1081.6797,225.0825 1080.9949,226.1492 Q1080.3101,227.2158 1080.3101,229.3159 Q1080.3101,231.4077 1080.9949,232.4744 Q1081.6797,233.541 1083.0244,233.541 Q1083.6553,233.541 1084.2488,233.2712 Q1084.8423,233.0015 1085.4731,232.4204 Z " fill="#000000"/><text fill="#000000" font-family="sans-serif" font-size="14" lengthAdjust="spacing" textLength="72" x="1097" y="234.291">Annotated</text><line style="stroke:#181818;stroke-width:0.5;" x1="1069" x2="1171" y1="245" y2="245"/></g><!--class g_Property--><g id="elem_g_Property"><rect codeLine="41" fill="#F1F1F1" height="40" id="g_Property" rx="2.5" ry="2.5" style="stroke:#181818;stroke-width:0.5;" width="137" x="867.5" y="322.25"/><ellipse cx="882.5" cy="338.25" fill="#ADD1B2" rx="11" ry="11" style="stroke:#181818;stroke-width:1.0;"/><path d="M884.9731,344.3931 Q884.3921,344.6919 883.7529,344.8413 Q883.1138,344.9907 882.4082,344.9907 Q879.9014,344.9907 878.5815,343.3389 Q877.2617,341.687 877.2617,338.5659 Q877.2617,335.4365 878.5815,333.7847 Q879.9014,332.1328 882.4082,332.1328 Q883.1138,332.1328 883.7612,332.2822 Q884.4087,332.4316 884.9731,332.7305 L884.9731,335.4531 Q884.3423,334.8721 883.7488,334.6023 Q883.1553,334.3325 882.5244,334.3325 Q881.1797,334.3325 880.4949,335.3992 Q879.8101,336.4658 879.8101,338.5659 Q879.8101,340.6577 880.4949,341.7244 Q881.1797,342.791 882.5244,342.791 Q883.1553,342.791 883.7488,342.5212 Q884.3423,342.2515 884.9731,341.6704 Z " fill="#000000"/><text fill="#000000" font-family="sans-serif" font-size="14" lengthAdjust="spacing" textLength="58" x="896.5" y="343.541">Property</text><rect fill="none" height="16.1328" style="stroke:#181818;stroke-width:1.0;stroke-dasharray:2.0,2.0;" width="45" x="962.5" y="319.25"/><text fill="#000000" font-family="sans-serif" font-size="12" font-style="italic" lengthAdjust="spacing" textLength="43" x="963.5" y="331.8516">T=Role</text><line style="stroke:#181818;stroke-width:0.5;" x1="868.5" x2="1003.5" y1="354.25" y2="354.25"/></g><!--class Role--><g id="elem_Role"><rect codeLine="42" fill="#F1F1F1" height="56.4883" id="Role" rx="2.5" ry="2.5" style="stroke:#181818;stroke-width:0.5;" width="159" x="539.5" y="314"/><ellipse cx="599.75" cy="330" fill="#ADD1B2" rx="11" ry="11" style="stroke:#181818;stroke-width:1.0;"/><path d="M602.2231,336.1431 Q601.6421,336.4419 601.0029,336.5913 Q600.3638,336.7407 599.6582,336.7407 Q597.1514,336.7407 595.8315,335.0889 Q594.5117,333.437 594.5117,330.3159 Q594.5117,327.1865 595.8315,325.5347 Q597.1514,323.8828 599.6582,323.8828 Q600.3638,323.8828 601.0112,324.0322 Q601.6587,324.1816 602.2231,324.4805 L602.2231,327.2031 Q601.5923,326.6221 600.9988,326.3523 Q600.4053,326.0825 599.7744,326.0825 Q598.4297,326.0825 597.7449,327.1492 Q597.0601,328.2158 597.0601,330.3159 Q597.0601,332.4077 597.7449,333.4744 Q598.4297,334.541 599.7744,334.541 Q600.4053,334.541 600.9988,334.2712 Q601.5923,334.0015 602.2231,333.4204 Z " fill="#000000"/><text fill="#000000" font-family="sans-serif" font-size="14" lengthAdjust="spacing" textLength="30" x="620.25" y="335.291">Role</text><line style="stroke:#181818;stroke-width:0.5;" x1="540.5" x2="697.5" y1="346" y2="346"/><ellipse cx="550.5" cy="359.7441" fill="none" rx="3" ry="3" style="stroke:#038048;stroke-width:1.0;"/><text fill="#000000" font-family="sans-serif" font-size="14" lengthAdjust="spacing" textLength="133" x="559.5" y="363.5352">is_identity: boolean</text></g><!--class MemberDefinition--><g id="elem_MemberDefinition"><rect codeLine="54" fill="#F1F1F1" height="40" id="MemberDefinition" rx="2.5" ry="2.5" style="stroke:#181818;stroke-width:0.5;" width="155" x="706.5" y="540.74"/><ellipse cx="721.5" cy="556.74" fill="#ADD1B2" rx="11" ry="11" style="stroke:#181818;stroke-width:1.0;"/><path d="M723.9731,562.8831 Q723.3921,563.1819 722.7529,563.3313 Q722.1138,563.4807 721.4082,563.4807 Q718.9014,563.4807 717.5815,561.8289 Q716.2617,560.177 716.2617,557.0559 Q716.2617,553.9265 717.5815,552.2747 Q718.9014,550.6228 721.4082,550.6228 Q722.1138,550.6228 722.7612,550.7722 Q723.4087,550.9216 723.9731,551.2205 L723.9731,553.9431 Q723.3423,553.3621 722.7488,553.0923 Q722.1553,552.8225 721.5244,552.8225 Q720.1797,552.8225 719.4949,553.8892 Q718.8101,554.9558 718.8101,557.0559 Q718.8101,559.1477 719.4949,560.2144 Q720.1797,561.281 721.5244,561.281 Q722.1553,561.281 722.7488,561.0112 Q723.3423,560.7415 723.9731,560.1604 Z " fill="#000000"/><text fill="#000000" font-family="sans-serif" font-size="14" lengthAdjust="spacing" textLength="123" x="735.5" y="562.031">MemberDefinition</text><line style="stroke:#181818;stroke-width:0.5;" x1="707.5" x2="860.5" y1="572.74" y2="572.74"/></g><!--class MemberReference--><g id="elem_MemberReference"><rect codeLine="59" fill="#F1F1F1" height="56.4883" id="MemberReference" rx="2.5" ry="2.5" style="stroke:#181818;stroke-width:0.5;" width="156" x="500" y="532.49"/><ellipse cx="515" cy="548.49" fill="#ADD1B2" rx="11" ry="11" style="stroke:#181818;stroke-width:1.0;"/><path d="M517.4731,554.6331 Q516.8921,554.9319 516.2529,555.0813 Q515.6138,555.2307 514.9082,555.2307 Q512.4014,555.2307 511.0815,553.5789 Q509.7617,551.927 509.7617,548.8059 Q509.7617,545.6765 511.0815,544.0247 Q512.4014,542.3728 514.9082,542.3728 Q515.6138,542.3728 516.2612,542.5222 Q516.9087,542.6716 517.4731,542.9705 L517.4731,545.6931 Q516.8423,545.1121 516.2488,544.8423 Q515.6553,544.5725 515.0244,544.5725 Q513.6797,544.5725 512.9949,545.6392 Q512.3101,546.7058 512.3101,548.8059 Q512.3101,550.8977 512.9949,551.9644 Q513.6797,553.031 515.0244,553.031 Q515.6553,553.031 516.2488,552.7612 Q516.8423,552.4915 517.4731,551.9104 Z " fill="#000000"/><text fill="#000000" font-family="sans-serif" font-size="14" lengthAdjust="spacing" textLength="124" x="529" y="553.781">MemberReference</text><line style="stroke:#181818;stroke-width:0.5;" x1="501" x2="655" y1="564.49" y2="564.49"/><text fill="#000000" font-family="sans-serif" font-size="14" lengthAdjust="spacing" textLength="65" x="506" y="582.0252">role: Role</text></g><!--reverse link Type to g_Structure--><g id="link_Type_g_Structure"><path codeLine="26" d="M596.4714,98.2794 C607.2614,128.6194 625.28,179.33 637.13,212.68 " fill="none" id="Type-backto-g_Structure" style="stroke:#181818;stroke-width:1.0;"/><polygon fill="none" points="590.44,81.32,590.8182,100.2899,602.1245,96.269,590.44,81.32" style="stroke:#181818;stroke-width:1.0;"/></g><!--reverse link ModuleDefinition to g_Structure--><g id="link_ModuleDefinition_g_Structure"><path codeLine="27" d="M883.2,96.2611 C867.21,119.5111 849,146 849,146 C849,146 750.72,187.23 690.26,212.6 " fill="none" id="ModuleDefinition-backto-g_Structure" style="stroke:#181818;stroke-width:1.0;"/><polygon fill="none" points="893.4,81.43,878.2564,92.8611,888.1437,99.6611,893.4,81.43" style="stroke:#181818;stroke-width:1.0;"/></g><!--reverse link g_Namespace to g_Structure--><g id="link_g_Namespace_g_Structure"><path codeLine="28" d="M437.4307,89.841 C484.4107,115.051 557,154 557,154 C557,154 596.73,189.62 622.49,212.72 " fill="none" id="g_Namespace-backto-g_Structure" style="stroke:#181818;stroke-width:1.0;"/><polygon fill="none" points="421.57,81.33,434.5937,95.1279,440.2677,84.5541,421.57,81.33" style="stroke:#181818;stroke-width:1.0;"/></g><!--link g_Structure to MemberGroup--><g id="link_g_Structure_MemberGroup"><path codeLine="29" d="M738.5604,253.6046 C851.9804,277.1046 1030,314 1030,314 C1030,314 1035.6265,315.7144 1050.2865,320.1444 " fill="none" id="g_Structure-MemberGroup" style="stroke:#181818;stroke-width:1.0;"/><polygon fill="#181818" points="726.81,251.17,731.8737,256.3041,738.5604,253.6046,733.4968,248.4705,726.81,251.17" style="stroke:#181818;stroke-width:1.0;"/><polygon fill="#181818" points="1056.03,321.88,1048.5718,315.4476,1051.2438,320.4337,1046.2577,323.1056,1056.03,321.88" style="stroke:#181818;stroke-width:1.0;"/><text fill="#000000" font-family="sans-serif" font-size="13" lengthAdjust="spacing" textLength="48" x="734.6539" y="233.994">+owner</text><text fill="#000000" font-family="sans-serif" font-size="13" lengthAdjust="spacing" textLength="8" x="734.6539" y="249.3045">1</text><text fill="#000000" font-family="sans-serif" font-size="13" lengthAdjust="spacing" textLength="54" x="1002.8434" y="296.1193">+groups</text><text fill="#000000" font-family="sans-serif" font-size="13" lengthAdjust="spacing" textLength="22" x="1034.8434" y="311.4299">0..*</text></g><!--reverse link g_Structure to Entity--><g id="link_g_Structure_Entity"><path codeLine="31" d="M597.4733,262.8573 C559.2933,286.5373 515,314 515,314 C515,314 515,370.49 515,370.49 C515,370.49 634.61,414.79 695.82,437.46 " fill="none" id="g_Structure-backto-Entity" style="stroke:#181818;stroke-width:1.0;"/><polygon fill="none" points="612.77,253.37,594.3108,257.7584,600.6357,267.9563,612.77,253.37" style="stroke:#181818;stroke-width:1.0;"/></g><!--link Entity to Member--><g id="link_Entity_Member"><path codeLine="32" d="M683.89,451.49 C683.89,451.49 659.89,451.49 652.43,451.49 " fill="none" id="Entity-Member" style="stroke:#181818;stroke-width:1.0;"/><polygon fill="#181818" points="695.89,451.49,689.89,447.49,683.89,451.49,689.89,455.49,695.89,451.49" style="stroke:#181818;stroke-width:1.0;"/><polygon fill="#181818" points="646.43,451.49,655.43,455.49,651.43,451.49,655.43,447.49,646.43,451.49" style="stroke:#181818;stroke-width:1.0;"/><text fill="#000000" font-family="sans-serif" font-size="13" lengthAdjust="spacing" textLength="58" x="653.6627" y="421.904">+identity</text><text fill="#000000" font-family="sans-serif" font-size="13" lengthAdjust="spacing" textLength="8" x="703.6627" y="437.2145">1</text></g><!--reverse link g_Structure to Event--><g id="link_g_Structure_Event"><path codeLine="34" d="M677.2243,265.9567 C691.8243,279.9967 696,284 696,284 C696,284 728.31,305.26 753.55,321.87 " fill="none" id="g_Structure-backto-Event" style="stroke:#181818;stroke-width:1.0;"/><polygon fill="none" points="664.25,253.48,673.0654,270.2814,681.3832,261.6319,664.25,253.48" style="stroke:#181818;stroke-width:1.0;"/></g><!--link Event to Entity--><g id="link_Event_Entity"><path codeLine="35" d="M773.7,362.42 C764.3,381.82 752.4476,406.2511 743.0076,425.7211 " fill="none" id="Event-to-Entity" style="stroke:#181818;stroke-width:1.0;"/><polygon fill="#181818" points="740.39,431.12,747.9157,424.7668,742.5714,426.6209,740.7172,421.2766,740.39,431.12" style="stroke:#181818;stroke-width:1.0;"/><text fill="#000000" font-family="sans-serif" font-size="13" lengthAdjust="spacing" textLength="52" x="748.5739" y="405.5809">+source</text><text fill="#000000" font-family="sans-serif" font-size="13" lengthAdjust="spacing" textLength="8" x="792.5739" y="420.8914">1</text></g><!--reverse link Annotated to MemberGroup--><g id="link_Annotated_MemberGroup"><path codeLine="37" d="M1120,271.18 C1120,290.58 1120,302.41 1120,321.88 " fill="none" id="Annotated-backto-MemberGroup" style="stroke:#181818;stroke-width:1.0;"/><polygon fill="none" points="1120,253.18,1114,271.18,1126,271.18,1120,253.18" style="stroke:#181818;stroke-width:1.0;"/></g><!--link MemberGroup to Member--><g id="link_MemberGroup_Member"><path codeLine="38" d="M1044.5452,366.0883 C1029.8852,370.5283 1030,370.49 1030,370.49 C1030,370.49 671,431.49 671,431.49 C671,431.49 665.6154,432.9796 652.2654,436.6496 " fill="none" id="MemberGroup-Member" style="stroke:#181818;stroke-width:1.0;"/><polygon fill="none" points="1056.03,362.61,1049.1281,360.5209,1044.5452,366.0883,1051.447,368.1774,1056.03,362.61" style="stroke:#181818;stroke-width:1.0;"/><polygon fill="#181818" points="646.48,438.24,656.2183,439.7113,651.3011,436.9146,654.0978,431.9974,646.48,438.24" style="stroke:#181818;stroke-width:1.0;"/><text fill="#000000" font-family="sans-serif" font-size="13" lengthAdjust="spacing" textLength="68" x="584.375" y="405.0924">+members</text><text fill="#000000" font-family="sans-serif" font-size="13" lengthAdjust="spacing" textLength="22" x="630.375" y="420.403">1..*</text></g><!--reverse link ModuleDefinition to g_Property--><g id="link_ModuleDefinition_g_Property"><path codeLine="46" d="M972.6091,86.6081 C1056.6391,111.8481 1197,154 1197,154 C1197,154 1197,253 1197,253 C1197,253 1070.46,295.79 993.6,321.77 " fill="none" id="ModuleDefinition-backto-g_Property" style="stroke:#181818;stroke-width:1.0;"/><polygon fill="none" points="955.37,81.43,970.8831,92.3545,974.3352,80.8617,955.37,81.43" style="stroke:#181818;stroke-width:1.0;"/></g><!--reverse link g_Namespace to g_Property--><g id="link_g_Namespace_g_Property"><path codeLine="47" d="M401.9061,98.6757 C414.0861,143.3357 444,253 444,253 C444,253 842,314 842,314 C842,314 853.75,317.41 868.94,321.81 " fill="none" id="g_Namespace-backto-g_Property" style="stroke:#181818;stroke-width:1.0;"/><polygon fill="none" points="397.17,81.31,396.1175,100.2545,407.6947,97.097,397.17,81.31" style="stroke:#181818;stroke-width:1.0;"/></g><!--link g_Property to Role--><g id="link_g_Property_Role"><path codeLine="48" d="M894.71,321.87 C860.34,304.9 817,283.5 817,283.5 C817,283.5 749,283.5 749,283.5 C749,283.5 720.9478,296.1795 687.9478,311.0895 " fill="none" id="g_Property-to-Role" style="stroke:#181818;stroke-width:1.0;"/><polygon fill="#181818" points="682.48,313.56,692.3287,313.4995,687.0365,311.5013,689.0347,306.2091,682.48,313.56" style="stroke:#181818;stroke-width:1.0;"/><text fill="#000000" font-family="sans-serif" font-size="13" lengthAdjust="spacing" textLength="31" x="657.7704" y="272.7281">roles</text><text fill="#000000" font-family="sans-serif" font-size="13" lengthAdjust="spacing" textLength="51" x="637.7704" y="288.0387">{unique}</text><text fill="#000000" font-family="sans-serif" font-size="13" lengthAdjust="spacing" textLength="22" x="666.7704" y="303.3492">1..*</text></g><!--reverse link Annotated to Role--><g id="link_Annotated_Role"><path codeLine="49" d="M1050.1767,248.1054 C942.6467,269.8354 724,314 724,314 C724,314 713.36,316.76 698.85,320.53 " fill="none" id="Annotated-backto-Role" style="stroke:#181818;stroke-width:1.0;"/><polygon fill="none" points="1067.82,244.54,1048.9882,242.2243,1051.3651,253.9865,1067.82,244.54" style="stroke:#181818;stroke-width:1.0;"/></g><!--reverse link Typed to Role--><g id="link_Typed_Role"><path codeLine="50" d="M218.0995,96.0642 C252.9195,145.6842 350,284 350,284 C350,284 459.73,307.35 539.02,324.23 " fill="none" id="Typed-backto-Role" style="stroke:#181818;stroke-width:1.0;"/><polygon fill="none" points="207.76,81.33,213.1881,99.5107,223.0108,92.6177,207.76,81.33" style="stroke:#181818;stroke-width:1.0;"/></g><!--reverse link Named to Member--><g id="link_Named_Member"><path codeLine="52" d="M81.2659,98.3266 C98.5659,147.9466 146,284 146,284 C146,284 443.42,392.59 557.86,434.38 " fill="none" id="Named-backto-Member" style="stroke:#181818;stroke-width:1.0;"/><polygon fill="none" points="75.34,81.33,75.6003,100.3019,86.9314,96.3513,75.34,81.33" style="stroke:#181818;stroke-width:1.0;"/></g><!--reverse link Annotated to MemberDefinition--><g id="link_Annotated_MemberDefinition"><path codeLine="55" d="M1155.2411,265.3311 C1181.8711,289.0111 1210,314 1210,314 C1210,314 1210,370.49 1210,370.49 C1210,370.49 936.16,492.14 827.59,540.37 " fill="none" id="Annotated-backto-MemberDefinition" style="stroke:#181818;stroke-width:1.0;"/><polygon fill="none" points="1141.79,253.37,1151.2541,269.8148,1159.2282,260.8473,1141.79,253.37" style="stroke:#181818;stroke-width:1.0;"/></g><!--reverse link Member to MemberDefinition--><g id="link_Member_MemberDefinition"><path codeLine="56" d="M650.4668,481.05 C683.3468,500.43 718.08,520.89 750.98,540.28 " fill="none" id="Member-backto-MemberDefinition" style="stroke:#181818;stroke-width:1.0;"/><polygon fill="none" points="634.96,471.91,647.4202,486.2189,653.5135,475.881,634.96,471.91" style="stroke:#181818;stroke-width:1.0;"/></g><!--reverse link Typed to MemberDefinition--><g id="link_Typed_MemberDefinition"><path codeLine="57" d="M194.3941,99.265 C191.1741,140.365 184,232 184,232 C184,232 184,232 184,452.49 C184,452.49 681,532.49 681,532.49 C681,532.49 693.87,535.9 710.52,540.3 " fill="none" id="Typed-backto-MemberDefinition" style="stroke:#181818;stroke-width:1.0;"/><polygon fill="none" points="195.8,81.32,188.4124,98.7964,200.3758,99.7336,195.8,81.32" style="stroke:#181818;stroke-width:1.0;"/></g><!--reverse link Member to MemberReference--><g id="link_Member_MemberReference"><path codeLine="62" d="M593.7744,489.2245 C589.9944,506.0945 588.39,513.29 584.15,532.27 " fill="none" id="Member-backto-MemberReference" style="stroke:#181818;stroke-width:1.0;"/><polygon fill="none" points="597.71,471.66,587.9196,487.9126,599.6292,490.5364,597.71,471.66" style="stroke:#181818;stroke-width:1.0;"/></g><!--reverse link Foundation to ProductTypes--><g id="link_Foundation_ProductTypes"><path codeLine="67" d="M643.813,110.3424 C643.6069,110.7202 645.9653,106.3964 645.7636,106.7661 C645.3602,107.5057 644.966,108.2285 644.5826,108.9313 C643.8159,110.3371 643.0926,111.6632 642.4259,112.8855 C639.7594,117.7744 638,121 638,121 C638,121 468,154 468,154 C468,154 467.7575,158.7238 467.3919,165.8464 C467.3462,166.7367 467.2985,167.6646 467.2492,168.6253 C467.2369,168.8655 467.2245,169.1077 467.2119,169.352 C467.2057,169.4741 467.1994,169.5967 467.193,169.7198 " fill="none" id="Foundation-backto-ProductTypes" style="stroke:#181818;stroke-width:1.0;stroke-dasharray:7.0,7.0;"/><polygon fill="#181818" points="646.686,105.075,638.8649,111.0608,644.2918,109.4645,645.8881,114.8914,646.686,105.075" style="stroke:#181818;stroke-width:1.0;"/><text fill="#000000" font-family="sans-serif" font-size="13" lengthAdjust="spacing" textLength="56" x="593" y="142.5684">&#171;import&#187;</text></g><!--reverse link Modules to ProductTypes--><g id="link_Modules_ProductTypes"><path codeLine="68" d="M765.8567,74.9887 C764.8435,75.6813 767.9645,73.5479 766.8118,74.3359 C764.5064,75.912 761.9355,77.6696 759.1536,79.5716 C748.0259,87.1794 733.5219,97.0963 719.1288,106.9375 C690.3425,126.62 662,146 662,146 C662,146 468,154 468,154 C468,154 467.7575,158.7238 467.3919,165.8464 C467.3462,166.7367 467.2985,167.6646 467.2492,168.6253 C467.2369,168.8655 467.2245,169.1077 467.2119,169.352 C467.2057,169.4741 467.1994,169.5967 467.193,169.7198 " fill="none" id="Modules-backto-ProductTypes" style="stroke:#181818;stroke-width:1.0;stroke-dasharray:7.0,7.0;"/><polygon fill="#181818" points="770.8099,71.6027,761.1227,73.3796,766.6822,74.4244,765.6374,79.9839,770.8099,71.6027" style="stroke:#181818;stroke-width:1.0;"/><text fill="#000000" font-family="sans-serif" font-size="13" lengthAdjust="spacing" textLength="56" x="685" y="142.5684">&#171;import&#187;</text></g><!--SRC=[ZLHDRzim3BtxLn2-36ZXe3ti4cG6YdRRgUlGvHYWK6mc4MfBcYHl2xByzr6IF-GwBkP3WF0zFf5ybCmh5uffLiEM5QzxBHjHtijAQh2Q2KCG2fkOdbLnWVQe49IiZkvFX0bPea457s-I0oyHQhG7MPeaKIJDzWXVd3gpN0eu9K1VIwktg8qFiAsXSmiBHSMCWM-inX9EvqjOwa0giC3L6l2FHL6s2NaApC3-fIVCAAnT7_EGF_WyLFyeowP2yv-b1_O3xhZWeUEHs7TDU67TEPrYoFiiBBV7hgmszejC68VI7rPJVgEf-q-FleokxHuPPmJILt9OpJGT60xqQAoKDIhxc_knp65l6vxZHRvCAEcr_2rGRwhR5AwoBAU0MqbbDlfciRXAuoPyilzfHzRhztenIdAPvlk33RBadezlz6sd6WdwUS_f1T2h6Dde0hr6E2PCBXvrgt8dXBJCOZaXo23LhX9fHOqcGqszyRGv2hKzak_FiiBEzIuyDjqnslLotpKtBrtdIzXAGbamglUyrtdVrhUqgQi38nwyfYEfoLCZ-Cy6prsxhawVvmk-EBCOyTSpddK7-FkVJBP-V0s7j2Z-ZazJLhGmSvIenBYIPzmXFQb5x8gRoN8OGLnWJnyVx1aVOFtqyBI4kxA47JAteCOzCQEdPT6eHHuzl4jOhNYjfBPvVedPFd8nxHy0]--></g></svg>