<?xml version="1.0" encoding="us-ascii" standalone="no"?><svg xmlns="http://www.w3.org/2000/svg" xmlns:xlink="http://www.w3.org/1999/xlink" contentStyleType="text/css" height="619px" preserveAspectRatio="none" style="width:1116px;height:619px;" version="1.1" viewBox="0 0 1116 619" width="1116px" zoomAndPan="magnify"><defs/><g><!--cluster Foundation--><g id="cluster_Foundation"><path d="M293.3153,6 L375.3153,6 A3.75,3.75 0 0 1 377.8153,8.5 L384.8153,28.4883 L1107.3153,28.4883 A2.5,2.5 0 0 1 1109.8153,30.9883 L1109.8153,102.5 A2.5,2.5 0 0 1 1107.3153,105 L293.3153,105 A2.5,2.5 0 0 1 290.8153,102.5 L290.8153,8.5 A2.5,2.5 0 0 1 293.3153,6 " fill="none" style="stroke:#000000;stroke-width:1.5;"/><line style="stroke:#000000;stroke-width:1.5;" x1="290.8153" x2="384.8153" y1="28.4883" y2="28.4883"/><text fill="#000000" font-family="sans-serif" font-size="14" font-weight="bold" lengthAdjust="spacing" textLength="81" x="294.8153" y="21.5352">Foundation</text></g><!--cluster Modules--><g id="cluster_Modules"><path d="M21.3153,6 L83.3153,6 A3.75,3.75 0 0 1 85.8153,8.5 L92.8153,28.4883 L248.3153,28.4883 A2.5,2.5 0 0 1 250.8153,30.9883 L250.8153,102.5 A2.5,2.5 0 0 1 248.3153,105 L21.3153,105 A2.5,2.5 0 0 1 18.8153,102.5 L18.8153,8.5 A2.5,2.5 0 0 1 21.3153,6 " fill="none" style="stroke:#000000;stroke-width:1.5;"/><line style="stroke:#000000;stroke-width:1.5;" x1="18.8153" x2="92.8153" y1="28.4883" y2="28.4883"/><text fill="#000000" font-family="sans-serif" font-size="14" font-weight="bold" lengthAdjust="spacing" textLength="61" x="22.8153" y="21.5352">Modules</text></g><!--cluster ProductTypes--><g id="cluster_ProductTypes"><path d="M86.3153,170 L185.3153,170 A3.75,3.75 0 0 1 187.8153,172.5 L194.8153,192.4883 L749.3153,192.4883 A2.5,2.5 0 0 1 751.8153,194.9883 L751.8153,610.48 A2.5,2.5 0 0 1 749.3153,612.98 L86.3153,612.98 A2.5,2.5 0 0 1 83.8153,610.48 L83.8153,172.5 A2.5,2.5 0 0 1 86.3153,170 " fill="none" style="stroke:#000000;stroke-width:1.5;"/><line style="stroke:#000000;stroke-width:1.5;" x1="83.8153" x2="194.8153" y1="192.4883" y2="192.4883"/><text fill="#000000" font-family="sans-serif" font-size="14" font-weight="bold" lengthAdjust="spacing" textLength="98" x="87.8153" y="185.5352">ProductTypes</text></g><!--class Definition--><g id="elem_Definition"><rect codeLine="8" fill="#F1F1F1" height="32" id="Definition" rx="2.5" ry="2.5" style="stroke:#181818;stroke-width:0.5;" width="99" x="857.3153" y="49"/><ellipse cx="872.3153" cy="65" fill="#A9DCDF" rx="11" ry="11" style="stroke:#181818;stroke-width:1.0;"/><path d="M872.1785,60.3481 L871.0247,65.4199 L873.3407,65.4199 Z M870.6844,58.1069 L873.681,58.1069 L877.0262,70.5 L874.5775,70.5 L873.8138,67.437 L870.535,67.437 L869.7879,70.5 L867.3392,70.5 Z " fill="#000000"/><text fill="#000000" font-family="sans-serif" font-size="14" font-style="italic" lengthAdjust="spacing" textLength="67" x="886.3153" y="70.291">Definition</text></g><!--class Named--><g id="elem_Named"><rect codeLine="9" fill="#F1F1F1" height="32" id="Named" rx="2.5" ry="2.5" style="stroke:#181818;stroke-width:0.5;" width="80" x="1005.8153" y="49"/><ellipse cx="1020.8153" cy="65" fill="#A9DCDF" rx="11" ry="11" style="stroke:#181818;stroke-width:1.0;"/><path d="M1020.6785,60.3481 L1019.5247,65.4199 L1021.8407,65.4199 Z M1019.1844,58.1069 L1022.181,58.1069 L1025.5262,70.5 L1023.0775,70.5 L1022.3138,67.437 L1019.035,67.437 L1018.2879,70.5 L1015.8392,70.5 Z " fill="#000000"/><text fill="#000000" font-family="sans-serif" font-size="14" font-style="italic" lengthAdjust="spacing" textLength="48" x="1034.8153" y="70.291">Named</text></g><!--class g_Namespace--><g id="elem_g_Namespace"><rect codeLine="10" fill="#F1F1F1" height="32" id="g_Namespace" rx="2.5" ry="2.5" style="stroke:#181818;stroke-width:0.5;" width="218" x="464.8153" y="49"/><ellipse cx="479.8153" cy="65" fill="#A9DCDF" rx="11" ry="11" style="stroke:#181818;stroke-width:1.0;"/><path d="M479.6785,60.3481 L478.5247,65.4199 L480.8407,65.4199 Z M478.1844,58.1069 L481.181,58.1069 L484.5262,70.5 L482.0775,70.5 L481.3138,67.437 L478.035,67.437 L477.2879,70.5 L474.8392,70.5 Z " fill="#000000"/><text fill="#000000" font-family="sans-serif" font-size="14" font-style="italic" lengthAdjust="spacing" textLength="78" x="493.8153" y="70.291">Namespace</text><rect fill="none" height="16.1328" style="stroke:#181818;stroke-width:1.0;stroke-dasharray:2.0,2.0;" width="106" x="579.8153" y="46"/><text fill="#000000" font-family="sans-serif" font-size="12" font-style="italic" lengthAdjust="spacing" textLength="104" x="580.8153" y="58.6016">T extends Named</text></g><!--class Type--><g id="elem_Type"><rect codeLine="11" fill="#F1F1F1" height="32" id="Type" rx="2.5" ry="2.5" style="stroke:#181818;stroke-width:0.5;" width="65" x="349.3153" y="49"/><ellipse cx="364.3153" cy="65" fill="#A9DCDF" rx="11" ry="11" style="stroke:#181818;stroke-width:1.0;"/><path d="M364.1785,60.3481 L363.0247,65.4199 L365.3407,65.4199 Z M362.6844,58.1069 L365.681,58.1069 L369.0262,70.5 L366.5775,70.5 L365.8138,67.437 L362.535,67.437 L361.7879,70.5 L359.3392,70.5 Z " fill="#000000"/><text fill="#000000" font-family="sans-serif" font-size="14" font-style="italic" lengthAdjust="spacing" textLength="33" x="378.3153" y="70.291">Type</text></g><!--class Typed--><g id="elem_Typed"><rect codeLine="12" fill="#F1F1F1" height="32" id="Typed" rx="2.5" ry="2.5" style="stroke:#181818;stroke-width:0.5;" width="74" x="732.8153" y="49"/><ellipse cx="747.8153" cy="65" fill="#A9DCDF" rx="11" ry="11" style="stroke:#181818;stroke-width:1.0;"/><path d="M747.6785,60.3481 L746.5247,65.4199 L748.8407,65.4199 Z M746.1844,58.1069 L749.181,58.1069 L752.5262,70.5 L750.0775,70.5 L749.3138,67.437 L746.035,67.437 L745.2879,70.5 L742.8392,70.5 Z " fill="#000000"/><text fill="#000000" font-family="sans-serif" font-size="14" font-style="italic" lengthAdjust="spacing" textLength="42" x="761.8153" y="70.291">Typed</text></g><!--class ModuleDefinition--><g id="elem_ModuleDefinition"><rect codeLine="17" fill="#F1F1F1" height="32" id="ModuleDefinition" rx="2.5" ry="2.5" style="stroke:#181818;stroke-width:0.5;" width="150" x="76.8153" y="49"/><ellipse cx="91.8153" cy="65" fill="#A9DCDF" rx="11" ry="11" style="stroke:#181818;stroke-width:1.0;"/><path d="M91.6785,60.3481 L90.5247,65.4199 L92.8407,65.4199 Z M90.1844,58.1069 L93.181,58.1069 L96.5262,70.5 L94.0775,70.5 L93.3138,67.437 L90.035,67.437 L89.2879,70.5 L86.8392,70.5 Z " fill="#000000"/><text fill="#000000" font-family="sans-serif" font-size="14" font-style="italic" lengthAdjust="spacing" textLength="118" x="105.8153" y="70.291">ModuleDefinition</text></g><!--class Entity--><g id="elem_Entity"><rect codeLine="21" fill="#F1F1F1" height="40" id="Entity" rx="2.5" ry="2.5" style="stroke:#181818;stroke-width:0.5;" width="70" x="199.8153" y="431.49"/><ellipse cx="214.8153" cy="447.49" fill="#ADD1B2" rx="11" ry="11" style="stroke:#181818;stroke-width:1.0;"/><path d="M217.2884,453.6331 Q216.7073,453.9319 216.0682,454.0813 Q215.429,454.2307 214.7235,454.2307 Q212.2166,454.2307 210.8968,452.5789 Q209.577,450.927 209.577,447.8059 Q209.577,444.6765 210.8968,443.0247 Q212.2166,441.3728 214.7235,441.3728 Q215.429,441.3728 216.0765,441.5222 Q216.724,441.6716 217.2884,441.9705 L217.2884,444.6931 Q216.6575,444.1121 216.064,443.8423 Q215.4705,443.5725 214.8397,443.5725 Q213.4949,443.5725 212.8101,444.6392 Q212.1253,445.7058 212.1253,447.8059 Q212.1253,449.8977 212.8101,450.9644 Q213.4949,452.031 214.8397,452.031 Q215.4705,452.031 216.064,451.7612 Q216.6575,451.4915 217.2884,450.9104 Z " fill="#000000"/><text fill="#000000" font-family="sans-serif" font-size="14" lengthAdjust="spacing" textLength="38" x="228.8153" y="452.781">Entity</text><line style="stroke:#181818;stroke-width:0.5;" x1="200.8153" x2="268.8153" y1="463.49" y2="463.49"/></g><!--class Event--><g id="elem_Event"><rect codeLine="22" fill="#F1F1F1" height="40" id="Event" rx="2.5" ry="2.5" style="stroke:#181818;stroke-width:0.5;" width="69" x="115.3153" y="322.25"/><ellipse cx="130.3153" cy="338.25" fill="#ADD1B2" rx="11" ry="11" style="stroke:#181818;stroke-width:1.0;"/><path d="M132.7884,344.3931 Q132.2073,344.6919 131.5682,344.8413 Q130.929,344.9907 130.2235,344.9907 Q127.7166,344.9907 126.3968,343.3389 Q125.077,341.687 125.077,338.5659 Q125.077,335.4365 126.3968,333.7847 Q127.7166,332.1328 130.2235,332.1328 Q130.929,332.1328 131.5765,332.2822 Q132.224,332.4316 132.7884,332.7305 L132.7884,335.4531 Q132.1575,334.8721 131.564,334.6023 Q130.9705,334.3325 130.3397,334.3325 Q128.9949,334.3325 128.3101,335.3992 Q127.6253,336.4658 127.6253,338.5659 Q127.6253,340.6577 128.3101,341.7244 Q128.9949,342.791 130.3397,342.791 Q130.9705,342.791 131.564,342.5212 Q132.1575,342.2515 132.7884,341.6704 Z " fill="#000000"/><text fill="#000000" font-family="sans-serif" font-size="14" lengthAdjust="spacing" textLength="37" x="144.3153" y="343.541">Event</text><line style="stroke:#181818;stroke-width:0.5;" x1="116.3153" x2="183.3153" y1="354.25" y2="354.25"/></g><!--class g_Structure--><g id="elem_g_Structure"><rect codeLine="23" fill="#F1F1F1" height="40" id="g_Structure" rx="2.5" ry="2.5" style="stroke:#181818;stroke-width:0.5;" width="165" x="142.3153" y="213"/><ellipse cx="157.3153" cy="229" fill="#ADD1B2" rx="11" ry="11" style="stroke:#181818;stroke-width:1.0;"/><path d="M159.7884,235.1431 Q159.2073,235.4419 158.5682,235.5913 Q157.929,235.7407 157.2235,235.7407 Q154.7166,235.7407 153.3968,234.0889 Q152.077,232.437 152.077,229.3159 Q152.077,226.1865 153.3968,224.5347 Q154.7166,222.8828 157.2235,222.8828 Q157.929,222.8828 158.5765,223.0322 Q159.224,223.1816 159.7884,223.4805 L159.7884,226.2031 Q159.1575,225.6221 158.564,225.3523 Q157.9705,225.0825 157.3397,225.0825 Q155.9949,225.0825 155.3101,226.1492 Q154.6253,227.2158 154.6253,229.3159 Q154.6253,231.4077 155.3101,232.4744 Q155.9949,233.541 157.3397,233.541 Q157.9705,233.541 158.564,233.2712 Q159.1575,233.0015 159.7884,232.4204 Z " fill="#000000"/><text fill="#000000" font-family="sans-serif" font-size="14" lengthAdjust="spacing" textLength="63" x="171.3153" y="234.291">Structure</text><rect fill="none" height="16.1328" style="stroke:#181818;stroke-width:1.0;stroke-dasharray:2.0,2.0;" width="68" x="242.3153" y="210"/><text fill="#000000" font-family="sans-serif" font-size="12" font-style="italic" lengthAdjust="spacing" textLength="66" x="243.3153" y="222.6016">T=Member</text><line style="stroke:#181818;stroke-width:0.5;" x1="143.3153" x2="306.3153" y1="245" y2="245"/></g><!--class Member--><g id="elem_Member"><rect codeLine="24" fill="#F1F1F1" height="40" id="Member" rx="2.5" ry="2.5" style="stroke:#181818;stroke-width:0.5;" width="88" x="414.8153" y="431.49"/><ellipse cx="429.8153" cy="447.49" fill="#A9DCDF" rx="11" ry="11" style="stroke:#181818;stroke-width:1.0;"/><path d="M429.6785,442.8381 L428.5247,447.9099 L430.8407,447.9099 Z M428.1844,440.5969 L431.181,440.5969 L434.5262,452.99 L432.0775,452.99 L431.3138,449.927 L428.035,449.927 L427.2879,452.99 L424.8392,452.99 Z " fill="#000000"/><text fill="#000000" font-family="sans-serif" font-size="14" font-style="italic" lengthAdjust="spacing" textLength="56" x="443.8153" y="452.781">Member</text><line style="stroke:#181818;stroke-width:0.5;" x1="415.8153" x2="501.8153" y1="463.49" y2="463.49"/></g><!--class MemberGroup--><g id="elem_MemberGroup"><rect codeLine="25" fill="#F1F1F1" height="40" id="MemberGroup" rx="2.5" ry="2.5" style="stroke:#181818;stroke-width:0.5;" width="131" x="285.3153" y="322.25"/><ellipse cx="300.3153" cy="338.25" fill="#ADD1B2" rx="11" ry="11" style="stroke:#181818;stroke-width:1.0;"/><path d="M302.7884,344.3931 Q302.2073,344.6919 301.5682,344.8413 Q300.929,344.9907 300.2235,344.9907 Q297.7166,344.9907 296.3968,343.3389 Q295.077,341.687 295.077,338.5659 Q295.077,335.4365 296.3968,333.7847 Q297.7166,332.1328 300.2235,332.1328 Q300.929,332.1328 301.5765,332.2822 Q302.224,332.4316 302.7884,332.7305 L302.7884,335.4531 Q302.1575,334.8721 301.564,334.6023 Q300.9705,334.3325 300.3397,334.3325 Q298.9949,334.3325 298.3101,335.3992 Q297.6253,336.4658 297.6253,338.5659 Q297.6253,340.6577 298.3101,341.7244 Q298.9949,342.791 300.3397,342.791 Q300.9705,342.791 301.564,342.5212 Q302.1575,342.2515 302.7884,341.6704 Z " fill="#000000"/><text fill="#000000" font-family="sans-serif" font-size="14" lengthAdjust="spacing" textLength="99" x="314.3153" y="343.541">MemberGroup</text><line style="stroke:#181818;stroke-width:0.5;" x1="286.3153" x2="415.3153" y1="354.25" y2="354.25"/></g><!--class Annotated--><g id="elem_Annotated"><rect fill="#F1F1F1" height="40" id="Annotated" rx="2.5" ry="2.5" style="stroke:#181818;stroke-width:0.5;" width="104" x="356.8153" y="213"/><ellipse cx="371.8153" cy="229" fill="#ADD1B2" rx="11" ry="11" style="stroke:#181818;stroke-width:1.0;"/><path d="M374.2884,235.1431 Q373.7073,235.4419 373.0682,235.5913 Q372.429,235.7407 371.7235,235.7407 Q369.2166,235.7407 367.8968,234.0889 Q366.577,232.437 366.577,229.3159 Q366.577,226.1865 367.8968,224.5347 Q369.2166,222.8828 371.7235,222.8828 Q372.429,222.8828 373.0765,223.0322 Q373.724,223.1816 374.2884,223.4805 L374.2884,226.2031 Q373.6575,225.6221 373.064,225.3523 Q372.4705,225.0825 371.8397,225.0825 Q370.4949,225.0825 369.8101,226.1492 Q369.1253,227.2158 369.1253,229.3159 Q369.1253,231.4077 369.8101,232.4744 Q370.4949,233.541 371.8397,233.541 Q372.4705,233.541 373.064,233.2712 Q373.6575,233.0015 374.2884,232.4204 Z " fill="#000000"/><text fill="#000000" font-family="sans-serif" font-size="14" lengthAdjust="spacing" textLength="72" x="385.8153" y="234.291">Annotated</text><line style="stroke:#181818;stroke-width:0.5;" x1="357.8153" x2="459.8153" y1="245" y2="245"/></g><!--class MemberDefinition--><g id="elem_MemberDefinition"><rect codeLine="43" fill="#F1F1F1" height="40" id="MemberDefinition" rx="2.5" ry="2.5" style="stroke:#181818;stroke-width:0.5;" width="155" x="572.3153" y="540.74"/><ellipse cx="587.3153" cy="556.74" fill="#ADD1B2" rx="11" ry="11" style="stroke:#181818;stroke-width:1.0;"/><path d="M589.7884,562.8831 Q589.2073,563.1819 588.5682,563.3313 Q587.929,563.4807 587.2235,563.4807 Q584.7166,563.4807 583.3968,561.8289 Q582.077,560.177 582.077,557.0559 Q582.077,553.9265 583.3968,552.2747 Q584.7166,550.6228 587.2235,550.6228 Q587.929,550.6228 588.5765,550.7722 Q589.224,550.9216 589.7884,551.2205 L589.7884,553.9431 Q589.1575,553.3621 588.564,553.0923 Q587.9705,552.8225 587.3397,552.8225 Q585.9949,552.8225 585.3101,553.8892 Q584.6253,554.9558 584.6253,557.0559 Q584.6253,559.1477 585.3101,560.2144 Q585.9949,561.281 587.3397,561.281 Q587.9705,561.281 588.564,561.0112 Q589.1575,560.7415 589.7884,560.1604 Z " fill="#000000"/><text fill="#000000" font-family="sans-serif" font-size="14" lengthAdjust="spacing" textLength="123" x="601.3153" y="562.031">MemberDefinition</text><line style="stroke:#181818;stroke-width:0.5;" x1="573.3153" x2="726.3153" y1="572.74" y2="572.74"/></g><!--class g_Property--><g id="elem_g_Property"><rect codeLine="48" fill="#F1F1F1" height="40" id="g_Property" rx="2.5" ry="2.5" style="stroke:#181818;stroke-width:0.5;" width="137" x="510.3153" y="213"/><ellipse cx="525.3153" cy="229" fill="#ADD1B2" rx="11" ry="11" style="stroke:#181818;stroke-width:1.0;"/><path d="M527.7884,235.1431 Q527.2073,235.4419 526.5682,235.5913 Q525.929,235.7407 525.2235,235.7407 Q522.7166,235.7407 521.3968,234.0889 Q520.077,232.437 520.077,229.3159 Q520.077,226.1865 521.3968,224.5347 Q522.7166,222.8828 525.2235,222.8828 Q525.929,222.8828 526.5765,223.0322 Q527.224,223.1816 527.7884,223.4805 L527.7884,226.2031 Q527.1575,225.6221 526.564,225.3523 Q525.9705,225.0825 525.3397,225.0825 Q523.9949,225.0825 523.3101,226.1492 Q522.6253,227.2158 522.6253,229.3159 Q522.6253,231.4077 523.3101,232.4744 Q523.9949,233.541 525.3397,233.541 Q525.9705,233.541 526.564,233.2712 Q527.1575,233.0015 527.7884,232.4204 Z " fill="#000000"/><text fill="#000000" font-family="sans-serif" font-size="14" lengthAdjust="spacing" textLength="58" x="539.3153" y="234.291">Property</text><rect fill="none" height="16.1328" style="stroke:#181818;stroke-width:1.0;stroke-dasharray:2.0,2.0;" width="45" x="605.3153" y="210"/><text fill="#000000" font-family="sans-serif" font-size="12" font-style="italic" lengthAdjust="spacing" textLength="43" x="606.3153" y="222.6016">T=Role</text><line style="stroke:#181818;stroke-width:0.5;" x1="511.3153" x2="646.3153" y1="245" y2="245"/></g><!--class Role--><g id="elem_Role"><rect codeLine="49" fill="#F1F1F1" height="56.4883" id="Role" rx="2.5" ry="2.5" style="stroke:#181818;stroke-width:0.5;" width="210" x="517.8153" y="314"/><ellipse cx="603.5653" cy="330" fill="#ADD1B2" rx="11" ry="11" style="stroke:#181818;stroke-width:1.0;"/><path d="M606.0384,336.1431 Q605.4573,336.4419 604.8182,336.5913 Q604.179,336.7407 603.4735,336.7407 Q600.9666,336.7407 599.6468,335.0889 Q598.327,333.437 598.327,330.3159 Q598.327,327.1865 599.6468,325.5347 Q600.9666,323.8828 603.4735,323.8828 Q604.179,323.8828 604.8265,324.0322 Q605.474,324.1816 606.0384,324.4805 L606.0384,327.2031 Q605.4075,326.6221 604.814,326.3523 Q604.2205,326.0825 603.5897,326.0825 Q602.2449,326.0825 601.5601,327.1492 Q600.8753,328.2158 600.8753,330.3159 Q600.8753,332.4077 601.5601,333.4744 Q602.2449,334.541 603.5897,334.541 Q604.2205,334.541 604.814,334.2712 Q605.4075,334.0015 606.0384,333.4204 Z " fill="#000000"/><text fill="#000000" font-family="sans-serif" font-size="14" lengthAdjust="spacing" textLength="30" x="624.0653" y="335.291">Role</text><line style="stroke:#181818;stroke-width:0.5;" x1="518.8153" x2="726.8153" y1="346" y2="346"/><ellipse cx="528.8153" cy="359.7441" fill="none" rx="3" ry="3" style="stroke:#038048;stroke-width:1.0;"/><text fill="#000000" font-family="sans-serif" font-size="14" lengthAdjust="spacing" textLength="184" x="537.8153" y="363.5352">is_identity: boolean = false</text></g><!--class MemberReference--><g id="elem_MemberReference"><rect codeLine="59" fill="#F1F1F1" height="56.4883" id="MemberReference" rx="2.5" ry="2.5" style="stroke:#181818;stroke-width:0.5;" width="156" x="365.8153" y="532.49"/><ellipse cx="380.8153" cy="548.49" fill="#ADD1B2" rx="11" ry="11" style="stroke:#181818;stroke-width:1.0;"/><path d="M383.2884,554.6331 Q382.7073,554.9319 382.0682,555.0813 Q381.429,555.2307 380.7235,555.2307 Q378.2166,555.2307 376.8968,553.5789 Q375.577,551.927 375.577,548.8059 Q375.577,545.6765 376.8968,544.0247 Q378.2166,542.3728 380.7235,542.3728 Q381.429,542.3728 382.0765,542.5222 Q382.724,542.6716 383.2884,542.9705 L383.2884,545.6931 Q382.6575,545.1121 382.064,544.8423 Q381.4705,544.5725 380.8397,544.5725 Q379.4949,544.5725 378.8101,545.6392 Q378.1253,546.7058 378.1253,548.8059 Q378.1253,550.8977 378.8101,551.9644 Q379.4949,553.031 380.8397,553.031 Q381.4705,553.031 382.064,552.7612 Q382.6575,552.4915 383.2884,551.9104 Z " fill="#000000"/><text fill="#000000" font-family="sans-serif" font-size="14" lengthAdjust="spacing" textLength="124" x="394.8153" y="553.781">MemberReference</text><line style="stroke:#181818;stroke-width:0.5;" x1="366.8153" x2="520.8153" y1="564.49" y2="564.49"/><text fill="#000000" font-family="sans-serif" font-size="14" lengthAdjust="spacing" textLength="65" x="371.8153" y="582.0252">role: Role</text></g><!--reverse link Type to g_Structure--><g id="link_Type_g_Structure"><path codeLine="27" d="M361.4657,96.2601 C350.5257,112.5401 344.8153,121 344.8153,121 C344.8153,121 280.0953,180.87 245.7153,212.67 " fill="none" id="Type-backto-g_Structure" style="stroke:#181818;stroke-width:1.0;"/><polygon fill="none" points="371.5053,81.32,356.4856,92.9136,366.4457,99.6066,371.5053,81.32" style="stroke:#181818;stroke-width:1.0;"/></g><!--reverse link ModuleDefinition to g_Structure--><g id="link_ModuleDefinition_g_Structure"><path codeLine="28" d="M173.1668,95.8977 C186.4868,114.5477 196.8153,129 196.8153,129 C196.8153,129 211.4353,182.79 219.5453,212.63 " fill="none" id="ModuleDefinition-backto-g_Structure" style="stroke:#181818;stroke-width:1.0;"/><polygon fill="none" points="162.7053,81.25,168.2842,99.3849,178.0494,92.4106,162.7053,81.25" style="stroke:#181818;stroke-width:1.0;"/></g><!--reverse link g_Namespace to g_Structure--><g id="link_g_Namespace_g_Structure"><path codeLine="29" d="M519.4833,88.3047 C479.8433,104.5747 439.8153,121 439.8153,121 C439.8153,121 363.8153,146 363.8153,146 C363.8153,146 331.8153,154 331.8153,154 C331.8153,154 283.2353,189.42 251.5353,212.52 " fill="none" id="g_Namespace-backto-g_Structure" style="stroke:#181818;stroke-width:1.0;"/><polygon fill="none" points="536.1353,81.47,517.2051,82.754,521.7616,93.8553,536.1353,81.47" style="stroke:#181818;stroke-width:1.0;"/></g><!--link g_Structure to Member--><g id="link_g_Structure_Member"><path codeLine="30" d="M277.3753,253.47 C341.3153,277.15 440.8153,314 440.8153,314 C440.8153,314 450.5312,387.6515 455.4912,425.2815 " fill="none" id="g_Structure-to-Member" style="stroke:#181818;stroke-width:1.0;stroke-dasharray:7.0,7.0;"/><polygon fill="#181818" points="456.2753,431.23,459.0648,421.7845,455.6219,426.2729,451.1334,422.8299,456.2753,431.23" style="stroke:#181818;stroke-width:1.0;"/></g><!--link g_Structure to MemberGroup--><g id="link_g_Structure_MemberGroup"><path codeLine="31" d="M256.7717,261.1998 C279.6017,280.6398 300.8262,298.7011 323.5962,318.0811 " fill="none" id="g_Structure-MemberGroup" style="stroke:#181818;stroke-width:1.0;"/><polygon fill="#181818" points="247.6353,253.42,249.6102,260.3554,256.7717,261.1998,254.7968,254.2644,247.6353,253.42" style="stroke:#181818;stroke-width:1.0;"/><polygon fill="#181818" points="328.1653,321.97,323.9042,313.0906,324.3577,318.7293,318.719,319.1828,328.1653,321.97" style="stroke:#181818;stroke-width:1.0;"/><text fill="#000000" font-family="sans-serif" font-size="13" lengthAdjust="spacing" textLength="48" x="199.3919" y="273.3578">+owner</text><text fill="#000000" font-family="sans-serif" font-size="13" lengthAdjust="spacing" textLength="8" x="199.3919" y="288.6683">1</text><text fill="#000000" font-family="sans-serif" font-size="13" lengthAdjust="spacing" textLength="54" x="262.0631" y="296.0146">+groups</text><text fill="#000000" font-family="sans-serif" font-size="13" lengthAdjust="spacing" textLength="22" x="294.0631" y="311.3251">0..*</text></g><!--reverse link g_Structure to Entity--><g id="link_g_Structure_Entity"><path codeLine="33" d="M226.5347,271.2009 C228.4247,312.1709 232.0153,389.8 233.9153,431.01 " fill="none" id="g_Structure-backto-Entity" style="stroke:#181818;stroke-width:1.0;"/><polygon fill="none" points="225.7053,253.22,220.5411,271.4774,232.5284,270.9244,225.7053,253.22" style="stroke:#181818;stroke-width:1.0;"/></g><!--link Entity to Member--><g id="link_Entity_Member"><path codeLine="34" d="M281.9653,451.49 C301.3253,451.49 309.4853,451.49 309.4853,451.49 C309.4853,451.49 384.1453,451.49 384.1453,451.49 C384.1453,451.49 392.4353,451.49 408.5153,451.49 " fill="none" id="Entity-Member" style="stroke:#181818;stroke-width:1.0;"/><polygon fill="#181818" points="269.9653,451.49,275.9653,455.49,281.9653,451.49,275.9653,447.49,269.9653,451.49" style="stroke:#181818;stroke-width:1.0;"/><polygon fill="#181818" points="414.5153,451.49,405.5153,447.49,409.5153,451.49,405.5153,455.49,414.5153,451.49" style="stroke:#181818;stroke-width:1.0;"/><text fill="#000000" font-family="sans-serif" font-size="13" lengthAdjust="spacing" textLength="58" x="348.9562" y="432.5435">+identity</text><text fill="#000000" font-family="sans-serif" font-size="13" lengthAdjust="spacing" textLength="8" x="398.9562" y="447.8541">1</text></g><!--reverse link g_Structure to Event--><g id="link_g_Structure_Event"><path codeLine="36" d="M201.088,267.9297 C187.518,287.3297 176.9753,302.41 163.3653,321.88 " fill="none" id="g_Structure-backto-Event" style="stroke:#181818;stroke-width:1.0;"/><polygon fill="none" points="211.4053,253.18,196.1715,264.4907,206.0046,271.3688,211.4053,253.18" style="stroke:#181818;stroke-width:1.0;"/></g><!--link Event to Entity--><g id="link_Event_Entity"><path codeLine="37" d="M165.0153,362.42 C180.3853,381.82 200.3086,406.9476 215.7386,426.4176 " fill="none" id="Event-to-Entity" style="stroke:#181818;stroke-width:1.0;"/><polygon fill="#181818" points="219.4653,431.12,217.0102,421.582,216.3597,427.2014,210.7404,426.5509,219.4653,431.12" style="stroke:#181818;stroke-width:1.0;"/><text fill="#000000" font-family="sans-serif" font-size="13" lengthAdjust="spacing" textLength="52" x="157.9031" y="405.5809">+source</text><text fill="#000000" font-family="sans-serif" font-size="13" lengthAdjust="spacing" textLength="8" x="201.9031" y="420.8914">1</text></g><!--reverse link Named to Member--><g id="link_Named_Member"><path codeLine="39" d="M1057.0774,98.2444 C1063.5874,116.8944 1067.8153,129 1067.8153,129 C1067.8153,129 1067.8153,253 1067.8153,253 C1067.8153,253 752.8153,370.49 752.8153,370.49 C752.8153,370.49 585.2753,416.08 503.1453,438.43 " fill="none" id="Named-backto-Member" style="stroke:#181818;stroke-width:1.0;"/><polygon fill="none" points="1051.1453,81.25,1051.4126,100.2218,1062.7422,96.2671,1051.1453,81.25" style="stroke:#181818;stroke-width:1.0;"/></g><!--reverse link Annotated to MemberGroup--><g id="link_Annotated_MemberGroup"><path codeLine="40" d="M389.8837,269.0135 C379.3937,288.4135 371.8153,302.41 361.2953,321.88 " fill="none" id="Annotated-backto-MemberGroup" style="stroke:#181818;stroke-width:1.0;"/><polygon fill="none" points="398.4453,253.18,384.6059,266.1597,395.1616,271.8674,398.4453,253.18" style="stroke:#181818;stroke-width:1.0;"/></g><!--link MemberGroup to Member--><g id="link_MemberGroup_Member"><path codeLine="41" d="M378.8909,371.1248 C398.4609,390.5548 415.6285,407.6016 435.1485,426.9916 " fill="none" id="MemberGroup-Member" style="stroke:#181818;stroke-width:1.0;"/><polygon fill="none" points="370.3753,362.67,371.8148,369.7359,378.8909,371.1248,377.4514,364.0588,370.3753,362.67" style="stroke:#181818;stroke-width:1.0;"/><polygon fill="#181818" points="439.4053,431.22,435.839,422.0395,435.8579,427.6963,430.2011,427.7152,439.4053,431.22" style="stroke:#181818;stroke-width:1.0;"/><text fill="#000000" font-family="sans-serif" font-size="13" lengthAdjust="spacing" textLength="68" x="442.9616" y="405.267">+members</text><text fill="#000000" font-family="sans-serif" font-size="13" lengthAdjust="spacing" textLength="22" x="488.9616" y="420.5775">1..*</text></g><!--reverse link Definition to MemberDefinition--><g id="link_Definition_MemberDefinition"><path codeLine="44" d="M928.8806,95.7831 C959.3306,136.8831 1029.8153,232 1029.8153,232 C1029.8153,232 1029.8153,232 1029.8153,452.49 C1029.8153,452.49 965.8153,471.49 965.8153,471.49 C965.8153,471.49 812.6153,514.27 719.5553,540.26 " fill="none" id="Definition-backto-MemberDefinition" style="stroke:#181818;stroke-width:1.0;"/><polygon fill="none" points="918.1653,81.32,924.0596,99.3549,933.7016,92.2113,918.1653,81.32" style="stroke:#181818;stroke-width:1.0;"/></g><!--reverse link Member to MemberDefinition--><g id="link_Member_MemberDefinition"><path codeLine="45" d="M509.0998,480.7237 C543.6098,500.1037 580.6353,520.89 615.1653,540.28 " fill="none" id="Member-backto-MemberDefinition" style="stroke:#181818;stroke-width:1.0;"/><polygon fill="none" points="493.4053,471.91,506.1619,485.9552,512.0377,475.4922,493.4053,471.91" style="stroke:#181818;stroke-width:1.0;"/></g><!--reverse link Typed to MemberDefinition--><g id="link_Typed_MemberDefinition"><path codeLine="46" d="M796.8053,94.3581 C835.9253,135.4581 927.8153,232 927.8153,232 C927.8153,232 927.8153,232 927.8153,452.49 C927.8153,452.49 780.2753,509.41 700.1553,540.31 " fill="none" id="Typed-backto-MemberDefinition" style="stroke:#181818;stroke-width:1.0;"/><polygon fill="none" points="784.3953,81.32,792.4592,98.4948,801.1513,90.2214,784.3953,81.32" style="stroke:#181818;stroke-width:1.0;"/></g><!--reverse link ModuleDefinition to g_Property--><g id="link_ModuleDefinition_g_Property"><path codeLine="53" d="M204.0429,88.6231 C241.6129,104.8931 278.8153,121 278.8153,121 C278.8153,121 485.8153,154 485.8153,154 C485.8153,154 528.2853,189.62 555.8253,212.72 " fill="none" id="ModuleDefinition-backto-g_Property" style="stroke:#181818;stroke-width:1.0;"/><polygon fill="none" points="187.5253,81.47,201.6585,94.129,206.4273,83.1172,187.5253,81.47" style="stroke:#181818;stroke-width:1.0;"/></g><!--reverse link g_Namespace to g_Property--><g id="link_g_Namespace_g_Property"><path codeLine="54" d="M574.8208,99.3117 C575.7408,129.6517 577.2253,179.33 578.2353,212.68 " fill="none" id="g_Namespace-backto-g_Property" style="stroke:#181818;stroke-width:1.0;"/><polygon fill="none" points="574.2753,81.32,568.8236,99.4936,580.8181,99.1299,574.2753,81.32" style="stroke:#181818;stroke-width:1.0;"/></g><!--link g_Property to Role--><g id="link_g_Property_Role"><path codeLine="55" d="M586.6853,253.18 C593.6053,270.05 601.4896,289.2483 609.2696,308.2283 " fill="none" id="g_Property-to-Role" style="stroke:#181818;stroke-width:1.0;stroke-dasharray:7.0,7.0;"/><polygon fill="#181818" points="611.5453,313.78,611.8329,303.9353,609.6489,309.1536,604.4306,306.9696,611.5453,313.78" style="stroke:#181818;stroke-width:1.0;"/></g><!--reverse link Definition to Role--><g id="link_Definition_Role"><path codeLine="56" d="M880.6781,94.5933 C839.8381,139.2533 735.8153,253 735.8153,253 C735.8153,253 691.3953,287.69 658.2553,313.57 " fill="none" id="Definition-backto-Role" style="stroke:#181818;stroke-width:1.0;"/><polygon fill="none" points="892.8253,81.31,876.2503,90.5443,885.1059,98.6424,892.8253,81.31" style="stroke:#181818;stroke-width:1.0;"/></g><!--reverse link Typed to Role--><g id="link_Typed_Role"><path codeLine="57" d="M753.5887,97.2891 C730.4287,141.9491 672.8153,253 672.8153,253 C672.8153,253 653.0353,287.91 638.3653,313.81 " fill="none" id="Typed-backto-Role" style="stroke:#181818;stroke-width:1.0;"/><polygon fill="none" points="761.8753,81.31,748.2623,94.527,758.9151,100.0513,761.8753,81.31" style="stroke:#181818;stroke-width:1.0;"/></g><!--reverse link Member to MemberReference--><g id="link_Member_MemberReference"><path codeLine="62" d="M453.6415,489.4864 C451.2815,506.3564 450.3153,513.29 447.6553,532.27 " fill="none" id="Member-backto-MemberReference" style="stroke:#181818;stroke-width:1.0;"/><polygon fill="none" points="456.1353,471.66,447.6993,488.6551,459.5836,490.3177,456.1353,471.66" style="stroke:#181818;stroke-width:1.0;"/></g><!--reverse link Foundation to ProductTypes--><g id="link_Foundation_ProductTypes"><path codeLine="67" d="M286.5247,79.0026 C286.2231,79.3216 289.5897,75.7606 289.277,76.0914 C284.2731,81.3841 277.8871,88.1381 271.5965,94.7912 C259.0153,108.0975 246.8153,121 246.8153,121 C246.8153,121 95.8153,154 95.8153,154 C95.8153,154 95.5728,158.7238 95.2071,165.8464 C95.1614,166.7367 95.1138,167.6646 95.0645,168.6253 C95.0522,168.8655 95.0397,169.1077 95.0272,169.352 C95.0209,169.4741 95.0146,169.5967 95.0083,169.7198 " fill="none" id="Foundation-backto-ProductTypes" style="stroke:#181818;stroke-width:1.0;stroke-dasharray:7.0,7.0;"/><polygon fill="#181818" points="290.6467,74.6427,281.557,78.4346,287.2117,78.2759,287.3703,83.9306,290.6467,74.6427" style="stroke:#181818;stroke-width:1.0;"/><text fill="#000000" font-family="sans-serif" font-size="13" lengthAdjust="spacing" textLength="56" x="206.8153" y="142.5684">&#171;import&#187;</text></g><!--reverse link Modules to ProductTypes--><g id="link_Modules_ProductTypes"><path codeLine="68" d="M20.384,111.0178 C20.3168,111.4884 21.0479,106.3701 20.9815,106.8351 C20.8486,107.7652 20.7175,108.6833 20.5886,109.5858 C20.0729,113.196 19.5928,116.5565 19.182,119.4327 C18.3603,125.185 17.8153,129 17.8153,129 C17.8153,129 17.8153,146 17.8153,146 C17.8153,146 35.7428,166.835 53.9503,187.995 C63.054,198.575 72.2278,209.2362 79.2656,217.415 C80.1453,218.4373 80.9917,219.4209 81.8003,220.3607 C82.2047,220.8305 82.5996,221.2895 82.9845,221.7368 C83.177,221.9605 83.367,222.1813 83.5544,222.3991 " fill="none" id="Modules-backto-ProductTypes" style="stroke:#181818;stroke-width:1.0;stroke-dasharray:7.0,7.0;"/><polygon fill="#181818" points="21.2324,105.0781,16,113.4221,20.5254,110.0279,23.9196,114.5533,21.2324,105.0781" style="stroke:#181818;stroke-width:1.0;"/><text fill="#000000" font-family="sans-serif" font-size="13" lengthAdjust="spacing" textLength="56" x="18.8153" y="142.5684">&#171;import&#187;</text></g><!--SRC=[ZLHDRvmm4BtpAqPSAYK29OTULXkag6bxIbEbUrmfyiBiBWhObctQhjBzxntR6Bm1r790Ojxpcw-7zMlD9LEiXHqhNmzATBpw91gXm2Z6DK78JQ87LbDpD2U984LpiXyHnaM56YLyl4cETONGeZcAIYU996bsGFXYrPcf1OUt1EZfQUqEbNO1jjEKjpHGDanhUC1zpMjxO0xznbgive3K8bHxYUiDu6-3lEhPHGfCm-5b8C3RUKvXGoqknQlaFBRqAAgkGVsV_NXsr5Maz5qHM1gR8SZvGv-vgSqf3loadOJ2-uv_64M7EqKTtpsw0aAh0p9RaAD6GZxmbNmW4nUE123hPFQd68SpWqqwNE15AvXGyho82ukXz5hyugYspMqALrbMKC1wLkgjkidpg_IYVdlOlVm4nzIN8-bHaijKVJWQBqkRTF6jkatZQlmHju4bFGyw5IqwLQBJwDVeA5ul28m-ZgeFu3tdmZ0pGn0-HMytoX4D89ciT5n9SCuatcTyjxmbMZIJ9Oh_MsARaiabAdCYbpwB1eD7GpYYMhZ_3UnpNUkNi98Lx0IXZCCTx5cZ_TZFmQz1x1-MV4-REd9WM4FQUbpS5JO_gXZolG-EYLVnZ7kaQxMC-rDqT3KcYJSqqYydxoWVOFFqyBI2-wg2FJ9hGcrlbOlR9EyaTJ3UlYjOh-jM2cMAOexPNsenxIy0]--></g></svg>