<?xml version="1.0" encoding="us-ascii" standalone="no"?><svg xmlns="http://www.w3.org/2000/svg" xmlns:xlink="http://www.w3.org/1999/xlink" contentStyleType="text/css" height="753px" preserveAspectRatio="none" style="width:1225px;height:753px;" version="1.1" viewBox="0 0 1225 753" width="1225px" zoomAndPan="magnify"><defs/><g><!--cluster Foundation--><g id="cluster_Foundation"><path d="M432.5,6 L514.5,6 A3.75,3.75 0 0 1 517,8.5 L524,28.4883 L609.5,28.4883 A2.5,2.5 0 0 1 612,30.9883 L612,102.5 A2.5,2.5 0 0 1 609.5,105 L432.5,105 A2.5,2.5 0 0 1 430,102.5 L430,8.5 A2.5,2.5 0 0 1 432.5,6 " fill="none" style="stroke:#000000;stroke-width:1.5;"/><line style="stroke:#000000;stroke-width:1.5;" x1="430" x2="524" y1="28.4883" y2="28.4883"/><text fill="#000000" font-family="sans-serif" font-size="14" font-weight="bold" lengthAdjust="spacing" textLength="81" x="434" y="21.5352">Foundation</text></g><!--cluster Annotations--><g id="cluster_Annotations"><path d="M930.5,550.98 L1019.5,550.98 A3.75,3.75 0 0 1 1022,553.48 L1029,573.4683 L1215.5,573.4683 A2.5,2.5 0 0 1 1218,575.9683 L1218,631.48 A2.5,2.5 0 0 1 1215.5,633.98 L930.5,633.98 A2.5,2.5 0 0 1 928,631.48 L928,553.48 A2.5,2.5 0 0 1 930.5,550.98 " fill="none" style="stroke:#000000;stroke-width:1.5;"/><line style="stroke:#000000;stroke-width:1.5;" x1="928" x2="1029" y1="573.4683" y2="573.4683"/><text fill="#000000" font-family="sans-serif" font-size="14" font-weight="bold" lengthAdjust="spacing" textLength="88" x="932" y="566.5152">Annotations</text></g><!--cluster ProductTypes--><g id="cluster_ProductTypes"><path d="M8.5,6 L107.5,6 A3.75,3.75 0 0 1 110,8.5 L117,28.4883 L371.5,28.4883 A2.5,2.5 0 0 1 374,30.9883 L374,102.5 A2.5,2.5 0 0 1 371.5,105 L8.5,105 A2.5,2.5 0 0 1 6,102.5 L6,8.5 A2.5,2.5 0 0 1 8.5,6 " fill="none" style="stroke:#000000;stroke-width:1.5;"/><line style="stroke:#000000;stroke-width:1.5;" x1="6" x2="117" y1="28.4883" y2="28.4883"/><text fill="#000000" font-family="sans-serif" font-size="14" font-weight="bold" lengthAdjust="spacing" textLength="98" x="10" y="21.5352">ProductTypes</text></g><!--cluster Events--><g id="cluster_Events"><path d="M332.5,170 L380.5,170 A3.75,3.75 0 0 1 383,172.5 L390,192.4883 L893.5,192.4883 A2.5,2.5 0 0 1 896,194.9883 L896,744.48 A2.5,2.5 0 0 1 893.5,746.98 L332.5,746.98 A2.5,2.5 0 0 1 330,744.48 L330,172.5 A2.5,2.5 0 0 1 332.5,170 " fill="none" style="stroke:#000000;stroke-width:1.5;"/><line style="stroke:#000000;stroke-width:1.5;" x1="330" x2="390" y1="192.4883" y2="192.4883"/><text fill="#000000" font-family="sans-serif" font-size="14" font-weight="bold" lengthAdjust="spacing" textLength="47" x="334" y="185.5352">Events</text><text fill="#000000" font-family="sans-serif" font-size="14" font-style="italic" lengthAdjust="spacing" textLength="71" x="581.5" y="208.0234">&#171;optional&#187;</text></g><!--class Definition--><g id="elem_Definition"><rect codeLine="8" fill="#F1F1F1" height="32" id="Definition" rx="2.5" ry="2.5" style="stroke:#181818;stroke-width:0.5;" width="99" x="454.5" y="49"/><ellipse cx="469.5" cy="65" fill="#A9DCDF" rx="11" ry="11" style="stroke:#181818;stroke-width:1.0;"/><path d="M469.3633,60.3481 L468.2095,65.4199 L470.5254,65.4199 Z M467.8691,58.1069 L470.8657,58.1069 L474.2109,70.5 L471.7622,70.5 L470.9985,67.437 L467.7197,67.437 L466.9727,70.5 L464.5239,70.5 Z " fill="#000000"/><text fill="#000000" font-family="sans-serif" font-size="14" font-style="italic" lengthAdjust="spacing" textLength="67" x="483.5" y="70.291">Definition</text></g><!--class Annotated--><g id="elem_Annotated"><rect codeLine="13" fill="#F1F1F1" height="32" id="Annotated" rx="2.5" ry="2.5" style="stroke:#181818;stroke-width:0.5;" width="104" x="1098" y="585.98"/><ellipse cx="1113" cy="601.98" fill="#A9DCDF" rx="11" ry="11" style="stroke:#181818;stroke-width:1.0;"/><path d="M1112.8633,597.3281 L1111.7095,602.3999 L1114.0254,602.3999 Z M1111.3691,595.0869 L1114.3657,595.0869 L1117.7109,607.48 L1115.2622,607.48 L1114.4985,604.417 L1111.2197,604.417 L1110.4727,607.48 L1108.0239,607.48 Z " fill="#000000"/><text fill="#000000" font-family="sans-serif" font-size="14" font-style="italic" lengthAdjust="spacing" textLength="72" x="1127" y="607.271">Annotated</text></g><!--class Constraint--><g id="elem_Constraint"><rect codeLine="14" fill="#F1F1F1" height="32" id="Constraint" rx="2.5" ry="2.5" style="stroke:#181818;stroke-width:0.5;" width="104" x="944" y="585.98"/><ellipse cx="959" cy="601.98" fill="#A9DCDF" rx="11" ry="11" style="stroke:#181818;stroke-width:1.0;"/><path d="M958.8633,597.3281 L957.7095,602.3999 L960.0254,602.3999 Z M957.3691,595.0869 L960.3657,595.0869 L963.7109,607.48 L961.2622,607.48 L960.4985,604.417 L957.2197,604.417 L956.4727,607.48 L954.0239,607.48 Z " fill="#000000"/><text fill="#000000" font-family="sans-serif" font-size="14" font-style="italic" lengthAdjust="spacing" textLength="72" x="973" y="607.271">Constraint</text></g><!--class Entity--><g id="elem_Entity"><rect codeLine="19" fill="#F1F1F1" height="32" id="Entity" rx="2.5" ry="2.5" style="stroke:#181818;stroke-width:0.5;" width="70" x="246" y="49"/><ellipse cx="261" cy="65" fill="#ADD1B2" rx="11" ry="11" style="stroke:#181818;stroke-width:1.0;"/><path d="M263.4731,71.1431 Q262.8921,71.4419 262.2529,71.5913 Q261.6138,71.7407 260.9082,71.7407 Q258.4014,71.7407 257.0815,70.0889 Q255.7617,68.437 255.7617,65.3159 Q255.7617,62.1865 257.0815,60.5347 Q258.4014,58.8828 260.9082,58.8828 Q261.6138,58.8828 262.2612,59.0322 Q262.9087,59.1816 263.4731,59.4805 L263.4731,62.2031 Q262.8423,61.6221 262.2488,61.3523 Q261.6553,61.0825 261.0244,61.0825 Q259.6797,61.0825 258.9949,62.1492 Q258.3101,63.2158 258.3101,65.3159 Q258.3101,67.4077 258.9949,68.4744 Q259.6797,69.541 261.0244,69.541 Q261.6553,69.541 262.2488,69.2712 Q262.8423,69.0015 263.4731,68.4204 Z " fill="#000000"/><text fill="#000000" font-family="sans-serif" font-size="14" lengthAdjust="spacing" textLength="38" x="275" y="70.291">Entity</text></g><!--class g_Structure--><g id="elem_g_Structure"><rect codeLine="20" fill="#F1F1F1" height="32" id="g_Structure" rx="2.5" ry="2.5" style="stroke:#181818;stroke-width:0.5;" width="165" x="30.5" y="49"/><ellipse cx="45.5" cy="65" fill="#ADD1B2" rx="11" ry="11" style="stroke:#181818;stroke-width:1.0;"/><path d="M47.9731,71.1431 Q47.3921,71.4419 46.7529,71.5913 Q46.1138,71.7407 45.4082,71.7407 Q42.9014,71.7407 41.5815,70.0889 Q40.2617,68.437 40.2617,65.3159 Q40.2617,62.1865 41.5815,60.5347 Q42.9014,58.8828 45.4082,58.8828 Q46.1138,58.8828 46.7612,59.0322 Q47.4087,59.1816 47.9731,59.4805 L47.9731,62.2031 Q47.3423,61.6221 46.7488,61.3523 Q46.1553,61.0825 45.5244,61.0825 Q44.1797,61.0825 43.4949,62.1492 Q42.8101,63.2158 42.8101,65.3159 Q42.8101,67.4077 43.4949,68.4744 Q44.1797,69.541 45.5244,69.541 Q46.1553,69.541 46.7488,69.2712 Q47.3423,69.0015 47.9731,68.4204 Z " fill="#000000"/><text fill="#000000" font-family="sans-serif" font-size="14" lengthAdjust="spacing" textLength="63" x="59.5" y="70.291">Structure</text><rect fill="none" height="16.1328" style="stroke:#181818;stroke-width:1.0;stroke-dasharray:2.0,2.0;" width="68" x="130.5" y="46"/><text fill="#000000" font-family="sans-serif" font-size="12" font-style="italic" lengthAdjust="spacing" textLength="66" x="131.5" y="58.6016">T=Member</text></g><!--class Event--><g id="elem_Event"><rect codeLine="24" fill="#F1F1F1" height="40" id="Event" rx="2.5" ry="2.5" style="stroke:#181818;stroke-width:0.5;" width="69" x="387.5" y="682.98"/><ellipse cx="402.5" cy="698.98" fill="#ADD1B2" rx="11" ry="11" style="stroke:#181818;stroke-width:1.0;"/><path d="M404.9731,705.1231 Q404.3921,705.4219 403.7529,705.5713 Q403.1138,705.7207 402.4082,705.7207 Q399.9014,705.7207 398.5815,704.0689 Q397.2617,702.417 397.2617,699.2959 Q397.2617,696.1665 398.5815,694.5147 Q399.9014,692.8628 402.4082,692.8628 Q403.1138,692.8628 403.7612,693.0122 Q404.4087,693.1616 404.9731,693.4605 L404.9731,696.1831 Q404.3423,695.6021 403.7488,695.3323 Q403.1553,695.0625 402.5244,695.0625 Q401.1797,695.0625 400.4949,696.1292 Q399.8101,697.1958 399.8101,699.2959 Q399.8101,701.3877 400.4949,702.4544 Q401.1797,703.521 402.5244,703.521 Q403.1553,703.521 403.7488,703.2512 Q404.3423,702.9815 404.9731,702.4004 Z " fill="#000000"/><text fill="#000000" font-family="sans-serif" font-size="14" lengthAdjust="spacing" textLength="37" x="416.5" y="704.271">Event</text><line style="stroke:#181818;stroke-width:0.5;" x1="388.5" x2="455.5" y1="714.98" y2="714.98"/></g><!--class EventExpression--><g id="elem_EventExpression"><rect codeLine="28" fill="#F1F1F1" height="40" id="EventExpression" rx="2.5" ry="2.5" style="stroke:#181818;stroke-width:0.5;" width="145" x="510.5" y="463.98"/><ellipse cx="525.5" cy="479.98" fill="#A9DCDF" rx="11" ry="11" style="stroke:#181818;stroke-width:1.0;"/><path d="M525.3633,475.3281 L524.2095,480.3999 L526.5254,480.3999 Z M523.8691,473.0869 L526.8657,473.0869 L530.2109,485.48 L527.7622,485.48 L526.9985,482.417 L523.7197,482.417 L522.9727,485.48 L520.5239,485.48 Z " fill="#000000"/><text fill="#000000" font-family="sans-serif" font-size="14" font-style="italic" lengthAdjust="spacing" textLength="113" x="539.5" y="485.271">EventExpression</text><line style="stroke:#181818;stroke-width:0.5;" x1="511.5" x2="654.5" y1="495.98" y2="495.98"/></g><!--class Messaging--><g id="elem_Messaging"><rect codeLine="31" fill="#F1F1F1" height="72.9766" id="Messaging" rx="2.5" ry="2.5" style="stroke:#181818;stroke-width:0.5;" width="211" x="660.5" y="229"/><ellipse cx="725.25" cy="245" fill="#ADD1B2" rx="11" ry="11" style="stroke:#181818;stroke-width:1.0;"/><path d="M727.7231,251.1431 Q727.1421,251.4419 726.5029,251.5913 Q725.8638,251.7407 725.1582,251.7407 Q722.6514,251.7407 721.3315,250.0889 Q720.0117,248.437 720.0117,245.3159 Q720.0117,242.1865 721.3315,240.5347 Q722.6514,238.8828 725.1582,238.8828 Q725.8638,238.8828 726.5112,239.0322 Q727.1587,239.1816 727.7231,239.4805 L727.7231,242.2031 Q727.0923,241.6221 726.4988,241.3523 Q725.9053,241.0825 725.2744,241.0825 Q723.9297,241.0825 723.2449,242.1492 Q722.5601,243.2158 722.5601,245.3159 Q722.5601,247.4077 723.2449,248.4744 Q723.9297,249.541 725.2744,249.541 Q725.9053,249.541 726.4988,249.2712 Q727.0923,249.0015 727.7231,248.4204 Z " fill="#000000"/><text fill="#000000" font-family="sans-serif" font-size="14" lengthAdjust="spacing" textLength="73" x="745.75" y="250.291">Messaging</text><line style="stroke:#181818;stroke-width:0.5;" x1="661.5" x2="870.5" y1="261" y2="261"/><text fill="#000000" font-family="sans-serif" font-size="14" lengthAdjust="spacing" textLength="172" x="666.5" y="278.5352">accepts: EventExpression</text><text fill="#000000" font-family="sans-serif" font-size="14" lengthAdjust="spacing" textLength="199" x="666.5" y="295.0234">signals: 0..1 EventExpression</text></g><!--class One--><g id="elem_One"><rect codeLine="40" fill="#F1F1F1" height="40" id="One" rx="2.5" ry="2.5" style="stroke:#181818;stroke-width:0.5;" width="60" x="488" y="581.98"/><ellipse cx="503" cy="597.98" fill="#ADD1B2" rx="11" ry="11" style="stroke:#181818;stroke-width:1.0;"/><path d="M505.4731,604.1231 Q504.8921,604.4219 504.2529,604.5713 Q503.6138,604.7207 502.9082,604.7207 Q500.4014,604.7207 499.0815,603.0689 Q497.7617,601.417 497.7617,598.2959 Q497.7617,595.1665 499.0815,593.5147 Q500.4014,591.8628 502.9082,591.8628 Q503.6138,591.8628 504.2612,592.0122 Q504.9087,592.1616 505.4731,592.4605 L505.4731,595.1831 Q504.8423,594.6021 504.2488,594.3323 Q503.6553,594.0625 503.0244,594.0625 Q501.6797,594.0625 500.9949,595.1292 Q500.3101,596.1958 500.3101,598.2959 Q500.3101,600.3877 500.9949,601.4544 Q501.6797,602.521 503.0244,602.521 Q503.6553,602.521 504.2488,602.2512 Q504.8423,601.9815 505.4731,601.4004 Z " fill="#000000"/><text fill="#000000" font-family="sans-serif" font-size="14" lengthAdjust="spacing" textLength="28" x="517" y="603.271">One</text><line style="stroke:#181818;stroke-width:0.5;" x1="489" x2="547" y1="613.98" y2="613.98"/></g><!--class CompoundEventExpression--><g id="elem_CompoundEventExpression"><rect codeLine="44" fill="#F1F1F1" height="40" id="CompoundEventExpression" rx="2.5" ry="2.5" style="stroke:#181818;stroke-width:0.5;" width="222" x="388" y="245.49"/><ellipse cx="403" cy="261.49" fill="#A9DCDF" rx="11" ry="11" style="stroke:#181818;stroke-width:1.0;"/><path d="M402.8633,256.8381 L401.7095,261.9099 L404.0254,261.9099 Z M401.3691,254.5969 L404.3657,254.5969 L407.7109,266.99 L405.2622,266.99 L404.4985,263.927 L401.2197,263.927 L400.4727,266.99 L398.0239,266.99 Z " fill="#000000"/><text fill="#000000" font-family="sans-serif" font-size="14" font-style="italic" lengthAdjust="spacing" textLength="190" x="417" y="266.781">CompoundEventExpression</text><line style="stroke:#181818;stroke-width:0.5;" x1="389" x2="609" y1="277.49" y2="277.49"/></g><!--class Sequence--><g id="elem_Sequence"><rect codeLine="47" fill="#F1F1F1" height="40" id="Sequence" rx="2.5" ry="2.5" style="stroke:#181818;stroke-width:0.5;" width="98" x="388" y="362.98"/><ellipse cx="403" cy="378.98" fill="#ADD1B2" rx="11" ry="11" style="stroke:#181818;stroke-width:1.0;"/><path d="M405.4731,385.1231 Q404.8921,385.4219 404.2529,385.5713 Q403.6138,385.7207 402.9082,385.7207 Q400.4014,385.7207 399.0815,384.0689 Q397.7617,382.417 397.7617,379.2959 Q397.7617,376.1665 399.0815,374.5147 Q400.4014,372.8628 402.9082,372.8628 Q403.6138,372.8628 404.2612,373.0122 Q404.9087,373.1616 405.4731,373.4605 L405.4731,376.1831 Q404.8423,375.6021 404.2488,375.3323 Q403.6553,375.0625 403.0244,375.0625 Q401.6797,375.0625 400.9949,376.1292 Q400.3101,377.1958 400.3101,379.2959 Q400.3101,381.3877 400.9949,382.4544 Q401.6797,383.521 403.0244,383.521 Q403.6553,383.521 404.2488,383.2512 Q404.8423,382.9815 405.4731,382.4004 Z " fill="#000000"/><text fill="#000000" font-family="sans-serif" font-size="14" lengthAdjust="spacing" textLength="66" x="417" y="384.271">Sequence</text><line style="stroke:#181818;stroke-width:0.5;" x1="389" x2="485" y1="394.98" y2="394.98"/></g><!--class Selection--><g id="elem_Selection"><rect codeLine="52" fill="#F1F1F1" height="40" id="Selection" rx="2.5" ry="2.5" style="stroke:#181818;stroke-width:0.5;" width="94" x="536" y="362.98"/><ellipse cx="551" cy="378.98" fill="#ADD1B2" rx="11" ry="11" style="stroke:#181818;stroke-width:1.0;"/><path d="M553.4731,385.1231 Q552.8921,385.4219 552.2529,385.5713 Q551.6138,385.7207 550.9082,385.7207 Q548.4014,385.7207 547.0815,384.0689 Q545.7617,382.417 545.7617,379.2959 Q545.7617,376.1665 547.0815,374.5147 Q548.4014,372.8628 550.9082,372.8628 Q551.6138,372.8628 552.2612,373.0122 Q552.9087,373.1616 553.4731,373.4605 L553.4731,376.1831 Q552.8423,375.6021 552.2488,375.3323 Q551.6553,375.0625 551.0244,375.0625 Q549.6797,375.0625 548.9949,376.1292 Q548.3101,377.1958 548.3101,379.2959 Q548.3101,381.3877 548.9949,382.4544 Q549.6797,383.521 551.0244,383.521 Q551.6553,383.521 552.2488,383.2512 Q552.8423,382.9815 553.4731,382.4004 Z " fill="#000000"/><text fill="#000000" font-family="sans-serif" font-size="14" lengthAdjust="spacing" textLength="62" x="565" y="384.271">Selection</text><line style="stroke:#181818;stroke-width:0.5;" x1="537" x2="629" y1="394.98" y2="394.98"/></g><!--reverse link g_Structure to Event--><g id="link_g_Structure_Event"><path codeLine="25" d="M116.8397,99.1306 C122.2197,145.6106 136,264.49 136,264.49 C136,264.49 136,264.49 136,602.98 C136,602.98 224,641.98 224,641.98 C224,641.98 330.22,674.17 387.06,691.39 " fill="none" id="g_Structure-backto-Event" style="stroke:#181818;stroke-width:1.0;"/><polygon fill="none" points="114.77,81.25,110.8795,99.8205,122.7999,98.4407,114.77,81.25" style="stroke:#181818;stroke-width:1.0;"/></g><!--link Event to Entity--><g id="link_Event_Entity"><path codeLine="26" d="M390.77,682.66 C344.21,653.85 262,602.98 262,602.98 C262,264.49 262,264.49 262,264.49 C262,264.49 274.5182,133.7027 278.9682,87.2227 " fill="none" id="Event-to-Entity" style="stroke:#181818;stroke-width:1.0;"/><polygon fill="#181818" points="279.54,81.25,274.7005,89.8278,279.0635,86.2272,282.6641,90.5903,279.54,81.25" style="stroke:#181818;stroke-width:1.0;"/><text fill="#000000" font-family="sans-serif" font-size="13" lengthAdjust="spacing" textLength="52" x="220.8466" y="101.5112">+source</text><text fill="#000000" font-family="sans-serif" font-size="13" lengthAdjust="spacing" textLength="8" x="264.8466" y="116.8218">1</text></g><!--link EventExpression to Constraint--><g id="link_EventExpression_Constraint"><path codeLine="29" d="M655.84,498.65 C747.19,515.8 892,542.98 892,542.98 C892,542.98 932.3496,565.4879 963.1596,582.6679 " fill="none" id="EventExpression-to-Constraint" style="stroke:#181818;stroke-width:1.0;"/><polygon fill="#181818" points="968.4,585.59,962.4875,577.7133,964.033,583.1549,958.5914,584.7004,968.4,585.59" style="stroke:#181818;stroke-width:1.0;"/><text fill="#000000" font-family="sans-serif" font-size="13" lengthAdjust="spacing" textLength="46" x="908.8013" y="559.8058">+guard</text><text fill="#000000" font-family="sans-serif" font-size="13" lengthAdjust="spacing" textLength="22" x="920.8013" y="575.1163">0..*</text></g><!--link Messaging to Annotated--><g id="link_Messaging_Annotated"><path codeLine="35" d="M807.09,302.29 C890.1,374.59 1061.178,523.6063 1118.858,573.8563 " fill="none" id="Messaging-to-Annotated" style="stroke:#181818;stroke-width:1.0;"/><polygon fill="none" points="1132.43,585.68,1122.7992,569.3323,1114.9168,578.3803,1132.43,585.68" style="stroke:#181818;stroke-width:1.0;"/></g><!--link Messaging to Definition--><g id="link_Messaging_Definition"><path codeLine="36" d="M723.47,228.62 C685.22,196.36 635,154 635,154 C635,154 539,146 539,146 C539,146 528.1336,121.1713 517.9636,97.9213 " fill="none" id="Messaging-to-Definition" style="stroke:#181818;stroke-width:1.0;"/><polygon fill="none" points="510.75,81.43,512.4665,100.3259,523.4607,95.5168,510.75,81.43" style="stroke:#181818;stroke-width:1.0;"/></g><!--link Entity to Messaging--><g id="link_Entity_Messaging"><path codeLine="38" d="M298.7995,91.1099 C310.3395,107.3899 320,121 320,121 C320,121 419,129 419,129 C419,129 520,146 520,146 C520,146 635,154 635,154 C635,154 680.6335,192.4917 718.8835,224.7517 " fill="none" id="Entity-Messaging" style="stroke:#181818;stroke-width:1.0;"/><polygon fill="#181818" points="291.86,81.32,292.0665,88.5281,298.7995,91.1099,298.5931,83.9018,291.86,81.32" style="stroke:#181818;stroke-width:1.0;"/><polygon fill="#181818" points="723.47,228.62,719.169,219.7599,719.6479,225.3964,714.0113,225.8753,723.47,228.62" style="stroke:#181818;stroke-width:1.0;"/><text fill="#000000" font-family="sans-serif" font-size="13" lengthAdjust="spacing" textLength="68" x="643.273" y="202.9713">messaging</text><text fill="#000000" font-family="sans-serif" font-size="13" lengthAdjust="spacing" textLength="22" x="666.273" y="218.2819">0..*</text></g><!--reverse link EventExpression to One--><g id="link_EventExpression_One"><path codeLine="41" d="M563.3193,520.1019 C551.3193,541.5119 540.93,560.06 528.92,581.5 " fill="none" id="EventExpression-backto-One" style="stroke:#181818;stroke-width:1.0;"/><polygon fill="none" points="572.12,504.4,558.0854,517.1683,568.5533,523.0354,572.12,504.4" style="stroke:#181818;stroke-width:1.0;"/></g><!--link One to Event--><g id="link_One_Event"><path codeLine="42" d="M499.49,622.07 C482.6,639.49 461.9382,660.8039 444.9582,678.3039 " fill="none" id="One-to-Event" style="stroke:#181818;stroke-width:1.0;"/><polygon fill="#181818" points="440.78,682.61,449.918,678.9363,444.2618,679.0216,444.1765,673.3653,440.78,682.61" style="stroke:#181818;stroke-width:1.0;"/></g><!--reverse link EventExpression to CompoundEventExpression--><g id="link_EventExpression_CompoundEventExpression"><path codeLine="45" d="M612.4736,450.2327 C633.7836,426.5627 655,402.98 655,402.98 C655,402.98 655,362.98 655,362.98 C655,362.98 575.72,313.94 530.19,285.79 " fill="none" id="EventExpression-backto-CompoundEventExpression" style="stroke:#181818;stroke-width:1.0;"/><polygon fill="none" points="600.43,463.61,616.9327,454.2472,608.0144,446.2182,600.43,463.61" style="stroke:#181818;stroke-width:1.0;"/></g><!--reverse link CompoundEventExpression to Sequence--><g id="link_CompoundEventExpression_Sequence"><path codeLine="48" d="M480.1093,301.6809 C468.6693,323.0009 458.87,341.24 447.41,362.59 " fill="none" id="CompoundEventExpression-backto-Sequence" style="stroke:#181818;stroke-width:1.0;"/><polygon fill="none" points="488.62,285.82,474.8223,298.844,485.3962,304.5178,488.62,285.82" style="stroke:#181818;stroke-width:1.0;"/></g><!--link Sequence to EventExpression--><g id="link_Sequence_EventExpression"><path codeLine="49" d="M465.5,403.3 C491.22,420.75 523.9037,442.9131 549.6137,460.3431 " fill="none" id="Sequence-to-EventExpression" style="stroke:#181818;stroke-width:1.0;"/><polygon fill="#181818" points="554.58,463.71,549.3751,455.3488,550.4414,460.9043,544.886,461.9705,554.58,463.71" style="stroke:#181818;stroke-width:1.0;"/><text fill="#000000" font-family="sans-serif" font-size="13" lengthAdjust="spacing" textLength="56" x="488.5266" y="423.5681">{ordered}</text><text fill="#000000" font-family="sans-serif" font-size="13" lengthAdjust="spacing" textLength="51" x="493.5266" y="438.8787">+events</text><text fill="#000000" font-family="sans-serif" font-size="13" lengthAdjust="spacing" textLength="22" x="522.5266" y="454.1892">1..*</text></g><!--reverse link CompoundEventExpression to Selection--><g id="link_CompoundEventExpression_Selection"><path codeLine="53" d="M523.6491,300.3758 C539.1591,321.6958 553.37,341.24 568.89,362.59 " fill="none" id="CompoundEventExpression-backto-Selection" style="stroke:#181818;stroke-width:1.0;"/><polygon fill="none" points="513.06,285.82,518.7972,303.9055,528.501,296.8461,513.06,285.82" style="stroke:#181818;stroke-width:1.0;"/></g><!--link Selection to EventExpression--><g id="link_Selection_EventExpression"><path codeLine="54" d="M583,403.07 C583,420.49 583,440.11 583,457.61 " fill="none" id="Selection-to-EventExpression" style="stroke:#181818;stroke-width:1.0;"/><polygon fill="#181818" points="583,463.61,587,454.61,583,458.61,579,454.61,583,463.61" style="stroke:#181818;stroke-width:1.0;"/><text fill="#000000" font-family="sans-serif" font-size="13" lengthAdjust="spacing" textLength="51" x="588.9803" y="423.6009">{unique}</text><text fill="#000000" font-family="sans-serif" font-size="13" lengthAdjust="spacing" textLength="51" x="588.9803" y="438.9114">+events</text><text fill="#000000" font-family="sans-serif" font-size="13" lengthAdjust="spacing" textLength="22" x="617.9803" y="454.2219">1..*</text></g><!--reverse link Foundation to Events--><g id="link_Foundation_Events"><path codeLine="58" d="M579.813,110.3424 C579.6069,110.7202 581.9653,106.3964 581.7636,106.7661 C581.3602,107.5057 580.966,108.2285 580.5826,108.9313 C579.8159,110.3371 579.0926,111.6632 578.4259,112.8855 C575.7594,117.7744 574,121 574,121 C574,121 426,146 426,146 C426,146 368,154 368,154 C368,154 367.5458,155.673 366.7491,158.6072 C366.3508,160.0743 365.8669,161.8567 365.3113,163.903 C365.0335,164.9261 364.7378,166.0152 364.4259,167.1638 C364.27,167.7382 364.11,168.3274 363.9462,168.9306 C363.8643,169.2323 363.7815,169.5374 363.6977,169.846 " fill="none" id="Foundation-backto-Events" style="stroke:#181818;stroke-width:1.0;stroke-dasharray:7.0,7.0;"/><polygon fill="#181818" points="582.686,105.075,574.8649,111.0608,580.2918,109.4645,581.8881,114.8914,582.686,105.075" style="stroke:#181818;stroke-width:1.0;"/><text fill="#000000" font-family="sans-serif" font-size="13" lengthAdjust="spacing" textLength="56" x="527" y="142.5684">&#171;import&#187;</text></g><!--reverse link ProductTypes to Events--><g id="link_ProductTypes_Events"><path codeLine="59" d="M359.6589,110.9685 C359.3111,113.4342 359.6606,110.9569 359.2925,113.5658 C358.5564,118.7837 357.783,124.2659 356.9847,129.9243 C355.3882,141.2412 353.6922,153.2628 351.9963,165.2838 C351.7843,166.7864 351.5723,168.289 351.3605,169.7902 " fill="none" id="ProductTypes-backto-Events" style="stroke:#181818;stroke-width:1.0;stroke-dasharray:7.0,7.0;"/><polygon fill="#181818" points="360.497,105.0273,355.2791,113.3804,359.7986,109.9783,363.2007,114.4978,360.497,105.0273" style="stroke:#181818;stroke-width:1.0;"/><text fill="#000000" font-family="sans-serif" font-size="13" lengthAdjust="spacing" textLength="56" x="357" y="142.5684">&#171;import&#187;</text></g><!--SRC=[ZLHDRzim3BtxLn2-56ZXe3tiKcG6XYwz5HlG7WCCYiIvGcr9qyUm8Cj_7oKhZj8wGtoooCV7zsZHxaqgmomROCFuMsTrKE91zzg2jqmvIg7obPjGlLJejmR1w7uR3qLEQO4E3NowhLwbG1ZGlshXgieGDUiG7YCxyr8hs5L0JuOD6xGk1TZ6KL_kWVVCEVYAFwMIiQ3Q7sc-AALzed4NykGA57F91-AXioIVHPFlLel0_GjvFTjbh5yfB_ss2DJFtb9fiBXy-VoKy6qDp47tOygKhLQ_QSOEbajjeYdMjotabhb31C1kdqBZeGcc-TkUC1R9feNwnkbWEQxjNNsGEES-LQp-68lEfGzJT2d28sKNc1LhTRjONDVbt695eVU9YbWdLPTTfBQSe_7k_Ztp172o8-i48FQxMTIex4WU1t3wPKzpnUqPFQKfm7MJp0m7xC7FL5mLLhufF8malkQnpwbBwIRdZXFvSDa64xVWpDZFfV_Jjn3xZBy2AZufdiwv_0pxEsmSpavRWHR5VcrlC5rFkaTfIdErLv3X7mNro7tXxnYuID84Jfg2agJnKaaZEkvPtgz5C8ks-0VTqyP9wcvzsvvYojqlKVy0]--></g></svg>