<?xml version="1.0" encoding="us-ascii" standalone="no"?><svg xmlns="http://www.w3.org/2000/svg" xmlns:xlink="http://www.w3.org/1999/xlink" contentStyleType="text/css" height="906px" preserveAspectRatio="none" style="width:1378px;height:906px;" version="1.1" viewBox="0 0 1378 906" width="1378px" zoomAndPan="magnify"><defs/><g><!--cluster Constraints--><g id="cluster_Constraints"><path d="M977.5,6 L1062.5,6 A3.75,3.75 0 0 1 1065,8.5 L1072,28.4883 L1174.5,28.4883 A2.5,2.5 0 0 1 1177,30.9883 L1177,383.43 A2.5,2.5 0 0 1 1174.5,385.93 L977.5,385.93 A2.5,2.5 0 0 1 975,383.43 L975,8.5 A2.5,2.5 0 0 1 977.5,6 " fill="none" style="stroke:#000000;stroke-width:1.5;"/><line style="stroke:#000000;stroke-width:1.5;" x1="975" x2="1072" y1="28.4883" y2="28.4883"/><text fill="#000000" font-family="sans-serif" font-size="14" font-weight="bold" lengthAdjust="spacing" textLength="84" x="979" y="21.5352">Constraints</text></g><path d="M632,846.86 L714,846.86 A3.75,3.75 0 0 1 716.5,849.36 L723.5,869.3483 L728,869.3483 A2.5,2.5 0 0 1 730.5,871.8483 L730.5,897.3366 A2.5,2.5 0 0 1 728,899.8366 L632,899.8366 A2.5,2.5 0 0 1 629.5,897.3366 L629.5,849.36 A2.5,2.5 0 0 1 632,846.86 " fill="#F1F1F1" style="stroke:#181818;stroke-width:0.5;"/><line style="stroke:#181818;stroke-width:0.5;" x1="629.5" x2="723.5" y1="869.3483" y2="869.3483"/><text fill="#000000" font-family="sans-serif" font-size="14" font-weight="bold" lengthAdjust="spacing" textLength="81" x="633.5" y="862.3952">Foundation</text><path d="M284,716.89 L346,716.89 A3.75,3.75 0 0 1 348.5,719.39 L355.5,739.3783 L360,739.3783 A2.5,2.5 0 0 1 362.5,741.8783 L362.5,767.3666 A2.5,2.5 0 0 1 360,769.8666 L284,769.8666 A2.5,2.5 0 0 1 281.5,767.3666 L281.5,719.39 A2.5,2.5 0 0 1 284,716.89 " fill="#F1F1F1" style="stroke:#181818;stroke-width:0.5;"/><line style="stroke:#181818;stroke-width:0.5;" x1="281.5" x2="355.5" y1="739.3783" y2="739.3783"/><text fill="#000000" font-family="sans-serif" font-size="14" font-weight="bold" lengthAdjust="spacing" textLength="61" x="285.5" y="732.4252">Modules</text><path d="M625.5,308.96 L714.5,308.96 A3.75,3.75 0 0 1 717,311.46 L724,331.4483 L728.5,331.4483 A2.5,2.5 0 0 1 731,333.9483 L731,359.4366 A2.5,2.5 0 0 1 728.5,361.9366 L625.5,361.9366 A2.5,2.5 0 0 1 623,359.4366 L623,311.46 A2.5,2.5 0 0 1 625.5,308.96 " fill="#F1F1F1" style="stroke:#181818;stroke-width:0.5;"/><line style="stroke:#181818;stroke-width:0.5;" x1="623" x2="724" y1="331.4483" y2="331.4483"/><text fill="#000000" font-family="sans-serif" font-size="14" font-weight="bold" lengthAdjust="spacing" textLength="88" x="627" y="324.4952">Annotations</text><path d="M590.5,456.93 L639.5,456.93 A3.75,3.75 0 0 1 642,459.43 L649,479.4183 L653.5,479.4183 A2.5,2.5 0 0 1 656,481.9183 L656,507.4066 A2.5,2.5 0 0 1 653.5,509.9066 L590.5,509.9066 A2.5,2.5 0 0 1 588,507.4066 L588,459.43 A2.5,2.5 0 0 1 590.5,456.93 " fill="#F1F1F1" style="stroke:#181818;stroke-width:0.5;"/><line style="stroke:#181818;stroke-width:0.5;" x1="588" x2="649" y1="479.4183" y2="479.4183"/><text fill="#000000" font-family="sans-serif" font-size="14" font-weight="bold" lengthAdjust="spacing" textLength="48" x="592" y="472.4652">Values</text><path d="M1036,49 L1136,49 A3.75,3.75 0 0 1 1138.5,51.5 L1145.5,71.4883 L1150,71.4883 A2.5,2.5 0 0 1 1152.5,73.9883 L1152.5,99.4766 A2.5,2.5 0 0 1 1150,101.9766 L1036,101.9766 A2.5,2.5 0 0 1 1033.5,99.4766 L1033.5,51.5 A2.5,2.5 0 0 1 1036,49 " fill="#F1F1F1" style="stroke:#181818;stroke-width:0.5;"/><line style="stroke:#181818;stroke-width:0.5;" x1="1033.5" x2="1145.5" y1="71.4883" y2="71.4883"/><text fill="#000000" font-family="sans-serif" font-size="14" font-weight="bold" lengthAdjust="spacing" textLength="99" x="1037.5" y="64.5352">Environments</text><path d="M1064,178.98 L1136,178.98 A3.75,3.75 0 0 1 1138.5,181.48 L1145.5,201.4683 L1150,201.4683 A2.5,2.5 0 0 1 1152.5,203.9683 L1152.5,229.4566 A2.5,2.5 0 0 1 1150,231.9566 L1064,231.9566 A2.5,2.5 0 0 1 1061.5,229.4566 L1061.5,181.48 A2.5,2.5 0 0 1 1064,178.98 " fill="#F1F1F1" style="stroke:#181818;stroke-width:0.5;"/><line style="stroke:#181818;stroke-width:0.5;" x1="1061.5" x2="1145.5" y1="201.4683" y2="201.4683"/><text fill="#000000" font-family="sans-serif" font-size="14" font-weight="bold" lengthAdjust="spacing" textLength="71" x="1065.5" y="194.5152">Sentences</text><path d="M1043.5,308.96 L1090.5,308.96 A3.75,3.75 0 0 1 1093,311.46 L1100,331.4483 L1104.5,331.4483 A2.5,2.5 0 0 1 1107,333.9483 L1107,359.4366 A2.5,2.5 0 0 1 1104.5,361.9366 L1043.5,361.9366 A2.5,2.5 0 0 1 1041,359.4366 L1041,311.46 A2.5,2.5 0 0 1 1043.5,308.96 " fill="#F1F1F1" style="stroke:#181818;stroke-width:0.5;"/><line style="stroke:#181818;stroke-width:0.5;" x1="1041" x2="1100" y1="331.4483" y2="331.4483"/><text fill="#000000" font-family="sans-serif" font-size="14" font-weight="bold" lengthAdjust="spacing" textLength="46" x="1045" y="324.4952">Terms</text><path d="M702.5,586.91 L775.5,586.91 A3.75,3.75 0 0 1 778,589.41 L785,609.3983 L789.5,609.3983 A2.5,2.5 0 0 1 792,611.8983 L792,637.3866 A2.5,2.5 0 0 1 789.5,639.8866 L702.5,639.8866 A2.5,2.5 0 0 1 700,637.3866 L700,589.41 A2.5,2.5 0 0 1 702.5,586.91 " fill="#F1F1F1" style="stroke:#181818;stroke-width:0.5;"/><line style="stroke:#181818;stroke-width:0.5;" x1="700" x2="785" y1="609.3983" y2="609.3983"/><text fill="#000000" font-family="sans-serif" font-size="14" font-weight="bold" lengthAdjust="spacing" textLength="72" x="704" y="602.4452">Datatypes</text><path d="M277,308.96 L387,308.96 A3.75,3.75 0 0 1 389.5,311.46 L396.5,331.4483 L401,331.4483 A2.5,2.5 0 0 1 403.5,333.9483 L403.5,359.4366 A2.5,2.5 0 0 1 401,361.9366 L277,361.9366 A2.5,2.5 0 0 1 274.5,359.4366 L274.5,311.46 A2.5,2.5 0 0 1 277,308.96 " fill="#F1F1F1" style="stroke:#181818;stroke-width:0.5;"/><line style="stroke:#181818;stroke-width:0.5;" x1="274.5" x2="396.5" y1="331.4483" y2="331.4483"/><text fill="#000000" font-family="sans-serif" font-size="14" font-weight="bold" lengthAdjust="spacing" textLength="109" x="278.5" y="324.4952">SequenceTypes</text><path d="M116.5,586.91 L215.5,586.91 A3.75,3.75 0 0 1 218,589.41 L225,609.3983 L229.5,609.3983 A2.5,2.5 0 0 1 232,611.8983 L232,637.3866 A2.5,2.5 0 0 1 229.5,639.8866 L116.5,639.8866 A2.5,2.5 0 0 1 114,637.3866 L114,589.41 A2.5,2.5 0 0 1 116.5,586.91 " fill="#F1F1F1" style="stroke:#181818;stroke-width:0.5;"/><line style="stroke:#181818;stroke-width:0.5;" x1="114" x2="225" y1="609.3983" y2="609.3983"/><text fill="#000000" font-family="sans-serif" font-size="14" font-weight="bold" lengthAdjust="spacing" textLength="98" x="118" y="602.4452">ProductTypes</text><path d="M410.5,586.91 L485.5,586.91 A3.75,3.75 0 0 1 488,589.41 L495,609.3983 L499.5,609.3983 A2.5,2.5 0 0 1 502,611.8983 L502,637.3866 A2.5,2.5 0 0 1 499.5,639.8866 L410.5,639.8866 A2.5,2.5 0 0 1 408,637.3866 L408,589.41 A2.5,2.5 0 0 1 410.5,586.91 " fill="#F1F1F1" style="stroke:#181818;stroke-width:0.5;"/><line style="stroke:#181818;stroke-width:0.5;" x1="408" x2="495" y1="609.3983" y2="609.3983"/><text fill="#000000" font-family="sans-serif" font-size="14" font-weight="bold" lengthAdjust="spacing" textLength="74" x="412" y="602.4452">SumTypes</text><!--link Modules to Foundation--><g id="link_Modules_Foundation"><path codeLine="8" d="M343.32,770.14 C360.57,790.97 382,816.86 382,816.86 C382,816.86 538.1014,845.9315 623.2114,861.7815 " fill="none" id="Modules-to-Foundation" style="stroke:#181818;stroke-width:1.0;stroke-dasharray:7.0,7.0;"/><polygon fill="#181818" points="629.11,862.88,620.9944,857.2999,624.1945,861.9646,619.5298,865.1647,629.11,862.88" style="stroke:#181818;stroke-width:1.0;"/><text fill="#000000" font-family="sans-serif" font-size="13" lengthAdjust="spacing" textLength="56" x="383" y="813.4284">&#171;import&#187;</text></g><!--link Annotations to Foundation--><g id="link_Annotations_Foundation"><path codeLine="11" d="M695.36,362.21 C734.38,416.96 822,539.91 822,539.91 C822,539.91 822,556.91 822,556.91 C822,556.91 817,639.89 817,639.89 C817,639.89 790,769.86 790,769.86 C790,769.86 744.7296,812.0395 712.1496,842.3995 " fill="none" id="Annotations-to-Foundation" style="stroke:#181818;stroke-width:1.0;stroke-dasharray:7.0,7.0;"/><polygon fill="#181818" points="707.76,846.49,717.0713,843.2807,711.418,843.0813,711.6174,837.428,707.76,846.49" style="stroke:#181818;stroke-width:1.0;"/><text fill="#000000" font-family="sans-serif" font-size="13" lengthAdjust="spacing" textLength="56" x="821" y="618.4684">&#171;import&#187;</text></g><!--link Annotations to Values--><g id="link_Annotations_Values"><path codeLine="12" d="M660.21,362.15 C646.37,383.34 629,409.93 629,409.93 C629,409.93 627.0763,429.8577 625.0663,450.6877 " fill="none" id="Annotations-to-Values" style="stroke:#181818;stroke-width:1.0;stroke-dasharray:7.0,7.0;"/><polygon fill="#181818" points="624.49,456.66,629.336,448.0858,624.9702,451.6831,621.3729,447.3174,624.49,456.66" style="stroke:#181818;stroke-width:1.0;"/><text fill="#000000" font-family="sans-serif" font-size="13" lengthAdjust="spacing" textLength="56" x="630" y="423.4984">&#171;import&#187;</text></g><!--link Environments to Foundation--><g id="link_Environments_Foundation"><path codeLine="21" d="M1137.52,102.39 C1201.8,139.79 1313,204.47 1313,204.47 C1313,204.47 1313,204.47 1313,744.38 C1313,744.38 1225,769.86 1225,769.86 C1225,769.86 871.9767,836.2513 736.6767,861.6913 " fill="none" id="Environments-to-Foundation" style="stroke:#181818;stroke-width:1.0;stroke-dasharray:7.0,7.0;"/><polygon fill="#181818" points="730.78,862.8,740.3642,865.068,735.6939,861.8761,738.8859,857.2058,730.78,862.8" style="stroke:#181818;stroke-width:1.0;"/><text fill="#000000" font-family="sans-serif" font-size="13" lengthAdjust="spacing" textLength="56" x="1314" y="488.4884">&#171;import&#187;</text></g><!--link Environments to Values--><g id="link_Environments_Values"><path codeLine="22" d="M1066.27,102.3 C986.57,179.27 756,401.93 756,401.93 C756,401.93 701.0038,434.9711 661.3038,458.8111 " fill="none" id="Environments-to-Values" style="stroke:#181818;stroke-width:1.0;stroke-dasharray:7.0,7.0;"/><polygon fill="#181818" points="656.16,461.9,665.935,460.6959,660.4465,459.3259,661.8165,453.8375,656.16,461.9" style="stroke:#181818;stroke-width:1.0;"/><text fill="#000000" font-family="sans-serif" font-size="13" lengthAdjust="spacing" textLength="56" x="898" y="275.5284">&#171;import&#187;</text></g><!--link Environments to Sentences--><g id="link_Environments_Sentences"><path codeLine="23" d="M1095.83,102.39 C1098.26,124.59 1101.0869,150.4557 1103.5169,172.6457 " fill="none" id="Environments-to-Sentences" style="stroke:#181818;stroke-width:1.0;stroke-dasharray:7.0,7.0;"/><polygon fill="#181818" points="1104.17,178.61,1107.1665,169.2281,1103.6257,173.6397,1099.214,170.0989,1104.17,178.61" style="stroke:#181818;stroke-width:1.0;"/><text fill="#000000" font-family="sans-serif" font-size="13" lengthAdjust="spacing" textLength="56" x="1101" y="145.5484">&#171;import&#187;</text></g><!--link Sentences to Foundation--><g id="link_Sentences_Foundation"><path codeLine="24" d="M1130.24,232.26 C1143.3,246.75 1157,261.96 1157,261.96 C1157,261.96 1187,334.45 1187,334.45 C1187,334.45 1187,334.45 1187,744.38 C1187,744.38 865.3176,825.5717 736.7476,858.0217 " fill="none" id="Sentences-to-Foundation" style="stroke:#181818;stroke-width:1.0;stroke-dasharray:7.0,7.0;"/><polygon fill="#181818" points="730.93,859.49,740.6352,861.1659,735.778,858.2664,738.6775,853.4092,730.93,859.49" style="stroke:#181818;stroke-width:1.0;"/><text fill="#000000" font-family="sans-serif" font-size="13" lengthAdjust="spacing" textLength="56" x="1188" y="553.4784">&#171;import&#187;</text></g><!--link Sentences to Terms--><g id="link_Sentences_Terms"><path codeLine="25" d="M1099.56,232.26 C1095.38,246.75 1091,261.96 1091,261.96 C1091,261.96 1086.3013,282.0088 1081.4113,302.8388 " fill="none" id="Sentences-to-Terms" style="stroke:#181818;stroke-width:1.0;stroke-dasharray:7.0,7.0;"/><polygon fill="#181818" points="1080.04,308.68,1085.991,300.8324,1081.1827,303.8123,1078.2028,299.004,1080.04,308.68" style="stroke:#181818;stroke-width:1.0;"/><text fill="#000000" font-family="sans-serif" font-size="13" lengthAdjust="spacing" textLength="56" x="1092" y="275.5284">&#171;import&#187;</text></g><!--link Terms to Foundation--><g id="link_Terms_Foundation"><path codeLine="26" d="M1059.65,362.26 C1007.76,455.57 833,769.86 833,769.86 C833,769.86 787,816.86 787,816.86 C787,816.86 763.2266,829.1882 735.3766,843.6282 " fill="none" id="Terms-to-Foundation" style="stroke:#181818;stroke-width:1.0;stroke-dasharray:7.0,7.0;"/><polygon fill="#181818" points="730.05,846.39,739.8811,845.7984,734.4888,844.0885,736.1987,838.6963,730.05,846.39" style="stroke:#181818;stroke-width:1.0;"/><text fill="#000000" font-family="sans-serif" font-size="13" lengthAdjust="spacing" textLength="56" x="935" y="618.4684">&#171;import&#187;</text></g><!--link Terms to Values--><g id="link_Terms_Values"><path codeLine="27" d="M1045.94,362.33 C1026.09,380.63 1003,401.93 1003,401.93 C1003,401.93 958,409.93 958,409.93 C958,409.93 747.875,455.2643 662.245,473.7443 " fill="none" id="Terms-to-Values" style="stroke:#181818;stroke-width:1.0;stroke-dasharray:7.0,7.0;"/><polygon fill="#181818" points="656.38,475.01,666.0213,477.0214,661.2675,473.9552,664.3336,469.2014,656.38,475.01" style="stroke:#181818;stroke-width:1.0;"/><text fill="#000000" font-family="sans-serif" font-size="13" lengthAdjust="spacing" textLength="56" x="959" y="423.4984">&#171;import&#187;</text></g><!--link Constraints to Annotations--><g id="link_Constraints_Annotations"><path codeLine="29" d="M974.9963,79.7078 C974.7311,79.8145 974.4602,79.9234 974.1836,80.0347 C973.6303,80.2571 973.0545,80.4886 972.4571,80.7289 C971.2623,81.2093 969.9811,81.7244 968.6217,82.2711 C965.9028,83.3643 962.8707,84.5835 959.5897,85.9028 C946.4656,91.18 929.3588,98.0588 912.3825,104.885 C878.43,118.5375 845,131.98 845,131.98 C845,131.98 787,178.98 787,178.98 C787,178.98 729.8764,259.7227 698.6264,303.8727 " fill="none" id="Constraints-to-Annotations" style="stroke:#181818;stroke-width:1.0;stroke-dasharray:7.0,7.0;"/><polygon fill="#181818" points="695.16,308.77,703.6245,303.7349,698.0487,304.6889,697.0947,299.113,695.16,308.77" style="stroke:#181818;stroke-width:1.0;"/><text fill="#000000" font-family="sans-serif" font-size="13" lengthAdjust="spacing" textLength="56" x="788" y="210.5384">&#171;import&#187;</text></g><!--link Constraints to Datatypes--><g id="link_Constraints_Datatypes"><path codeLine="30" d="M974.881,98.6344 C974.5273,99.5991 974.1644,100.5888 973.7929,101.6021 C973.0498,103.6288 972.2721,105.7498 971.4638,107.9545 C964.9969,125.5922 956.5675,148.5831 948.2025,171.3988 C931.4725,217.03 915,261.96 915,261.96 C915,261.96 915,278.96 915,278.96 C915,278.96 922,409.93 922,409.93 C922,409.93 922,426.93 922,426.93 C922,426.93 822,556.91 822,556.91 C822,556.91 806.0262,568.5724 786.1762,583.0624 " fill="none" id="Constraints-to-Datatypes" style="stroke:#181818;stroke-width:1.0;stroke-dasharray:7.0,7.0;"/><polygon fill="#181818" points="781.33,586.6,790.9577,584.5244,785.3685,583.652,786.2409,578.0628,781.33,586.6" style="stroke:#181818;stroke-width:1.0;"/><text fill="#000000" font-family="sans-serif" font-size="13" lengthAdjust="spacing" textLength="56" x="922" y="340.5184">&#171;import&#187;</text></g><!--link Datatypes to Foundation--><g id="link_Datatypes_Foundation"><path codeLine="33" d="M739.43,640.08 C726.81,689.39 700.8078,791.0474 688.1278,840.5874 " fill="none" id="Datatypes-to-Foundation" style="stroke:#181818;stroke-width:1.0;stroke-dasharray:7.0,7.0;"/><polygon fill="#181818" points="686.64,846.4,692.7467,838.6729,687.8798,841.5562,684.9966,836.6892,686.64,846.4" style="stroke:#181818;stroke-width:1.0;"/><text fill="#000000" font-family="sans-serif" font-size="13" lengthAdjust="spacing" textLength="56" x="721" y="748.4484">&#171;import&#187;</text></g><!--link Datatypes to Values--><g id="link_Datatypes_Values"><path codeLine="34" d="M748.79,586.6 C750.36,572.11 752,556.91 752,556.91 C752,556.91 752,539.91 752,539.91 C752,539.91 700.5287,517.9345 662.0187,501.5045 " fill="none" id="Datatypes-to-Values" style="stroke:#181818;stroke-width:1.0;stroke-dasharray:7.0,7.0;"/><polygon fill="#181818" points="656.5,499.15,663.2084,506.3609,661.0989,501.1121,666.3478,499.0026,656.5,499.15" style="stroke:#181818;stroke-width:1.0;"/><text fill="#000000" font-family="sans-serif" font-size="13" lengthAdjust="spacing" textLength="56" x="753" y="553.4784">&#171;import&#187;</text></g><!--link Values to Datatypes--><g id="link_Values_Datatypes"><path codeLine="52" d="M643.32,510.18 C660.57,531.02 682,556.91 682,556.91 C682,556.91 695.0069,568.1792 711.7169,582.6692 " fill="none" id="Values-to-Datatypes" style="stroke:#181818;stroke-width:1.0;stroke-dasharray:7.0,7.0;"/><polygon fill="#181818" points="716.25,586.6,712.071,577.6817,712.4724,583.3243,706.8299,583.7258,716.25,586.6" style="stroke:#181818;stroke-width:1.0;"/><text fill="#000000" font-family="sans-serif" font-size="13" lengthAdjust="spacing" textLength="56" x="683" y="553.4784">&#171;import&#187;</text></g><!--link SequenceTypes to Foundation--><g id="link_SequenceTypes_Foundation"><path codeLine="37" d="M279.85,362.37 C184.16,404.32 6,482.42 6,482.42 C6,482.42 6,482.42 6,744.38 C6,744.38 290,816.86 290,816.86 C290,816.86 517.3598,849.2149 623.0698,864.2549 " fill="none" id="SequenceTypes-to-Foundation" style="stroke:#181818;stroke-width:1.0;stroke-dasharray:7.0,7.0;"/><polygon fill="#181818" points="629.01,865.1,620.6632,859.8722,624.0599,864.3957,619.5363,867.7924,629.01,865.1" style="stroke:#181818;stroke-width:1.0;"/><text fill="#000000" font-family="sans-serif" font-size="13" lengthAdjust="spacing" textLength="56" x="7" y="618.4684">&#171;import&#187;</text></g><!--link SequenceTypes to Modules--><g id="link_SequenceTypes_Modules"><path codeLine="38" d="M337.92,362.15 C334.87,435.17 326.4014,637.3253 323.3314,710.5353 " fill="none" id="SequenceTypes-to-Modules" style="stroke:#181818;stroke-width:1.0;stroke-dasharray:7.0,7.0;"/><polygon fill="#181818" points="323.08,716.53,327.4536,707.7055,323.2895,711.5344,319.4606,707.3703,323.08,716.53" style="stroke:#181818;stroke-width:1.0;"/><text fill="#000000" font-family="sans-serif" font-size="13" lengthAdjust="spacing" textLength="56" x="332" y="553.4784">&#171;import&#187;</text></g><!--link SequenceTypes to Values--><g id="link_SequenceTypes_Values"><path codeLine="39" d="M389.27,362.37 C446.45,391.87 532.9475,436.4897 582.4275,462.0097 " fill="none" id="SequenceTypes-to-Values" style="stroke:#181818;stroke-width:1.0;stroke-dasharray:7.0,7.0;"/><polygon fill="#181818" points="587.76,464.76,581.5948,457.0795,583.3162,462.4681,577.9277,464.1895,587.76,464.76" style="stroke:#181818;stroke-width:1.0;"/><text fill="#000000" font-family="sans-serif" font-size="13" lengthAdjust="spacing" textLength="56" x="516" y="423.4984">&#171;import&#187;</text></g><!--link Values to SequenceTypes--><g id="link_Values_SequenceTypes"><path codeLine="53" d="M587.56,473.01 C529.65,457.18 419,426.93 419,426.93 C419,426.93 389.3333,393.3858 365.6833,366.6258 " fill="none" id="Values-to-SequenceTypes" style="stroke:#181818;stroke-width:1.0;stroke-dasharray:7.0,7.0;"/><polygon fill="#181818" points="361.71,362.13,364.6728,371.5227,365.0211,365.8765,370.6672,366.2249,361.71,362.13" style="stroke:#181818;stroke-width:1.0;"/><text fill="#000000" font-family="sans-serif" font-size="13" lengthAdjust="spacing" textLength="56" x="420" y="423.4984">&#171;import&#187;</text></g><!--link ProductTypes to Foundation--><g id="link_ProductTypes_Foundation"><path codeLine="42" d="M177.13,640.07 C184.23,684.23 198,769.86 198,769.86 C198,769.86 358,816.86 358,816.86 C358,816.86 532.7372,846.9708 623.4172,862.6008 " fill="none" id="ProductTypes-to-Foundation" style="stroke:#181818;stroke-width:1.0;stroke-dasharray:7.0,7.0;"/><polygon fill="#181818" points="629.33,863.62,621.1402,858.1494,624.4027,862.7707,619.7813,866.0331,629.33,863.62" style="stroke:#181818;stroke-width:1.0;"/><text fill="#000000" font-family="sans-serif" font-size="13" lengthAdjust="spacing" textLength="56" x="199" y="748.4484">&#171;import&#187;</text></g><!--link ProductTypes to Modules--><g id="link_ProductTypes_Modules"><path codeLine="43" d="M186.86,640.16 C198.07,660.99 212,686.89 212,686.89 C212,686.89 244.4127,703.2382 275.6827,719.0082 " fill="none" id="ProductTypes-to-Modules" style="stroke:#181818;stroke-width:1.0;stroke-dasharray:7.0,7.0;"/><polygon fill="#181818" points="281.04,721.71,274.8053,714.0858,276.5756,719.4585,271.2029,721.2289,281.04,721.71" style="stroke:#181818;stroke-width:1.0;"/><text fill="#000000" font-family="sans-serif" font-size="13" lengthAdjust="spacing" textLength="56" x="213" y="683.4584">&#171;import&#187;</text></g><!--link SumTypes to Foundation--><g id="link_SumTypes_Foundation"><path codeLine="46" d="M465.07,640.07 C482.4,684.23 516,769.86 516,769.86 C516,769.86 574,816.86 574,816.86 C574,816.86 597.5145,829.167 625.0945,843.607 " fill="none" id="SumTypes-to-Foundation" style="stroke:#181818;stroke-width:1.0;stroke-dasharray:7.0,7.0;"/><polygon fill="#181818" points="630.41,846.39,624.2921,838.6718,625.9804,844.0708,620.5814,845.7591,630.41,846.39" style="stroke:#181818;stroke-width:1.0;"/><text fill="#000000" font-family="sans-serif" font-size="13" lengthAdjust="spacing" textLength="56" x="517" y="748.4484">&#171;import&#187;</text></g><!--link SumTypes to Modules--><g id="link_SumTypes_Modules"><path codeLine="47" d="M421.06,640.19 C402,654.68 382,669.89 382,669.89 C382,669.89 364.3969,691.1589 347.1469,711.9889 " fill="none" id="SumTypes-to-Modules" style="stroke:#181818;stroke-width:1.0;stroke-dasharray:7.0,7.0;"/><polygon fill="#181818" points="343.32,716.61,352.1411,712.2296,346.5091,712.7591,345.9796,707.127,343.32,716.61" style="stroke:#181818;stroke-width:1.0;"/><text fill="#000000" font-family="sans-serif" font-size="13" lengthAdjust="spacing" textLength="56" x="383" y="683.4584">&#171;import&#187;</text></g><!--link SumTypes to Values--><g id="link_SumTypes_Values"><path codeLine="48" d="M476.68,586.64 C494.21,565.8 516,539.91 516,539.91 C516,539.91 551.3142,521.4224 582.2642,505.2224 " fill="none" id="SumTypes-to-Values" style="stroke:#181818;stroke-width:1.0;stroke-dasharray:7.0,7.0;"/><polygon fill="#181818" points="587.58,502.44,577.7513,503.0698,583.1501,504.7587,581.4612,510.1575,587.58,502.44" style="stroke:#181818;stroke-width:1.0;"/><text fill="#000000" font-family="sans-serif" font-size="13" lengthAdjust="spacing" textLength="56" x="517" y="553.4784">&#171;import&#187;</text></g><!--link Values to SumTypes--><g id="link_Values_SumTypes"><path codeLine="54" d="M587.77,494.47 C533.31,510.46 433,539.91 433,539.91 C433,539.91 433,556.91 433,556.91 C433,556.91 436.8203,566.5317 442.5603,581.0217 " fill="none" id="Values-to-SumTypes" style="stroke:#181818;stroke-width:1.0;stroke-dasharray:7.0,7.0;"/><polygon fill="#181818" points="444.77,586.6,445.1742,576.7594,442.9285,581.9514,437.7365,579.7058,444.77,586.6" style="stroke:#181818;stroke-width:1.0;"/><text fill="#000000" font-family="sans-serif" font-size="13" lengthAdjust="spacing" textLength="56" x="434" y="553.4784">&#171;import&#187;</text></g><!--link Values to Foundation--><g id="link_Values_Foundation"><path codeLine="51" d="M625.85,510.18 C636.39,580.66 664.7225,770.206 675.2625,840.676 " fill="none" id="Values-to-Foundation" style="stroke:#181818;stroke-width:1.0;stroke-dasharray:7.0,7.0;"/><polygon fill="#181818" points="676.15,846.61,678.7747,837.1173,675.4104,841.665,670.8627,838.3007,676.15,846.61" style="stroke:#181818;stroke-width:1.0;"/><text fill="#000000" font-family="sans-serif" font-size="13" lengthAdjust="spacing" textLength="56" x="653" y="683.4584">&#171;import&#187;</text></g><!--SRC=[XPFHQiCW58RlVGgVeEncDwC4IhVT3GOjktV9eKZDqQePb99tdwP9rCQQNAd_vpd_hyQSEIgcMKj_MNq-QTbXivT2QcerG-CaG4lCJ0cEOAyAg9BYwYUHXh810ug-lX2YN3Ls0lhf2pBB9T9R7vQ_PDC9C7vj6cusLKI_qUsMjqfgMrLXsmvHsa4VjiRJmlP7x8U93ao-mzv1BZb7wpeGwhv9-S0_hYMs4AG-0GvE0QmXhnv1jwcI52pOpxAP35bkDhL0WzsLtYauv5WmztGhXGAKST-J-EWz55rRGZvoxynHxaa-kT5PzYycJ0fUKwZqMWvmwVpH7AVwwKAXnn8S_uCLgkJcMxiIjPtD9FE2bmMNin8oTss8EurBIMCc6p86IldkckyxZWfT8oB_FY8WEUMdqEWoqVy1]--></g></svg>