<?xml version="1.0" encoding="us-ascii" standalone="no"?><svg xmlns="http://www.w3.org/2000/svg" xmlns:xlink="http://www.w3.org/1999/xlink" contentStyleType="text/css" height="602px" preserveAspectRatio="none" style="width:1061px;height:602px;" version="1.1" viewBox="0 0 1061 602" width="1061px" zoomAndPan="magnify"><defs/><g><!--cluster Foundation--><g id="cluster_Foundation"><path d="M8.5,41 L90.5,41 A3.75,3.75 0 0 1 93,43.5 L100,63.4883 L165.5,63.4883 A2.5,2.5 0 0 1 168,65.9883 L168,137.5 A2.5,2.5 0 0 1 165.5,140 L8.5,140 A2.5,2.5 0 0 1 6,137.5 L6,43.5 A2.5,2.5 0 0 1 8.5,41 " fill="none" style="stroke:#000000;stroke-width:1.5;"/><line style="stroke:#000000;stroke-width:1.5;" x1="6" x2="100" y1="63.4883" y2="63.4883"/><text fill="#000000" font-family="sans-serif" font-size="14" font-weight="bold" lengthAdjust="spacing" textLength="81" x="10" y="56.5352">Foundation</text></g><!--cluster Constraints--><g id="cluster_Constraints"><path d="M202.5,6 L287.5,6 A3.75,3.75 0 0 1 290,8.5 L297,28.4883 L1051.5,28.4883 A2.5,2.5 0 0 1 1054,30.9883 L1054,592.96 A2.5,2.5 0 0 1 1051.5,595.46 L202.5,595.46 A2.5,2.5 0 0 1 200,592.96 L200,8.5 A2.5,2.5 0 0 1 202.5,6 " fill="none" style="stroke:#000000;stroke-width:1.5;"/><line style="stroke:#000000;stroke-width:1.5;" x1="200" x2="297" y1="28.4883" y2="28.4883"/><text fill="#000000" font-family="sans-serif" font-size="14" font-weight="bold" lengthAdjust="spacing" textLength="84" x="204" y="21.5352">Constraints</text></g><!--cluster Terms--><g id="cluster_Terms"><path d="M226.5,49 L273.5,49 A3.75,3.75 0 0 1 276,51.5 L283,71.4883 L321.5,71.4883 A2.5,2.5 0 0 1 324,73.9883 L324,129.5 A2.5,2.5 0 0 1 321.5,132 L226.5,132 A2.5,2.5 0 0 1 224,129.5 L224,51.5 A2.5,2.5 0 0 1 226.5,49 " fill="none" style="stroke:#000000;stroke-width:1.5;"/><line style="stroke:#000000;stroke-width:1.5;" x1="224" x2="283" y1="71.4883" y2="71.4883"/><text fill="#000000" font-family="sans-serif" font-size="14" font-weight="bold" lengthAdjust="spacing" textLength="46" x="228" y="64.5352">Terms</text></g><!--cluster Sentences--><g id="cluster_Sentences"><path d="M234.5,205 L306.5,205 A3.75,3.75 0 0 1 309,207.5 L316,227.4883 L1019.5,227.4883 A2.5,2.5 0 0 1 1022,229.9883 L1022,560.96 A2.5,2.5 0 0 1 1019.5,563.46 L234.5,563.46 A2.5,2.5 0 0 1 232,560.96 L232,207.5 A2.5,2.5 0 0 1 234.5,205 " fill="none" style="stroke:#000000;stroke-width:1.5;"/><line style="stroke:#000000;stroke-width:1.5;" x1="232" x2="316" y1="227.4883" y2="227.4883"/><text fill="#000000" font-family="sans-serif" font-size="14" font-weight="bold" lengthAdjust="spacing" textLength="71" x="236" y="220.5352">Sentences</text></g><!--class Named--><g id="elem_Named"><rect codeLine="8" fill="#F1F1F1" height="32" id="Named" rx="2.5" ry="2.5" style="stroke:#181818;stroke-width:0.5;" width="80" x="30" y="84"/><ellipse cx="45" cy="100" fill="#A9DCDF" rx="11" ry="11" style="stroke:#181818;stroke-width:1.0;"/><path d="M44.8633,95.3481 L43.7095,100.4199 L46.0254,100.4199 Z M43.3691,93.1069 L46.3657,93.1069 L49.7109,105.5 L47.2622,105.5 L46.4985,102.437 L43.2197,102.437 L42.4727,105.5 L40.0239,105.5 Z " fill="#000000"/><text fill="#000000" font-family="sans-serif" font-size="14" font-style="italic" lengthAdjust="spacing" textLength="48" x="59" y="105.291">Named</text></g><!--class Term--><g id="elem_Term"><rect codeLine="14" fill="#F1F1F1" height="32" id="Term" rx="2.5" ry="2.5" style="stroke:#181818;stroke-width:0.5;" width="68" x="240" y="84"/><ellipse cx="255" cy="100" fill="#A9DCDF" rx="11" ry="11" style="stroke:#181818;stroke-width:1.0;"/><path d="M254.8633,95.3481 L253.7095,100.4199 L256.0254,100.4199 Z M253.3691,93.1069 L256.3657,93.1069 L259.7109,105.5 L257.2622,105.5 L256.4985,102.437 L253.2197,102.437 L252.4727,105.5 L250.0239,105.5 Z " fill="#000000"/><text fill="#000000" font-family="sans-serif" font-size="14" font-style="italic" lengthAdjust="spacing" textLength="36" x="269" y="105.291">Term</text></g><!--class Sentence--><g id="elem_Sentence"><rect codeLine="17" fill="#F1F1F1" height="40" id="Sentence" rx="2.5" ry="2.5" style="stroke:#181818;stroke-width:0.5;" width="94" x="886" y="256.24"/><ellipse cx="901" cy="272.24" fill="#A9DCDF" rx="11" ry="11" style="stroke:#181818;stroke-width:1.0;"/><path d="M900.8633,267.5881 L899.7095,272.6599 L902.0254,272.6599 Z M899.3691,265.3469 L902.3657,265.3469 L905.7109,277.74 L903.2622,277.74 L902.4985,274.677 L899.2197,274.677 L898.4727,277.74 L896.0239,277.74 Z " fill="#000000"/><text fill="#000000" font-family="sans-serif" font-size="14" font-style="italic" lengthAdjust="spacing" textLength="62" x="915" y="277.531">Sentence</text><line style="stroke:#181818;stroke-width:0.5;" x1="887" x2="979" y1="288.24" y2="288.24"/></g><!--class Quantified--><g id="elem_Quantified"><rect codeLine="20" fill="#F1F1F1" height="56.4883" id="Quantified" rx="2.5" ry="2.5" style="stroke:#181818;stroke-width:0.5;" width="246" x="590" y="248"/><ellipse cx="672.75" cy="264" fill="#ADD1B2" rx="11" ry="11" style="stroke:#181818;stroke-width:1.0;"/><path d="M675.2231,270.1431 Q674.6421,270.4419 674.0029,270.5913 Q673.3638,270.7407 672.6582,270.7407 Q670.1514,270.7407 668.8315,269.0889 Q667.5117,267.437 667.5117,264.3159 Q667.5117,261.1865 668.8315,259.5347 Q670.1514,257.8828 672.6582,257.8828 Q673.3638,257.8828 674.0112,258.0322 Q674.6587,258.1816 675.2231,258.4805 L675.2231,261.2031 Q674.5923,260.6221 673.9988,260.3523 Q673.4053,260.0825 672.7744,260.0825 Q671.4297,260.0825 670.7449,261.1492 Q670.0601,262.2158 670.0601,264.3159 Q670.0601,266.4077 670.7449,267.4744 Q671.4297,268.541 672.7744,268.541 Q673.4053,268.541 673.9988,268.2712 Q674.5923,268.0015 675.2231,267.4204 Z " fill="#000000"/><text fill="#000000" font-family="sans-serif" font-size="14" lengthAdjust="spacing" textLength="72" x="693.25" y="269.291">Quantified</text><line style="stroke:#181818;stroke-width:0.5;" x1="591" x2="835" y1="280" y2="280"/><ellipse cx="601" cy="293.7441" fill="none" rx="3" ry="3" style="stroke:#038048;stroke-width:1.0;"/><text fill="#000000" font-family="sans-serif" font-size="14" lengthAdjust="spacing" textLength="220" x="610" y="297.5352">body: Sentence {subsets nested}</text></g><!--class QuantifiedVariableBinding--><g id="elem_QuantifiedVariableBinding"><rect codeLine="36" fill="#F1F1F1" height="40" id="QuantifiedVariableBinding" rx="2.5" ry="2.5" style="stroke:#181818;stroke-width:0.5;" width="212" x="382" y="365.48"/><ellipse cx="397" cy="381.48" fill="#ADD1B2" rx="11" ry="11" style="stroke:#181818;stroke-width:1.0;"/><path d="M399.4731,387.6231 Q398.8921,387.9219 398.2529,388.0713 Q397.6138,388.2207 396.9082,388.2207 Q394.4014,388.2207 393.0815,386.5689 Q391.7617,384.917 391.7617,381.7959 Q391.7617,378.6665 393.0815,377.0147 Q394.4014,375.3628 396.9082,375.3628 Q397.6138,375.3628 398.2612,375.5122 Q398.9087,375.6616 399.4731,375.9605 L399.4731,378.6831 Q398.8423,378.1021 398.2488,377.8323 Q397.6553,377.5625 397.0244,377.5625 Q395.6797,377.5625 394.9949,378.6292 Q394.3101,379.6958 394.3101,381.7959 Q394.3101,383.8877 394.9949,384.9544 Q395.6797,386.021 397.0244,386.021 Q397.6553,386.021 398.2488,385.7512 Q398.8423,385.4815 399.4731,384.9004 Z " fill="#000000"/><text fill="#000000" font-family="sans-serif" font-size="14" lengthAdjust="spacing" textLength="180" x="411" y="386.771">QuantifiedVariableBinding</text><line style="stroke:#181818;stroke-width:0.5;" x1="383" x2="593" y1="397.48" y2="397.48"/></g><!--class Quantifier--><g id="elem_Quantifier"><rect codeLine="26" fill="#F1F1F1" height="72.9766" id="Quantifier" rx="2.5" ry="2.5" style="stroke:#181818;stroke-width:0.5;" width="101" x="501.5" y="466.48"/><ellipse cx="516.5" cy="482.48" fill="#EB937F" rx="11" ry="11" style="stroke:#181818;stroke-width:1.0;"/><path d="M520.1143,488.98 L512.3945,488.98 L512.3945,476.5869 L520.1143,476.5869 L520.1143,478.7451 L514.8433,478.7451 L514.8433,481.418 L519.6162,481.418 L519.6162,483.5762 L514.8433,483.5762 L514.8433,486.8218 L520.1143,486.8218 Z " fill="#000000"/><text fill="#000000" font-family="sans-serif" font-size="14" lengthAdjust="spacing" textLength="69" x="530.5" y="487.771">Quantifier</text><line style="stroke:#181818;stroke-width:0.5;" x1="502.5" x2="601.5" y1="498.48" y2="498.48"/><text fill="#000000" font-family="sans-serif" font-size="14" lengthAdjust="spacing" textLength="63" x="507.5" y="516.0152">Universal</text><text fill="#000000" font-family="sans-serif" font-size="14" lengthAdjust="spacing" textLength="71" x="507.5" y="532.5034">Existential</text></g><!--class QuantifiedVariable--><g id="elem_QuantifiedVariable"><rect codeLine="31" fill="#F1F1F1" height="56.4883" id="QuantifiedVariable" rx="2.5" ry="2.5" style="stroke:#181818;stroke-width:0.5;" width="160" x="291" y="474.73"/><ellipse cx="306" cy="490.73" fill="#ADD1B2" rx="11" ry="11" style="stroke:#181818;stroke-width:1.0;"/><path d="M308.4731,496.8731 Q307.8921,497.1719 307.2529,497.3213 Q306.6138,497.4707 305.9082,497.4707 Q303.4014,497.4707 302.0815,495.8189 Q300.7617,494.167 300.7617,491.0459 Q300.7617,487.9165 302.0815,486.2647 Q303.4014,484.6128 305.9082,484.6128 Q306.6138,484.6128 307.2612,484.7622 Q307.9087,484.9116 308.4731,485.2105 L308.4731,487.9331 Q307.8423,487.3521 307.2488,487.0823 Q306.6553,486.8125 306.0244,486.8125 Q304.6797,486.8125 303.9949,487.8792 Q303.3101,488.9458 303.3101,491.0459 Q303.3101,493.1377 303.9949,494.2044 Q304.6797,495.271 306.0244,495.271 Q306.6553,495.271 307.2488,495.0012 Q307.8423,494.7315 308.4731,494.1504 Z " fill="#000000"/><text fill="#000000" font-family="sans-serif" font-size="14" lengthAdjust="spacing" textLength="128" x="320" y="496.021">QuantifiedVariable</text><line style="stroke:#181818;stroke-width:0.5;" x1="292" x2="450" y1="506.73" y2="506.73"/><text fill="#000000" font-family="sans-serif" font-size="14" lengthAdjust="spacing" textLength="109" x="297" y="524.2652">sequence: Term</text></g><g id="elem_qvb_self"><path d="M290.5,248.27 L290.5,304.2016 A0,0 0 0 0 290.5,304.2016 L429.61,304.2016 L474.95,365.31 L437.61,304.2016 L539.5,304.2016 A0,0 0 0 0 539.5,304.2016 L539.5,258.27 L529.5,248.27 L290.5,248.27 A0,0 0 0 0 290.5,248.27 " fill="#FEFFDD" style="stroke:#181818;stroke-width:0.5;"/><path d="M529.5,248.27 L529.5,258.27 L539.5,258.27 L529.5,248.27 " fill="#FEFFDD" style="stroke:#181818;stroke-width:0.5;"/><text fill="#000000" font-family="sans-serif" font-size="13" font-weight="bold" lengthAdjust="spacing" textLength="21" x="296.5" y="265.8384">inv</text><text fill="#000000" font-family="sans-serif" font-size="13" lengthAdjust="spacing" textLength="4" x="317.5" y="265.8384">:</text><text fill="#000000" font-family="sans-serif" font-size="13" lengthAdjust="spacing" textLength="146" x="296.5" y="281.1489">empty(variable) implies</text><text fill="#000000" font-family="sans-serif" font-size="13" lengthAdjust="spacing" textLength="220" x="304.5" y="296.4595">self.sentence.in_constraint.subject</text></g><!--link Sentence to Sentence--><g id="link_Sentence_Sentence"><path codeLine="18" d="M980.41,265.71 C1006.29,263.84 1030,267.35 1030,276.24 C1030,285.13 1012.2742,289.0747 986.3942,287.1947 " fill="none" id="Sentence-to-Sentence" style="stroke:#181818;stroke-width:1.0;"/><polygon fill="#181818" points="980.41,286.76,989.0965,291.4016,985.3969,287.1223,989.6762,283.4226,980.41,286.76" style="stroke:#181818;stroke-width:1.0;"/><text fill="#000000" font-family="sans-serif" font-size="13" lengthAdjust="spacing" textLength="52" x="987.9804" y="245.6776">+nested</text><text fill="#000000" font-family="sans-serif" font-size="13" lengthAdjust="spacing" textLength="22" x="1002.9804" y="260.9882">0..*</text><text fill="#000000" font-family="sans-serif" font-size="13" lengthAdjust="spacing" textLength="50" x="987.8773" y="301.9921">+parent</text><text fill="#000000" font-family="sans-serif" font-size="13" lengthAdjust="spacing" textLength="24" x="1000.8773" y="317.3027">0..1</text></g><!--link Quantified to Sentence--><g id="link_Quantified_Sentence"><path codeLine="23" d="M836.46,276.24 C849.35,276.24 859.67,276.24 859.67,276.24 C859.67,276.24 853.54,276.24 867.73,276.24 " fill="none" id="Quantified-to-Sentence" style="stroke:#181818;stroke-width:1.0;"/><polygon fill="none" points="885.73,276.24,867.73,270.24,867.73,282.24,885.73,276.24" style="stroke:#181818;stroke-width:1.0;"/></g><!--link Quantified to QuantifiedVariableBinding--><g id="link_Quantified_QuantifiedVariableBinding"><path codeLine="24" d="M644.2265,310.0209 C604.6365,328.8809 569.4163,345.6785 534.1263,362.4985 " fill="none" id="Quantified-QuantifiedVariableBinding" style="stroke:#181818;stroke-width:1.0;"/><polygon fill="#181818" points="655.06,304.86,647.9229,303.8293,644.2265,310.0209,651.3635,311.0516,655.06,304.86" style="stroke:#181818;stroke-width:1.0;"/><polygon fill="#181818" points="528.71,365.08,538.5554,364.8186,533.2235,362.9287,535.1134,357.5969,528.71,365.08" style="stroke:#181818;stroke-width:1.0;"/><text fill="#000000" font-family="sans-serif" font-size="13" lengthAdjust="spacing" textLength="66" x="570.3036" y="324.9093">+sentence</text><text fill="#000000" font-family="sans-serif" font-size="13" lengthAdjust="spacing" textLength="58" x="474.0034" y="354.8452">+binding</text></g><!--reverse link Named to QuantifiedVariable--><g id="link_Named_QuantifiedVariable"><path codeLine="34" d="M91.9521,130.7777 C126.8421,178.0977 220,304.48 220,304.48 C220,304.48 308.51,420.25 350,474.51 " fill="none" id="Named-backto-QuantifiedVariable" style="stroke:#181818;stroke-width:1.0;"/><polygon fill="none" points="81.27,116.29,87.1228,134.3384,96.7813,127.217,81.27,116.29" style="stroke:#181818;stroke-width:1.0;"/></g><!--link QuantifiedVariableBinding to Quantifier--><g id="link_QuantifiedVariableBinding_Quantifier"><path codeLine="37" d="M504.5263,416.3062 C513.6363,432.7462 518.2306,441.0426 529.2806,460.9726 " fill="none" id="QuantifiedVariableBinding-Quantifier" style="stroke:#181818;stroke-width:1.0;"/><polygon fill="#181818" points="498.71,405.81,498.1194,412.9969,504.5263,416.3062,505.1169,409.1193,498.71,405.81" style="stroke:#181818;stroke-width:1.0;"/><polygon fill="#181818" points="532.19,466.22,531.3242,456.4093,529.7655,461.8471,524.3276,460.2885,532.19,466.22" style="stroke:#181818;stroke-width:1.0;"/><text fill="#000000" font-family="sans-serif" font-size="13" lengthAdjust="spacing" textLength="71" x="452.0293" y="440.269">+quantifier</text><text fill="#000000" font-family="sans-serif" font-size="13" lengthAdjust="spacing" textLength="8" x="515.0293" y="455.5795">1</text></g><!--link QuantifiedVariableBinding to QuantifiedVariable--><g id="link_QuantifiedVariableBinding_QuantifiedVariable"><path codeLine="38" d="M459.8787,414.2389 C440.8787,432.9889 424.6804,448.9853 403.2504,470.1353 " fill="none" id="QuantifiedVariableBinding-QuantifiedVariable" style="stroke:#181818;stroke-width:1.0;"/><polygon fill="#181818" points="468.42,405.81,461.3397,407.1774,459.8787,414.2389,466.959,412.8715,468.42,405.81" style="stroke:#181818;stroke-width:1.0;"/><polygon fill="#181818" points="398.98,474.35,408.1954,470.875,402.5387,470.8378,402.5759,465.1811,398.98,474.35" style="stroke:#181818;stroke-width:1.0;"/><text fill="#000000" font-family="sans-serif" font-size="13" lengthAdjust="spacing" textLength="59" x="339.6903" y="448.6617">+variable</text><text fill="#000000" font-family="sans-serif" font-size="13" lengthAdjust="spacing" textLength="24" x="374.6903" y="463.9723">0..1</text></g><!--reverse link Foundation to Sentences--><g id="link_Foundation_Sentences"><path codeLine="44" d="M170.0699,128.7767 C170.478,129.9024 169.1538,126.2493 169.5762,127.4146 C171.2656,132.0754 173.0562,137.0153 174.84,141.9363 C181.975,161.62 189,181 189,181 C189,181 201.355,203.83 213.9025,227.0163 C220.1762,238.6094 226.4981,250.2916 231.3478,259.2536 C231.4994,259.5337 231.6495,259.8111 231.7981,260.0857 " fill="none" id="Foundation-backto-Sentences" style="stroke:#181818;stroke-width:1.0;stroke-dasharray:7.0,7.0;"/><polygon fill="#181818" points="168.0252,123.1359,167.3317,132.9603,169.7291,127.8366,174.8528,130.234,168.0252,123.1359" style="stroke:#181818;stroke-width:1.0;"/><text fill="#000000" font-family="sans-serif" font-size="13" lengthAdjust="spacing" textLength="56" x="190" y="177.5684">&#171;import&#187;</text></g><!--reverse link Term to Sentences--><g id="link_Term_Sentences"><path codeLine="45" d="M269.8311,122.349 C267.7836,132.844 266.0163,141.9006 262.783,158.4706 C261.1663,166.7556 259.4704,175.4467 257.7642,184.1906 C256.9111,188.5626 256.0555,192.9477 255.2059,197.3019 C254.781,199.479 254.3577,201.6484 253.937,203.8045 C253.8844,204.074 253.8319,204.3433 253.7794,204.6124 " fill="none" id="Term-backto-Sentences" style="stroke:#181818;stroke-width:1.0;stroke-dasharray:7.0,7.0;"/><polygon fill="#181818" points="270.98,116.46,265.3307,124.5275,270.0226,121.3675,273.1826,126.0594,270.98,116.46" style="stroke:#181818;stroke-width:1.0;"/><text fill="#000000" font-family="sans-serif" font-size="13" lengthAdjust="spacing" textLength="56" x="262" y="177.5684">&#171;import&#187;</text></g><!--SRC=[ZLJ1Rjim3BtxAmIVrWRnsiCkGU13Y-uue6Ytau52ijbKhKqfeXmiwFplas9RKjEqcqxou-CZ_KYRNYHgRdZ71AzVDaRrs5ohLXbc3KTo8K2RKM2r4i7kDJ2jshr_I6Ae6Y3GxDj5zYGRO1tO9zLGbcadpJV0ldjrRgL2zfenToPQ9y3G0U22NDtQihhbHEm7xw1XhqCsH95hXPuZqTAaCaVkmNGpTbBzH0MVumluqF16xSwzE60DgU9HyaoP1Vm9MBv080jDXHT5SPwpvR9qs6Ze0RlC0pbaXyjOuBRdQEMZz2Q4a3yBePhzAcc0Ua7W71bhndRYBT5Q_YdVbqxY-OAcQCxEnxw5n4RY9azelxYHNBHmDOQoe0JOTv5dZbh_YNBd1iBRD-ZDR-aQTna9FcGVsZ7NFj8csFQ-xTLXhf-Q41IMlVP-75RjtmMdbqqd_Z5fycuRhAZCPUAW-N-9tGHNPboSzmcnTLJMRTzQb19tww-YN5K8dRRxBxF86PETRYLGXTwozh6Onrr8VAZ3zrMufNg6skQC4zlkn8FdnZepmegY_6GjuW3Y5rNqskN4ty7AzRjsJIbZop8_IVO3FQ8DVm40]--></g></svg>