<?xml version="1.0" encoding="us-ascii" standalone="no"?><svg xmlns="http://www.w3.org/2000/svg" xmlns:xlink="http://www.w3.org/1999/xlink" contentStyleType="text/css" height="385px" preserveAspectRatio="none" style="width:1048px;height:385px;" version="1.1" viewBox="0 0 1048 385" width="1048px" zoomAndPan="magnify"><defs/><g><!--cluster Foundation--><g id="cluster_Foundation"><path d="M54.5,6 L136.5,6 A3.75,3.75 0 0 1 139,8.5 L146,28.4883 L197.5,28.4883 A2.5,2.5 0 0 1 200,30.9883 L200,102.5 A2.5,2.5 0 0 1 197.5,105 L54.5,105 A2.5,2.5 0 0 1 52,102.5 L52,8.5 A2.5,2.5 0 0 1 54.5,6 " fill="none" style="stroke:#000000;stroke-width:1.5;"/><line style="stroke:#000000;stroke-width:1.5;" x1="52" x2="146" y1="28.4883" y2="28.4883"/><text fill="#000000" font-family="sans-serif" font-size="14" font-weight="bold" lengthAdjust="spacing" textLength="81" x="56" y="21.5352">Foundation</text></g><!--cluster Modules--><g id="cluster_Modules"><path d="M252.5,6 L314.5,6 A3.75,3.75 0 0 1 317,8.5 L324,28.4883 L479.5,28.4883 A2.5,2.5 0 0 1 482,30.9883 L482,102.5 A2.5,2.5 0 0 1 479.5,105 L252.5,105 A2.5,2.5 0 0 1 250,102.5 L250,8.5 A2.5,2.5 0 0 1 252.5,6 " fill="none" style="stroke:#000000;stroke-width:1.5;"/><line style="stroke:#000000;stroke-width:1.5;" x1="250" x2="324" y1="28.4883" y2="28.4883"/><text fill="#000000" font-family="sans-serif" font-size="14" font-weight="bold" lengthAdjust="spacing" textLength="61" x="254" y="21.5352">Modules</text></g><!--cluster Datatypes--><g id="cluster_Datatypes"><path d="M8.5,170 L81.5,170 A3.75,3.75 0 0 1 84,172.5 L91,192.4883 L1038.5,192.4883 A2.5,2.5 0 0 1 1041,194.9883 L1041,375.5 A2.5,2.5 0 0 1 1038.5,378 L8.5,378 A2.5,2.5 0 0 1 6,375.5 L6,172.5 A2.5,2.5 0 0 1 8.5,170 " fill="none" style="stroke:#000000;stroke-width:1.5;"/><line style="stroke:#000000;stroke-width:1.5;" x1="6" x2="91" y1="192.4883" y2="192.4883"/><text fill="#000000" font-family="sans-serif" font-size="14" font-weight="bold" lengthAdjust="spacing" textLength="72" x="10" y="185.5352">Datatypes</text></g><!--class Type--><g id="elem_Type"><rect codeLine="8" fill="#F1F1F1" height="32" id="Type" rx="2.5" ry="2.5" style="stroke:#181818;stroke-width:0.5;" width="65" x="110.5" y="49"/><ellipse cx="125.5" cy="65" fill="#A9DCDF" rx="11" ry="11" style="stroke:#181818;stroke-width:1.0;"/><path d="M125.3633,60.3481 L124.2095,65.4199 L126.5254,65.4199 Z M123.8691,58.1069 L126.8657,58.1069 L130.2109,70.5 L127.7622,70.5 L126.9985,67.437 L123.7197,67.437 L122.9727,70.5 L120.5239,70.5 Z " fill="#000000"/><text fill="#000000" font-family="sans-serif" font-size="14" font-style="italic" lengthAdjust="spacing" textLength="33" x="139.5" y="70.291">Type</text></g><!--class ModuleDefinition--><g id="elem_ModuleDefinition"><rect codeLine="13" fill="#F1F1F1" height="32" id="ModuleDefinition" rx="2.5" ry="2.5" style="stroke:#181818;stroke-width:0.5;" width="150" x="308" y="49"/><ellipse cx="323" cy="65" fill="#A9DCDF" rx="11" ry="11" style="stroke:#181818;stroke-width:1.0;"/><path d="M322.8633,60.3481 L321.7095,65.4199 L324.0254,65.4199 Z M321.3691,58.1069 L324.3657,58.1069 L327.7109,70.5 L325.2622,70.5 L324.4985,67.437 L321.2197,67.437 L320.4727,70.5 L318.0239,70.5 Z " fill="#000000"/><text fill="#000000" font-family="sans-serif" font-size="14" font-style="italic" lengthAdjust="spacing" textLength="118" x="337" y="70.291">ModuleDefinition</text></g><!--class Datatype--><g id="elem_Datatype"><rect codeLine="17" fill="#F1F1F1" height="40" id="Datatype" rx="2.5" ry="2.5" style="stroke:#181818;stroke-width:0.5;" width="92" x="362" y="213"/><ellipse cx="377" cy="229" fill="#A9DCDF" rx="11" ry="11" style="stroke:#181818;stroke-width:1.0;"/><path d="M376.8633,224.3481 L375.7095,229.4199 L378.0254,229.4199 Z M375.3691,222.1069 L378.3657,222.1069 L381.7109,234.5 L379.2622,234.5 L378.4985,231.437 L375.2197,231.437 L374.4727,234.5 L372.0239,234.5 Z " fill="#000000"/><text fill="#000000" font-family="sans-serif" font-size="14" font-style="italic" lengthAdjust="spacing" textLength="60" x="391" y="234.291">Datatype</text><line style="stroke:#181818;stroke-width:0.5;" x1="363" x2="453" y1="245" y2="245"/></g><!--class Binary--><g id="elem_Binary"><rect codeLine="21" fill="#F1F1F1" height="40" id="Binary" rx="2.5" ry="2.5" style="stroke:#181818;stroke-width:0.5;" width="74" x="38" y="314"/><ellipse cx="53" cy="330" fill="#ADD1B2" rx="11" ry="11" style="stroke:#181818;stroke-width:1.0;"/><path d="M55.4731,336.1431 Q54.8921,336.4419 54.2529,336.5913 Q53.6138,336.7407 52.9082,336.7407 Q50.4014,336.7407 49.0815,335.0889 Q47.7617,333.437 47.7617,330.3159 Q47.7617,327.1865 49.0815,325.5347 Q50.4014,323.8828 52.9082,323.8828 Q53.6138,323.8828 54.2612,324.0322 Q54.9087,324.1816 55.4731,324.4805 L55.4731,327.2031 Q54.8423,326.6221 54.2488,326.3523 Q53.6553,326.0825 53.0244,326.0825 Q51.6797,326.0825 50.9949,327.1492 Q50.3101,328.2158 50.3101,330.3159 Q50.3101,332.4077 50.9949,333.4744 Q51.6797,334.541 53.0244,334.541 Q53.6553,334.541 54.2488,334.2712 Q54.8423,334.0015 55.4731,333.4204 Z " fill="#000000"/><text fill="#000000" font-family="sans-serif" font-size="14" lengthAdjust="spacing" textLength="42" x="67" y="335.291">Binary</text><line style="stroke:#181818;stroke-width:0.5;" x1="39" x2="111" y1="346" y2="346"/></g><!--class Boolean--><g id="elem_Boolean"><rect codeLine="23" fill="#F1F1F1" height="40" id="Boolean" rx="2.5" ry="2.5" style="stroke:#181818;stroke-width:0.5;" width="87" x="161.5" y="314"/><ellipse cx="176.5" cy="330" fill="#ADD1B2" rx="11" ry="11" style="stroke:#181818;stroke-width:1.0;"/><path d="M178.9731,336.1431 Q178.3921,336.4419 177.7529,336.5913 Q177.1138,336.7407 176.4082,336.7407 Q173.9014,336.7407 172.5815,335.0889 Q171.2617,333.437 171.2617,330.3159 Q171.2617,327.1865 172.5815,325.5347 Q173.9014,323.8828 176.4082,323.8828 Q177.1138,323.8828 177.7612,324.0322 Q178.4087,324.1816 178.9731,324.4805 L178.9731,327.2031 Q178.3423,326.6221 177.7488,326.3523 Q177.1553,326.0825 176.5244,326.0825 Q175.1797,326.0825 174.4949,327.1492 Q173.8101,328.2158 173.8101,330.3159 Q173.8101,332.4077 174.4949,333.4744 Q175.1797,334.541 176.5244,334.541 Q177.1553,334.541 177.7488,334.2712 Q178.3423,334.0015 178.9731,333.4204 Z " fill="#000000"/><text fill="#000000" font-family="sans-serif" font-size="14" lengthAdjust="spacing" textLength="55" x="190.5" y="335.291">Boolean</text><line style="stroke:#181818;stroke-width:0.5;" x1="162.5" x2="247.5" y1="346" y2="346"/></g><!--class Decimal--><g id="elem_Decimal"><rect codeLine="25" fill="#F1F1F1" height="40" id="Decimal" rx="2.5" ry="2.5" style="stroke:#181818;stroke-width:0.5;" width="86" x="298" y="314"/><ellipse cx="313" cy="330" fill="#ADD1B2" rx="11" ry="11" style="stroke:#181818;stroke-width:1.0;"/><path d="M315.4731,336.1431 Q314.8921,336.4419 314.2529,336.5913 Q313.6138,336.7407 312.9082,336.7407 Q310.4014,336.7407 309.0815,335.0889 Q307.7617,333.437 307.7617,330.3159 Q307.7617,327.1865 309.0815,325.5347 Q310.4014,323.8828 312.9082,323.8828 Q313.6138,323.8828 314.2612,324.0322 Q314.9087,324.1816 315.4731,324.4805 L315.4731,327.2031 Q314.8423,326.6221 314.2488,326.3523 Q313.6553,326.0825 313.0244,326.0825 Q311.6797,326.0825 310.9949,327.1492 Q310.3101,328.2158 310.3101,330.3159 Q310.3101,332.4077 310.9949,333.4744 Q311.6797,334.541 313.0244,334.541 Q313.6553,334.541 314.2488,334.2712 Q314.8423,334.0015 315.4731,333.4204 Z " fill="#000000"/><text fill="#000000" font-family="sans-serif" font-size="14" lengthAdjust="spacing" textLength="54" x="327" y="335.291">Decimal</text><line style="stroke:#181818;stroke-width:0.5;" x1="299" x2="383" y1="346" y2="346"/></g><!--class Double--><g id="elem_Double"><rect codeLine="27" fill="#F1F1F1" height="40" id="Double" rx="2.5" ry="2.5" style="stroke:#181818;stroke-width:0.5;" width="81" x="433.5" y="314"/><ellipse cx="448.5" cy="330" fill="#ADD1B2" rx="11" ry="11" style="stroke:#181818;stroke-width:1.0;"/><path d="M450.9731,336.1431 Q450.3921,336.4419 449.7529,336.5913 Q449.1138,336.7407 448.4082,336.7407 Q445.9014,336.7407 444.5815,335.0889 Q443.2617,333.437 443.2617,330.3159 Q443.2617,327.1865 444.5815,325.5347 Q445.9014,323.8828 448.4082,323.8828 Q449.1138,323.8828 449.7612,324.0322 Q450.4087,324.1816 450.9731,324.4805 L450.9731,327.2031 Q450.3423,326.6221 449.7488,326.3523 Q449.1553,326.0825 448.5244,326.0825 Q447.1797,326.0825 446.4949,327.1492 Q445.8101,328.2158 445.8101,330.3159 Q445.8101,332.4077 446.4949,333.4744 Q447.1797,334.541 448.5244,334.541 Q449.1553,334.541 449.7488,334.2712 Q450.3423,334.0015 450.9731,333.4204 Z " fill="#000000"/><text fill="#000000" font-family="sans-serif" font-size="14" lengthAdjust="spacing" textLength="49" x="462.5" y="335.291">Double</text><line style="stroke:#181818;stroke-width:0.5;" x1="434.5" x2="513.5" y1="346" y2="346"/></g><!--class Integer--><g id="elem_Integer"><rect codeLine="29" fill="#F1F1F1" height="40" id="Integer" rx="2.5" ry="2.5" style="stroke:#181818;stroke-width:0.5;" width="81" x="564.5" y="314"/><ellipse cx="579.5" cy="330" fill="#ADD1B2" rx="11" ry="11" style="stroke:#181818;stroke-width:1.0;"/><path d="M581.9731,336.1431 Q581.3921,336.4419 580.7529,336.5913 Q580.1138,336.7407 579.4082,336.7407 Q576.9014,336.7407 575.5815,335.0889 Q574.2617,333.437 574.2617,330.3159 Q574.2617,327.1865 575.5815,325.5347 Q576.9014,323.8828 579.4082,323.8828 Q580.1138,323.8828 580.7612,324.0322 Q581.4087,324.1816 581.9731,324.4805 L581.9731,327.2031 Q581.3423,326.6221 580.7488,326.3523 Q580.1553,326.0825 579.5244,326.0825 Q578.1797,326.0825 577.4949,327.1492 Q576.8101,328.2158 576.8101,330.3159 Q576.8101,332.4077 577.4949,333.4744 Q578.1797,334.541 579.5244,334.541 Q580.1553,334.541 580.7488,334.2712 Q581.3423,334.0015 581.9731,333.4204 Z " fill="#000000"/><text fill="#000000" font-family="sans-serif" font-size="14" lengthAdjust="spacing" textLength="49" x="593.5" y="335.291">Integer</text><line style="stroke:#181818;stroke-width:0.5;" x1="565.5" x2="644.5" y1="346" y2="346"/></g><!--class String--><g id="elem_String"><rect codeLine="31" fill="#F1F1F1" height="40" id="String" rx="2.5" ry="2.5" style="stroke:#181818;stroke-width:0.5;" width="73" x="695.5" y="314"/><ellipse cx="710.5" cy="330" fill="#ADD1B2" rx="11" ry="11" style="stroke:#181818;stroke-width:1.0;"/><path d="M712.9731,336.1431 Q712.3921,336.4419 711.7529,336.5913 Q711.1138,336.7407 710.4082,336.7407 Q707.9014,336.7407 706.5815,335.0889 Q705.2617,333.437 705.2617,330.3159 Q705.2617,327.1865 706.5815,325.5347 Q707.9014,323.8828 710.4082,323.8828 Q711.1138,323.8828 711.7612,324.0322 Q712.4087,324.1816 712.9731,324.4805 L712.9731,327.2031 Q712.3423,326.6221 711.7488,326.3523 Q711.1553,326.0825 710.5244,326.0825 Q709.1797,326.0825 708.4949,327.1492 Q707.8101,328.2158 707.8101,330.3159 Q707.8101,332.4077 708.4949,333.4744 Q709.1797,334.541 710.5244,334.541 Q711.1553,334.541 711.7488,334.2712 Q712.3423,334.0015 712.9731,333.4204 Z " fill="#000000"/><text fill="#000000" font-family="sans-serif" font-size="14" lengthAdjust="spacing" textLength="41" x="724.5" y="335.291">String</text><line style="stroke:#181818;stroke-width:0.5;" x1="696.5" x2="767.5" y1="346" y2="346"/></g><!--class Unsigned--><g id="elem_Unsigned"><rect codeLine="33" fill="#F1F1F1" height="40" id="Unsigned" rx="2.5" ry="2.5" style="stroke:#181818;stroke-width:0.5;" width="97" x="818.5" y="314"/><ellipse cx="833.5" cy="330" fill="#ADD1B2" rx="11" ry="11" style="stroke:#181818;stroke-width:1.0;"/><path d="M835.9731,336.1431 Q835.3921,336.4419 834.7529,336.5913 Q834.1138,336.7407 833.4082,336.7407 Q830.9014,336.7407 829.5815,335.0889 Q828.2617,333.437 828.2617,330.3159 Q828.2617,327.1865 829.5815,325.5347 Q830.9014,323.8828 833.4082,323.8828 Q834.1138,323.8828 834.7612,324.0322 Q835.4087,324.1816 835.9731,324.4805 L835.9731,327.2031 Q835.3423,326.6221 834.7488,326.3523 Q834.1553,326.0825 833.5244,326.0825 Q832.1797,326.0825 831.4949,327.1492 Q830.8101,328.2158 830.8101,330.3159 Q830.8101,332.4077 831.4949,333.4744 Q832.1797,334.541 833.5244,334.541 Q834.1553,334.541 834.7488,334.2712 Q835.3423,334.0015 835.9731,333.4204 Z " fill="#000000"/><text fill="#000000" font-family="sans-serif" font-size="14" lengthAdjust="spacing" textLength="65" x="847.5" y="335.291">Unsigned</text><line style="stroke:#181818;stroke-width:0.5;" x1="819.5" x2="914.5" y1="346" y2="346"/></g><!--class Uri--><g id="elem_Uri"><rect codeLine="35" fill="#F1F1F1" height="40" id="Uri" rx="2.5" ry="2.5" style="stroke:#181818;stroke-width:0.5;" width="52" x="965" y="314"/><ellipse cx="980" cy="330" fill="#ADD1B2" rx="11" ry="11" style="stroke:#181818;stroke-width:1.0;"/><path d="M982.4731,336.1431 Q981.8921,336.4419 981.2529,336.5913 Q980.6138,336.7407 979.9082,336.7407 Q977.4014,336.7407 976.0815,335.0889 Q974.7617,333.437 974.7617,330.3159 Q974.7617,327.1865 976.0815,325.5347 Q977.4014,323.8828 979.9082,323.8828 Q980.6138,323.8828 981.2612,324.0322 Q981.9087,324.1816 982.4731,324.4805 L982.4731,327.2031 Q981.8423,326.6221 981.2488,326.3523 Q980.6553,326.0825 980.0244,326.0825 Q978.6797,326.0825 977.9949,327.1492 Q977.3101,328.2158 977.3101,330.3159 Q977.3101,332.4077 977.9949,333.4744 Q978.6797,334.541 980.0244,334.541 Q980.6553,334.541 981.2488,334.2712 Q981.8423,334.0015 982.4731,333.4204 Z " fill="#000000"/><text fill="#000000" font-family="sans-serif" font-size="14" lengthAdjust="spacing" textLength="20" x="994" y="335.291">Uri</text><line style="stroke:#181818;stroke-width:0.5;" x1="966" x2="1016" y1="346" y2="346"/></g><!--reverse link Type to Datatype--><g id="link_Type_Datatype"><path codeLine="18" d="M158.4052,97.601 C169.7352,120.851 182,146 182,146 C182,146 358,154 358,154 C358,154 380.83,189.62 395.64,212.72 " fill="none" id="Type-backto-Datatype" style="stroke:#181818;stroke-width:1.0;"/><polygon fill="none" points="150.52,81.42,153.0115,100.2294,163.7988,94.9726,150.52,81.42" style="stroke:#181818;stroke-width:1.0;"/></g><!--reverse link ModuleDefinition to Datatype--><g id="link_ModuleDefinition_Datatype"><path codeLine="19" d="M387.991,99.1192 C392.561,129.4592 400.07,179.33 405.09,212.67 " fill="none" id="ModuleDefinition-backto-Datatype" style="stroke:#181818;stroke-width:1.0;"/><polygon fill="none" points="385.31,81.32,382.058,100.0129,393.9241,98.2255,385.31,81.32" style="stroke:#181818;stroke-width:1.0;"/></g><!--reverse link Datatype to Binary--><g id="link_Datatype_Binary"><path codeLine="22" d="M344.7863,258.0566 C344.7863,258.0566 137,314 137,314 C137,314 125.55,317.51 112.5,321.51 " fill="none" id="Datatype-backto-Binary" style="stroke:#181818;stroke-width:1.0;"/><polygon fill="none" points="361.6,251.63,342.6441,252.452,346.9285,263.6611,361.6,251.63" style="stroke:#181818;stroke-width:1.0;"/></g><!--reverse link Datatype to Boolean--><g id="link_Datatype_Boolean"><path codeLine="24" d="M352.2013,261.2097 C316.5413,278.5997 280.6,296.13 244.87,313.56 " fill="none" id="Datatype-backto-Boolean" style="stroke:#181818;stroke-width:1.0;"/><polygon fill="none" points="368.38,253.32,349.5713,255.8168,354.8312,266.6027,368.38,253.32" style="stroke:#181818;stroke-width:1.0;"/></g><!--reverse link Datatype to Decimal--><g id="link_Datatype_Decimal"><path codeLine="26" d="M384.991,267.9968 C373.201,285.4168 365.95,296.13 354.11,313.63 " fill="none" id="Datatype-backto-Decimal" style="stroke:#181818;stroke-width:1.0;"/><polygon fill="none" points="395.08,253.09,380.0221,264.6338,389.9599,271.3598,395.08,253.09" style="stroke:#181818;stroke-width:1.0;"/></g><!--reverse link Datatype to Double--><g id="link_Datatype_Double"><path codeLine="28" d="M430.7126,268.0682 C442.3226,285.4882 449.42,296.13 461.09,313.63 " fill="none" id="Datatype-backto-Double" style="stroke:#181818;stroke-width:1.0;"/><polygon fill="none" points="420.73,253.09,425.7199,271.3958,435.7054,264.7407,420.73,253.09" style="stroke:#181818;stroke-width:1.0;"/></g><!--reverse link Datatype to Integer--><g id="link_Datatype_Integer"><path codeLine="30" d="M462.5329,261.4033 C497.1329,278.7933 531.64,296.13 566.31,313.56 " fill="none" id="Datatype-backto-Integer" style="stroke:#181818;stroke-width:1.0;"/><polygon fill="none" points="446.45,253.32,459.8385,266.7643,465.2274,256.0423,446.45,253.32" style="stroke:#181818;stroke-width:1.0;"/></g><!--reverse link Datatype to String--><g id="link_Datatype_String"><path codeLine="32" d="M471.6315,253.3565 C547.1415,276.3165 671,314 671,314 C671,314 682.26,317.51 695.11,321.51 " fill="none" id="Datatype-backto-String" style="stroke:#181818;stroke-width:1.0;"/><polygon fill="none" points="454.41,248.12,469.886,259.097,473.377,247.616,454.41,248.12" style="stroke:#181818;stroke-width:1.0;"/></g><!--reverse link Datatype to Unsigned--><g id="link_Datatype_Unsigned"><path codeLine="34" d="M471.8055,247.2224 C574.2555,268.4524 794,314 794,314 C794,314 804.92,316.84 818.31,320.33 " fill="none" id="Datatype-backto-Unsigned" style="stroke:#181818;stroke-width:1.0;"/><polygon fill="none" points="454.18,243.57,470.5881,253.0976,473.023,241.3472,454.18,243.57" style="stroke:#181818;stroke-width:1.0;"/></g><!--reverse link Datatype to Uri--><g id="link_Datatype_Uri"><path codeLine="36" d="M472.0799,243.6362 C601.5099,263.0962 940,314 940,314 C940,314 952.16,318.53 964.6,323.17 " fill="none" id="Datatype-backto-Uri" style="stroke:#181818;stroke-width:1.0;"/><polygon fill="none" points="454.28,240.96,471.1879,249.5696,472.972,237.7029,454.28,240.96" style="stroke:#181818;stroke-width:1.0;"/></g><!--reverse link Foundation to Datatypes--><g id="link_Foundation_Datatypes"><path codeLine="39" d="M49.3344,88.3488 C49.2028,88.6246 51.4579,83.8994 51.3242,84.1795 C50.7895,85.3 50.2383,86.4549 49.673,87.6394 C48.5425,90.0082 47.3557,92.4948 46.1323,95.0581 C43.6855,100.1848 41.0922,105.6184 38.5088,111.0313 C28.175,132.6825 18,154 18,154 C18,154 17.7575,158.7238 17.3919,165.8463 C17.3462,166.7366 17.2985,167.6644 17.2492,168.6251 C17.2369,168.8653 17.2245,169.1075 17.2119,169.3517 C17.2057,169.4739 17.1994,169.5965 17.193,169.7196 " fill="none" id="Foundation-backto-Datatypes" style="stroke:#181818;stroke-width:1.0;stroke-dasharray:7.0,7.0;"/><polygon fill="#181818" points="51.9187,82.9339,44.4323,89.3335,49.7651,87.4464,51.6523,92.7791,51.9187,82.9339" style="stroke:#181818;stroke-width:1.0;"/><text fill="#000000" font-family="sans-serif" font-size="13" lengthAdjust="spacing" textLength="56" x="31" y="142.5684">&#171;import&#187;</text></g><!--reverse link Modules to Datatypes--><g id="link_Modules_Datatypes"><path codeLine="40" d="M245.3735,77.2056 C244.696,77.8066 248.2227,74.6782 247.4856,75.332 C241.5888,80.5628 233.9025,87.3806 226.275,94.1463 C211.02,107.6775 196,121 196,121 C196,121 100,146 100,146 C100,146 18,154 18,154 C18,154 17.7575,158.7238 17.3919,165.8463 C17.3462,166.7366 17.2985,167.6644 17.2492,168.6251 C17.2369,168.8653 17.2245,169.1075 17.2119,169.3517 C17.2057,169.4739 17.1994,169.5965 17.193,169.7196 " fill="none" id="Modules-backto-Datatypes" style="stroke:#181818;stroke-width:1.0;stroke-dasharray:7.0,7.0;"/><polygon fill="#181818" points="249.8621,73.224,240.4749,76.204,246.1216,76.542,245.7837,82.1887,249.8621,73.224" style="stroke:#181818;stroke-width:1.0;"/><text fill="#000000" font-family="sans-serif" font-size="13" lengthAdjust="spacing" textLength="56" x="165" y="142.5684">&#171;import&#187;</text></g><!--SRC=[ZP91RiCW44Ntd88B9EgccohoehKgTT5LsWECpTGP1Gy8yC9AS_SQ6nmtQQnwOUdpt_y30dyajk2WbHNKnyQPZjMBqSR9u83zO247uMTA4sFeBKfhT1_5mcEZqAELZm_YG0fbY-5Wb1V23jNGe7oDxH38i3m9ENm9QojqVbo0oWzpwo1h3TxBZpZfT1RdIyUxKPr6_y-2YIxnYvYckR_AIWWGJvFhhjBPZgbepthJsSrtCMxlJ-Dwx0YDlwducHXSdskJIjdSjSIDqGWyyqdU3vHOKmjwtdUIAm7JLVfopadTnzyuO8CkuKcjyFlWY9k4JsA5_cHF3QDAV9Ph2KSPTdJ33HT-kUXjPxV5uYK-oTsEMcjSA8eRB3ss9VC3]--></g></svg>