<?xml version="1.0" encoding="us-ascii" standalone="no"?><svg xmlns="http://www.w3.org/2000/svg" xmlns:xlink="http://www.w3.org/1999/xlink" contentStyleType="text/css" height="736px" preserveAspectRatio="none" style="width:2731px;height:736px;" version="1.1" viewBox="0 0 2731 736" width="2731px" zoomAndPan="magnify"><defs/><g><!--cluster Foundation--><g id="cluster_Foundation"><path d="M8.5,41 L90.5,41 A3.75,3.75 0 0 1 93,43.5 L100,63.4883 L165.5,63.4883 A2.5,2.5 0 0 1 168,65.9883 L168,137.5 A2.5,2.5 0 0 1 165.5,140 L8.5,140 A2.5,2.5 0 0 1 6,137.5 L6,43.5 A2.5,2.5 0 0 1 8.5,41 " fill="none" style="stroke:#000000;stroke-width:1.5;"/><line style="stroke:#000000;stroke-width:1.5;" x1="6" x2="100" y1="63.4883" y2="63.4883"/><text fill="#000000" font-family="sans-serif" font-size="14" font-weight="bold" lengthAdjust="spacing" textLength="81" x="10" y="56.5352">Foundation</text></g><!--cluster Constraints--><g id="cluster_Constraints"><path d="M202.5,6 L287.5,6 A3.75,3.75 0 0 1 290,8.5 L297,28.4883 L2721.5,28.4883 A2.5,2.5 0 0 1 2724,30.9883 L2724,726.94 A2.5,2.5 0 0 1 2721.5,729.44 L202.5,729.44 A2.5,2.5 0 0 1 200,726.94 L200,8.5 A2.5,2.5 0 0 1 202.5,6 " fill="none" style="stroke:#000000;stroke-width:1.5;"/><line style="stroke:#000000;stroke-width:1.5;" x1="200" x2="297" y1="28.4883" y2="28.4883"/><text fill="#000000" font-family="sans-serif" font-size="14" font-weight="bold" lengthAdjust="spacing" textLength="84" x="204" y="21.5352">Constraints</text></g><!--cluster Terms--><g id="cluster_Terms"><path d="M226.5,49 L273.5,49 A3.75,3.75 0 0 1 276,51.5 L283,71.4883 L321.5,71.4883 A2.5,2.5 0 0 1 324,73.9883 L324,129.5 A2.5,2.5 0 0 1 321.5,132 L226.5,132 A2.5,2.5 0 0 1 224,129.5 L224,51.5 A2.5,2.5 0 0 1 226.5,49 " fill="none" style="stroke:#000000;stroke-width:1.5;"/><line style="stroke:#000000;stroke-width:1.5;" x1="224" x2="283" y1="71.4883" y2="71.4883"/><text fill="#000000" font-family="sans-serif" font-size="14" font-weight="bold" lengthAdjust="spacing" textLength="46" x="228" y="64.5352">Terms</text></g><!--cluster Sentences--><g id="cluster_Sentences"><path d="M234.5,205 L306.5,205 A3.75,3.75 0 0 1 309,207.5 L316,227.4883 L2689.5,227.4883 A2.5,2.5 0 0 1 2692,229.9883 L2692,694.94 A2.5,2.5 0 0 1 2689.5,697.44 L234.5,697.44 A2.5,2.5 0 0 1 232,694.94 L232,207.5 A2.5,2.5 0 0 1 234.5,205 " fill="none" style="stroke:#000000;stroke-width:1.5;"/><line style="stroke:#000000;stroke-width:1.5;" x1="232" x2="316" y1="227.4883" y2="227.4883"/><text fill="#000000" font-family="sans-serif" font-size="14" font-weight="bold" lengthAdjust="spacing" textLength="71" x="236" y="220.5352">Sentences</text></g><!--class Named--><g id="elem_Named"><rect codeLine="8" fill="#F1F1F1" height="32" id="Named" rx="2.5" ry="2.5" style="stroke:#181818;stroke-width:0.5;" width="80" x="30" y="84"/><ellipse cx="45" cy="100" fill="#A9DCDF" rx="11" ry="11" style="stroke:#181818;stroke-width:1.0;"/><path d="M44.8633,95.3481 L43.7095,100.4199 L46.0254,100.4199 Z M43.3691,93.1069 L46.3657,93.1069 L49.7109,105.5 L47.2622,105.5 L46.4985,102.437 L43.2197,102.437 L42.4727,105.5 L40.0239,105.5 Z " fill="#000000"/><text fill="#000000" font-family="sans-serif" font-size="14" font-style="italic" lengthAdjust="spacing" textLength="48" x="59" y="105.291">Named</text></g><!--class Term--><g id="elem_Term"><rect codeLine="14" fill="#F1F1F1" height="32" id="Term" rx="2.5" ry="2.5" style="stroke:#181818;stroke-width:0.5;" width="68" x="240" y="84"/><ellipse cx="255" cy="100" fill="#A9DCDF" rx="11" ry="11" style="stroke:#181818;stroke-width:1.0;"/><path d="M254.8633,95.3481 L253.7095,100.4199 L256.0254,100.4199 Z M253.3691,93.1069 L256.3657,93.1069 L259.7109,105.5 L257.2622,105.5 L256.4985,102.437 L253.2197,102.437 L252.4727,105.5 L250.0239,105.5 Z " fill="#000000"/><text fill="#000000" font-family="sans-serif" font-size="14" font-style="italic" lengthAdjust="spacing" textLength="36" x="269" y="105.291">Term</text></g><!--class Sentence--><g id="elem_Sentence"><rect codeLine="17" fill="#F1F1F1" height="40" id="Sentence" rx="2.5" ry="2.5" style="stroke:#181818;stroke-width:0.5;" width="94" x="1169" y="248"/><ellipse cx="1184" cy="264" fill="#A9DCDF" rx="11" ry="11" style="stroke:#181818;stroke-width:1.0;"/><path d="M1183.8633,259.3481 L1182.7095,264.4199 L1185.0254,264.4199 Z M1182.3691,257.1069 L1185.3657,257.1069 L1188.7109,269.5 L1186.2622,269.5 L1185.4985,266.437 L1182.2197,266.437 L1181.4727,269.5 L1179.0239,269.5 Z " fill="#000000"/><text fill="#000000" font-family="sans-serif" font-size="14" font-style="italic" lengthAdjust="spacing" textLength="62" x="1198" y="269.291">Sentence</text><line style="stroke:#181818;stroke-width:0.5;" x1="1170" x2="1262" y1="280" y2="280"/></g><!--class Simple--><g id="elem_Simple"><rect codeLine="21" fill="#F1F1F1" height="40" id="Simple" rx="2.5" ry="2.5" style="stroke:#181818;stroke-width:0.5;" width="78" x="2046" y="357.24"/><ellipse cx="2061" cy="373.24" fill="#A9DCDF" rx="11" ry="11" style="stroke:#181818;stroke-width:1.0;"/><path d="M2060.8633,368.5881 L2059.7095,373.6599 L2062.0254,373.6599 Z M2059.3691,366.3469 L2062.3657,366.3469 L2065.7109,378.74 L2063.2622,378.74 L2062.4985,375.677 L2059.2197,375.677 L2058.4727,378.74 L2056.0239,378.74 Z " fill="#000000"/><text fill="#000000" font-family="sans-serif" font-size="14" font-style="italic" lengthAdjust="spacing" textLength="46" x="2075" y="378.531">Simple</text><line style="stroke:#181818;stroke-width:0.5;" x1="2047" x2="2123" y1="389.24" y2="389.24"/></g><!--class Boolean--><g id="elem_Boolean"><rect codeLine="22" fill="#F1F1F1" height="40" id="Boolean" rx="2.5" ry="2.5" style="stroke:#181818;stroke-width:0.5;" width="87" x="1172.5" y="357.24"/><ellipse cx="1187.5" cy="373.24" fill="#A9DCDF" rx="11" ry="11" style="stroke:#181818;stroke-width:1.0;"/><path d="M1187.3633,368.5881 L1186.2095,373.6599 L1188.5254,373.6599 Z M1185.8691,366.3469 L1188.8657,366.3469 L1192.2109,378.74 L1189.7622,378.74 L1188.9985,375.677 L1185.7197,375.677 L1184.9727,378.74 L1182.5239,378.74 Z " fill="#000000"/><text fill="#000000" font-family="sans-serif" font-size="14" font-style="italic" lengthAdjust="spacing" textLength="55" x="1201.5" y="378.531">Boolean</text><line style="stroke:#181818;stroke-width:0.5;" x1="1173.5" x2="1258.5" y1="389.24" y2="389.24"/></g><!--class Quantified--><g id="elem_Quantified"><rect codeLine="23" fill="#F1F1F1" height="56.4883" id="Quantified" rx="2.5" ry="2.5" style="stroke:#181818;stroke-width:0.5;" width="130" x="460" y="349"/><ellipse cx="486.7" cy="365" fill="#ADD1B2" rx="11" ry="11" style="stroke:#181818;stroke-width:1.0;"/><path d="M489.1731,371.1431 Q488.5921,371.4419 487.9529,371.5913 Q487.3138,371.7407 486.6082,371.7407 Q484.1014,371.7407 482.7815,370.0889 Q481.4617,368.437 481.4617,365.3159 Q481.4617,362.1865 482.7815,360.5347 Q484.1014,358.8828 486.6082,358.8828 Q487.3138,358.8828 487.9612,359.0322 Q488.6087,359.1816 489.1731,359.4805 L489.1731,362.2031 Q488.5423,361.6221 487.9488,361.3523 Q487.3553,361.0825 486.7244,361.0825 Q485.3797,361.0825 484.6949,362.1492 Q484.0101,363.2158 484.0101,365.3159 Q484.0101,367.4077 484.6949,368.4744 Q485.3797,369.541 486.7244,369.541 Q487.3553,369.541 487.9488,369.2712 Q488.5423,369.0015 489.1731,368.4204 Z " fill="#000000"/><text fill="#000000" font-family="sans-serif" font-size="14" lengthAdjust="spacing" textLength="72" x="503.3" y="370.291">Quantified</text><line style="stroke:#181818;stroke-width:0.5;" x1="461" x2="589" y1="381" y2="381"/><ellipse cx="471" cy="394.7441" fill="none" rx="3" ry="3" style="stroke:#038048;stroke-width:1.0;"/><text fill="#000000" font-family="sans-serif" font-size="14" lengthAdjust="spacing" textLength="104" x="480" y="398.5352">body: Sentence</text></g><!--class QuantifiedVariableBinding--><g id="elem_QuantifiedVariableBinding"><rect codeLine="93" fill="#F1F1F1" height="40" id="QuantifiedVariableBinding" rx="2.5" ry="2.5" style="stroke:#181818;stroke-width:0.5;" width="212" x="419" y="482.98"/><ellipse cx="434" cy="498.98" fill="#ADD1B2" rx="11" ry="11" style="stroke:#181818;stroke-width:1.0;"/><path d="M436.4731,505.1231 Q435.8921,505.4219 435.2529,505.5713 Q434.6138,505.7207 433.9082,505.7207 Q431.4014,505.7207 430.0815,504.0689 Q428.7617,502.417 428.7617,499.2959 Q428.7617,496.1665 430.0815,494.5147 Q431.4014,492.8628 433.9082,492.8628 Q434.6138,492.8628 435.2612,493.0122 Q435.9087,493.1616 436.4731,493.4605 L436.4731,496.1831 Q435.8423,495.6021 435.2488,495.3323 Q434.6553,495.0625 434.0244,495.0625 Q432.6797,495.0625 431.9949,496.1292 Q431.3101,497.1958 431.3101,499.2959 Q431.3101,501.3877 431.9949,502.4544 Q432.6797,503.521 434.0244,503.521 Q434.6553,503.521 435.2488,503.2512 Q435.8423,502.9815 436.4731,502.4004 Z " fill="#000000"/><text fill="#000000" font-family="sans-serif" font-size="14" lengthAdjust="spacing" textLength="180" x="448" y="504.271">QuantifiedVariableBinding</text><line style="stroke:#181818;stroke-width:0.5;" x1="420" x2="630" y1="514.98" y2="514.98"/></g><!--class Atomic--><g id="elem_Atomic"><rect codeLine="32" fill="#F1F1F1" height="72.9766" id="Atomic" rx="2.5" ry="2.5" style="stroke:#181818;stroke-width:0.5;" width="172" x="2185" y="466.49"/><ellipse cx="2242.75" cy="482.49" fill="#ADD1B2" rx="11" ry="11" style="stroke:#181818;stroke-width:1.0;"/><path d="M2245.2231,488.6331 Q2244.6421,488.9319 2244.0029,489.0813 Q2243.3638,489.2307 2242.6582,489.2307 Q2240.1514,489.2307 2238.8315,487.5789 Q2237.5117,485.927 2237.5117,482.8059 Q2237.5117,479.6765 2238.8315,478.0247 Q2240.1514,476.3728 2242.6582,476.3728 Q2243.3638,476.3728 2244.0112,476.5222 Q2244.6587,476.6716 2245.2231,476.9705 L2245.2231,479.6931 Q2244.5923,479.1121 2243.9988,478.8423 Q2243.4053,478.5725 2242.7744,478.5725 Q2241.4297,478.5725 2240.7449,479.6392 Q2240.0601,480.7058 2240.0601,482.8059 Q2240.0601,484.8977 2240.7449,485.9644 Q2241.4297,487.031 2242.7744,487.031 Q2243.4053,487.031 2243.9988,486.7612 Q2244.5923,486.4915 2245.2231,485.9104 Z " fill="#000000"/><text fill="#000000" font-family="sans-serif" font-size="14" lengthAdjust="spacing" textLength="48" x="2263.25" y="487.781">Atomic</text><line style="stroke:#181818;stroke-width:0.5;" x1="2186" x2="2356" y1="498.49" y2="498.49"/><ellipse cx="2196" cy="512.2341" fill="none" rx="3" ry="3" style="stroke:#038048;stroke-width:1.0;"/><text fill="#000000" font-family="sans-serif" font-size="14" lengthAdjust="spacing" textLength="108" x="2205" y="516.0252">predicate: Term</text><ellipse cx="2196" cy="528.7224" fill="none" rx="3" ry="3" style="stroke:#038048;stroke-width:1.0;"/><text fill="#000000" font-family="sans-serif" font-size="14" lengthAdjust="spacing" textLength="146" x="2205" y="532.5134">arguments: 0..* Term</text></g><!--class Relational--><g id="elem_Relational"><rect codeLine="36" fill="#F1F1F1" height="72.9766" id="Relational" rx="2.5" ry="2.5" style="stroke:#181818;stroke-width:0.5;" width="100" x="2035" y="466.49"/><ellipse cx="2050" cy="482.49" fill="#A9DCDF" rx="11" ry="11" style="stroke:#181818;stroke-width:1.0;"/><path d="M2049.8633,477.8381 L2048.7095,482.9099 L2051.0254,482.9099 Z M2048.3691,475.5969 L2051.3657,475.5969 L2054.7109,487.99 L2052.2622,487.99 L2051.4985,484.927 L2048.2197,484.927 L2047.4727,487.99 L2045.0239,487.99 Z " fill="#000000"/><text fill="#000000" font-family="sans-serif" font-size="14" font-style="italic" lengthAdjust="spacing" textLength="68" x="2064" y="487.781">Relational</text><line style="stroke:#181818;stroke-width:0.5;" x1="2036" x2="2134" y1="498.49" y2="498.49"/><ellipse cx="2046" cy="512.2341" fill="none" rx="3" ry="3" style="stroke:#038048;stroke-width:1.0;"/><text fill="#000000" font-family="sans-serif" font-size="14" lengthAdjust="spacing" textLength="64" x="2055" y="516.0252">lhs: Term</text><ellipse cx="2046" cy="528.7224" fill="none" rx="3" ry="3" style="stroke:#038048;stroke-width:1.0;"/><text fill="#000000" font-family="sans-serif" font-size="14" lengthAdjust="spacing" textLength="66" x="2055" y="532.5134">rhs: Term</text></g><!--class Equation--><g id="elem_Equation"><rect codeLine="41" fill="#F1F1F1" height="40" id="Equation" rx="2.5" ry="2.5" style="stroke:#181818;stroke-width:0.5;" width="93" x="2038.5" y="616.95"/><ellipse cx="2053.5" cy="632.95" fill="#ADD1B2" rx="11" ry="11" style="stroke:#181818;stroke-width:1.0;"/><path d="M2055.9731,639.0931 Q2055.3921,639.3919 2054.7529,639.5413 Q2054.1138,639.6907 2053.4082,639.6907 Q2050.9014,639.6907 2049.5815,638.0389 Q2048.2617,636.387 2048.2617,633.2659 Q2048.2617,630.1365 2049.5815,628.4847 Q2050.9014,626.8328 2053.4082,626.8328 Q2054.1138,626.8328 2054.7612,626.9822 Q2055.4087,627.1316 2055.9731,627.4305 L2055.9731,630.1531 Q2055.3423,629.5721 2054.7488,629.3023 Q2054.1553,629.0325 2053.5244,629.0325 Q2052.1797,629.0325 2051.4949,630.0992 Q2050.8101,631.1658 2050.8101,633.2659 Q2050.8101,635.3577 2051.4949,636.4244 Q2052.1797,637.491 2053.5244,637.491 Q2054.1553,637.491 2054.7488,637.2212 Q2055.3423,636.9515 2055.9731,636.3704 Z " fill="#000000"/><text fill="#000000" font-family="sans-serif" font-size="14" lengthAdjust="spacing" textLength="61" x="2067.5" y="638.241">Equation</text><line style="stroke:#181818;stroke-width:0.5;" x1="2039.5" x2="2130.5" y1="648.95" y2="648.95"/></g><!--class StrictInequation--><g id="elem_StrictInequation"><rect codeLine="42" fill="#F1F1F1" height="40" id="StrictInequation" rx="2.5" ry="2.5" style="stroke:#181818;stroke-width:0.5;" width="141" x="2181.5" y="616.95"/><ellipse cx="2196.5" cy="632.95" fill="#ADD1B2" rx="11" ry="11" style="stroke:#181818;stroke-width:1.0;"/><path d="M2198.9731,639.0931 Q2198.3921,639.3919 2197.7529,639.5413 Q2197.1138,639.6907 2196.4082,639.6907 Q2193.9014,639.6907 2192.5815,638.0389 Q2191.2617,636.387 2191.2617,633.2659 Q2191.2617,630.1365 2192.5815,628.4847 Q2193.9014,626.8328 2196.4082,626.8328 Q2197.1138,626.8328 2197.7612,626.9822 Q2198.4087,627.1316 2198.9731,627.4305 L2198.9731,630.1531 Q2198.3423,629.5721 2197.7488,629.3023 Q2197.1553,629.0325 2196.5244,629.0325 Q2195.1797,629.0325 2194.4949,630.0992 Q2193.8101,631.1658 2193.8101,633.2659 Q2193.8101,635.3577 2194.4949,636.4244 Q2195.1797,637.491 2196.5244,637.491 Q2197.1553,637.491 2197.7488,637.2212 Q2198.3423,636.9515 2198.9731,636.3704 Z " fill="#000000"/><text fill="#000000" font-family="sans-serif" font-size="14" lengthAdjust="spacing" textLength="109" x="2210.5" y="638.241">StrictInequation</text><line style="stroke:#181818;stroke-width:0.5;" x1="2182.5" x2="2321.5" y1="648.95" y2="648.95"/></g><!--class LessThan--><g id="elem_LessThan"><rect codeLine="43" fill="#F1F1F1" height="40" id="LessThan" rx="2.5" ry="2.5" style="stroke:#181818;stroke-width:0.5;" width="96" x="2372" y="616.95"/><ellipse cx="2387" cy="632.95" fill="#ADD1B2" rx="11" ry="11" style="stroke:#181818;stroke-width:1.0;"/><path d="M2389.4731,639.0931 Q2388.8921,639.3919 2388.2529,639.5413 Q2387.6138,639.6907 2386.9082,639.6907 Q2384.4014,639.6907 2383.0815,638.0389 Q2381.7617,636.387 2381.7617,633.2659 Q2381.7617,630.1365 2383.0815,628.4847 Q2384.4014,626.8328 2386.9082,626.8328 Q2387.6138,626.8328 2388.2612,626.9822 Q2388.9087,627.1316 2389.4731,627.4305 L2389.4731,630.1531 Q2388.8423,629.5721 2388.2488,629.3023 Q2387.6553,629.0325 2387.0244,629.0325 Q2385.6797,629.0325 2384.9949,630.0992 Q2384.3101,631.1658 2384.3101,633.2659 Q2384.3101,635.3577 2384.9949,636.4244 Q2385.6797,637.491 2387.0244,637.491 Q2387.6553,637.491 2388.2488,637.2212 Q2388.8423,636.9515 2389.4731,636.3704 Z " fill="#000000"/><text fill="#000000" font-family="sans-serif" font-size="14" lengthAdjust="spacing" textLength="64" x="2401" y="638.241">LessThan</text><line style="stroke:#181818;stroke-width:0.5;" x1="2373" x2="2467" y1="648.95" y2="648.95"/></g><!--class LessThanOrEqual--><g id="elem_LessThanOrEqual"><rect codeLine="44" fill="#F1F1F1" height="40" id="LessThanOrEqual" rx="2.5" ry="2.5" style="stroke:#181818;stroke-width:0.5;" width="151" x="2517.5" y="616.95"/><ellipse cx="2532.5" cy="632.95" fill="#ADD1B2" rx="11" ry="11" style="stroke:#181818;stroke-width:1.0;"/><path d="M2534.9731,639.0931 Q2534.3921,639.3919 2533.7529,639.5413 Q2533.1138,639.6907 2532.4082,639.6907 Q2529.9014,639.6907 2528.5815,638.0389 Q2527.2617,636.387 2527.2617,633.2659 Q2527.2617,630.1365 2528.5815,628.4847 Q2529.9014,626.8328 2532.4082,626.8328 Q2533.1138,626.8328 2533.7612,626.9822 Q2534.4087,627.1316 2534.9731,627.4305 L2534.9731,630.1531 Q2534.3423,629.5721 2533.7488,629.3023 Q2533.1553,629.0325 2532.5244,629.0325 Q2531.1797,629.0325 2530.4949,630.0992 Q2529.8101,631.1658 2529.8101,633.2659 Q2529.8101,635.3577 2530.4949,636.4244 Q2531.1797,637.491 2532.5244,637.491 Q2533.1553,637.491 2533.7488,637.2212 Q2534.3423,636.9515 2534.9731,636.3704 Z " fill="#000000"/><text fill="#000000" font-family="sans-serif" font-size="14" lengthAdjust="spacing" textLength="119" x="2546.5" y="638.241">LessThanOrEqual</text><line style="stroke:#181818;stroke-width:0.5;" x1="2518.5" x2="2667.5" y1="648.95" y2="648.95"/></g><!--class GreaterThan--><g id="elem_GreaterThan"><rect codeLine="45" fill="#F1F1F1" height="40" id="GreaterThan" rx="2.5" ry="2.5" style="stroke:#181818;stroke-width:0.5;" width="118" x="1647" y="616.95"/><ellipse cx="1662" cy="632.95" fill="#ADD1B2" rx="11" ry="11" style="stroke:#181818;stroke-width:1.0;"/><path d="M1664.4731,639.0931 Q1663.8921,639.3919 1663.2529,639.5413 Q1662.6138,639.6907 1661.9082,639.6907 Q1659.4014,639.6907 1658.0815,638.0389 Q1656.7617,636.387 1656.7617,633.2659 Q1656.7617,630.1365 1658.0815,628.4847 Q1659.4014,626.8328 1661.9082,626.8328 Q1662.6138,626.8328 1663.2612,626.9822 Q1663.9087,627.1316 1664.4731,627.4305 L1664.4731,630.1531 Q1663.8423,629.5721 1663.2488,629.3023 Q1662.6553,629.0325 1662.0244,629.0325 Q1660.6797,629.0325 1659.9949,630.0992 Q1659.3101,631.1658 1659.3101,633.2659 Q1659.3101,635.3577 1659.9949,636.4244 Q1660.6797,637.491 1662.0244,637.491 Q1662.6553,637.491 1663.2488,637.2212 Q1663.8423,636.9515 1664.4731,636.3704 Z " fill="#000000"/><text fill="#000000" font-family="sans-serif" font-size="14" lengthAdjust="spacing" textLength="86" x="1676" y="638.241">GreaterThan</text><line style="stroke:#181818;stroke-width:0.5;" x1="1648" x2="1764" y1="648.95" y2="648.95"/></g><!--class GreaterThanOrEqual--><g id="elem_GreaterThanOrEqual"><rect codeLine="46" fill="#F1F1F1" height="40" id="GreaterThanOrEqual" rx="2.5" ry="2.5" style="stroke:#181818;stroke-width:0.5;" width="173" x="1815.5" y="616.95"/><ellipse cx="1830.5" cy="632.95" fill="#ADD1B2" rx="11" ry="11" style="stroke:#181818;stroke-width:1.0;"/><path d="M1832.9731,639.0931 Q1832.3921,639.3919 1831.7529,639.5413 Q1831.1138,639.6907 1830.4082,639.6907 Q1827.9014,639.6907 1826.5815,638.0389 Q1825.2617,636.387 1825.2617,633.2659 Q1825.2617,630.1365 1826.5815,628.4847 Q1827.9014,626.8328 1830.4082,626.8328 Q1831.1138,626.8328 1831.7612,626.9822 Q1832.4087,627.1316 1832.9731,627.4305 L1832.9731,630.1531 Q1832.3423,629.5721 1831.7488,629.3023 Q1831.1553,629.0325 1830.5244,629.0325 Q1829.1797,629.0325 1828.4949,630.0992 Q1827.8101,631.1658 1827.8101,633.2659 Q1827.8101,635.3577 1828.4949,636.4244 Q1829.1797,637.491 1830.5244,637.491 Q1831.1553,637.491 1831.7488,637.2212 Q1832.3423,636.9515 1832.9731,636.3704 Z " fill="#000000"/><text fill="#000000" font-family="sans-serif" font-size="14" lengthAdjust="spacing" textLength="141" x="1844.5" y="638.241">GreaterThanOrEqual</text><line style="stroke:#181818;stroke-width:0.5;" x1="1816.5" x2="1987.5" y1="648.95" y2="648.95"/></g><!--class UnaryBoolean--><g id="elem_UnaryBoolean"><rect codeLine="57" fill="#F1F1F1" height="56.4883" id="UnaryBoolean" rx="2.5" ry="2.5" style="stroke:#181818;stroke-width:0.5;" width="127" x="1270.5" y="474.73"/><ellipse cx="1285.5" cy="490.73" fill="#A9DCDF" rx="11" ry="11" style="stroke:#181818;stroke-width:1.0;"/><path d="M1285.3633,486.0781 L1284.2095,491.1499 L1286.5254,491.1499 Z M1283.8691,483.8369 L1286.8657,483.8369 L1290.2109,496.23 L1287.7622,496.23 L1286.9985,493.167 L1283.7197,493.167 L1282.9727,496.23 L1280.5239,496.23 Z " fill="#000000"/><text fill="#000000" font-family="sans-serif" font-size="14" font-style="italic" lengthAdjust="spacing" textLength="95" x="1299.5" y="496.021">UnaryBoolean</text><line style="stroke:#181818;stroke-width:0.5;" x1="1271.5" x2="1396.5" y1="506.73" y2="506.73"/><ellipse cx="1281.5" cy="520.4741" fill="none" rx="3" ry="3" style="stroke:#038048;stroke-width:1.0;"/><text fill="#000000" font-family="sans-serif" font-size="14" lengthAdjust="spacing" textLength="92" x="1290.5" y="524.2652">rhs: Sentence</text></g><!--class BinaryBoolean--><g id="elem_BinaryBoolean"><rect codeLine="60" fill="#F1F1F1" height="72.9766" id="BinaryBoolean" rx="2.5" ry="2.5" style="stroke:#181818;stroke-width:0.5;" width="129" x="1062.5" y="466.49"/><ellipse cx="1077.5" cy="482.49" fill="#A9DCDF" rx="11" ry="11" style="stroke:#181818;stroke-width:1.0;"/><path d="M1077.3633,477.8381 L1076.2095,482.9099 L1078.5254,482.9099 Z M1075.8691,475.5969 L1078.8657,475.5969 L1082.2109,487.99 L1079.7622,487.99 L1078.9985,484.927 L1075.7197,484.927 L1074.9727,487.99 L1072.5239,487.99 Z " fill="#000000"/><text fill="#000000" font-family="sans-serif" font-size="14" font-style="italic" lengthAdjust="spacing" textLength="97" x="1091.5" y="487.781">BinaryBoolean</text><line style="stroke:#181818;stroke-width:0.5;" x1="1063.5" x2="1190.5" y1="498.49" y2="498.49"/><ellipse cx="1073.5" cy="512.2341" fill="none" rx="3" ry="3" style="stroke:#038048;stroke-width:1.0;"/><text fill="#000000" font-family="sans-serif" font-size="14" lengthAdjust="spacing" textLength="90" x="1082.5" y="516.0252">lhs: Sentence</text><ellipse cx="1073.5" cy="528.7224" fill="none" rx="3" ry="3" style="stroke:#038048;stroke-width:1.0;"/><text fill="#000000" font-family="sans-serif" font-size="14" lengthAdjust="spacing" textLength="92" x="1082.5" y="532.5134">rhs: Sentence</text></g><!--class Negation--><g id="elem_Negation"><rect codeLine="68" fill="#F1F1F1" height="40" id="Negation" rx="2.5" ry="2.5" style="stroke:#181818;stroke-width:0.5;" width="94" x="1503" y="616.95"/><ellipse cx="1518" cy="632.95" fill="#ADD1B2" rx="11" ry="11" style="stroke:#181818;stroke-width:1.0;"/><path d="M1520.4731,639.0931 Q1519.8921,639.3919 1519.2529,639.5413 Q1518.6138,639.6907 1517.9082,639.6907 Q1515.4014,639.6907 1514.0815,638.0389 Q1512.7617,636.387 1512.7617,633.2659 Q1512.7617,630.1365 1514.0815,628.4847 Q1515.4014,626.8328 1517.9082,626.8328 Q1518.6138,626.8328 1519.2612,626.9822 Q1519.9087,627.1316 1520.4731,627.4305 L1520.4731,630.1531 Q1519.8423,629.5721 1519.2488,629.3023 Q1518.6553,629.0325 1518.0244,629.0325 Q1516.6797,629.0325 1515.9949,630.0992 Q1515.3101,631.1658 1515.3101,633.2659 Q1515.3101,635.3577 1515.9949,636.4244 Q1516.6797,637.491 1518.0244,637.491 Q1518.6553,637.491 1519.2488,637.2212 Q1519.8423,636.9515 1520.4731,636.3704 Z " fill="#000000"/><text fill="#000000" font-family="sans-serif" font-size="14" lengthAdjust="spacing" textLength="62" x="1532" y="638.241">Negation</text><line style="stroke:#181818;stroke-width:0.5;" x1="1504" x2="1596" y1="648.95" y2="648.95"/></g><!--class Conjunction--><g id="elem_Conjunction"><rect codeLine="71" fill="#F1F1F1" height="40" id="Conjunction" rx="2.5" ry="2.5" style="stroke:#181818;stroke-width:0.5;" width="116" x="1337" y="616.95"/><ellipse cx="1352" cy="632.95" fill="#ADD1B2" rx="11" ry="11" style="stroke:#181818;stroke-width:1.0;"/><path d="M1354.4731,639.0931 Q1353.8921,639.3919 1353.2529,639.5413 Q1352.6138,639.6907 1351.9082,639.6907 Q1349.4014,639.6907 1348.0815,638.0389 Q1346.7617,636.387 1346.7617,633.2659 Q1346.7617,630.1365 1348.0815,628.4847 Q1349.4014,626.8328 1351.9082,626.8328 Q1352.6138,626.8328 1353.2612,626.9822 Q1353.9087,627.1316 1354.4731,627.4305 L1354.4731,630.1531 Q1353.8423,629.5721 1353.2488,629.3023 Q1352.6553,629.0325 1352.0244,629.0325 Q1350.6797,629.0325 1349.9949,630.0992 Q1349.3101,631.1658 1349.3101,633.2659 Q1349.3101,635.3577 1349.9949,636.4244 Q1350.6797,637.491 1352.0244,637.491 Q1352.6553,637.491 1353.2488,637.2212 Q1353.8423,636.9515 1354.4731,636.3704 Z " fill="#000000"/><text fill="#000000" font-family="sans-serif" font-size="14" lengthAdjust="spacing" textLength="84" x="1366" y="638.241">Conjunction</text><line style="stroke:#181818;stroke-width:0.5;" x1="1338" x2="1452" y1="648.95" y2="648.95"/></g><!--class Disjunction--><g id="elem_Disjunction"><rect codeLine="72" fill="#F1F1F1" height="40" id="Disjunction" rx="2.5" ry="2.5" style="stroke:#181818;stroke-width:0.5;" width="109" x="625.5" y="616.95"/><ellipse cx="640.5" cy="632.95" fill="#ADD1B2" rx="11" ry="11" style="stroke:#181818;stroke-width:1.0;"/><path d="M642.9731,639.0931 Q642.3921,639.3919 641.7529,639.5413 Q641.1138,639.6907 640.4082,639.6907 Q637.9014,639.6907 636.5815,638.0389 Q635.2617,636.387 635.2617,633.2659 Q635.2617,630.1365 636.5815,628.4847 Q637.9014,626.8328 640.4082,626.8328 Q641.1138,626.8328 641.7612,626.9822 Q642.4087,627.1316 642.9731,627.4305 L642.9731,630.1531 Q642.3423,629.5721 641.7488,629.3023 Q641.1553,629.0325 640.5244,629.0325 Q639.1797,629.0325 638.4949,630.0992 Q637.8101,631.1658 637.8101,633.2659 Q637.8101,635.3577 638.4949,636.4244 Q639.1797,637.491 640.5244,637.491 Q641.1553,637.491 641.7488,637.2212 Q642.3423,636.9515 642.9731,636.3704 Z " fill="#000000"/><text fill="#000000" font-family="sans-serif" font-size="14" lengthAdjust="spacing" textLength="77" x="654.5" y="638.241">Disjunction</text><line style="stroke:#181818;stroke-width:0.5;" x1="626.5" x2="733.5" y1="648.95" y2="648.95"/></g><!--class ExclusiveDisjunction--><g id="elem_ExclusiveDisjunction"><rect codeLine="73" fill="#F1F1F1" height="40" id="ExclusiveDisjunction" rx="2.5" ry="2.5" style="stroke:#181818;stroke-width:0.5;" width="172" x="785" y="616.95"/><ellipse cx="800" cy="632.95" fill="#ADD1B2" rx="11" ry="11" style="stroke:#181818;stroke-width:1.0;"/><path d="M802.4731,639.0931 Q801.8921,639.3919 801.2529,639.5413 Q800.6138,639.6907 799.9082,639.6907 Q797.4014,639.6907 796.0815,638.0389 Q794.7617,636.387 794.7617,633.2659 Q794.7617,630.1365 796.0815,628.4847 Q797.4014,626.8328 799.9082,626.8328 Q800.6138,626.8328 801.2612,626.9822 Q801.9087,627.1316 802.4731,627.4305 L802.4731,630.1531 Q801.8423,629.5721 801.2488,629.3023 Q800.6553,629.0325 800.0244,629.0325 Q798.6797,629.0325 797.9949,630.0992 Q797.3101,631.1658 797.3101,633.2659 Q797.3101,635.3577 797.9949,636.4244 Q798.6797,637.491 800.0244,637.491 Q800.6553,637.491 801.2488,637.2212 Q801.8423,636.9515 802.4731,636.3704 Z " fill="#000000"/><text fill="#000000" font-family="sans-serif" font-size="14" lengthAdjust="spacing" textLength="140" x="814" y="638.241">ExclusiveDisjunction</text><line style="stroke:#181818;stroke-width:0.5;" x1="786" x2="956" y1="648.95" y2="648.95"/></g><!--class Implication--><g id="elem_Implication"><rect codeLine="74" fill="#F1F1F1" height="40" id="Implication" rx="2.5" ry="2.5" style="stroke:#181818;stroke-width:0.5;" width="108" x="1007" y="616.95"/><ellipse cx="1022" cy="632.95" fill="#ADD1B2" rx="11" ry="11" style="stroke:#181818;stroke-width:1.0;"/><path d="M1024.4731,639.0931 Q1023.8921,639.3919 1023.2529,639.5413 Q1022.6138,639.6907 1021.9082,639.6907 Q1019.4014,639.6907 1018.0815,638.0389 Q1016.7617,636.387 1016.7617,633.2659 Q1016.7617,630.1365 1018.0815,628.4847 Q1019.4014,626.8328 1021.9082,626.8328 Q1022.6138,626.8328 1023.2612,626.9822 Q1023.9087,627.1316 1024.4731,627.4305 L1024.4731,630.1531 Q1023.8423,629.5721 1023.2488,629.3023 Q1022.6553,629.0325 1022.0244,629.0325 Q1020.6797,629.0325 1019.9949,630.0992 Q1019.3101,631.1658 1019.3101,633.2659 Q1019.3101,635.3577 1019.9949,636.4244 Q1020.6797,637.491 1022.0244,637.491 Q1022.6553,637.491 1023.2488,637.2212 Q1023.8423,636.9515 1024.4731,636.3704 Z " fill="#000000"/><text fill="#000000" font-family="sans-serif" font-size="14" lengthAdjust="spacing" textLength="76" x="1036" y="638.241">Implication</text><line style="stroke:#181818;stroke-width:0.5;" x1="1008" x2="1114" y1="648.95" y2="648.95"/></g><!--class Biconditional--><g id="elem_Biconditional"><rect codeLine="75" fill="#F1F1F1" height="40" id="Biconditional" rx="2.5" ry="2.5" style="stroke:#181818;stroke-width:0.5;" width="121" x="1165.5" y="616.95"/><ellipse cx="1180.5" cy="632.95" fill="#ADD1B2" rx="11" ry="11" style="stroke:#181818;stroke-width:1.0;"/><path d="M1182.9731,639.0931 Q1182.3921,639.3919 1181.7529,639.5413 Q1181.1138,639.6907 1180.4082,639.6907 Q1177.9014,639.6907 1176.5815,638.0389 Q1175.2617,636.387 1175.2617,633.2659 Q1175.2617,630.1365 1176.5815,628.4847 Q1177.9014,626.8328 1180.4082,626.8328 Q1181.1138,626.8328 1181.7612,626.9822 Q1182.4087,627.1316 1182.9731,627.4305 L1182.9731,630.1531 Q1182.3423,629.5721 1181.7488,629.3023 Q1181.1553,629.0325 1180.5244,629.0325 Q1179.1797,629.0325 1178.4949,630.0992 Q1177.8101,631.1658 1177.8101,633.2659 Q1177.8101,635.3577 1178.4949,636.4244 Q1179.1797,637.491 1180.5244,637.491 Q1181.1553,637.491 1181.7488,637.2212 Q1182.3423,636.9515 1182.9731,636.3704 Z " fill="#000000"/><text fill="#000000" font-family="sans-serif" font-size="14" lengthAdjust="spacing" textLength="89" x="1194.5" y="638.241">Biconditional</text><line style="stroke:#181818;stroke-width:0.5;" x1="1166.5" x2="1285.5" y1="648.95" y2="648.95"/></g><!--class Quantifier--><g id="elem_Quantifier"><rect codeLine="83" fill="#F1F1F1" height="72.9766" id="Quantifier" rx="2.5" ry="2.5" style="stroke:#181818;stroke-width:0.5;" width="101" x="474.5" y="600.46"/><ellipse cx="489.5" cy="616.46" fill="#EB937F" rx="11" ry="11" style="stroke:#181818;stroke-width:1.0;"/><path d="M493.1143,622.96 L485.3945,622.96 L485.3945,610.5669 L493.1143,610.5669 L493.1143,612.7251 L487.8433,612.7251 L487.8433,615.398 L492.6162,615.398 L492.6162,617.5562 L487.8433,617.5562 L487.8433,620.8018 L493.1143,620.8018 Z " fill="#000000"/><text fill="#000000" font-family="sans-serif" font-size="14" lengthAdjust="spacing" textLength="69" x="503.5" y="621.751">Quantifier</text><line style="stroke:#181818;stroke-width:0.5;" x1="475.5" x2="574.5" y1="632.46" y2="632.46"/><text fill="#000000" font-family="sans-serif" font-size="14" lengthAdjust="spacing" textLength="63" x="480.5" y="649.9952">Universal</text><text fill="#000000" font-family="sans-serif" font-size="14" lengthAdjust="spacing" textLength="71" x="480.5" y="666.4834">Existential</text></g><!--class QuantifiedVariable--><g id="elem_QuantifiedVariable"><rect codeLine="88" fill="#F1F1F1" height="56.4883" id="QuantifiedVariable" rx="2.5" ry="2.5" style="stroke:#181818;stroke-width:0.5;" width="160" x="264" y="608.71"/><ellipse cx="279" cy="624.71" fill="#ADD1B2" rx="11" ry="11" style="stroke:#181818;stroke-width:1.0;"/><path d="M281.4731,630.8531 Q280.8921,631.1519 280.2529,631.3013 Q279.6138,631.4507 278.9082,631.4507 Q276.4014,631.4507 275.0815,629.7989 Q273.7617,628.147 273.7617,625.0259 Q273.7617,621.8965 275.0815,620.2447 Q276.4014,618.5928 278.9082,618.5928 Q279.6138,618.5928 280.2612,618.7422 Q280.9087,618.8916 281.4731,619.1905 L281.4731,621.9131 Q280.8423,621.3321 280.2488,621.0623 Q279.6553,620.7925 279.0244,620.7925 Q277.6797,620.7925 276.9949,621.8592 Q276.3101,622.9258 276.3101,625.0259 Q276.3101,627.1177 276.9949,628.1844 Q277.6797,629.251 279.0244,629.251 Q279.6553,629.251 280.2488,628.9812 Q280.8423,628.7115 281.4731,628.1304 Z " fill="#000000"/><text fill="#000000" font-family="sans-serif" font-size="14" lengthAdjust="spacing" textLength="128" x="293" y="630.001">QuantifiedVariable</text><line style="stroke:#181818;stroke-width:0.5;" x1="265" x2="423" y1="640.71" y2="640.71"/><text fill="#000000" font-family="sans-serif" font-size="14" lengthAdjust="spacing" textLength="109" x="270" y="658.2452">sequence: Term</text></g><g id="elem_qvb_self"><path d="M640.5,349.28 L640.5,405.2116 A0,0 0 0 0 640.5,405.2116 L707.74,405.2116 L562.47,482.66 L715.74,405.2116 L889.5,405.2116 A0,0 0 0 0 889.5,405.2116 L889.5,359.28 L879.5,349.28 L640.5,349.28 A0,0 0 0 0 640.5,349.28 " fill="#FEFFDD" style="stroke:#181818;stroke-width:0.5;"/><path d="M879.5,349.28 L879.5,359.28 L889.5,359.28 L879.5,349.28 " fill="#FEFFDD" style="stroke:#181818;stroke-width:0.5;"/><text fill="#000000" font-family="sans-serif" font-size="13" font-weight="bold" lengthAdjust="spacing" textLength="21" x="646.5" y="366.8484">inv</text><text fill="#000000" font-family="sans-serif" font-size="13" lengthAdjust="spacing" textLength="4" x="667.5" y="366.8484">:</text><text fill="#000000" font-family="sans-serif" font-size="13" lengthAdjust="spacing" textLength="146" x="646.5" y="382.1589">empty(variable) implies</text><text fill="#000000" font-family="sans-serif" font-size="13" lengthAdjust="spacing" textLength="220" x="654.5" y="397.4695">self.sentence.in_constraint.subject</text></g><!--link Sentence to Sentence--><g id="link_Sentence_Sentence"><path codeLine="19" d="M1263.41,258.95 C1289.29,257.34 1313,260.35 1313,268 C1313,275.64 1295.2784,279.0325 1269.3984,277.4225 " fill="none" id="Sentence-to-Sentence" style="stroke:#181818;stroke-width:1.0;"/><polygon fill="#181818" points="1263.41,277.05,1272.1443,281.6011,1268.4004,277.3605,1272.641,273.6165,1263.41,277.05" style="stroke:#181818;stroke-width:1.0;"/><text fill="#000000" font-family="sans-serif" font-size="13" lengthAdjust="spacing" textLength="52" x="1270.9804" y="239.0702">+nested</text><text fill="#000000" font-family="sans-serif" font-size="13" lengthAdjust="spacing" textLength="22" x="1285.9804" y="254.3808">0..*</text><text fill="#000000" font-family="sans-serif" font-size="13" lengthAdjust="spacing" textLength="50" x="1270.8773" y="292.1305">+parent</text><text fill="#000000" font-family="sans-serif" font-size="13" lengthAdjust="spacing" textLength="24" x="1283.8773" y="307.4411">0..1</text></g><!--link Quantified to QuantifiedVariableBinding--><g id="link_Quantified_QuantifiedVariableBinding"><path codeLine="26" d="M525,417.7 C525,441.06 525,456 525,476.66 " fill="none" id="Quantified-QuantifiedVariableBinding" style="stroke:#181818;stroke-width:1.0;"/><polygon fill="#181818" points="525,405.7,521,411.7,525,417.7,529,411.7,525,405.7" style="stroke:#181818;stroke-width:1.0;"/><polygon fill="#181818" points="525,482.66,529,473.66,525,477.66,521,473.66,525,482.66" style="stroke:#181818;stroke-width:1.0;"/><text fill="#000000" font-family="sans-serif" font-size="13" lengthAdjust="spacing" textLength="66" x="451.7813" y="426.1677">+sentence</text><text fill="#000000" font-family="sans-serif" font-size="13" lengthAdjust="spacing" textLength="58" x="458.4813" y="472.1018">+binding</text></g><!--reverse link Sentence to Simple--><g id="link_Sentence_Simple"><path codeLine="28" d="M1281.2044,277.0453 C1435.4444,296.0853 1903.9,353.89 2045.78,371.4 " fill="none" id="Sentence-backto-Simple" style="stroke:#181818;stroke-width:1.0;"/><polygon fill="none" points="1263.34,274.84,1280.4693,283.0001,1281.9395,271.0905,1263.34,274.84" style="stroke:#181818;stroke-width:1.0;"/></g><!--reverse link Sentence to Boolean--><g id="link_Sentence_Boolean"><path codeLine="29" d="M1216,306.17 C1216,325.57 1216,337.4 1216,356.87 " fill="none" id="Sentence-backto-Boolean" style="stroke:#181818;stroke-width:1.0;"/><polygon fill="none" points="1216,288.17,1210,306.17,1222,306.17,1216,288.17" style="stroke:#181818;stroke-width:1.0;"/></g><!--reverse link Sentence to Quantified--><g id="link_Sentence_Quantified"><path codeLine="30" d="M1151.8101,292.9342 C1151.8101,292.9342 616,349 616,349 C616,349 604.75,352.37 590.17,356.73 " fill="none" id="Sentence-backto-Quantified" style="stroke:#181818;stroke-width:1.0;"/><polygon fill="none" points="1168.67,286.63,1149.7087,287.3142,1153.9114,298.5541,1168.67,286.63" style="stroke:#181818;stroke-width:1.0;"/></g><!--reverse link Simple to Atomic--><g id="link_Simple_Atomic"><path codeLine="48" d="M2129.0486,407.547 C2156.5386,425.827 2183.47,443.75 2217.08,466.1 " fill="none" id="Simple-backto-Atomic" style="stroke:#181818;stroke-width:1.0;"/><polygon fill="none" points="2114.06,397.58,2125.7263,412.5432,2132.371,402.5508,2114.06,397.58" style="stroke:#181818;stroke-width:1.0;"/></g><!--reverse link Simple to Relational--><g id="link_Simple_Relational"><path codeLine="49" d="M2085,415.58 C2085,433.93 2085,443.96 2085,466.35 " fill="none" id="Simple-backto-Relational" style="stroke:#181818;stroke-width:1.0;"/><polygon fill="none" points="2085,397.58,2079,415.58,2091,415.58,2085,397.58" style="stroke:#181818;stroke-width:1.0;"/></g><!--reverse link Relational to Equation--><g id="link_Relational_Equation"><path codeLine="50" d="M2085,557.69 C2085,582.42 2085,596.4 2085,616.55 " fill="none" id="Relational-backto-Equation" style="stroke:#181818;stroke-width:1.0;"/><polygon fill="none" points="2085,539.69,2079,557.69,2091,557.69,2085,539.69" style="stroke:#181818;stroke-width:1.0;"/></g><!--reverse link Relational to StrictInequation--><g id="link_Relational_StrictInequation"><path codeLine="51" d="M2144.3136,550.849 C2175.6136,575.579 2201.95,596.4 2227.45,616.55 " fill="none" id="Relational-backto-StrictInequation" style="stroke:#181818;stroke-width:1.0;"/><polygon fill="none" points="2130.19,539.69,2140.5939,555.5569,2148.0333,546.1411,2130.19,539.69" style="stroke:#181818;stroke-width:1.0;"/></g><!--reverse link Relational to LessThan--><g id="link_Relational_LessThan"><path codeLine="52" d="M2151.7109,535.5378 C2165.2809,541.9578 2160,539.46 2160,539.46 C2160,539.46 2347,600.46 2347,600.46 C2347,600.46 2363.04,608.26 2380.08,616.55 " fill="none" id="Relational-backto-LessThan" style="stroke:#181818;stroke-width:1.0;"/><polygon fill="none" points="2135.44,527.84,2149.145,540.9615,2154.2769,530.1142,2135.44,527.84" style="stroke:#181818;stroke-width:1.0;"/></g><!--reverse link Relational to LessThanOrEqual--><g id="link_Relational_LessThanOrEqual"><path codeLine="53" d="M2151.7109,535.5378 C2165.2809,541.9578 2160,539.46 2160,539.46 C2160,539.46 2493,600.46 2493,600.46 C2493,600.46 2514.97,608.26 2538.32,616.55 " fill="none" id="Relational-backto-LessThanOrEqual" style="stroke:#181818;stroke-width:1.0;"/><polygon fill="none" points="2135.44,527.84,2149.145,540.9615,2154.2769,530.1142,2135.44,527.84" style="stroke:#181818;stroke-width:1.0;"/></g><!--reverse link Relational to GreaterThan--><g id="link_Relational_GreaterThan"><path codeLine="54" d="M2017.5121,526.0464 C1933.2621,553.6064 1790,600.46 1790,600.46 C1790,600.46 1771.54,608.26 1751.93,616.55 " fill="none" id="Relational-backto-GreaterThan" style="stroke:#181818;stroke-width:1.0;"/><polygon fill="none" points="2034.62,520.45,2015.6466,520.3437,2019.3775,531.749,2034.62,520.45" style="stroke:#181818;stroke-width:1.0;"/></g><!--reverse link Relational to GreaterThanOrEqual--><g id="link_Relational_GreaterThanOrEqual"><path codeLine="55" d="M2020.8792,550.217 C1986.5792,574.947 1956.84,596.4 1928.9,616.55 " fill="none" id="Relational-backto-GreaterThanOrEqual" style="stroke:#181818;stroke-width:1.0;"/><polygon fill="none" points="2035.48,539.69,2017.3702,545.3501,2024.3883,555.0839,2035.48,539.69" style="stroke:#181818;stroke-width:1.0;"/></g><!--reverse link Boolean to UnaryBoolean--><g id="link_Boolean_UnaryBoolean"><path codeLine="65" d="M1246.8617,410.607 C1266.5617,431.267 1285.55,451.17 1307.81,474.51 " fill="none" id="Boolean-backto-UnaryBoolean" style="stroke:#181818;stroke-width:1.0;"/><polygon fill="none" points="1234.44,397.58,1242.5193,414.7475,1251.204,406.4664,1234.44,397.58" style="stroke:#181818;stroke-width:1.0;"/></g><!--reverse link Boolean to BinaryBoolean--><g id="link_Boolean_BinaryBoolean"><path codeLine="66" d="M1191.5788,412.1921 C1178.3788,430.5421 1168.73,443.96 1152.62,466.35 " fill="none" id="Boolean-backto-BinaryBoolean" style="stroke:#181818;stroke-width:1.0;"/><polygon fill="none" points="1202.09,397.58,1186.7081,408.6884,1196.4495,415.6959,1202.09,397.58" style="stroke:#181818;stroke-width:1.0;"/></g><!--reverse link UnaryBoolean to Negation--><g id="link_UnaryBoolean_Negation"><path codeLine="69" d="M1394.6403,541.0242 C1436.3303,566.4942 1481.74,594.24 1518.41,616.65 " fill="none" id="UnaryBoolean-backto-Negation" style="stroke:#181818;stroke-width:1.0;"/><polygon fill="none" points="1379.28,531.64,1391.5122,546.1442,1397.7683,535.9041,1379.28,531.64" style="stroke:#181818;stroke-width:1.0;"/></g><!--reverse link BinaryBoolean to Conjunction--><g id="link_BinaryBoolean_Conjunction"><path codeLine="77" d="M1208.0274,543.8737 C1259.1474,569.0537 1312.6,595.37 1355.63,616.56 " fill="none" id="BinaryBoolean-backto-Conjunction" style="stroke:#181818;stroke-width:1.0;"/><polygon fill="none" points="1191.88,535.92,1205.3762,549.2561,1210.6786,538.4912,1191.88,535.92" style="stroke:#181818;stroke-width:1.0;"/></g><!--reverse link BinaryBoolean to Disjunction--><g id="link_BinaryBoolean_Disjunction"><path codeLine="78" d="M1044.8216,525.5768 C939.4616,553.2768 760,600.46 760,600.46 C760,600.46 742.42,608.26 723.75,616.55 " fill="none" id="BinaryBoolean-backto-Disjunction" style="stroke:#181818;stroke-width:1.0;"/><polygon fill="none" points="1062.23,521,1043.296,519.774,1046.3472,531.3796,1062.23,521" style="stroke:#181818;stroke-width:1.0;"/></g><!--reverse link BinaryBoolean to ExclusiveDisjunction--><g id="link_BinaryBoolean_ExclusiveDisjunction"><path codeLine="79" d="M1046.071,545.6981 C997.481,570.7481 948.73,595.88 908.47,616.64 " fill="none" id="BinaryBoolean-backto-ExclusiveDisjunction" style="stroke:#181818;stroke-width:1.0;"/><polygon fill="none" points="1062.07,537.45,1043.3216,540.3651,1048.8203,551.0311,1062.07,537.45" style="stroke:#181818;stroke-width:1.0;"/></g><!--reverse link BinaryBoolean to Implication--><g id="link_BinaryBoolean_Implication"><path codeLine="80" d="M1101.0876,555.7884 C1088.7176,580.5184 1080.78,596.4 1070.7,616.55 " fill="none" id="BinaryBoolean-backto-Implication" style="stroke:#181818;stroke-width:1.0;"/><polygon fill="none" points="1109.14,539.69,1095.7214,553.1042,1106.4537,558.4725,1109.14,539.69" style="stroke:#181818;stroke-width:1.0;"/></g><!--reverse link BinaryBoolean to Biconditional--><g id="link_BinaryBoolean_Biconditional"><path codeLine="81" d="M1164.5909,554.0893 C1183.1409,578.8193 1196.33,596.4 1211.45,616.55 " fill="none" id="BinaryBoolean-backto-Biconditional" style="stroke:#181818;stroke-width:1.0;"/><polygon fill="none" points="1153.79,539.69,1159.7912,557.6896,1169.3907,550.489,1153.79,539.69" style="stroke:#181818;stroke-width:1.0;"/></g><!--reverse link Named to QuantifiedVariable--><g id="link_Named_QuantifiedVariable"><path codeLine="91" d="M71.003,134.3118 C72.243,175.4018 75,267 75,267 C75,267 75,267 75,503.98 C75,503.98 208.73,569.59 287.61,608.29 " fill="none" id="Named-backto-QuantifiedVariable" style="stroke:#181818;stroke-width:1.0;"/><polygon fill="none" points="70.46,116.32,65.0057,134.4928,77.0002,134.1308,70.46,116.32" style="stroke:#181818;stroke-width:1.0;"/></g><!--link QuantifiedVariableBinding to Quantifier--><g id="link_QuantifiedVariableBinding_Quantifier"><path codeLine="94" d="M525,535.45 C525,555.6 525,569.52 525,594.22 " fill="none" id="QuantifiedVariableBinding-Quantifier" style="stroke:#181818;stroke-width:1.0;"/><polygon fill="#181818" points="525,523.45,521,529.45,525,535.45,529,529.45,525,523.45" style="stroke:#181818;stroke-width:1.0;"/><polygon fill="#181818" points="525,600.22,529,591.22,525,595.22,521,591.22,525,600.22" style="stroke:#181818;stroke-width:1.0;"/><text fill="#000000" font-family="sans-serif" font-size="13" lengthAdjust="spacing" textLength="71" x="448.1203" y="574.2723">+quantifier</text><text fill="#000000" font-family="sans-serif" font-size="13" lengthAdjust="spacing" textLength="8" x="511.1203" y="589.5828">1</text></g><!--link QuantifiedVariableBinding to QuantifiedVariable--><g id="link_QuantifiedVariableBinding_QuantifiedVariable"><path codeLine="95" d="M488.5933,530.5193 C457.8133,552.9593 421.5477,579.4044 386.7077,604.8144 " fill="none" id="QuantifiedVariableBinding-QuantifiedVariable" style="stroke:#181818;stroke-width:1.0;"/><polygon fill="#181818" points="498.29,523.45,491.0852,523.7524,488.5933,530.5193,495.7981,530.2169,498.29,523.45" style="stroke:#181818;stroke-width:1.0;"/><polygon fill="#181818" points="381.86,608.35,391.4885,606.2784,385.8997,605.4037,386.7744,599.8149,381.86,608.35" style="stroke:#181818;stroke-width:1.0;"/><text fill="#000000" font-family="sans-serif" font-size="13" lengthAdjust="spacing" textLength="59" x="324.4536" y="582.6655">+variable</text><text fill="#000000" font-family="sans-serif" font-size="13" lengthAdjust="spacing" textLength="24" x="359.4536" y="597.9761">0..1</text></g><!--reverse link Foundation to Sentences--><g id="link_Foundation_Sentences"><path codeLine="101" d="M169.2611,144.5777 C169.3264,144.885 168.2425,139.7844 168.3078,140.092 C168.4385,140.707 168.5693,141.3224 168.7,141.9375 C172.8825,161.62 177,181 177,181 C177,181 192.2625,201.8325 207.7625,222.9913 C215.5125,233.5706 223.3219,244.2316 229.3125,252.4108 C230.0613,253.4332 230.7817,254.4168 231.4701,255.3567 C231.6421,255.5916 231.8122,255.8238 231.9802,256.0532 " fill="none" id="Foundation-backto-Sentences" style="stroke:#181818;stroke-width:1.0;stroke-dasharray:7.0,7.0;"/><polygon fill="#181818" points="168.0139,138.7087,165.972,148.3436,169.0532,143.5995,173.7973,146.6807,168.0139,138.7087" style="stroke:#181818;stroke-width:1.0;"/><text fill="#000000" font-family="sans-serif" font-size="13" lengthAdjust="spacing" textLength="56" x="178" y="177.5684">&#171;import&#187;</text></g><!--reverse link Term to Sentences--><g id="link_Term_Sentences"><path codeLine="102" d="M266.8348,122.0094 C258.2448,147.2194 244,189 244,189 C244,189 243.7575,193.7238 243.3919,200.8463 C243.3462,201.7366 243.2985,202.6644 243.2492,203.6251 C243.2369,203.8653 243.2245,204.1075 243.2119,204.3517 C243.2057,204.4739 243.1994,204.5965 243.193,204.7196 " fill="none" id="Term-backto-Sentences" style="stroke:#181818;stroke-width:1.0;stroke-dasharray:7.0,7.0;"/><polygon fill="#181818" points="268.77,116.33,262.081,123.5589,267.1574,121.0628,269.6535,126.1392,268.77,116.33" style="stroke:#181818;stroke-width:1.0;"/><text fill="#000000" font-family="sans-serif" font-size="13" lengthAdjust="spacing" textLength="56" x="253" y="177.5684">&#171;import&#187;</text></g><!--SRC=[ZLRFJzim5Bxdhx1osa3DuB1BXIAjZ4r84zC6x5G9EScZDJXsi9rg5Ul_Fhjn73Ur0pcrxttlUp_jP_bCM8C5hb61o-ULu2shBZdb0Yc1cTGgO2gH3aK90xLj03MSRiqVJyTu1H8QzFaiMPCAK0rgpIkP98scnYj0tmmxLeGpz9eW_LbONO2GUm4kfFPRAbHIB2MwmJLKw7MNx0QIIyuCXZ0bBKklkGDHzx8WUy23iJ4EZ6ftm7Qh4mTMWiyuCkuXXi1Xd30zPI0LL4jsbcKdAPhDSYthAhgNdQSExAoZhaZTKEWZ3G0Md5F0p4TqYbyjPeey4bD8fpBVQS6hxVmuX870CqrFfSMbwAJBf22i8coLUh0_M11SK5XqAgyeNVYpjfdzouzTzi77z5uWCSWewo-ArwGSPzm8g4Y95SptZJzKOh5gQqqhvyWqx10HhVjleFk9ndJiZAvbo8qu4kzYILozjFQqZ9jwgmGfrJM3AE87I7ctnXEQdyBmqsF0Tm6wH29ixIaz0WUoTU-xj6-xKtgr2WDSmbOz60oJDCuy3dKbU1lIfn97-aLv5-fjojX8tJCijkuy1wPduiYERmKomKM3N9DktC-366sAzkzmgia4Q3HMDx0w6cGdiwQ-px6ztWfFBIl3P-4haN7brT-Ijf9iO19rhUVKt1n1vOAKN5zu_JNWbSaFgo-0NnK7z9rF0eFXJbhueKy23zC8GXqMM5iFrx8OZTOzqm4AwSrw5phH-r1RUF9T4brN_J8PSKjzyirKHY_H08FDPV-SUDkXtLv-d-CWkmnVN2cMujnRYUBz51ihNehkRN1iC8JEkD8FZ8iY9snpyQd8vqi6TQEs7tgIZyZSh0JaafcIqSUitzyPOG-bUqDbiYsUe5GfmXAzR8e7Wntyz1AKPVd4dXyQCBoQihRHDiEJRwxZlT11SQ7oF0s2JKD7iDr_]--></g></svg>