<?xml version="1.0" encoding="us-ascii" standalone="no"?><svg xmlns="http://www.w3.org/2000/svg" xmlns:xlink="http://www.w3.org/1999/xlink" contentStyleType="text/css" height="736px" preserveAspectRatio="none" style="width:3058px;height:736px;" version="1.1" viewBox="0 0 3058 736" width="3058px" zoomAndPan="magnify"><defs/><g><!--cluster Foundation--><g id="cluster_Foundation"><path d="M8.5,41 L90.5,41 A3.75,3.75 0 0 1 93,43.5 L100,63.4883 L165.5,63.4883 A2.5,2.5 0 0 1 168,65.9883 L168,137.5 A2.5,2.5 0 0 1 165.5,140 L8.5,140 A2.5,2.5 0 0 1 6,137.5 L6,43.5 A2.5,2.5 0 0 1 8.5,41 " fill="none" style="stroke:#000000;stroke-width:1.5;"/><line style="stroke:#000000;stroke-width:1.5;" x1="6" x2="100" y1="63.4883" y2="63.4883"/><text fill="#000000" font-family="sans-serif" font-size="14" font-weight="bold" lengthAdjust="spacing" textLength="81" x="10" y="56.5352">Foundation</text></g><!--cluster Constraints--><g id="cluster_Constraints"><path d="M202.5,6 L287.5,6 A3.75,3.75 0 0 1 290,8.5 L297,28.4883 L3048.5,28.4883 A2.5,2.5 0 0 1 3051,30.9883 L3051,726.94 A2.5,2.5 0 0 1 3048.5,729.44 L202.5,729.44 A2.5,2.5 0 0 1 200,726.94 L200,8.5 A2.5,2.5 0 0 1 202.5,6 " fill="none" style="stroke:#000000;stroke-width:1.5;"/><line style="stroke:#000000;stroke-width:1.5;" x1="200" x2="297" y1="28.4883" y2="28.4883"/><text fill="#000000" font-family="sans-serif" font-size="14" font-weight="bold" lengthAdjust="spacing" textLength="84" x="204" y="21.5352">Constraints</text></g><!--cluster Terms--><g id="cluster_Terms"><path d="M226.5,49 L273.5,49 A3.75,3.75 0 0 1 276,51.5 L283,71.4883 L321.5,71.4883 A2.5,2.5 0 0 1 324,73.9883 L324,129.5 A2.5,2.5 0 0 1 321.5,132 L226.5,132 A2.5,2.5 0 0 1 224,129.5 L224,51.5 A2.5,2.5 0 0 1 226.5,49 " fill="none" style="stroke:#000000;stroke-width:1.5;"/><line style="stroke:#000000;stroke-width:1.5;" x1="224" x2="283" y1="71.4883" y2="71.4883"/><text fill="#000000" font-family="sans-serif" font-size="14" font-weight="bold" lengthAdjust="spacing" textLength="46" x="228" y="64.5352">Terms</text></g><!--cluster Sentences--><g id="cluster_Sentences"><path d="M234.5,205 L306.5,205 A3.75,3.75 0 0 1 309,207.5 L316,227.4883 L3016.5,227.4883 A2.5,2.5 0 0 1 3019,229.9883 L3019,694.94 A2.5,2.5 0 0 1 3016.5,697.44 L234.5,697.44 A2.5,2.5 0 0 1 232,694.94 L232,207.5 A2.5,2.5 0 0 1 234.5,205 " fill="none" style="stroke:#000000;stroke-width:1.5;"/><line style="stroke:#000000;stroke-width:1.5;" x1="232" x2="316" y1="227.4883" y2="227.4883"/><text fill="#000000" font-family="sans-serif" font-size="14" font-weight="bold" lengthAdjust="spacing" textLength="71" x="236" y="220.5352">Sentences</text></g><!--class Named--><g id="elem_Named"><rect codeLine="8" fill="#F1F1F1" height="32" id="Named" rx="2.5" ry="2.5" style="stroke:#181818;stroke-width:0.5;" width="80" x="30" y="84"/><ellipse cx="45" cy="100" fill="#A9DCDF" rx="11" ry="11" style="stroke:#181818;stroke-width:1.0;"/><path d="M44.8633,95.3481 L43.7095,100.4199 L46.0254,100.4199 Z M43.3691,93.1069 L46.3657,93.1069 L49.7109,105.5 L47.2622,105.5 L46.4985,102.437 L43.2197,102.437 L42.4727,105.5 L40.0239,105.5 Z " fill="#000000"/><text fill="#000000" font-family="sans-serif" font-size="14" font-style="italic" lengthAdjust="spacing" textLength="48" x="59" y="105.291">Named</text></g><!--class Term--><g id="elem_Term"><rect codeLine="14" fill="#F1F1F1" height="32" id="Term" rx="2.5" ry="2.5" style="stroke:#181818;stroke-width:0.5;" width="68" x="240" y="84"/><ellipse cx="255" cy="100" fill="#A9DCDF" rx="11" ry="11" style="stroke:#181818;stroke-width:1.0;"/><path d="M254.8633,95.3481 L253.7095,100.4199 L256.0254,100.4199 Z M253.3691,93.1069 L256.3657,93.1069 L259.7109,105.5 L257.2622,105.5 L256.4985,102.437 L253.2197,102.437 L252.4727,105.5 L250.0239,105.5 Z " fill="#000000"/><text fill="#000000" font-family="sans-serif" font-size="14" font-style="italic" lengthAdjust="spacing" textLength="36" x="269" y="105.291">Term</text></g><!--class Sentence--><g id="elem_Sentence"><rect codeLine="17" fill="#F1F1F1" height="40" id="Sentence" rx="2.5" ry="2.5" style="stroke:#181818;stroke-width:0.5;" width="94" x="1335" y="248"/><ellipse cx="1350" cy="264" fill="#A9DCDF" rx="11" ry="11" style="stroke:#181818;stroke-width:1.0;"/><path d="M1349.8633,259.3481 L1348.7095,264.4199 L1351.0254,264.4199 Z M1348.3691,257.1069 L1351.3657,257.1069 L1354.7109,269.5 L1352.2622,269.5 L1351.4985,266.437 L1348.2197,266.437 L1347.4727,269.5 L1345.0239,269.5 Z " fill="#000000"/><text fill="#000000" font-family="sans-serif" font-size="14" font-style="italic" lengthAdjust="spacing" textLength="62" x="1364" y="269.291">Sentence</text><line style="stroke:#181818;stroke-width:0.5;" x1="1336" x2="1428" y1="280" y2="280"/></g><!--class SimpleSentence--><g id="elem_SimpleSentence"><rect codeLine="18" fill="#F1F1F1" height="40" id="SimpleSentence" rx="2.5" ry="2.5" style="stroke:#181818;stroke-width:0.5;" width="140" x="1884" y="357.24"/><ellipse cx="1899" cy="373.24" fill="#A9DCDF" rx="11" ry="11" style="stroke:#181818;stroke-width:1.0;"/><path d="M1898.8633,368.5881 L1897.7095,373.6599 L1900.0254,373.6599 Z M1897.3691,366.3469 L1900.3657,366.3469 L1903.7109,378.74 L1901.2622,378.74 L1900.4985,375.677 L1897.2197,375.677 L1896.4727,378.74 L1894.0239,378.74 Z " fill="#000000"/><text fill="#000000" font-family="sans-serif" font-size="14" font-style="italic" lengthAdjust="spacing" textLength="108" x="1913" y="378.531">SimpleSentence</text><line style="stroke:#181818;stroke-width:0.5;" x1="1885" x2="2023" y1="389.24" y2="389.24"/></g><!--class BooleanSentence--><g id="elem_BooleanSentence"><rect codeLine="19" fill="#F1F1F1" height="40" id="BooleanSentence" rx="2.5" ry="2.5" style="stroke:#181818;stroke-width:0.5;" width="149" x="1307.5" y="357.24"/><ellipse cx="1322.5" cy="373.24" fill="#A9DCDF" rx="11" ry="11" style="stroke:#181818;stroke-width:1.0;"/><path d="M1322.3633,368.5881 L1321.2095,373.6599 L1323.5254,373.6599 Z M1320.8691,366.3469 L1323.8657,366.3469 L1327.2109,378.74 L1324.7622,378.74 L1323.9985,375.677 L1320.7197,375.677 L1319.9727,378.74 L1317.5239,378.74 Z " fill="#000000"/><text fill="#000000" font-family="sans-serif" font-size="14" font-style="italic" lengthAdjust="spacing" textLength="117" x="1336.5" y="378.531">BooleanSentence</text><line style="stroke:#181818;stroke-width:0.5;" x1="1308.5" x2="1455.5" y1="389.24" y2="389.24"/></g><!--class QuantifiedSentence--><g id="elem_QuantifiedSentence"><rect codeLine="20" fill="#F1F1F1" height="56.4883" id="QuantifiedSentence" rx="2.5" ry="2.5" style="stroke:#181818;stroke-width:0.5;" width="166" x="874" y="349"/><ellipse cx="889" cy="365" fill="#ADD1B2" rx="11" ry="11" style="stroke:#181818;stroke-width:1.0;"/><path d="M891.4731,371.1431 Q890.8921,371.4419 890.2529,371.5913 Q889.6138,371.7407 888.9082,371.7407 Q886.4014,371.7407 885.0815,370.0889 Q883.7617,368.437 883.7617,365.3159 Q883.7617,362.1865 885.0815,360.5347 Q886.4014,358.8828 888.9082,358.8828 Q889.6138,358.8828 890.2612,359.0322 Q890.9087,359.1816 891.4731,359.4805 L891.4731,362.2031 Q890.8423,361.6221 890.2488,361.3523 Q889.6553,361.0825 889.0244,361.0825 Q887.6797,361.0825 886.9949,362.1492 Q886.3101,363.2158 886.3101,365.3159 Q886.3101,367.4077 886.9949,368.4744 Q887.6797,369.541 889.0244,369.541 Q889.6553,369.541 890.2488,369.2712 Q890.8423,369.0015 891.4731,368.4204 Z " fill="#000000"/><text fill="#000000" font-family="sans-serif" font-size="14" lengthAdjust="spacing" textLength="134" x="903" y="370.291">QuantifiedSentence</text><line style="stroke:#181818;stroke-width:0.5;" x1="875" x2="1039" y1="381" y2="381"/><ellipse cx="885" cy="394.7441" fill="none" rx="3" ry="3" style="stroke:#038048;stroke-width:1.0;"/><text fill="#000000" font-family="sans-serif" font-size="14" lengthAdjust="spacing" textLength="104" x="894" y="398.5352">body: Sentence</text></g><!--class QuantifiedVariableBinding--><g id="elem_QuantifiedVariableBinding"><rect codeLine="90" fill="#F1F1F1" height="40" id="QuantifiedVariableBinding" rx="2.5" ry="2.5" style="stroke:#181818;stroke-width:0.5;" width="212" x="419" y="482.98"/><ellipse cx="434" cy="498.98" fill="#ADD1B2" rx="11" ry="11" style="stroke:#181818;stroke-width:1.0;"/><path d="M436.4731,505.1231 Q435.8921,505.4219 435.2529,505.5713 Q434.6138,505.7207 433.9082,505.7207 Q431.4014,505.7207 430.0815,504.0689 Q428.7617,502.417 428.7617,499.2959 Q428.7617,496.1665 430.0815,494.5147 Q431.4014,492.8628 433.9082,492.8628 Q434.6138,492.8628 435.2612,493.0122 Q435.9087,493.1616 436.4731,493.4605 L436.4731,496.1831 Q435.8423,495.6021 435.2488,495.3323 Q434.6553,495.0625 434.0244,495.0625 Q432.6797,495.0625 431.9949,496.1292 Q431.3101,497.1958 431.3101,499.2959 Q431.3101,501.3877 431.9949,502.4544 Q432.6797,503.521 434.0244,503.521 Q434.6553,503.521 435.2488,503.2512 Q435.8423,502.9815 436.4731,502.4004 Z " fill="#000000"/><text fill="#000000" font-family="sans-serif" font-size="14" lengthAdjust="spacing" textLength="180" x="448" y="504.271">QuantifiedVariableBinding</text><line style="stroke:#181818;stroke-width:0.5;" x1="420" x2="630" y1="514.98" y2="514.98"/></g><!--class AtomicSentence--><g id="elem_AtomicSentence"><rect codeLine="29" fill="#F1F1F1" height="72.9766" id="AtomicSentence" rx="2.5" ry="2.5" style="stroke:#181818;stroke-width:0.5;" width="172" x="1868" y="466.49"/><ellipse cx="1896.5" cy="482.49" fill="#ADD1B2" rx="11" ry="11" style="stroke:#181818;stroke-width:1.0;"/><path d="M1898.9731,488.6331 Q1898.3921,488.9319 1897.7529,489.0813 Q1897.1138,489.2307 1896.4082,489.2307 Q1893.9014,489.2307 1892.5815,487.5789 Q1891.2617,485.927 1891.2617,482.8059 Q1891.2617,479.6765 1892.5815,478.0247 Q1893.9014,476.3728 1896.4082,476.3728 Q1897.1138,476.3728 1897.7612,476.5222 Q1898.4087,476.6716 1898.9731,476.9705 L1898.9731,479.6931 Q1898.3423,479.1121 1897.7488,478.8423 Q1897.1553,478.5725 1896.5244,478.5725 Q1895.1797,478.5725 1894.4949,479.6392 Q1893.8101,480.7058 1893.8101,482.8059 Q1893.8101,484.8977 1894.4949,485.9644 Q1895.1797,487.031 1896.5244,487.031 Q1897.1553,487.031 1897.7488,486.7612 Q1898.3423,486.4915 1898.9731,485.9104 Z " fill="#000000"/><text fill="#000000" font-family="sans-serif" font-size="14" lengthAdjust="spacing" textLength="110" x="1913.5" y="487.781">AtomicSentence</text><line style="stroke:#181818;stroke-width:0.5;" x1="1869" x2="2039" y1="498.49" y2="498.49"/><ellipse cx="1879" cy="512.2341" fill="none" rx="3" ry="3" style="stroke:#038048;stroke-width:1.0;"/><text fill="#000000" font-family="sans-serif" font-size="14" lengthAdjust="spacing" textLength="108" x="1888" y="516.0252">predicate: Term</text><ellipse cx="1879" cy="528.7224" fill="none" rx="3" ry="3" style="stroke:#038048;stroke-width:1.0;"/><text fill="#000000" font-family="sans-serif" font-size="14" lengthAdjust="spacing" textLength="146" x="1888" y="532.5134">arguments: 0..* Term</text></g><!--class RelationalSentence--><g id="elem_RelationalSentence"><rect codeLine="33" fill="#F1F1F1" height="72.9766" id="RelationalSentence" rx="2.5" ry="2.5" style="stroke:#181818;stroke-width:0.5;" width="162" x="2342" y="466.49"/><ellipse cx="2357" cy="482.49" fill="#A9DCDF" rx="11" ry="11" style="stroke:#181818;stroke-width:1.0;"/><path d="M2356.8633,477.8381 L2355.7095,482.9099 L2358.0254,482.9099 Z M2355.3691,475.5969 L2358.3657,475.5969 L2361.7109,487.99 L2359.2622,487.99 L2358.4985,484.927 L2355.2197,484.927 L2354.4727,487.99 L2352.0239,487.99 Z " fill="#000000"/><text fill="#000000" font-family="sans-serif" font-size="14" font-style="italic" lengthAdjust="spacing" textLength="130" x="2371" y="487.781">RelationalSentence</text><line style="stroke:#181818;stroke-width:0.5;" x1="2343" x2="2503" y1="498.49" y2="498.49"/><ellipse cx="2353" cy="512.2341" fill="none" rx="3" ry="3" style="stroke:#038048;stroke-width:1.0;"/><text fill="#000000" font-family="sans-serif" font-size="14" lengthAdjust="spacing" textLength="64" x="2362" y="516.0252">lhs: Term</text><ellipse cx="2353" cy="528.7224" fill="none" rx="3" ry="3" style="stroke:#038048;stroke-width:1.0;"/><text fill="#000000" font-family="sans-serif" font-size="14" lengthAdjust="spacing" textLength="66" x="2362" y="532.5134">rhs: Term</text></g><!--class Equation--><g id="elem_Equation"><rect codeLine="38" fill="#F1F1F1" height="40" id="Equation" rx="2.5" ry="2.5" style="stroke:#181818;stroke-width:0.5;" width="93" x="2755.5" y="616.95"/><ellipse cx="2770.5" cy="632.95" fill="#ADD1B2" rx="11" ry="11" style="stroke:#181818;stroke-width:1.0;"/><path d="M2772.9731,639.0931 Q2772.3921,639.3919 2771.7529,639.5413 Q2771.1138,639.6907 2770.4082,639.6907 Q2767.9014,639.6907 2766.5815,638.0389 Q2765.2617,636.387 2765.2617,633.2659 Q2765.2617,630.1365 2766.5815,628.4847 Q2767.9014,626.8328 2770.4082,626.8328 Q2771.1138,626.8328 2771.7612,626.9822 Q2772.4087,627.1316 2772.9731,627.4305 L2772.9731,630.1531 Q2772.3423,629.5721 2771.7488,629.3023 Q2771.1553,629.0325 2770.5244,629.0325 Q2769.1797,629.0325 2768.4949,630.0992 Q2767.8101,631.1658 2767.8101,633.2659 Q2767.8101,635.3577 2768.4949,636.4244 Q2769.1797,637.491 2770.5244,637.491 Q2771.1553,637.491 2771.7488,637.2212 Q2772.3423,636.9515 2772.9731,636.3704 Z " fill="#000000"/><text fill="#000000" font-family="sans-serif" font-size="14" lengthAdjust="spacing" textLength="61" x="2784.5" y="638.241">Equation</text><line style="stroke:#181818;stroke-width:0.5;" x1="2756.5" x2="2847.5" y1="648.95" y2="648.95"/></g><!--class Inequation--><g id="elem_Inequation"><rect codeLine="39" fill="#F1F1F1" height="40" id="Inequation" rx="2.5" ry="2.5" style="stroke:#181818;stroke-width:0.5;" width="106" x="2008" y="616.95"/><ellipse cx="2023" cy="632.95" fill="#ADD1B2" rx="11" ry="11" style="stroke:#181818;stroke-width:1.0;"/><path d="M2025.4731,639.0931 Q2024.8921,639.3919 2024.2529,639.5413 Q2023.6138,639.6907 2022.9082,639.6907 Q2020.4014,639.6907 2019.0815,638.0389 Q2017.7617,636.387 2017.7617,633.2659 Q2017.7617,630.1365 2019.0815,628.4847 Q2020.4014,626.8328 2022.9082,626.8328 Q2023.6138,626.8328 2024.2612,626.9822 Q2024.9087,627.1316 2025.4731,627.4305 L2025.4731,630.1531 Q2024.8423,629.5721 2024.2488,629.3023 Q2023.6553,629.0325 2023.0244,629.0325 Q2021.6797,629.0325 2020.9949,630.0992 Q2020.3101,631.1658 2020.3101,633.2659 Q2020.3101,635.3577 2020.9949,636.4244 Q2021.6797,637.491 2023.0244,637.491 Q2023.6553,637.491 2024.2488,637.2212 Q2024.8423,636.9515 2025.4731,636.3704 Z " fill="#000000"/><text fill="#000000" font-family="sans-serif" font-size="14" lengthAdjust="spacing" textLength="74" x="2037" y="638.241">Inequation</text><line style="stroke:#181818;stroke-width:0.5;" x1="2009" x2="2113" y1="648.95" y2="648.95"/></g><!--class LessThan--><g id="elem_LessThan"><rect codeLine="40" fill="#F1F1F1" height="40" id="LessThan" rx="2.5" ry="2.5" style="stroke:#181818;stroke-width:0.5;" width="96" x="2899" y="616.95"/><ellipse cx="2914" cy="632.95" fill="#ADD1B2" rx="11" ry="11" style="stroke:#181818;stroke-width:1.0;"/><path d="M2916.4731,639.0931 Q2915.8921,639.3919 2915.2529,639.5413 Q2914.6138,639.6907 2913.9082,639.6907 Q2911.4014,639.6907 2910.0815,638.0389 Q2908.7617,636.387 2908.7617,633.2659 Q2908.7617,630.1365 2910.0815,628.4847 Q2911.4014,626.8328 2913.9082,626.8328 Q2914.6138,626.8328 2915.2612,626.9822 Q2915.9087,627.1316 2916.4731,627.4305 L2916.4731,630.1531 Q2915.8423,629.5721 2915.2488,629.3023 Q2914.6553,629.0325 2914.0244,629.0325 Q2912.6797,629.0325 2911.9949,630.0992 Q2911.3101,631.1658 2911.3101,633.2659 Q2911.3101,635.3577 2911.9949,636.4244 Q2912.6797,637.491 2914.0244,637.491 Q2914.6553,637.491 2915.2488,637.2212 Q2915.8423,636.9515 2916.4731,636.3704 Z " fill="#000000"/><text fill="#000000" font-family="sans-serif" font-size="14" lengthAdjust="spacing" textLength="64" x="2928" y="638.241">LessThan</text><line style="stroke:#181818;stroke-width:0.5;" x1="2900" x2="2994" y1="648.95" y2="648.95"/></g><!--class LessThanOrEqual--><g id="elem_LessThanOrEqual"><rect codeLine="41" fill="#F1F1F1" height="40" id="LessThanOrEqual" rx="2.5" ry="2.5" style="stroke:#181818;stroke-width:0.5;" width="151" x="2163.5" y="616.95"/><ellipse cx="2178.5" cy="632.95" fill="#ADD1B2" rx="11" ry="11" style="stroke:#181818;stroke-width:1.0;"/><path d="M2180.9731,639.0931 Q2180.3921,639.3919 2179.7529,639.5413 Q2179.1138,639.6907 2178.4082,639.6907 Q2175.9014,639.6907 2174.5815,638.0389 Q2173.2617,636.387 2173.2617,633.2659 Q2173.2617,630.1365 2174.5815,628.4847 Q2175.9014,626.8328 2178.4082,626.8328 Q2179.1138,626.8328 2179.7612,626.9822 Q2180.4087,627.1316 2180.9731,627.4305 L2180.9731,630.1531 Q2180.3423,629.5721 2179.7488,629.3023 Q2179.1553,629.0325 2178.5244,629.0325 Q2177.1797,629.0325 2176.4949,630.0992 Q2175.8101,631.1658 2175.8101,633.2659 Q2175.8101,635.3577 2176.4949,636.4244 Q2177.1797,637.491 2178.5244,637.491 Q2179.1553,637.491 2179.7488,637.2212 Q2180.3423,636.9515 2180.9731,636.3704 Z " fill="#000000"/><text fill="#000000" font-family="sans-serif" font-size="14" lengthAdjust="spacing" textLength="119" x="2192.5" y="638.241">LessThanOrEqual</text><line style="stroke:#181818;stroke-width:0.5;" x1="2164.5" x2="2313.5" y1="648.95" y2="648.95"/></g><!--class GreaterThan--><g id="elem_GreaterThan"><rect codeLine="42" fill="#F1F1F1" height="40" id="GreaterThan" rx="2.5" ry="2.5" style="stroke:#181818;stroke-width:0.5;" width="118" x="2364" y="616.95"/><ellipse cx="2379" cy="632.95" fill="#ADD1B2" rx="11" ry="11" style="stroke:#181818;stroke-width:1.0;"/><path d="M2381.4731,639.0931 Q2380.8921,639.3919 2380.2529,639.5413 Q2379.6138,639.6907 2378.9082,639.6907 Q2376.4014,639.6907 2375.0815,638.0389 Q2373.7617,636.387 2373.7617,633.2659 Q2373.7617,630.1365 2375.0815,628.4847 Q2376.4014,626.8328 2378.9082,626.8328 Q2379.6138,626.8328 2380.2612,626.9822 Q2380.9087,627.1316 2381.4731,627.4305 L2381.4731,630.1531 Q2380.8423,629.5721 2380.2488,629.3023 Q2379.6553,629.0325 2379.0244,629.0325 Q2377.6797,629.0325 2376.9949,630.0992 Q2376.3101,631.1658 2376.3101,633.2659 Q2376.3101,635.3577 2376.9949,636.4244 Q2377.6797,637.491 2379.0244,637.491 Q2379.6553,637.491 2380.2488,637.2212 Q2380.8423,636.9515 2381.4731,636.3704 Z " fill="#000000"/><text fill="#000000" font-family="sans-serif" font-size="14" lengthAdjust="spacing" textLength="86" x="2393" y="638.241">GreaterThan</text><line style="stroke:#181818;stroke-width:0.5;" x1="2365" x2="2481" y1="648.95" y2="648.95"/></g><!--class GreaterThanOrEqual--><g id="elem_GreaterThanOrEqual"><rect codeLine="43" fill="#F1F1F1" height="40" id="GreaterThanOrEqual" rx="2.5" ry="2.5" style="stroke:#181818;stroke-width:0.5;" width="173" x="2532.5" y="616.95"/><ellipse cx="2547.5" cy="632.95" fill="#ADD1B2" rx="11" ry="11" style="stroke:#181818;stroke-width:1.0;"/><path d="M2549.9731,639.0931 Q2549.3921,639.3919 2548.7529,639.5413 Q2548.1138,639.6907 2547.4082,639.6907 Q2544.9014,639.6907 2543.5815,638.0389 Q2542.2617,636.387 2542.2617,633.2659 Q2542.2617,630.1365 2543.5815,628.4847 Q2544.9014,626.8328 2547.4082,626.8328 Q2548.1138,626.8328 2548.7612,626.9822 Q2549.4087,627.1316 2549.9731,627.4305 L2549.9731,630.1531 Q2549.3423,629.5721 2548.7488,629.3023 Q2548.1553,629.0325 2547.5244,629.0325 Q2546.1797,629.0325 2545.4949,630.0992 Q2544.8101,631.1658 2544.8101,633.2659 Q2544.8101,635.3577 2545.4949,636.4244 Q2546.1797,637.491 2547.5244,637.491 Q2548.1553,637.491 2548.7488,637.2212 Q2549.3423,636.9515 2549.9731,636.3704 Z " fill="#000000"/><text fill="#000000" font-family="sans-serif" font-size="14" lengthAdjust="spacing" textLength="141" x="2561.5" y="638.241">GreaterThanOrEqual</text><line style="stroke:#181818;stroke-width:0.5;" x1="2533.5" x2="2704.5" y1="648.95" y2="648.95"/></g><!--class UnaryBooleanSentence--><g id="elem_UnaryBooleanSentence"><rect codeLine="54" fill="#F1F1F1" height="56.4883" id="UnaryBooleanSentence" rx="2.5" ry="2.5" style="stroke:#181818;stroke-width:0.5;" width="189" x="1439.5" y="474.73"/><ellipse cx="1454.5" cy="490.73" fill="#A9DCDF" rx="11" ry="11" style="stroke:#181818;stroke-width:1.0;"/><path d="M1454.3633,486.0781 L1453.2095,491.1499 L1455.5254,491.1499 Z M1452.8691,483.8369 L1455.8657,483.8369 L1459.2109,496.23 L1456.7622,496.23 L1455.9985,493.167 L1452.7197,493.167 L1451.9727,496.23 L1449.5239,496.23 Z " fill="#000000"/><text fill="#000000" font-family="sans-serif" font-size="14" font-style="italic" lengthAdjust="spacing" textLength="157" x="1468.5" y="496.021">UnaryBooleanSentence</text><line style="stroke:#181818;stroke-width:0.5;" x1="1440.5" x2="1627.5" y1="506.73" y2="506.73"/><ellipse cx="1450.5" cy="520.4741" fill="none" rx="3" ry="3" style="stroke:#038048;stroke-width:1.0;"/><text fill="#000000" font-family="sans-serif" font-size="14" lengthAdjust="spacing" textLength="92" x="1459.5" y="524.2652">rhs: Sentence</text></g><!--class BinaryBooleanSentence--><g id="elem_BinaryBooleanSentence"><rect codeLine="57" fill="#F1F1F1" height="72.9766" id="BinaryBooleanSentence" rx="2.5" ry="2.5" style="stroke:#181818;stroke-width:0.5;" width="191" x="1187.5" y="466.49"/><ellipse cx="1202.5" cy="482.49" fill="#A9DCDF" rx="11" ry="11" style="stroke:#181818;stroke-width:1.0;"/><path d="M1202.3633,477.8381 L1201.2095,482.9099 L1203.5254,482.9099 Z M1200.8691,475.5969 L1203.8657,475.5969 L1207.2109,487.99 L1204.7622,487.99 L1203.9985,484.927 L1200.7197,484.927 L1199.9727,487.99 L1197.5239,487.99 Z " fill="#000000"/><text fill="#000000" font-family="sans-serif" font-size="14" font-style="italic" lengthAdjust="spacing" textLength="159" x="1216.5" y="487.781">BinaryBooleanSentence</text><line style="stroke:#181818;stroke-width:0.5;" x1="1188.5" x2="1377.5" y1="498.49" y2="498.49"/><ellipse cx="1198.5" cy="512.2341" fill="none" rx="3" ry="3" style="stroke:#038048;stroke-width:1.0;"/><text fill="#000000" font-family="sans-serif" font-size="14" lengthAdjust="spacing" textLength="90" x="1207.5" y="516.0252">lhs: Sentence</text><ellipse cx="1198.5" cy="528.7224" fill="none" rx="3" ry="3" style="stroke:#038048;stroke-width:1.0;"/><text fill="#000000" font-family="sans-serif" font-size="14" lengthAdjust="spacing" textLength="92" x="1207.5" y="532.5134">rhs: Sentence</text></g><!--class NegationSentence--><g id="elem_NegationSentence"><rect codeLine="65" fill="#F1F1F1" height="40" id="NegationSentence" rx="2.5" ry="2.5" style="stroke:#181818;stroke-width:0.5;" width="156" x="1802" y="616.95"/><ellipse cx="1817" cy="632.95" fill="#ADD1B2" rx="11" ry="11" style="stroke:#181818;stroke-width:1.0;"/><path d="M1819.4731,639.0931 Q1818.8921,639.3919 1818.2529,639.5413 Q1817.6138,639.6907 1816.9082,639.6907 Q1814.4014,639.6907 1813.0815,638.0389 Q1811.7617,636.387 1811.7617,633.2659 Q1811.7617,630.1365 1813.0815,628.4847 Q1814.4014,626.8328 1816.9082,626.8328 Q1817.6138,626.8328 1818.2612,626.9822 Q1818.9087,627.1316 1819.4731,627.4305 L1819.4731,630.1531 Q1818.8423,629.5721 1818.2488,629.3023 Q1817.6553,629.0325 1817.0244,629.0325 Q1815.6797,629.0325 1814.9949,630.0992 Q1814.3101,631.1658 1814.3101,633.2659 Q1814.3101,635.3577 1814.9949,636.4244 Q1815.6797,637.491 1817.0244,637.491 Q1817.6553,637.491 1818.2488,637.2212 Q1818.8423,636.9515 1819.4731,636.3704 Z " fill="#000000"/><text fill="#000000" font-family="sans-serif" font-size="14" lengthAdjust="spacing" textLength="124" x="1831" y="638.241">NegationSentence</text><line style="stroke:#181818;stroke-width:0.5;" x1="1803" x2="1957" y1="648.95" y2="648.95"/></g><!--class ConjunctiveSentence--><g id="elem_ConjunctiveSentence"><rect codeLine="68" fill="#F1F1F1" height="40" id="ConjunctiveSentence" rx="2.5" ry="2.5" style="stroke:#181818;stroke-width:0.5;" width="175" x="858.5" y="616.95"/><ellipse cx="873.5" cy="632.95" fill="#ADD1B2" rx="11" ry="11" style="stroke:#181818;stroke-width:1.0;"/><path d="M875.9731,639.0931 Q875.3921,639.3919 874.7529,639.5413 Q874.1138,639.6907 873.4082,639.6907 Q870.9014,639.6907 869.5815,638.0389 Q868.2617,636.387 868.2617,633.2659 Q868.2617,630.1365 869.5815,628.4847 Q870.9014,626.8328 873.4082,626.8328 Q874.1138,626.8328 874.7612,626.9822 Q875.4087,627.1316 875.9731,627.4305 L875.9731,630.1531 Q875.3423,629.5721 874.7488,629.3023 Q874.1553,629.0325 873.5244,629.0325 Q872.1797,629.0325 871.4949,630.0992 Q870.8101,631.1658 870.8101,633.2659 Q870.8101,635.3577 871.4949,636.4244 Q872.1797,637.491 873.5244,637.491 Q874.1553,637.491 874.7488,637.2212 Q875.3423,636.9515 875.9731,636.3704 Z " fill="#000000"/><text fill="#000000" font-family="sans-serif" font-size="14" lengthAdjust="spacing" textLength="143" x="887.5" y="638.241">ConjunctiveSentence</text><line style="stroke:#181818;stroke-width:0.5;" x1="859.5" x2="1032.5" y1="648.95" y2="648.95"/></g><!--class DisjunctiveSentence--><g id="elem_DisjunctiveSentence"><rect codeLine="69" fill="#F1F1F1" height="40" id="DisjunctiveSentence" rx="2.5" ry="2.5" style="stroke:#181818;stroke-width:0.5;" width="168" x="1084" y="616.95"/><ellipse cx="1099" cy="632.95" fill="#ADD1B2" rx="11" ry="11" style="stroke:#181818;stroke-width:1.0;"/><path d="M1101.4731,639.0931 Q1100.8921,639.3919 1100.2529,639.5413 Q1099.6138,639.6907 1098.9082,639.6907 Q1096.4014,639.6907 1095.0815,638.0389 Q1093.7617,636.387 1093.7617,633.2659 Q1093.7617,630.1365 1095.0815,628.4847 Q1096.4014,626.8328 1098.9082,626.8328 Q1099.6138,626.8328 1100.2612,626.9822 Q1100.9087,627.1316 1101.4731,627.4305 L1101.4731,630.1531 Q1100.8423,629.5721 1100.2488,629.3023 Q1099.6553,629.0325 1099.0244,629.0325 Q1097.6797,629.0325 1096.9949,630.0992 Q1096.3101,631.1658 1096.3101,633.2659 Q1096.3101,635.3577 1096.9949,636.4244 Q1097.6797,637.491 1099.0244,637.491 Q1099.6553,637.491 1100.2488,637.2212 Q1100.8423,636.9515 1101.4731,636.3704 Z " fill="#000000"/><text fill="#000000" font-family="sans-serif" font-size="14" lengthAdjust="spacing" textLength="136" x="1113" y="638.241">DisjunctiveSentence</text><line style="stroke:#181818;stroke-width:0.5;" x1="1085" x2="1251" y1="648.95" y2="648.95"/></g><!--class ExclusiveDisjunctiveSentence--><g id="elem_ExclusiveDisjunctiveSentence"><rect codeLine="70" fill="#F1F1F1" height="40" id="ExclusiveDisjunctiveSentence" rx="2.5" ry="2.5" style="stroke:#181818;stroke-width:0.5;" width="231" x="1301.5" y="616.95"/><ellipse cx="1316.5" cy="632.95" fill="#ADD1B2" rx="11" ry="11" style="stroke:#181818;stroke-width:1.0;"/><path d="M1318.9731,639.0931 Q1318.3921,639.3919 1317.7529,639.5413 Q1317.1138,639.6907 1316.4082,639.6907 Q1313.9014,639.6907 1312.5815,638.0389 Q1311.2617,636.387 1311.2617,633.2659 Q1311.2617,630.1365 1312.5815,628.4847 Q1313.9014,626.8328 1316.4082,626.8328 Q1317.1138,626.8328 1317.7612,626.9822 Q1318.4087,627.1316 1318.9731,627.4305 L1318.9731,630.1531 Q1318.3423,629.5721 1317.7488,629.3023 Q1317.1553,629.0325 1316.5244,629.0325 Q1315.1797,629.0325 1314.4949,630.0992 Q1313.8101,631.1658 1313.8101,633.2659 Q1313.8101,635.3577 1314.4949,636.4244 Q1315.1797,637.491 1316.5244,637.491 Q1317.1553,637.491 1317.7488,637.2212 Q1318.3423,636.9515 1318.9731,636.3704 Z " fill="#000000"/><text fill="#000000" font-family="sans-serif" font-size="14" lengthAdjust="spacing" textLength="199" x="1330.5" y="638.241">ExclusiveDisjunctiveSentence</text><line style="stroke:#181818;stroke-width:0.5;" x1="1302.5" x2="1531.5" y1="648.95" y2="648.95"/></g><!--class ImplicationSentence--><g id="elem_ImplicationSentence"><rect codeLine="71" fill="#F1F1F1" height="40" id="ImplicationSentence" rx="2.5" ry="2.5" style="stroke:#181818;stroke-width:0.5;" width="170" x="1582" y="616.95"/><ellipse cx="1597" cy="632.95" fill="#ADD1B2" rx="11" ry="11" style="stroke:#181818;stroke-width:1.0;"/><path d="M1599.4731,639.0931 Q1598.8921,639.3919 1598.2529,639.5413 Q1597.6138,639.6907 1596.9082,639.6907 Q1594.4014,639.6907 1593.0815,638.0389 Q1591.7617,636.387 1591.7617,633.2659 Q1591.7617,630.1365 1593.0815,628.4847 Q1594.4014,626.8328 1596.9082,626.8328 Q1597.6138,626.8328 1598.2612,626.9822 Q1598.9087,627.1316 1599.4731,627.4305 L1599.4731,630.1531 Q1598.8423,629.5721 1598.2488,629.3023 Q1597.6553,629.0325 1597.0244,629.0325 Q1595.6797,629.0325 1594.9949,630.0992 Q1594.3101,631.1658 1594.3101,633.2659 Q1594.3101,635.3577 1594.9949,636.4244 Q1595.6797,637.491 1597.0244,637.491 Q1597.6553,637.491 1598.2488,637.2212 Q1598.8423,636.9515 1599.4731,636.3704 Z " fill="#000000"/><text fill="#000000" font-family="sans-serif" font-size="14" lengthAdjust="spacing" textLength="138" x="1611" y="638.241">ImplicationSentence</text><line style="stroke:#181818;stroke-width:0.5;" x1="1583" x2="1751" y1="648.95" y2="648.95"/></g><!--class BiconditionalSentence--><g id="elem_BiconditionalSentence"><rect codeLine="72" fill="#F1F1F1" height="40" id="BiconditionalSentence" rx="2.5" ry="2.5" style="stroke:#181818;stroke-width:0.5;" width="183" x="625.5" y="616.95"/><ellipse cx="640.5" cy="632.95" fill="#ADD1B2" rx="11" ry="11" style="stroke:#181818;stroke-width:1.0;"/><path d="M642.9731,639.0931 Q642.3921,639.3919 641.7529,639.5413 Q641.1138,639.6907 640.4082,639.6907 Q637.9014,639.6907 636.5815,638.0389 Q635.2617,636.387 635.2617,633.2659 Q635.2617,630.1365 636.5815,628.4847 Q637.9014,626.8328 640.4082,626.8328 Q641.1138,626.8328 641.7612,626.9822 Q642.4087,627.1316 642.9731,627.4305 L642.9731,630.1531 Q642.3423,629.5721 641.7488,629.3023 Q641.1553,629.0325 640.5244,629.0325 Q639.1797,629.0325 638.4949,630.0992 Q637.8101,631.1658 637.8101,633.2659 Q637.8101,635.3577 638.4949,636.4244 Q639.1797,637.491 640.5244,637.491 Q641.1553,637.491 641.7488,637.2212 Q642.3423,636.9515 642.9731,636.3704 Z " fill="#000000"/><text fill="#000000" font-family="sans-serif" font-size="14" lengthAdjust="spacing" textLength="151" x="654.5" y="638.241">BiconditionalSentence</text><line style="stroke:#181818;stroke-width:0.5;" x1="626.5" x2="807.5" y1="648.95" y2="648.95"/></g><!--class Quantifier--><g id="elem_Quantifier"><rect codeLine="80" fill="#F1F1F1" height="72.9766" id="Quantifier" rx="2.5" ry="2.5" style="stroke:#181818;stroke-width:0.5;" width="101" x="474.5" y="600.46"/><ellipse cx="489.5" cy="616.46" fill="#EB937F" rx="11" ry="11" style="stroke:#181818;stroke-width:1.0;"/><path d="M493.1143,622.96 L485.3945,622.96 L485.3945,610.5669 L493.1143,610.5669 L493.1143,612.7251 L487.8433,612.7251 L487.8433,615.398 L492.6162,615.398 L492.6162,617.5562 L487.8433,617.5562 L487.8433,620.8018 L493.1143,620.8018 Z " fill="#000000"/><text fill="#000000" font-family="sans-serif" font-size="14" lengthAdjust="spacing" textLength="69" x="503.5" y="621.751">Quantifier</text><line style="stroke:#181818;stroke-width:0.5;" x1="475.5" x2="574.5" y1="632.46" y2="632.46"/><text fill="#000000" font-family="sans-serif" font-size="14" lengthAdjust="spacing" textLength="63" x="480.5" y="649.9952">Universal</text><text fill="#000000" font-family="sans-serif" font-size="14" lengthAdjust="spacing" textLength="71" x="480.5" y="666.4834">Existential</text></g><!--class QuantifiedVariable--><g id="elem_QuantifiedVariable"><rect codeLine="85" fill="#F1F1F1" height="56.4883" id="QuantifiedVariable" rx="2.5" ry="2.5" style="stroke:#181818;stroke-width:0.5;" width="160" x="264" y="608.71"/><ellipse cx="279" cy="624.71" fill="#ADD1B2" rx="11" ry="11" style="stroke:#181818;stroke-width:1.0;"/><path d="M281.4731,630.8531 Q280.8921,631.1519 280.2529,631.3013 Q279.6138,631.4507 278.9082,631.4507 Q276.4014,631.4507 275.0815,629.7989 Q273.7617,628.147 273.7617,625.0259 Q273.7617,621.8965 275.0815,620.2447 Q276.4014,618.5928 278.9082,618.5928 Q279.6138,618.5928 280.2612,618.7422 Q280.9087,618.8916 281.4731,619.1905 L281.4731,621.9131 Q280.8423,621.3321 280.2488,621.0623 Q279.6553,620.7925 279.0244,620.7925 Q277.6797,620.7925 276.9949,621.8592 Q276.3101,622.9258 276.3101,625.0259 Q276.3101,627.1177 276.9949,628.1844 Q277.6797,629.251 279.0244,629.251 Q279.6553,629.251 280.2488,628.9812 Q280.8423,628.7115 281.4731,628.1304 Z " fill="#000000"/><text fill="#000000" font-family="sans-serif" font-size="14" lengthAdjust="spacing" textLength="128" x="293" y="630.001">QuantifiedVariable</text><line style="stroke:#181818;stroke-width:0.5;" x1="265" x2="423" y1="640.71" y2="640.71"/><text fill="#000000" font-family="sans-serif" font-size="14" lengthAdjust="spacing" textLength="103" x="270" y="658.2452">source: 1 Term</text></g><!--link QuantifiedSentence to QuantifiedVariableBinding--><g id="link_QuantifiedSentence_QuantifiedVariableBinding"><path codeLine="23" d="M862.1738,405.4041 C780.4038,428.8241 674.508,459.1477 598.548,480.9077 " fill="none" id="QuantifiedSentence-QuantifiedVariableBinding" style="stroke:#181818;stroke-width:1.0;"/><polygon fill="#181818" points="873.71,402.1,866.8406,399.9067,862.1738,405.4041,869.0433,407.5974,873.71,402.1" style="stroke:#181818;stroke-width:1.0;"/><polygon fill="#181818" points="592.78,482.56,602.5336,483.9268,597.5867,481.1831,600.3304,476.2362,592.78,482.56" style="stroke:#181818;stroke-width:1.0;"/><text fill="#000000" font-family="sans-serif" font-size="13" lengthAdjust="spacing" textLength="58" x="545.6869" y="472.3195">+binding</text></g><!--reverse link Sentence to SimpleSentence--><g id="link_Sentence_SimpleSentence"><path codeLine="25" d="M1446.9917,281.1872 C1547.6317,300.0572 1765.74,340.95 1883.91,363.1 " fill="none" id="Sentence-backto-SimpleSentence" style="stroke:#181818;stroke-width:1.0;"/><polygon fill="none" points="1429.3,277.87,1445.886,287.0844,1448.0974,275.29,1429.3,277.87" style="stroke:#181818;stroke-width:1.0;"/></g><!--reverse link Sentence to BooleanSentence--><g id="link_Sentence_BooleanSentence"><path codeLine="26" d="M1382,306.17 C1382,325.57 1382,337.4 1382,356.87 " fill="none" id="Sentence-backto-BooleanSentence" style="stroke:#181818;stroke-width:1.0;"/><polygon fill="none" points="1382,288.17,1376,306.17,1388,306.17,1382,288.17" style="stroke:#181818;stroke-width:1.0;"/></g><!--reverse link Sentence to QuantifiedSentence--><g id="link_Sentence_QuantifiedSentence"><path codeLine="27" d="M1317.8101,292.9342 C1317.8101,292.9342 1150.69,330.54 1040.47,356.55 " fill="none" id="Sentence-backto-QuantifiedSentence" style="stroke:#181818;stroke-width:1.0;"/><polygon fill="none" points="1334.67,286.63,1315.7087,287.3142,1319.9114,298.5541,1334.67,286.63" style="stroke:#181818;stroke-width:1.0;"/></g><!--reverse link SimpleSentence to AtomicSentence--><g id="link_SimpleSentence_AtomicSentence"><path codeLine="45" d="M1954,415.58 C1954,433.93 1954,443.96 1954,466.35 " fill="none" id="SimpleSentence-backto-AtomicSentence" style="stroke:#181818;stroke-width:1.0;"/><polygon fill="none" points="1954,397.58,1948,415.58,1960,415.58,1954,397.58" style="stroke:#181818;stroke-width:1.0;"/></g><!--reverse link SimpleSentence to RelationalSentence--><g id="link_SimpleSentence_RelationalSentence"><path codeLine="46" d="M2041.874,401.4236 C2126.894,423.8636 2252.16,456.9 2341.75,480.54 " fill="none" id="SimpleSentence-backto-RelationalSentence" style="stroke:#181818;stroke-width:1.0;"/><polygon fill="none" points="2024.47,396.83,2040.3428,407.2249,2043.4052,395.6222,2024.47,396.83" style="stroke:#181818;stroke-width:1.0;"/></g><!--reverse link RelationalSentence to Equation--><g id="link_RelationalSentence_Equation"><path codeLine="47" d="M2521.5066,534.8317 C2612.7566,563.4217 2731,600.46 2731,600.46 C2731,600.46 2746.6,608.26 2763.18,616.55 " fill="none" id="RelationalSentence-backto-Equation" style="stroke:#181818;stroke-width:1.0;"/><polygon fill="none" points="2504.33,529.45,2519.7127,540.5573,2523.3006,529.1062,2504.33,529.45" style="stroke:#181818;stroke-width:1.0;"/></g><!--reverse link RelationalSentence to Inequation--><g id="link_RelationalSentence_Inequation"><path codeLine="48" d="M2324.5773,537.4119 C2240.6573,565.9319 2139,600.46 2139,600.46 C2139,600.46 2121.86,608.26 2103.65,616.55 " fill="none" id="RelationalSentence-backto-Inequation" style="stroke:#181818;stroke-width:1.0;"/><polygon fill="none" points="2341.62,531.62,2322.6467,531.731,2326.5079,543.0928,2341.62,531.62" style="stroke:#181818;stroke-width:1.0;"/></g><!--reverse link RelationalSentence to LessThan--><g id="link_RelationalSentence_LessThan"><path codeLine="49" d="M2522.0115,525.1566 C2651.9215,552.9566 2874,600.46 2874,600.46 C2874,600.46 2890.04,608.26 2907.08,616.55 " fill="none" id="RelationalSentence-backto-LessThan" style="stroke:#181818;stroke-width:1.0;"/><polygon fill="none" points="2504.41,521.39,2520.756,531.0238,2523.267,519.2895,2504.41,521.39" style="stroke:#181818;stroke-width:1.0;"/></g><!--reverse link RelationalSentence to LessThanOrEqual--><g id="link_RelationalSentence_LessThanOrEqual"><path codeLine="50" d="M2358.5817,550.1787 C2324.0917,574.9087 2294.14,596.4 2266.05,616.55 " fill="none" id="RelationalSentence-backto-LessThanOrEqual" style="stroke:#181818;stroke-width:1.0;"/><polygon fill="none" points="2373.21,539.69,2355.0855,545.3027,2362.078,555.0548,2373.21,539.69" style="stroke:#181818;stroke-width:1.0;"/></g><!--reverse link RelationalSentence to GreaterThan--><g id="link_RelationalSentence_GreaterThan"><path codeLine="51" d="M2423,557.69 C2423,582.42 2423,596.4 2423,616.55 " fill="none" id="RelationalSentence-backto-GreaterThan" style="stroke:#181818;stroke-width:1.0;"/><polygon fill="none" points="2423,539.69,2417,557.69,2429,557.69,2423,539.69" style="stroke:#181818;stroke-width:1.0;"/></g><!--reverse link RelationalSentence to GreaterThanOrEqual--><g id="link_RelationalSentence_GreaterThanOrEqual"><path codeLine="52" d="M2491.2311,549.913 C2527.9611,574.643 2560.42,596.5 2590.27,616.6 " fill="none" id="RelationalSentence-backto-GreaterThanOrEqual" style="stroke:#181818;stroke-width:1.0;"/><polygon fill="none" points="2476.3,539.86,2487.8801,554.89,2494.5821,544.9359,2476.3,539.86" style="stroke:#181818;stroke-width:1.0;"/></g><!--reverse link BooleanSentence to UnaryBooleanSentence--><g id="link_BooleanSentence_UnaryBooleanSentence"><path codeLine="62" d="M1419.7109,408.9419 C1445.0109,429.5319 1471.32,450.95 1499.98,474.28 " fill="none" id="BooleanSentence-backto-UnaryBooleanSentence" style="stroke:#181818;stroke-width:1.0;"/><polygon fill="none" points="1405.75,397.58,1415.9236,413.5955,1423.4982,404.2882,1405.75,397.58" style="stroke:#181818;stroke-width:1.0;"/></g><!--reverse link BooleanSentence to BinaryBooleanSentence--><g id="link_BooleanSentence_BinaryBooleanSentence"><path codeLine="63" d="M1355.2855,411.6356 C1340.6055,429.9856 1329.42,443.96 1311.5,466.35 " fill="none" id="BooleanSentence-backto-BinaryBooleanSentence" style="stroke:#181818;stroke-width:1.0;"/><polygon fill="none" points="1366.53,397.58,1350.6003,407.8875,1359.9707,415.3838,1366.53,397.58" style="stroke:#181818;stroke-width:1.0;"/></g><!--reverse link UnaryBooleanSentence to NegationSentence--><g id="link_UnaryBooleanSentence_NegationSentence"><path codeLine="66" d="M1623.3476,538.0563 C1690.0276,563.4963 1770.37,594.13 1829.14,616.55 " fill="none" id="UnaryBooleanSentence-backto-NegationSentence" style="stroke:#181818;stroke-width:1.0;"/><polygon fill="none" points="1606.53,531.64,1621.2088,543.6622,1625.4863,532.4504,1606.53,531.64" style="stroke:#181818;stroke-width:1.0;"/></g><!--reverse link BinaryBooleanSentence to ConjunctiveSentence--><g id="link_BinaryBooleanSentence_ConjunctiveSentence"><path codeLine="74" d="M1174.5994,546.4236 C1111.4494,571.1536 1046.73,596.5 995.41,616.6 " fill="none" id="BinaryBooleanSentence-backto-ConjunctiveSentence" style="stroke:#181818;stroke-width:1.0;"/><polygon fill="none" points="1191.36,539.86,1172.4115,540.8367,1176.7872,552.0105,1191.36,539.86" style="stroke:#181818;stroke-width:1.0;"/></g><!--reverse link BinaryBooleanSentence to DisjunctiveSentence--><g id="link_BinaryBooleanSentence_DisjunctiveSentence"><path codeLine="75" d="M1240.0545,553.2605 C1218.5045,577.9905 1202.46,596.4 1184.9,616.55 " fill="none" id="BinaryBooleanSentence-backto-DisjunctiveSentence" style="stroke:#181818;stroke-width:1.0;"/><polygon fill="none" points="1251.88,539.69,1235.531,549.3187,1244.578,557.2023,1251.88,539.69" style="stroke:#181818;stroke-width:1.0;"/></g><!--reverse link BinaryBooleanSentence to ExclusiveDisjunctiveSentence--><g id="link_BinaryBooleanSentence_ExclusiveDisjunctiveSentence"><path codeLine="76" d="M1332.0871,552.318 C1357.2071,577.048 1376.84,596.4 1397.3,616.55 " fill="none" id="BinaryBooleanSentence-backto-ExclusiveDisjunctiveSentence" style="stroke:#181818;stroke-width:1.0;"/><polygon fill="none" points="1319.26,539.69,1327.8778,556.5937,1336.2964,548.0423,1319.26,539.69" style="stroke:#181818;stroke-width:1.0;"/></g><!--reverse link BinaryBooleanSentence to ImplicationSentence--><g id="link_BinaryBooleanSentence_ImplicationSentence"><path codeLine="77" d="M1395.9328,542.7903 C1468.7928,567.8303 1549.51,595.57 1610.35,616.48 " fill="none" id="BinaryBooleanSentence-backto-ImplicationSentence" style="stroke:#181818;stroke-width:1.0;"/><polygon fill="none" points="1378.91,536.94,1393.9827,548.4645,1397.8828,537.116,1378.91,536.94" style="stroke:#181818;stroke-width:1.0;"/></g><!--reverse link BinaryBooleanSentence to BiconditionalSentence--><g id="link_BinaryBooleanSentence_BiconditionalSentence"><path codeLine="78" d="M1169.4198,528.3328 C1037.2598,556.6628 833,600.46 833,600.46 C833,600.46 807.51,608.26 780.43,616.55 " fill="none" id="BinaryBooleanSentence-backto-BiconditionalSentence" style="stroke:#181818;stroke-width:1.0;"/><polygon fill="none" points="1187.02,524.56,1168.1622,522.4661,1170.6774,534.1995,1187.02,524.56" style="stroke:#181818;stroke-width:1.0;"/></g><!--reverse link Named to QuantifiedVariable--><g id="link_Named_QuantifiedVariable"><path codeLine="88" d="M71.003,134.3118 C72.243,175.4018 75,267 75,267 C75,267 75,267 75,503.98 C75,503.98 208.73,569.59 287.61,608.29 " fill="none" id="Named-backto-QuantifiedVariable" style="stroke:#181818;stroke-width:1.0;"/><polygon fill="none" points="70.46,116.32,65.0057,134.4928,77.0002,134.1308,70.46,116.32" style="stroke:#181818;stroke-width:1.0;"/></g><!--link QuantifiedVariableBinding to Quantifier--><g id="link_QuantifiedVariableBinding_Quantifier"><path codeLine="91" d="M525,535.45 C525,555.6 525,569.52 525,594.22 " fill="none" id="QuantifiedVariableBinding-Quantifier" style="stroke:#181818;stroke-width:1.0;"/><polygon fill="#181818" points="525,523.45,521,529.45,525,535.45,529,529.45,525,523.45" style="stroke:#181818;stroke-width:1.0;"/><polygon fill="#181818" points="525,600.22,529,591.22,525,595.22,521,591.22,525,600.22" style="stroke:#181818;stroke-width:1.0;"/><text fill="#000000" font-family="sans-serif" font-size="13" lengthAdjust="spacing" textLength="71" x="448.1203" y="574.2723">+quantifier</text><text fill="#000000" font-family="sans-serif" font-size="13" lengthAdjust="spacing" textLength="8" x="511.1203" y="589.5828">1</text></g><!--link QuantifiedVariableBinding to QuantifiedVariable--><g id="link_QuantifiedVariableBinding_QuantifiedVariable"><path codeLine="92" d="M488.5933,530.5193 C457.8133,552.9593 421.5477,579.4044 386.7077,604.8144 " fill="none" id="QuantifiedVariableBinding-QuantifiedVariable" style="stroke:#181818;stroke-width:1.0;"/><polygon fill="#181818" points="498.29,523.45,491.0852,523.7524,488.5933,530.5193,495.7981,530.2169,498.29,523.45" style="stroke:#181818;stroke-width:1.0;"/><polygon fill="#181818" points="381.86,608.35,391.4885,606.2784,385.8997,605.4037,386.7744,599.8149,381.86,608.35" style="stroke:#181818;stroke-width:1.0;"/><text fill="#000000" font-family="sans-serif" font-size="13" lengthAdjust="spacing" textLength="58" x="325.5489" y="582.6655">+binding</text><text fill="#000000" font-family="sans-serif" font-size="13" lengthAdjust="spacing" textLength="24" x="359.5489" y="597.9761">0..1</text></g><!--reverse link Foundation to Sentences--><g id="link_Foundation_Sentences"><path codeLine="94" d="M169.2611,144.5777 C169.3264,144.885 168.2425,139.7844 168.3078,140.092 C168.4385,140.707 168.5693,141.3224 168.7,141.9375 C172.8825,161.62 177,181 177,181 C177,181 192.2625,201.8325 207.7625,222.9913 C215.5125,233.5706 223.3219,244.2316 229.3125,252.4108 C230.0613,253.4332 230.7817,254.4168 231.4701,255.3567 C231.6421,255.5916 231.8122,255.8238 231.9802,256.0532 " fill="none" id="Foundation-backto-Sentences" style="stroke:#181818;stroke-width:1.0;stroke-dasharray:7.0,7.0;"/><polygon fill="#181818" points="168.0139,138.7087,165.972,148.3436,169.0532,143.5995,173.7973,146.6807,168.0139,138.7087" style="stroke:#181818;stroke-width:1.0;"/><text fill="#000000" font-family="sans-serif" font-size="13" lengthAdjust="spacing" textLength="56" x="178" y="177.5684">&#171;import&#187;</text></g><!--reverse link Term to Sentences--><g id="link_Term_Sentences"><path codeLine="95" d="M266.8348,122.0094 C258.2448,147.2194 244,189 244,189 C244,189 243.7575,193.7238 243.3919,200.8463 C243.3462,201.7366 243.2985,202.6644 243.2492,203.6251 C243.2369,203.8653 243.2245,204.1075 243.2119,204.3517 C243.2057,204.4739 243.1994,204.5965 243.193,204.7196 " fill="none" id="Term-backto-Sentences" style="stroke:#181818;stroke-width:1.0;stroke-dasharray:7.0,7.0;"/><polygon fill="#181818" points="268.77,116.33,262.081,123.5589,267.1574,121.0628,269.6535,126.1392,268.77,116.33" style="stroke:#181818;stroke-width:1.0;"/><text fill="#000000" font-family="sans-serif" font-size="13" lengthAdjust="spacing" textLength="56" x="253" y="177.5684">&#171;import&#187;</text></g><!--SRC=[bLR1Rjim3BtxAuGSMoHe3hi4HO2rIuS2GuTjxKwzo3QNg9KbLvA71ft_VN9goufCEQvFYVZuA3v99FKp4oLLj20fpPwtIbOYlvPSAc8K5TgQG9X4EnHd0io-159Alc_-U3OXSz1GaayNoOxbG0emEvdh92ajDTq2kMdOgM5IaBU4sA-55IaeVLYWgRPnCqCoJhKcTxI0dBpLITsJN4lHO9WmkcNfBFUWYcuDPKSYD3vDWCPK7x7ziec3oC1d39mxI4U0GLXHSfW0l9AI0nKOyXtmewB2i3yCyXxZ8CrtdifyltARShQU2A4ucy_NP7QUCf4piPrvaDzKCPfok7et9OubI6bUbVD_ws7OCA4O3jbK31eeyjd8WcKnDKe5ESkeWTNXa8-DL6shmZhg5RbOBCwE4T4p-WdyS7ifZmNbEus5KuFbEfRKvgLgNqXu0Mu5H6tVGElx7HsnV5SDCny2lYgm8YdSspDw10uKd41tRaSNn84HzSOTd1GjR4ZWe9usfy5EhEdGBldJ7hwS7q9F3n6xdW-2glsWZY0tSQH4X5M9JU3aAETeEFSJtNChGR3SLnRs0QVWGj_1zY0hLcS7jfOIssF8QxlIKoKom_v2l8H_OVeqQFEQyKfRo2JqhNqvJPMBfDITOYPj4GzBbtSCsFOxGJ6rdIEsoKcEesbEOi1Id-I8op7gwdn1L4NVibJm51w4pK9foezMDwzCMnh3lFKwYRRthl46t5fMAhFDR1bh90X3czDXZ3eTiEtq_ls9Wzh1uSL9yQYMtlYWfbEqiyUZifruYKqWtd3M3sMBgboilOboHMQNbxQFI6NMwnaARdGBOFL_]--></g></svg>