<?xml version="1.0" encoding="us-ascii" standalone="no"?><svg xmlns="http://www.w3.org/2000/svg" xmlns:xlink="http://www.w3.org/1999/xlink" contentStyleType="text/css" height="670px" preserveAspectRatio="none" style="width:1155px;height:670px;" version="1.1" viewBox="0 0 1155 670" width="1155px" zoomAndPan="magnify"><defs/><g><!--cluster Constraints--><g id="cluster_Constraints"><path d="M8.5,6 L93.5,6 A3.75,3.75 0 0 1 96,8.5 L103,28.4883 L1145.5,28.4883 A2.5,2.5 0 0 1 1148,30.9883 L1148,661.48 A2.5,2.5 0 0 1 1145.5,663.98 L8.5,663.98 A2.5,2.5 0 0 1 6,661.48 L6,8.5 A2.5,2.5 0 0 1 8.5,6 " fill="none" style="stroke:#000000;stroke-width:1.5;"/><line style="stroke:#000000;stroke-width:1.5;" x1="6" x2="103" y1="28.4883" y2="28.4883"/><text fill="#000000" font-family="sans-serif" font-size="14" font-weight="bold" lengthAdjust="spacing" textLength="84" x="10" y="21.5352">Constraints</text></g><!--cluster Terms--><g id="cluster_Terms"><path d="M32.5,49 L79.5,49 A3.75,3.75 0 0 1 82,51.5 L89,71.4883 L127.5,71.4883 A2.5,2.5 0 0 1 130,73.9883 L130,129.5 A2.5,2.5 0 0 1 127.5,132 L32.5,132 A2.5,2.5 0 0 1 30,129.5 L30,51.5 A2.5,2.5 0 0 1 32.5,49 " fill="none" style="stroke:#000000;stroke-width:1.5;"/><line style="stroke:#000000;stroke-width:1.5;" x1="30" x2="89" y1="71.4883" y2="71.4883"/><text fill="#000000" font-family="sans-serif" font-size="14" font-weight="bold" lengthAdjust="spacing" textLength="46" x="34" y="64.5352">Terms</text></g><!--cluster Sentences--><g id="cluster_Sentences"><path d="M40.5,189 L112.5,189 A3.75,3.75 0 0 1 115,191.5 L122,211.4883 L1113.5,211.4883 A2.5,2.5 0 0 1 1116,213.9883 L1116,629.48 A2.5,2.5 0 0 1 1113.5,631.98 L40.5,631.98 A2.5,2.5 0 0 1 38,629.48 L38,191.5 A2.5,2.5 0 0 1 40.5,189 " fill="none" style="stroke:#000000;stroke-width:1.5;"/><line style="stroke:#000000;stroke-width:1.5;" x1="38" x2="122" y1="211.4883" y2="211.4883"/><text fill="#000000" font-family="sans-serif" font-size="14" font-weight="bold" lengthAdjust="spacing" textLength="71" x="42" y="204.5352">Sentences</text></g><!--class Term--><g id="elem_Term"><rect codeLine="9" fill="#F1F1F1" height="32" id="Term" rx="2.5" ry="2.5" style="stroke:#181818;stroke-width:0.5;" width="68" x="46" y="84"/><ellipse cx="61" cy="100" fill="#A9DCDF" rx="11" ry="11" style="stroke:#181818;stroke-width:1.0;"/><path d="M60.8633,95.3481 L59.7095,100.4199 L62.0254,100.4199 Z M59.3691,93.1069 L62.3657,93.1069 L65.7109,105.5 L63.2622,105.5 L62.4985,102.437 L59.2197,102.437 L58.4727,105.5 L56.0239,105.5 Z " fill="#000000"/><text fill="#000000" font-family="sans-serif" font-size="14" font-style="italic" lengthAdjust="spacing" textLength="36" x="75" y="105.291">Term</text></g><!--class Sentence--><g id="elem_Sentence"><rect codeLine="12" fill="#F1F1F1" height="40" id="Sentence" rx="2.5" ry="2.5" style="stroke:#181818;stroke-width:0.5;" width="94" x="584" y="232"/><ellipse cx="599" cy="248" fill="#A9DCDF" rx="11" ry="11" style="stroke:#181818;stroke-width:1.0;"/><path d="M598.8633,243.3481 L597.7095,248.4199 L600.0254,248.4199 Z M597.3691,241.1069 L600.3657,241.1069 L603.7109,253.5 L601.2622,253.5 L600.4985,250.437 L597.2197,250.437 L596.4727,253.5 L594.0239,253.5 Z " fill="#000000"/><text fill="#000000" font-family="sans-serif" font-size="14" font-style="italic" lengthAdjust="spacing" textLength="62" x="613" y="253.291">Sentence</text><line style="stroke:#181818;stroke-width:0.5;" x1="585" x2="677" y1="264" y2="264"/></g><!--class Simple--><g id="elem_Simple"><rect codeLine="15" fill="#F1F1F1" height="40" id="Simple" rx="2.5" ry="2.5" style="stroke:#181818;stroke-width:0.5;" width="78" x="592" y="333"/><ellipse cx="607" cy="349" fill="#A9DCDF" rx="11" ry="11" style="stroke:#181818;stroke-width:1.0;"/><path d="M606.8633,344.3481 L605.7095,349.4199 L608.0254,349.4199 Z M605.3691,342.1069 L608.3657,342.1069 L611.7109,354.5 L609.2622,354.5 L608.4985,351.437 L605.2197,351.437 L604.4727,354.5 L602.0239,354.5 Z " fill="#000000"/><text fill="#000000" font-family="sans-serif" font-size="14" font-style="italic" lengthAdjust="spacing" textLength="46" x="621" y="354.291">Simple</text><line style="stroke:#181818;stroke-width:0.5;" x1="593" x2="669" y1="365" y2="365"/></g><!--class Atomic--><g id="elem_Atomic"><rect codeLine="18" fill="#F1F1F1" height="72.9766" id="Atomic" rx="2.5" ry="2.5" style="stroke:#181818;stroke-width:0.5;" width="172" x="638" y="434"/><ellipse cx="695.75" cy="450" fill="#ADD1B2" rx="11" ry="11" style="stroke:#181818;stroke-width:1.0;"/><path d="M698.2231,456.1431 Q697.6421,456.4419 697.0029,456.5913 Q696.3638,456.7407 695.6582,456.7407 Q693.1514,456.7407 691.8315,455.0889 Q690.5117,453.437 690.5117,450.3159 Q690.5117,447.1865 691.8315,445.5347 Q693.1514,443.8828 695.6582,443.8828 Q696.3638,443.8828 697.0112,444.0322 Q697.6587,444.1816 698.2231,444.4805 L698.2231,447.2031 Q697.5923,446.6221 696.9988,446.3523 Q696.4053,446.0825 695.7744,446.0825 Q694.4297,446.0825 693.7449,447.1492 Q693.0601,448.2158 693.0601,450.3159 Q693.0601,452.4077 693.7449,453.4744 Q694.4297,454.541 695.7744,454.541 Q696.4053,454.541 696.9988,454.2712 Q697.5923,454.0015 698.2231,453.4204 Z " fill="#000000"/><text fill="#000000" font-family="sans-serif" font-size="14" lengthAdjust="spacing" textLength="48" x="716.25" y="455.291">Atomic</text><line style="stroke:#181818;stroke-width:0.5;" x1="639" x2="809" y1="466" y2="466"/><ellipse cx="649" cy="479.7441" fill="none" rx="3" ry="3" style="stroke:#038048;stroke-width:1.0;"/><text fill="#000000" font-family="sans-serif" font-size="14" lengthAdjust="spacing" textLength="108" x="658" y="483.5352">predicate: Term</text><ellipse cx="649" cy="496.2324" fill="none" rx="3" ry="3" style="stroke:#038048;stroke-width:1.0;"/><text fill="#000000" font-family="sans-serif" font-size="14" lengthAdjust="spacing" textLength="146" x="658" y="500.0234">arguments: 0..* Term</text></g><!--class Relational--><g id="elem_Relational"><rect codeLine="24" fill="#F1F1F1" height="72.9766" id="Relational" rx="2.5" ry="2.5" style="stroke:#181818;stroke-width:0.5;" width="100" x="488" y="434"/><ellipse cx="503" cy="450" fill="#A9DCDF" rx="11" ry="11" style="stroke:#181818;stroke-width:1.0;"/><path d="M502.8633,445.3481 L501.7095,450.4199 L504.0254,450.4199 Z M501.3691,443.1069 L504.3657,443.1069 L507.7109,455.5 L505.2622,455.5 L504.4985,452.437 L501.2197,452.437 L500.4727,455.5 L498.0239,455.5 Z " fill="#000000"/><text fill="#000000" font-family="sans-serif" font-size="14" font-style="italic" lengthAdjust="spacing" textLength="68" x="517" y="455.291">Relational</text><line style="stroke:#181818;stroke-width:0.5;" x1="489" x2="587" y1="466" y2="466"/><ellipse cx="499" cy="479.7441" fill="none" rx="3" ry="3" style="stroke:#038048;stroke-width:1.0;"/><text fill="#000000" font-family="sans-serif" font-size="14" lengthAdjust="spacing" textLength="64" x="508" y="483.5352">lhs: Term</text><ellipse cx="499" cy="496.2324" fill="none" rx="3" ry="3" style="stroke:#038048;stroke-width:1.0;"/><text fill="#000000" font-family="sans-serif" font-size="14" lengthAdjust="spacing" textLength="66" x="508" y="500.0234">rhs: Term</text></g><!--class Equation--><g id="elem_Equation"><rect codeLine="30" fill="#F1F1F1" height="40" id="Equation" rx="2.5" ry="2.5" style="stroke:#181818;stroke-width:0.5;" width="93" x="70.5" y="567.98"/><ellipse cx="85.5" cy="583.98" fill="#ADD1B2" rx="11" ry="11" style="stroke:#181818;stroke-width:1.0;"/><path d="M87.9731,590.1231 Q87.3921,590.4219 86.7529,590.5713 Q86.1138,590.7207 85.4082,590.7207 Q82.9014,590.7207 81.5815,589.0689 Q80.2617,587.417 80.2617,584.2959 Q80.2617,581.1665 81.5815,579.5147 Q82.9014,577.8628 85.4082,577.8628 Q86.1138,577.8628 86.7612,578.0122 Q87.4087,578.1616 87.9731,578.4605 L87.9731,581.1831 Q87.3423,580.6021 86.7488,580.3323 Q86.1553,580.0625 85.5244,580.0625 Q84.1797,580.0625 83.4949,581.1292 Q82.8101,582.1958 82.8101,584.2959 Q82.8101,586.3877 83.4949,587.4544 Q84.1797,588.521 85.5244,588.521 Q86.1553,588.521 86.7488,588.2512 Q87.3423,587.9815 87.9731,587.4004 Z " fill="#000000"/><text fill="#000000" font-family="sans-serif" font-size="14" lengthAdjust="spacing" textLength="61" x="99.5" y="589.271">Equation</text><line style="stroke:#181818;stroke-width:0.5;" x1="71.5" x2="162.5" y1="599.98" y2="599.98"/></g><!--class StrictInequation--><g id="elem_StrictInequation"><rect codeLine="31" fill="#F1F1F1" height="40" id="StrictInequation" rx="2.5" ry="2.5" style="stroke:#181818;stroke-width:0.5;" width="141" x="213.5" y="567.98"/><ellipse cx="228.5" cy="583.98" fill="#ADD1B2" rx="11" ry="11" style="stroke:#181818;stroke-width:1.0;"/><path d="M230.9731,590.1231 Q230.3921,590.4219 229.7529,590.5713 Q229.1138,590.7207 228.4082,590.7207 Q225.9014,590.7207 224.5815,589.0689 Q223.2617,587.417 223.2617,584.2959 Q223.2617,581.1665 224.5815,579.5147 Q225.9014,577.8628 228.4082,577.8628 Q229.1138,577.8628 229.7612,578.0122 Q230.4087,578.1616 230.9731,578.4605 L230.9731,581.1831 Q230.3423,580.6021 229.7488,580.3323 Q229.1553,580.0625 228.5244,580.0625 Q227.1797,580.0625 226.4949,581.1292 Q225.8101,582.1958 225.8101,584.2959 Q225.8101,586.3877 226.4949,587.4544 Q227.1797,588.521 228.5244,588.521 Q229.1553,588.521 229.7488,588.2512 Q230.3423,587.9815 230.9731,587.4004 Z " fill="#000000"/><text fill="#000000" font-family="sans-serif" font-size="14" lengthAdjust="spacing" textLength="109" x="242.5" y="589.271">StrictInequation</text><line style="stroke:#181818;stroke-width:0.5;" x1="214.5" x2="353.5" y1="599.98" y2="599.98"/></g><!--class LessThan--><g id="elem_LessThan"><rect codeLine="32" fill="#F1F1F1" height="40" id="LessThan" rx="2.5" ry="2.5" style="stroke:#181818;stroke-width:0.5;" width="96" x="404" y="567.98"/><ellipse cx="419" cy="583.98" fill="#ADD1B2" rx="11" ry="11" style="stroke:#181818;stroke-width:1.0;"/><path d="M421.4731,590.1231 Q420.8921,590.4219 420.2529,590.5713 Q419.6138,590.7207 418.9082,590.7207 Q416.4014,590.7207 415.0815,589.0689 Q413.7617,587.417 413.7617,584.2959 Q413.7617,581.1665 415.0815,579.5147 Q416.4014,577.8628 418.9082,577.8628 Q419.6138,577.8628 420.2612,578.0122 Q420.9087,578.1616 421.4731,578.4605 L421.4731,581.1831 Q420.8423,580.6021 420.2488,580.3323 Q419.6553,580.0625 419.0244,580.0625 Q417.6797,580.0625 416.9949,581.1292 Q416.3101,582.1958 416.3101,584.2959 Q416.3101,586.3877 416.9949,587.4544 Q417.6797,588.521 419.0244,588.521 Q419.6553,588.521 420.2488,588.2512 Q420.8423,587.9815 421.4731,587.4004 Z " fill="#000000"/><text fill="#000000" font-family="sans-serif" font-size="14" lengthAdjust="spacing" textLength="64" x="433" y="589.271">LessThan</text><line style="stroke:#181818;stroke-width:0.5;" x1="405" x2="499" y1="599.98" y2="599.98"/></g><!--class LessThanOrEqual--><g id="elem_LessThanOrEqual"><rect codeLine="33" fill="#F1F1F1" height="40" id="LessThanOrEqual" rx="2.5" ry="2.5" style="stroke:#181818;stroke-width:0.5;" width="151" x="549.5" y="567.98"/><ellipse cx="564.5" cy="583.98" fill="#ADD1B2" rx="11" ry="11" style="stroke:#181818;stroke-width:1.0;"/><path d="M566.9731,590.1231 Q566.3921,590.4219 565.7529,590.5713 Q565.1138,590.7207 564.4082,590.7207 Q561.9014,590.7207 560.5815,589.0689 Q559.2617,587.417 559.2617,584.2959 Q559.2617,581.1665 560.5815,579.5147 Q561.9014,577.8628 564.4082,577.8628 Q565.1138,577.8628 565.7612,578.0122 Q566.4087,578.1616 566.9731,578.4605 L566.9731,581.1831 Q566.3423,580.6021 565.7488,580.3323 Q565.1553,580.0625 564.5244,580.0625 Q563.1797,580.0625 562.4949,581.1292 Q561.8101,582.1958 561.8101,584.2959 Q561.8101,586.3877 562.4949,587.4544 Q563.1797,588.521 564.5244,588.521 Q565.1553,588.521 565.7488,588.2512 Q566.3423,587.9815 566.9731,587.4004 Z " fill="#000000"/><text fill="#000000" font-family="sans-serif" font-size="14" lengthAdjust="spacing" textLength="119" x="578.5" y="589.271">LessThanOrEqual</text><line style="stroke:#181818;stroke-width:0.5;" x1="550.5" x2="699.5" y1="599.98" y2="599.98"/></g><!--class GreaterThan--><g id="elem_GreaterThan"><rect codeLine="34" fill="#F1F1F1" height="40" id="GreaterThan" rx="2.5" ry="2.5" style="stroke:#181818;stroke-width:0.5;" width="118" x="750" y="567.98"/><ellipse cx="765" cy="583.98" fill="#ADD1B2" rx="11" ry="11" style="stroke:#181818;stroke-width:1.0;"/><path d="M767.4731,590.1231 Q766.8921,590.4219 766.2529,590.5713 Q765.6138,590.7207 764.9082,590.7207 Q762.4014,590.7207 761.0815,589.0689 Q759.7617,587.417 759.7617,584.2959 Q759.7617,581.1665 761.0815,579.5147 Q762.4014,577.8628 764.9082,577.8628 Q765.6138,577.8628 766.2612,578.0122 Q766.9087,578.1616 767.4731,578.4605 L767.4731,581.1831 Q766.8423,580.6021 766.2488,580.3323 Q765.6553,580.0625 765.0244,580.0625 Q763.6797,580.0625 762.9949,581.1292 Q762.3101,582.1958 762.3101,584.2959 Q762.3101,586.3877 762.9949,587.4544 Q763.6797,588.521 765.0244,588.521 Q765.6553,588.521 766.2488,588.2512 Q766.8423,587.9815 767.4731,587.4004 Z " fill="#000000"/><text fill="#000000" font-family="sans-serif" font-size="14" lengthAdjust="spacing" textLength="86" x="779" y="589.271">GreaterThan</text><line style="stroke:#181818;stroke-width:0.5;" x1="751" x2="867" y1="599.98" y2="599.98"/></g><!--class GreaterThanOrEqual--><g id="elem_GreaterThanOrEqual"><rect codeLine="35" fill="#F1F1F1" height="40" id="GreaterThanOrEqual" rx="2.5" ry="2.5" style="stroke:#181818;stroke-width:0.5;" width="173" x="918.5" y="567.98"/><ellipse cx="933.5" cy="583.98" fill="#ADD1B2" rx="11" ry="11" style="stroke:#181818;stroke-width:1.0;"/><path d="M935.9731,590.1231 Q935.3921,590.4219 934.7529,590.5713 Q934.1138,590.7207 933.4082,590.7207 Q930.9014,590.7207 929.5815,589.0689 Q928.2617,587.417 928.2617,584.2959 Q928.2617,581.1665 929.5815,579.5147 Q930.9014,577.8628 933.4082,577.8628 Q934.1138,577.8628 934.7612,578.0122 Q935.4087,578.1616 935.9731,578.4605 L935.9731,581.1831 Q935.3423,580.6021 934.7488,580.3323 Q934.1553,580.0625 933.5244,580.0625 Q932.1797,580.0625 931.4949,581.1292 Q930.8101,582.1958 930.8101,584.2959 Q930.8101,586.3877 931.4949,587.4544 Q932.1797,588.521 933.5244,588.521 Q934.1553,588.521 934.7488,588.2512 Q935.3423,587.9815 935.9731,587.4004 Z " fill="#000000"/><text fill="#000000" font-family="sans-serif" font-size="14" lengthAdjust="spacing" textLength="141" x="947.5" y="589.271">GreaterThanOrEqual</text><line style="stroke:#181818;stroke-width:0.5;" x1="919.5" x2="1090.5" y1="599.98" y2="599.98"/></g><!--link Sentence to Sentence--><g id="link_Sentence_Sentence"><path codeLine="13" d="M678.41,242.96 C704.29,241.34 728,244.36 728,252 C728,259.65 710.2784,263.0325 684.3984,261.4225 " fill="none" id="Sentence-to-Sentence" style="stroke:#181818;stroke-width:1.0;"/><polygon fill="#181818" points="678.41,261.05,687.1443,265.6011,683.4004,261.3605,687.641,257.6165,678.41,261.05" style="stroke:#181818;stroke-width:1.0;"/><text fill="#000000" font-family="sans-serif" font-size="13" lengthAdjust="spacing" textLength="52" x="685.9804" y="223.0813">+nested</text><text fill="#000000" font-family="sans-serif" font-size="13" lengthAdjust="spacing" textLength="22" x="700.9804" y="238.3918">0..*</text><text fill="#000000" font-family="sans-serif" font-size="13" lengthAdjust="spacing" textLength="50" x="685.8773" y="276.1305">+parent</text><text fill="#000000" font-family="sans-serif" font-size="13" lengthAdjust="spacing" textLength="24" x="698.8773" y="291.4411">0..1</text></g><!--reverse link Sentence to Simple--><g id="link_Sentence_Simple"><path codeLine="16" d="M631,290.09 C631,307.51 631,315.13 631,332.64 " fill="none" id="Sentence-backto-Simple" style="stroke:#181818;stroke-width:1.0;"/><polygon fill="none" points="631,272.09,625,290.09,637,290.09,631,272.09" style="stroke:#181818;stroke-width:1.0;"/></g><!--reverse link Simple to Atomic--><g id="link_Simple_Atomic"><path codeLine="22" d="M657.855,387.3531 C671.085,403.7931 679.16,413.81 695.21,433.74 " fill="none" id="Simple-backto-Atomic" style="stroke:#181818;stroke-width:1.0;"/><polygon fill="none" points="646.57,373.33,653.1807,391.1148,662.5294,383.5914,646.57,373.33" style="stroke:#181818;stroke-width:1.0;"/></g><!--reverse link Simple to Relational--><g id="link_Simple_Relational"><path codeLine="28" d="M604.145,387.3531 C590.915,403.7931 582.84,413.81 566.79,433.74 " fill="none" id="Simple-backto-Relational" style="stroke:#181818;stroke-width:1.0;"/><polygon fill="none" points="615.43,373.33,599.4706,383.5914,608.8193,391.1148,615.43,373.33" style="stroke:#181818;stroke-width:1.0;"/></g><!--reverse link Relational to Equation--><g id="link_Relational_Equation"><path codeLine="37" d="M470.2811,490.0711 C388.1011,512.6111 243.72,552.22 163.87,574.12 " fill="none" id="Relational-backto-Equation" style="stroke:#181818;stroke-width:1.0;"/><polygon fill="none" points="487.64,485.31,468.694,484.2848,471.8681,495.8574,487.64,485.31" style="stroke:#181818;stroke-width:1.0;"/></g><!--reverse link Relational to StrictInequation--><g id="link_Relational_StrictInequation"><path codeLine="38" d="M471.1244,501.9006 C424.1044,523.2806 371.17,547.35 326.8,567.52 " fill="none" id="Relational-backto-StrictInequation" style="stroke:#181818;stroke-width:1.0;"/><polygon fill="none" points="487.51,494.45,468.6408,496.4387,473.6079,507.3624,487.51,494.45" style="stroke:#181818;stroke-width:1.0;"/></g><!--reverse link Relational to LessThan--><g id="link_Relational_LessThan"><path codeLine="39" d="M500.5089,521.8366 C485.7189,541.6966 478.67,551.17 466.46,567.56 " fill="none" id="Relational-backto-LessThan" style="stroke:#181818;stroke-width:1.0;"/><polygon fill="none" points="511.26,507.4,495.6967,518.2529,505.3211,525.4203,511.26,507.4" style="stroke:#181818;stroke-width:1.0;"/></g><!--reverse link Relational to LessThanOrEqual--><g id="link_Relational_LessThanOrEqual"><path codeLine="40" d="M575.8801,521.7774 C590.8401,541.6374 598.02,551.17 610.37,567.56 " fill="none" id="Relational-backto-LessThanOrEqual" style="stroke:#181818;stroke-width:1.0;"/><polygon fill="none" points="565.05,507.4,571.0876,525.3874,580.6726,518.1674,565.05,507.4" style="stroke:#181818;stroke-width:1.0;"/></g><!--reverse link Relational to GreaterThan--><g id="link_Relational_GreaterThan"><path codeLine="41" d="M604.7109,503.0578 C618.2809,509.4778 613,506.98 613,506.98 C613,506.98 703.29,543.83 761.3,567.51 " fill="none" id="Relational-backto-GreaterThan" style="stroke:#181818;stroke-width:1.0;"/><polygon fill="none" points="588.44,495.36,602.145,508.4815,607.2769,497.6342,588.44,495.36" style="stroke:#181818;stroke-width:1.0;"/></g><!--reverse link Relational to GreaterThanOrEqual--><g id="link_Relational_GreaterThanOrEqual"><path codeLine="42" d="M604.7109,503.0578 C618.2809,509.4778 613,506.98 613,506.98 C613,506.98 802.52,545.66 918,569.23 " fill="none" id="Relational-backto-GreaterThanOrEqual" style="stroke:#181818;stroke-width:1.0;"/><polygon fill="none" points="588.44,495.36,602.145,508.4815,607.2769,497.6342,588.44,495.36" style="stroke:#181818;stroke-width:1.0;"/></g><!--reverse link Term to Sentences--><g id="link_Term_Sentences"><path codeLine="44" d="M71.3319,121.8083 C62.5219,142.9483 50,173 50,173 C50,173 49.7575,177.7238 49.3919,184.8464 C49.3462,185.7367 49.2985,186.6646 49.2492,187.6253 C49.2369,187.8655 49.2245,188.1077 49.2119,188.352 C49.2057,188.4741 49.1994,188.5967 49.193,188.7198 " fill="none" id="Term-backto-Sentences" style="stroke:#181818;stroke-width:1.0;stroke-dasharray:7.0,7.0;"/><polygon fill="#181818" points="73.64,116.27,66.4857,123.0388,71.7166,120.8853,73.8701,126.1162,73.64,116.27" style="stroke:#181818;stroke-width:1.0;"/><text fill="#000000" font-family="sans-serif" font-size="13" lengthAdjust="spacing" textLength="56" x="60" y="161.5684">&#171;import&#187;</text></g><!--SRC=[ZLFBQiCm4BpxAuIF3JRfePSG3AMKKYWKsXnxKUmb5j6hMlaGqlnx9JzaEOdJxisxCxEpOnltJ6fgg21RMkvtHZMoUb9S6M8DbUX686s20SMP17lGGBJY1_yGpQIg046JXsLIimg805kh2fD4Escw0_Aa93fP9YsIOq9S3PCD637qVFLyiGM3eKctdbrQKdAAs7B8yTIEJnErJ-SPP0cnuXbvW0m2la8lNKX02zMNNERvNKgoh72zBeksTvy6S63FRc92y-cUhfCrElifRWXr_4Uh12kZItmjj86AbTJ2girXEgHcrmWdYolY3vWYHX-zyk2ZTPNCdV41d5gc9ENdLdYDrqoOY_QuEHARRf_9uFcxQV5nYdswrh3IlagOHRm1ugQcDoRlnklpIy2B0PUmkSwEXf5000NB_O7ZoUDtSEvz7XgE-1ioc9b7ncVz2tLRiWjc_EVoHkT5- -PN95sltOjLnXP5cfn-0G00]--></g></svg>