<?xml version="1.0" encoding="us-ascii" standalone="no"?><svg xmlns="http://www.w3.org/2000/svg" xmlns:xlink="http://www.w3.org/1999/xlink" contentStyleType="text/css" height="570px" preserveAspectRatio="none" style="width:889px;height:570px;" version="1.1" viewBox="0 0 889 570" width="889px" zoomAndPan="magnify"><defs/><g><!--cluster Foundation--><g id="cluster_Foundation"><path d="M8.5,6 L90.5,6 A3.75,3.75 0 0 1 93,8.5 L100,28.4883 L309.5,28.4883 A2.5,2.5 0 0 1 312,30.9883 L312,102.5 A2.5,2.5 0 0 1 309.5,105 L8.5,105 A2.5,2.5 0 0 1 6,102.5 L6,8.5 A2.5,2.5 0 0 1 8.5,6 " fill="none" style="stroke:#000000;stroke-width:1.5;"/><line style="stroke:#000000;stroke-width:1.5;" x1="6" x2="100" y1="28.4883" y2="28.4883"/><text fill="#000000" font-family="sans-serif" font-size="14" font-weight="bold" lengthAdjust="spacing" textLength="81" x="10" y="21.5352">Foundation</text></g><!--cluster Values--><g id="cluster_Values"><path d="M713.5,6 L762.5,6 A3.75,3.75 0 0 1 765,8.5 L772,28.4883 L879.5,28.4883 A2.5,2.5 0 0 1 882,30.9883 L882,102.5 A2.5,2.5 0 0 1 879.5,105 L713.5,105 A2.5,2.5 0 0 1 711,102.5 L711,8.5 A2.5,2.5 0 0 1 713.5,6 " fill="none" style="stroke:#000000;stroke-width:1.5;"/><line style="stroke:#000000;stroke-width:1.5;" x1="711" x2="772" y1="28.4883" y2="28.4883"/><text fill="#000000" font-family="sans-serif" font-size="14" font-weight="bold" lengthAdjust="spacing" textLength="48" x="715" y="21.5352">Values</text></g><!--cluster Constraints--><g id="cluster_Constraints"><path d="M234.5,170 L319.5,170 A3.75,3.75 0 0 1 322,172.5 L329,192.4883 L729.5,192.4883 A2.5,2.5 0 0 1 732,194.9883 L732,560.5 A2.5,2.5 0 0 1 729.5,563 L234.5,563 A2.5,2.5 0 0 1 232,560.5 L232,172.5 A2.5,2.5 0 0 1 234.5,170 " fill="none" style="stroke:#000000;stroke-width:1.5;"/><line style="stroke:#000000;stroke-width:1.5;" x1="232" x2="329" y1="192.4883" y2="192.4883"/><text fill="#000000" font-family="sans-serif" font-size="14" font-weight="bold" lengthAdjust="spacing" textLength="84" x="236" y="185.5352">Constraints</text></g><!--cluster Sentences--><g id="cluster_Sentences"><path d="M568.5,444 L640.5,444 A3.75,3.75 0 0 1 643,446.5 L650,466.4883 L689.5,466.4883 A2.5,2.5 0 0 1 692,468.9883 L692,524.5 A2.5,2.5 0 0 1 689.5,527 L568.5,527 A2.5,2.5 0 0 1 566,524.5 L566,446.5 A2.5,2.5 0 0 1 568.5,444 " fill="none" style="stroke:#000000;stroke-width:1.5;"/><line style="stroke:#000000;stroke-width:1.5;" x1="566" x2="650" y1="466.4883" y2="466.4883"/><text fill="#000000" font-family="sans-serif" font-size="14" font-weight="bold" lengthAdjust="spacing" textLength="71" x="570" y="459.5352">Sentences</text></g><!--cluster Environments--><g id="cluster_Environments"><path d="M266.5,221 L366.5,221 A3.75,3.75 0 0 1 369,223.5 L376,243.4883 L539.5,243.4883 A2.5,2.5 0 0 1 542,245.9883 L542,528.5 A2.5,2.5 0 0 1 539.5,531 L266.5,531 A2.5,2.5 0 0 1 264,528.5 L264,223.5 A2.5,2.5 0 0 1 266.5,221 " fill="none" style="stroke:#000000;stroke-width:1.5;"/><line style="stroke:#000000;stroke-width:1.5;" x1="264" x2="376" y1="243.4883" y2="243.4883"/><text fill="#000000" font-family="sans-serif" font-size="14" font-weight="bold" lengthAdjust="spacing" textLength="99" x="268" y="236.5352">Environments</text></g><!--class Named--><g id="elem_Named"><rect codeLine="9" fill="#F1F1F1" height="32" id="Named" rx="2.5" ry="2.5" style="stroke:#181818;stroke-width:0.5;" width="80" x="164" y="49"/><ellipse cx="179" cy="65" fill="#A9DCDF" rx="11" ry="11" style="stroke:#181818;stroke-width:1.0;"/><path d="M178.8633,60.3481 L177.7095,65.4199 L180.0254,65.4199 Z M177.3691,58.1069 L180.3657,58.1069 L183.7109,70.5 L181.2622,70.5 L180.4985,67.437 L177.2197,67.437 L176.4727,70.5 L174.0239,70.5 Z " fill="#000000"/><text fill="#000000" font-family="sans-serif" font-size="14" font-style="italic" lengthAdjust="spacing" textLength="48" x="193" y="70.291">Named</text></g><!--class Typed--><g id="elem_Typed"><rect codeLine="10" fill="#F1F1F1" height="32" id="Typed" rx="2.5" ry="2.5" style="stroke:#181818;stroke-width:0.5;" width="74" x="30" y="49"/><ellipse cx="45" cy="65" fill="#A9DCDF" rx="11" ry="11" style="stroke:#181818;stroke-width:1.0;"/><path d="M44.8633,60.3481 L43.7095,65.4199 L46.0254,65.4199 Z M43.3691,58.1069 L46.3657,58.1069 L49.7109,70.5 L47.2622,70.5 L46.4985,67.437 L43.2197,67.437 L42.4727,70.5 L40.0239,70.5 Z " fill="#000000"/><text fill="#000000" font-family="sans-serif" font-size="14" font-style="italic" lengthAdjust="spacing" textLength="42" x="59" y="70.291">Typed</text></g><!--class Valued--><g id="elem_Valued"><rect codeLine="15" fill="#F1F1F1" height="32" id="Valued" rx="2.5" ry="2.5" style="stroke:#181818;stroke-width:0.5;" width="79" x="779.5" y="49"/><ellipse cx="794.5" cy="65" fill="#A9DCDF" rx="11" ry="11" style="stroke:#181818;stroke-width:1.0;"/><path d="M794.3633,60.3481 L793.2095,65.4199 L795.5254,65.4199 Z M792.8691,58.1069 L795.8657,58.1069 L799.2109,70.5 L796.7622,70.5 L795.9985,67.437 L792.7197,67.437 L791.9727,70.5 L789.5239,70.5 Z " fill="#000000"/><text fill="#000000" font-family="sans-serif" font-size="14" font-style="italic" lengthAdjust="spacing" textLength="47" x="808.5" y="70.291">Valued</text></g><!--class Sentence--><g id="elem_Sentence"><rect codeLine="21" fill="#F1F1F1" height="32" id="Sentence" rx="2.5" ry="2.5" style="stroke:#181818;stroke-width:0.5;" width="94" x="582" y="479"/><ellipse cx="597" cy="495" fill="#A9DCDF" rx="11" ry="11" style="stroke:#181818;stroke-width:1.0;"/><path d="M596.8633,490.3481 L595.7095,495.4199 L598.0254,495.4199 Z M595.3691,488.1069 L598.3657,488.1069 L601.7109,500.5 L599.2622,500.5 L598.4985,497.437 L595.2197,497.437 L594.4727,500.5 L592.0239,500.5 Z " fill="#000000"/><text fill="#000000" font-family="sans-serif" font-size="14" font-style="italic" lengthAdjust="spacing" textLength="62" x="611" y="500.291">Sentence</text></g><!--class EnvironmentDefinition--><g id="elem_EnvironmentDefinition"><rect codeLine="24" fill="#F1F1F1" height="40" id="EnvironmentDefinition" rx="2.5" ry="2.5" style="stroke:#181818;stroke-width:0.5;" width="186" x="280" y="256"/><ellipse cx="295" cy="272" fill="#A9DCDF" rx="11" ry="11" style="stroke:#181818;stroke-width:1.0;"/><path d="M294.8633,267.3481 L293.7095,272.4199 L296.0254,272.4199 Z M293.3691,265.1069 L296.3657,265.1069 L299.7109,277.5 L297.2622,277.5 L296.4985,274.437 L293.2197,274.437 L292.4727,277.5 L290.0239,277.5 Z " fill="#000000"/><text fill="#000000" font-family="sans-serif" font-size="14" font-style="italic" lengthAdjust="spacing" textLength="154" x="309" y="277.291">EnvironmentDefinition</text><line style="stroke:#181818;stroke-width:0.5;" x1="281" x2="465" y1="288" y2="288"/></g><!--class Function--><g id="elem_Function"><rect codeLine="27" fill="#F1F1F1" height="40" id="Function" rx="2.5" ry="2.5" style="stroke:#181818;stroke-width:0.5;" width="92" x="280" y="357"/><ellipse cx="295" cy="373" fill="#ADD1B2" rx="11" ry="11" style="stroke:#181818;stroke-width:1.0;"/><path d="M297.4731,379.1431 Q296.8921,379.4419 296.2529,379.5913 Q295.6138,379.7407 294.9082,379.7407 Q292.4014,379.7407 291.0815,378.0889 Q289.7617,376.437 289.7617,373.3159 Q289.7617,370.1865 291.0815,368.5347 Q292.4014,366.8828 294.9082,366.8828 Q295.6138,366.8828 296.2612,367.0322 Q296.9087,367.1816 297.4731,367.4805 L297.4731,370.2031 Q296.8423,369.6221 296.2488,369.3523 Q295.6553,369.0825 295.0244,369.0825 Q293.6797,369.0825 292.9949,370.1492 Q292.3101,371.2158 292.3101,373.3159 Q292.3101,375.4077 292.9949,376.4744 Q293.6797,377.541 295.0244,377.541 Q295.6553,377.541 296.2488,377.2712 Q296.8423,377.0015 297.4731,376.4204 Z " fill="#000000"/><text fill="#000000" font-family="sans-serif" font-size="14" lengthAdjust="spacing" textLength="60" x="309" y="378.291">Function</text><line style="stroke:#181818;stroke-width:0.5;" x1="281" x2="371" y1="389" y2="389"/></g><!--class Parameter--><g id="elem_Parameter"><rect codeLine="32" fill="#F1F1F1" height="40" id="Parameter" rx="2.5" ry="2.5" style="stroke:#181818;stroke-width:0.5;" width="102" x="280" y="475"/><ellipse cx="295" cy="491" fill="#ADD1B2" rx="11" ry="11" style="stroke:#181818;stroke-width:1.0;"/><path d="M297.4731,497.1431 Q296.8921,497.4419 296.2529,497.5913 Q295.6138,497.7407 294.9082,497.7407 Q292.4014,497.7407 291.0815,496.0889 Q289.7617,494.437 289.7617,491.3159 Q289.7617,488.1865 291.0815,486.5347 Q292.4014,484.8828 294.9082,484.8828 Q295.6138,484.8828 296.2612,485.0322 Q296.9087,485.1816 297.4731,485.4805 L297.4731,488.2031 Q296.8423,487.6221 296.2488,487.3523 Q295.6553,487.0825 295.0244,487.0825 Q293.6797,487.0825 292.9949,488.1492 Q292.3101,489.2158 292.3101,491.3159 Q292.3101,493.4077 292.9949,494.4744 Q293.6797,495.541 295.0244,495.541 Q295.6553,495.541 296.2488,495.2712 Q296.8423,495.0015 297.4731,494.4204 Z " fill="#000000"/><text fill="#000000" font-family="sans-serif" font-size="14" lengthAdjust="spacing" textLength="70" x="309" y="496.291">Parameter</text><line style="stroke:#181818;stroke-width:0.5;" x1="281" x2="381" y1="507" y2="507"/></g><!--class Constant--><g id="elem_Constant"><rect codeLine="37" fill="#F1F1F1" height="40" id="Constant" rx="2.5" ry="2.5" style="stroke:#181818;stroke-width:0.5;" width="94" x="432" y="357"/><ellipse cx="447" cy="373" fill="#ADD1B2" rx="11" ry="11" style="stroke:#181818;stroke-width:1.0;"/><path d="M449.4731,379.1431 Q448.8921,379.4419 448.2529,379.5913 Q447.6138,379.7407 446.9082,379.7407 Q444.4014,379.7407 443.0815,378.0889 Q441.7617,376.437 441.7617,373.3159 Q441.7617,370.1865 443.0815,368.5347 Q444.4014,366.8828 446.9082,366.8828 Q447.6138,366.8828 448.2612,367.0322 Q448.9087,367.1816 449.4731,367.4805 L449.4731,370.2031 Q448.8423,369.6221 448.2488,369.3523 Q447.6553,369.0825 447.0244,369.0825 Q445.6797,369.0825 444.9949,370.1492 Q444.3101,371.2158 444.3101,373.3159 Q444.3101,375.4077 444.9949,376.4744 Q445.6797,377.541 447.0244,377.541 Q447.6553,377.541 448.2488,377.2712 Q448.8423,377.0015 449.4731,376.4204 Z " fill="#000000"/><text fill="#000000" font-family="sans-serif" font-size="14" lengthAdjust="spacing" textLength="62" x="461" y="378.291">Constant</text><line style="stroke:#181818;stroke-width:0.5;" x1="433" x2="525" y1="389" y2="389"/></g><!--reverse link Named to EnvironmentDefinition--><g id="link_Named_EnvironmentDefinition"><path codeLine="25" d="M227.5066,95.374 C240.5266,111.644 248,121 248,121 C248,121 323.91,214.52 357.42,255.81 " fill="none" id="Named-backto-EnvironmentDefinition" style="stroke:#181818;stroke-width:1.0;"/><polygon fill="none" points="216.26,81.32,222.822,99.1228,232.1913,91.6251,216.26,81.32" style="stroke:#181818;stroke-width:1.0;"/></g><!--reverse link EnvironmentDefinition to Function--><g id="link_EnvironmentDefinition_Function"><path codeLine="28" d="M356.2204,312.3506 C347.9504,329.7706 343.51,339.13 335.19,356.63 " fill="none" id="EnvironmentDefinition-backto-Function" style="stroke:#181818;stroke-width:1.0;"/><polygon fill="none" points="363.94,296.09,350.8002,309.7774,361.6406,314.9238,363.94,296.09" style="stroke:#181818;stroke-width:1.0;"/></g><!--reverse link Typed to Function--><g id="link_Typed_Function"><path codeLine="29" d="M90.4968,95.5357 C131.5268,147.1057 250,296 250,296 C250,296 285.11,332.96 307.6,356.63 " fill="none" id="Typed-backto-Function" style="stroke:#181818;stroke-width:1.0;"/><polygon fill="none" points="79.29,81.45,85.8016,99.2713,95.1921,91.8001,79.29,81.45" style="stroke:#181818;stroke-width:1.0;"/></g><!--link Function to Sentence--><g id="link_Function_Sentence"><path codeLine="30" d="M384.0935,393.1111 C449.4435,410.1111 549,436 549,436 C549,436 579.4221,458.0585 603.1221,475.2385 " fill="none" id="Function-Sentence" style="stroke:#181818;stroke-width:1.0;"/><polygon fill="#181818" points="372.48,390.09,377.2797,395.4717,384.0935,393.1111,379.2938,387.7294,372.48,390.09" style="stroke:#181818;stroke-width:1.0;"/><polygon fill="#181818" points="607.98,478.76,603.0408,470.2392,603.9317,475.8254,598.3455,476.7164,607.98,478.76" style="stroke:#181818;stroke-width:1.0;"/><text fill="#000000" font-family="sans-serif" font-size="13" lengthAdjust="spacing" textLength="41" x="557.3785" y="437.4775">+body</text><text fill="#000000" font-family="sans-serif" font-size="13" lengthAdjust="spacing" textLength="4" x="575.8785" y="452.788">&#160;</text><text fill="#000000" font-family="sans-serif" font-size="13" lengthAdjust="spacing" textLength="4" x="575.8785" y="468.0985">&#160;</text></g><!--reverse link Named to Parameter--><g id="link_Named_Parameter"><path codeLine="33" d="M208.5777,98.9087 C217.5777,163.6687 250,397 250,397 C250,397 291.39,446.57 315,474.84 " fill="none" id="Named-backto-Parameter" style="stroke:#181818;stroke-width:1.0;"/><polygon fill="none" points="206.1,81.08,202.6348,99.7346,214.5206,98.0827,206.1,81.08" style="stroke:#181818;stroke-width:1.0;"/></g><!--reverse link Typed to Parameter--><g id="link_Typed_Parameter"><path codeLine="34" d="M74.8789,98.9558 C87.2189,150.5258 122,296 122,296 C122,296 260,428 260,428 C260,428 289.14,455.09 310.08,474.55 " fill="none" id="Typed-backto-Parameter" style="stroke:#181818;stroke-width:1.0;"/><polygon fill="none" points="70.69,81.45,69.0436,100.3521,80.7142,97.5595,70.69,81.45" style="stroke:#181818;stroke-width:1.0;"/></g><!--link Function to Parameter--><g id="link_Function_Parameter"><path codeLine="35" d="M327.3552,409.4089 C328.2752,430.8189 328.9828,447.0855 329.9028,468.5255 " fill="none" id="Function-Parameter" style="stroke:#181818;stroke-width:1.0;"/><polygon fill="#181818" points="326.84,397.42,323.1013,403.5862,327.3552,409.4089,331.0939,403.2427,326.84,397.42" style="stroke:#181818;stroke-width:1.0;"/><polygon fill="#181818" points="330.16,474.52,333.7705,465.3568,329.9456,469.5246,325.7778,465.6998,330.16,474.52" style="stroke:#181818;stroke-width:1.0;"/><text fill="#000000" font-family="sans-serif" font-size="13" lengthAdjust="spacing" textLength="80" x="240.7158" y="448.9554">+parameters</text><text fill="#000000" font-family="sans-serif" font-size="13" lengthAdjust="spacing" textLength="6" x="314.7158" y="464.266">*</text></g><!--reverse link EnvironmentDefinition to Constant--><g id="link_EnvironmentDefinition_Constant"><path codeLine="38" d="M406.8436,308.6075 C425.5236,326.0575 439.7,339.3 458.36,356.73 " fill="none" id="EnvironmentDefinition-backto-Constant" style="stroke:#181818;stroke-width:1.0;"/><polygon fill="none" points="393.69,296.32,402.7478,312.992,410.9394,304.223,393.69,296.32" style="stroke:#181818;stroke-width:1.0;"/></g><!--reverse link Valued to Constant--><g id="link_Valued_Constant"><path codeLine="39" d="M808.7837,98.6283 C792.6437,150.1983 747,296 747,296 C747,296 603.23,338.92 526.3,361.88 " fill="none" id="Valued-backto-Constant" style="stroke:#181818;stroke-width:1.0;"/><polygon fill="none" points="814.16,81.45,803.0575,96.8362,814.5098,100.4204,814.16,81.45" style="stroke:#181818;stroke-width:1.0;"/></g><!--reverse link Foundation to Constraints--><g id="link_Foundation_Constraints"><path codeLine="42" d="M317.6811,70.9181 C318.4621,71.1985 314.7785,69.8757 315.648,70.188 C322.6039,72.686 332.3346,76.1807 343.9055,80.3364 C367.0472,88.6478 397.5494,99.6031 427.9338,110.5163 C488.7025,132.3425 549,154 549,154 C549,154 551.6495,155.832 556.2966,159.0452 C558.6201,160.6518 561.443,162.6037 564.6837,164.8446 C566.3041,165.965 568.029,167.1576 569.8481,168.4155 C570.3029,168.7299 570.7635,169.0485 571.23,169.371 C571.4632,169.5322 571.6978,169.6944 571.9338,169.8577 " fill="none" id="Foundation-backto-Constraints" style="stroke:#181818;stroke-width:1.0;stroke-dasharray:7.0,7.0;"/><polygon fill="#181818" points="312.0342,68.8902,319.1527,75.6966,316.74,70.5801,321.8565,68.1674,312.0342,68.8902" style="stroke:#181818;stroke-width:1.0;"/><text fill="#000000" font-family="sans-serif" font-size="13" lengthAdjust="spacing" textLength="56" x="524" y="142.5684">&#171;import&#187;</text></g><!--reverse link Values to Constraints--><g id="link_Values_Constraints"><path codeLine="43" d="M715.423,111.0562 C715.3856,111.5268 715.795,106.3671 715.7581,106.8322 C715.6843,107.7623 715.6114,108.6806 715.5398,109.5832 C715.2534,113.1938 714.9869,116.5547 714.7588,119.4313 C714.3025,125.1844 714,129 714,129 C714,129 714,146 714,146 C714,146 714.6056,153.8125 715.5188,165.5923 C715.5758,166.3286 715.6341,167.0803 715.6935,167.8466 C715.7232,168.2298 715.7532,168.6166 715.7834,169.0069 C715.7986,169.202 715.8138,169.3981 715.829,169.595 " fill="none" id="Values-backto-Constraints" style="stroke:#181818;stroke-width:1.0;stroke-dasharray:7.0,7.0;"/><polygon fill="#181818" points="715.8975,105.075,711.1982,113.7305,715.502,110.0593,719.1732,114.3632,715.8975,105.075" style="stroke:#181818;stroke-width:1.0;"/><text fill="#000000" font-family="sans-serif" font-size="13" lengthAdjust="spacing" textLength="56" x="715" y="142.5684">&#171;import&#187;</text></g><!--SRC=[ZPCzRuCm48Pt_mgBCHLHfmvLn98sOrIfLQSi1byJ2pXRjgaKfVptcY_Z4BUA9xXxxhtNns5AWOffLjES5ULHomRvLbPIKwiP6fS2jCHugX88zgo0AbcTkvSWXvA30KMV7eEWKod7u4bme3NOa-I64ENwiIFGNTUIMI6HNWXrPyJg7BJf0omtpanXQL4nO-YUrS1ZYG_dYvDsblvaLGFcJjaUlYhVIkm8WNRIc3BlRYY0XTUEwaTwJ7NqqlP8UwNwYjz2IwnXRXZH2AWN-18eXj6rdey3QQFIdomONdVymo2zQx1OgldOA11L_vCUFibDTfMc6KqUSidF1pnWuWT35exUkXq22pgqD0UZbxf9_sz2JRWvw5KoLo-jzDl0q8PEVEokuIpfSUE6HMX9k6xhHgspuDTufibc8sebjSso988EgtwD_G80]--></g></svg>