<?xml version="1.0" encoding="us-ascii" standalone="no"?><svg xmlns="http://www.w3.org/2000/svg" xmlns:xlink="http://www.w3.org/1999/xlink" contentStyleType="text/css" height="608px" preserveAspectRatio="none" style="width:827px;height:608px;" version="1.1" viewBox="0 0 827 608" width="827px" zoomAndPan="magnify"><defs/><g><!--cluster Datatypes--><g id="cluster_Datatypes"><path d="M474.5,367 L547.5,367 A3.75,3.75 0 0 1 550,369.5 L557,389.4883 L625.5,389.4883 A2.5,2.5 0 0 1 628,391.9883 L628,463.5 A2.5,2.5 0 0 1 625.5,466 L474.5,466 A2.5,2.5 0 0 1 472,463.5 L472,369.5 A2.5,2.5 0 0 1 474.5,367 " fill="none" style="stroke:#000000;stroke-width:1.5;"/><line style="stroke:#000000;stroke-width:1.5;" x1="472" x2="557" y1="389.4883" y2="389.4883"/><text fill="#000000" font-family="sans-serif" font-size="14" font-weight="bold" lengthAdjust="spacing" textLength="72" x="476" y="382.5352">Datatypes</text></g><!--cluster Foundation--><g id="cluster_Foundation"><path d="M282.5,41 L364.5,41 A3.75,3.75 0 0 1 367,43.5 L374,63.4883 L439.5,63.4883 A2.5,2.5 0 0 1 442,65.9883 L442,137.5 A2.5,2.5 0 0 1 439.5,140 L282.5,140 A2.5,2.5 0 0 1 280,137.5 L280,43.5 A2.5,2.5 0 0 1 282.5,41 " fill="none" style="stroke:#000000;stroke-width:1.5;"/><line style="stroke:#000000;stroke-width:1.5;" x1="280" x2="374" y1="63.4883" y2="63.4883"/><text fill="#000000" font-family="sans-serif" font-size="14" font-weight="bold" lengthAdjust="spacing" textLength="81" x="284" y="56.5352">Foundation</text></g><!--cluster Values--><g id="cluster_Values"><path d="M670.5,367 L719.5,367 A3.75,3.75 0 0 1 722,369.5 L729,389.4883 L817.5,389.4883 A2.5,2.5 0 0 1 820,391.9883 L820,463.5 A2.5,2.5 0 0 1 817.5,466 L670.5,466 A2.5,2.5 0 0 1 668,463.5 L668,369.5 A2.5,2.5 0 0 1 670.5,367 " fill="none" style="stroke:#000000;stroke-width:1.5;"/><line style="stroke:#000000;stroke-width:1.5;" x1="668" x2="729" y1="389.4883" y2="389.4883"/><text fill="#000000" font-family="sans-serif" font-size="14" font-weight="bold" lengthAdjust="spacing" textLength="48" x="672" y="382.5352">Values</text></g><!--cluster Constraints--><g id="cluster_Constraints"><path d="M596.5,6 L681.5,6 A3.75,3.75 0 0 1 684,8.5 L691,28.4883 L765.5,28.4883 A2.5,2.5 0 0 1 768,30.9883 L768,153.5 A2.5,2.5 0 0 1 765.5,156 L596.5,156 A2.5,2.5 0 0 1 594,153.5 L594,8.5 A2.5,2.5 0 0 1 596.5,6 " fill="none" style="stroke:#000000;stroke-width:1.5;"/><line style="stroke:#000000;stroke-width:1.5;" x1="594" x2="691" y1="28.4883" y2="28.4883"/><text fill="#000000" font-family="sans-serif" font-size="14" font-weight="bold" lengthAdjust="spacing" textLength="84" x="598" y="21.5352">Constraints</text></g><!--cluster Values--><g id="cluster_Values"><path d="M620.5,49 L669.5,49 A3.75,3.75 0 0 1 672,51.5 L679,71.4883 L741.5,71.4883 A2.5,2.5 0 0 1 744,73.9883 L744,129.5 A2.5,2.5 0 0 1 741.5,132 L620.5,132 A2.5,2.5 0 0 1 618,129.5 L618,51.5 A2.5,2.5 0 0 1 620.5,49 " fill="none" style="stroke:#000000;stroke-width:1.5;"/><line style="stroke:#000000;stroke-width:1.5;" x1="618" x2="679" y1="71.4883" y2="71.4883"/><text fill="#000000" font-family="sans-serif" font-size="14" font-weight="bold" lengthAdjust="spacing" textLength="48" x="622" y="64.5352">Values</text></g><!--cluster Annotations--><g id="cluster_Annotations"><path d="M8.5,213 L97.5,213 A3.75,3.75 0 0 1 100,215.5 L107,235.4883 L429.5,235.4883 A2.5,2.5 0 0 1 432,237.9883 L432,598.99 A2.5,2.5 0 0 1 429.5,601.49 L8.5,601.49 A2.5,2.5 0 0 1 6,598.99 L6,215.5 A2.5,2.5 0 0 1 8.5,213 " fill="none" style="stroke:#000000;stroke-width:1.5;"/><line style="stroke:#000000;stroke-width:1.5;" x1="6" x2="107" y1="235.4883" y2="235.4883"/><text fill="#000000" font-family="sans-serif" font-size="14" font-weight="bold" lengthAdjust="spacing" textLength="88" x="10" y="228.5352">Annotations</text></g><!--class String--><g id="elem_String"><rect codeLine="8" fill="#F1F1F1" height="32" id="String" rx="2.5" ry="2.5" style="stroke:#181818;stroke-width:0.5;" width="73" x="530.5" y="410"/><ellipse cx="545.5" cy="426" fill="#ADD1B2" rx="11" ry="11" style="stroke:#181818;stroke-width:1.0;"/><path d="M547.9731,432.1431 Q547.3921,432.4419 546.7529,432.5913 Q546.1138,432.7407 545.4082,432.7407 Q542.9014,432.7407 541.5815,431.0889 Q540.2617,429.437 540.2617,426.3159 Q540.2617,423.1865 541.5815,421.5347 Q542.9014,419.8828 545.4082,419.8828 Q546.1138,419.8828 546.7612,420.0322 Q547.4087,420.1816 547.9731,420.4805 L547.9731,423.2031 Q547.3423,422.6221 546.7488,422.3523 Q546.1553,422.0825 545.5244,422.0825 Q544.1797,422.0825 543.4949,423.1492 Q542.8101,424.2158 542.8101,426.3159 Q542.8101,428.4077 543.4949,429.4744 Q544.1797,430.541 545.5244,430.541 Q546.1553,430.541 546.7488,430.2712 Q547.3423,430.0015 547.9731,429.4204 Z " fill="#000000"/><text fill="#000000" font-family="sans-serif" font-size="14" lengthAdjust="spacing" textLength="41" x="559.5" y="431.291">String</text></g><!--class Named--><g id="elem_Named"><rect codeLine="13" fill="#F1F1F1" height="32" id="Named" rx="2.5" ry="2.5" style="stroke:#181818;stroke-width:0.5;" width="80" x="338" y="84"/><ellipse cx="353" cy="100" fill="#ADD1B2" rx="11" ry="11" style="stroke:#181818;stroke-width:1.0;"/><path d="M355.4731,106.1431 Q354.8921,106.4419 354.2529,106.5913 Q353.6138,106.7407 352.9082,106.7407 Q350.4014,106.7407 349.0815,105.0889 Q347.7617,103.437 347.7617,100.3159 Q347.7617,97.1865 349.0815,95.5347 Q350.4014,93.8828 352.9082,93.8828 Q353.6138,93.8828 354.2612,94.0322 Q354.9087,94.1816 355.4731,94.4805 L355.4731,97.2031 Q354.8423,96.6221 354.2488,96.3523 Q353.6553,96.0825 353.0244,96.0825 Q351.6797,96.0825 350.9949,97.1492 Q350.3101,98.2158 350.3101,100.3159 Q350.3101,102.4077 350.9949,103.4744 Q351.6797,104.541 353.0244,104.541 Q353.6553,104.541 354.2488,104.2712 Q354.8423,104.0015 355.4731,103.4204 Z " fill="#000000"/><text fill="#000000" font-family="sans-serif" font-size="14" lengthAdjust="spacing" textLength="48" x="367" y="105.291">Named</text></g><!--class Value--><g id="elem_Value"><rect codeLine="18" fill="#F1F1F1" height="32" id="Value" rx="2.5" ry="2.5" style="stroke:#181818;stroke-width:0.5;" width="70" x="726" y="410"/><ellipse cx="741" cy="426" fill="#ADD1B2" rx="11" ry="11" style="stroke:#181818;stroke-width:1.0;"/><path d="M743.4731,432.1431 Q742.8921,432.4419 742.2529,432.5913 Q741.6138,432.7407 740.9082,432.7407 Q738.4014,432.7407 737.0815,431.0889 Q735.7617,429.437 735.7617,426.3159 Q735.7617,423.1865 737.0815,421.5347 Q738.4014,419.8828 740.9082,419.8828 Q741.6138,419.8828 742.2612,420.0322 Q742.9087,420.1816 743.4731,420.4805 L743.4731,423.2031 Q742.8423,422.6221 742.2488,422.3523 Q741.6553,422.0825 741.0244,422.0825 Q739.6797,422.0825 738.9949,423.1492 Q738.3101,424.2158 738.3101,426.3159 Q738.3101,428.4077 738.9949,429.4744 Q739.6797,430.541 741.0244,430.541 Q741.6553,430.541 742.2488,430.2712 Q742.8423,430.0015 743.4731,429.4204 Z " fill="#000000"/><text fill="#000000" font-family="sans-serif" font-size="14" lengthAdjust="spacing" textLength="38" x="755" y="431.291">Value</text></g><!--class Sentence--><g id="elem_Sentence"><rect codeLine="24" fill="#F1F1F1" height="32" id="Sentence" rx="2.5" ry="2.5" style="stroke:#181818;stroke-width:0.5;" width="94" x="634" y="84"/><ellipse cx="649" cy="100" fill="#A9DCDF" rx="11" ry="11" style="stroke:#181818;stroke-width:1.0;"/><path d="M648.8633,95.3481 L647.7095,100.4199 L650.0254,100.4199 Z M647.3691,93.1069 L650.3657,93.1069 L653.7109,105.5 L651.2622,105.5 L650.4985,102.437 L647.2197,102.437 L646.4727,105.5 L644.0239,105.5 Z " fill="#000000"/><text fill="#000000" font-family="sans-serif" font-size="14" font-style="italic" lengthAdjust="spacing" textLength="62" x="663" y="105.291">Sentence</text></g><!--class Annotated--><g id="elem_Annotated"><rect codeLine="29" fill="#F1F1F1" height="40" id="Annotated" rx="2.5" ry="2.5" style="stroke:#181818;stroke-width:0.5;" width="104" x="109" y="256"/><ellipse cx="124" cy="272" fill="#A9DCDF" rx="11" ry="11" style="stroke:#181818;stroke-width:1.0;"/><path d="M123.8633,267.3481 L122.7095,272.4199 L125.0254,272.4199 Z M122.3691,265.1069 L125.3657,265.1069 L128.7109,277.5 L126.2622,277.5 L125.4985,274.437 L122.2197,274.437 L121.4727,277.5 L119.0239,277.5 Z " fill="#000000"/><text fill="#000000" font-family="sans-serif" font-size="14" font-style="italic" lengthAdjust="spacing" textLength="72" x="138" y="277.291">Annotated</text><line style="stroke:#181818;stroke-width:0.5;" x1="110" x2="212" y1="288" y2="288"/></g><!--class Annotation--><g id="elem_Annotation"><rect codeLine="30" fill="#F1F1F1" height="40" id="Annotation" rx="2.5" ry="2.5" style="stroke:#181818;stroke-width:0.5;" width="109" x="262.5" y="256"/><ellipse cx="277.5" cy="272" fill="#A9DCDF" rx="11" ry="11" style="stroke:#181818;stroke-width:1.0;"/><path d="M277.3633,267.3481 L276.2095,272.4199 L278.5254,272.4199 Z M275.8691,265.1069 L278.8657,265.1069 L282.2109,277.5 L279.7622,277.5 L278.9985,274.437 L275.7197,274.437 L274.9727,277.5 L272.5239,277.5 Z " fill="#000000"/><text fill="#000000" font-family="sans-serif" font-size="14" font-style="italic" lengthAdjust="spacing" textLength="77" x="291.5" y="277.291">Annotation</text><line style="stroke:#181818;stroke-width:0.5;" x1="263.5" x2="370.5" y1="288" y2="288"/></g><!--class AnnotationProperty--><g id="elem_AnnotationProperty"><rect codeLine="31" fill="#F1F1F1" height="56.4883" id="AnnotationProperty" rx="2.5" ry="2.5" style="stroke:#181818;stroke-width:0.5;" width="167" x="233.5" y="397.76"/><ellipse cx="248.5" cy="413.76" fill="#ADD1B2" rx="11" ry="11" style="stroke:#181818;stroke-width:1.0;"/><path d="M250.9731,419.9031 Q250.3921,420.2019 249.7529,420.3513 Q249.1138,420.5007 248.4082,420.5007 Q245.9014,420.5007 244.5815,418.8489 Q243.2617,417.197 243.2617,414.0759 Q243.2617,410.9465 244.5815,409.2947 Q245.9014,407.6428 248.4082,407.6428 Q249.1138,407.6428 249.7612,407.7922 Q250.4087,407.9416 250.9731,408.2405 L250.9731,410.9631 Q250.3423,410.3821 249.7488,410.1123 Q249.1553,409.8425 248.5244,409.8425 Q247.1797,409.8425 246.4949,410.9092 Q245.8101,411.9758 245.8101,414.0759 Q245.8101,416.1677 246.4949,417.2344 Q247.1797,418.301 248.5244,418.301 Q249.1553,418.301 249.7488,418.0312 Q250.3423,417.7615 250.9731,417.1804 Z " fill="#000000"/><text fill="#000000" font-family="sans-serif" font-size="14" lengthAdjust="spacing" textLength="135" x="262.5" y="419.051">AnnotationProperty</text><line style="stroke:#181818;stroke-width:0.5;" x1="234.5" x2="399.5" y1="429.76" y2="429.76"/><ellipse cx="244.5" cy="443.5041" fill="none" rx="3" ry="3" style="stroke:#038048;stroke-width:1.0;"/><text fill="#000000" font-family="sans-serif" font-size="14" lengthAdjust="spacing" textLength="82" x="253.5" y="447.2952">value: Value</text></g><!--class Constraint--><g id="elem_Constraint"><rect codeLine="41" fill="#F1F1F1" height="40" id="Constraint" rx="2.5" ry="2.5" style="stroke:#181818;stroke-width:0.5;" width="104" x="80" y="406"/><ellipse cx="95" cy="422" fill="#A9DCDF" rx="11" ry="11" style="stroke:#181818;stroke-width:1.0;"/><path d="M94.8633,417.3481 L93.7095,422.4199 L96.0254,422.4199 Z M93.3691,415.1069 L96.3657,415.1069 L99.7109,427.5 L97.2622,427.5 L96.4985,424.437 L93.2197,424.437 L92.4727,427.5 L90.0239,427.5 Z " fill="#000000"/><text fill="#000000" font-family="sans-serif" font-size="14" font-style="italic" lengthAdjust="spacing" textLength="72" x="109" y="427.291">Constraint</text><line style="stroke:#181818;stroke-width:0.5;" x1="81" x2="183" y1="438" y2="438"/></g><!--class InformalConstraint--><g id="elem_InformalConstraint"><rect codeLine="42" fill="#F1F1F1" height="56.4883" id="InformalConstraint" rx="2.5" ry="2.5" style="stroke:#181818;stroke-width:0.5;" width="162" x="30" y="521"/><ellipse cx="45" cy="537" fill="#ADD1B2" rx="11" ry="11" style="stroke:#181818;stroke-width:1.0;"/><path d="M47.4731,543.1431 Q46.8921,543.4419 46.2529,543.5913 Q45.6138,543.7407 44.9082,543.7407 Q42.4014,543.7407 41.0815,542.0889 Q39.7617,540.437 39.7617,537.3159 Q39.7617,534.1865 41.0815,532.5347 Q42.4014,530.8828 44.9082,530.8828 Q45.6138,530.8828 46.2612,531.0322 Q46.9087,531.1816 47.4731,531.4805 L47.4731,534.2031 Q46.8423,533.6221 46.2488,533.3523 Q45.6553,533.0825 45.0244,533.0825 Q43.6797,533.0825 42.9949,534.1492 Q42.3101,535.2158 42.3101,537.3159 Q42.3101,539.4077 42.9949,540.4744 Q43.6797,541.541 45.0244,541.541 Q45.6553,541.541 46.2488,541.2712 Q46.8423,541.0015 47.4731,540.4204 Z " fill="#000000"/><text fill="#000000" font-family="sans-serif" font-size="14" lengthAdjust="spacing" textLength="130" x="59" y="542.291">InformalConstraint</text><line style="stroke:#181818;stroke-width:0.5;" x1="31" x2="191" y1="553" y2="553"/><ellipse cx="41" cy="566.7441" fill="none" rx="3" ry="3" style="stroke:#038048;stroke-width:1.0;"/><text fill="#000000" font-family="sans-serif" font-size="14" lengthAdjust="spacing" textLength="76" x="50" y="570.5352">text: String</text></g><!--class FormalConstraint--><g id="elem_FormalConstraint"><rect codeLine="45" fill="#F1F1F1" height="56.4883" id="FormalConstraint" rx="2.5" ry="2.5" style="stroke:#181818;stroke-width:0.5;" width="157" x="242.5" y="521"/><ellipse cx="259.75" cy="537" fill="#ADD1B2" rx="11" ry="11" style="stroke:#181818;stroke-width:1.0;"/><path d="M262.2231,543.1431 Q261.6421,543.4419 261.0029,543.5913 Q260.3638,543.7407 259.6582,543.7407 Q257.1514,543.7407 255.8315,542.0889 Q254.5117,540.437 254.5117,537.3159 Q254.5117,534.1865 255.8315,532.5347 Q257.1514,530.8828 259.6582,530.8828 Q260.3638,530.8828 261.0112,531.0322 Q261.6587,531.1816 262.2231,531.4805 L262.2231,534.2031 Q261.5923,533.6221 260.9988,533.3523 Q260.4053,533.0825 259.7744,533.0825 Q258.4297,533.0825 257.7449,534.1492 Q257.0601,535.2158 257.0601,537.3159 Q257.0601,539.4077 257.7449,540.4744 Q258.4297,541.541 259.7744,541.541 Q260.4053,541.541 260.9988,541.2712 Q261.5923,541.0015 262.2231,540.4204 Z " fill="#000000"/><text fill="#000000" font-family="sans-serif" font-size="14" lengthAdjust="spacing" textLength="120" x="274.25" y="542.291">FormalConstraint</text><line style="stroke:#181818;stroke-width:0.5;" x1="243.5" x2="398.5" y1="553" y2="553"/><ellipse cx="253.5" cy="566.7441" fill="none" rx="3" ry="3" style="stroke:#038048;stroke-width:1.0;"/><text fill="#000000" font-family="sans-serif" font-size="14" lengthAdjust="spacing" textLength="131" x="262.5" y="570.5352">sentence: Sentence</text></g><!--link Annotated to Annotation--><g id="link_Annotated_Annotation"><path codeLine="35" d="M225.15,276 C227.75,276 245.52,276 256.08,276 " fill="none" id="Annotated-Annotation" style="stroke:#181818;stroke-width:1.0;"/><polygon fill="#181818" points="213.15,276,219.15,280,225.15,276,219.15,272,213.15,276" style="stroke:#181818;stroke-width:1.0;"/><polygon fill="#181818" points="262.08,276,253.08,272,257.08,276,253.08,280,262.08,276" style="stroke:#181818;stroke-width:1.0;"/><text fill="#000000" font-family="sans-serif" font-size="13" lengthAdjust="spacing" textLength="46" x="208.3358" y="254.2684">subject</text><text fill="#000000" font-family="sans-serif" font-size="13" lengthAdjust="spacing" textLength="8" x="208.3358" y="269.5789">1</text><text fill="#000000" font-family="sans-serif" font-size="13" lengthAdjust="spacing" textLength="75" x="179.7542" y="313.57">annotations</text><text fill="#000000" font-family="sans-serif" font-size="13" lengthAdjust="spacing" textLength="22" x="232.7542" y="328.8806">0..*</text></g><!--reverse link Named to Annotation--><g id="link_Named_Annotation"><path codeLine="37" d="M366.6356,133.4266 C355.4956,165.2066 335.99,220.84 323.78,255.67 " fill="none" id="Named-backto-Annotation" style="stroke:#181818;stroke-width:1.0;"/><polygon fill="none" points="372.59,116.44,360.9734,131.4418,372.2978,135.4114,372.59,116.44" style="stroke:#181818;stroke-width:1.0;"/></g><!--reverse link Annotation to AnnotationProperty--><g id="link_Annotation_AnnotationProperty"><path codeLine="39" d="M317,314.35 C317,340.13 317,367.9 317,397.32 " fill="none" id="Annotation-backto-AnnotationProperty" style="stroke:#181818;stroke-width:1.0;"/><polygon fill="none" points="317,296.35,311,314.35,323,314.35,317,296.35" style="stroke:#181818;stroke-width:1.0;"/></g><!--reverse link Annotation to Constraint--><g id="link_Annotation_Constraint"><path codeLine="49" d="M273.7736,306.6176 C241.7836,328.5476 209,351 209,351 C209,351 175.04,383.63 152.23,405.56 " fill="none" id="Annotation-backto-Constraint" style="stroke:#181818;stroke-width:1.0;"/><polygon fill="none" points="288.62,296.44,270.381,301.6688,277.1661,311.5664,288.62,296.44" style="stroke:#181818;stroke-width:1.0;"/></g><!--reverse link Constraint to InformalConstraint--><g id="link_Constraint_InformalConstraint"><path codeLine="50" d="M125.5563,464.2156 C122.0763,484.2956 119.69,498.05 115.77,520.68 " fill="none" id="Constraint-backto-InformalConstraint" style="stroke:#181818;stroke-width:1.0;"/><polygon fill="none" points="128.63,446.48,119.6444,463.1911,131.4682,465.2402,128.63,446.48" style="stroke:#181818;stroke-width:1.0;"/></g><!--reverse link Constraint to FormalConstraint--><g id="link_Constraint_FormalConstraint"><path codeLine="51" d="M173.5785,456.7004 C195.7885,472.5604 209,482 209,482 C209,482 243.46,502.38 274.15,520.54 " fill="none" id="Constraint-backto-FormalConstraint" style="stroke:#181818;stroke-width:1.0;"/><polygon fill="none" points="158.93,446.24,170.0917,461.5833,177.0653,451.8176,158.93,446.24" style="stroke:#181818;stroke-width:1.0;"/></g><!--link Annotations to Datatypes--><g id="link_Annotations_Datatypes"><path codeLine="54" d="M432.0643,298.3138 C432.1414,298.5176 432.2189,298.7224 432.2968,298.9283 C432.6085,299.7521 432.9269,300.5933 433.2514,301.4509 C438.4441,315.1731 445.2281,333.1012 452.0113,351.0275 C458.7944,368.9538 465.5766,386.8781 470.7655,400.5928 C471.0898,401.45 471.4079,402.2907 471.7193,403.114 C471.7972,403.3198 469.7515,397.9127 469.8285,398.1163 " fill="none" id="Annotations-to-Datatypes" style="stroke:#181818;stroke-width:1.0;stroke-dasharray:7.0,7.0;"/><polygon fill="#181818" points="471.9517,403.7281,472.5081,393.895,470.1824,399.0516,465.0257,396.7259,471.9517,403.7281" style="stroke:#181818;stroke-width:1.0;"/><text fill="#000000" font-family="sans-serif" font-size="13" lengthAdjust="spacing" textLength="56" x="449" y="339.5684">&#171;import&#187;</text></g><!--reverse link Foundation to Annotations--><g id="link_Foundation_Annotations"><path codeLine="55" d="M309.1871,145.4952 C309.4112,145.9657 307.2226,141.3701 307.444,141.8351 C307.887,142.7652 308.3243,143.6833 308.7541,144.5858 C310.4734,148.196 312.0738,151.5565 313.4436,154.4327 C316.1831,160.185 318,164 318,164 C318,164 420,197 420,197 C420,197 420.2425,201.7238 420.6081,208.8464 C420.6538,209.7367 420.7015,210.6646 420.7508,211.6253 C420.7631,211.8655 420.7755,212.1077 420.7881,212.352 C420.7943,212.4741 420.8006,212.5967 420.807,212.7198 " fill="none" id="Foundation-backto-Annotations" style="stroke:#181818;stroke-width:1.0;stroke-dasharray:7.0,7.0;"/><polygon fill="#181818" points="306.6073,140.0781,306.8657,149.9236,308.7572,144.5923,314.0884,146.4838,306.6073,140.0781" style="stroke:#181818;stroke-width:1.0;"/><text fill="#000000" font-family="sans-serif" font-size="13" lengthAdjust="spacing" textLength="56" x="393" y="185.5684">&#171;import&#187;</text></g><!--link Annotations to Values--><g id="link_Annotations_Values"><path codeLine="56" d="M432.367,280.1031 C433.032,280.3492 433.7327,280.6084 434.4676,280.8802 C440.3468,283.0552 448.4142,286.0397 457.9247,289.5581 C476.9456,296.595 501.7388,305.7675 526.3425,314.87 C575.55,333.075 624,351 624,351 C624,351 636.5975,368.9275 649.3912,387.135 C655.7881,396.2388 662.2341,405.4125 667.1789,412.4503 C667.3334,412.6702 667.4865,412.8881 667.638,413.1038 C667.7138,413.2116 664.3399,408.4096 664.4149,408.5163 " fill="none" id="Annotations-to-Values" style="stroke:#181818;stroke-width:1.0;stroke-dasharray:7.0,7.0;"/><polygon fill="#181818" points="667.8642,413.4257,665.9631,403.7621,664.9898,409.3346,659.4173,408.3612,667.8642,413.4257" style="stroke:#181818;stroke-width:1.0;"/><text fill="#000000" font-family="sans-serif" font-size="13" lengthAdjust="spacing" textLength="56" x="600" y="339.5684">&#171;import&#187;</text></g><!--SRC=[XLEnQiCm4Dtz5S9ZYaqwT371K582NKgXq2cBRAkE6laaf7FRaERVQzbAfBXEua5WtNllxjsTp9Q3efesfA3bjjQoXMefXTG4DGNJXHXWP4uemO7XJZ6YfDZPdo06icA6AV8mZpQyOgHXk96LYIBLITEQaIUAr98DsKUa-nogAPWs_KKfg37a3JM7ckmFqS5pLxOoYbp2TV8BRLWruhvJqTvAscD6lAK4qxM10nx9augJglQZXQMNUFJLjP91sMUnuRDSZm0IUtz7sH7R0GPpb-DzWmw1CN__ggLY6dT1sNTVraWs-755sRC_VCROjCKdAt4jxcCoIv94ytg3IPAJcFgwrtgUfhCuo1Y5EhQof5N9RpuCwL-Yi4G73AHEw95lFwHpty_m8NL3HHZtlf7zOEOsBV0zK5TNYCODCJkDSzosW3VjOg8o1_GtFN1r6zPjKBWvQIM_8StzIyl8Oi4R9JNc-JcoLHtElwhBG2Svh7m8-mC0]--></g></svg>