<?xml version="1.0" encoding="us-ascii" standalone="no"?><svg xmlns="http://www.w3.org/2000/svg" xmlns:xlink="http://www.w3.org/1999/xlink" contentStyleType="text/css" height="418px" preserveAspectRatio="none" style="width:1173px;height:418px;" version="1.1" viewBox="0 0 1173 418" width="1173px" zoomAndPan="magnify"><defs/><g><!--cluster Foundation--><g id="cluster_Foundation"><path d="M8.5,6 L90.5,6 A3.75,3.75 0 0 1 93,8.5 L100,28.4883 L673.5,28.4883 A2.5,2.5 0 0 1 676,30.9883 L676,102.5 A2.5,2.5 0 0 1 673.5,105 L8.5,105 A2.5,2.5 0 0 1 6,102.5 L6,8.5 A2.5,2.5 0 0 1 8.5,6 " fill="none" style="stroke:#000000;stroke-width:1.5;"/><line style="stroke:#000000;stroke-width:1.5;" x1="6" x2="100" y1="28.4883" y2="28.4883"/><text fill="#000000" font-family="sans-serif" font-size="14" font-weight="bold" lengthAdjust="spacing" textLength="81" x="10" y="21.5352">Foundation</text></g><!--cluster Modules--><g id="cluster_Modules"><path d="M718.5,6 L780.5,6 A3.75,3.75 0 0 1 783,8.5 L790,28.4883 L945.5,28.4883 A2.5,2.5 0 0 1 948,30.9883 L948,102.5 A2.5,2.5 0 0 1 945.5,105 L718.5,105 A2.5,2.5 0 0 1 716,102.5 L716,8.5 A2.5,2.5 0 0 1 718.5,6 " fill="none" style="stroke:#000000;stroke-width:1.5;"/><line style="stroke:#000000;stroke-width:1.5;" x1="716" x2="790" y1="28.4883" y2="28.4883"/><text fill="#000000" font-family="sans-serif" font-size="14" font-weight="bold" lengthAdjust="spacing" textLength="61" x="720" y="21.5352">Modules</text></g><!--cluster Values--><g id="cluster_Values"><path d="M1007.5,6 L1056.5,6 A3.75,3.75 0 0 1 1059,8.5 L1066,28.4883 L1163.5,28.4883 A2.5,2.5 0 0 1 1166,30.9883 L1166,102.5 A2.5,2.5 0 0 1 1163.5,105 L1007.5,105 A2.5,2.5 0 0 1 1005,102.5 L1005,8.5 A2.5,2.5 0 0 1 1007.5,6 " fill="none" style="stroke:#000000;stroke-width:1.5;"/><line style="stroke:#000000;stroke-width:1.5;" x1="1005" x2="1066" y1="28.4883" y2="28.4883"/><text fill="#000000" font-family="sans-serif" font-size="14" font-weight="bold" lengthAdjust="spacing" textLength="48" x="1009" y="21.5352">Values</text></g><!--cluster SumTypes--><g id="cluster_SumTypes"><path d="M86.5,170 L161.5,170 A3.75,3.75 0 0 1 164,172.5 L171,192.4883 L950.5,192.4883 A2.5,2.5 0 0 1 953,194.9883 L953,408.74 A2.5,2.5 0 0 1 950.5,411.24 L86.5,411.24 A2.5,2.5 0 0 1 84,408.74 L84,172.5 A2.5,2.5 0 0 1 86.5,170 " fill="none" style="stroke:#000000;stroke-width:1.5;"/><line style="stroke:#000000;stroke-width:1.5;" x1="84" x2="171" y1="192.4883" y2="192.4883"/><text fill="#000000" font-family="sans-serif" font-size="14" font-weight="bold" lengthAdjust="spacing" textLength="74" x="88" y="185.5352">SumTypes</text></g><!--class Named--><g id="elem_Named"><rect codeLine="8" fill="#F1F1F1" height="32" id="Named" rx="2.5" ry="2.5" style="stroke:#181818;stroke-width:0.5;" width="80" x="188" y="49"/><ellipse cx="203" cy="65" fill="#A9DCDF" rx="11" ry="11" style="stroke:#181818;stroke-width:1.0;"/><path d="M202.8633,60.3481 L201.7095,65.4199 L204.0254,65.4199 Z M201.3691,58.1069 L204.3657,58.1069 L207.7109,70.5 L205.2622,70.5 L204.4985,67.437 L201.2197,67.437 L200.4727,70.5 L198.0239,70.5 Z " fill="#000000"/><text fill="#000000" font-family="sans-serif" font-size="14" font-style="italic" lengthAdjust="spacing" textLength="48" x="217" y="70.291">Named</text></g><!--class g_Namespace--><g id="elem_g_Namespace"><rect codeLine="9" fill="#F1F1F1" height="32" id="g_Namespace" rx="2.5" ry="2.5" style="stroke:#181818;stroke-width:0.5;" width="218" x="434" y="49"/><ellipse cx="449" cy="65" fill="#A9DCDF" rx="11" ry="11" style="stroke:#181818;stroke-width:1.0;"/><path d="M448.8633,60.3481 L447.7095,65.4199 L450.0254,65.4199 Z M447.3691,58.1069 L450.3657,58.1069 L453.7109,70.5 L451.2622,70.5 L450.4985,67.437 L447.2197,67.437 L446.4727,70.5 L444.0239,70.5 Z " fill="#000000"/><text fill="#000000" font-family="sans-serif" font-size="14" font-style="italic" lengthAdjust="spacing" textLength="78" x="463" y="70.291">Namespace</text><rect fill="none" height="16.1328" style="stroke:#181818;stroke-width:1.0;stroke-dasharray:2.0,2.0;" width="106" x="549" y="46"/><text fill="#000000" font-family="sans-serif" font-size="12" font-style="italic" lengthAdjust="spacing" textLength="104" x="550" y="58.6016">T extends Named</text></g><!--class Type--><g id="elem_Type"><rect codeLine="10" fill="#F1F1F1" height="32" id="Type" rx="2.5" ry="2.5" style="stroke:#181818;stroke-width:0.5;" width="65" x="318.5" y="49"/><ellipse cx="333.5" cy="65" fill="#A9DCDF" rx="11" ry="11" style="stroke:#181818;stroke-width:1.0;"/><path d="M333.3633,60.3481 L332.2095,65.4199 L334.5254,65.4199 Z M331.8691,58.1069 L334.8657,58.1069 L338.2109,70.5 L335.7622,70.5 L334.9985,67.437 L331.7197,67.437 L330.9727,70.5 L328.5239,70.5 Z " fill="#000000"/><text fill="#000000" font-family="sans-serif" font-size="14" font-style="italic" lengthAdjust="spacing" textLength="33" x="347.5" y="70.291">Type</text></g><!--class Typed--><g id="elem_Typed"><rect codeLine="11" fill="#F1F1F1" height="32" id="Typed" rx="2.5" ry="2.5" style="stroke:#181818;stroke-width:0.5;" width="74" x="64" y="49"/><ellipse cx="79" cy="65" fill="#A9DCDF" rx="11" ry="11" style="stroke:#181818;stroke-width:1.0;"/><path d="M78.8633,60.3481 L77.7095,65.4199 L80.0254,65.4199 Z M77.3691,58.1069 L80.3657,58.1069 L83.7109,70.5 L81.2622,70.5 L80.4985,67.437 L77.2197,67.437 L76.4727,70.5 L74.0239,70.5 Z " fill="#000000"/><text fill="#000000" font-family="sans-serif" font-size="14" font-style="italic" lengthAdjust="spacing" textLength="42" x="93" y="70.291">Typed</text></g><!--class ModuleDefinition--><g id="elem_ModuleDefinition"><rect codeLine="16" fill="#F1F1F1" height="32" id="ModuleDefinition" rx="2.5" ry="2.5" style="stroke:#181818;stroke-width:0.5;" width="150" x="774" y="49"/><ellipse cx="789" cy="65" fill="#A9DCDF" rx="11" ry="11" style="stroke:#181818;stroke-width:1.0;"/><path d="M788.8633,60.3481 L787.7095,65.4199 L790.0254,65.4199 Z M787.3691,58.1069 L790.3657,58.1069 L793.7109,70.5 L791.2622,70.5 L790.4985,67.437 L787.2197,67.437 L786.4727,70.5 L784.0239,70.5 Z " fill="#000000"/><text fill="#000000" font-family="sans-serif" font-size="14" font-style="italic" lengthAdjust="spacing" textLength="118" x="803" y="70.291">ModuleDefinition</text></g><!--class Valued--><g id="elem_Valued"><rect codeLine="21" fill="#F1F1F1" height="32" id="Valued" rx="2.5" ry="2.5" style="stroke:#181818;stroke-width:0.5;" width="79" x="1063.5" y="49"/><ellipse cx="1078.5" cy="65" fill="#A9DCDF" rx="11" ry="11" style="stroke:#181818;stroke-width:1.0;"/><path d="M1078.3633,60.3481 L1077.2095,65.4199 L1079.5254,65.4199 Z M1076.8691,58.1069 L1079.8657,58.1069 L1083.2109,70.5 L1080.7622,70.5 L1079.9985,67.437 L1076.7197,67.437 L1075.9727,70.5 L1073.5239,70.5 Z " fill="#000000"/><text fill="#000000" font-family="sans-serif" font-size="14" font-style="italic" lengthAdjust="spacing" textLength="47" x="1092.5" y="70.291">Valued</text></g><!--class g_Enum--><g id="elem_g_Enum"><rect codeLine="25" fill="#F1F1F1" height="40" id="g_Enum" rx="2.5" ry="2.5" style="stroke:#181818;stroke-width:0.5;" width="166" x="729" y="229.62"/><ellipse cx="744" cy="245.62" fill="#ADD1B2" rx="11" ry="11" style="stroke:#181818;stroke-width:1.0;"/><path d="M746.4731,251.7631 Q745.8921,252.0619 745.2529,252.2113 Q744.6138,252.3607 743.9082,252.3607 Q741.4014,252.3607 740.0815,250.7089 Q738.7617,249.057 738.7617,245.9359 Q738.7617,242.8065 740.0815,241.1547 Q741.4014,239.5028 743.9082,239.5028 Q744.6138,239.5028 745.2612,239.6522 Q745.9087,239.8016 746.4731,240.1005 L746.4731,242.8231 Q745.8423,242.2421 745.2488,241.9723 Q744.6553,241.7025 744.0244,241.7025 Q742.6797,241.7025 741.9949,242.7692 Q741.3101,243.8358 741.3101,245.9359 Q741.3101,248.0277 741.9949,249.0944 Q742.6797,250.161 744.0244,250.161 Q744.6553,250.161 745.2488,249.8912 Q745.8423,249.6215 746.4731,249.0404 Z " fill="#000000"/><text fill="#000000" font-family="sans-serif" font-size="14" lengthAdjust="spacing" textLength="39" x="758" y="250.911">Enum</text><rect fill="none" height="16.1328" style="stroke:#181818;stroke-width:1.0;stroke-dasharray:2.0,2.0;" width="93" x="805" y="226.62"/><text fill="#000000" font-family="sans-serif" font-size="12" font-style="italic" lengthAdjust="spacing" textLength="91" x="806" y="239.2216">T=ValueVariant</text><line style="stroke:#181818;stroke-width:0.5;" x1="730" x2="894" y1="261.62" y2="261.62"/></g><!--class g_Union--><g id="elem_g_Union"><rect codeLine="26" fill="#F1F1F1" height="40" id="g_Union" rx="2.5" ry="2.5" style="stroke:#181818;stroke-width:0.5;" width="165" x="513.5" y="229.62"/><ellipse cx="528.5" cy="245.62" fill="#ADD1B2" rx="11" ry="11" style="stroke:#181818;stroke-width:1.0;"/><path d="M530.9731,251.7631 Q530.3921,252.0619 529.7529,252.2113 Q529.1138,252.3607 528.4082,252.3607 Q525.9014,252.3607 524.5815,250.7089 Q523.2617,249.057 523.2617,245.9359 Q523.2617,242.8065 524.5815,241.1547 Q525.9014,239.5028 528.4082,239.5028 Q529.1138,239.5028 529.7612,239.6522 Q530.4087,239.8016 530.9731,240.1005 L530.9731,242.8231 Q530.3423,242.2421 529.7488,241.9723 Q529.1553,241.7025 528.5244,241.7025 Q527.1797,241.7025 526.4949,242.7692 Q525.8101,243.8358 525.8101,245.9359 Q525.8101,248.0277 526.4949,249.0944 Q527.1797,250.161 528.5244,250.161 Q529.1553,250.161 529.7488,249.8912 Q530.3423,249.6215 530.9731,249.0404 Z " fill="#000000"/><text fill="#000000" font-family="sans-serif" font-size="14" lengthAdjust="spacing" textLength="41" x="542.5" y="250.911">Union</text><rect fill="none" height="16.1328" style="stroke:#181818;stroke-width:1.0;stroke-dasharray:2.0,2.0;" width="90" x="591.5" y="226.62"/><text fill="#000000" font-family="sans-serif" font-size="12" font-style="italic" lengthAdjust="spacing" textLength="88" x="592.5" y="239.2216">T=TypeVariant</text><line style="stroke:#181818;stroke-width:0.5;" x1="514.5" x2="677.5" y1="261.62" y2="261.62"/></g><!--class Variant--><g id="elem_Variant"><rect codeLine="27" fill="#F1F1F1" height="40" id="Variant" rx="2.5" ry="2.5" style="stroke:#181818;stroke-width:0.5;" width="81" x="108.5" y="229.62"/><ellipse cx="123.5" cy="245.62" fill="#A9DCDF" rx="11" ry="11" style="stroke:#181818;stroke-width:1.0;"/><path d="M123.3633,240.9681 L122.2095,246.0399 L124.5254,246.0399 Z M121.8691,238.7269 L124.8657,238.7269 L128.2109,251.12 L125.7622,251.12 L124.9985,248.057 L121.7197,248.057 L120.9727,251.12 L118.5239,251.12 Z " fill="#000000"/><text fill="#000000" font-family="sans-serif" font-size="14" font-style="italic" lengthAdjust="spacing" textLength="49" x="137.5" y="250.911">Variant</text><line style="stroke:#181818;stroke-width:0.5;" x1="109.5" x2="188.5" y1="261.62" y2="261.62"/></g><!--class TypeVariant--><g id="elem_TypeVariant"><rect codeLine="28" fill="#F1F1F1" height="40" id="TypeVariant" rx="2.5" ry="2.5" style="stroke:#181818;stroke-width:0.5;" width="114" x="108" y="347.24"/><ellipse cx="123" cy="363.24" fill="#ADD1B2" rx="11" ry="11" style="stroke:#181818;stroke-width:1.0;"/><path d="M125.4731,369.3831 Q124.8921,369.6819 124.2529,369.8313 Q123.6138,369.9807 122.9082,369.9807 Q120.4014,369.9807 119.0815,368.3289 Q117.7617,366.677 117.7617,363.5559 Q117.7617,360.4265 119.0815,358.7747 Q120.4014,357.1228 122.9082,357.1228 Q123.6138,357.1228 124.2612,357.2722 Q124.9087,357.4216 125.4731,357.7205 L125.4731,360.4431 Q124.8423,359.8621 124.2488,359.5923 Q123.6553,359.3225 123.0244,359.3225 Q121.6797,359.3225 120.9949,360.3892 Q120.3101,361.4558 120.3101,363.5559 Q120.3101,365.6477 120.9949,366.7144 Q121.6797,367.781 123.0244,367.781 Q123.6553,367.781 124.2488,367.5112 Q124.8423,367.2415 125.4731,366.6604 Z " fill="#000000"/><text fill="#000000" font-family="sans-serif" font-size="14" lengthAdjust="spacing" textLength="82" x="137" y="368.531">TypeVariant</text><line style="stroke:#181818;stroke-width:0.5;" x1="109" x2="221" y1="379.24" y2="379.24"/></g><!--class ValueVariant--><g id="elem_ValueVariant"><rect codeLine="29" fill="#F1F1F1" height="40" id="ValueVariant" rx="2.5" ry="2.5" style="stroke:#181818;stroke-width:0.5;" width="119" x="523.5" y="347.24"/><ellipse cx="538.5" cy="363.24" fill="#ADD1B2" rx="11" ry="11" style="stroke:#181818;stroke-width:1.0;"/><path d="M540.9731,369.3831 Q540.3921,369.6819 539.7529,369.8313 Q539.1138,369.9807 538.4082,369.9807 Q535.9014,369.9807 534.5815,368.3289 Q533.2617,366.677 533.2617,363.5559 Q533.2617,360.4265 534.5815,358.7747 Q535.9014,357.1228 538.4082,357.1228 Q539.1138,357.1228 539.7612,357.2722 Q540.4087,357.4216 540.9731,357.7205 L540.9731,360.4431 Q540.3423,359.8621 539.7488,359.5923 Q539.1553,359.3225 538.5244,359.3225 Q537.1797,359.3225 536.4949,360.3892 Q535.8101,361.4558 535.8101,363.5559 Q535.8101,365.6477 536.4949,366.7144 Q537.1797,367.781 538.5244,367.781 Q539.1553,367.781 539.7488,367.5112 Q540.3423,367.2415 540.9731,366.6604 Z " fill="#000000"/><text fill="#000000" font-family="sans-serif" font-size="14" lengthAdjust="spacing" textLength="87" x="552.5" y="368.531">ValueVariant</text><line style="stroke:#181818;stroke-width:0.5;" x1="524.5" x2="641.5" y1="379.24" y2="379.24"/></g><!--class g_MappingType--><g id="elem_g_MappingType"><rect codeLine="45" fill="#F1F1F1" height="73.2422" id="g_MappingType" rx="2.5" ry="2.5" style="stroke:#181818;stroke-width:0.5;" width="224" x="239" y="213"/><ellipse cx="254" cy="229.1328" fill="#ADD1B2" rx="11" ry="11" style="stroke:#181818;stroke-width:1.0;"/><path d="M256.4731,235.2759 Q255.8921,235.5747 255.2529,235.7241 Q254.6138,235.8735 253.9082,235.8735 Q251.4014,235.8735 250.0815,234.2217 Q248.7617,232.5698 248.7617,229.4487 Q248.7617,226.3193 250.0815,224.6675 Q251.4014,223.0156 253.9082,223.0156 Q254.6138,223.0156 255.2612,223.165 Q255.9087,223.3145 256.4731,223.6133 L256.4731,226.3359 Q255.8423,225.7549 255.2488,225.4851 Q254.6553,225.2153 254.0244,225.2153 Q252.6797,225.2153 251.9949,226.282 Q251.3101,227.3486 251.3101,229.4487 Q251.3101,231.5405 251.9949,232.6072 Q252.6797,233.6738 254.0244,233.6738 Q254.6553,233.6738 255.2488,233.4041 Q255.8423,233.1343 256.4731,232.5532 Z " fill="#000000"/><text fill="#000000" font-family="sans-serif" font-size="14" lengthAdjust="spacing" textLength="93" x="268" y="234.4238">MappingType</text><rect fill="none" height="30.2656" style="stroke:#181818;stroke-width:1.0;stroke-dasharray:2.0,2.0;" width="97" x="369" y="210"/><text fill="#000000" font-family="sans-serif" font-size="12" font-style="italic" lengthAdjust="spacing" textLength="95" x="370" y="222.6016">K extends Type,</text><text fill="#000000" font-family="sans-serif" font-size="12" font-style="italic" lengthAdjust="spacing" textLength="91" x="372" y="236.7344">V extends Type</text><line style="stroke:#181818;stroke-width:0.5;" x1="240" x2="462" y1="245.2656" y2="245.2656"/><text fill="#000000" font-family="sans-serif" font-size="14" lengthAdjust="spacing" textLength="40" x="245" y="262.8008">key: K</text><text fill="#000000" font-family="sans-serif" font-size="14" lengthAdjust="spacing" textLength="53" x="245" y="279.2891">value: V</text></g><!--reverse link Type to g_Enum--><g id="link_Type_g_Enum"><path codeLine="31" d="M380.2221,93.7047 C397.3821,109.9747 409,121 409,121 C409,121 594,146 594,146 C594,146 704,154 704,154 C704,154 758.29,201.56 789.88,229.24 " fill="none" id="Type-backto-g_Enum" style="stroke:#181818;stroke-width:1.0;"/><polygon fill="none" points="367.16,81.32,376.0939,98.0587,384.3504,89.3506,367.16,81.32" style="stroke:#181818;stroke-width:1.0;"/></g><!--reverse link ModuleDefinition to g_Enum--><g id="link_ModuleDefinition_g_Enum"><path codeLine="32" d="M842.3328,98.891 C835.6228,131.981 823.34,192.67 815.93,229.21 " fill="none" id="ModuleDefinition-backto-g_Enum" style="stroke:#181818;stroke-width:1.0;"/><polygon fill="none" points="845.91,81.25,836.4524,97.6985,848.2131,100.0834,845.91,81.25" style="stroke:#181818;stroke-width:1.0;"/></g><!--reverse link g_Namespace to g_Enum--><g id="link_g_Namespace_g_Enum"><path codeLine="33" d="M570.8778,94.2275 C593.8378,117.4775 622,146 622,146 C622,146 704,154 704,154 C704,154 758.29,201.56 789.88,229.24 " fill="none" id="g_Namespace-backto-g_Enum" style="stroke:#181818;stroke-width:1.0;"/><polygon fill="none" points="558.23,81.42,566.6086,98.4435,575.147,90.0116,558.23,81.42" style="stroke:#181818;stroke-width:1.0;"/></g><!--reverse link Type to g_Union--><g id="link_Type_g_Union"><path codeLine="35" d="M380.2221,93.7047 C397.3821,109.9747 409,121 409,121 C409,121 447,146 447,146 C447,146 488,154 488,154 C488,154 542.29,201.56 573.88,229.24 " fill="none" id="Type-backto-g_Union" style="stroke:#181818;stroke-width:1.0;"/><polygon fill="none" points="367.16,81.32,376.0939,98.0587,384.3504,89.3506,367.16,81.32" style="stroke:#181818;stroke-width:1.0;"/></g><!--reverse link ModuleDefinition to g_Union--><g id="link_ModuleDefinition_g_Union"><path codeLine="36" d="M812.2174,91.6045 C788.8474,107.8745 770,121 770,121 C770,121 732,146 732,146 C732,146 704,154 704,154 C704,154 649.71,201.56 618.12,229.24 " fill="none" id="ModuleDefinition-backto-g_Union" style="stroke:#181818;stroke-width:1.0;"/><polygon fill="none" points="826.99,81.32,808.7893,86.6803,815.6456,96.5287,826.99,81.32" style="stroke:#181818;stroke-width:1.0;"/></g><!--reverse link g_Namespace to g_Union--><g id="link_g_Namespace_g_Union"><path codeLine="37" d="M552.0102,98.7764 C558.4002,122.0264 565,146 565,146 C565,146 581.19,199.59 590.17,229.32 " fill="none" id="g_Namespace-backto-g_Union" style="stroke:#181818;stroke-width:1.0;"/><polygon fill="none" points="547.24,81.42,546.2247,100.3665,557.7957,97.1863,547.24,81.42" style="stroke:#181818;stroke-width:1.0;"/></g><!--reverse link Named to Variant--><g id="link_Named_Variant"><path codeLine="39" d="M214.2553,97.7713 C199.9453,130.8613 173.2,192.67 157.4,229.21 " fill="none" id="Named-backto-Variant" style="stroke:#181818;stroke-width:1.0;"/><polygon fill="none" points="221.4,81.25,208.7482,95.3897,219.7624,100.1529,221.4,81.25" style="stroke:#181818;stroke-width:1.0;"/></g><!--reverse link Variant to TypeVariant--><g id="link_Variant_TypeVariant"><path codeLine="40" d="M154.1448,287.8004 C157.0948,309.1404 159.36,325.46 162.31,346.82 " fill="none" id="Variant-backto-TypeVariant" style="stroke:#181818;stroke-width:1.0;"/><polygon fill="none" points="151.68,269.97,148.2014,288.6221,160.0883,286.9788,151.68,269.97" style="stroke:#181818;stroke-width:1.0;"/></g><!--reverse link Typed to TypeVariant--><g id="link_Typed_TypeVariant"><path codeLine="41" d="M94.6259,99.0033 C89.7559,124.2133 84,154 84,154 C84,154 84,286.24 84,286.24 C84,286.24 121.42,323.2 145.39,346.87 " fill="none" id="Typed-backto-TypeVariant" style="stroke:#181818;stroke-width:1.0;"/><polygon fill="none" points="98.04,81.33,88.7348,97.8652,100.517,100.1413,98.04,81.33" style="stroke:#181818;stroke-width:1.0;"/></g><!--reverse link Variant to ValueVariant--><g id="link_Variant_ValueVariant"><path codeLine="42" d="M200.329,278.7434 C215.509,287.0534 214,286.24 214,286.24 C214,286.24 418.87,330.66 523.3,353.3 " fill="none" id="Variant-backto-ValueVariant" style="stroke:#181818;stroke-width:1.0;"/><polygon fill="none" points="184.54,270.1,197.4479,284.0064,203.2101,273.4804,184.54,270.1" style="stroke:#181818;stroke-width:1.0;"/></g><!--reverse link Valued to ValueVariant--><g id="link_Valued_ValueVariant"><path codeLine="43" d="M1085.8442,97.1912 C1073.0542,120.4412 1059,146 1059,146 C1059,146 965,286.24 965,286.24 C965,286.24 750.12,331.24 642.69,353.74 " fill="none" id="Valued-backto-ValueVariant" style="stroke:#181818;stroke-width:1.0;"/><polygon fill="none" points="1094.52,81.42,1080.5871,94.2992,1091.1012,100.0831,1094.52,81.42" style="stroke:#181818;stroke-width:1.0;"/></g><!--reverse link Type to g_MappingType--><g id="link_Type_g_MappingType"><path codeLine="49" d="M351,99.25 C351,127.97 351,172.76 351,212.74 " fill="none" id="Type-backto-g_MappingType" style="stroke:#181818;stroke-width:1.0;"/><polygon fill="none" points="351,81.25,345,99.25,357,99.25,351,81.25" style="stroke:#181818;stroke-width:1.0;"/></g><!--reverse link Foundation to SumTypes--><g id="link_Foundation_SumTypes"><path codeLine="52" d="M38.1867,110.34 C38.3928,110.7179 36.0347,106.394 36.2364,106.7638 C36.6398,107.5035 37.034,108.2264 37.4174,108.9293 C38.1841,110.3353 38.9074,111.6616 39.5741,112.8841 C42.2406,117.7738 44,121 44,121 C44,121 915,154 915,154 C915,154 916.8169,159.7306 919.5564,168.3713 C919.642,168.6413 919.7285,168.9141 919.8159,169.1897 C919.8596,169.3276 919.9035,169.4661 919.9476,169.6052 " fill="none" id="Foundation-backto-SumTypes" style="stroke:#181818;stroke-width:1.0;stroke-dasharray:7.0,7.0;"/><polygon fill="#181818" points="35.314,105.0724,36.1113,114.8889,37.7079,109.4621,43.1348,111.0587,35.314,105.0724" style="stroke:#181818;stroke-width:1.0;"/><text fill="#000000" font-family="sans-serif" font-size="13" lengthAdjust="spacing" textLength="56" x="682" y="142.5684">&#171;import&#187;</text></g><!--reverse link Values to SumTypes--><g id="link_Values_SumTypes"><path codeLine="53" d="M1002.7403,93.5433 C1002.5636,94.0178 1004.2152,89.5827 1004.0342,90.0687 C1003.3102,92.013 1002.5522,94.0484 1001.7641,96.165 C995.4588,113.0975 987.2213,135.22 978.985,157.34 C970.7488,179.46 962.5138,201.5775 956.2134,218.5 C955.4259,220.6153 954.6686,222.6495 953.9453,224.5923 C953.7645,225.078 953.5858,225.558 953.4092,226.0321 C953.321,226.2692 953.2333,226.5048 953.1461,226.7389 C953.1025,226.856 953.0591,226.9726 953.0158,227.089 " fill="none" id="Values-backto-SumTypes" style="stroke:#181818;stroke-width:1.0;stroke-dasharray:7.0,7.0;"/><polygon fill="#181818" points="1004.8342,87.9205,997.9449,94.9588,1003.0893,92.6062,1005.4419,97.7506,1004.8342,87.9205" style="stroke:#181818;stroke-width:1.0;"/><text fill="#000000" font-family="sans-serif" font-size="13" lengthAdjust="spacing" textLength="56" x="990" y="142.5684">&#171;import&#187;</text></g><!--link SumTypes to Modules--><g id="link_SumTypes_Modules"><path codeLine="54" d="M919.9476,169.6052 C919.9035,169.4661 919.8596,169.3276 919.8159,169.1897 C919.7285,168.9141 919.642,168.6413 919.5564,168.3713 C916.8169,159.7306 915,154 915,154 C915,154 754,121 754,121 C754,121 752.2406,117.7738 749.5741,112.8841 C748.9074,111.6616 748.1841,110.3353 747.4174,108.9293 C747.034,108.2264 746.6398,107.5035 746.2364,106.7638 C746.0347,106.394 745.8307,106.0199 745.6246,105.642 C745.5216,105.4531 748.2907,110.5308 748.1867,110.34 " fill="none" id="SumTypes-to-Modules" style="stroke:#181818;stroke-width:1.0;stroke-dasharray:7.0,7.0;"/><polygon fill="#181818" points="745.314,105.0724,746.1113,114.8889,747.7079,109.4621,753.1348,111.0587,745.314,105.0724" style="stroke:#181818;stroke-width:1.0;"/><text fill="#000000" font-family="sans-serif" font-size="13" lengthAdjust="spacing" textLength="56" x="872" y="142.5684">&#171;import&#187;</text></g><!--SRC=[ZLCzRuCm4Dtv5QVCJTIbIqHP-h54wTAKgLBbu2kn0Dl2fcsKvh_NDeOQ0bAy-TwxvtSVLWNZajIaWZt9YhmM3QSFeXGrw9fmPI3aEb8zgsGSzL4YI54UxIN0kA2eKCBTRNHW5A52VH1KHP4qqYH7UBRgH3F1uHI1EPvMxR5MBa3sohoRQSXAeXIya0efdCvJsCA2nc26yGxmHoEdFY5P056GV_I46OMThMCUSW-V_zrl1MrAL5TQRzcF-CauQoiUYAMaRAxMSkIndTUciYux3T-K9zvKyUxUPQIaPeJhhXqMwihrx3Tkd1cw5Hgn7JJJ7KyTYWKQGo3qOX47UJlBHYv_4vSx4HxtS88IJBaJRfrVAW_YCz83peLsLuJ7tR8v8ApTW_uw1xi5yw91UoQIft6x454uoYsHal7SwiQR_Z_OwyqxJmU1RiH1YbyYUmeyhc7JNx_iKsj8NU3isnHcXeqsm-tNSjN8LH9y-JN4CQkag7MIZ5djRvXXKF7DLzt41gG_]--></g></svg>