<?xml version="1.0" encoding="us-ascii" standalone="no"?><svg xmlns="http://www.w3.org/2000/svg" xmlns:xlink="http://www.w3.org/1999/xlink" contentStyleType="text/css" height="420px" preserveAspectRatio="none" style="width:293px;height:420px;" version="1.1" viewBox="0 0 293 420" width="293px" zoomAndPan="magnify"><defs/><g><!--cluster Foundation--><g id="cluster_Foundation"><path d="M8.5,6 L90.5,6 A3.75,3.75 0 0 1 93,8.5 L100,28.4883 L268.5,28.4883 A2.5,2.5 0 0 1 271,30.9883 L271,410.99 A2.5,2.5 0 0 1 268.5,413.49 L8.5,413.49 A2.5,2.5 0 0 1 6,410.99 L6,8.5 A2.5,2.5 0 0 1 8.5,6 " fill="none" style="stroke:#000000;stroke-width:1.5;"/><line style="stroke:#000000;stroke-width:1.5;" x1="6" x2="100" y1="28.4883" y2="28.4883"/><text fill="#000000" font-family="sans-serif" font-size="14" font-weight="bold" lengthAdjust="spacing" textLength="81" x="10" y="21.5352">Foundation</text></g><!--class g_Namespace--><g id="elem_g_Namespace"><rect codeLine="7" fill="#F1F1F1" height="56.4883" id="g_Namespace" rx="2.5" ry="2.5" style="stroke:#181818;stroke-width:0.5;" width="218" x="22" y="41"/><ellipse cx="37" cy="57" fill="#A9DCDF" rx="11" ry="11" style="stroke:#181818;stroke-width:1.0;"/><path d="M36.8633,52.3481 L35.7095,57.4199 L38.0254,57.4199 Z M35.3691,50.1069 L38.3657,50.1069 L41.7109,62.5 L39.2622,62.5 L38.4985,59.437 L35.2197,59.437 L34.4727,62.5 L32.0239,62.5 Z " fill="#000000"/><text fill="#000000" font-family="sans-serif" font-size="14" font-style="italic" lengthAdjust="spacing" textLength="78" x="51" y="62.291">Namespace</text><rect fill="none" height="16.1328" style="stroke:#181818;stroke-width:1.0;stroke-dasharray:2.0,2.0;" width="106" x="137" y="38"/><text fill="#000000" font-family="sans-serif" font-size="12" font-style="italic" lengthAdjust="spacing" textLength="104" x="138" y="50.6016">T extends Named</text><line style="stroke:#181818;stroke-width:0.5;" x1="23" x2="239" y1="73" y2="73"/><ellipse cx="33" cy="86.7441" fill="none" rx="3" ry="3" style="stroke:#038048;stroke-width:1.0;"/><text fill="#000000" font-family="sans-serif" font-size="14" lengthAdjust="spacing" textLength="171" x="42" y="90.5352">members: {unique} 0..* T</text></g><!--class Named--><g id="elem_Named"><rect codeLine="10" fill="#F1F1F1" height="40" id="Named" rx="2.5" ry="2.5" style="stroke:#181818;stroke-width:0.5;" width="80" x="55" y="157.49"/><ellipse cx="70" cy="173.49" fill="#A9DCDF" rx="11" ry="11" style="stroke:#181818;stroke-width:1.0;"/><path d="M69.8633,168.8381 L68.7095,173.9099 L71.0254,173.9099 Z M68.3691,166.5969 L71.3657,166.5969 L74.7109,178.99 L72.2622,178.99 L71.4985,175.927 L68.2197,175.927 L67.4727,178.99 L65.0239,178.99 Z " fill="#000000"/><text fill="#000000" font-family="sans-serif" font-size="14" font-style="italic" lengthAdjust="spacing" textLength="48" x="84" y="178.781">Named</text><line style="stroke:#181818;stroke-width:0.5;" x1="56" x2="134" y1="189.49" y2="189.49"/></g><!--class Name--><g id="elem_Name"><rect codeLine="11" fill="#F1F1F1" height="40" id="Name" rx="2.5" ry="2.5" style="stroke:#181818;stroke-width:0.5;" width="71" x="184.5" y="157.49"/><ellipse cx="199.5" cy="173.49" fill="#ADD1B2" rx="11" ry="11" style="stroke:#181818;stroke-width:1.0;"/><path d="M201.9731,179.6331 Q201.3921,179.9319 200.7529,180.0813 Q200.1138,180.2307 199.4082,180.2307 Q196.9014,180.2307 195.5815,178.5789 Q194.2617,176.927 194.2617,173.8059 Q194.2617,170.6765 195.5815,169.0247 Q196.9014,167.3728 199.4082,167.3728 Q200.1138,167.3728 200.7612,167.5222 Q201.4087,167.6716 201.9731,167.9705 L201.9731,170.6931 Q201.3423,170.1121 200.7488,169.8423 Q200.1553,169.5725 199.5244,169.5725 Q198.1797,169.5725 197.4949,170.6392 Q196.8101,171.7058 196.8101,173.8059 Q196.8101,175.8977 197.4949,176.9644 Q198.1797,178.031 199.5244,178.031 Q200.1553,178.031 200.7488,177.7612 Q201.3423,177.4915 201.9731,176.9104 Z " fill="#000000"/><text fill="#000000" font-family="sans-serif" font-size="14" lengthAdjust="spacing" textLength="39" x="213.5" y="178.781">Name</text><line style="stroke:#181818;stroke-width:0.5;" x1="185.5" x2="254.5" y1="189.49" y2="189.49"/></g><!--class Definition--><g id="elem_Definition"><rect codeLine="16" fill="#F1F1F1" height="40" id="Definition" rx="2.5" ry="2.5" style="stroke:#181818;stroke-width:0.5;" width="99" x="137.5" y="257.49"/><ellipse cx="152.5" cy="273.49" fill="#A9DCDF" rx="11" ry="11" style="stroke:#181818;stroke-width:1.0;"/><path d="M152.3633,268.8381 L151.2095,273.9099 L153.5254,273.9099 Z M150.8691,266.5969 L153.8657,266.5969 L157.2109,278.99 L154.7622,278.99 L153.9985,275.927 L150.7197,275.927 L149.9727,278.99 L147.5239,278.99 Z " fill="#000000"/><text fill="#000000" font-family="sans-serif" font-size="14" font-style="italic" lengthAdjust="spacing" textLength="67" x="166.5" y="278.781">Definition</text><line style="stroke:#181818;stroke-width:0.5;" x1="138.5" x2="235.5" y1="289.49" y2="289.49"/></g><!--class Type--><g id="elem_Type"><rect codeLine="20" fill="#F1F1F1" height="40" id="Type" rx="2.5" ry="2.5" style="stroke:#181818;stroke-width:0.5;" width="65" x="22.5" y="257.49"/><ellipse cx="37.5" cy="273.49" fill="#A9DCDF" rx="11" ry="11" style="stroke:#181818;stroke-width:1.0;"/><path d="M37.3633,268.8381 L36.2095,273.9099 L38.5254,273.9099 Z M35.8691,266.5969 L38.8657,266.5969 L42.2109,278.99 L39.7622,278.99 L38.9985,275.927 L35.7197,275.927 L34.9727,278.99 L32.5239,278.99 Z " fill="#000000"/><text fill="#000000" font-family="sans-serif" font-size="14" font-style="italic" lengthAdjust="spacing" textLength="33" x="51.5" y="278.781">Type</text><line style="stroke:#181818;stroke-width:0.5;" x1="23.5" x2="86.5" y1="289.49" y2="289.49"/></g><!--class Typed--><g id="elem_Typed"><rect codeLine="21" fill="#F1F1F1" height="40" id="Typed" rx="2.5" ry="2.5" style="stroke:#181818;stroke-width:0.5;" width="74" x="22" y="357.49"/><ellipse cx="37" cy="373.49" fill="#A9DCDF" rx="11" ry="11" style="stroke:#181818;stroke-width:1.0;"/><path d="M36.8633,368.8381 L35.7095,373.9099 L38.0254,373.9099 Z M35.3691,366.5969 L38.3657,366.5969 L41.7109,378.99 L39.2622,378.99 L38.4985,375.927 L35.2197,375.927 L34.4727,378.99 L32.0239,378.99 Z " fill="#000000"/><text fill="#000000" font-family="sans-serif" font-size="14" font-style="italic" lengthAdjust="spacing" textLength="42" x="51" y="378.781">Typed</text><line style="stroke:#181818;stroke-width:0.5;" x1="23" x2="95" y1="389.49" y2="389.49"/></g><!--link g_Namespace to Named--><g id="link_g_Namespace_Named"><path codeLine="13" d="M121.64,97.88 C115.34,116.45 109.1361,134.7776 103.5161,151.3576 " fill="none" id="g_Namespace-to-Named" style="stroke:#181818;stroke-width:1.0;stroke-dasharray:7.0,7.0;"/><polygon fill="#181818" points="101.59,157.04,108.2675,149.8004,103.1951,152.3046,100.6909,147.2323,101.59,157.04" style="stroke:#181818;stroke-width:1.0;"/></g><!--link Named to Name--><g id="link_Named_Name"><path codeLine="14" d="M147.28,177.49 C147.28,177.49 178.33,177.49 178.33,177.49 C178.33,177.49 174.62,177.49 178.13,177.49 " fill="none" id="Named-Name" style="stroke:#181818;stroke-width:1.0;"/><polygon fill="#181818" points="135.28,177.49,141.28,181.49,147.28,177.49,141.28,173.49,135.28,177.49" style="stroke:#181818;stroke-width:1.0;"/><polygon fill="#181818" points="184.13,177.49,175.13,173.49,179.13,177.49,175.13,181.49,184.13,177.49" style="stroke:#181818;stroke-width:1.0;"/><text fill="#000000" font-family="sans-serif" font-size="13" lengthAdjust="spacing" textLength="48" x="128.5615" y="154.1886">identity</text><text fill="#000000" font-family="sans-serif" font-size="13" lengthAdjust="spacing" textLength="8" x="168.5615" y="169.4991">1</text></g><!--reverse link Named to Definition--><g id="link_Named_Definition"><path codeLine="17" d="M125.5006,210.9726 C141.6306,228.1526 152.74,240 168.86,257.17 " fill="none" id="Named-backto-Definition" style="stroke:#181818;stroke-width:1.0;"/><polygon fill="none" points="113.18,197.85,121.1264,215.0795,129.8748,206.8658,113.18,197.85" style="stroke:#181818;stroke-width:1.0;"/></g><!--link Definition to Definition--><g id="link_Definition_Definition"><path codeLine="18" d="M236.92,259.43 C262.96,256.58 286.5,262.6 286.5,277.49 C286.5,292.38 268.9244,299.0528 242.8844,296.2028 " fill="none" id="Definition-to-Definition" style="stroke:#181818;stroke-width:1.0;"/><polygon fill="#181818" points="236.92,295.55,245.4314,300.5054,241.8903,296.094,246.3018,292.5529,236.92,295.55" style="stroke:#181818;stroke-width:1.0;"/><text fill="#000000" font-family="sans-serif" font-size="13" lengthAdjust="spacing" textLength="40" x="244.5675" y="278.487">parent</text><text fill="#000000" font-family="sans-serif" font-size="13" lengthAdjust="spacing" textLength="24" x="260.5675" y="293.7976">0..1</text></g><!--reverse link Named to Type--><g id="link_Named_Type"><path codeLine="23" d="M80.2914,214.5126 C73.2714,231.6926 69.89,240 62.89,257.17 " fill="none" id="Named-backto-Type" style="stroke:#181818;stroke-width:1.0;"/><polygon fill="none" points="87.1,197.85,74.7372,212.2431,85.8456,216.7822,87.1,197.85" style="stroke:#181818;stroke-width:1.0;"/></g><!--reverse link Type to Typed--><g id="link_Type_Typed"><path codeLine="24" d="M56.0343,303.845 C56.7343,321.025 57.51,340 58.21,357.17 " fill="none" id="Type-backto-Typed" style="stroke:#181818;stroke-width:1.0;"/><polygon fill="#181818" points="55.79,297.85,52.1597,307.0054,55.9936,302.8459,60.1531,306.6797,55.79,297.85" style="stroke:#181818;stroke-width:1.0;"/><text fill="#000000" font-family="sans-serif" font-size="13" lengthAdjust="spacing" textLength="27" x="26.0097" y="318.2213">type</text><text fill="#000000" font-family="sans-serif" font-size="13" lengthAdjust="spacing" textLength="22" x="26.0097" y="333.5318">1..*</text><text fill="#000000" font-family="sans-serif" font-size="13" lengthAdjust="spacing" textLength="58" x="64.7336" y="331.6424">members</text><text fill="#000000" font-family="sans-serif" font-size="13" lengthAdjust="spacing" textLength="22" x="100.7336" y="346.953">0..*</text></g><!--SRC=[TP91RuGW48Nl_8g9HnlDxg6Nfl7IPeyzUJHfKAPALe429ZNM_ruOjhictNB0yDvZFWPqPwaCjto2bdVdtkfPYHSzQWlUSkM2XSepTqsDKg5V38BHun8NEqzfWGuDF1xO80N2X7xGmZ5cGcdU8vnYTUwbLh0o28EtBc0w3zt8dOFiZKyOc1q-ru1V7fLm43LHPS0TzE_NmAL070yJJYrQzmJhhEJdZ1iSoZA7cXBRFH3LX3LvD-bNeMaFAyigxI4dxSwBeh2o7tpuLf25XfMNVcdiCQC4kmT-nG-fPBg1nDefnMoAxprexn4aFKTZGt-1ShFlikhuJElsdqNzaqd1F_2KoIwNIymyerWuIFm5cl58KWooxGS0]--></g></svg>