<?xml version="1.0" encoding="us-ascii" standalone="no"?><svg xmlns="http://www.w3.org/2000/svg" xmlns:xlink="http://www.w3.org/1999/xlink" contentStyleType="text/css" height="434px" preserveAspectRatio="none" style="width:941px;height:434px;" version="1.1" viewBox="0 0 941 434" width="941px" zoomAndPan="magnify"><defs/><g><!--cluster Foundation--><g id="cluster_Foundation"><path d="M506.5,324 L588.5,324 A3.75,3.75 0 0 1 591,326.5 L598,346.4883 L931.5,346.4883 A2.5,2.5 0 0 1 934,348.9883 L934,420.5 A2.5,2.5 0 0 1 931.5,423 L506.5,423 A2.5,2.5 0 0 1 504,420.5 L504,326.5 A2.5,2.5 0 0 1 506.5,324 " fill="none" style="stroke:#000000;stroke-width:1.5;"/><line style="stroke:#000000;stroke-width:1.5;" x1="504" x2="598" y1="346.4883" y2="346.4883"/><text fill="#000000" font-family="sans-serif" font-size="14" font-weight="bold" lengthAdjust="spacing" textLength="81" x="508" y="339.5352">Foundation</text></g><!--cluster Annotations--><g id="cluster_Annotations"><path d="M281.5,6 L370.5,6 A3.75,3.75 0 0 1 373,8.5 L380,28.4883 L462.5,28.4883 A2.5,2.5 0 0 1 465,30.9883 L465,102.5 A2.5,2.5 0 0 1 462.5,105 L281.5,105 A2.5,2.5 0 0 1 279,102.5 L279,8.5 A2.5,2.5 0 0 1 281.5,6 " fill="none" style="stroke:#000000;stroke-width:1.5;"/><line style="stroke:#000000;stroke-width:1.5;" x1="279" x2="380" y1="28.4883" y2="28.4883"/><text fill="#000000" font-family="sans-serif" font-size="14" font-weight="bold" lengthAdjust="spacing" textLength="88" x="283" y="21.5352">Annotations</text></g><!--cluster Modules--><g id="cluster_Modules"><path d="M8.5,170 L70.5,170 A3.75,3.75 0 0 1 73,172.5 L80,192.4883 L461.5,192.4883 A2.5,2.5 0 0 1 464,194.9883 L464,424.5 A2.5,2.5 0 0 1 461.5,427 L8.5,427 A2.5,2.5 0 0 1 6,424.5 L6,172.5 A2.5,2.5 0 0 1 8.5,170 " fill="none" style="stroke:#000000;stroke-width:1.5;"/><line style="stroke:#000000;stroke-width:1.5;" x1="6" x2="80" y1="192.4883" y2="192.4883"/><text fill="#000000" font-family="sans-serif" font-size="14" font-weight="bold" lengthAdjust="spacing" textLength="61" x="10" y="185.5352">Modules</text></g><!--class Named--><g id="elem_Named"><rect codeLine="8" fill="#F1F1F1" height="32" id="Named" rx="2.5" ry="2.5" style="stroke:#181818;stroke-width:0.5;" width="80" x="830" y="367"/><ellipse cx="845" cy="383" fill="#A9DCDF" rx="11" ry="11" style="stroke:#181818;stroke-width:1.0;"/><path d="M844.8633,378.3481 L843.7095,383.4199 L846.0254,383.4199 Z M843.3691,376.1069 L846.3657,376.1069 L849.7109,388.5 L847.2622,388.5 L846.4985,385.437 L843.2197,385.437 L842.4727,388.5 L840.0239,388.5 Z " fill="#000000"/><text fill="#000000" font-family="sans-serif" font-size="14" font-style="italic" lengthAdjust="spacing" textLength="48" x="859" y="388.291">Named</text></g><!--class g_Namespace--><g id="elem_g_Namespace"><rect codeLine="9" fill="#F1F1F1" height="32" id="g_Namespace" rx="2.5" ry="2.5" style="stroke:#181818;stroke-width:0.5;" width="218" x="562" y="367"/><ellipse cx="577" cy="383" fill="#A9DCDF" rx="11" ry="11" style="stroke:#181818;stroke-width:1.0;"/><path d="M576.8633,378.3481 L575.7095,383.4199 L578.0254,383.4199 Z M575.3691,376.1069 L578.3657,376.1069 L581.7109,388.5 L579.2622,388.5 L578.4985,385.437 L575.2197,385.437 L574.4727,388.5 L572.0239,388.5 Z " fill="#000000"/><text fill="#000000" font-family="sans-serif" font-size="14" font-style="italic" lengthAdjust="spacing" textLength="78" x="591" y="388.291">Namespace</text><rect fill="none" height="16.1328" style="stroke:#181818;stroke-width:1.0;stroke-dasharray:2.0,2.0;" width="106" x="677" y="364"/><text fill="#000000" font-family="sans-serif" font-size="12" font-style="italic" lengthAdjust="spacing" textLength="104" x="678" y="376.6016">T extends Named</text></g><!--class Annotated--><g id="elem_Annotated"><rect codeLine="13" fill="#F1F1F1" height="32" id="Annotated" rx="2.5" ry="2.5" style="stroke:#181818;stroke-width:0.5;" width="104" x="303" y="49"/><ellipse cx="318" cy="65" fill="#ADD1B2" rx="11" ry="11" style="stroke:#181818;stroke-width:1.0;"/><path d="M320.4731,71.1431 Q319.8921,71.4419 319.2529,71.5913 Q318.6138,71.7407 317.9082,71.7407 Q315.4014,71.7407 314.0815,70.0889 Q312.7617,68.437 312.7617,65.3159 Q312.7617,62.1865 314.0815,60.5347 Q315.4014,58.8828 317.9082,58.8828 Q318.6138,58.8828 319.2612,59.0322 Q319.9087,59.1816 320.4731,59.4805 L320.4731,62.2031 Q319.8423,61.6221 319.2488,61.3523 Q318.6553,61.0825 318.0244,61.0825 Q316.6797,61.0825 315.9949,62.1492 Q315.3101,63.2158 315.3101,65.3159 Q315.3101,67.4077 315.9949,68.4744 Q316.6797,69.541 318.0244,69.541 Q318.6553,69.541 319.2488,69.2712 Q319.8423,69.0015 320.4731,68.4204 Z " fill="#000000"/><text fill="#000000" font-family="sans-serif" font-size="14" lengthAdjust="spacing" textLength="72" x="332" y="70.291">Annotated</text></g><!--class Definition--><g id="elem_Definition"><rect codeLine="17" fill="#F1F1F1" height="40" id="Definition" rx="2.5" ry="2.5" style="stroke:#181818;stroke-width:0.5;" width="99" x="305.5" y="213"/><ellipse cx="320.5" cy="229" fill="#A9DCDF" rx="11" ry="11" style="stroke:#181818;stroke-width:1.0;"/><path d="M320.3633,224.3481 L319.2095,229.4199 L321.5254,229.4199 Z M318.8691,222.1069 L321.8657,222.1069 L325.2109,234.5 L322.7622,234.5 L321.9985,231.437 L318.7197,231.437 L317.9727,234.5 L315.5239,234.5 Z " fill="#000000"/><text fill="#000000" font-family="sans-serif" font-size="14" font-style="italic" lengthAdjust="spacing" textLength="67" x="334.5" y="234.291">Definition</text><line style="stroke:#181818;stroke-width:0.5;" x1="306.5" x2="403.5" y1="245" y2="245"/></g><!--class g_Module--><g id="elem_g_Module"><rect codeLine="18" fill="#F1F1F1" height="40" id="g_Module" rx="2.5" ry="2.5" style="stroke:#181818;stroke-width:0.5;" width="201" x="30.5" y="363"/><ellipse cx="45.5" cy="379" fill="#ADD1B2" rx="11" ry="11" style="stroke:#181818;stroke-width:1.0;"/><path d="M47.9731,385.1431 Q47.3921,385.4419 46.7529,385.5913 Q46.1138,385.7407 45.4082,385.7407 Q42.9014,385.7407 41.5815,384.0889 Q40.2617,382.437 40.2617,379.3159 Q40.2617,376.1865 41.5815,374.5347 Q42.9014,372.8828 45.4082,372.8828 Q46.1138,372.8828 46.7612,373.0322 Q47.4087,373.1816 47.9731,373.4805 L47.9731,376.2031 Q47.3423,375.6221 46.7488,375.3523 Q46.1553,375.0825 45.5244,375.0825 Q44.1797,375.0825 43.4949,376.1492 Q42.8101,377.2158 42.8101,379.3159 Q42.8101,381.4077 43.4949,382.4744 Q44.1797,383.541 45.5244,383.541 Q46.1553,383.541 46.7488,383.2712 Q47.3423,383.0015 47.9731,382.4204 Z " fill="#000000"/><text fill="#000000" font-family="sans-serif" font-size="14" lengthAdjust="spacing" textLength="51" x="59.5" y="384.291">Module</text><rect fill="none" height="16.1328" style="stroke:#181818;stroke-width:1.0;stroke-dasharray:2.0,2.0;" width="116" x="118.5" y="360"/><text fill="#000000" font-family="sans-serif" font-size="12" font-style="italic" lengthAdjust="spacing" textLength="114" x="119.5" y="372.6016">T=ModuleDefinition</text><line style="stroke:#181818;stroke-width:0.5;" x1="31.5" x2="230.5" y1="395" y2="395"/></g><!--class ModuleDefinition--><g id="elem_ModuleDefinition"><rect codeLine="19" fill="#F1F1F1" height="40" id="ModuleDefinition" rx="2.5" ry="2.5" style="stroke:#181818;stroke-width:0.5;" width="150" x="282" y="363"/><ellipse cx="297" cy="379" fill="#A9DCDF" rx="11" ry="11" style="stroke:#181818;stroke-width:1.0;"/><path d="M296.8633,374.3481 L295.7095,379.4199 L298.0254,379.4199 Z M295.3691,372.1069 L298.3657,372.1069 L301.7109,384.5 L299.2622,384.5 L298.4985,381.437 L295.2197,381.437 L294.4727,384.5 L292.0239,384.5 Z " fill="#000000"/><text fill="#000000" font-family="sans-serif" font-size="14" font-style="italic" lengthAdjust="spacing" textLength="118" x="311" y="384.291">ModuleDefinition</text><line style="stroke:#181818;stroke-width:0.5;" x1="283" x2="431" y1="395" y2="395"/></g><!--reverse link Annotated to Definition--><g id="link_Annotated_Definition"><path codeLine="21" d="M355,99.32 C355,129.66 355,179.33 355,212.67 " fill="none" id="Annotated-backto-Definition" style="stroke:#181818;stroke-width:1.0;"/><polygon fill="none" points="355,81.32,349,99.32,361,99.32,355,81.32" style="stroke:#181818;stroke-width:1.0;"/></g><!--link Definition to Named--><g id="link_Definition_Named"><path codeLine="22" d="M386.82,253.45 C418.68,272.91 463,300 463,300 C463,300 805,308 805,308 C805,308 825.6122,331.4653 844.6522,353.1453 " fill="none" id="Definition-to-Named" style="stroke:#181818;stroke-width:1.0;"/><polygon fill="none" points="856.53,366.67,849.1604,349.186,840.144,357.1045,856.53,366.67" style="stroke:#181818;stroke-width:1.0;"/></g><!--reverse link Definition to g_Module--><g id="link_Definition_g_Module"><path codeLine="24" d="M310.7012,263.2715 C267.7712,291.6315 203.22,334.28 160.29,362.65 " fill="none" id="Definition-backto-g_Module" style="stroke:#181818;stroke-width:1.0;"/><polygon fill="none" points="325.72,253.35,307.3941,258.2653,314.0084,268.2778,325.72,253.35" style="stroke:#181818;stroke-width:1.0;"/></g><!--link g_Module to g_Namespace--><g id="link_g_Module_g_Namespace"><path codeLine="25" d="M161.19,362.5 C205.26,332.59 282,280.5 282,280.5 C282,280.5 533,280.5 533,280.5 C533,280.5 595.369,326.8283 634.379,355.7983 " fill="none" id="g_Module-to-g_Namespace" style="stroke:#181818;stroke-width:1.0;"/><polygon fill="none" points="648.83,366.53,637.9563,350.9813,630.8018,360.6153,648.83,366.53" style="stroke:#181818;stroke-width:1.0;"/></g><!--reverse link Definition to ModuleDefinition--><g id="link_Definition_ModuleDefinition"><path codeLine="27" d="M355.5012,271.3484 C355.8812,299.7084 356.36,334.28 356.74,362.65 " fill="none" id="Definition-backto-ModuleDefinition" style="stroke:#181818;stroke-width:1.0;"/><polygon fill="none" points="355.26,253.35,349.5017,271.4288,361.5006,271.268,355.26,253.35" style="stroke:#181818;stroke-width:1.0;"/></g><!--reverse link Foundation to Modules--><g id="link_Foundation_Modules"><path codeLine="30" d="M501.8285,355.1163 C501.5171,354.2931 503.0898,358.45 502.7655,357.5928 C497.5766,343.8781 490.7944,325.9538 484.0113,308.0275 C477.2281,290.1012 470.4441,272.1731 465.2514,258.4509 C464.9269,257.5933 464.6085,256.7521 464.2968,255.9283 C464.2189,255.7224 464.1414,255.5176 464.0643,255.3138 " fill="none" id="Foundation-backto-Modules" style="stroke:#181818;stroke-width:1.0;stroke-dasharray:7.0,7.0;"/><polygon fill="#181818" points="503.9517,360.7281,504.5081,350.895,502.1824,356.0516,497.0257,353.7259,503.9517,360.7281" style="stroke:#181818;stroke-width:1.0;"/><text fill="#000000" font-family="sans-serif" font-size="13" lengthAdjust="spacing" textLength="56" x="481" y="296.5684">&#171;import&#187;</text></g><!--link Modules to Annotations--><g id="link_Modules_Annotations"><path codeLine="31" d="M456.3761,169.572 C456.3798,168.9611 456.3835,168.3487 456.3872,167.7348 C456.3946,166.5071 456.402,165.2736 456.4095,164.0355 C456.4394,159.083 456.4697,154.0566 456.5,149.03 C456.5606,138.9769 456.6213,128.9231 456.6783,119.4587 C456.7069,114.7265 456.7345,110.1416 456.7608,105.7778 C456.7616,105.6415 456.7263,111.5052 456.7271,111.3693 " fill="none" id="Modules-to-Annotations" style="stroke:#181818;stroke-width:1.0;stroke-dasharray:7.0,7.0;"/><polygon fill="#181818" points="456.7633,105.3694,452.7091,114.3451,456.7331,110.3693,460.7089,114.3933,456.7633,105.3694" style="stroke:#181818;stroke-width:1.0;"/><text fill="#000000" font-family="sans-serif" font-size="13" lengthAdjust="spacing" textLength="56" x="457" y="142.5684">&#171;import&#187;</text></g><!--SRC=[TP91JuGm48Nl_HMJlI_nuiLW4wFnfgUzcq97jbcODcs9RbR-kuLIQ40vD33plJUF0NTHP8GL7LIYlZHMzoIVTQijU2l8XHQIPswXMaNehmR1wFOwFcGzqX8T6hY_OsSb4JhqPoqTOoPOYmRXTNGNNcc26uDmpLXNeNLJGLGkpAqzrArm3jv5X_Alnc7iX7GrbYV0RuyaPveVG3XeFXO0RWCRbWXFHDfF4Tn_6UA46KGPzOl1cvPzYqcyYVM2dufKVC4XCpj4LNbwZ3Shb-B6Ub9jRBUYX4r7LZxsvlZ3r-YxljHVD1BhNgTZ6JyRh99DE-cpzR89sINSEuKTfjqLlIbuzZSyG5cgpcZhEL-XSLZ1yo-MSxy0]--></g></svg>