<?xml version="1.0" encoding="UTF-8" standalone="no"?>
<!DOCTYPE svg PUBLIC "-//W3C//DTD SVG 1.1//EN"
 "http://www.w3.org/Graphics/SVG/1.1/DTD/svg11.dtd">
<!-- Generated by graphviz version 9.0.0 (20230911.1827)
 -->
<!-- Title: G Pages: 1 -->
<svg width="396pt" height="126pt"
 viewBox="0.00 0.00 395.98 125.75" xmlns="http://www.w3.org/2000/svg" xmlns:xlink="http://www.w3.org/1999/xlink">
<g id="graph0" class="graph" transform="scale(1 1) rotate(0) translate(4 121.75)">
<title>G</title>
<!-- Vehicle -->
<g id="node1" class="node">
<title>Vehicle</title>
<ellipse fill="none" stroke="black" cx="28.55" cy="-99.75" rx="28.55" ry="18"/>
<text text-anchor="middle" x="28.55" y="-95.88" font-family="Helvetica,Arial,sans-serif" font-size="10.00">Vehicle</text>
</g>
<!-- Customer -->
<g id="node2" class="node">
<title>Customer</title>
<ellipse fill="none" stroke="black" cx="109.55" cy="-99.75" rx="34.76" ry="18"/>
<text text-anchor="middle" x="109.55" y="-95.88" font-family="Helvetica,Arial,sans-serif" font-size="10.00">Customer</text>
</g>
<!-- Location -->
<g id="node3" class="node">
<title>Location</title>
<ellipse fill="none" stroke="black" cx="193.55" cy="-99.75" rx="31.21" ry="18"/>
<text text-anchor="middle" x="193.55" y="-95.88" font-family="Helvetica,Arial,sans-serif" font-size="10.00">Location</text>
</g>
<!-- Booking -->
<g id="node4" class="node">
<title>Booking</title>
<ellipse fill="none" stroke="black" cx="273.55" cy="-99.75" rx="30.32" ry="18"/>
<text text-anchor="middle" x="273.55" y="-95.88" font-family="Helvetica,Arial,sans-serif" font-size="10.00">Booking</text>
</g>
<!-- vehicle -->
<g id="node5" class="node">
<title>vehicle</title>
<ellipse fill="none" stroke="black" cx="198.55" cy="-18" rx="27.66" ry="18"/>
<text text-anchor="middle" x="198.55" y="-14.12" font-family="Helvetica,Arial,sans-serif" font-size="10.00">vehicle</text>
</g>
<!-- Booking&#45;&gt;vehicle -->
<g id="edge1" class="edge">
<title>Booking&#45;&gt;vehicle</title>
<path fill="none" stroke="black" d="M259.28,-83.79C253.39,-77.6 246.5,-70.34 240.3,-63.75 233.74,-56.79 226.64,-49.19 220.18,-42.26"/>
<polygon fill="black" stroke="black" points="222.84,-39.99 213.46,-35.06 217.72,-44.76 222.84,-39.99"/>
<text text-anchor="middle" x="255.17" y="-55.2" font-family="Helvetica,Arial,sans-serif" font-size="9.00" fill="dimgrey">vehicle</text>
<text text-anchor="middle" x="230.97" y="-37.77" font-family="Helvetica,Arial,sans-serif" font-size="9.00" fill="blue">0..1</text>
</g>
<!-- location -->
<g id="node6" class="node">
<title>location</title>
<ellipse fill="none" stroke="black" cx="273.55" cy="-18" rx="29.44" ry="18"/>
<text text-anchor="middle" x="273.55" y="-14.12" font-family="Helvetica,Arial,sans-serif" font-size="10.00">location</text>
</g>
<!-- Booking&#45;&gt;location -->
<g id="edge2" class="edge">
<title>Booking&#45;&gt;location</title>
<path fill="none" stroke="black" d="M273.55,-81.45C273.55,-71.52 273.55,-58.81 273.55,-47.45"/>
<polygon fill="black" stroke="black" points="277.05,-47.78 273.55,-37.78 270.05,-47.78 277.05,-47.78"/>
<text text-anchor="middle" x="282.55" y="-55.2" font-family="Helvetica,Arial,sans-serif" font-size="9.00" fill="dimgrey">from</text>
<text text-anchor="middle" x="282" y="-50.72" font-family="Helvetica,Arial,sans-serif" font-size="9.00" fill="blue">0..1</text>
</g>
<!-- customer -->
<g id="node7" class="node">
<title>customer</title>
<ellipse fill="none" stroke="black" cx="354.55" cy="-18" rx="33.43" ry="18"/>
<text text-anchor="middle" x="354.55" y="-14.12" font-family="Helvetica,Arial,sans-serif" font-size="10.00">customer</text>
</g>
<!-- Booking&#45;&gt;customer -->
<g id="edge3" class="edge">
<title>Booking&#45;&gt;customer</title>
<path fill="none" stroke="black" d="M288.78,-83.75C300.7,-72.02 317.48,-55.5 331.1,-42.09"/>
<polygon fill="black" stroke="black" points="333.36,-44.78 338.03,-35.27 328.45,-39.79 333.36,-44.78"/>
<text text-anchor="middle" x="337.3" y="-55.2" font-family="Helvetica,Arial,sans-serif" font-size="9.00" fill="dimgrey">customer</text>
<text text-anchor="middle" x="332.12" y="-49.27" font-family="Helvetica,Arial,sans-serif" font-size="9.00" fill="blue">0..1</text>
</g>
</g>
</svg>
