<?xml version="1.0" encoding="us-ascii" standalone="no"?><svg xmlns="http://www.w3.org/2000/svg" xmlns:xlink="http://www.w3.org/1999/xlink" contentStyleType="text/css" height="910px" preserveAspectRatio="none" style="width:1867px;height:910px;" version="1.1" viewBox="0 0 1867 910" width="1867px" zoomAndPan="magnify"><defs/><g><!--cluster s_sdml--><g id="cluster_s_sdml"><polygon fill="#FFFFFF" points="1055.9873,554.79,1097.9873,554.79,1104.9873,577.2783,1183.9873,577.2783,1183.9873,672.28,1055.9873,672.28,1055.9873,554.79" style="stroke:#000000;stroke-width:1.5;"/><line style="stroke:#000000;stroke-width:1.5;" x1="1055.9873" x2="1104.9873" y1="577.2783" y2="577.2783"/><text fill="#000000" font-family="sans-serif" font-size="14" font-weight="bold" lengthAdjust="spacing" textLength="36" x="1059.9873" y="570.3252">sdml</text><text fill="#000000" font-family="sans-serif" font-size="14" font-style="italic" lengthAdjust="spacing" textLength="66" x="1090.9873" y="592.8134">&#171;module&#187;</text></g><!--cluster s_xsd--><g id="cluster_s_xsd"><polygon fill="#FFFFFF" points="76.9873,786.05,107.9873,786.05,114.9873,808.5383,396.9873,808.5383,396.9873,903.54,76.9873,903.54,76.9873,786.05" style="stroke:#000000;stroke-width:1.5;"/><line style="stroke:#000000;stroke-width:1.5;" x1="76.9873" x2="114.9873" y1="808.5383" y2="808.5383"/><text fill="#000000" font-family="sans-serif" font-size="14" font-weight="bold" lengthAdjust="spacing" textLength="25" x="80.9873" y="801.5852">xsd</text><text fill="#000000" font-family="sans-serif" font-size="14" font-style="italic" lengthAdjust="spacing" textLength="66" x="207.9873" y="824.0734">&#171;module&#187;</text></g><!--cluster s_cids--><g id="cluster_s_cids"><polygon fill="#FFFFFF" points="1568.9873,201.1,1603.9873,201.1,1610.9873,223.5883,1850.9873,223.5883,1850.9873,318.59,1568.9873,318.59,1568.9873,201.1" style="stroke:#000000;stroke-width:1.5;"/><line style="stroke:#000000;stroke-width:1.5;" x1="1568.9873" x2="1610.9873" y1="223.5883" y2="223.5883"/><text fill="#000000" font-family="sans-serif" font-size="14" font-weight="bold" lengthAdjust="spacing" textLength="29" x="1572.9873" y="216.6352">cids</text><text fill="#000000" font-family="sans-serif" font-size="14" font-style="italic" lengthAdjust="spacing" textLength="66" x="1680.9873" y="239.1234">&#171;module&#187;</text></g><!--cluster s_rentals--><g id="cluster_s_rentals"><polygon fill="none" points="119.9873,6,175.9873,6,182.9873,28.4883,1015.9873,28.4883,1015.9873,737.05,119.9873,737.05,119.9873,6" style="stroke:#000000;stroke-width:1.5;"/><line style="stroke:#000000;stroke-width:1.5;" x1="119.9873" x2="182.9873" y1="28.4883" y2="28.4883"/><text fill="#000000" font-family="sans-serif" font-size="14" font-weight="bold" lengthAdjust="spacing" textLength="50" x="123.9873" y="21.5352">rentals</text><text fill="#000000" font-family="sans-serif" font-size="14" font-style="italic" lengthAdjust="spacing" textLength="66" x="538.9873" y="44.0234">&#171;module&#187;</text></g><!--class s_sdml__string--><g id="elem_s_sdml__string"><rect codeLine="16" fill="#F1F1F1" height="34.4883" id="s_sdml__string" rx="2.5" ry="2.5" style="stroke:#181818;stroke-width:0.5;" width="46" x="1079.9873" y="613.79"/><text fill="#000000" font-family="sans-serif" font-size="14" lengthAdjust="spacing" textLength="40" x="1082.9873" y="632.3252">string</text><line style="stroke:#181818;stroke-width:0.5;" x1="1080.9873" x2="1124.9873" y1="640.2783" y2="640.2783"/></g><path d="M10.4873,250.86 L45.4873,250.86 A3.75,3.75 0 0 1 47.9873,253.36 L54.9873,273.3483 L93.4873,273.3483 A2.5,2.5 0 0 1 95.9873,275.8483 L95.9873,301.3366 A2.5,2.5 0 0 1 93.4873,303.8366 L10.4873,303.8366 A2.5,2.5 0 0 1 7.9873,301.3366 L7.9873,253.36 A2.5,2.5 0 0 1 10.4873,250.86 " fill="#FFFFFF" style="stroke:#181818;stroke-width:0.5;"/><line style="stroke:#181818;stroke-width:0.5;" x1="7.9873" x2="54.9873" y1="273.3483" y2="273.3483"/><text fill="#000000" font-family="sans-serif" font-size="14" font-weight="bold" lengthAdjust="spacing" textLength="34" x="11.9873" y="266.3952">skos</text><text fill="#000000" font-family="sans-serif" font-size="14" font-style="italic" lengthAdjust="spacing" textLength="66" x="22.9873" y="288.8834">&#171;module&#187;</text><path d="M1432.4873,250.86 L1449.4873,250.86 A3.75,3.75 0 0 1 1451.9873,253.36 L1458.9873,273.3483 L1515.4873,273.3483 A2.5,2.5 0 0 1 1517.9873,275.8483 L1517.9873,301.3366 A2.5,2.5 0 0 1 1515.4873,303.8366 L1432.4873,303.8366 A2.5,2.5 0 0 1 1429.9873,301.3366 L1429.9873,253.36 A2.5,2.5 0 0 1 1432.4873,250.86 " fill="#FFFFFF" style="stroke:#181818;stroke-width:0.5;"/><line style="stroke:#181818;stroke-width:0.5;" x1="1429.9873" x2="1458.9873" y1="273.3483" y2="273.3483"/><text fill="#000000" font-family="sans-serif" font-size="14" font-weight="bold" lengthAdjust="spacing" textLength="16" x="1433.9873" y="266.3952">dc</text><text fill="#000000" font-family="sans-serif" font-size="14" font-style="italic" lengthAdjust="spacing" textLength="66" x="1444.9873" y="288.8834">&#171;module&#187;</text><!--class s_xsd__date--><g id="elem_s_xsd__date"><rect codeLine="26" fill="#F1F1F1" height="34.4883" id="s_xsd__date" rx="2.5" ry="2.5" style="stroke:#181818;stroke-width:0.5;" width="36" x="100.9873" y="845.05"/><text fill="#000000" font-family="sans-serif" font-size="14" lengthAdjust="spacing" textLength="30" x="103.9873" y="863.5852">date</text><line style="stroke:#181818;stroke-width:0.5;" x1="101.9873" x2="135.9873" y1="871.5383" y2="871.5383"/></g><!--class s_xsd__string--><g id="elem_s_xsd__string"><rect codeLine="27" fill="#F1F1F1" height="34.4883" id="s_xsd__string" rx="2.5" ry="2.5" style="stroke:#181818;stroke-width:0.5;" width="46" x="186.9873" y="845.05"/><text fill="#000000" font-family="sans-serif" font-size="14" lengthAdjust="spacing" textLength="40" x="189.9873" y="863.5852">string</text><line style="stroke:#181818;stroke-width:0.5;" x1="187.9873" x2="231.9873" y1="871.5383" y2="871.5383"/></g><!--class s_xsd__integer--><g id="elem_s_xsd__integer"><rect codeLine="28" fill="#F1F1F1" height="34.4883" id="s_xsd__integer" rx="2.5" ry="2.5" style="stroke:#181818;stroke-width:0.5;" width="55" x="283.4873" y="845.05"/><text fill="#000000" font-family="sans-serif" font-size="14" lengthAdjust="spacing" textLength="49" x="286.4873" y="863.5852">integer</text><line style="stroke:#181818;stroke-width:0.5;" x1="284.4873" x2="337.4873" y1="871.5383" y2="871.5383"/></g><!--class s_cids__VehicleIdentificationNumber--><g id="elem_s_cids__VehicleIdentificationNumber"><rect codeLine="32" fill="#F1F1F1" height="34.4883" id="s_cids__VehicleIdentificationNumber" rx="2.5" ry="2.5" style="stroke:#181818;stroke-width:0.5;" width="200" x="1626.9873" y="260.1"/><text fill="#000000" font-family="sans-serif" font-size="14" lengthAdjust="spacing" textLength="194" x="1629.9873" y="278.6352">VehicleIdentificationNumber</text><line style="stroke:#181818;stroke-width:0.5;" x1="1627.9873" x2="1825.9873" y1="286.5883" y2="286.5883"/></g><!--class s_Address--><g id="elem_s_Address"><rect codeLine="37" fill="#F1F1F1" height="40.6211" id="s_Address" rx="2.5" ry="2.5" style="stroke:#181818;stroke-width:0.5;" width="65" x="331.4873" y="610.72"/><text fill="#000000" font-family="sans-serif" font-size="12" font-style="italic" lengthAdjust="spacing" textLength="63" x="332.4873" y="627.3216">&#171;structure&#187;</text><text fill="#000000" font-family="sans-serif" font-size="14" lengthAdjust="spacing" textLength="56" x="335.9873" y="643.388">Address</text></g><!--class s_Booking--><g id="elem_s_Booking"><rect codeLine="41" fill="#F1F1F1" height="89.1094" id="s_Booking" rx="2.5" ry="2.5" style="stroke:#181818;stroke-width:0.5;" width="219" x="307.4873" y="232.79"/><text fill="#000000" font-family="sans-serif" font-size="12" font-style="italic" lengthAdjust="spacing" textLength="43" x="395.4873" y="249.3916">&#171;entity&#187;</text><text fill="#000000" font-family="sans-serif" font-size="14" lengthAdjust="spacing" textLength="56" x="388.9873" y="265.458">Booking</text><line style="stroke:#181818;stroke-width:0.5;" x1="308.4873" x2="525.4873" y1="273.4111" y2="273.4111"/><ellipse cx="318.4873" cy="287.1552" fill="none" rx="3" ry="3" style="stroke:#038048;stroke-width:1.0;"/><text fill="#000000" font-family="sans-serif" font-size="14" lengthAdjust="spacing" textLength="193" x="327.4873" y="290.9462">bookingCode: BookingCode</text><line style="stroke:#181818;stroke-width:1.0;" x1="308.4873" x2="525.4873" y1="297.8994" y2="297.8994"/><line style="stroke:#181818;stroke-width:1.0;" x1="308.4873" x2="525.4873" y1="305.8994" y2="305.8994"/><line style="stroke:#181818;stroke-width:1.0;" x1="308.4873" x2="525.4873" y1="313.8994" y2="313.8994"/></g><!--class s_Customer--><g id="elem_s_Customer"><rect codeLine="48" fill="#F1F1F1" height="89.1094" id="s_Customer" rx="2.5" ry="2.5" style="stroke:#181818;stroke-width:0.5;" width="109" x="202.4873" y="398.9"/><text fill="#000000" font-family="sans-serif" font-size="12" font-style="italic" lengthAdjust="spacing" textLength="43" x="235.4873" y="415.5016">&#171;entity&#187;</text><text fill="#000000" font-family="sans-serif" font-size="14" lengthAdjust="spacing" textLength="67" x="223.4873" y="431.568">Customer</text><line style="stroke:#181818;stroke-width:0.5;" x1="203.4873" x2="310.4873" y1="439.5211" y2="439.5211"/><ellipse cx="213.4873" cy="453.2652" fill="none" rx="3" ry="3" style="stroke:#038048;stroke-width:1.0;"/><text fill="#000000" font-family="sans-serif" font-size="14" lengthAdjust="spacing" textLength="83" x="222.4873" y="457.0563">id: UniqueId</text><line style="stroke:#181818;stroke-width:1.0;" x1="203.4873" x2="310.4873" y1="464.0094" y2="464.0094"/><line style="stroke:#181818;stroke-width:1.0;" x1="203.4873" x2="310.4873" y1="472.0094" y2="472.0094"/><line style="stroke:#181818;stroke-width:1.0;" x1="203.4873" x2="310.4873" y1="480.0094" y2="480.0094"/></g><!--class s_LicenseInformation--><g id="elem_s_LicenseInformation"><rect codeLine="55" fill="#F1F1F1" height="48.6211" id="s_LicenseInformation" rx="2.5" ry="2.5" style="stroke:#181818;stroke-width:0.5;" width="137" x="144.4873" y="606.72"/><text fill="#000000" font-family="sans-serif" font-size="12" font-style="italic" lengthAdjust="spacing" textLength="63" x="181.4873" y="623.3216">&#171;structure&#187;</text><text fill="#000000" font-family="sans-serif" font-size="14" lengthAdjust="spacing" textLength="131" x="147.4873" y="639.388">LicenseInformation</text><line style="stroke:#181818;stroke-width:0.5;" x1="145.4873" x2="280.4873" y1="647.3411" y2="647.3411"/></g><!--class s_Location--><g id="elem_s_Location"><rect codeLine="58" fill="#F1F1F1" height="73.1094" id="s_Location" rx="2.5" ry="2.5" style="stroke:#181818;stroke-width:0.5;" width="110" x="361.9873" y="406.9"/><text fill="#000000" font-family="sans-serif" font-size="12" font-style="italic" lengthAdjust="spacing" textLength="43" x="395.4873" y="423.5016">&#171;entity&#187;</text><text fill="#000000" font-family="sans-serif" font-size="14" lengthAdjust="spacing" textLength="58" x="387.9873" y="439.568">Location</text><line style="stroke:#181818;stroke-width:0.5;" x1="362.9873" x2="470.9873" y1="447.5211" y2="447.5211"/><ellipse cx="372.9873" cy="461.2652" fill="none" rx="3" ry="3" style="stroke:#038048;stroke-width:1.0;"/><text fill="#000000" font-family="sans-serif" font-size="14" lengthAdjust="spacing" textLength="84" x="381.9873" y="465.0563">id: cids:Uuid</text><line style="stroke:#181818;stroke-width:1.0;" x1="362.9873" x2="470.9873" y1="472.0094" y2="472.0094"/></g><!--class s_MembershipLevel--><g id="elem_s_MembershipLevel"><rect codeLine="63" fill="#F1F1F1" height="98.0859" id="s_MembershipLevel" rx="2.5" ry="2.5" style="stroke:#181818;stroke-width:0.5;" width="125" x="446.4873" y="581.99"/><text fill="#000000" font-family="sans-serif" font-size="12" font-style="italic" lengthAdjust="spacing" textLength="44" x="486.9873" y="598.5916">&#171;enum&#187;</text><text fill="#000000" font-family="sans-serif" font-size="14" lengthAdjust="spacing" textLength="119" x="449.4873" y="614.658">MembershipLevel</text><line style="stroke:#181818;stroke-width:0.5;" x1="447.4873" x2="570.4873" y1="622.6111" y2="622.6111"/><ellipse cx="457.4873" cy="636.3552" fill="none" rx="3" ry="3" style="stroke:#038048;stroke-width:1.0;"/><text fill="#000000" font-family="sans-serif" font-size="14" lengthAdjust="spacing" textLength="34" x="466.4873" y="640.1463">Basic</text><ellipse cx="457.4873" cy="652.8435" fill="none" rx="3" ry="3" style="stroke:#038048;stroke-width:1.0;"/><text fill="#000000" font-family="sans-serif" font-size="14" lengthAdjust="spacing" textLength="37" x="466.4873" y="656.6345">Silver</text><ellipse cx="457.4873" cy="669.3318" fill="none" rx="3" ry="3" style="stroke:#038048;stroke-width:1.0;"/><text fill="#000000" font-family="sans-serif" font-size="14" lengthAdjust="spacing" textLength="32" x="466.4873" y="673.1228">Gold</text></g><!--class s_RentalClass--><g id="elem_s_RentalClass"><rect codeLine="69" fill="#F1F1F1" height="164.0391" id="s_RentalClass" rx="2.5" ry="2.5" style="stroke:#181818;stroke-width:0.5;" width="175" x="808.4873" y="549.01"/><text fill="#000000" font-family="sans-serif" font-size="12" font-style="italic" lengthAdjust="spacing" textLength="44" x="873.9873" y="565.6116">&#171;enum&#187;</text><text fill="#000000" font-family="sans-serif" font-size="14" lengthAdjust="spacing" textLength="79" x="856.4873" y="581.678">RentalClass</text><line style="stroke:#181818;stroke-width:0.5;" x1="809.4873" x2="982.4873" y1="589.6311" y2="589.6311"/><ellipse cx="819.4873" cy="603.3752" fill="none" rx="3" ry="3" style="stroke:#038048;stroke-width:1.0;"/><text fill="#000000" font-family="sans-serif" font-size="14" lengthAdjust="spacing" textLength="87" x="828.4873" y="607.1663">SubCompact</text><ellipse cx="819.4873" cy="619.8635" fill="none" rx="3" ry="3" style="stroke:#038048;stroke-width:1.0;"/><text fill="#000000" font-family="sans-serif" font-size="14" lengthAdjust="spacing" textLength="61" x="828.4873" y="623.6545">Compact</text><ellipse cx="819.4873" cy="636.3518" fill="none" rx="3" ry="3" style="stroke:#038048;stroke-width:1.0;"/><text fill="#000000" font-family="sans-serif" font-size="14" lengthAdjust="spacing" textLength="53" x="828.4873" y="640.1428">FullSize</text><ellipse cx="819.4873" cy="652.8401" fill="none" rx="3" ry="3" style="stroke:#038048;stroke-width:1.0;"/><text fill="#000000" font-family="sans-serif" font-size="14" lengthAdjust="spacing" textLength="149" x="828.4873" y="656.6311">CompactUtilityVehicle</text><ellipse cx="819.4873" cy="669.3284" fill="none" rx="3" ry="3" style="stroke:#038048;stroke-width:1.0;"/><text fill="#000000" font-family="sans-serif" font-size="14" lengthAdjust="spacing" textLength="141" x="828.4873" y="673.1194">FullSizeUtilityVehicle</text><ellipse cx="819.4873" cy="685.8166" fill="none" rx="3" ry="3" style="stroke:#038048;stroke-width:1.0;"/><text fill="#000000" font-family="sans-serif" font-size="14" lengthAdjust="spacing" textLength="47" x="828.4873" y="689.6077">Luxury</text><ellipse cx="819.4873" cy="702.3049" fill="none" rx="3" ry="3" style="stroke:#038048;stroke-width:1.0;"/><text fill="#000000" font-family="sans-serif" font-size="14" lengthAdjust="spacing" textLength="44" x="828.4873" y="706.0959">Sports</text></g><!--class s_BookingCode--><g id="elem_s_BookingCode"><rect codeLine="79" fill="#F1F1F1" height="65.1094" id="s_BookingCode" rx="2.5" ry="2.5" style="stroke:#181818;stroke-width:0.5;" width="259" x="698.4873" y="65"/><text fill="#000000" font-family="sans-serif" font-size="12" font-style="italic" lengthAdjust="spacing" textLength="63" x="796.4873" y="81.6016">&#171;datatype&#187;</text><text fill="#000000" font-family="sans-serif" font-size="14" lengthAdjust="spacing" textLength="92" x="781.9873" y="97.668">BookingCode</text><line style="stroke:#181818;stroke-width:0.5;" x1="699.4873" x2="956.4873" y1="105.6211" y2="105.6211"/><text fill="#000000" font-family="sans-serif" font-size="14" lengthAdjust="spacing" textLength="247" x="704.4873" y="123.1563">{xsd:pattern = "[A-Za-z0-9_-]{22}"}</text></g><!--class s_Vehicle--><g id="elem_s_Vehicle"><rect codeLine="83" fill="#F1F1F1" height="73.1094" id="s_Vehicle" rx="2.5" ry="2.5" style="stroke:#181818;stroke-width:0.5;" width="248" x="565.9873" y="406.9"/><text fill="#000000" font-family="sans-serif" font-size="12" font-style="italic" lengthAdjust="spacing" textLength="43" x="668.4873" y="423.5016">&#171;entity&#187;</text><text fill="#000000" font-family="sans-serif" font-size="14" lengthAdjust="spacing" textLength="49" x="665.4873" y="439.568">Vehicle</text><line style="stroke:#181818;stroke-width:0.5;" x1="566.9873" x2="812.9873" y1="447.5211" y2="447.5211"/><ellipse cx="576.9873" cy="461.2652" fill="none" rx="3" ry="3" style="stroke:#038048;stroke-width:1.0;"/><text fill="#000000" font-family="sans-serif" font-size="14" lengthAdjust="spacing" textLength="222" x="585.9873" y="465.0563">vin: VehicleIdentificationNumber</text><line style="stroke:#181818;stroke-width:1.0;" x1="566.9873" x2="812.9873" y1="472.0094" y2="472.0094"/></g><!--class s_VehicleInformation--><g id="elem_s_VehicleInformation"><rect codeLine="88" fill="#F1F1F1" height="48.6211" id="s_VehicleInformation" rx="2.5" ry="2.5" style="stroke:#181818;stroke-width:0.5;" width="136" x="621.9873" y="606.72"/><text fill="#000000" font-family="sans-serif" font-size="12" font-style="italic" lengthAdjust="spacing" textLength="63" x="658.4873" y="623.3216">&#171;structure&#187;</text><text fill="#000000" font-family="sans-serif" font-size="14" lengthAdjust="spacing" textLength="130" x="624.9873" y="639.388">VehicleInformation</text><line style="stroke:#181818;stroke-width:0.5;" x1="622.9873" x2="756.9873" y1="647.3411" y2="647.3411"/></g><!--class s_VehicleAssigned--><g id="elem_s_VehicleAssigned"><rect codeLine="91" fill="#F1F1F1" height="48.6211" id="s_VehicleAssigned" rx="2.5" ry="2.5" style="stroke:#181818;stroke-width:0.5;" width="118" x="481.9873" y="73.24"/><text fill="#000000" font-family="sans-serif" font-size="12" font-style="italic" lengthAdjust="spacing" textLength="43" x="519.4873" y="89.8416">&#171;event&#187;</text><text fill="#000000" font-family="sans-serif" font-size="14" lengthAdjust="spacing" textLength="112" x="484.9873" y="105.908">VehicleAssigned</text><line style="stroke:#181818;stroke-width:0.5;" x1="482.9873" x2="598.9873" y1="113.8611" y2="113.8611"/></g><!--class s_VehicleIdentificationNumber--><g id="elem_s_VehicleIdentificationNumber"><rect fill="#F1F1F1" height="34.4883" id="s_VehicleIdentificationNumber" rx="2.5" ry="2.5" style="stroke:#181818;stroke-width:0.5;" width="214" x="576.9873" y="260.1"/><text fill="#000000" font-family="sans-serif" font-size="14" lengthAdjust="spacing" textLength="208" x="579.9873" y="278.6352">s_VehicleIdentificationNumber</text><line style="stroke:#181818;stroke-width:0.5;" x1="577.9873" x2="789.9873" y1="286.5883" y2="286.5883"/></g><!--link s_Booking to s_Customer--><g id="link_s_Booking_s_Customer"><path codeLine="94" d="M365.7299,330.9218 C342.6799,354.5618 326.9159,370.734 303.8959,394.344 " fill="none" id="s_Booking-s_Customer" style="stroke:#181818;stroke-width:1.0;"/><polygon fill="#181818" points="374.1073,322.33,367.0547,323.8334,365.7299,330.9218,372.7826,329.4184,374.1073,322.33" style="stroke:#181818;stroke-width:1.0;"/><polygon fill="#181818" points="299.7073,398.64,308.8542,394.9884,303.1978,395.06,303.1263,389.4036,299.7073,398.64" style="stroke:#181818;stroke-width:1.0;"/><text fill="#000000" font-family="sans-serif" font-size="13" lengthAdjust="spacing" textLength="69" x="231.8633" y="372.8406">+customer</text><text fill="#000000" font-family="sans-serif" font-size="13" lengthAdjust="spacing" textLength="8" x="262.3633" y="388.1511">1</text></g><!--link s_Booking to s_xsd__date--><g id="link_s_Booking_s_xsd__date"><path codeLine="95" d="M298.6055,327.4597 C224.8955,361.8997 151.9873,398.9 151.9873,398.9 C151.9873,398.9 81.9873,538.79 81.9873,538.79 C81.9873,538.79 81.9873,762.05 81.9873,762.05 C81.9873,762.05 85.9855,811.3183 99.6155,839.5083 " fill="none" id="s_Booking-s_xsd__date" style="stroke:#181818;stroke-width:1.0;"/><polygon fill="#181818" points="309.4773,322.38,302.3482,321.2959,298.6055,327.4597,305.7346,328.5438,309.4773,322.38" style="stroke:#181818;stroke-width:1.0;"/><polygon fill="#181818" points="102.2273,844.91,101.9108,835.0662,100.0508,840.4086,94.7085,838.5486,102.2273,844.91" style="stroke:#181818;stroke-width:1.0;"/><text fill="#000000" font-family="sans-serif" font-size="13" lengthAdjust="spacing" textLength="87" x="6" y="822.5671">+pickup_date</text><text fill="#000000" font-family="sans-serif" font-size="13" lengthAdjust="spacing" textLength="24" x="37.5" y="837.8776">0..1</text></g><!--link s_Booking to s_xsd__date--><g id="link_s_Booking_s_xsd__date"><path codeLine="97" d="M338.6227,328.108 C275.2227,362.548 201.9873,398.9 201.9873,398.9 C201.9873,398.9 131.9873,538.79 131.9873,538.79 C131.9873,538.79 131.9873,762.05 131.9873,762.05 C131.9873,762.05 140.0062,810.8878 133.1962,839.0778 " fill="none" id="s_Booking-s_xsd__date-1" style="stroke:#181818;stroke-width:1.0;"/><polygon fill="#181818" points="349.1673,322.38,341.9856,321.7291,338.6227,328.108,345.8043,328.7589,349.1673,322.38" style="stroke:#181818;stroke-width:1.0;"/><polygon fill="#181818" points="131.7873,844.91,137.7889,837.1009,132.9614,840.0498,130.0125,835.2224,131.7873,844.91" style="stroke:#181818;stroke-width:1.0;"/><text fill="#000000" font-family="sans-serif" font-size="13" lengthAdjust="spacing" textLength="91" x="144.7587" y="819.0124">+dropoff_date</text><text fill="#000000" font-family="sans-serif" font-size="13" lengthAdjust="spacing" textLength="24" x="178.2587" y="834.3229">0..1</text></g><!--link s_Booking to s_Location--><g id="link_s_Booking_s_Location"><path codeLine="96" d="M398.8599,334.2597 C395.9899,360.6497 396.7868,375.9306 400.3368,400.7206 " fill="none" id="s_Booking-s_Location" style="stroke:#181818;stroke-width:1.0;"/><polygon fill="#181818" points="400.1573,322.33,395.5321,327.8624,398.8599,334.2597,403.4852,328.7273,400.1573,322.33" style="stroke:#181818;stroke-width:1.0;"/><polygon fill="#181818" points="401.1873,406.66,403.8711,397.1839,400.4785,401.7105,395.9519,398.3179,401.1873,406.66" style="stroke:#181818;stroke-width:1.0;"/><text fill="#000000" font-family="sans-serif" font-size="13" lengthAdjust="spacing" textLength="111" x="407.7626" y="380.7013">+pickup_location</text><text fill="#000000" font-family="sans-serif" font-size="13" lengthAdjust="spacing" textLength="24" x="451.2626" y="396.0118">0..1</text></g><!--link s_Booking to s_Location--><g id="link_s_Booking_s_Location"><path codeLine="98" d="M435.1147,334.2597 C437.9847,360.6497 437.1879,375.9306 433.6379,400.7206 " fill="none" id="s_Booking-s_Location-1" style="stroke:#181818;stroke-width:1.0;"/><polygon fill="#181818" points="433.8173,322.33,430.4895,328.7273,435.1147,334.2597,438.4426,327.8624,433.8173,322.33" style="stroke:#181818;stroke-width:1.0;"/><polygon fill="#181818" points="432.7873,406.66,438.0227,398.3179,433.4961,401.7105,430.1035,397.1839,432.7873,406.66" style="stroke:#181818;stroke-width:1.0;"/><text fill="#000000" font-family="sans-serif" font-size="13" lengthAdjust="spacing" textLength="115" x="313.5706" y="380.8363">+dropoff_location</text><text fill="#000000" font-family="sans-serif" font-size="13" lengthAdjust="spacing" textLength="24" x="359.0706" y="396.1468">0..1</text></g><!--link s_Booking to s_RentalClass--><g id="link_s_Booking_s_RentalClass"><path codeLine="99" d="M533.7758,327.0017 C550.8558,334.1117 551.9873,334.59 551.9873,334.59 C551.9873,334.59 838.9873,398.9 838.9873,398.9 C838.9873,398.9 858.0406,476.1745 874.4506,542.7145 " fill="none" id="s_Booking-s_RentalClass" style="stroke:#181818;stroke-width:1.0;"/><polygon fill="#181818" points="522.6973,322.39,526.6993,328.3887,533.7758,327.0017,529.7738,321.003,522.6973,322.39" style="stroke:#181818;stroke-width:1.0;"/><polygon fill="#181818" points="875.8873,548.54,877.616,538.844,874.6901,543.6854,869.8487,540.7596,875.8873,548.54" style="stroke:#181818;stroke-width:1.0;"/><text fill="#000000" font-family="sans-serif" font-size="13" lengthAdjust="spacing" textLength="96" x="774.2478" y="523.0607">+bookingClass</text><text fill="#000000" font-family="sans-serif" font-size="13" lengthAdjust="spacing" textLength="8" x="818.2478" y="538.3713">1</text></g><!--link s_Booking to s_Vehicle--><g id="link_s_Booking_s_Vehicle"><path codeLine="100" d="M500.4327,328.5115 C544.3427,354.9015 584.0552,378.7783 625.2852,403.5683 " fill="none" id="s_Booking-s_Vehicle" style="stroke:#181818;stroke-width:1.0;"/><polygon fill="#181818" points="490.1473,322.33,493.2295,328.8492,500.4327,328.5115,497.3505,321.9923,490.1473,322.33" style="stroke:#181818;stroke-width:1.0;"/><polygon fill="#181818" points="630.4273,406.66,624.7753,398.5943,626.1422,404.0835,620.653,405.4505,630.4273,406.66" style="stroke:#181818;stroke-width:1.0;"/><text fill="#000000" font-family="sans-serif" font-size="13" lengthAdjust="spacing" textLength="54" x="562.0908" y="380.7013">+vehicle</text><text fill="#000000" font-family="sans-serif" font-size="13" lengthAdjust="spacing" textLength="24" x="577.0908" y="396.0118">0..1</text></g><!--link s_Customer to s_sdml__string--><g id="link_s_Customer_s_sdml__string"><path codeLine="101" d="M322.2149,479.971 C336.2749,487.631 336.9873,488.01 336.9873,488.01 C336.9873,488.01 1003.9873,538.79 1003.9873,538.79 C1003.9873,538.79 1051.8353,582.8938 1080.4153,609.2338 " fill="none" id="s_Customer-s_sdml__string" style="stroke:#181818;stroke-width:1.0;"/><polygon fill="#181818" points="311.6773,474.23,315.0325,480.613,322.2149,479.971,318.8598,473.588,311.6773,474.23" style="stroke:#181818;stroke-width:1.0;"/><polygon fill="#181818" points="1084.8273,613.3,1080.9201,604.2593,1081.1506,609.9115,1075.4985,610.142,1084.8273,613.3" style="stroke:#181818;stroke-width:1.0;"/><text fill="#000000" font-family="sans-serif" font-size="13" lengthAdjust="spacing" textLength="44" x="1030.5363" y="587.5598">+name</text><text fill="#000000" font-family="sans-serif" font-size="13" lengthAdjust="spacing" textLength="24" x="1040.5363" y="602.8704">0..1</text></g><!--link s_Customer to s_Address--><g id="link_s_Customer_s_Address"><path codeLine="102" d="M288.341,498.8359 C310.711,537.6359 333.271,576.7517 349.831,605.4817 " fill="none" id="s_Customer-s_Address" style="stroke:#181818;stroke-width:1.0;"/><polygon fill="#181818" points="282.3473,488.44,281.8789,495.6359,288.341,498.8359,288.8095,491.6401,282.3473,488.44" style="stroke:#181818;stroke-width:1.0;"/><polygon fill="#181818" points="352.8273,610.68,351.7984,600.885,350.3304,606.3481,344.8673,604.8801,352.8273,610.68" style="stroke:#181818;stroke-width:1.0;"/><text fill="#000000" font-family="sans-serif" font-size="13" lengthAdjust="spacing" textLength="108" x="235.3937" y="580.6897">+contactAddress</text><text fill="#000000" font-family="sans-serif" font-size="13" lengthAdjust="spacing" textLength="8" x="285.3937" y="596.0003">1</text></g><!--link s_Customer to s_LicenseInformation--><g id="link_s_Customer_s_LicenseInformation"><path codeLine="103" d="M243.7905,500.1167 C235.0305,537.0867 226.981,571.0117 219.961,600.6317 " fill="none" id="s_Customer-s_LicenseInformation" style="stroke:#181818;stroke-width:1.0;"/><polygon fill="#181818" points="246.5573,488.44,241.2817,493.3561,243.7905,500.1167,249.0662,495.2006,246.5573,488.44" style="stroke:#181818;stroke-width:1.0;"/><polygon fill="#181818" points="218.5773,606.47,224.545,598.635,219.7304,601.6048,216.7607,596.7901,218.5773,606.47" style="stroke:#181818;stroke-width:1.0;"/><text fill="#000000" font-family="sans-serif" font-size="13" lengthAdjust="spacing" textLength="93" x="116.6283" y="580.4524">+driverLicense</text><text fill="#000000" font-family="sans-serif" font-size="13" lengthAdjust="spacing" textLength="24" x="151.1283" y="595.763">0..1</text></g><!--link s_Customer to s_MembershipLevel--><g id="link_s_Customer_s_MembershipLevel"><path codeLine="104" d="M322.3452,481.8255 C370.3452,509.2655 421.9873,538.79 421.9873,538.79 C421.9873,538.79 437.9271,555.5074 458.7971,577.3974 " fill="none" id="s_Customer-s_MembershipLevel" style="stroke:#181818;stroke-width:1.0;"/><polygon fill="#181818" points="311.9273,475.87,315.1511,482.3204,322.3452,481.8255,319.1214,475.3752,311.9273,475.87" style="stroke:#181818;stroke-width:1.0;"/><polygon fill="#181818" points="462.9373,581.74,459.622,572.4659,459.4871,578.1212,453.8319,577.9863,462.9373,581.74" style="stroke:#181818;stroke-width:1.0;"/><text fill="#000000" font-family="sans-serif" font-size="13" lengthAdjust="spacing" textLength="39" x="415.5387" y="556.1106">+level</text><text fill="#000000" font-family="sans-serif" font-size="13" lengthAdjust="spacing" textLength="24" x="423.0387" y="571.4212">0..1</text></g><!--link s_Customer to s_xsd__date--><g id="link_s_Customer_s_xsd__date"><path codeLine="105" d="M192.1414,488.783 C153.6614,515.093 118.9873,538.79 118.9873,538.79 C118.9873,538.79 118.9873,773.14 118.9873,838.86 " fill="none" id="s_Customer-s_xsd__date" style="stroke:#181818;stroke-width:1.0;"/><polygon fill="#181818" points="202.0473,482.01,194.8367,482.0945,192.1414,488.783,199.352,488.6985,202.0473,482.01" style="stroke:#181818;stroke-width:1.0;"/><polygon fill="#181818" points="118.9873,844.86,122.9873,835.86,118.9873,839.86,114.9873,835.86,118.9873,844.86" style="stroke:#181818;stroke-width:1.0;"/><text fill="#000000" font-family="sans-serif" font-size="13" lengthAdjust="spacing" textLength="43" x="49.6498" y="854.827">+since</text><text fill="#000000" font-family="sans-serif" font-size="13" lengthAdjust="spacing" textLength="24" x="59.1498" y="870.1375">0..1</text></g><!--link s_LicenseInformation to s_xsd__string--><g id="link_s_LicenseInformation_s_xsd__string"><path codeLine="106" d="M198.1523,667.4227 C187.9623,713.9927 188.2723,798.9041 198.4323,838.9641 " fill="none" id="s_LicenseInformation-s_xsd__string" style="stroke:#181818;stroke-width:1.0;"/><polygon fill="#181818" points="200.7173,655.7,195.5272,660.7063,198.1523,667.4227,203.3423,662.4163,200.7173,655.7" style="stroke:#181818;stroke-width:1.0;"/><polygon fill="#181818" points="199.9073,844.78,201.572,835.0729,198.6781,839.9334,193.8175,837.0395,199.9073,844.78" style="stroke:#181818;stroke-width:1.0;"/><text fill="#000000" font-family="sans-serif" font-size="13" lengthAdjust="spacing" textLength="58" x="217.2967" y="848.7061">+number</text><text fill="#000000" font-family="sans-serif" font-size="13" lengthAdjust="spacing" textLength="24" x="234.2967" y="864.0167">0..1</text></g><!--link s_LicenseInformation to s_xsd__string--><g id="link_s_LicenseInformation_s_xsd__string"><path codeLine="107" d="M226.9145,667.4839 C235.8745,714.0539 233.3242,798.942 222.1142,839.002 " fill="none" id="s_LicenseInformation-s_xsd__string-1" style="stroke:#181818;stroke-width:1.0;"/><polygon fill="#181818" points="224.6473,655.7,221.853,662.3477,226.9145,667.4839,229.7089,660.8362,224.6473,655.7" style="stroke:#181818;stroke-width:1.0;"/><polygon fill="#181818" points="220.4973,844.78,226.7746,837.1909,221.8447,839.965,219.0706,835.035,220.4973,844.78" style="stroke:#181818;stroke-width:1.0;"/><text fill="#000000" font-family="sans-serif" font-size="13" lengthAdjust="spacing" textLength="41" x="228.4436" y="819.0962">+state</text><text fill="#000000" font-family="sans-serif" font-size="13" lengthAdjust="spacing" textLength="24" x="236.9436" y="834.4067">0..1</text></g><!--link s_LicenseInformation to s_xsd__date--><g id="link_s_LicenseInformation_s_xsd__date"><path codeLine="108" d="M198.7258,666.8033 C179.6358,713.3733 144.4641,799.1688 128.0341,839.2288 " fill="none" id="s_LicenseInformation-s_xsd__date" style="stroke:#181818;stroke-width:1.0;"/><polygon fill="#181818" points="203.2773,655.7,197.3005,659.7345,198.7258,666.8033,204.7027,662.7688,203.2773,655.7" style="stroke:#181818;stroke-width:1.0;"/><polygon fill="#181818" points="125.7573,844.78,132.8733,837.971,127.6546,840.154,125.4716,834.9353,125.7573,844.78" style="stroke:#181818;stroke-width:1.0;"/><text fill="#000000" font-family="sans-serif" font-size="13" lengthAdjust="spacing" textLength="74" x="104.8918" y="851.8704">+expiration</text><text fill="#000000" font-family="sans-serif" font-size="13" lengthAdjust="spacing" textLength="24" x="129.8918" y="867.1809">0..1</text></g><!--link s_Location to s_Address--><g id="link_s_Location_s_Address"><path codeLine="109" d="M403.4718,491.7786 C392.4018,530.5386 380.0844,573.6505 371.2544,604.5805 " fill="none" id="s_Location-s_Address" style="stroke:#181818;stroke-width:1.0;"/><polygon fill="#181818" points="406.7673,480.24,401.2734,484.9108,403.4718,491.7786,408.9658,487.1078,406.7673,480.24" style="stroke:#181818;stroke-width:1.0;"/><polygon fill="#181818" points="369.6073,610.35,375.9243,602.7938,370.9799,605.5421,368.2316,600.5977,369.6073,610.35" style="stroke:#181818;stroke-width:1.0;"/><text fill="#000000" font-family="sans-serif" font-size="13" lengthAdjust="spacing" textLength="59" x="377.7288" y="584.739">+address</text><text fill="#000000" font-family="sans-serif" font-size="13" lengthAdjust="spacing" textLength="8" x="403.2288" y="600.0496">1</text></g><!--link s_BookingCode to s_xsd__string--><g id="link_s_BookingCode_s_xsd__string"><path codeLine="110" d="M854.7473,130.57 C939.4373,231.87 1195.9873,538.79 1195.9873,538.79 C1195.9873,538.79 1195.9873,753.05 1195.9873,753.05 C1195.9873,753.05 257.9873,770.05 257.9873,770.05 C257.9873,770.05 241.0293,802.2907 227.1693,828.6307 " fill="none" id="s_BookingCode-to-s_xsd__string" style="stroke:#181818;stroke-width:1.0;"/><polygon fill="none" points="218.7873,844.56,232.479,831.4247,221.8595,825.8367,218.7873,844.56" style="stroke:#181818;stroke-width:1.0;"/></g><!--link s_Vehicle to s_VehicleInformation--><g id="link_s_Vehicle_s_VehicleInformation"><path codeLine="111" d="M689.9873,492.24 C689.9873,529.42 689.9873,568.53 689.9873,600.42 " fill="none" id="s_Vehicle-s_VehicleInformation" style="stroke:#181818;stroke-width:1.0;"/><polygon fill="#181818" points="689.9873,480.24,685.9873,486.24,689.9873,492.24,693.9873,486.24,689.9873,480.24" style="stroke:#181818;stroke-width:1.0;"/><polygon fill="#181818" points="689.9873,606.42,693.9873,597.42,689.9873,601.42,685.9873,597.42,689.9873,606.42" style="stroke:#181818;stroke-width:1.0;"/><text fill="#000000" font-family="sans-serif" font-size="13" lengthAdjust="spacing" textLength="84" x="597.3248" y="580.8827">+information</text><text fill="#000000" font-family="sans-serif" font-size="13" lengthAdjust="spacing" textLength="24" x="627.3248" y="596.1933">0..1</text></g><!--link s_Vehicle to s_RentalClass--><g id="link_s_Vehicle_s_RentalClass"><path codeLine="112" d="M738.6223,488.2726 C760.9523,508.3926 776.3896,522.294 803.7396,546.934 " fill="none" id="s_Vehicle-s_RentalClass" style="stroke:#181818;stroke-width:1.0;"/><polygon fill="#181818" points="729.7073,480.24,731.4872,487.228,738.6223,488.2726,736.8423,481.2847,729.7073,480.24" style="stroke:#181818;stroke-width:1.0;"/><polygon fill="#181818" points="808.1973,550.95,804.1881,541.9541,804.4825,547.6033,798.8333,547.8978,808.1973,550.95" style="stroke:#181818;stroke-width:1.0;"/><text fill="#000000" font-family="sans-serif" font-size="13" lengthAdjust="spacing" textLength="80" x="720.4101" y="559.5715">+rentalClass</text><text fill="#000000" font-family="sans-serif" font-size="13" lengthAdjust="spacing" textLength="8" x="756.4101" y="574.882">1</text></g><!--link s_VehicleInformation to s_xsd__string--><g id="link_s_VehicleInformation_s_xsd__string"><path codeLine="113" d="M647.2051,663.9754 C610.6451,699.1954 570.9873,753.05 570.9873,753.05 C570.9873,753.05 232.9873,770.05 232.9873,770.05 C232.9873,770.05 208.6074,812.2973 204.3374,838.6373 " fill="none" id="s_VehicleInformation-s_xsd__string" style="stroke:#181818;stroke-width:1.0;"/><polygon fill="#181818" points="655.8473,655.65,648.7511,656.932,647.2051,663.9754,654.3014,662.6934,655.8473,655.65" style="stroke:#181818;stroke-width:1.0;"/><polygon fill="#181818" points="203.3773,844.56,208.766,836.3161,204.1774,839.6244,200.8691,835.0359,203.3773,844.56" style="stroke:#181818;stroke-width:1.0;"/><text fill="#000000" font-family="sans-serif" font-size="13" lengthAdjust="spacing" textLength="44" x="152.046" y="818.8198">+make</text><text fill="#000000" font-family="sans-serif" font-size="13" lengthAdjust="spacing" textLength="24" x="162.046" y="834.1304">0..1</text></g><!--link s_VehicleInformation to s_xsd__string--><g id="link_s_VehicleInformation_s_xsd__string"><path codeLine="114" d="M681.9403,666.3169 C663.7903,701.5369 620.9873,753.05 620.9873,753.05 C620.9873,753.05 282.9873,770.05 282.9873,770.05 C282.9873,770.05 261.1227,814.8107 237.4727,840.9507 " fill="none" id="s_VehicleInformation-s_xsd__string-1" style="stroke:#181818;stroke-width:1.0;"/><polygon fill="#181818" points="687.4373,655.65,681.1332,659.1511,681.9403,666.3169,688.2444,662.8158,687.4373,655.65" style="stroke:#181818;stroke-width:1.0;"/><polygon fill="#181818" points="233.4473,845.4,242.4516,841.4097,236.8018,841.6923,236.5193,836.0425,233.4473,845.4" style="stroke:#181818;stroke-width:1.0;"/><text fill="#000000" font-family="sans-serif" font-size="13" lengthAdjust="spacing" textLength="49" x="226.6208" y="857.1308">+model</text><text fill="#000000" font-family="sans-serif" font-size="13" lengthAdjust="spacing" textLength="24" x="239.1208" y="872.4413">0..1</text></g><!--link s_VehicleInformation to s_xsd__integer--><g id="link_s_VehicleInformation_s_xsd__integer"><path codeLine="115" d="M664.2773,665.1279 C636.9273,700.3479 595.9873,753.05 595.9873,753.05 C595.9873,753.05 342.9873,770.05 342.9873,770.05 C342.9873,770.05 328.0834,812.5583 318.8434,838.8983 " fill="none" id="s_VehicleInformation-s_xsd__integer" style="stroke:#181818;stroke-width:1.0;"/><polygon fill="#181818" points="671.6373,655.65,664.798,657.9356,664.2773,665.1279,671.1166,662.8423,671.6373,655.65" style="stroke:#181818;stroke-width:1.0;"/><polygon fill="#181818" points="316.8573,844.56,323.611,837.3915,318.5124,839.8419,316.062,834.7433,316.8573,844.56" style="stroke:#181818;stroke-width:1.0;"/><text fill="#000000" font-family="sans-serif" font-size="13" lengthAdjust="spacing" textLength="36" x="277.749" y="818.8198">+year</text><text fill="#000000" font-family="sans-serif" font-size="13" lengthAdjust="spacing" textLength="24" x="283.749" y="834.1304">0..1</text></g><!--link s_VehicleAssigned to s_Booking--><g id="link_s_VehicleAssigned_s_Booking"><path codeLine="116" d="M524.5173,122.16 C504.9573,150.22 475.34,192.689 451.03,227.539 " fill="none" id="s_VehicleAssigned-to-s_Booking" style="stroke:#181818;stroke-width:1.0;stroke-dasharray:7.0,7.0;"/><polygon fill="#181818" points="447.5973,232.46,456.0271,227.3669,450.4579,228.3591,449.4657,222.79,447.5973,232.46" style="stroke:#181818;stroke-width:1.0;"/><text fill="#000000" font-family="sans-serif" font-size="13" lengthAdjust="spacing" textLength="56" x="497.9873" y="173.6684">&#171;source&#187;</text></g><!--link s_VehicleAssigned to s_VehicleIdentificationNumber--><g id="link_s_VehicleAssigned_s_VehicleIdentificationNumber"><path codeLine="117" d="M567.4985,131.5105 C596.9785,168.1605 641.7067,223.7848 667.1167,255.3748 " fill="none" id="s_VehicleAssigned-s_VehicleIdentificationNumber" style="stroke:#181818;stroke-width:1.0;"/><polygon fill="#181818" points="559.9773,122.16,560.6211,129.3423,567.4985,131.5105,566.8547,124.3282,559.9773,122.16" style="stroke:#181818;stroke-width:1.0;"/><polygon fill="#181818" points="670.8773,260.05,668.3532,250.5301,667.7435,256.154,662.1196,255.5442,670.8773,260.05" style="stroke:#181818;stroke-width:1.0;"/><text fill="#000000" font-family="sans-serif" font-size="13" lengthAdjust="spacing" textLength="54" x="606.0978" y="234.0228">+vehicle</text><text fill="#000000" font-family="sans-serif" font-size="13" lengthAdjust="spacing" textLength="24" x="621.0978" y="249.3333">0..1</text></g><!--link s_rentals to s_sdml--><g id="link_s_rentals_s_sdml"><path codeLine="120" d="M1016.1537,101.7699 C1020.7397,103.5796 1027.0324,106.0627 1034.4506,108.9898 C1049.287,114.8441 1068.6254,122.4744 1087.8161,130.0462 C1126.1973,145.19 1163.9873,160.1 1163.9873,160.1 C1163.9873,160.1 1166.9398,275.755 1169.9161,392.3137 C1171.4042,450.5931 1172.745,503.1004 1173.8789,547.4877 " fill="none" id="s_rentals-to-s_sdml" style="stroke:#181818;stroke-width:1.0;stroke-dasharray:7.0,7.0;"/><polygon fill="#181818" points="1174.0322,553.4858,1177.801,544.3866,1173.9045,548.4874,1169.8036,544.5909,1174.0322,553.4858" style="stroke:#181818;stroke-width:1.0;"/><text fill="#000000" font-family="sans-serif" font-size="13" lengthAdjust="spacing" textLength="56" x="1169.9873" y="365.4684">&#171;import&#187;</text></g><!--link s_rentals to s_skos--><g id="link_s_rentals_s_skos"><path codeLine="121" d="M119.1058,158.4011 C118.1998,158.4301 117.3039,158.4587 116.4183,158.4871 C112.8759,158.6004 109.4981,158.7084 106.292,158.8109 C80.6436,159.6312 65.9873,160.1 65.9873,160.1 C65.9873,160.1 59.9339,210.3429 55.8139,244.5929 " fill="none" id="s_rentals-to-s_skos" style="stroke:#181818;stroke-width:1.0;stroke-dasharray:7.0,7.0;"/><polygon fill="#181818" points="55.0973,250.55,60.1436,242.0921,55.6945,245.5858,52.2008,241.1367,55.0973,250.55" style="stroke:#181818;stroke-width:1.0;"/><text fill="#000000" font-family="sans-serif" font-size="13" lengthAdjust="spacing" textLength="56" x="66.9873" y="173.6684">&#171;import&#187;</text></g><!--link s_rentals to s_dc--><g id="link_s_rentals_s_dc"><path codeLine="122" d="M1016.6096,99.9314 C1016.8514,99.9702 1017.098,100.0097 1017.3493,100.05 C1017.8518,100.1306 1018.3732,100.2141 1018.9129,100.3007 C1021.0719,100.6468 1023.5256,101.0401 1026.2511,101.4771 C1037.1532,103.2247 1052.4044,105.6695 1070.5397,108.5764 C1106.8101,114.3903 1154.6167,122.0531 1202.2386,129.6862 C1297.4823,144.9525 1391.9873,160.1 1391.9873,160.1 C1391.9873,160.1 1428.1688,211.3971 1452.3288,245.6471 " fill="none" id="s_rentals-to-s_dc" style="stroke:#181818;stroke-width:1.0;stroke-dasharray:7.0,7.0;"/><polygon fill="#181818" points="1455.7873,250.55,1453.8681,240.8899,1452.9052,246.4642,1447.3309,245.5013,1455.7873,250.55" style="stroke:#181818;stroke-width:1.0;"/><text fill="#000000" font-family="sans-serif" font-size="13" lengthAdjust="spacing" textLength="56" x="1403.9873" y="173.6684">&#171;import&#187;</text></g><!--link s_rentals to s_xsd--><g id="link_s_rentals_s_xsd"><path codeLine="123" d="M1016.1078,101.1233 C1016.7529,101.328 1017.4326,101.5437 1018.1454,101.7699 C1023.8483,103.5796 1031.6736,106.0627 1040.8986,108.9898 C1059.3486,114.8441 1083.3973,122.4744 1107.2623,130.0462 C1154.9923,145.19 1201.9873,160.1 1201.9873,160.1 C1201.9873,160.1 1353.9873,276.35 1353.9873,276.35 C1353.9873,276.35 1353.9873,276.35 1353.9873,632.03 C1353.9873,632.03 1233.9873,753.05 1233.9873,753.05 C1233.9873,753.05 1026.0248,779.69 816.4373,806.5387 C711.6436,819.9631 606.4436,833.4397 526.6295,843.6645 C486.7225,848.777 453.1619,853.0764 429.1719,856.15 C417.1769,857.6868 407.5745,858.9171 400.7677,859.7893 C399.9169,859.8983 399.1097,860.0018 398.347,860.0995 C397.9657,860.1484 403.5468,859.4332 403.1877,859.4792 " fill="none" id="s_rentals-to-s_xsd" style="stroke:#181818;stroke-width:1.0;stroke-dasharray:7.0,7.0;"/><polygon fill="#181818" points="397.2364,860.2418,406.6718,863.0654,402.1959,859.6063,405.655,855.1303,397.2364,860.2418" style="stroke:#181818;stroke-width:1.0;"/><text fill="#000000" font-family="sans-serif" font-size="13" lengthAdjust="spacing" textLength="56" x="1354.9873" y="448.5284">&#171;import&#187;</text></g><!--link s_rentals to s_cids--><g id="link_s_rentals_s_cids"><path codeLine="124" d="M1016.7365,99.7079 C1017.0062,99.7436 1017.2817,99.7801 1017.563,99.8174 C1018.6884,99.9664 1019.9064,100.1276 1021.2137,100.3007 C1023.8281,100.6468 1026.7995,101.0401 1030.1,101.4771 C1043.3022,103.2247 1061.7708,105.6695 1083.7317,108.5764 C1127.6536,114.3903 1185.5448,122.0531 1243.2123,129.6862 C1358.5473,144.9525 1472.9873,160.1 1472.9873,160.1 C1472.9873,160.1 1542.9873,185.1 1542.9873,185.1 C1542.9873,185.1 1551.2248,207.205 1559.5911,229.655 C1561.6826,235.2675 1563.7822,240.9016 1565.7632,246.2172 C1566.7537,248.875 1567.7145,251.4532 1568.6298,253.9093 C1568.7442,254.2163 1566.7627,248.8991 1566.8756,249.2023 " fill="none" id="s_rentals-to-s_cids" style="stroke:#181818;stroke-width:1.0;stroke-dasharray:7.0,7.0;"/><polygon fill="#181818" points="1568.9709,254.8245,1569.5762,244.9943,1567.2248,250.1393,1562.0798,247.788,1568.9709,254.8245" style="stroke:#181818;stroke-width:1.0;"/><text fill="#000000" font-family="sans-serif" font-size="13" lengthAdjust="spacing" textLength="56" x="1520.9873" y="173.6684">&#171;import&#187;</text></g><!--SRC=[dLPBRniX4Bxlhq3kfMswLXgfXrgffSHzA5BQGwFqqAQo210RcOKji4aSr_-zi0R3xkArqqCSXldcmV3Di6f1UGabBC0jH8kP51N74y6415f2heoAS9sfBKhf9IFcLrAagu956aOvqSkIW5AmfHKY7HUOA5A2TyTPDgUOW8BekS1g8o0g4IDPfkRY0PoU0Wmrh3sDnrxdLIOPgfTj1U5LqK7U6sp2GyMfuD5-Lffpmna10uKBDW1G0JMrImCk1AuOCTWN3tEg2LXb0206bJ9WKm4-Y-3JwMOhMySk5q9vZ5acNSPuZ1mQextOHuKTsApwapK59G4xdLfvnr5glJl95a6v9ZCYOuZRQcI4AFQdjSl-d7wGEJNrly3sIkyeWjhSoxUgkDt6iJwcqnwS3HwYMw92vXDmKfn35FmCOqcKnph9ikFbrHiW93AqV6L9NXcIovg7rdXj_ch21fE2s4HK5boV2x48vNHIxVfJS1reRFq2S7IxmKrCdup0UH1gRPvt_gsZY9DAQL5io-R5lJ4f7e5hJlzKfhY7nBcaY715BlYTa4Lz3IvYLt50AIE_0ZMyEV6W_2r7HjSLnUcKlswkPqxBIpCFV7UtThk1p3G9OSwXecYplABitj2kNdyH3BUYVQyvDx62YnJjx8boLTrEH678h3ToG_XSCNP5dqX3TQqfCmLn_T44fdINrMCbbovQAQHMhVGZsZNPQtVgz3-6zECPlSfMPYQCIgWraHny08DVP_bFc3yTv- -d-U_LoSbwi6xsJ-pPlmNjqU2ISD9UEjnJFW9zqoB946_G8NLNyInIE_CpfUYC4znqwdSxP_9lrjPRc22lytmC1aV8TVSDVpk8cZq5BIbQL6Kzx6_uyN1O6yJpVvS5SnqOh7nFfeom5AMuktjE76_ol41-Hje2k-D7_PMokD-KExWF3H7DIGVci8YGZISz1KV2X4RQFGGk7oSb3R2aPdYuMHcTk3CyazRCJgfWrHfXIHD5ETfv8ucPxUjGTqlBBYh4RakbknGuo90ybbIscD1ArpyApWBkB7iyMVByxpYHY9yepXSD2NMOqhwMbgaC_Dl1oCGOSRO5NFGKgyVEd8pzZ-6ImFQr-gyua9XDm-4ub7DaHfKIbKJcGog9tjDnkpxVmeVQ9fnjEnkB5lQ5Ch4w0FCPtGl0g5Tj7we-VVr14GEoVm00]--></g></svg>