<?xml version="1.0" encoding="UTF-8" standalone="no"?>
<!DOCTYPE svg PUBLIC "-//W3C//DTD SVG 1.1//EN"
 "http://www.w3.org/Graphics/SVG/1.1/DTD/svg11.dtd">
<!-- Generated by graphviz version 9.0.0 (20230911.1827)
 -->
<!-- Title: G Pages: 1 -->
<svg width="613pt" height="126pt"
 viewBox="0.00 0.00 612.64 125.75" xmlns="http://www.w3.org/2000/svg" xmlns:xlink="http://www.w3.org/1999/xlink">
<g id="graph0" class="graph" transform="scale(1 1) rotate(0) translate(4 121.75)">
<title>G</title>
<!-- Location -->
<g id="node1" class="node">
<title>Location</title>
<ellipse fill="none" stroke="black" cx="31.21" cy="-99.75" rx="31.21" ry="18"/>
<text text-anchor="middle" x="31.21" y="-95.88" font-family="Helvetica,Arial,sans-serif" font-size="10.00">Location</text>
</g>
<!-- Customer -->
<g id="node2" class="node">
<title>Customer</title>
<ellipse fill="none" stroke="black" cx="115.21" cy="-99.75" rx="34.76" ry="18"/>
<text text-anchor="middle" x="115.21" y="-95.88" font-family="Helvetica,Arial,sans-serif" font-size="10.00">Customer</text>
</g>
<!-- Class -->
<g id="node3" class="node">
<title>Class</title>
<ellipse fill="none" stroke="black" cx="195.21" cy="-99.75" rx="27" ry="18"/>
<text text-anchor="middle" x="195.21" y="-95.88" font-family="Helvetica,Arial,sans-serif" font-size="10.00">Class</text>
</g>
<!-- Vehicle -->
<g id="node4" class="node">
<title>Vehicle</title>
<ellipse fill="none" stroke="black" cx="269.21" cy="-99.75" rx="28.55" ry="18"/>
<text text-anchor="middle" x="269.21" y="-95.88" font-family="Helvetica,Arial,sans-serif" font-size="10.00">Vehicle</text>
</g>
<!-- class -->
<g id="node6" class="node">
<title>class</title>
<ellipse fill="none" stroke="black" cx="262.21" cy="-18" rx="27" ry="18"/>
<text text-anchor="middle" x="262.21" y="-14.12" font-family="Helvetica,Arial,sans-serif" font-size="10.00">class</text>
</g>
<!-- Vehicle&#45;&gt;class -->
<g id="edge5" class="edge">
<title>Vehicle&#45;&gt;class</title>
<path fill="none" stroke="black" d="M251.61,-85.3C245.35,-79.45 239.03,-72.02 235.71,-63.75 232.71,-56.26 235.03,-48.55 239.33,-41.68"/>
<polygon fill="black" stroke="black" points="241.81,-44.18 245.17,-34.13 236.28,-39.9 241.81,-44.18"/>
<text text-anchor="middle" x="259.46" y="-55.2" font-family="Helvetica,Arial,sans-serif" font-size="9.00" fill="dimgrey">rentalClass</text>
<text text-anchor="middle" x="241.68" y="-48.77" font-family="Helvetica,Arial,sans-serif" font-size="9.00" fill="blue">1..1</text>
</g>
<!-- location -->
<g id="node8" class="node">
<title>location</title>
<ellipse fill="none" stroke="black" cx="390.21" cy="-18" rx="29.44" ry="18"/>
<text text-anchor="middle" x="390.21" y="-14.12" font-family="Helvetica,Arial,sans-serif" font-size="10.00">location</text>
</g>
<!-- Vehicle&#45;&gt;location -->
<g id="edge6" class="edge">
<title>Vehicle&#45;&gt;location</title>
<path fill="none" stroke="black" d="M279.25,-82.54C285.71,-73.18 294.83,-61.76 305.21,-54 319.44,-43.36 337.37,-35.36 353.08,-29.71"/>
<polygon fill="black" stroke="black" points="353.75,-33.18 362.1,-26.66 351.51,-26.55 353.75,-33.18"/>
<text text-anchor="middle" x="327.71" y="-55.2" font-family="Helvetica,Arial,sans-serif" font-size="9.00" fill="dimgrey">onProperty</text>
<text text-anchor="middle" x="349.08" y="-36.31" font-family="Helvetica,Arial,sans-serif" font-size="9.00" fill="blue">0..1</text>
</g>
<!-- Booking -->
<g id="node5" class="node">
<title>Booking</title>
<ellipse fill="none" stroke="black" cx="471.21" cy="-99.75" rx="30.32" ry="18"/>
<text text-anchor="middle" x="471.21" y="-95.88" font-family="Helvetica,Arial,sans-serif" font-size="10.00">Booking</text>
</g>
<!-- Booking&#45;&gt;class -->
<g id="edge1" class="edge">
<title>Booking&#45;&gt;class</title>
<path fill="none" stroke="black" d="M444.32,-90.76C423.45,-84.27 393.97,-74.46 368.96,-63.75 360.33,-60.05 358.75,-57.91 350.21,-54 332.72,-46 312.83,-38 296.4,-31.67"/>
<polygon fill="black" stroke="black" points="297.65,-28.4 287.06,-28.12 295.16,-34.95 297.65,-28.4"/>
<text text-anchor="middle" x="397.34" y="-55.2" font-family="Helvetica,Arial,sans-serif" font-size="9.00" fill="dimgrey">bookingClass</text>
<text text-anchor="middle" x="305.59" y="-22.45" font-family="Helvetica,Arial,sans-serif" font-size="9.00" fill="blue">1..1</text>
</g>
<!-- vehicle -->
<g id="node7" class="node">
<title>vehicle</title>
<ellipse fill="none" stroke="black" cx="492.21" cy="-18" rx="27.66" ry="18"/>
<text text-anchor="middle" x="492.21" y="-14.12" font-family="Helvetica,Arial,sans-serif" font-size="10.00">vehicle</text>
</g>
<!-- Booking&#45;&gt;vehicle -->
<g id="edge2" class="edge">
<title>Booking&#45;&gt;vehicle</title>
<path fill="none" stroke="black" d="M475.67,-81.84C478.32,-71.76 481.76,-58.7 484.81,-47.11"/>
<polygon fill="black" stroke="black" points="488.15,-48.19 487.31,-37.63 481.38,-46.41 488.15,-48.19"/>
<text text-anchor="middle" x="496.84" y="-55.2" font-family="Helvetica,Arial,sans-serif" font-size="9.00" fill="dimgrey">vehicle</text>
<text text-anchor="middle" x="491.25" y="-52.17" font-family="Helvetica,Arial,sans-serif" font-size="9.00" fill="blue">0..1</text>
</g>
<!-- Booking&#45;&gt;location -->
<g id="edge3" class="edge">
<title>Booking&#45;&gt;location</title>
<path fill="none" stroke="black" d="M457.53,-83.53C449.46,-74.72 438.96,-63.54 429.21,-54 424.74,-49.63 419.86,-45.08 415.11,-40.76"/>
<polygon fill="black" stroke="black" points="417.73,-38.41 407.94,-34.35 413.06,-43.63 417.73,-38.41"/>
<text text-anchor="middle" x="447.21" y="-55.2" font-family="Helvetica,Arial,sans-serif" font-size="9.00" fill="dimgrey">from</text>
<text text-anchor="middle" x="425.96" y="-35.46" font-family="Helvetica,Arial,sans-serif" font-size="9.00" fill="blue">0..1</text>
</g>
<!-- customer -->
<g id="node9" class="node">
<title>customer</title>
<ellipse fill="none" stroke="black" cx="571.21" cy="-18" rx="33.43" ry="18"/>
<text text-anchor="middle" x="571.21" y="-14.12" font-family="Helvetica,Arial,sans-serif" font-size="10.00">customer</text>
</g>
<!-- Booking&#45;&gt;customer -->
<g id="edge4" class="edge">
<title>Booking&#45;&gt;customer</title>
<path fill="none" stroke="black" d="M488.78,-84.79C496.83,-78.39 506.51,-70.69 515.21,-63.75 524.7,-56.19 535.08,-47.89 544.3,-40.52"/>
<polygon fill="black" stroke="black" points="546.25,-43.44 551.88,-34.47 541.88,-37.98 546.25,-43.44"/>
<text text-anchor="middle" x="543.96" y="-55.2" font-family="Helvetica,Arial,sans-serif" font-size="9.00" fill="dimgrey">customer</text>
<text text-anchor="middle" x="544.18" y="-47.77" font-family="Helvetica,Arial,sans-serif" font-size="9.00" fill="blue">1..1</text>
</g>
</g>
</svg>
