<?xml version="1.0" encoding="UTF-8" standalone="no"?>
<!DOCTYPE svg PUBLIC "-//W3C//DTD SVG 1.1//EN"
 "http://www.w3.org/Graphics/SVG/1.1/DTD/svg11.dtd">
<!-- Generated by graphviz version 9.0.0 (20230911.1827)
 -->
<!-- Title: G Pages: 1 -->
<svg width="321pt" height="126pt"
 viewBox="0.00 0.00 320.64 125.75" xmlns="http://www.w3.org/2000/svg" xmlns:xlink="http://www.w3.org/1999/xlink">
<g id="graph0" class="graph" transform="scale(1 1) rotate(0) translate(4 121.75)">
<title>G</title>
<!-- Location -->
<g id="node1" class="node">
<title>Location</title>
<ellipse fill="none" stroke="black" cx="31.21" cy="-99.75" rx="31.21" ry="18"/>
<text text-anchor="middle" x="31.21" y="-95.88" font-family="Helvetica,Arial,sans-serif" font-size="10.00">Location</text>
</g>
<!-- Customer -->
<g id="node2" class="node">
<title>Customer</title>
<ellipse fill="none" stroke="black" cx="115.21" cy="-99.75" rx="34.76" ry="18"/>
<text text-anchor="middle" x="115.21" y="-95.88" font-family="Helvetica,Arial,sans-serif" font-size="10.00">Customer</text>
</g>
<!-- Booking -->
<g id="node3" class="node">
<title>Booking</title>
<ellipse fill="none" stroke="black" cx="198.21" cy="-99.75" rx="30.32" ry="18"/>
<text text-anchor="middle" x="198.21" y="-95.88" font-family="Helvetica,Arial,sans-serif" font-size="10.00">Booking</text>
</g>
<!-- vehicle -->
<g id="node5" class="node">
<title>vehicle</title>
<ellipse fill="none" stroke="black" cx="123.21" cy="-18" rx="27.66" ry="18"/>
<text text-anchor="middle" x="123.21" y="-14.12" font-family="Helvetica,Arial,sans-serif" font-size="10.00">vehicle</text>
</g>
<!-- Booking&#45;&gt;vehicle -->
<g id="edge1" class="edge">
<title>Booking&#45;&gt;vehicle</title>
<path fill="none" stroke="black" d="M183.94,-83.79C178.05,-77.6 171.17,-70.34 164.96,-63.75 158.41,-56.79 151.3,-49.19 144.84,-42.26"/>
<polygon fill="black" stroke="black" points="147.5,-39.99 138.13,-35.06 142.38,-44.76 147.5,-39.99"/>
<text text-anchor="middle" x="179.84" y="-55.2" font-family="Helvetica,Arial,sans-serif" font-size="9.00" fill="dimgrey">vehicle</text>
<text text-anchor="middle" x="155.63" y="-37.77" font-family="Helvetica,Arial,sans-serif" font-size="9.00" fill="blue">0..1</text>
</g>
<!-- location -->
<g id="node6" class="node">
<title>location</title>
<ellipse fill="none" stroke="black" cx="198.21" cy="-18" rx="29.44" ry="18"/>
<text text-anchor="middle" x="198.21" y="-14.12" font-family="Helvetica,Arial,sans-serif" font-size="10.00">location</text>
</g>
<!-- Booking&#45;&gt;location -->
<g id="edge2" class="edge">
<title>Booking&#45;&gt;location</title>
<path fill="none" stroke="black" d="M198.21,-81.45C198.21,-71.52 198.21,-58.81 198.21,-47.45"/>
<polygon fill="black" stroke="black" points="201.71,-47.78 198.21,-37.78 194.71,-47.78 201.71,-47.78"/>
<text text-anchor="middle" x="207.21" y="-55.2" font-family="Helvetica,Arial,sans-serif" font-size="9.00" fill="dimgrey">from</text>
<text text-anchor="middle" x="206.66" y="-50.72" font-family="Helvetica,Arial,sans-serif" font-size="9.00" fill="blue">0..1</text>
</g>
<!-- customer -->
<g id="node7" class="node">
<title>customer</title>
<ellipse fill="none" stroke="black" cx="279.21" cy="-18" rx="33.43" ry="18"/>
<text text-anchor="middle" x="279.21" y="-14.12" font-family="Helvetica,Arial,sans-serif" font-size="10.00">customer</text>
</g>
<!-- Booking&#45;&gt;customer -->
<g id="edge3" class="edge">
<title>Booking&#45;&gt;customer</title>
<path fill="none" stroke="black" d="M213.45,-83.75C225.36,-72.02 242.14,-55.5 255.76,-42.09"/>
<polygon fill="black" stroke="black" points="258.02,-44.78 262.69,-35.27 253.11,-39.79 258.02,-44.78"/>
<text text-anchor="middle" x="261.96" y="-55.2" font-family="Helvetica,Arial,sans-serif" font-size="9.00" fill="dimgrey">customer</text>
<text text-anchor="middle" x="256.78" y="-49.27" font-family="Helvetica,Arial,sans-serif" font-size="9.00" fill="blue">0..1</text>
</g>
<!-- Vehicle -->
<g id="node4" class="node">
<title>Vehicle</title>
<ellipse fill="none" stroke="black" cx="275.21" cy="-99.75" rx="28.55" ry="18"/>
<text text-anchor="middle" x="275.21" y="-95.88" font-family="Helvetica,Arial,sans-serif" font-size="10.00">Vehicle</text>
</g>
</g>
</svg>
