<?xml version="1.0" encoding="UTF-8" standalone="no"?>
<!DOCTYPE svg PUBLIC "-//W3C//DTD SVG 1.1//EN"
 "http://www.w3.org/Graphics/SVG/1.1/DTD/svg11.dtd">
<!-- Generated by graphviz version 9.0.0 (20230911.1827)
 -->
<!-- Title: G Pages: 1 -->
<svg width="318pt" height="126pt"
 viewBox="0.00 0.00 317.64 125.75" xmlns="http://www.w3.org/2000/svg" xmlns:xlink="http://www.w3.org/1999/xlink">
<g id="graph0" class="graph" transform="scale(1 1) rotate(0) translate(4 121.75)">
<title>G</title>
<!-- Location -->
<g id="node1" class="node">
<title>Location</title>
<ellipse fill="none" stroke="black" cx="31.21" cy="-99.75" rx="31.21" ry="18"/>
<text text-anchor="middle" x="31.21" y="-95.88" font-family="Helvetica,Arial,sans-serif" font-size="10.00">Location</text>
</g>
<!-- Customer -->
<g id="node2" class="node">
<title>Customer</title>
<ellipse fill="none" stroke="black" cx="115.21" cy="-99.75" rx="34.76" ry="18"/>
<text text-anchor="middle" x="115.21" y="-95.88" font-family="Helvetica,Arial,sans-serif" font-size="10.00">Customer</text>
</g>
<!-- Booking -->
<g id="node3" class="node">
<title>Booking</title>
<ellipse fill="none" stroke="black" cx="198.21" cy="-99.75" rx="30.32" ry="18"/>
<text text-anchor="middle" x="198.21" y="-95.88" font-family="Helvetica,Arial,sans-serif" font-size="10.00">Booking</text>
</g>
<!-- vehicle -->
<g id="node5" class="node">
<title>vehicle</title>
<ellipse fill="none" stroke="black" cx="120.21" cy="-18" rx="27.66" ry="18"/>
<text text-anchor="middle" x="120.21" y="-14.12" font-family="Helvetica,Arial,sans-serif" font-size="10.00">vehicle</text>
</g>
<!-- Booking&#45;&gt;vehicle -->
<g id="edge1" class="edge">
<title>Booking&#45;&gt;vehicle</title>
<path fill="none" stroke="black" d="M174.21,-88.15C162.99,-82.25 150.11,-74.01 140.96,-63.75 136.43,-58.67 132.72,-52.44 129.75,-46.25"/>
<polygon fill="black" stroke="black" points="133.16,-45.33 126.03,-37.49 126.72,-48.07 133.16,-45.33"/>
<text text-anchor="middle" x="155.84" y="-55.2" font-family="Helvetica,Arial,sans-serif" font-size="9.00" fill="dimgrey">vehicle</text>
<text text-anchor="middle" x="140.3" y="-45.81" font-family="Helvetica,Arial,sans-serif" font-size="9.00" fill="blue">0..1</text>
</g>
<!-- location -->
<g id="node6" class="node">
<title>location</title>
<ellipse fill="none" stroke="black" cx="195.21" cy="-18" rx="29.44" ry="18"/>
<text text-anchor="middle" x="195.21" y="-14.12" font-family="Helvetica,Arial,sans-serif" font-size="10.00">location</text>
</g>
<!-- Booking&#45;&gt;location -->
<g id="edge2" class="edge">
<title>Booking&#45;&gt;location</title>
<path fill="none" stroke="black" d="M184.77,-83.44C180.53,-77.67 176.39,-70.79 174.21,-63.75 172.19,-57.24 173.45,-50.46 176.14,-44.2"/>
<polygon fill="black" stroke="black" points="179.11,-46.07 180.97,-35.64 173.01,-42.63 179.11,-46.07"/>
<text text-anchor="middle" x="187.71" y="-55.2" font-family="Helvetica,Arial,sans-serif" font-size="9.00" fill="dimgrey">pickup</text>
<text text-anchor="middle" x="180.19" y="-50.58" font-family="Helvetica,Arial,sans-serif" font-size="9.00" fill="blue">1..1</text>
</g>
<!-- Booking&#45;&gt;location -->
<g id="edge3" class="edge">
<title>Booking&#45;&gt;location</title>
<path fill="none" stroke="black" d="M200.61,-81.31C201.43,-73.03 201.98,-63 201.21,-54 201.02,-51.79 200.77,-49.51 200.47,-47.22"/>
<polygon fill="black" stroke="black" points="203.96,-46.85 198.96,-37.51 197.04,-47.93 203.96,-46.85"/>
<text text-anchor="middle" x="215.46" y="-55.2" font-family="Helvetica,Arial,sans-serif" font-size="9.00" fill="dimgrey">dropoff</text>
<text text-anchor="middle" x="209.87" y="-48.95" font-family="Helvetica,Arial,sans-serif" font-size="9.00" fill="blue">1..1</text>
</g>
<!-- customer -->
<g id="node7" class="node">
<title>customer</title>
<ellipse fill="none" stroke="black" cx="276.21" cy="-18" rx="33.43" ry="18"/>
<text text-anchor="middle" x="276.21" y="-14.12" font-family="Helvetica,Arial,sans-serif" font-size="10.00">customer</text>
</g>
<!-- Booking&#45;&gt;customer -->
<g id="edge4" class="edge">
<title>Booking&#45;&gt;customer</title>
<path fill="none" stroke="black" d="M213.78,-83.92C220.18,-77.74 227.61,-70.47 234.21,-63.75 240.83,-57.02 247.89,-49.58 254.31,-42.74"/>
<polygon fill="black" stroke="black" points="256.71,-45.3 260.97,-35.6 251.59,-40.53 256.71,-45.3"/>
<text text-anchor="middle" x="261.96" y="-55.2" font-family="Helvetica,Arial,sans-serif" font-size="9.00" fill="dimgrey">customer</text>
<text text-anchor="middle" x="255.82" y="-49.84" font-family="Helvetica,Arial,sans-serif" font-size="9.00" fill="blue">1..1</text>
</g>
<!-- Vehicle -->
<g id="node4" class="node">
<title>Vehicle</title>
<ellipse fill="none" stroke="black" cx="275.21" cy="-99.75" rx="28.55" ry="18"/>
<text text-anchor="middle" x="275.21" y="-95.88" font-family="Helvetica,Arial,sans-serif" font-size="10.00">Vehicle</text>
</g>
</g>
</svg>
