<?xml version="1.0" encoding="UTF-8" standalone="no"?>
<!DOCTYPE svg PUBLIC "-//W3C//DTD SVG 1.1//EN"
 "http://www.w3.org/Graphics/SVG/1.1/DTD/svg11.dtd">
<!-- Generated by graphviz version 9.0.0 (20230911.1827)
 -->
<!-- Title: G Pages: 1 -->
<svg width="312pt" height="126pt"
 viewBox="0.00 0.00 311.98 125.75" xmlns="http://www.w3.org/2000/svg" xmlns:xlink="http://www.w3.org/1999/xlink">
<g id="graph0" class="graph" transform="scale(1 1) rotate(0) translate(4 121.75)">
<title>G</title>
<!-- Vehicle -->
<g id="node1" class="node">
<title>Vehicle</title>
<ellipse fill="none" stroke="black" cx="28.55" cy="-99.75" rx="28.55" ry="18"/>
<text text-anchor="middle" x="28.55" y="-95.88" font-family="Helvetica,Arial,sans-serif" font-size="10.00">Vehicle</text>
</g>
<!-- Customer -->
<g id="node2" class="node">
<title>Customer</title>
<ellipse fill="none" stroke="black" cx="109.55" cy="-99.75" rx="34.76" ry="18"/>
<text text-anchor="middle" x="109.55" y="-95.88" font-family="Helvetica,Arial,sans-serif" font-size="10.00">Customer</text>
</g>
<!-- Booking -->
<g id="node3" class="node">
<title>Booking</title>
<ellipse fill="none" stroke="black" cx="192.55" cy="-99.75" rx="30.32" ry="18"/>
<text text-anchor="middle" x="192.55" y="-95.88" font-family="Helvetica,Arial,sans-serif" font-size="10.00">Booking</text>
</g>
<!-- vehicle -->
<g id="node5" class="node">
<title>vehicle</title>
<ellipse fill="none" stroke="black" cx="114.55" cy="-18" rx="27.66" ry="18"/>
<text text-anchor="middle" x="114.55" y="-14.12" font-family="Helvetica,Arial,sans-serif" font-size="10.00">vehicle</text>
</g>
<!-- Booking&#45;&gt;vehicle -->
<g id="edge1" class="edge">
<title>Booking&#45;&gt;vehicle</title>
<path fill="none" stroke="black" d="M168.55,-88.15C157.33,-82.25 144.45,-74.01 135.3,-63.75 130.77,-58.67 127.06,-52.44 124.09,-46.25"/>
<polygon fill="black" stroke="black" points="127.5,-45.33 120.37,-37.49 121.05,-48.07 127.5,-45.33"/>
<text text-anchor="middle" x="150.17" y="-55.2" font-family="Helvetica,Arial,sans-serif" font-size="9.00" fill="dimgrey">vehicle</text>
<text text-anchor="middle" x="134.64" y="-45.81" font-family="Helvetica,Arial,sans-serif" font-size="9.00" fill="blue">0..1</text>
</g>
<!-- location -->
<g id="node6" class="node">
<title>location</title>
<ellipse fill="none" stroke="black" cx="189.55" cy="-18" rx="29.44" ry="18"/>
<text text-anchor="middle" x="189.55" y="-14.12" font-family="Helvetica,Arial,sans-serif" font-size="10.00">location</text>
</g>
<!-- Booking&#45;&gt;location -->
<g id="edge2" class="edge">
<title>Booking&#45;&gt;location</title>
<path fill="none" stroke="black" d="M179.1,-83.44C174.87,-77.67 170.73,-70.79 168.55,-63.75 166.53,-57.24 167.79,-50.46 170.48,-44.2"/>
<polygon fill="black" stroke="black" points="173.45,-46.07 175.3,-35.64 167.35,-42.63 173.45,-46.07"/>
<text text-anchor="middle" x="182.05" y="-55.2" font-family="Helvetica,Arial,sans-serif" font-size="9.00" fill="dimgrey">pickup</text>
<text text-anchor="middle" x="174.52" y="-50.58" font-family="Helvetica,Arial,sans-serif" font-size="9.00" fill="blue">1..1</text>
</g>
<!-- Booking&#45;&gt;location -->
<g id="edge3" class="edge">
<title>Booking&#45;&gt;location</title>
<path fill="none" stroke="black" d="M194.95,-81.31C195.77,-73.03 196.32,-63 195.55,-54 195.36,-51.79 195.11,-49.51 194.81,-47.22"/>
<polygon fill="black" stroke="black" points="198.3,-46.85 193.3,-37.51 191.38,-47.93 198.3,-46.85"/>
<text text-anchor="middle" x="209.8" y="-55.2" font-family="Helvetica,Arial,sans-serif" font-size="9.00" fill="dimgrey">dropoff</text>
<text text-anchor="middle" x="204.21" y="-48.95" font-family="Helvetica,Arial,sans-serif" font-size="9.00" fill="blue">1..1</text>
</g>
<!-- customer -->
<g id="node7" class="node">
<title>customer</title>
<ellipse fill="none" stroke="black" cx="270.55" cy="-18" rx="33.43" ry="18"/>
<text text-anchor="middle" x="270.55" y="-14.12" font-family="Helvetica,Arial,sans-serif" font-size="10.00">customer</text>
</g>
<!-- Booking&#45;&gt;customer -->
<g id="edge4" class="edge">
<title>Booking&#45;&gt;customer</title>
<path fill="none" stroke="black" d="M208.12,-83.92C214.51,-77.74 221.95,-70.47 228.55,-63.75 235.17,-57.02 242.23,-49.58 248.65,-42.74"/>
<polygon fill="black" stroke="black" points="251.05,-45.3 255.3,-35.6 245.93,-40.53 251.05,-45.3"/>
<text text-anchor="middle" x="256.3" y="-55.2" font-family="Helvetica,Arial,sans-serif" font-size="9.00" fill="dimgrey">customer</text>
<text text-anchor="middle" x="250.16" y="-49.84" font-family="Helvetica,Arial,sans-serif" font-size="9.00" fill="blue">1..1</text>
</g>
<!-- Location -->
<g id="node4" class="node">
<title>Location</title>
<ellipse fill="none" stroke="black" cx="272.55" cy="-99.75" rx="31.21" ry="18"/>
<text text-anchor="middle" x="272.55" y="-95.88" font-family="Helvetica,Arial,sans-serif" font-size="10.00">Location</text>
</g>
</g>
</svg>
