<?xml version="1.0" encoding="UTF-8" standalone="no"?>
<!DOCTYPE svg PUBLIC "-//W3C//DTD SVG 1.1//EN"
 "http://www.w3.org/Graphics/SVG/1.1/DTD/svg11.dtd">
<!-- Generated by graphviz version 9.0.0 (20230911.1827)
 -->
<!-- Title: G Pages: 1 -->
<svg width="1106pt" height="432pt"
 viewBox="0.00 0.00 1106.00 432.00" xmlns="http://www.w3.org/2000/svg" xmlns:xlink="http://www.w3.org/1999/xlink">
<g id="graph0" class="graph" transform="scale(1 1) rotate(0) translate(36 396)">
<title>G</title>
<!-- cids__vehicleidentificationnumber -->
<g id="node1" class="node">
<title>cids__vehicleidentificationnumber</title>
<ellipse fill="none" stroke="dimgrey" stroke-dasharray="5,2" cx="94.23" cy="-126" rx="94.23" ry="18"/>
<text text-anchor="middle" x="94.23" y="-122.12" font-family="Helvetica,Arial,sans-serif" font-size="10.00" fill="dimgrey">cids:VehicleIdentificationNumber</text>
</g>
<!-- cids__uuid -->
<g id="node2" class="node">
<title>cids__uuid</title>
<ellipse fill="none" stroke="dimgrey" stroke-dasharray="5,2" cx="866.23" cy="-126" rx="33.87" ry="18"/>
<text text-anchor="middle" x="866.23" y="-122.12" font-family="Helvetica,Arial,sans-serif" font-size="10.00" fill="dimgrey">cids:Uuid</text>
</g>
<!-- xsd__date -->
<g id="node3" class="node">
<title>xsd__date</title>
<ellipse fill="none" stroke="dimgrey" stroke-dasharray="5,2" cx="499.23" cy="-18" rx="31.66" ry="18"/>
<text text-anchor="middle" x="499.23" y="-14.12" font-family="Helvetica,Arial,sans-serif" font-size="10.00" fill="dimgrey">xsd:date</text>
</g>
<!-- xsd__string -->
<g id="node4" class="node">
<title>xsd__string</title>
<ellipse fill="none" stroke="dimgrey" stroke-dasharray="5,2" cx="702.23" cy="-18" rx="34.76" ry="18"/>
<text text-anchor="middle" x="702.23" y="-14.12" font-family="Helvetica,Arial,sans-serif" font-size="10.00" fill="dimgrey">xsd:string</text>
</g>
<!-- address -->
<g id="node5" class="node">
<title>address</title>
<ellipse fill="none" stroke="dimgrey" stroke-dasharray="5,2" cx="1003.23" cy="-126" rx="30.77" ry="18"/>
<text text-anchor="middle" x="1003.23" y="-122.12" font-family="Helvetica,Arial,sans-serif" font-size="10.00" fill="dimgrey">Address</text>
</g>
<!-- booking -->
<g id="node6" class="node">
<title>booking</title>
<ellipse fill="none" stroke="black" stroke-width="1.5" cx="600.23" cy="-342" rx="30.32" ry="18"/>
<text text-anchor="middle" x="600.23" y="-338.12" font-family="Helvetica,Arial,sans-serif" font-size="10.00">Booking</text>
</g>
<!-- booking&#45;&gt;xsd__date -->
<g id="edge5" class="edge">
<title>booking&#45;&gt;xsd__date</title>
<g id="a_edge5"><a xlink:title="pickupDate">
<path fill="none" stroke="black" d="M594.16,-312.65C594.16,-312.65 594.16,-27 594.16,-27 594.16,-27 538.71,-27 538.71,-27"/>
<polygon fill="black" stroke="black" points="590.66,-312.65 594.16,-322.65 597.66,-312.65 590.66,-312.65"/>
<polygon fill="black" stroke="black" points="538.71,-23.5 528.71,-27 538.71,-30.5 538.71,-23.5"/>
</a>
</g>
</g>
<!-- booking&#45;&gt;xsd__date -->
<g id="edge7" class="edge">
<title>booking&#45;&gt;xsd__date</title>
<g id="a_edge7"><a xlink:title="dropoffDate">
<path fill="none" stroke="black" d="M606.29,-312.61C606.29,-312.61 606.29,-18 606.29,-18 606.29,-18 542.86,-18 542.86,-18"/>
<polygon fill="black" stroke="black" points="602.79,-312.61 606.29,-322.61 609.79,-312.61 602.79,-312.61"/>
<polygon fill="black" stroke="black" points="542.86,-14.5 532.86,-18 542.86,-21.5 542.86,-14.5"/>
</a>
</g>
</g>
<!-- unknown -->
<g id="node7" class="node">
<title>unknown</title>
<polygon fill="none" stroke="grey" points="1000.85,-252 943.6,-252 943.6,-216 1000.85,-216 1000.85,-252"/>
<text text-anchor="middle" x="972.23" y="-230.12" font-family="Helvetica,Arial,sans-serif" font-size="10.00" fill="grey">Unknown</text>
</g>
<!-- booking&#45;&gt;unknown -->
<g id="edge1" class="edge">
<title>booking&#45;&gt;unknown</title>
<g id="a_edge1"><a xlink:title="bookingCode">
<path fill="none" stroke="black" d="M636.98,-351C636.98,-351 972.23,-351 972.23,-351 972.23,-351 972.23,-262.28 972.23,-262.28"/>
<polygon fill="black" stroke="black" points="627.98,-356 627.98,-346 629.98,-346 629.98,-356 627.98,-356"/>
<polyline fill="none" stroke="black" points="626.98,-351 631.98,-351"/>
<polygon fill="black" stroke="black" points="632.98,-356 632.98,-346 634.98,-346 634.98,-356 632.98,-356"/>
<polyline fill="none" stroke="black" points="631.98,-351 636.98,-351"/>
<polygon fill="black" stroke="black" points="967.23,-253.28 977.23,-253.28 977.23,-255.28 967.23,-255.28 967.23,-253.28"/>
<polyline fill="none" stroke="black" points="972.23,-252.28 972.23,-257.28"/>
<polygon fill="black" stroke="black" points="967.23,-258.28 977.23,-258.28 977.23,-260.28 967.23,-260.28 967.23,-258.28"/>
<polyline fill="none" stroke="black" points="972.23,-257.28 972.23,-262.28"/>
</a>
</g>
</g>
<!-- rentalclass -->
<g id="node8" class="node">
<title>rentalclass</title>
<ellipse fill="none" stroke="dimgrey" stroke-dasharray="5,2" cx="307.23" cy="-126" rx="46.74" ry="18"/>
<text text-anchor="middle" x="307.23" y="-122.12" font-family="Helvetica,Arial,sans-serif" font-size="10.00" fill="dimgrey">≣ RentalClass</text>
</g>
<!-- booking&#45;&gt;rentalclass -->
<g id="edge2" class="edge">
<title>booking&#45;&gt;rentalclass</title>
<g id="a_edge2"><a xlink:title="bookingClass">
<path fill="none" stroke="black" d="M582.03,-315.64C582.03,-315.64 582.03,-126 582.03,-126 582.03,-126 365.98,-126 365.98,-126"/>
<polygon fill="black" stroke="black" points="578.53,-315.64 582.03,-325.64 585.53,-315.64 578.53,-315.64"/>
<polygon fill="black" stroke="black" points="365.98,-122.5 355.98,-126 365.98,-129.5 365.98,-122.5"/>
</a>
</g>
</g>
<!-- vehicle -->
<g id="node9" class="node">
<title>vehicle</title>
<ellipse fill="none" stroke="black" stroke-width="1.5" cx="179.23" cy="-234" rx="28.55" ry="18"/>
<text text-anchor="middle" x="179.23" y="-230.12" font-family="Helvetica,Arial,sans-serif" font-size="10.00">Vehicle</text>
</g>
<!-- booking&#45;&gt;vehicle -->
<g id="edge3" class="edge">
<title>booking&#45;&gt;vehicle</title>
<g id="a_edge3"><a xlink:title="vehicle">
<path fill="none" stroke="black" d="M558.1,-342C558.1,-342 179.23,-342 179.23,-342 179.23,-342 179.23,-263.83 179.23,-263.83"/>
<polygon fill="black" stroke="black" points="558.1,-345.5 568.1,-342 558.1,-338.5 558.1,-345.5"/>
<polygon fill="black" stroke="black" points="182.73,-263.83 179.23,-253.83 175.73,-263.83 182.73,-263.83"/>
</a>
</g>
</g>
<!-- location -->
<g id="node10" class="node">
<title>location</title>
<ellipse fill="none" stroke="black" stroke-width="1.5" cx="840.23" cy="-234" rx="31.21" ry="18"/>
<text text-anchor="middle" x="840.23" y="-230.12" font-family="Helvetica,Arial,sans-serif" font-size="10.00">Location</text>
</g>
<!-- booking&#45;&gt;location -->
<g id="edge4" class="edge">
<title>booking&#45;&gt;location</title>
<g id="a_edge4"><a xlink:title="pickup">
<path fill="none" stroke="black" d="M638.53,-333C638.53,-333 829.82,-333 829.82,-333 829.82,-333 829.82,-262.76 829.82,-262.76"/>
<polygon fill="black" stroke="black" points="638.53,-329.5 628.53,-333 638.53,-336.5 638.53,-329.5"/>
<polygon fill="black" stroke="black" points="833.32,-262.76 829.82,-252.76 826.32,-262.76 833.32,-262.76"/>
</a>
</g>
</g>
<!-- booking&#45;&gt;location -->
<g id="edge6" class="edge">
<title>booking&#45;&gt;location</title>
<g id="a_edge6"><a xlink:title="dropoff">
<path fill="none" stroke="black" d="M642.45,-342C642.45,-342 850.63,-342 850.63,-342 850.63,-342 850.63,-262.87 850.63,-262.87"/>
<polygon fill="black" stroke="black" points="642.45,-338.5 632.45,-342 642.45,-345.5 642.45,-338.5"/>
<polygon fill="black" stroke="black" points="854.13,-262.87 850.63,-252.87 847.13,-262.87 854.13,-262.87"/>
</a>
</g>
</g>
<!-- customer -->
<g id="node11" class="node">
<title>customer</title>
<ellipse fill="none" stroke="black" stroke-width="1.5" cx="702.23" cy="-234" rx="34.76" ry="18"/>
<text text-anchor="middle" x="702.23" y="-230.12" font-family="Helvetica,Arial,sans-serif" font-size="10.00">Customer</text>
</g>
<!-- booking&#45;&gt;customer -->
<g id="edge8" class="edge">
<title>booking&#45;&gt;customer</title>
<g id="a_edge8"><a xlink:title="customer">
<path fill="none" stroke="black" d="M618.42,-315.92C618.42,-315.92 618.42,-234 618.42,-234 618.42,-234 655.66,-234 655.66,-234"/>
<polygon fill="black" stroke="black" points="614.92,-315.92 618.42,-325.92 621.92,-315.92 614.92,-315.92"/>
<polygon fill="black" stroke="black" points="655.66,-237.5 665.66,-234 655.66,-230.5 655.66,-237.5"/>
</a>
</g>
</g>
<!-- vehicle&#45;&gt;cids__vehicleidentificationnumber -->
<g id="edge17" class="edge">
<title>vehicle&#45;&gt;cids__vehicleidentificationnumber</title>
<g id="a_edge17"><a xlink:title="vin">
<path fill="none" stroke="black" d="M169.57,-206.65C169.57,-206.65 169.57,-147.04 169.57,-147.04"/>
<polygon fill="black" stroke="black" points="174.57,-215.65 164.57,-215.65 164.57,-213.65 174.57,-213.65 174.57,-215.65"/>
<polyline fill="none" stroke="black" points="169.57,-216.65 169.57,-211.65"/>
<polygon fill="black" stroke="black" points="174.57,-210.65 164.57,-210.65 164.57,-208.65 174.57,-208.65 174.57,-210.65"/>
<polyline fill="none" stroke="black" points="169.57,-211.65 169.57,-206.65"/>
<polygon fill="black" stroke="black" points="164.57,-138.04 174.57,-138.04 174.57,-140.04 164.57,-140.04 164.57,-138.04"/>
<polyline fill="none" stroke="black" points="169.57,-137.04 169.57,-142.04"/>
<polygon fill="black" stroke="black" points="164.57,-143.04 174.57,-143.04 174.57,-145.04 164.57,-145.04 164.57,-143.04"/>
<polyline fill="none" stroke="black" points="169.57,-142.04 169.57,-147.04"/>
</a>
</g>
</g>
<!-- vehicle&#45;&gt;rentalclass -->
<g id="edge18" class="edge">
<title>vehicle&#45;&gt;rentalclass</title>
<g id="a_edge18"><a xlink:title="rentalClass">
<path fill="none" stroke="black" d="M198.12,-208.81C198.12,-208.81 198.12,-126 198.12,-126 198.12,-126 248.49,-126 248.49,-126"/>
<polygon fill="black" stroke="black" points="194.62,-208.81 198.12,-218.81 201.62,-208.81 194.62,-208.81"/>
<polygon fill="black" stroke="black" points="248.49,-129.5 258.49,-126 248.49,-122.5 248.49,-129.5"/>
</a>
</g>
</g>
<!-- location&#45;&gt;cids__uuid -->
<g id="edge15" class="edge">
<title>location&#45;&gt;cids__uuid</title>
<g id="a_edge15"><a xlink:title="id">
<path fill="none" stroke="black" d="M845.38,-206.17C845.38,-206.17 845.38,-150.4 845.38,-150.4"/>
<polygon fill="black" stroke="black" points="850.38,-215.17 840.38,-215.17 840.38,-213.17 850.38,-213.17 850.38,-215.17"/>
<polyline fill="none" stroke="black" points="845.38,-216.17 845.38,-211.17"/>
<polygon fill="black" stroke="black" points="850.38,-210.17 840.38,-210.17 840.38,-208.17 850.38,-208.17 850.38,-210.17"/>
<polyline fill="none" stroke="black" points="845.38,-211.17 845.38,-206.17"/>
<polygon fill="black" stroke="black" points="840.38,-141.4 850.38,-141.4 850.38,-143.4 840.38,-143.4 840.38,-141.4"/>
<polyline fill="none" stroke="black" points="845.38,-140.4 845.38,-145.4"/>
<polygon fill="black" stroke="black" points="840.38,-146.4 850.38,-146.4 850.38,-148.4 840.38,-148.4 840.38,-146.4"/>
<polyline fill="none" stroke="black" points="845.38,-145.4 845.38,-150.4"/>
</a>
</g>
</g>
<!-- location&#45;&gt;address -->
<g id="edge16" class="edge">
<title>location&#45;&gt;address</title>
<g id="a_edge16"><a xlink:title="address">
<path fill="none" stroke="black" d="M858.41,-207.8C858.41,-207.8 858.41,-192 858.41,-192 858.41,-192 991.39,-192 991.39,-192 991.39,-192 991.39,-154.51 991.39,-154.51"/>
<polygon fill="black" stroke="black" points="854.91,-207.8 858.41,-217.8 861.91,-207.8 854.91,-207.8"/>
<polygon fill="black" stroke="black" points="994.89,-154.51 991.39,-144.51 987.89,-154.51 994.89,-154.51"/>
</a>
</g>
</g>
<!-- customer&#45;&gt;cids__uuid -->
<g id="edge9" class="edge">
<title>customer&#45;&gt;cids__uuid</title>
<g id="a_edge9"><a xlink:title="id">
<path fill="none" stroke="black" d="M747.23,-234C747.23,-234 784.76,-234 784.76,-234 784.76,-234 784.76,-126 784.76,-126 784.76,-126 822.15,-126 822.15,-126"/>
<polygon fill="black" stroke="black" points="738.23,-239 738.23,-229 740.23,-229 740.23,-239 738.23,-239"/>
<polyline fill="none" stroke="black" points="737.23,-234 742.23,-234"/>
<polygon fill="black" stroke="black" points="743.23,-239 743.23,-229 745.23,-229 745.23,-239 743.23,-239"/>
<polyline fill="none" stroke="black" points="742.23,-234 747.23,-234"/>
<polygon fill="black" stroke="black" points="831.15,-121 831.15,-131 829.15,-131 829.15,-121 831.15,-121"/>
<polyline fill="none" stroke="black" points="832.15,-126 827.15,-126"/>
<polygon fill="black" stroke="black" points="826.15,-121 826.15,-131 824.15,-131 824.15,-121 826.15,-121"/>
<polyline fill="none" stroke="black" points="827.15,-126 822.15,-126"/>
</a>
</g>
</g>
<!-- customer&#45;&gt;address -->
<g id="edge10" class="edge">
<title>customer&#45;&gt;address</title>
<g id="a_edge10"><a xlink:title="contactAddress">
<path fill="none" stroke="black" d="M713.82,-205.15C713.82,-205.15 713.82,-168 713.82,-168 713.82,-168 981.92,-168 981.92,-168 981.92,-168 981.92,-150.8 981.92,-150.8"/>
<polygon fill="black" stroke="black" points="710.32,-205.15 713.82,-215.15 717.32,-205.15 710.32,-205.15"/>
<polygon fill="black" stroke="black" points="985.42,-150.8 981.92,-140.8 978.42,-150.8 985.42,-150.8"/>
</a>
</g>
</g>
<!-- licenseinformation -->
<g id="node12" class="node">
<title>licenseinformation</title>
<ellipse fill="none" stroke="dimgrey" stroke-dasharray="5,2" cx="702.23" cy="-126" rx="58.28" ry="18"/>
<text text-anchor="middle" x="702.23" y="-122.12" font-family="Helvetica,Arial,sans-serif" font-size="10.00" fill="dimgrey">LicenseInformation</text>
</g>
<!-- customer&#45;&gt;licenseinformation -->
<g id="edge11" class="edge">
<title>customer&#45;&gt;licenseinformation</title>
<g id="a_edge11"><a xlink:title="driverLicense">
<path fill="none" stroke="black" d="M690.64,-205.13C690.64,-205.13 690.64,-155.54 690.64,-155.54"/>
<polygon fill="black" stroke="black" points="687.14,-205.13 690.64,-215.13 694.14,-205.13 687.14,-205.13"/>
<polygon fill="black" stroke="black" points="694.14,-155.54 690.64,-145.54 687.14,-155.54 694.14,-155.54"/>
</a>
</g>
</g>
<!-- licenseinformation&#45;&gt;xsd__date -->
<g id="edge14" class="edge">
<title>licenseinformation&#45;&gt;xsd__date</title>
<g id="a_edge14"><a xlink:title="expiration">
<path fill="none" stroke="black" d="M655.71,-103.27C655.71,-103.27 655.71,-9 655.71,-9 655.71,-9 538.72,-9 538.72,-9"/>
<polygon fill="black" stroke="black" points="652.21,-103.27 655.71,-113.27 659.21,-103.27 652.21,-103.27"/>
<polygon fill="black" stroke="black" points="538.72,-5.5 528.72,-9 538.72,-12.5 538.72,-5.5"/>
</a>
</g>
</g>
<!-- licenseinformation&#45;&gt;xsd__string -->
<g id="edge12" class="edge">
<title>licenseinformation&#45;&gt;xsd__string</title>
<g id="a_edge12"><a xlink:title="number">
<path fill="none" stroke="black" d="M713.82,-96.65C713.82,-96.65 713.82,-46.66 713.82,-46.66"/>
<polygon fill="black" stroke="black" points="710.32,-96.65 713.82,-106.65 717.32,-96.65 710.32,-96.65"/>
<polygon fill="black" stroke="black" points="717.32,-46.66 713.82,-36.66 710.32,-46.66 717.32,-46.66"/>
</a>
</g>
</g>
<!-- licenseinformation&#45;&gt;xsd__string -->
<g id="edge13" class="edge">
<title>licenseinformation&#45;&gt;xsd__string</title>
<g id="a_edge13"><a xlink:title="state">
<path fill="none" stroke="black" d="M690.64,-96.65C690.64,-96.65 690.64,-46.66 690.64,-46.66"/>
<polygon fill="black" stroke="black" points="687.14,-96.65 690.64,-106.65 694.14,-96.65 687.14,-96.65"/>
<polygon fill="black" stroke="black" points="694.14,-46.66 690.64,-36.66 687.14,-46.66 694.14,-46.66"/>
</a>
</g>
</g>
</g>
</svg>
