<?xml version="1.0" encoding="UTF-8" standalone="no"?>
<!DOCTYPE svg PUBLIC "-//W3C//DTD SVG 1.1//EN"
 "http://www.w3.org/Graphics/SVG/1.1/DTD/svg11.dtd">
<!-- Generated by graphviz version 9.0.0 (20230911.1827)
 -->
<!-- Title: G Pages: 1 -->
<svg width="535pt" height="126pt"
 viewBox="0.00 0.00 535.42 125.75" xmlns="http://www.w3.org/2000/svg" xmlns:xlink="http://www.w3.org/1999/xlink">
<g id="graph0" class="graph" transform="scale(1 1) rotate(0) translate(4 121.75)">
<title>G</title>
<!-- Customer -->
<g id="node1" class="node">
<title>Customer</title>
<ellipse fill="none" stroke="black" cx="34.76" cy="-99.75" rx="34.76" ry="18"/>
<text text-anchor="middle" x="34.76" y="-95.88" font-family="Helvetica,Arial,sans-serif" font-size="10.00">Customer</text>
</g>
<!-- Location -->
<g id="node2" class="node">
<title>Location</title>
<ellipse fill="none" stroke="black" cx="118.76" cy="-99.75" rx="31.21" ry="18"/>
<text text-anchor="middle" x="118.76" y="-95.88" font-family="Helvetica,Arial,sans-serif" font-size="10.00">Location</text>
</g>
<!-- Booking -->
<g id="node3" class="node">
<title>Booking</title>
<ellipse fill="none" stroke="black" cx="380.76" cy="-99.75" rx="30.32" ry="18"/>
<text text-anchor="middle" x="380.76" y="-95.88" font-family="Helvetica,Arial,sans-serif" font-size="10.00">Booking</text>
</g>
<!-- class -->
<g id="node6" class="node">
<title>class</title>
<ellipse fill="none" stroke="black" cx="289.76" cy="-18" rx="27" ry="18"/>
<text text-anchor="middle" x="289.76" y="-14.12" font-family="Helvetica,Arial,sans-serif" font-size="10.00">class</text>
</g>
<!-- Booking&#45;&gt;class -->
<g id="edge1" class="edge">
<title>Booking&#45;&gt;class</title>
<path fill="none" stroke="black" d="M363.33,-84.64C355.64,-78.34 346.55,-70.76 338.51,-63.75 330.21,-56.51 321.28,-48.41 313.37,-41.12"/>
<polygon fill="black" stroke="black" points="315.77,-38.57 306.06,-34.34 311.01,-43.71 315.77,-38.57"/>
<text text-anchor="middle" x="366.89" y="-55.2" font-family="Helvetica,Arial,sans-serif" font-size="9.00" fill="dimgrey">bookingClass</text>
<text text-anchor="middle" x="323.99" y="-35.76" font-family="Helvetica,Arial,sans-serif" font-size="9.00" fill="blue">1..1</text>
</g>
<!-- vehicle -->
<g id="node7" class="node">
<title>vehicle</title>
<ellipse fill="none" stroke="black" cx="499.76" cy="-18" rx="27.66" ry="18"/>
<text text-anchor="middle" x="499.76" y="-14.12" font-family="Helvetica,Arial,sans-serif" font-size="10.00">vehicle</text>
</g>
<!-- Booking&#45;&gt;vehicle -->
<g id="edge2" class="edge">
<title>Booking&#45;&gt;vehicle</title>
<path fill="none" stroke="black" d="M403.57,-87.57C416.06,-81.13 431.62,-72.58 444.76,-63.75 455.18,-56.75 466.03,-48.22 475.31,-40.5"/>
<polygon fill="black" stroke="black" points="477.48,-43.24 482.84,-34.1 472.95,-37.91 477.48,-43.24"/>
<text text-anchor="middle" x="472.39" y="-55.2" font-family="Helvetica,Arial,sans-serif" font-size="9.00" fill="dimgrey">vehicle</text>
<text text-anchor="middle" x="475.65" y="-47.62" font-family="Helvetica,Arial,sans-serif" font-size="9.00" fill="blue">0..1</text>
</g>
<!-- location -->
<g id="node8" class="node">
<title>location</title>
<ellipse fill="none" stroke="black" cx="189.76" cy="-18" rx="29.44" ry="18"/>
<text text-anchor="middle" x="189.76" y="-14.12" font-family="Helvetica,Arial,sans-serif" font-size="10.00">location</text>
</g>
<!-- Booking&#45;&gt;location -->
<g id="edge3" class="edge">
<title>Booking&#45;&gt;location</title>
<path fill="none" stroke="black" d="M356.97,-88C336.37,-78.77 305.72,-65.21 278.76,-54 261.03,-46.63 241.15,-38.77 224.69,-32.37"/>
<polygon fill="black" stroke="black" points="226.42,-29.29 215.83,-28.95 223.89,-35.82 226.42,-29.29"/>
<text text-anchor="middle" x="310.76" y="-55.2" font-family="Helvetica,Arial,sans-serif" font-size="9.00" fill="dimgrey">from</text>
<text text-anchor="middle" x="234.37" y="-23.38" font-family="Helvetica,Arial,sans-serif" font-size="9.00" fill="blue">0..1</text>
</g>
<!-- customer -->
<g id="node9" class="node">
<title>customer</title>
<ellipse fill="none" stroke="black" cx="420.76" cy="-18" rx="33.43" ry="18"/>
<text text-anchor="middle" x="420.76" y="-14.12" font-family="Helvetica,Arial,sans-serif" font-size="10.00">customer</text>
</g>
<!-- Booking&#45;&gt;customer -->
<g id="edge4" class="edge">
<title>Booking&#45;&gt;customer</title>
<path fill="none" stroke="black" d="M389.43,-82.05C392.41,-76.26 395.75,-69.73 398.76,-63.75 401.68,-57.95 404.78,-51.71 407.7,-45.78"/>
<polygon fill="black" stroke="black" points="410.75,-47.49 412.02,-36.97 404.47,-44.41 410.75,-47.49"/>
<text text-anchor="middle" x="422.51" y="-55.2" font-family="Helvetica,Arial,sans-serif" font-size="9.00" fill="dimgrey">customer</text>
<text text-anchor="middle" x="412.29" y="-51.93" font-family="Helvetica,Arial,sans-serif" font-size="9.00" fill="blue">1..1</text>
</g>
<!-- Class -->
<g id="node4" class="node">
<title>Class</title>
<ellipse fill="none" stroke="black" cx="455.76" cy="-99.75" rx="27" ry="18"/>
<text text-anchor="middle" x="455.76" y="-95.88" font-family="Helvetica,Arial,sans-serif" font-size="10.00">Class</text>
</g>
<!-- Vehicle -->
<g id="node5" class="node">
<title>Vehicle</title>
<ellipse fill="none" stroke="black" cx="196.76" cy="-99.75" rx="28.55" ry="18"/>
<text text-anchor="middle" x="196.76" y="-95.88" font-family="Helvetica,Arial,sans-serif" font-size="10.00">Vehicle</text>
</g>
<!-- Vehicle&#45;&gt;class -->
<g id="edge5" class="edge">
<title>Vehicle&#45;&gt;class</title>
<path fill="none" stroke="black" d="M207.38,-82.68C213.87,-73.59 222.75,-62.4 232.26,-54 240.22,-46.97 249.76,-40.53 258.77,-35.13"/>
<polygon fill="black" stroke="black" points="260.34,-38.27 267.29,-30.27 256.87,-32.19 260.34,-38.27"/>
<text text-anchor="middle" x="256.01" y="-55.2" font-family="Helvetica,Arial,sans-serif" font-size="9.00" fill="dimgrey">rentalClass</text>
<text text-anchor="middle" x="257.06" y="-42.17" font-family="Helvetica,Arial,sans-serif" font-size="9.00" fill="blue">1..1</text>
</g>
<!-- Vehicle&#45;&gt;location -->
<g id="edge6" class="edge">
<title>Vehicle&#45;&gt;location</title>
<path fill="none" stroke="black" d="M179.42,-85.26C173.25,-79.39 167.03,-71.98 163.76,-63.75 160.91,-56.57 162.91,-49.16 166.82,-42.49"/>
<polygon fill="black" stroke="black" points="169.54,-44.7 172.68,-34.57 163.92,-40.53 169.54,-44.7"/>
<text text-anchor="middle" x="186.26" y="-55.2" font-family="Helvetica,Arial,sans-serif" font-size="9.00" fill="dimgrey">onProperty</text>
<text text-anchor="middle" x="169.59" y="-49.28" font-family="Helvetica,Arial,sans-serif" font-size="9.00" fill="blue">0..1</text>
</g>
</g>
</svg>
