<?xml version="1.0" encoding="UTF-8" standalone="no"?>
<!DOCTYPE svg PUBLIC "-//W3C//DTD SVG 1.1//EN"
 "http://www.w3.org/Graphics/SVG/1.1/DTD/svg11.dtd">
<!-- Generated by graphviz version 9.0.0 (20230911.1827)
 -->
<!-- Pages: 1 -->
<svg width="897pt" height="61pt"
 viewBox="0.00 0.00 896.70 60.95" xmlns="http://www.w3.org/2000/svg" xmlns:xlink="http://www.w3.org/1999/xlink">
<g id="graph0" class="graph" transform="scale(1 1) rotate(0) translate(4 56.95)">
<!-- created -->
<g id="node1" class="node">
<title>created</title>
<ellipse fill="black" stroke="black" cx="46.95" cy="-19.95" rx="7.2" ry="7.2"/>
<text text-anchor="middle" x="19.88" y="-1.35" font-family="Sans-Serif" font-size="12.00">created</text>
</g>
<!-- Planned -->
<g id="node2" class="node">
<title>Planned</title>
<path fill="none" stroke="black" d="M169.15,-37.95C169.15,-37.95 85.15,-37.95 85.15,-37.95 79.15,-37.95 73.15,-31.95 73.15,-25.95 73.15,-25.95 73.15,-13.95 73.15,-13.95 73.15,-7.95 79.15,-1.95 85.15,-1.95 85.15,-1.95 169.15,-1.95 169.15,-1.95 175.15,-1.95 181.15,-7.95 181.15,-13.95 181.15,-13.95 181.15,-25.95 181.15,-25.95 181.15,-31.95 175.15,-37.95 169.15,-37.95"/>
<text text-anchor="middle" x="127.15" y="-14.92" font-family="Sans-Serif" font-size="12.00">Planned</text>
</g>
<!-- created&#45;&gt;Planned -->
<g id="edge1" class="edge">
<title>created&#45;&gt;Planned</title>
<path fill="none" stroke="black" d="M54.62,-19.95C56.52,-19.95 58.76,-19.95 61.25,-19.95"/>
<polygon fill="black" stroke="black" points="61.2,-23.45 71.2,-19.95 61.2,-16.45 61.2,-23.45"/>
</g>
<!-- Loaded -->
<g id="node3" class="node">
<title>Loaded</title>
<path fill="none" stroke="black" d="M393.4,-37.95C393.4,-37.95 309.4,-37.95 309.4,-37.95 303.4,-37.95 297.4,-31.95 297.4,-25.95 297.4,-25.95 297.4,-13.95 297.4,-13.95 297.4,-7.95 303.4,-1.95 309.4,-1.95 309.4,-1.95 393.4,-1.95 393.4,-1.95 399.4,-1.95 405.4,-7.95 405.4,-13.95 405.4,-13.95 405.4,-25.95 405.4,-25.95 405.4,-31.95 399.4,-37.95 393.4,-37.95"/>
<text text-anchor="middle" x="351.4" y="-14.92" font-family="Sans-Serif" font-size="12.00">Loaded</text>
</g>
<!-- Planned&#45;&gt;Loaded -->
<g id="edge2" class="edge">
<title>Planned&#45;&gt;Loaded</title>
<path fill="none" stroke="black" d="M181.38,-19.95C212.75,-19.95 252.64,-19.95 285.79,-19.95"/>
<polygon fill="black" stroke="black" points="285.7,-23.45 295.7,-19.95 285.7,-16.45 285.7,-23.45"/>
<text text-anchor="middle" x="239.27" y="-23.15" font-family="Times,serif" font-size="14.00">LoadingComplete</text>
</g>
<!-- InTransit -->
<g id="node4" class="node">
<title>InTransit</title>
<path fill="none" stroke="black" d="M575.65,-37.95C575.65,-37.95 491.65,-37.95 491.65,-37.95 485.65,-37.95 479.65,-31.95 479.65,-25.95 479.65,-25.95 479.65,-13.95 479.65,-13.95 479.65,-7.95 485.65,-1.95 491.65,-1.95 491.65,-1.95 575.65,-1.95 575.65,-1.95 581.65,-1.95 587.65,-7.95 587.65,-13.95 587.65,-13.95 587.65,-25.95 587.65,-25.95 587.65,-31.95 581.65,-37.95 575.65,-37.95"/>
<text text-anchor="middle" x="533.65" y="-14.92" font-family="Sans-Serif" font-size="12.00">InTransit</text>
</g>
<!-- Loaded&#45;&gt;InTransit -->
<g id="edge3" class="edge">
<title>Loaded&#45;&gt;InTransit</title>
<path fill="none" stroke="black" d="M405.51,-19.95C425.04,-19.95 447.39,-19.95 467.84,-19.95"/>
<polygon fill="black" stroke="black" points="467.79,-23.45 477.79,-19.95 467.79,-16.45 467.79,-23.45"/>
<text text-anchor="middle" x="442.52" y="-23.15" font-family="Times,serif" font-size="14.00">Embarked</text>
</g>
<!-- Delivered -->
<g id="node5" class="node">
<title>Delivered</title>
<path fill="none" stroke="black" d="M838.9,-37.95C838.9,-37.95 754.9,-37.95 754.9,-37.95 748.9,-37.95 742.9,-31.95 742.9,-25.95 742.9,-25.95 742.9,-13.95 742.9,-13.95 742.9,-7.95 748.9,-1.95 754.9,-1.95 754.9,-1.95 838.9,-1.95 838.9,-1.95 844.9,-1.95 850.9,-7.95 850.9,-13.95 850.9,-13.95 850.9,-25.95 850.9,-25.95 850.9,-31.95 844.9,-37.95 838.9,-37.95"/>
<text text-anchor="middle" x="796.9" y="-14.92" font-family="Sans-Serif" font-size="12.00">Delivered</text>
</g>
<!-- InTransit&#45;&gt;Delivered -->
<g id="edge4" class="edge">
<title>InTransit&#45;&gt;Delivered</title>
<path fill="none" stroke="black" d="M588.15,-19.95C629.53,-19.95 687.01,-19.95 731.02,-19.95"/>
<polygon fill="black" stroke="black" points="730.96,-23.45 740.96,-19.95 730.96,-16.45 730.96,-23.45"/>
<text text-anchor="middle" x="665.27" y="-39.65" font-family="Times,serif" font-size="14.00">LoadingComplete</text>
<text text-anchor="middle" x="665.27" y="-23.15" font-family="Times,serif" font-size="14.00">[ev.signed =&gt; Delivered]</text>
</g>
<!-- end -->
<g id="node6" class="node">
<title>end</title>
<ellipse fill="black" stroke="black" cx="879.3" cy="-19.95" rx="5.4" ry="5.4"/>
<ellipse fill="none" stroke="black" cx="879.3" cy="-19.95" rx="9.4" ry="9.4"/>
</g>
<!-- Delivered&#45;&gt;end -->
<g id="edge5" class="edge">
<title>Delivered&#45;&gt;end</title>
<path fill="none" stroke="black" d="M851.08,-19.95C853.68,-19.95 856.2,-19.95 858.59,-19.95"/>
<polygon fill="black" stroke="black" points="858.32,-23.45 868.32,-19.95 858.32,-16.45 858.32,-23.45"/>
</g>
</g>
</svg>
