<?xml version="1.0" encoding="UTF-8" standalone="no"?>
<!DOCTYPE svg PUBLIC "-//W3C//DTD SVG 1.1//EN"
 "http://www.w3.org/Graphics/SVG/1.1/DTD/svg11.dtd">
<!-- Generated by graphviz version 9.0.0 (20230911.1827)
 -->
<!-- Pages: 1 -->
<svg width="593pt" height="220pt"
 viewBox="0.00 0.00 593.45 220.49" xmlns="http://www.w3.org/2000/svg" xmlns:xlink="http://www.w3.org/1999/xlink">
<g id="graph0" class="graph" transform="scale(1 1) rotate(0) translate(4 216.49)">
<!-- start -->
<g id="node1" class="node">
<title>start</title>
<ellipse fill="black" stroke="black" cx="7.2" cy="-137" rx="7.2" ry="7.2"/>
</g>
<!-- draft -->
<g id="node2" class="node">
<title>draft</title>
<path fill="none" stroke="black" d="M129.4,-155C129.4,-155 45.4,-155 45.4,-155 39.4,-155 33.4,-149 33.4,-143 33.4,-143 33.4,-131 33.4,-131 33.4,-125 39.4,-119 45.4,-119 45.4,-119 129.4,-119 129.4,-119 135.4,-119 141.4,-125 141.4,-131 141.4,-131 141.4,-143 141.4,-143 141.4,-149 135.4,-155 129.4,-155"/>
<text text-anchor="middle" x="87.4" y="-131.97" font-family="Sans-Serif" font-size="12.00">Draft</text>
</g>
<!-- start&#45;&gt;draft -->
<g id="edge1" class="edge">
<title>start&#45;&gt;draft</title>
<path fill="none" stroke="black" d="M14.87,-137C16.77,-137 19.01,-137 21.5,-137"/>
<polygon fill="black" stroke="black" points="21.45,-140.5 31.45,-137 21.45,-133.5 21.45,-140.5"/>
</g>
<!-- proposed -->
<g id="node3" class="node">
<title>proposed</title>
<path fill="none" stroke="black" d="M256.4,-155C256.4,-155 172.4,-155 172.4,-155 166.4,-155 160.4,-149 160.4,-143 160.4,-143 160.4,-131 160.4,-131 160.4,-125 166.4,-119 172.4,-119 172.4,-119 256.4,-119 256.4,-119 262.4,-119 268.4,-125 268.4,-131 268.4,-131 268.4,-143 268.4,-143 268.4,-149 262.4,-155 256.4,-155"/>
<text text-anchor="middle" x="214.4" y="-131.97" font-family="Sans-Serif" font-size="12.00">Proposed</text>
</g>
<!-- draft&#45;&gt;proposed -->
<g id="edge2" class="edge">
<title>draft&#45;&gt;proposed</title>
<path fill="none" stroke="black" d="M141.77,-137C144.16,-137 146.56,-137 148.97,-137"/>
<polygon fill="black" stroke="black" points="148.69,-140.5 158.69,-137 148.69,-133.5 148.69,-140.5"/>
</g>
<!-- rejected -->
<g id="node7" class="node">
<title>rejected</title>
<path fill="none" stroke="black" d="M383.4,-36C383.4,-36 299.4,-36 299.4,-36 293.4,-36 287.4,-30 287.4,-24 287.4,-24 287.4,-12 287.4,-12 287.4,-6 293.4,0 299.4,0 299.4,0 383.4,0 383.4,0 389.4,0 395.4,-6 395.4,-12 395.4,-12 395.4,-24 395.4,-24 395.4,-30 389.4,-36 383.4,-36"/>
<text text-anchor="middle" x="341.4" y="-12.97" font-family="Sans-Serif" font-size="12.00">Rejected</text>
</g>
<!-- draft&#45;&gt;rejected -->
<g id="edge3" class="edge">
<title>draft&#45;&gt;rejected</title>
<path fill="none" stroke="black" d="M127.5,-118.54C171.68,-97.68 243.64,-63.69 291.5,-41.09"/>
<polygon fill="black" stroke="black" points="292.71,-44.39 300.26,-36.96 289.72,-38.06 292.71,-44.39"/>
</g>
<!-- withdrawn -->
<g id="node8" class="node">
<title>withdrawn</title>
<path fill="none" stroke="black" d="M535.65,-191C535.65,-191 451.65,-191 451.65,-191 445.65,-191 439.65,-185 439.65,-179 439.65,-179 439.65,-167 439.65,-167 439.65,-161 445.65,-155 451.65,-155 451.65,-155 535.65,-155 535.65,-155 541.65,-155 547.65,-161 547.65,-167 547.65,-167 547.65,-179 547.65,-179 547.65,-185 541.65,-191 535.65,-191"/>
<text text-anchor="middle" x="493.65" y="-167.97" font-family="Sans-Serif" font-size="12.00">Withdrawn</text>
</g>
<!-- draft&#45;&gt;withdrawn -->
<g id="edge4" class="edge">
<title>draft&#45;&gt;withdrawn</title>
<path fill="none" stroke="black" d="M112.9,-155.32C126.31,-164.55 143.59,-175.21 160.4,-182 257.87,-221.39 290.31,-211.98 395.4,-209 411.09,-208.56 415.57,-211.32 430.65,-207 439.02,-204.6 447.51,-200.92 455.41,-196.86"/>
<polygon fill="black" stroke="black" points="457,-199.98 464.08,-192.09 453.63,-193.84 457,-199.98"/>
</g>
<!-- proposed&#45;&gt;proposed -->
<g id="edge5" class="edge">
<title>proposed&#45;&gt;proposed</title>
<path fill="none" stroke="black" d="M202.91,-155.15C201.14,-164.54 204.97,-173 214.4,-173 219.7,-173 223.23,-170.32 224.99,-166.31"/>
<polygon fill="black" stroke="black" points="228.46,-166.91 225.77,-156.66 221.48,-166.35 228.46,-166.91"/>
</g>
<!-- testing -->
<g id="node4" class="node">
<title>testing</title>
<path fill="none" stroke="black" d="M383.4,-182C383.4,-182 299.4,-182 299.4,-182 293.4,-182 287.4,-176 287.4,-170 287.4,-170 287.4,-158 287.4,-158 287.4,-152 293.4,-146 299.4,-146 299.4,-146 383.4,-146 383.4,-146 389.4,-146 395.4,-152 395.4,-158 395.4,-158 395.4,-170 395.4,-170 395.4,-176 389.4,-182 383.4,-182"/>
<text text-anchor="middle" x="341.4" y="-158.97" font-family="Sans-Serif" font-size="12.00">Testing</text>
</g>
<!-- proposed&#45;&gt;testing -->
<g id="edge6" class="edge">
<title>proposed&#45;&gt;testing</title>
<path fill="none" stroke="black" d="M268.77,-141.84C271.16,-142.32 273.56,-142.82 275.97,-143.34"/>
<polygon fill="black" stroke="black" points="275.21,-146.75 285.73,-145.5 276.72,-139.92 275.21,-146.75"/>
</g>
<!-- approved -->
<g id="node6" class="node">
<title>approved</title>
<path fill="none" stroke="black" d="M383.4,-128C383.4,-128 299.4,-128 299.4,-128 293.4,-128 287.4,-122 287.4,-116 287.4,-116 287.4,-104 287.4,-104 287.4,-98 293.4,-92 299.4,-92 299.4,-92 383.4,-92 383.4,-92 389.4,-92 395.4,-98 395.4,-104 395.4,-104 395.4,-116 395.4,-116 395.4,-122 389.4,-128 383.4,-128"/>
<text text-anchor="middle" x="341.4" y="-104.97" font-family="Sans-Serif" font-size="12.00">Approved</text>
</g>
<!-- proposed&#45;&gt;approved -->
<g id="edge7" class="edge">
<title>proposed&#45;&gt;approved</title>
<path fill="none" stroke="black" d="M268.77,-125.47C271.16,-124.96 273.56,-124.44 275.97,-123.92"/>
<polygon fill="black" stroke="black" points="276.69,-127.34 285.73,-121.81 275.21,-120.5 276.69,-127.34"/>
</g>
<!-- proposed&#45;&gt;rejected -->
<g id="edge8" class="edge">
<title>proposed&#45;&gt;rejected</title>
<path fill="none" stroke="black" d="M225.62,-118.84C236.61,-100.52 255.48,-72.26 277.4,-53 281.7,-49.22 286.46,-45.68 291.4,-42.41"/>
<polygon fill="black" stroke="black" points="293.07,-45.49 299.74,-37.25 289.39,-39.54 293.07,-45.49"/>
</g>
<!-- proposed&#45;&gt;withdrawn -->
<g id="edge9" class="edge">
<title>proposed&#45;&gt;withdrawn</title>
<path fill="none" stroke="black" d="M233,-155.41C246.5,-168.14 266.35,-183.98 287.4,-191 332.94,-206.18 387.14,-200.5 428.4,-191.66"/>
<polygon fill="black" stroke="black" points="428.95,-195.12 437.93,-189.49 427.4,-188.29 428.95,-195.12"/>
</g>
<!-- testing&#45;&gt;proposed -->
<g id="edge10" class="edge">
<title>testing&#45;&gt;proposed</title>
<path fill="none" stroke="black" d="M287.2,-159.19C284.82,-158.71 282.42,-158.21 280.01,-157.7"/>
<polygon fill="black" stroke="black" points="280.77,-154.29 270.25,-155.54 279.26,-161.12 280.77,-154.29"/>
</g>
<!-- testing&#45;&gt;withdrawn -->
<g id="edge11" class="edge">
<title>testing&#45;&gt;withdrawn</title>
<path fill="none" stroke="black" d="M395.8,-167.2C406.14,-167.82 417.09,-168.47 427.75,-169.11"/>
<polygon fill="black" stroke="black" points="427.47,-172.6 437.66,-169.71 427.89,-165.61 427.47,-172.6"/>
</g>
<!-- updating -->
<g id="node5" class="node">
<title>updating</title>
<path fill="none" stroke="black" d="M535.65,-115C535.65,-115 451.65,-115 451.65,-115 445.65,-115 439.65,-109 439.65,-103 439.65,-103 439.65,-91 439.65,-91 439.65,-85 445.65,-79 451.65,-79 451.65,-79 535.65,-79 535.65,-79 541.65,-79 547.65,-85 547.65,-91 547.65,-91 547.65,-103 547.65,-103 547.65,-109 541.65,-115 535.65,-115"/>
<text text-anchor="middle" x="493.65" y="-91.97" font-family="Sans-Serif" font-size="12.00">Updating</text>
</g>
<!-- updating&#45;&gt;proposed -->
<g id="edge14" class="edge">
<title>updating&#45;&gt;proposed</title>
<path fill="none" stroke="black" d="M439.36,-82.43C397.08,-73.43 337.04,-66.45 287.4,-83 270.3,-88.7 253.99,-100.23 241.23,-111.18"/>
<polygon fill="black" stroke="black" points="239.21,-108.28 234.12,-117.57 243.9,-113.49 239.21,-108.28"/>
</g>
<!-- updating&#45;&gt;approved -->
<g id="edge15" class="edge">
<title>updating&#45;&gt;approved</title>
<path fill="none" stroke="black" d="M439.34,-94.07C430.14,-94.04 420.57,-94.31 406.96,-95.68"/>
<polygon fill="black" stroke="black" points="406.75,-92.18 397.21,-96.78 407.53,-99.13 406.75,-92.18"/>
<text text-anchor="middle" x="417.53" y="-96.75" font-family="Times,serif" font-size="10.00">cancel</text>
</g>
<!-- approved&#45;&gt;updating -->
<g id="edge13" class="edge">
<title>approved&#45;&gt;updating</title>
<path fill="none" stroke="black" d="M395.69,-110.94C404.89,-110.76 414.46,-110.36 428.06,-109.1"/>
<polygon fill="black" stroke="black" points="428.21,-112.6 437.8,-108.11 427.5,-105.64 428.21,-112.6"/>
</g>
<!-- approved&#45;&gt;withdrawn -->
<g id="edge12" class="edge">
<title>approved&#45;&gt;withdrawn</title>
<path fill="none" stroke="black" d="M386.26,-128.39C402.55,-135.22 421.21,-143.05 438.32,-150.22"/>
<polygon fill="black" stroke="black" points="436.76,-153.36 447.34,-154 439.47,-146.91 436.76,-153.36"/>
</g>
<!-- end -->
<g id="node9" class="node">
<title>end</title>
<ellipse fill="black" stroke="black" cx="576.05" cy="-41" rx="5.4" ry="5.4"/>
<ellipse fill="none" stroke="black" cx="576.05" cy="-41" rx="9.4" ry="9.4"/>
</g>
<!-- rejected&#45;&gt;end -->
<g id="edge17" class="edge">
<title>rejected&#45;&gt;end</title>
<path fill="none" stroke="black" d="M395.77,-23.28C446.45,-28.29 519.93,-35.55 554.99,-39.02"/>
<polygon fill="black" stroke="black" points="554.61,-42.5 564.91,-40 555.3,-35.53 554.61,-42.5"/>
</g>
<!-- withdrawn&#45;&gt;end -->
<g id="edge16" class="edge">
<title>withdrawn&#45;&gt;end</title>
<path fill="none" stroke="black" d="M519.43,-154.68C529.36,-146.27 540.19,-135.59 547.65,-124 560.07,-104.69 567.38,-79.22 571.28,-61.61"/>
<polygon fill="black" stroke="black" points="574.7,-62.36 573.25,-51.86 567.84,-60.97 574.7,-62.36"/>
</g>
</g>
</svg>
