<?xml version="1.0" encoding="UTF-8" standalone="no"?>
<!DOCTYPE svg PUBLIC "-//W3C//DTD SVG 1.1//EN"
 "http://www.w3.org/Graphics/SVG/1.1/DTD/svg11.dtd">
<!-- Generated by graphviz version 9.0.0 (20230911.1827)
 -->
<!-- Pages: 1 -->
<svg width="593pt" height="220pt"
 viewBox="0.00 0.00 593.45 220.49" xmlns="http://www.w3.org/2000/svg" xmlns:xlink="http://www.w3.org/1999/xlink">
<g id="graph0" class="graph" transform="scale(1 1) rotate(0) translate(4 216.49)">
<!-- start -->
<g id="node1" class="node">
<title>start</title>
<ellipse fill="black" stroke="black" cx="7.2" cy="-137" rx="7.2" ry="7.2"/>
</g>
<!-- draft -->
<g id="node2" class="node">
<title>draft</title>
<ellipse fill="none" stroke="black" cx="87.4" cy="-137" rx="54" ry="18"/>
<text text-anchor="middle" x="87.4" y="-131.97" font-family="Sans-Serif" font-size="12.00">Draft</text>
</g>
<!-- start&#45;&gt;draft -->
<g id="edge1" class="edge">
<title>start&#45;&gt;draft</title>
<path fill="none" stroke="black" d="M14.87,-137C16.77,-137 19.01,-137 21.5,-137"/>
<polygon fill="black" stroke="black" points="21.45,-140.5 31.45,-137 21.45,-133.5 21.45,-140.5"/>
</g>
<!-- proposed -->
<g id="node3" class="node">
<title>proposed</title>
<ellipse fill="none" stroke="black" cx="214.4" cy="-137" rx="54" ry="18"/>
<text text-anchor="middle" x="214.4" y="-131.97" font-family="Sans-Serif" font-size="12.00">Proposed</text>
</g>
<!-- draft&#45;&gt;proposed -->
<g id="edge2" class="edge">
<title>draft&#45;&gt;proposed</title>
<path fill="none" stroke="black" d="M141.77,-137C144.16,-137 146.56,-137 148.97,-137"/>
<polygon fill="black" stroke="black" points="148.69,-140.5 158.69,-137 148.69,-133.5 148.69,-140.5"/>
</g>
<!-- rejected -->
<g id="node7" class="node">
<title>rejected</title>
<ellipse fill="none" stroke="black" cx="341.4" cy="-18" rx="54" ry="18"/>
<text text-anchor="middle" x="341.4" y="-12.97" font-family="Sans-Serif" font-size="12.00">Rejected</text>
</g>
<!-- draft&#45;&gt;rejected -->
<g id="edge3" class="edge">
<title>draft&#45;&gt;rejected</title>
<path fill="none" stroke="black" d="M119.81,-122.17C165.01,-100.82 248.5,-61.4 298.79,-37.65"/>
<polygon fill="black" stroke="black" points="300.08,-40.91 307.63,-33.48 297.09,-34.58 300.08,-40.91"/>
</g>
<!-- withdrawn -->
<g id="node8" class="node">
<title>withdrawn</title>
<ellipse fill="none" stroke="black" cx="493.65" cy="-173" rx="54" ry="18"/>
<text text-anchor="middle" x="493.65" y="-167.97" font-family="Sans-Serif" font-size="12.00">Withdrawn</text>
</g>
<!-- draft&#45;&gt;withdrawn -->
<g id="edge4" class="edge">
<title>draft&#45;&gt;withdrawn</title>
<path fill="none" stroke="black" d="M110.33,-153.53C124.06,-163.15 142.5,-174.77 160.4,-182 257.87,-221.39 290.31,-211.98 395.4,-209 411.09,-208.56 415.57,-211.32 430.65,-207 440.23,-204.25 449.98,-199.83 458.82,-195.06"/>
<polygon fill="black" stroke="black" points="460.46,-198.16 467.4,-190.15 456.98,-192.08 460.46,-198.16"/>
</g>
<!-- proposed&#45;&gt;proposed -->
<g id="edge5" class="edge">
<title>proposed&#45;&gt;proposed</title>
<path fill="none" stroke="black" d="M202.98,-154.78C201.05,-164.31 204.85,-173 214.4,-173 219.77,-173 223.33,-170.25 225.06,-166.15"/>
<polygon fill="black" stroke="black" points="228.55,-166.5 225.71,-156.29 221.56,-166.04 228.55,-166.5"/>
</g>
<!-- testing -->
<g id="node4" class="node">
<title>testing</title>
<ellipse fill="none" stroke="black" cx="341.4" cy="-164" rx="54" ry="18"/>
<text text-anchor="middle" x="341.4" y="-158.97" font-family="Sans-Serif" font-size="12.00">Testing</text>
</g>
<!-- proposed&#45;&gt;testing -->
<g id="edge6" class="edge">
<title>proposed&#45;&gt;testing</title>
<path fill="none" stroke="black" d="M266.96,-141.48C276.04,-143.29 285.44,-145.36 294.36,-147.52"/>
<polygon fill="black" stroke="black" points="293.31,-150.86 303.86,-149.92 295.03,-144.08 293.31,-150.86"/>
</g>
<!-- approved -->
<g id="node6" class="node">
<title>approved</title>
<ellipse fill="none" stroke="black" cx="341.4" cy="-110" rx="54" ry="18"/>
<text text-anchor="middle" x="341.4" y="-104.97" font-family="Sans-Serif" font-size="12.00">Approved</text>
</g>
<!-- proposed&#45;&gt;approved -->
<g id="edge7" class="edge">
<title>proposed&#45;&gt;approved</title>
<path fill="none" stroke="black" d="M260.53,-127.25C268.23,-125.59 276.31,-123.84 284.25,-122.13"/>
<polygon fill="black" stroke="black" points="284.82,-125.59 293.86,-120.05 283.35,-118.74 284.82,-125.59"/>
</g>
<!-- proposed&#45;&gt;rejected -->
<g id="edge8" class="edge">
<title>proposed&#45;&gt;rejected</title>
<path fill="none" stroke="black" d="M225.42,-119.18C236.37,-100.87 255.34,-72.38 277.4,-53 283.67,-47.49 290.94,-42.48 298.28,-38.08"/>
<polygon fill="black" stroke="black" points="299.92,-41.17 306.91,-33.2 296.48,-35.07 299.92,-41.17"/>
</g>
<!-- proposed&#45;&gt;withdrawn -->
<g id="edge9" class="edge">
<title>proposed&#45;&gt;withdrawn</title>
<path fill="none" stroke="black" d="M231.87,-154.35C245.38,-167.24 265.76,-183.79 287.4,-191 338.49,-208.03 400.47,-198.8 442.87,-188.32"/>
<polygon fill="black" stroke="black" points="443.48,-191.77 452.28,-185.87 441.72,-185 443.48,-191.77"/>
</g>
<!-- testing&#45;&gt;proposed -->
<g id="edge10" class="edge">
<title>testing&#45;&gt;proposed</title>
<path fill="none" stroke="black" d="M288.71,-159.5C279.68,-157.7 270.34,-155.64 261.47,-153.49"/>
<polygon fill="black" stroke="black" points="262.57,-150.16 252.02,-151.1 260.86,-156.94 262.57,-150.16"/>
</g>
<!-- testing&#45;&gt;withdrawn -->
<g id="edge11" class="edge">
<title>testing&#45;&gt;withdrawn</title>
<path fill="none" stroke="black" d="M394.95,-167.15C405.93,-167.81 417.62,-168.51 428.95,-169.18"/>
<polygon fill="black" stroke="black" points="428.43,-172.66 438.62,-169.76 428.85,-165.67 428.43,-172.66"/>
</g>
<!-- updating -->
<g id="node5" class="node">
<title>updating</title>
<ellipse fill="none" stroke="black" cx="493.65" cy="-97" rx="54" ry="18"/>
<text text-anchor="middle" x="493.65" y="-91.97" font-family="Sans-Serif" font-size="12.00">Updating</text>
</g>
<!-- updating&#45;&gt;proposed -->
<g id="edge14" class="edge">
<title>updating&#45;&gt;proposed</title>
<path fill="none" stroke="black" d="M451.76,-85.23C409.49,-75.11 342.12,-64.76 287.4,-83 269.82,-88.86 253.07,-100.89 240.16,-112.1"/>
<polygon fill="black" stroke="black" points="238.02,-109.31 232.99,-118.63 242.74,-114.49 238.02,-109.31"/>
</g>
<!-- updating&#45;&gt;approved -->
<g id="edge15" class="edge">
<title>updating&#45;&gt;approved</title>
<path fill="none" stroke="black" d="M440.28,-94.07C428.45,-94.01 415.97,-94.44 404.4,-95.75 401.62,-96.07 398.77,-96.46 395.91,-96.91"/>
<polygon fill="black" stroke="black" points="395.58,-93.42 386.36,-98.64 396.82,-100.3 395.58,-93.42"/>
<text text-anchor="middle" x="417.53" y="-96.75" font-family="Times,serif" font-size="10.00">cancel</text>
</g>
<!-- approved&#45;&gt;updating -->
<g id="edge13" class="edge">
<title>approved&#45;&gt;updating</title>
<path fill="none" stroke="black" d="M395.69,-110.94C407.24,-110.71 419.37,-110.15 430.65,-109 432.44,-108.82 434.25,-108.61 436.08,-108.38"/>
<polygon fill="black" stroke="black" points="436.53,-111.85 445.92,-106.95 435.52,-104.93 436.53,-111.85"/>
</g>
<!-- approved&#45;&gt;withdrawn -->
<g id="edge12" class="edge">
<title>approved&#45;&gt;withdrawn</title>
<path fill="none" stroke="black" d="M376.12,-124.14C397.41,-133.06 425.14,-144.69 448.22,-154.37"/>
<polygon fill="black" stroke="black" points="446.81,-157.58 457.39,-158.21 449.52,-151.12 446.81,-157.58"/>
</g>
<!-- end -->
<g id="node9" class="node">
<title>end</title>
<ellipse fill="black" stroke="black" cx="576.05" cy="-41" rx="5.4" ry="5.4"/>
<ellipse fill="none" stroke="black" cx="576.05" cy="-41" rx="9.4" ry="9.4"/>
</g>
<!-- rejected&#45;&gt;end -->
<g id="edge17" class="edge">
<title>rejected&#45;&gt;end</title>
<path fill="none" stroke="black" d="M393.74,-23.08C444.51,-28.1 519.6,-35.52 555.08,-39.03"/>
<polygon fill="black" stroke="black" points="554.45,-42.48 564.74,-39.98 555.13,-35.51 554.45,-42.48"/>
</g>
<!-- withdrawn&#45;&gt;end -->
<g id="edge16" class="edge">
<title>withdrawn&#45;&gt;end</title>
<path fill="none" stroke="black" d="M517.27,-156.48C527.76,-147.82 539.65,-136.44 547.65,-124 560.07,-104.69 567.38,-79.22 571.28,-61.61"/>
<polygon fill="black" stroke="black" points="574.7,-62.36 573.25,-51.86 567.84,-60.97 574.7,-62.36"/>
</g>
</g>
</svg>
